<?xml version="1.0" encoding="UTF-8"?>
<svg width="555px" height="555px" viewBox="0 0 555 555" version="1.1" xmlns="http://www.w3.org/2000/svg" xmlns:xlink="http://www.w3.org/1999/xlink">
    <!-- Generator: Sketch 48.2 (47327) - http://www.bohemiancoding.com/sketch -->
    <title>2017 WELL Community Seal / Platinium (Silver color)</title>
    <desc>Created with Sketch.</desc>
    <defs>
        <polygon id="path-1" points="0.00133426554 0.506246332 544.493754 0.506246332 544.493754 544.999333 0.00133426554 544.999333"></polygon>
        <polygon id="path-3" points="0 543.981308 545 543.981308 545 0 0 0"></polygon>
    </defs>
    <g id="Symbols" stroke="none" stroke-width="1" fill="none" fill-rule="evenodd">
        <g id="2017-WELL-Community-Seal-/-Platinium-(Silver-color)">
            <g id="Page-1" transform="translate(5.000000, 7.000000)">
                <g id="Group-3">
                    <mask id="mask-2" fill="white">
                        <use xlink:href="#path-1"></use>
                    </mask>
                    <g id="Clip-2"></g>
                    <path d="M544.495088,272.752456 C544.495088,122.394072 422.606595,0.5055792 272.248211,0.5055792 C121.889827,0.5055792 0.00133426554,122.394072 0.00133426554,272.752456 C0.00133426554,423.11084 121.889827,544.999333 272.248211,544.999333 C422.606595,544.999333 544.495088,423.11084 544.495088,272.752456" id="Fill-1" fill="#E5E6E7" mask="url(#mask-2)"></path>
                </g>
                <path d="M271.482976,47.7157998 C147.537193,47.7157998 46.6972329,148.555068 46.6972329,272.5 C46.6972329,396.444932 147.537193,497.2842 271.482976,497.2842 C395.428759,497.2842 496.268719,396.444932 496.268719,272.5 C496.268719,148.555068 395.428759,47.7157998 271.482976,47.7157998 M271.482976,515.457944 C137.513221,515.457944 28.5233645,406.468836 28.5233645,272.5 C28.5233645,138.531164 137.513221,29.5420561 271.482976,29.5420561 C405.452731,29.5420561 514.439252,138.531164 514.439252,272.5 C514.439252,406.468836 405.452731,515.457944 271.482976,515.457944" id="Fill-4" fill="#C6C7C9"></path>
                <polygon id="Fill-6" fill="#C6C7C9" points="490.856379 58.3051127 485.915888 58.3051127 485.915888 57.046729 497.121495 57.046729 497.121495 58.3051127 492.200531 58.3051127 492.200531 71.3084112 490.856379 71.3084112"></polygon>
                <path d="M500.31023,57.046729 L501.790539,57.046729 L505.570125,65.4258056 C505.899082,66.15648 506.26916,67.1713056 506.26916,67.1713056 L506.310279,67.1713056 C506.310279,67.1713056 506.700917,66.15648 507.029874,65.4258056 L510.80946,57.046729 L512.269209,57.046729 L513.420561,71.3084112 L512.001931,71.3084112 L511.203524,61.3292929 C511.138417,60.5580255 511.158977,59.3402348 511.158977,59.3402348 L511.117858,59.3402348 C511.117858,59.3402348 510.686101,60.5986185 510.36057,61.3292929 L506.968195,68.6495682 L505.635231,68.6495682 L502.239429,61.3292929 C501.913898,60.618915 501.461582,59.2996418 501.461582,59.2996418 L501.420462,59.2996418 C501.420462,59.2996418 501.441022,60.5580255 501.379342,61.3292929 L500.577508,71.3084112 L499.158879,71.3084112 L500.31023,57.046729 Z" id="Fill-8" fill="#C6C7C9"></path>
                <path d="M469.616822,358.978868 L452.809463,351.448598 C416.026117,434.251508 328.055967,481.663821 238.882203,466.740196 C230.51676,465.341002 222.187891,463.397491 214.125013,460.963094 L208.831776,478.66841 C217.636106,481.323206 226.729701,483.443703 235.856546,484.973132 C333.292681,501.279255 429.418806,449.468997 469.616822,358.978868" id="Fill-10" fill="#C6C7C9"></path>
                <path d="M397.893247,343.299065 C383.150271,368.742939 360.780119,390.046269 332.163169,403.22286 C296.637643,419.58371 256.857342,421.170806 220.155319,407.692231 L213.925234,424.791265 C255.146074,439.934111 299.826217,438.149047 339.726841,419.774967 C371.889993,404.964304 397.030929,381.010221 413.588785,352.405576 L397.893247,343.299065 Z" id="Fill-12" fill="#C6C7C9"></path>
                <path d="M59.0841121,226.18207 L77.0584261,230.224299 C96.8198548,141.712839 173.778938,77.7320315 264.216261,74.6352161 C272.695904,74.3445765 281.252091,74.5951279 289.641879,75.3768483 L291.345794,56.9663309 C282.183919,56.1111155 272.842335,55.8405199 263.587277,56.1545444 C164.773478,59.5386587 80.679247,129.455864 59.0841121,226.18207" id="Fill-14" fill="#C6C7C9"></path>
                <path d="M371.232891,99.9593157 C433.185561,135.768251 471.223046,202.393546 470.502589,273.838572 L488.960975,274.028037 C489.748142,195.965023 448.18842,123.170473 380.495439,84.0442333 C371.396328,78.7857411 361.883622,74.1587998 352.214149,70.2897196 L345.336449,87.3615374 C354.185401,90.9048703 362.897599,95.1429092 371.232891,99.9593157" id="Fill-16" fill="#C6C7C9"></path>
                <path d="M451.141173,211.88785 L433.58941,217.545567 C446.510013,257.519001 444.500956,300.830488 427.935397,339.499319 C424.923477,346.5282 421.458437,353.220946 417.663551,359.634134 L433.676036,368.766355 C437.814094,361.747458 441.595653,354.429035 444.887441,346.744524 C463.208843,303.988825 465.427801,256.094588 451.141173,211.88785" id="Fill-18" fill="#C6C7C9"></path>
                <path d="M369.472827,412.437258 C311.807474,451.118365 233.836247,453.145482 173.221549,411.518255 C163.954082,405.151581 155.482205,397.988659 147.749329,390.158879 L134.46729,402.878954 C143.052347,411.594562 152.466283,419.560368 162.769018,426.63703 C229.861622,472.716616 316.184888,470.420765 379.971963,427.522857 L369.472827,412.437258 Z" id="Fill-20" fill="#C6C7C9"></path>
                <path d="M96.285782,341.261682 L113.32155,334.623312 C98.3472253,295.356566 97.9415333,251.925418 112.183633,212.321919 C114.772806,205.123404 117.830339,198.23497 121.224299,191.606602 L104.894369,183.364486 C101.193666,190.616347 97.8557772,198.148281 95.0291261,206.016967 C79.2796989,249.808208 79.7249707,297.837203 96.285782,341.261682" id="Fill-22" fill="#C6C7C9"></path>
                <path d="M165.257674,137.391788 C220.333884,94.8366452 298.001024,87.8354653 361.127832,125.825638 C370.779232,131.633777 379.688472,138.294088 387.902145,145.672897 L400.345794,132.038141 C391.223558,123.827211 381.325881,116.414983 370.596188,109.958525 C300.723384,67.9080021 214.736072,75.7112264 153.82243,122.894834 L165.257674,137.391788 Z" id="Fill-24" fill="#C6C7C9"></path>
                <path d="M117.149533,223.514836 L134.3308,229.205607 C148.980899,184.848316 182.696469,150.833934 226.833518,135.88898 C259.355204,124.878139 293.080778,125.996923 323.144662,136.747271 L329.037383,119.624862 C295.315143,107.608785 257.501014,106.373113 221.037509,118.719816 C171.464616,135.508259 133.600463,173.703888 117.149533,223.514836" id="Fill-26" fill="#C6C7C9"></path>
                <path d="M206.7234,213.925234 L218.344829,257.27787 C219.188025,260.540081 219.607956,263.553901 219.607956,263.553901 L219.777928,263.553901 C219.777928,263.553901 220.03122,260.457284 220.871082,257.27787 L231.819289,213.925234 L240.411215,213.925234 L224.830434,273.009346 L215.145353,273.009346 L204.87037,234.680846 C203.860535,230.915228 203.10066,226.311701 203.10066,226.311701 L202.93402,226.311701 C202.93402,226.311701 202.174145,230.915228 201.16431,234.680846 L190.889326,273.009346 L181.204246,273.009346 L166.046729,213.925234 L174.635322,213.925234 L185.163598,257.27787 C185.92014,260.457284 186.256752,263.553901 186.256752,263.553901 L186.426724,263.553901 C186.426724,263.553901 186.846655,260.540081 187.689851,257.27787 L199.31128,213.925234 L206.7234,213.925234 Z" id="Fill-28" fill="#6C6E70"></path>
                <polygon id="Fill-30" fill="#6C6E70" points="250.598131 213.925234 284.83476 213.925234 284.83476 221.12197 258.865677 221.12197 258.865677 239.618874 279.990546 239.618874 279.990546 246.81561 258.865677 246.81561 258.865677 265.812609 286.252336 265.812609 286.252336 273.009346 250.598131 273.009346"></polygon>
                <polygon id="Fill-32" fill="#6C6E70" points="299.495327 213.925234 307.758706 213.925234 307.758706 265.812609 334.130841 265.812609 334.130841 273.009346 299.495327 273.009346"></polygon>
                <polygon id="Fill-34" fill="#6C6E70" points="344.317757 213.925234 352.581136 213.925234 352.581136 265.812609 378.953271 265.812609 378.953271 273.009346 344.317757 273.009346"></polygon>
                <path d="M190.879649,302.209959 C190.856213,302.232973 188.556095,304.629645 185.23147,304.629645 C180.962693,304.629645 178.732884,301.207236 178.732884,297.827566 C178.732884,293.984342 181.394593,291.304934 185.204686,291.304934 C188.258118,291.304934 190.504666,293.300517 190.528103,293.323531 L190.839473,293.606266 L193.005668,290.321937 L192.818177,290.121392 C192.707691,290.006325 190.096203,287.271028 185.030587,287.271028 C178.853414,287.271028 174.196262,291.83424 174.196262,297.883455 C174.196262,304.129928 178.776409,308.663551 185.090852,308.663551 C190.387484,308.663551 193.250076,305.435112 193.367259,305.297032 L193.551402,305.086624 L191.174279,301.894348 L190.879649,302.209959 Z" id="Fill-36" fill="#6C6E70"></path>
                <path d="M213.541991,297.827566 C213.541991,301.706954 210.859296,304.629645 207.302095,304.629645 C203.744893,304.629645 201.062198,301.706954 201.062198,297.827566 C201.062198,294.105984 203.744893,291.304934 207.302095,291.304934 C210.803407,291.304934 213.541991,294.168448 213.541991,297.827566 M207.302095,287.271028 C201.305481,287.271028 196.607477,291.906568 196.607477,297.827566 C196.607477,303.903082 201.305481,308.663551 207.302095,308.663551 C213.301995,308.663551 218,303.903082 218,297.827566 C218,291.906568 213.301995,287.271028 207.302095,287.271028" id="Fill-38" fill="#6C6E70"></path>
                <path d="M239.466225,287.271028 L235.514141,297.721145 C235.28052,298.362819 235.020941,299.164062 234.829502,299.785366 C234.628329,299.164062 234.36226,298.359424 234.12864,297.71775 L230.176555,287.271028 L225.783187,287.271028 L224.11215,308.663551 L228.398442,308.663551 L229.258296,296.767122 C229.281009,296.400451 229.293988,295.999829 229.300477,295.612788 C229.449735,296.060941 229.608727,296.509094 229.757985,296.882555 L233.018941,305.112277 L236.623839,305.112277 L239.913998,296.882555 C240.053522,296.52607 240.202779,296.105078 240.345548,295.68069 C240.352037,296.047361 240.365016,296.420822 240.384485,296.770517 L241.244339,308.663551 L245.504673,308.663551 L243.859593,287.271028 L239.466225,287.271028 Z" id="Fill-40" fill="#6C6E70"></path>
                <path d="M266.970898,287.271028 L263.018813,297.721145 C262.785193,298.362819 262.525614,299.164062 262.334175,299.785366 C262.133001,299.164062 261.866933,298.359424 261.633313,297.71775 L257.681228,287.271028 L253.28786,287.271028 L251.616822,308.663551 L255.903114,308.663551 L256.762969,296.767122 C256.782437,296.400451 256.795416,295.999829 256.801905,295.612788 C256.954408,296.060941 257.1134,296.509094 257.262658,296.882555 L260.523614,305.112277 L264.128512,305.112277 L267.418671,296.882555 C267.558195,296.52607 267.707452,296.105078 267.850221,295.68069 C267.85671,296.047361 267.869689,296.420822 267.889157,296.770517 L268.749012,308.663551 L273.009346,308.663551 L271.364266,287.271028 L266.970898,287.271028 Z" id="Fill-42" fill="#6C6E70"></path>
                <path d="M294.017127,300.63175 C294.017127,303.094078 292.442786,304.567466 289.804243,304.567466 C287.185971,304.567466 285.621765,303.104101 285.621765,300.658478 L285.621765,287.271028 L281.158879,287.271028 L281.158879,300.658478 C281.158879,305.446153 284.648782,308.663551 289.834649,308.663551 C295.003625,308.663551 298.476636,305.446153 298.476636,300.658478 L298.476636,287.271028 L294.017127,287.271028 L294.017127,300.63175 Z" id="Fill-44" fill="#6C6E70"></path>
                <path d="M317.526188,299.568079 C317.526188,300.009442 317.552897,300.535683 317.586284,301.038157 C317.295819,300.474571 316.955273,299.856663 316.638098,299.367768 L308.832253,287.271028 L304.588785,287.271028 L304.588785,308.663551 L308.999187,308.663551 L308.999187,296.393661 C308.999187,295.955693 308.972478,295.426058 308.94243,294.923583 C309.236234,295.490564 309.570102,296.105078 309.887278,296.593972 L317.693122,308.663551 L321.906542,308.663551 L321.906542,287.271028 L317.526188,287.271028 L317.526188,299.568079 Z" id="Fill-46" fill="#6C6E70"></path>
                <mask id="mask-4" fill="white">
                    <use xlink:href="#path-3"></use>
                </mask>
                <g id="Clip-49"></g>
                <polygon id="Fill-48" fill="#6C6E70" mask="url(#mask-4)" points="329.037383 308.663551 333.11215 308.663551 333.11215 287.271028 329.037383 287.271028"></polygon>
                <polygon id="Fill-50" fill="#6C6E70" mask="url(#mask-4)" points="338.205607 291.229714 344.713617 291.229714 344.713617 308.663551 349.015355 308.663551 349.015355 291.229714 355.523364 291.229714 355.523364 287.271028 338.205607 287.271028"></polygon>
                <path d="M371.931641,287.271028 L368.700681,293.548567 C368.328772,294.275119 367.986748,295.062782 367.754305,295.616183 C367.528503,295.059387 367.196441,294.271724 366.827853,293.545172 L363.563686,287.271028 L358.579439,287.271028 L365.556056,299.74802 L365.556056,308.663551 L369.939271,308.663551 L369.939271,299.74802 L376.915888,287.271028 L371.931641,287.271028 Z" id="Fill-51" fill="#6C6E70" mask="url(#mask-4)"></path>
                <path d="M182.901802,342.417161 C184.888281,342.417161 186.1015,341.194319 186.1015,339.233157 C186.1015,337.2687 184.888281,336.115075 182.925134,336.115075 L179.565451,336.115075 L179.565451,342.417161 L182.901802,342.417161 Z M177.252336,334.130841 L183.2751,334.130841 C186.288149,334.130841 188.457944,336.141444 188.457944,339.233157 C188.457944,342.328167 186.288149,344.404691 183.2751,344.404691 L179.565451,344.404691 L179.565451,350.429907 L177.252336,350.429907 L177.252336,334.130841 Z" id="Fill-52" fill="#808184" mask="url(#mask-4)"></path>
                <polygon id="Fill-53" fill="#808184" mask="url(#mask-4)" points="193.551402 334.130841 195.74017 334.130841 195.74017 348.445271 202.719626 348.445271 202.719626 350.429907 193.551402 350.429907"></polygon>
                <path d="M212.884918,336.368873 C212.884918,336.368873 212.512325,337.845512 212.23288,338.679418 L210.389872,343.850951 L215.376637,343.850951 L213.560244,338.679418 C213.280799,337.845512 212.931493,336.368873 212.931493,336.368873 L212.884918,336.368873 Z M215.985429,345.742895 L209.784408,345.742895 L208.154311,350.429907 L205.775701,350.429907 L211.697276,334.130841 L214.119134,334.130841 L220.037383,350.429907 L217.638812,350.429907 L215.985429,345.742895 Z" id="Fill-54" fill="#808184" mask="url(#mask-4)"></path>
                <polygon id="Fill-55" fill="#808184" mask="url(#mask-4)" points="226.550473 336.115075 221.056075 336.115075 221.056075 334.130841 234.299065 334.130841 234.299065 336.115075 228.798181 336.115075 228.798181 350.429907 226.550473 350.429907"></polygon>
                <polygon id="Fill-56" fill="#808184" mask="url(#mask-4)" points="238.373832 350.429907 240.411215 350.429907 240.411215 334.130841 238.373832 334.130841"></polygon>
                <path d="M247.542056,334.130841 L249.837909,334.130841 L257.197358,344.729849 C257.806462,345.603484 258.579555,347.083719 258.579555,347.083719 L258.629756,347.083719 C258.629756,347.083719 258.465766,345.626561 258.465766,344.729849 L258.465766,334.130841 L260.785047,334.130841 L260.785047,350.429907 L258.509274,350.429907 L251.126399,339.853976 C250.517295,338.957263 249.744201,337.480325 249.744201,337.480325 L249.697347,337.480325 C249.697347,337.480325 249.861336,338.93089 249.861336,339.853976 L249.861336,350.429907 L247.542056,350.429907 L247.542056,334.130841 Z" id="Fill-57" fill="#808184" mask="url(#mask-4)"></path>
                <path d="M266.897196,334.130841 L269.254,334.130841 L269.254,344.481461 C269.254,346.935397 270.923827,348.364969 273.491485,348.364969 C276.08975,348.364969 277.779983,346.935397 277.779983,344.439319 L277.779983,334.130841 L280.140187,334.130841 L280.140187,344.481461 C280.140187,348.047287 277.450098,350.429907 273.518692,350.429907 C269.587285,350.429907 266.897196,348.047287 266.897196,344.481461 L266.897196,334.130841 Z" id="Fill-58" fill="#808184" mask="url(#mask-4)"></path>
                <path d="M287.545759,334.130841 L289.905687,334.130841 L293.581729,342.949611 C293.948037,343.84962 294.375936,345.145238 294.375936,345.145238 L294.424561,345.145238 C294.424561,345.145238 294.855702,343.84962 295.218767,342.949611 L298.89481,334.130841 L301.254738,334.130841 L302.551402,350.429907 L300.324382,350.429907 L299.530175,340.157276 C299.465342,339.161661 299.507483,337.757251 299.507483,337.757251 L299.465342,337.757251 C299.465342,337.757251 298.985576,339.257266 298.599819,340.157276 L295.4003,347.499108 L293.403438,347.499108 L290.22337,340.157276 C289.860304,339.280344 289.361088,337.7078 289.361088,337.7078 L289.315705,337.7078 C289.315705,337.7078 289.338397,339.161661 289.270322,340.157276 L288.498807,350.429907 L286.252336,350.429907 L287.545759,334.130841 Z" id="Fill-59" fill="#808184" mask="url(#mask-4)"></path>
                <path d="M315.794393,349.204559 C315.794393,343.479788 323.455914,342.66289 323.455914,338.896081 C323.455914,337.307668 322.283297,336.241162 320.642897,336.241162 C318.585285,336.241162 317.479042,338.283407 317.479042,338.283407 L315.860767,337.171518 C315.860767,337.171518 317.279919,334.130841 320.797771,334.130841 C323.677163,334.130841 325.737935,335.968862 325.737935,338.73724 C325.737935,344.004937 318.275537,344.821835 318.231287,348.475186 L325.981308,348.475186 L325.981308,350.429907 L315.905017,350.429907 C315.841803,349.998766 315.794393,349.590317 315.794393,349.204559" id="Fill-60" fill="#808184" mask="url(#mask-4)"></path>
                <path d="M340.010397,342.766006 C340.010397,339.137814 339.272975,336.288785 336.666348,336.288785 C334.082165,336.288785 333.341537,339.137814 333.341537,342.766006 C333.341537,346.421299 334.082165,349.290654 336.666348,349.290654 C339.272975,349.290654 340.010397,346.421299 340.010397,342.766006 M331.074766,342.766006 C331.074766,337.948743 332.443806,334.130841 336.666348,334.130841 C340.908128,334.130841 342.280374,337.948743 342.280374,342.766006 C342.280374,347.606983 340.908128,351.448598 336.666348,351.448598 C332.443806,351.448598 331.074766,347.606983 331.074766,342.766006" id="Fill-61" fill="#808184" mask="url(#mask-4)"></path>
                <path d="M346.466637,348.442376 L349.945338,348.442376 L349.945338,337.918025 C349.945338,337.407135 349.970823,336.89954 349.970823,336.89954 L349.923038,336.89954 C349.923038,336.89954 349.744644,337.2687 349.16486,337.845512 L347.693102,339.345224 L346.35514,337.918025 L350.123733,334.130841 L352.089262,334.130841 L352.089262,348.442376 L355.523364,348.442376 L355.523364,350.429907 L346.466637,350.429907 L346.466637,348.442376 Z" id="Fill-62" fill="#808184" mask="url(#mask-4)"></path>
                <path d="M367.338646,337.591714 C367.813316,336.672111 368.31172,336.092003 368.31172,336.092003 L368.31172,336.045858 C368.31172,336.045858 367.931984,336.115075 367.077577,336.115075 L359.598131,336.115075 L359.598131,334.130841 L370.803738,334.130841 L370.803738,335.69977 L363.229358,350.429907 L360.80854,350.429907 L367.338646,337.591714 Z" id="Fill-63" fill="#808184" mask="url(#mask-4)"></path>
                <polygon id="Fill-64" fill="#59595B" mask="url(#mask-4)" points="490.856379 58.3051127 485.915888 58.3051127 485.915888 57.046729 497.121495 57.046729 497.121495 58.3051127 492.200531 58.3051127 492.200531 71.3084112 490.856379 71.3084112"></polygon>
                <path d="M500.31023,57.046729 L501.790539,57.046729 L505.570125,65.4258056 C505.899082,66.15648 506.26916,67.1713056 506.26916,67.1713056 L506.310279,67.1713056 C506.310279,67.1713056 506.700917,66.15648 507.029874,65.4258056 L510.80946,57.046729 L512.269209,57.046729 L513.420561,71.3084112 L512.001931,71.3084112 L511.203524,61.3292929 C511.138417,60.5580255 511.158977,59.3402348 511.158977,59.3402348 L511.117858,59.3402348 C511.117858,59.3402348 510.686101,60.5986185 510.36057,61.3292929 L506.968195,68.6495682 L505.635231,68.6495682 L502.239429,61.3292929 C501.913898,60.618915 501.461582,59.2996418 501.461582,59.2996418 L501.420462,59.2996418 C501.420462,59.2996418 501.441022,60.5580255 501.379342,61.3292929 L500.577508,71.3084112 L499.158879,71.3084112 L500.31023,57.046729 Z" id="Fill-65" fill="#59595B" mask="url(#mask-4)"></path>
            </g>
        </g>
    </g>
</svg>