<?xml version="1.0" encoding="UTF-8"?>
<svg width="555px" height="555px" viewBox="0 0 555 555" version="1.1" xmlns="http://www.w3.org/2000/svg" xmlns:xlink="http://www.w3.org/1999/xlink">
    <!-- Generator: Sketch 48.2 (47327) - http://www.bohemiancoding.com/sketch -->
    <title>2017 WELL Community Seal / Silver (Alternate Option 2)</title>
    <desc>Created with Sketch.</desc>
    <defs>
        <polygon id="path-1" points="0.00133662137 0.544869769 545.45513 0.544869769 545.45513 545.999332 0.00133662137 545.999332"></polygon>
        <polygon id="path-3" points="0 544.99262 544.99262 544.99262 544.99262 0 0 0"></polygon>
    </defs>
    <g id="Symbols" stroke="none" stroke-width="1" fill="none" fill-rule="evenodd">
        <g id="2017-WELL-Community-Seal-/-Silver-(Alternate-Option-2)">
            <g id="Page-1" transform="translate(4.000000, 6.000000)">
                <g id="Group-3">
                    <mask id="mask-2" fill="white">
                        <use xlink:href="#path-1"></use>
                    </mask>
                    <g id="Clip-2"></g>
                    <path d="M545.456467,273.271767 C545.456467,122.647905 423.352763,0.544201458 272.728902,0.544201458 C122.10504,0.544201458 0.00133662137,122.647905 0.00133662137,273.271767 C0.00133662137,423.895628 122.10504,545.999332 272.728902,545.999332 C423.352763,545.999332 545.456467,423.895628 545.456467,273.271767" id="Fill-1" fill="#D0D2D3" mask="url(#mask-2)"></path>
                </g>
                <path d="M272.49798,47.4120274 C148.386732,47.4120274 47.4121523,148.385914 47.4121523,272.49631 C47.4121523,396.606706 148.386732,497.580592 272.49798,497.580592 C396.609227,497.580592 497.583807,396.606706 497.583807,272.49631 C497.583807,148.385914 396.609227,47.4120274 272.49798,47.4120274 M272.49798,515.778598 C138.349378,515.778598 29.2140221,406.643991 29.2140221,272.49631 C29.2140221,138.348629 138.349378,29.2140221 272.49798,29.2140221 C406.646581,29.2140221 515.778598,138.348629 515.778598,272.49631 C515.778598,406.643991 406.646581,515.778598 272.49798,515.778598" id="Fill-4" fill="#9C9EA1"></path>
                <polygon id="Fill-6" fill="#59595B" points="491.450208 58.6650749 486.564576 58.6650749 486.564576 57.4206642 497.645756 57.4206642 497.645756 58.6650749 492.779435 58.6650749 492.779435 71.5239852 491.450208 71.5239852"></polygon>
                <path d="M500.799084,57.4206642 L502.262955,57.4206642 L506.000573,65.7066998 C506.325878,66.4292609 506.691846,67.4328179 506.691846,67.4328179 L506.732509,67.4328179 C506.732509,67.4328179 507.118808,66.4292609 507.444113,65.7066998 L511.18173,57.4206642 L512.625271,57.4206642 L513.763838,71.5239852 L512.36096,71.5239852 L511.571418,61.6556747 C511.507035,60.8929714 511.527367,59.688703 511.527367,59.688703 L511.486704,59.688703 C511.486704,59.688703 511.059741,60.9331137 510.737825,61.6556747 L507.383118,68.8946659 L506.064956,68.8946659 L502.706861,61.6556747 C502.384945,60.9531848 501.937651,59.6485607 501.937651,59.6485607 L501.896988,59.6485607 C501.896988,59.6485607 501.917319,60.8929714 501.856324,61.6556747 L501.063394,71.5239852 L499.660517,71.5239852 L500.799084,57.4206642 Z" id="Fill-8" fill="#59595B"></path>
                <path d="M470.446494,360.140824 L453.566065,352.583026 C416.622802,435.688636 328.270198,483.274274 238.708748,468.296093 C230.306936,466.891783 221.941857,464.941168 213.843925,462.497871 L208.527675,480.267912 C217.370282,482.932413 226.503413,485.060662 235.669937,486.595683 C333.529679,502.961415 430.073716,450.961756 470.446494,360.140824" id="Fill-10" fill="#9C9EA1"></path>
                <path d="M398.353575,343.516605 C383.625536,368.957521 361.278049,390.258375 332.690094,403.433435 C297.200562,419.792383 257.460566,421.379295 220.795729,407.902286 L214.571956,424.999333 C255.751032,440.140419 300.385905,438.355562 340.246102,419.983618 C372.376667,405.174676 397.49213,381.223377 414.03321,352.622058 L398.353575,343.516605 Z" id="Fill-12" fill="#9C9EA1"></path>
                <path d="M60.4428044,226.64594 L78.5293696,230.690037 C98.4142101,142.137678 175.85391,78.1273071 266.856022,75.0290607 C275.388621,74.7382868 283.998242,74.988954 292.440425,75.7710356 L294.154982,57.3520112 C284.93589,56.4964006 275.535966,56.22568 266.22311,56.5398496 C166.792209,59.9255276 82.1728028,129.87504 60.4428044,226.64594" id="Fill-14" fill="#9C9EA1"></path>
                <path d="M372.510882,100.296853 C434.644635,136.239337 472.793301,203.11311 472.070737,274.824588 L490.583077,275.01476 C491.372544,196.660612 449.691346,123.594576 381.800503,84.3224159 C372.674796,79.0443123 363.134285,74.400115 353.436549,70.5166052 L346.538745,87.6520919 C355.413562,91.2086396 364.151226,95.4624841 372.510882,100.296853" id="Fill-16" fill="#9C9EA1"></path>
                <g id="Group-22" transform="translate(134.988930, 211.549815)" fill="#9C9EA1">
                    <path d="M317.52615,0.983617993 L299.943766,6.66927113 C312.886911,46.8400828 310.874349,90.3654298 294.279889,129.225197 C291.262714,136.288785 287.791628,143.014578 283.990122,149.459433 L300.030543,158.636746 C304.175821,151.583192 307.963977,144.228632 311.261508,136.506177 C329.614874,93.5393621 331.837704,45.408636 317.52615,0.983617993" id="Fill-18"></path>
                    <path d="M235.841156,202.128648 C178.024215,241.122195 99.8480207,243.165686 39.0739815,201.202221 C29.7821519,194.784122 21.2880046,187.563342 13.5348005,179.670318 L0.21784645,192.493138 C8.82547163,201.279144 18.2641548,209.309293 28.5939726,216.443116 C95.8629472,262.894902 182.413136,260.580507 246.367891,217.336098 L235.841156,202.128648 Z" id="Fill-20"></path>
                </g>
                <g id="Group-27" transform="translate(83.612546, 82.605166)" fill="#9C9EA1">
                    <path d="M13.0664814,259.752195 L30.30181,253.092263 C15.1520729,213.697981 14.7416285,170.125771 29.1505635,130.393642 C31.7700665,123.171747 34.8634159,116.260939 38.2971338,109.611042 L21.7759117,101.342156 C18.0318578,108.617572 14.6548679,116.173968 11.7951048,124.068212 C-4.13881474,168.001684 -3.68832696,216.186675 13.0664814,259.752195" id="Fill-23"></path>
                    <path d="M81.6290525,55.5033616 C136.85218,12.9078967 214.7265,5.90008303 278.021702,43.9262528 C287.698846,49.7398948 296.631852,56.4065166 304.867436,63.7923173 L317.344279,50.1446421 C308.197709,41.9259317 298.27363,34.5066808 287.515314,28.0441052 C217.456123,-14.046262 131.239436,-6.23564391 70.1633044,40.9926716 L81.6290525,55.5033616 Z" id="Fill-25"></path>
                </g>
                <path d="M116.856089,222.999597 L134.091631,228.675277 C148.788009,184.435614 182.610085,150.511434 226.886562,135.606112 C259.510982,124.62447 293.343094,125.740287 323.501948,136.462127 L329.413284,119.385124 C295.584517,107.400912 257.650935,106.168517 221.072242,118.482478 C171.342751,135.226401 133.358987,173.320741 116.856089,222.999597" id="Fill-28" fill="#9C9EA1"></path>
                <path d="M206.993738,214.571956 L218.643554,258.182365 C219.488808,261.463974 219.909765,264.495713 219.909765,264.495713 L220.080153,264.495713 C220.080153,264.495713 220.334063,261.380684 221.175977,258.182365 L232.150925,214.571956 L240.763838,214.571956 L225.144999,274.00738 L215.436263,274.00738 L205.136182,235.450981 C204.123881,231.662972 203.362149,227.032073 203.362149,227.032073 L203.195103,227.032073 C203.195103,227.032073 202.433371,231.662972 201.42107,235.450981 L191.120989,274.00738 L181.412253,274.00738 L166.217712,214.571956 L174.827284,214.571956 L185.381275,258.182365 C186.139666,261.380684 186.477099,264.495713 186.477099,264.495713 L186.647487,264.495713 C186.647487,264.495713 187.068444,261.463974 187.913698,258.182365 L199.563514,214.571956 L206.993738,214.571956 Z" id="Fill-30" fill="#6C6E70"></path>
                <polygon id="Fill-32" fill="#6C6E70" points="251.845018 214.571956 286.668813 214.571956 286.668813 221.811484 260.254355 221.811484 260.254355 240.41837 281.74152 240.41837 281.74152 247.657897 260.254355 247.657897 260.254355 266.767852 288.110701 266.767852 288.110701 274.00738 251.845018 274.00738"></polygon>
                <polygon id="Fill-34" fill="#6C6E70" points="300.199262 214.571956 308.611227 214.571956 308.611227 266.767852 335.457565 266.767852 335.457565 274.00738 300.199262 274.00738"></polygon>
                <polygon id="Fill-36" fill="#6C6E70" points="344.523985 214.571956 352.93595 214.571956 352.93595 266.767852 379.782288 266.767852 379.782288 274.00738 344.523985 274.00738"></polygon>
                <path d="M190.774889,302.57985 C190.751712,302.603691 188.477135,305.086611 185.189427,305.086611 C180.96805,305.086611 178.763001,301.541042 178.763001,298.03975 C178.763001,294.058222 181.395154,291.282392 185.16294,291.282392 C188.182466,291.282392 190.40407,293.34979 190.427246,293.373631 L190.735158,293.666541 L192.8773,290.264021 L192.691891,290.056259 C192.582631,289.937052 190.000142,287.103321 184.990774,287.103321 C178.882193,287.103321 174.276753,291.830747 174.276753,298.097651 C174.276753,304.56891 178.806042,309.265683 185.05037,309.265683 C190.288189,309.265683 193.118995,305.921063 193.234876,305.778014 L193.416974,305.560035 L191.066246,302.252881 L190.774889,302.57985 Z" id="Fill-38" fill="#6C6E70"></path>
                <path d="M214.99042,298.03975 C214.99042,302.058743 212.211184,305.086611 208.525972,305.086611 C204.84076,305.086611 202.061524,302.058743 202.061524,298.03975 C202.061524,294.184242 204.84076,291.282392 208.525972,291.282392 C212.153284,291.282392 214.99042,294.248954 214.99042,298.03975 M208.525972,287.103321 C202.313563,287.103321 197.446494,291.905677 197.446494,298.03975 C197.446494,304.333902 202.313563,309.265683 208.525972,309.265683 C214.741788,309.265683 219.608856,304.333902 219.608856,298.03975 C219.608856,291.905677 214.741788,287.103321 208.525972,287.103321" id="Fill-40" fill="#6C6E70"></path>
                <path d="M240.552369,288.110701 L236.458063,298.44478 C236.216035,299.079329 235.947115,299.871676 235.748787,300.48608 C235.540374,299.871676 235.264731,299.075972 235.022703,298.441423 L230.928398,288.110701 L226.376928,288.110701 L224.645756,309.265683 L229.086296,309.265683 L229.977094,297.501351 C230.000624,297.138751 230.01407,296.742578 230.020793,296.359835 C230.175422,296.803011 230.340135,297.246188 230.494764,297.615502 L233.873071,305.753842 L237.607696,305.753842 L241.016256,297.615502 C241.1608,297.262975 241.315429,296.846658 241.463335,296.426983 C241.470058,296.789582 241.483504,297.158896 241.503673,297.504708 L242.39447,309.265683 L246.808118,309.265683 L245.103838,288.110701 L240.552369,288.110701 Z" id="Fill-42" fill="#6C6E70"></path>
                <path d="M268.759011,288.110701 L264.664705,298.44478 C264.422677,299.079329 264.153758,299.871676 263.955429,300.48608 C263.747016,299.871676 263.471373,299.075972 263.229345,298.441423 L259.13504,288.110701 L254.58357,288.110701 L252.852399,309.265683 L257.292938,309.265683 L258.183736,297.501351 C258.203905,297.138751 258.217351,296.742578 258.224074,296.359835 C258.382064,296.803011 258.546778,297.246188 258.701406,297.615502 L262.079713,305.753842 L265.814338,305.753842 L269.222898,297.615502 C269.367442,297.262975 269.522071,296.846658 269.669977,296.426983 C269.6767,296.789582 269.690146,297.158896 269.710315,297.504708 L270.601112,309.265683 L275.01476,309.265683 L273.31048,288.110701 L268.759011,288.110701 Z" id="Fill-44" fill="#6C6E70"></path>
                <path d="M293.774512,301.323066 C293.774512,303.758053 292.217652,305.21508 289.608408,305.21508 C287.019209,305.21508 285.472372,303.767965 285.472372,301.349497 L285.472372,288.110701 L281.059041,288.110701 L281.059041,301.349497 C281.059041,306.08401 284.510192,309.265683 289.638476,309.265683 C294.750055,309.265683 298.184502,306.08401 298.184502,301.349497 L298.184502,288.110701 L293.774512,288.110701 L293.774512,301.323066 Z" id="Fill-46" fill="#6C6E70"></path>
                <path d="M318.029909,300.271206 C318.029909,300.707668 318.056322,301.228065 318.089338,301.724961 C317.802097,301.167632 317.465333,300.556585 317.15168,300.07312 L309.432511,288.110701 L305.236162,288.110701 L305.236162,309.265683 L309.597592,309.265683 L309.597592,297.132037 C309.597592,296.698932 309.571179,296.175177 309.541464,295.678282 C309.832006,296.238968 310.162167,296.846658 310.475821,297.330123 L318.194989,309.265683 L322.361624,309.265683 L322.361624,288.110701 L318.029909,288.110701 L318.029909,300.271206 Z" id="Fill-48" fill="#6C6E70"></path>
                <mask id="mask-4" fill="white">
                    <use xlink:href="#path-3"></use>
                </mask>
                <g id="Clip-51"></g>
                <polygon id="Fill-50" fill="#6C6E70" mask="url(#mask-4)" points="329.413284 309.265683 333.442804 309.265683 333.442804 288.110701 329.413284 288.110701"></polygon>
                <polygon id="Fill-52" fill="#6C6E70" mask="url(#mask-4)" points="338.479705 292.02543 345.294022 292.02543 345.294022 309.265683 349.798228 309.265683 349.798228 292.02543 356.612546 292.02543 356.612546 288.110701 338.479705 288.110701"></polygon>
                <path d="M372.838626,288.110701 L369.643542,294.318535 C369.275762,295.037019 368.937537,295.815936 368.707675,296.363192 C368.48438,295.812578 368.156005,295.033661 367.79151,294.315178 L364.563588,288.110701 L359.634686,288.110701 L366.533835,300.449149 L366.533835,309.265683 L370.868379,309.265683 L370.868379,300.449149 L377.767528,288.110701 L372.838626,288.110701 Z" id="Fill-53" fill="#6C6E70" mask="url(#mask-4)"></path>
                <path d="M199.685438,347.635456 C199.685438,347.635456 201.333936,349.417434 203.646324,349.417434 C205.095976,349.417434 206.327539,348.548677 206.327539,346.978757 C206.327539,343.390859 198.806666,344.163847 198.806666,339.071015 C198.806666,336.495526 200.897757,334.450185 203.82272,334.450185 C206.702781,334.450185 208.219785,336.119293 208.219785,336.119293 L207.231968,338.041504 C207.231968,338.041504 205.798352,336.611817 203.82272,336.611817 C202.174221,336.611817 201.006802,337.713154 201.006802,339.026551 C201.006802,342.450275 208.527675,341.537054 208.527675,346.906931 C208.527675,349.461898 206.680331,351.575646 203.601423,351.575646 C200.304426,351.575646 198.453875,349.393492 198.453875,349.393492 L199.685438,347.635456 Z" id="Fill-54" fill="#808184" mask="url(#mask-4)"></path>
                <polygon id="Fill-55" fill="#808184" mask="url(#mask-4)" points="214.571956 350.568266 216.623989 350.568266 216.623989 334.450185 214.571956 334.450185"></polygon>
                <polygon id="Fill-56" fill="#808184" mask="url(#mask-4)" points="223.638376 334.450185 225.801447 334.450185 225.801447 348.607194 232.704797 348.607194 232.704797 350.568266 223.638376 350.568266"></polygon>
                <path d="M234.719557,334.450185 L237.154138,334.450185 L241.134379,345.843713 C241.42958,346.709382 241.748,348.057827 241.748,348.057827 L241.794436,348.057827 C241.794436,348.057827 242.112855,346.709382 242.408056,345.843713 L246.434734,334.450185 L248.822878,334.450185 L242.908903,350.568266 L240.65675,350.568266 L234.719557,334.450185 Z" id="Fill-57" fill="#808184" mask="url(#mask-4)"></path>
                <polygon id="Fill-58" fill="#808184" mask="url(#mask-4)" points="253.859779 334.450185 263.534481 334.450185 263.534481 336.414586 256.195882 336.414586 256.195882 341.45877 262.165159 341.45877 262.165159 343.423171 256.195882 343.423171 256.195882 348.607194 263.933579 348.607194 263.933579 350.568266 253.859779 350.568266"></polygon>
                <path d="M274.67159,342.187929 C276.496083,342.187929 277.630787,341.069219 277.630787,339.264633 C277.630787,338.076004 277.154832,337.233642 276.302942,336.777501 C275.854579,336.547766 275.309645,336.411257 274.009392,336.411257 L271.315764,336.411257 L271.315764,342.187929 L274.67159,342.187929 Z M268.97048,334.450185 L274.08182,334.450185 C275.830436,334.450185 276.565062,334.586694 277.203117,334.813099 C278.906897,335.429056 280.017458,337.050519 280.017458,339.174737 C280.017458,341.229035 278.834469,342.967031 277.013425,343.536374 L277.013425,343.582987 C277.013425,343.582987 277.203117,343.786086 277.510074,344.312146 L281.059041,350.568266 L278.410249,350.568266 L274.885425,344.15233 L271.315764,344.15233 L271.315764,350.568266 L268.97048,350.568266 L268.97048,334.450185 Z" id="Fill-59" fill="#808184" mask="url(#mask-4)"></path>
                <path d="M293.147601,349.357118 C293.147601,343.700732 300.724505,342.89221 300.724505,339.167113 C300.724505,337.595894 299.562266,336.538596 297.943433,336.538596 C295.906322,336.538596 294.814329,338.561539 294.814329,338.561539 L293.214654,337.458413 C293.214654,337.458413 294.616365,334.450185 298.096695,334.450185 C300.944819,334.450185 302.98193,336.270179 302.98193,339.006718 C302.98193,344.214652 295.599798,345.026448 295.558289,348.64025 L303.221402,348.64025 L303.221402,350.568266 L293.256162,350.568266 C293.192303,350.142727 293.147601,349.736829 293.147601,349.357118" id="Fill-60" fill="#808184" mask="url(#mask-4)"></path>
                <path d="M317.095399,342.992389 C317.095399,339.400353 316.363561,336.58488 313.789178,336.58488 C311.234225,336.58488 310.502387,339.400353 310.502387,342.992389 C310.502387,346.601531 311.234225,349.44095 313.789178,349.44095 C316.363561,349.44095 317.095399,346.601531 317.095399,342.992389 M308.258303,342.992389 C308.258303,338.230375 309.611878,334.450185 313.789178,334.450185 C317.985908,334.450185 319.339483,338.230375 319.339483,342.992389 C319.339483,347.77835 317.985908,351.575646 313.789178,351.575646 C309.611878,351.575646 308.258303,347.77835 308.258303,342.992389" id="Fill-61" fill="#808184" mask="url(#mask-4)"></path>
                <path d="M325.489936,348.60427 L328.932473,348.60427 L328.932473,338.191763 C328.932473,337.692442 328.954994,337.189792 328.954994,337.189792 L328.913169,337.189792 C328.913169,337.189792 328.732999,337.555961 328.160315,338.125187 L326.706084,339.609835 L325.383764,338.191763 L329.109426,334.450185 L331.05269,334.450185 L331.05269,348.60427 L334.450185,348.60427 L334.450185,350.568266 L325.489936,350.568266 L325.489936,348.60427 Z" id="Fill-62" fill="#808184" mask="url(#mask-4)"></path>
                <path d="M346.134175,337.875526 C346.603165,336.960105 347.096119,336.390879 347.096119,336.390879 L347.096119,336.344275 C347.096119,336.344275 346.719557,336.41418 345.877429,336.41418 L338.479705,336.41418 L338.479705,334.450185 L349.560886,334.450185 L349.560886,336.001408 L342.070733,350.568266 L339.677855,350.568266 L346.134175,337.875526 Z" id="Fill-63" fill="#808184" mask="url(#mask-4)"></path>
            </g>
        </g>
    </g>
</svg>