<?xml version="1.0" encoding="UTF-8"?><svg width="555" height="555" viewBox="0 0 555 555" xmlns="http://www.w3.org/2000/svg" xmlns:xlink="http://www.w3.org/1999/xlink"><title>2017 WELL / Gold</title><defs><path id="aba" d="M0 .17h544.024v542.374H.001z"/></defs><g transform="translate(6 4)" fill="none" fill-rule="evenodd"><path fill="#58585B" d="M3.732 217.68l.463-2.08 21.187 4.731-.463 2.08z"/><g transform="translate(0 3.286)"><path d="M7.203 199.038l.591-1.983 18.129-6.175c1.247-.405 3.324-.882 3.324-.882l.018-.062s-1.77-.332-2.865-.656l-14.977-4.448.608-2.042 20.807 6.179-.591 1.983-18.132 6.179c-1.248.4-3.321.881-3.321.881l-.017.059s1.769.332 2.864.656l14.977 4.448-.608 2.042-20.807-6.179zM20.547 165.673l-2.996 7.212-1.766-.732 6.794-16.366 1.77.736-2.987 7.184 18.278 7.589-.816 1.966zM27.444 145.818l5.73-10.8 1.69.896-4.732 8.92 6.98 3.704 3.864-7.282 1.694.895-3.864 7.282 7.119 3.777 4.99-9.407 1.69.895-5.989 11.29zM52.813 123.48c1.448-2.187.954-4.517-1.313-6.016-1.493-.989-2.992-1.13-4.257-.446-.64.352-1.22.891-2.143 2.284l-2.419 3.656 7.288 4.82 2.844-4.298zm-12.903.197l3.542-5.356c1.227-1.853 1.956-2.558 2.74-3.072 1.873-1.207 4.278-1.096 6.466.352 2.447 1.62 3.407 4.254 2.626 6.663l.052.034s.35-.028 1.026.014l9.894.881-1.344 2.036-10.333-.95-3.013 4.557 7.62 5.046-1.175 1.776-18.101-11.981zM55.542 101.256l1.32-1.593 19.103 1.438c1.303.117 3.4.49 3.4.49l.039-.044s-1.497-1.002-2.378-1.732L65 89.845l1.358-1.637 16.712 13.85-1.32 1.593-19.103-1.437c-1.303-.118-3.4-.495-3.4-.495l-.038.049s1.496 1.002 2.377 1.731l12.026 9.97-1.358 1.638-16.712-13.85zM82.196 75.033s.919 1.607 1.365 2.595l3.414 7.661 5.35-5.21-7.527-3.657c-.978-.473-2.557-1.43-2.557-1.43l-.045.04zm11.884 5.92l-6.255 6.095 3.055 6.677-1.614 1.572-9.437-21.104 1.634-1.593 20.848 9.987-1.613 1.572-6.618-3.207zM99.609 59.025l-6.065 4.921-1.206-1.486 13.76-11.165 1.207 1.486-6.041 4.904 12.468 15.367-1.655 1.34zM114.899 45.055l1.752-1.213 12.364 17.835-1.748 1.213zM146.505 48.835c4.24-2.412 5.663-7.906 3.04-12.523-2.564-4.51-7.937-5.968-12.18-3.556-4.269 2.426-5.74 7.772-3.177 12.281 2.623 4.617 8.049 6.224 12.317 3.798m-10.119-17.8c5.343-3.034 12.009-1.248 15.091 4.178 3.142 5.529 1.348 12.306-3.998 15.34-5.339 3.037-12.081 1.112-15.226-4.417-3.079-5.422-1.206-12.064 4.133-15.101M157.865 20.313l1.908-.802 16.28 10.094c1.102.708 2.788 2.008 2.788 2.008l.056-.024s-.864-1.58-1.31-2.63l-6.061-14.4 1.962-.826 8.425 20.005-1.907.802-16.28-10.094c-1.102-.709-2.789-2.012-2.789-2.012l-.055.025s.864 1.579 1.306 2.633l6.065 14.396-1.963.83-8.425-20.005zM193.622 9.36s.073 1.85.01 2.93l-.511 8.377 7.153-2.152-4.986-6.722c-.647-.87-1.607-2.45-1.607-2.45l-.059.017zm7.81 10.74l-8.37 2.516-.373 7.337-2.156.646 1.375-23.077 2.187-.657 13.878 18.488-2.156.65-4.385-5.902zM212.698 2.019l2.087-.422 3.923 19.397 9.866-1.997.38 1.876L217 23.293zM237.518 492.64s-.619 1.78-1.196 3.096l-6.427 14.469-2.533-.39-2.233-22.31 2.195.338 1.572 17.303c.107 1.14.135 2.363.135 2.363l.062.01c.031.004.366-1.16.843-2.214l7.091-15.959 2.015.311 1.939 17.358c.134 1.148.103 2.36.134 2.364l.06.01s.396-1.157.842-2.211l6.88-15.997 2.198.342-9.026 20.565-2.533-.39-1.752-15.738c-.152-1.43-.204-3.31-.204-3.31l-.062-.01zM260.52 491.9l12.224.32-.052 1.915-10.09-.266-.212 7.9 8.242.218-.052 1.914-8.238-.218-.214 8.055 10.647.28-.049 1.915-12.779-.335zM283.468 491.877l2.125-.16 1.458 19.74 10.039-.74.142 1.908-12.164.898zM304.711 489.744l2.101-.36 3.349 19.501 9.918-1.704.325 1.887-12.02 2.067zM352.809 497.989c2.478-.864 3.483-2.948 2.63-5.398-.854-2.446-3.076-3.47-5.467-2.637l-5.218 1.822 2.81 8.044 5.245-1.831zm-3.68-9.704c2.07-.722 2.961-2.667 2.218-4.793-.732-2.1-2.533-3.04-4.717-2.277l-4.955 1.728 2.47 7.084 4.984-1.742zm-10.098-6.448l6.998-2.44c3.234-1.13 6.217.021 7.336 3.228.743 2.125.263 4.026-1.036 5.363l.02.059c2.302-.149 4.344 1.393 5.208 3.87 1.272 3.646-.708 6.69-4.147 7.89l-7.23 2.522-7.149-20.492zM361.732 473.331l1.946-.943 6.161 12.693c1.631 3.359 4.783 4.336 8.142 2.705 3.362-1.634 4.572-4.724 2.913-8.141l-6.134-12.638 1.915-.93 6.175 12.721c2.105 4.334.439 8.608-3.977 10.75-4.445 2.16-8.86.837-10.965-3.496l-6.176-12.72zM386.548 460.327l1.82-1.102 11.242 18.567-1.821 1.103zM398.305 452.84l1.728-1.244 11.556 16.066 8.169-5.878 1.12 1.555-9.901 7.118zM433.583 450.22c3.967-3.576 4.492-8.293.608-12.603-3.867-4.288-8.635-4.23-12.578-.674l-3.463 3.124 11.97 13.277 3.463-3.124zm-18.298-10.15l5.204-4.692c4.838-4.361 10.761-4.34 15.35.75 4.635 5.135 4.023 11.006-.815 15.367l-5.204 4.697-14.535-16.121zM435.626 420.525l1.441-1.568 15.99 14.672-1.438 1.573zM444.802 410.22l1.247-1.652 19.148.567c1.306.059 3.418.339 3.418.339l.038-.049s-1.541-.933-2.454-1.62l-12.468-9.414 1.282-1.7 17.327 13.076-1.247 1.652-19.148-.566c-1.31-.06-3.422-.336-3.422-.336l-.034.049s1.538.93 2.45 1.617l12.472 9.413-1.286 1.7-17.323-13.076zM465.664 378.753c2.491-4.372 6.023-5.453 6.023-5.453l.83 1.79s-3.135 1.126-5.09 4.561c-2.6 4.562-.844 9.648 3.635 12.202 4.64 2.647 9.893 1.41 12.34-2.878 2.094-3.677.615-7.506.615-7.506l-3.19-1.818-1.835 3.217-1.662-.947 2.844-4.99 9.013 5.14-.982 1.717-1.42-.813c-.4-.228-.788-.483-.788-.483l-.031.051s1.31 3.626-.954 7.596c-2.937 5.15-9.42 6.856-15.025 3.66-5.446-3.104-7.413-9.628-4.323-15.046M480.11 348.869l.75-1.994 20.312 7.647-.75 1.994zM484.783 335.873l.546-1.994 17.99-6.58c1.241-.428 3.304-.954 3.304-.954l.018-.059s-1.78-.293-2.879-.594l-15.074-4.116.564-2.056 20.938 5.72-.546 1.993-17.99 6.58c-1.241.429-3.304.954-3.304.954l-.014.059s1.776.293 2.875.594l15.074 4.116-.56 2.056-20.942-5.72zM508.88 311.265s2.695-1.862 3.223-5.245c.367-2.35-.74-4.49-3.058-4.852-5.398-.84-5.695 10.08-12.344 9.043-3.079-.48-5.342-3.61-4.724-7.578.581-3.722 2.969-5.412 2.969-5.412l1.607 1.313s-2.125 1.607-2.56 4.413c-.43 2.744 1.095 4.793 2.985 5.09 5.094.792 5.297-10.142 12.344-9.043 3.203.498 5.411 3.373 4.782 7.399-.68 4.392-3.801 6.375-3.801 6.375l-1.424-1.503zM496.472 281.689l-.408 7.803-1.91-.1.922-17.7 1.91.1-.403 7.768 19.766 1.034-.11 2.128zM494.833 262.87l-.069-2.129 21.695-.708.07 2.129zM495.422 243.934l.916 7.758-1.904.221-2.074-17.596 1.901-.225.912 7.727 19.653-2.315.249 2.114zM490.882 226.136l-.498-2.105 13.73-3.245c3.635-.857 5.277-3.718 4.416-7.354-.86-3.635-3.611-5.49-7.309-4.616l-13.67 3.23-.488-2.073 13.761-3.252c4.686-1.109 8.494 1.448 9.62 6.228 1.138 4.807-1.116 8.829-5.801 9.935l-13.761 3.252zM483.873 194l2.651 7.348-1.8.65-6.013-16.671 1.8-.65 2.64 7.32 18.616-6.715.722 2.004zM475.194 177.39l-5.312-11.014 1.725-.833 4.385 9.095 7.119-3.435-3.58-7.426 1.724-.83 3.58 7.424 7.26-3.501-4.627-9.593 1.725-.833 5.553 11.515z" fill="#58585B"/><path d="M210.183 505.858l5.222-20.068C116.963 460.177 48.21 371.155 48.21 269.294c0-9.555.609-19.168 1.808-28.578L29.45 238.1a247.54 247.54 0 0 0-1.973 31.194c0 111.295 75.13 208.572 182.706 236.564M271.901 45.602c80.435 0 155.064 43.521 194.763 113.578l18.04-10.218C441.33 72.418 359.79 24.868 271.9 24.868c-11.811 0-23.671.85-35.255 2.526l2.972 20.52a226.66 226.66 0 0 1 32.283-2.312" fill="#D1BC70"/><path d="M488.669 269.294c0-52.35-18.917-102.893-53.263-142.322l-15.633 13.622c31.056 35.649 48.162 81.357 48.162 128.7 0 108.091-87.94 196.032-196.035 196.032-29.605 0-58.052-6.435-84.55-19.12l-8.954 18.702C207.71 478.94 239.17 486.06 271.9 486.06c119.526 0 216.769-97.24 216.769-216.766" fill="#D1BC70"/><path d="M271.901 437.665c-44.678 0-86.762-17.317-118.499-48.756l-14.59 14.724c35.642 35.317 82.91 54.766 133.09 54.766 104.275 0 189.109-84.834 189.109-189.106 0-59.95-27.5-115.044-75.445-151.149l-12.475 16.564c42.699 32.155 67.186 81.208 67.186 134.585 0 92.844-75.535 168.372-168.376 168.372" fill="#D1BC70"/><path d="M271.901 430.74c27.926 0 55.444-7.243 79.589-20.948l-10.236-18.032c-21.028 11.936-45.01 18.246-69.353 18.246-49.499 0-95.933-26.495-121.18-69.145l-17.842 10.564C161.84 400.347 215.11 430.74 271.9 430.74M421.386 330.393c7.938-19.407 11.963-39.961 11.963-61.1 0-30.227-8.404-59.704-24.31-85.242l-17.6 10.962c13.854 22.248 21.176 47.93 21.176 74.28 0 18.43-3.504 36.347-10.422 53.252l19.193 7.848z" fill="#D1BC70"/><mask id="abb" fill="#fff"><use xlink:href="#aba"/></mask><path d="M303.349.17l-2.371 20.6C427.719 35.342 523.29 142.683 523.29 270.46c0 138.594-112.753 251.35-251.347 251.35-65.706 0-127.857-25.192-175.003-70.935-47.046-45.64-74.114-106.788-76.215-172.18L0 279.363c2.277 70.793 31.574 136.99 82.501 186.397 51.037 49.516 118.316 76.785 189.441 76.785 150.026 0 272.081-122.058 272.081-272.084 0-138.318-103.467-254.515-240.675-270.29" fill="#D1BC70" mask="url(#abb)"/><path d="M136.73 184.057l16.69 62.652a92.358 92.358 0 0 1 1.815 9.074h.242s.363-4.478 1.572-9.074l15.724-62.652h12.337l-22.376 85.394h-13.91l-14.755-55.399c-1.451-5.442-2.54-12.095-2.54-12.095h-.242s-1.088 6.653-2.54 12.095l-14.756 55.399h-13.909l-21.77-85.394h12.336l15.119 62.652c1.088 4.596 1.572 9.074 1.572 9.074h.242s.605-4.357 1.814-9.074l16.691-62.652h10.644zM200.592 184.057h49.589v10.402h-37.615v26.73h30.6v10.401h-30.6v27.456h39.671v10.405h-51.645zM269.897 184.057h11.974v74.989h38.22v10.405h-50.194zM333.88 184.057h11.974v74.989h38.22v10.405H333.88zM141.48 290.888c5.65 0 8.594 2.84 8.594 2.84l-1.673 2.475s-2.64-2.309-6.656-2.309c-5.55 0-8.898 4.05-8.898 9.099 0 5.484 3.75 9.261 8.698 9.261 4.078 0 6.69-2.94 6.69-2.94v-3.411h-3.846v-2.879h6.856v11.874h-2.913v-1.472c0-.501.035-1.002.035-1.002h-.066s-2.575 2.875-7.257 2.875c-6.355 0-11.604-5.014-11.604-12.24 0-6.822 5.149-12.171 12.04-12.171M170.315 312.256c4.817 0 8.695-4.012 8.695-9.33 0-5.15-3.878-9.03-8.695-9.03-4.814 0-8.73 3.88-8.73 9.03 0 5.318 3.916 9.33 8.73 9.33m0-21.367c6.822 0 12.105 5.25 12.105 12.036 0 6.957-5.283 12.372-12.105 12.372s-12.14-5.415-12.14-12.372c0-6.787 5.318-12.036 12.14-12.036M190.593 291.288h3.31v20.734h10.571v2.875h-13.881zM219.228 312.02c5.315 0 8.795-3.144 8.795-8.96 0-5.785-3.51-8.895-8.795-8.895h-4.281v17.856h4.281zm-7.592-20.733h7.827c7.223 0 11.97 4.312 11.97 11.773 0 7.492-4.747 11.84-11.97 11.84h-7.827v-23.613zM249.517 313.23c0-8.705 11.95-9.945 11.95-15.678 0-2.416-1.828-4.04-4.389-4.04-3.21 0-4.935 3.107-4.935 3.107l-2.522-1.694s2.211-4.627 7.703-4.627c4.489 0 7.699 2.8 7.699 7.012 0 8.014-11.639 9.254-11.705 14.818h12.085v2.968H249.69a12.055 12.055 0 0 1-.173-1.866M285.895 302.87c0-5.284-1.14-9.43-5.146-9.43-3.974 0-5.114 4.146-5.114 9.43 0 5.318 1.14 9.496 5.114 9.496 4.005 0 5.146-4.178 5.146-9.496m-13.747 0c0-7.012 2.108-12.572 8.601-12.572 6.524 0 8.636 5.56 8.636 12.572 0 7.046-2.112 12.64-8.636 12.64-6.493 0-8.601-5.594-8.601-12.64M296.096 312.126h5.391v-15.75c0-.757.031-1.518.031-1.518h-.069s-.273.55-1.175 1.414l-2.277 2.246-2.073-2.143 5.84-5.66h3.037v21.411h5.319v2.969h-14.024v-2.969zM326.121 295.894c.688-1.382 1.413-2.246 1.413-2.246v-.069s-.553.104-1.793.104h-10.882v-2.969h16.304v2.347l-11.017 22.037h-3.525l9.5-19.204z" fill="#58585B"/><path fill="#59595B" d="M502.153 50.823h-5.245v-1.285h11.898v1.285h-5.225v13.284h-1.428zM511.774 49.538h1.493l3.812 8.56c.332.746.705 1.783.705 1.783h.041s.394-1.037.726-1.783l3.812-8.56h1.472l1.16 14.569h-1.43l-.805-10.194c-.066-.788-.045-2.032-.045-2.032h-.041s-.436 1.285-.764 2.032l-3.421 7.478h-1.344l-3.425-7.478c-.328-.726-.784-2.074-.784-2.074h-.042s.02 1.286-.041 2.074l-.809 10.194h-1.43l1.16-14.57z"/></g></g></svg>