<?xml version="1.0" encoding="UTF-8"?><svg width="555" height="555" viewBox="0 0 555 555" xmlns="http://www.w3.org/2000/svg" xmlns:xlink="http://www.w3.org/1999/xlink"><title>2018 WELL / Platinum</title><defs><path id="ara" d="M0 1.006h543.187v541.538H0z"/><path id="arc" d="M0 542.544h543.187V1.006H0z"/></defs><g transform="translate(7 5)" fill="none" fill-rule="evenodd"><path fill="#58585B" d="M3.644 217.285l.463-2.077 21.159 4.724-.463 2.077z"/><g transform="translate(0 2.45)"><path d="M7.11 199.499l.588-1.98 18.108-6.169c1.247-.404 3.317-.881 3.317-.881l.021-.059s-1.77-.332-2.861-.656l-14.957-4.444.605-2.04 20.78 6.173-.588 1.98-18.108 6.168c-1.248.404-3.318.881-3.318.881l-.02.06s1.769.33 2.861.656l14.96 4.444-.608 2.039-20.78-6.172zM20.437 166.177l-2.99 7.205-1.765-.733 6.783-16.345 1.766.733-2.979 7.174 18.253 7.578-.815 1.966zM27.325 146.347l5.723-10.785 1.69.895-4.728 8.905 6.974 3.702 3.856-7.275 1.69.899-3.86 7.27 7.112 3.77 4.983-9.395 1.69.895-5.982 11.276zM52.662 124.038c1.448-2.187.95-4.51-1.31-6.009-1.493-.985-2.99-1.127-4.254-.446-.64.353-1.22.892-2.139 2.28l-2.416 3.654 7.278 4.817 2.84-4.296zm-12.887.197l3.539-5.349c1.227-1.849 1.95-2.554 2.737-3.069 1.866-1.206 4.271-1.092 6.455.353 2.443 1.617 3.4 4.247 2.623 6.655l.052.032s.349-.025 1.026.013l9.88.885-1.344 2.029-10.315-.947-3.014 4.55 7.613 5.04-1.175 1.772-18.077-11.964zM55.387 101.844l1.32-1.59 19.075 1.434c1.303.118 3.397.49 3.397.49l.038-.048s-1.493-.998-2.374-1.724l-12.012-9.96 1.358-1.637 16.691 13.833-1.32 1.593-19.075-1.434c-1.303-.121-3.397-.494-3.397-.494l-.038.048s1.493.999 2.37 1.728l12.013 9.956-1.355 1.638-16.691-13.833zM82.006 75.654s.916 1.603 1.362 2.592l3.41 7.654 5.343-5.208-7.516-3.652c-.975-.47-2.554-1.428-2.554-1.428l-.045.042zm11.87 5.913l-6.247 6.088 3.05 6.666-1.613 1.573-9.427-21.076 1.634-1.594 20.825 9.974-1.614 1.572-6.608-3.203zM99.396 59.667l-6.058 4.914-1.202-1.482 13.743-11.152 1.203 1.486-6.034 4.893 12.45 15.347-1.65 1.34zM114.667 45.715l1.748-1.213 12.351 17.814-1.748 1.213zM146.232 49.49c4.236-2.409 5.657-7.896 3.034-12.51-2.561-4.502-7.928-5.957-12.16-3.549-4.265 2.423-5.734 7.762-3.177 12.268 2.623 4.61 8.038 6.214 12.303 3.791m-10.105-17.776c5.336-3.03 11.991-1.244 15.07 4.171 3.138 5.522 1.345 12.288-3.99 15.323-5.337 3.03-12.068 1.109-15.206-4.413-3.079-5.415-1.21-12.047 4.126-15.081M157.578 21.004l1.904-.802 16.259 10.084c1.102.705 2.785 2.004 2.785 2.004l.055-.024s-.864-1.576-1.306-2.626l-6.054-14.38 1.96-.829 8.414 19.981-1.904.802-16.26-10.084c-1.102-.708-2.785-2.004-2.785-2.004l-.058.024s.867 1.576 1.31 2.626l6.054 14.38-1.96.825-8.414-19.977zM193.288 10.066s.072 1.846.01 2.927l-.511 8.363 7.146-2.15-4.98-6.71c-.65-.868-1.606-2.447-1.606-2.447l-.06.017zm7.8 10.727l-8.357 2.512-.373 7.326-2.156.65 1.375-23.05 2.184-.656 13.861 18.464-2.156.65-4.379-5.896zM212.34 2.734l2.083-.421 3.919 19.372 9.852-1.994.38 1.873-11.94 2.416zM237.127 492.72s-.618 1.776-1.196 3.09l-6.417 14.455-2.53-.394-2.232-22.28 2.195.34 1.569 17.278c.107 1.14.134 2.364.134 2.364l.062.007c.032.006.367-1.158.84-2.209l7.084-15.94 2.012.31 1.938 17.337c.135 1.144.104 2.357.132 2.36l.062.011s.397-1.158.84-2.212l6.873-15.972 2.194.339-9.016 20.54-2.53-.39-1.748-15.716c-.152-1.428-.204-3.308-.204-3.308l-.062-.01zM260.1 491.98l12.206.322-.049 1.911-10.08-.266-.207 7.893 8.228.218-.049 1.907-8.231-.214-.21 8.045 10.632.28-.052 1.91-12.758-.338zM283.018 491.958l2.122-.155 1.458 19.71 10.025-.739.141 1.904-12.146.899zM304.234 489.828l2.097-.359 3.345 19.476 9.908-1.7.321 1.883-12.001 2.063zM352.269 498.063c2.474-.864 3.48-2.944 2.626-5.391-.853-2.443-3.072-3.466-5.46-2.633l-5.211 1.817 2.806 8.035 5.239-1.828zm-3.674-9.69c2.067-.722 2.955-2.664 2.216-4.79-.733-2.094-2.53-3.034-4.714-2.273l-4.949 1.728 2.468 7.073 4.98-1.738zm-10.087-6.441l6.988-2.437c3.23-1.126 6.213.021 7.33 3.221.739 2.125.258 4.026-1.038 5.36l.021.059c2.298-.149 4.337 1.389 5.201 3.867 1.272 3.638-.705 6.676-4.14 7.875l-7.219 2.52-7.143-20.465zM361.181 473.437l1.942-.944 6.155 12.676c1.627 3.359 4.776 4.333 8.131 2.702 3.359-1.628 4.565-4.717 2.91-8.131l-6.127-12.62 1.914-.93 6.165 12.707c2.101 4.326.44 8.594-3.97 10.736-4.441 2.157-8.85.837-10.952-3.493l-6.168-12.703zM385.964 460.45l1.821-1.103 11.228 18.544-1.821 1.102zM397.706 452.972l1.728-1.244 11.538 16.045 8.16-5.868 1.116 1.552-9.887 7.108zM432.939 450.356c3.96-3.574 4.489-8.284.604-12.59-3.86-4.281-8.622-4.222-12.561-.67l-3.46 3.12 11.957 13.257 3.46-3.117zm-18.274-10.136l5.197-4.686c4.831-4.357 10.747-4.337 15.333.747 4.624 5.128 4.016 10.992-.815 15.35l-5.198 4.686-14.517-16.097zM434.98 420.7l1.437-1.57 15.972 14.656-1.438 1.57zM444.143 410.407l1.244-1.648 19.124.563c1.306.063 3.414.339 3.414.339l.038-.048s-1.538-.93-2.45-1.618l-12.451-9.403 1.282-1.696 17.3 13.062-1.245 1.649-19.124-.567c-1.306-.059-3.414-.339-3.414-.339l-.038.052s1.538.93 2.45 1.617l12.454 9.4-1.282 1.7-17.302-13.063zM464.978 378.98c2.488-4.368 6.016-5.446 6.016-5.446l.826 1.787s-3.127 1.126-5.083 4.558c-2.596 4.554-.843 9.634 3.632 12.185 4.634 2.643 9.88 1.41 12.323-2.876 2.094-3.67.618-7.495.618-7.495l-3.19-1.818-1.83 3.218-1.663-.947 2.84-4.983 9.003 5.131-.978 1.714-1.42-.808c-.402-.232-.789-.488-.789-.488l-.03.056s1.309 3.621-.951 7.585c-2.934 5.142-9.41 6.846-15.008 3.656-5.436-3.103-7.402-9.617-4.316-15.029M479.405 349.136l.75-1.99 20.284 7.633-.75 1.994zM484.073 336.156l.546-1.994 17.97-6.566c1.233-.432 3.296-.954 3.296-.954l.014-.058s-1.773-.294-2.875-.595l-15.05-4.112.56-2.053 20.91 5.713-.542 1.994-17.97 6.565c-1.237.432-3.296.954-3.296.954l-.018.059s1.777.294 2.876.594l15.053 4.113-.56 2.052-20.914-5.712zM508.137 311.58s2.692-1.859 3.218-5.238c.366-2.347-.736-4.486-3.052-4.845-5.39-.84-5.684 10.066-12.326 9.033-3.08-.48-5.336-3.608-4.72-7.568.58-3.718 2.964-5.405 2.964-5.405l1.607 1.31s-2.125 1.603-2.56 4.406c-.426 2.74 1.095 4.79 2.982 5.083 5.09.792 5.294-10.128 12.33-9.033 3.2.501 5.404 3.37 4.775 7.392-.68 4.385-3.797 6.365-3.797 6.365l-1.42-1.5zM495.746 282.043l-.408 7.792-1.907-.1.923-17.676 1.907.097-.404 7.761 19.739 1.03-.11 2.125zM494.11 263.248l-.07-2.125 21.668-.709.069 2.126zM494.698 244.336l.912 7.748-1.897.221-2.074-17.572 1.901-.225.909 7.717 19.625-2.315.249 2.115zM490.164 226.561l-.498-2.101 13.712-3.242c3.632-.857 5.27-3.714 4.41-7.343-.857-3.632-3.608-5.484-7.299-4.613l-13.65 3.227-.49-2.07 13.743-3.248c4.679-1.106 8.484 1.448 9.61 6.22 1.134 4.8-1.116 8.816-5.795 9.922l-13.743 3.248zM483.164 194.468l2.647 7.34-1.8.646-6.003-16.65 1.797-.646 2.637 7.309 18.591-6.704.723 2zM474.495 177.878l-5.304-11 1.72-.829 4.383 9.082 7.108-3.432-3.577-7.416 1.725-.83 3.576 7.417 7.25-3.498-4.623-9.582 1.72-.83 5.547 11.498zM136.521 184.605l16.667 62.558a92.714 92.714 0 0 1 1.81 9.058h.243s.362-4.468 1.568-9.058l15.7-62.558h12.32l-22.342 85.262H148.6l-14.735-55.311c-1.448-5.436-2.537-12.078-2.537-12.078h-.242s-1.085 6.642-2.536 12.078l-14.732 55.311H99.93l-21.74-85.262h12.32l15.094 62.558c1.089 4.59 1.572 9.058 1.572 9.058h.242s.601-4.347 1.811-9.058l16.667-62.558h10.626zM200.285 184.605h49.513v10.384h-37.556v26.692h30.555v10.385h-30.555v27.414h39.612v10.387h-51.57zM269.484 184.605h11.957v74.875h38.161v10.387h-50.118zM333.37 184.605h11.956v74.875h38.162v10.387H333.37z" fill="#58585B"/><path d="M209.86 505.914l5.21-20.036c-98.286-25.572-166.934-114.46-166.934-216.164 0-9.538.609-19.138 1.804-28.53l-20.537-2.617a247.502 247.502 0 0 0-1.97 31.147c0 111.124 75.017 208.254 182.427 236.2M271.483 46.368c80.31 0 154.825 43.452 194.462 113.405l18.011-10.204C440.65 73.143 359.236 25.665 271.483 25.665c-11.795 0-23.637.85-35.2 2.526l2.965 20.485a225.945 225.945 0 0 1 32.235-2.308" fill="#B7B8B8"/><path d="M487.916 269.715c0-52.27-18.885-102.737-53.18-142.101l-15.61 13.598c31.009 35.597 48.087 81.233 48.087 128.503 0 107.925-87.802 195.728-195.73 195.728-29.564 0-57.967-6.421-84.42-19.09l-8.94 18.675c29.27 14.01 60.679 21.118 93.36 21.118 119.342 0 216.433-97.088 216.433-216.43" fill="#B7B8B8"/><path d="M271.483 437.827c-44.61 0-86.628-17.29-118.317-48.684l-14.569 14.704c35.59 35.262 82.781 54.683 132.886 54.683 104.113 0 188.815-84.703 188.815-188.816 0-59.856-27.455-114.864-75.327-150.914l-12.454 16.536c42.633 32.103 67.082 81.084 67.082 134.378 0 92.699-75.417 168.113-168.116 168.113" fill="#B7B8B8"/><path d="M271.483 430.912c27.88 0 55.36-7.23 79.463-20.914l-10.218-18.007c-20.997 11.918-44.941 18.218-69.245 18.218-49.424 0-95.785-26.453-120.995-69.038l-17.814 10.547c28.917 48.85 82.104 79.194 138.809 79.194M420.737 330.72c7.927-19.38 11.946-39.903 11.946-61.003 0-30.182-8.394-59.614-24.276-85.11l-17.573 10.944c13.834 22.21 21.146 47.854 21.146 74.166 0 18.398-3.5 36.288-10.405 53.166l19.162 7.837z" fill="#B7B8B8"/><mask id="arb" fill="#fff"><use xlink:href="#ara"/></mask><path d="M302.881 1.006l-2.363 20.568C427.062 36.123 522.484 143.301 522.484 270.88c0 138.38-112.58 250.963-250.96 250.963-65.606 0-127.66-25.151-174.733-70.825-46.974-45.57-74-106.622-76.098-171.917L0 279.767c2.274 70.686 31.53 136.78 82.373 186.11 50.962 49.44 118.133 76.668 189.151 76.668 149.794 0 271.663-121.869 271.663-271.666 0-138.1-103.308-254.122-240.306-269.873" fill="#B7B8B8" mask="url(#arb)"/><path d="M97.521 303.47c2.938 0 4.735-1.83 4.735-4.768 0-2.934-1.797-4.662-4.7-4.662h-4.973v9.43h4.938zm-8.355-12.398h8.908c4.455 0 7.669 3.003 7.669 7.63 0 4.63-3.214 7.737-7.669 7.737h-5.49v9.016h-3.418v-24.383zM112.731 291.072h3.418v21.412h10.917v2.972H112.73zM141.445 294.42s-.553 2.211-.967 3.455l-2.727 7.734h7.388l-2.692-7.734c-.414-1.244-.933-3.455-.933-3.455h-.069zm4.593 14.023h-9.189l-2.416 7.012h-3.52l8.77-24.384h3.594l8.77 24.384h-3.556l-2.453-7.012zM161.972 294.042h-8.36v-2.968h20.137v2.968h-8.36v21.412h-3.417z" fill="#58585B"/><mask id="ard" fill="#fff"><use xlink:href="#arc"/></mask><path fill="#58585B" mask="url(#ard)" d="M179.838 315.457h3.418v-24.384h-3.418zM192.486 291.072h3.383l10.847 15.852c.895 1.313 2.04 3.52 2.04 3.52h.068s-.245-2.173-.245-3.52v-15.852H212v24.384h-3.352l-10.879-15.817c-.895-1.348-2.038-3.56-2.038-3.56h-.07s.242 2.174.242 3.56v15.817h-3.417v-24.384zM220.89 291.072h3.422v15.748c0 3.732 2.415 5.906 6.147 5.906 3.764 0 6.217-2.174 6.217-5.975v-15.679h3.418v15.748c0 5.422-3.902 9.05-9.6 9.05-5.702 0-9.603-3.628-9.603-9.05v-15.748zM250.193 291.072h3.594l5.595 13.19c.553 1.348 1.206 3.284 1.206 3.284h.069s.657-1.936 1.21-3.283l5.598-13.19h3.59l1.97 24.383h-3.387l-1.21-15.371c-.1-1.483-.034-3.594-.034-3.594h-.065s-.726 2.25-1.314 3.594l-4.872 10.982h-3.038l-4.834-10.982c-.553-1.31-1.313-3.66-1.313-3.66h-.07s.035 2.177-.069 3.66l-1.175 15.37h-3.417l1.966-24.383z"/><path fill="#59595B" mask="url(#ard)" d="M489.347 50.528H484.1v-1.286h11.898v1.286h-5.225v13.284h-1.427zM498.968 49.242h1.493l3.811 8.56c.332.746.705 1.783.705 1.783h.042s.394-1.037.726-1.783l3.811-8.56h1.472l1.161 14.57h-1.43l-.805-10.195c-.066-.788-.045-2.032-.045-2.032h-.042s-.435 1.285-.763 2.032l-3.422 7.478h-1.344l-3.424-7.478c-.329-.726-.785-2.074-.785-2.074h-.041s.02 1.286-.042 2.074l-.808 10.194h-1.431l1.161-14.57z"/><path d="M294.157 313.467c0-8.387 11.515-9.583 11.515-15.109 0-2.329-1.766-3.89-4.23-3.89-3.09 0-4.755 2.992-4.755 2.992l-2.43-1.631s2.133-4.458 7.42-4.458c4.326 0 7.42 2.699 7.42 6.756 0 7.72-11.211 8.919-11.277 14.272h11.646v2.865h-15.14c-.1-.633-.169-1.234-.169-1.797M328.36 303.484c0-5.093-1.096-9.085-4.959-9.085-3.825 0-4.92 3.992-4.92 9.085 0 5.122 1.095 9.148 4.92 9.148 3.863 0 4.959-4.026 4.959-9.148m-13.242 0c0-6.755 2.032-12.112 8.283-12.112 6.293 0 8.321 5.357 8.321 12.112 0 6.787-2.028 12.175-8.321 12.175-6.251 0-8.283-5.388-8.283-12.175M337.34 312.4h5.19v-15.173c0-.733.035-1.462.035-1.462h-.07s-.265.532-1.13 1.365l-2.197 2.163-1.994-2.066 5.622-5.457h2.93v20.63h5.122v2.862H337.34V312.4zM365.853 302.485c.366-.362 2.066-2.163 2.066-4.623 0-2.164-1.731-3.529-4.195-3.529-2.595 0-4.026 1.462-4.026 3.263 0 2.595 3.128 3.59 6.155 4.89m-4.358 1.13c-.764.532-2.827 2.128-2.827 4.661 0 2.692 2.33 4.423 4.821 4.423 2.464 0 4.662-1.596 4.662-4.025 0-2.527-3.497-3.525-6.656-5.06m-2.43-1.396c-1.527-1.099-2.629-2.53-2.629-4.693 0-3.127 2.364-6.154 7.323-6.154 4.357 0 7.385 2.43 7.385 6.29 0 3.127-2.492 5.788-2.793 6.123 1.794 1.095 3.19 2.56 3.19 4.986 0 3.663-3.159 6.891-8.052 6.891-4.69 0-8.183-2.927-8.183-7.188 0-3.594 3.13-5.823 3.76-6.255" fill="#58585B" mask="url(#ard)"/></g></g></svg>