<?xml version="1.0" encoding="UTF-8"?><svg viewBox="0 0 555 555" xmlns="http://www.w3.org/2000/svg" xmlns:xlink="http://www.w3.org/1999/xlink" width="555" height="555"><title>2018 WELL / Silver</title><defs><path id="asa" d="M0 544.996h546V0H0z"/></defs><g transform="translate(5 5)" fill="none" fill-rule="evenodd"><path d="M121.521 308.689s2.793 2.923 6.708 2.923c2.457 0 4.544-1.423 4.544-4 0-5.893-12.74-4.622-12.74-12.977 0-4.233 3.542-7.584 8.495-7.584 4.88 0 7.451 2.737 7.451 2.737l-1.677 3.153s-2.423-2.344-5.774-2.344c-2.792 0-4.769 1.806-4.769 3.962 0 5.619 12.741 4.118 12.741 12.935 0 4.195-3.129 7.66-8.345 7.66-5.589 0-8.718-3.58-8.718-3.58l2.084-2.885z" fill="#58585B"/><mask id="asb" fill="#fff"><use xlink:href="#asa"/></mask><path fill="#58585B" mask="url(#asb)" d="M143.526 315.154h4.014v-28.103h-4.014zM154.566 287.051h3.593v24.681h11.462v3.422h-15.055zM168.618 287.051h3.983l6.516 19.862c.484 1.512 1.008 3.86 1.008 3.86h.07s.524-2.348 1.004-3.86l6.597-19.862h3.906l-9.676 28.103h-3.692l-9.716-28.103zM196.72 287.051h16.382v3.423h-12.424v8.798h10.106v3.422h-10.106v9.038h13.105v3.422h-17.062zM227.793 300.543c2.875 0 4.665-1.95 4.665-5.096 0-2.072-.747-3.544-2.09-4.338-.707-.398-1.569-.635-3.619-.635h-4.251v10.069h5.295zM218.8 287.05h8.063c2.757 0 3.915.237 4.921.636 2.69 1.074 4.444 3.9 4.444 7.599 0 3.583-1.869 6.614-4.74 7.605v.083s.296.355.784 1.275l5.598 10.905h-4.18l-5.562-11.19h-5.631v11.19H218.8v-28.103zM1.004 215.622l.472-1.839 21.609 4.183-.473 1.84zM5.018 198.667l.598-1.953 18.459-6.08c1.27-.398 3.384-.868 3.384-.868l.017-.06s-1.8-.328-2.916-.647l-15.246-4.38.619-2.01 21.181 6.083-.602 1.953-18.458 6.084c-1.27.394-3.38.867-3.38.867l-.018.058s1.801.327 2.916.646l15.247 4.38-.62 2.01-21.18-6.083zM18.66 165.223l-2.9 7.042-1.709-.716 6.575-15.98 1.712.72-2.89 7.014 17.688 7.41-.79 1.92zM26.096 145.347l5.485-10.854 1.618.9-4.53 8.964 6.683 3.724 3.7-7.319 1.62.9-3.698 7.319 6.815 3.796 4.777-9.455 1.618.9-5.734 11.348zM50.92 123.985c1.435-2.068.945-4.27-1.3-5.687-1.479-.934-2.964-1.068-4.217-.421-.633.333-1.208.842-2.122 2.159l-2.396 3.456 7.219 4.557 2.817-4.064zm-12.78.186l3.508-5.063c1.215-1.75 1.937-2.417 2.714-2.904 1.856-1.14 4.238-1.035 6.404.333 2.424 1.532 3.375 4.021 2.602 6.298l.051.033s.346-.026 1.017.013l9.8.833-1.332 1.924-10.234-.898-2.985 4.308 7.547 4.766-1.164 1.682-17.928-11.325zM54.199 101.956l1.347-1.664 19.502 1.502c1.33.122 3.472.512 3.472.512l.038-.047s-1.527-1.047-2.427-1.808L63.854 90.035l1.387-1.711 17.06 14.47-1.347 1.664-19.502-1.502c-1.33-.122-3.472-.516-3.472-.516l-.038.05s1.527 1.048 2.427 1.81l12.277 10.415-1.387 1.711-17.06-14.47zM80.612 75.635s.902 1.563 1.34 2.525l3.353 7.453 5.254-5.07-7.392-3.556c-.96-.46-2.511-1.392-2.511-1.392l-.044.04zm11.671 5.76l-6.143 5.93 3 6.495-1.584 1.53-9.27-20.532 1.606-1.55 20.476 9.716-1.585 1.53-6.5-3.12zM97.153 58.913l-5.69 4.919-1.132-1.486 12.911-11.158 1.132 1.485-5.668 4.9 11.698 15.359-1.553 1.34zM113.415 44.372l1.744-1.214 12.308 17.856-1.74 1.214zM145.086 49.086c4.207-2.375 5.62-7.785 3.017-12.331-2.544-4.44-7.875-5.876-12.086-3.501-4.234 2.388-5.694 7.652-3.15 12.093 2.602 4.545 7.985 6.128 12.219 3.739m-10.039-17.527c5.3-2.987 11.914-1.228 14.973 4.114 3.116 5.444 1.337 12.113-3.967 15.104-5.297 2.991-11.986 1.096-15.106-4.348-3.055-5.34-1.197-11.879 4.1-14.87M157.577 19.506l1.831-.787 15.628 9.909c1.058.695 2.677 1.97 2.677 1.97l.053-.023s-.83-1.547-1.257-2.582L170.69 13.86l1.884-.811 8.088 19.637-1.831.787-15.628-9.909c-1.058-.695-2.677-1.974-2.677-1.974l-.053.024s.83 1.55 1.254 2.585l5.822 14.131-1.884.814-8.088-19.637zM192.717 8.449s.071 1.798.01 2.85l-.5 8.148 6.998-2.094-4.878-6.538c-.632-.847-1.572-2.383-1.572-2.383l-.058.017zm7.64 10.446l-8.187 2.447-.366 7.136-2.11.629L191.04 6.66l2.14-.639 13.577 17.982-2.11.632-4.29-5.74zM211.776 1.433l1.933-.43 3.632 19.743 9.138-2.033.352 1.91-11.07 2.462zM236.27 494.826s-.621 1.744-1.201 3.034l-6.46 14.177-2.546-.383-2.243-21.86 2.205.332 1.58 16.954c.108 1.117.136 2.316.136 2.316l.062.01c.032.003.368-1.138.848-2.17l7.126-15.637 2.025.305 1.948 17.008c.136 1.124.104 2.312.136 2.316l.059.01s.399-1.134.847-2.167l6.915-15.674 2.208.335-9.07 20.15-2.547-.382-1.76-15.42c-.153-1.402-.205-3.244-.205-3.244l-.063-.01zM260.536 493.809l12.432.322-.052 1.918-10.264-.266-.215 7.917 8.384.218-.053 1.918-8.38-.218-.218 8.073 10.83.28-.05 1.919-12.998-.336zM283.037 493.97l2.17-.161 1.488 19.988 10.249-.749.144 1.932-12.418.91zM304.114 491.163l2.016-.365 3.212 19.797 9.515-1.73.312 1.916-11.53 2.098zM353.134 499.556c2.499-.854 3.512-2.914 2.652-5.336-.86-2.418-3.101-3.429-5.512-2.606l-5.261 1.8 2.832 7.952 5.29-1.81zm-3.71-9.592c2.087-.713 2.986-2.636 2.236-4.737-.738-2.077-2.553-3.006-4.756-2.25l-4.996 1.707 2.491 7.002 5.025-1.722zm-10.181-6.373l7.055-2.411c3.261-1.117 6.268.02 7.397 3.19.75 2.1.265 3.979-1.045 5.3l.02.059c2.321-.147 4.38 1.376 5.252 3.825 1.282 3.604-.715 6.613-4.181 7.798l-7.29 2.494-7.208-20.255zM361.324 474.848l1.95-.928 6.178 12.484c1.636 3.304 4.796 4.266 8.163 2.662 3.372-1.608 4.584-4.647 2.921-8.008l-6.15-12.43 1.92-.915 6.191 12.512c2.11 4.262.44 8.467-3.988 10.574-4.455 2.125-8.884.823-10.994-3.44l-6.191-12.511zM386.415 461.756l1.82-1.068 11.228 18-1.819 1.07zM397.456 453.85l1.69-1.192 11.304 15.388 7.992-5.63 1.095 1.49-9.685 6.818zM433.33 450.926c3.862-3.441 4.373-7.98.593-12.127-3.764-4.127-8.405-4.07-12.243-.649l-3.37 3.006 11.65 12.777 3.37-3.007zm-17.808-9.766l5.065-4.516c4.709-4.197 10.473-4.177 14.94.721 4.51 4.942 3.915 10.592-.794 14.789l-5.065 4.519-14.146-15.513zM435.596 421.994l1.41-1.454 15.652 13.598-1.407 1.458zM444.629 411.73l1.273-1.62 19.54.555c1.333.058 3.488.332 3.488.332l.039-.047s-1.573-.915-2.504-1.59l-12.724-9.233 1.309-1.667 17.682 12.825-1.273 1.62-19.541-.555c-1.337-.058-3.491-.333-3.491-.333l-.036.051s1.57.912 2.5 1.587l12.728 9.233-1.312 1.667-17.678-12.826zM467.118 379.816c2.401-4.365 5.806-5.445 5.806-5.445l.8 1.787s-3.022 1.125-4.907 4.555c-2.506 4.554-.813 9.632 3.504 12.182 4.474 2.643 9.538 1.408 11.896-2.874 2.02-3.67.593-7.494.593-7.494l-3.074-1.814-1.77 3.212-1.602-.946 2.742-4.982 8.688 5.13-.946 1.715-1.37-.81c-.386-.228-.759-.483-.759-.483l-.03.051s1.263 3.62-.92 7.584c-2.83 5.14-9.08 6.845-14.484 3.653-5.25-3.098-7.146-9.612-4.167-15.021M480.761 350.144l.715-1.868 19.359 7.165-.715 1.868zM485.78 337.536l.517-1.995 17.057-6.582c1.176-.43 3.132-.955 3.132-.955l.017-.058s-1.688-.294-2.73-.595l-14.291-4.118.534-2.057 19.852 5.722-.518 1.995-17.057 6.582c-1.176.429-3.132.954-3.132.954l-.017.06s1.688.293 2.73.594l14.291 4.117-.53 2.057-19.856-5.721zM508.611 311.691s2.665-1.803 3.187-5.08c.363-2.275-.73-4.346-3.023-4.698-5.336-.813-5.63 9.762-12.203 8.758-3.043-.465-5.28-3.497-4.67-7.339.575-3.604 2.935-5.24 2.935-5.24l1.589 1.272s-2.101 1.556-2.532 4.273c-.423 2.657 1.083 4.641 2.952 4.929 5.035.766 5.237-9.822 12.202-8.757 3.167.481 5.35 3.266 4.728 7.164-.673 4.253-3.757 6.174-3.757 6.174l-1.408-1.456zM497.12 283.147l-.406 7.92-1.901-.103.917-17.964 1.901.102-.402 7.884 19.664 1.049-.11 2.16zM494.883 263.967l-.07-2.26 22.01-.751.07 2.26zM494.778 243.834l.89 7.865-1.85.224-2.017-17.839 1.848-.227.887 7.833 19.104-2.347.242 2.144zM490.507 225.827l-.485-2.04 13.388-3.146c3.546-.83 5.146-3.604 4.307-7.129-.839-3.524-3.521-5.323-7.127-4.475l-13.332 3.132-.475-2.01 13.42-3.153c4.569-1.075 8.283 1.404 9.381 6.037 1.109 4.66-1.088 8.56-5.658 9.632l-13.42 3.152zM484.77 193.861l2.573 7.238-1.748.64-5.838-16.423 1.748-.64 2.563 7.21 18.073-6.61.7 1.97zM475.87 177.65l-5.146-10.554 1.67-.799 4.25 8.717 6.896-3.292-3.468-7.117 1.67-.795 3.469 7.114 7.034-3.355-4.483-9.194 1.67-.798 5.38 11.036zM136.026 184.676l16.782 62.595c1.216 4.712 1.828 9.061 1.828 9.061h.243s.365-4.47 1.581-9.061l15.809-62.595h12.407l-22.5 85.313h-13.989l-14.836-55.345c-1.46-5.437-2.554-12.082-2.554-12.082h-.243s-1.094 6.645-2.554 12.082l-14.84 55.345H99.177l-21.893-85.313h12.404l15.204 62.595c1.095 4.59 1.581 9.061 1.581 9.061h.244s.608-4.35 1.824-9.061l16.785-62.595h10.701zM200.735 184.676h50.114v10.391h-38.015v26.706h30.923v10.394h-30.923v27.428h40.092v10.394h-52.19zM269.989 184.676h12.21v74.919h38.977v10.394H269.99zM334.224 184.676h12.21v74.919h38.978v10.394h-51.188z"/><path d="M210.575 506.857l5.215-20.157C117.475 460.967 48.812 371.536 48.812 269.21c0-9.595.607-19.257 1.805-28.707l-20.543-2.632a250.21 250.21 0 0 0-1.971 31.34c0 111.803 75.035 209.528 182.472 237.646" fill="#AFC4CB" mask="url(#asb)"/><path d="M210.575 506.857l5.215-20.157C117.475 460.967 48.812 371.536 48.812 269.21c0-9.595.607-19.257 1.805-28.707l-20.543-2.632a250.21 250.21 0 0 0-1.971 31.34c0 111.803 75.035 209.528 182.472 237.646M273.247 44.851c80.714 0 155.599 43.578 195.437 113.73l18.1-10.233C443.261 71.701 361.44 24.088 273.246 24.088a247.81 247.81 0 0 0-35.376 2.533l2.98 20.545a227.93 227.93 0 0 1 32.396-2.315" fill="#AFC4CB" mask="url(#asb)"/><path d="M273.247 44.851c80.714 0 155.599 43.578 195.437 113.73l18.1-10.233C443.261 71.701 361.44 24.088 273.246 24.088a247.81 247.81 0 0 0-35.376 2.533l2.98 20.545a227.93 227.93 0 0 1 32.396-2.315" fill="#AFC4CB" mask="url(#asb)"/><path d="M490.798 269.273a217.04 217.04 0 0 0-53.584-142.81l-15.729 13.667a196.275 196.275 0 0 1 48.452 129.143c0 108.462-88.47 196.703-197.215 196.703-29.786 0-58.406-6.453-85.063-19.183l-9.005 18.767c29.49 14.08 61.14 21.223 94.068 21.223 120.247 0 218.076-97.573 218.076-217.51" fill="#AFC4CB" mask="url(#asb)"/><path d="M490.798 269.273a217.04 217.04 0 0 0-53.584-142.81l-15.729 13.667a196.275 196.275 0 0 1 48.452 129.143c0 108.462-88.47 196.703-197.215 196.703-29.786 0-58.406-6.453-85.063-19.183l-9.005 18.767c29.49 14.08 61.14 21.223 94.068 21.223 120.247 0 218.076-97.573 218.076-217.51" fill="#AFC4CB" mask="url(#asb)"/><path d="M274.012 437.884c-44.814 0-87.026-17.365-118.858-48.902l-14.64 14.772c35.754 35.42 83.165 54.926 133.498 54.926 104.595 0 189.687-85.084 189.687-189.66 0-60.125-27.583-115.38-75.674-151.59l-12.514 16.61c42.829 32.247 67.392 81.447 67.392 134.98 0 93.114-75.763 168.864-168.89 168.864" fill="#AFC4CB" mask="url(#asb)"/><path d="M274.012 437.884c-44.814 0-87.026-17.365-118.858-48.902l-14.64 14.772c35.754 35.42 83.165 54.926 133.498 54.926 104.595 0 189.687-85.084 189.687-189.66 0-60.125-27.583-115.38-75.674-151.59l-12.514 16.61c42.829 32.247 67.392 81.447 67.392 134.98 0 93.114-75.763 168.864-168.89 168.864" fill="#AFC4CB" mask="url(#asb)"/><path d="M273.273 431.58c28.076 0 55.746-7.28 80.021-21.051l-10.289-18.127c-21.144 11.997-45.255 18.339-69.732 18.339-49.77 0-96.457-26.627-121.844-69.491l-17.94 10.614c29.122 49.172 82.683 79.717 139.784 79.717" fill="#AFC4CB" mask="url(#asb)"/><path d="M273.273 431.58c28.076 0 55.746-7.28 80.021-21.051l-10.289-18.127c-21.144 11.997-45.255 18.339-69.732 18.339-49.77 0-96.457-26.627-121.844-69.491l-17.94 10.614c29.122 49.172 82.683 79.717 139.784 79.717M422.559 332.217c7.984-19.568 12.033-40.292 12.033-61.602 0-30.473-8.453-60.193-24.452-85.939l-17.702 11.053c13.937 22.428 21.303 48.323 21.303 74.886 0 18.582-3.528 36.644-10.483 53.69l19.3 7.912z" fill="#AFC4CB" mask="url(#asb)"/><path d="M422.559 332.217c7.984-19.568 12.033-40.292 12.033-61.602 0-30.473-8.453-60.193-24.452-85.939l-17.702 11.053c13.937 22.428 21.303 48.323 21.303 74.886 0 18.582-3.528 36.644-10.483 53.69l19.3 7.912z" fill="#AFC4CB" mask="url(#asb)"/><path d="M304.45 0l-2.376 20.7c127.199 14.64 223.119 122.504 223.119 250.897 0 139.266-113.165 252.567-252.264 252.567-65.942 0-128.319-25.312-175.639-71.275C50.077 407.026 22.91 345.58 20.8 279.872l-20.8.67c2.286 71.137 31.691 137.655 82.802 187.3 51.222 49.755 118.743 77.154 190.127 77.154C423.5 544.996 546 422.35 546 271.597 546 132.612 442.158 15.853 304.45 0" fill="#AFC4CB" mask="url(#asb)"/><path d="M304.45 0l-2.376 20.7c127.199 14.64 223.119 122.504 223.119 250.897 0 139.266-113.165 252.567-252.264 252.567-65.942 0-128.319-25.312-175.639-71.275C50.077 407.026 22.91 345.58 20.8 279.872l-20.8.67c2.286 71.137 31.691 137.655 82.802 187.3 51.222 49.755 118.743 77.154 190.127 77.154C423.5 544.996 546 422.35 546 271.597 546 132.612 442.158 15.853 304.45 0" fill="#AFC4CB" mask="url(#asb)"/><path fill="#59595B" mask="url(#asb)" d="M503.134 49.416h-5.31v-1.24h12.044v1.24h-5.29v12.812h-1.444zM511.002 48.176h1.459l3.723 8.256c.325.72.69 1.72.69 1.72h.04s.385-1 .709-1.72l3.724-8.256h1.438l1.134 14.052h-1.398l-.786-9.832c-.064-.76-.044-1.96-.044-1.96h-.04s-.426 1.24-.747 1.96l-3.342 7.212h-1.313l-3.346-7.212c-.32-.7-.767-2-.767-2h-.04s.02 1.24-.04 2l-.79 9.832h-1.398l1.134-14.052z"/><path d="M262.963 311.186c0-9.158 12.832-10.468 12.832-16.5 0-2.545-1.963-4.252-4.71-4.252-3.448 0-5.303 3.271-5.303 3.271l-2.708-1.785s2.375-4.869 8.272-4.869c4.82 0 8.271 2.946 8.271 7.38 0 8.432-12.499 9.742-12.572 15.591h12.98v3.125H263.15a12.101 12.101 0 0 1-.187-1.961M300.46 301.063c0-5.89-1.196-10.508-5.398-10.508-4.16 0-5.357 4.618-5.357 10.508 0 5.926 1.196 10.584 5.357 10.584 4.202 0 5.398-4.658 5.398-10.584m-14.412 0c0-7.816 2.21-14.012 9.014-14.012 6.845 0 9.052 6.196 9.052 14.012 0 7.856-2.207 14.091-9.052 14.091-6.804 0-9.014-6.235-9.014-14.09M312.328 310.973h5.712v-16.855c0-.811.038-1.626.038-1.626h-.075s-.29.59-1.245 1.515l-2.413 2.402-2.202-2.291 6.191-6.063h3.22v22.918h5.645v3.178h-14.871v-3.178zM342.949 299.91c.407-.424 2.294-2.501 2.294-5.351 0-2.505-1.925-4.08-4.665-4.08-2.885 0-4.475 1.694-4.475 3.774 0 3.001 3.476 4.155 6.846 5.657m-4.849 1.308c-.85.614-3.144 2.465-3.144 5.39 0 3.116 2.591 5.118 5.366 5.118 2.737 0 5.18-1.847 5.18-4.657 0-2.922-3.887-4.08-7.402-5.851m-2.702-1.617c-1.704-1.269-2.923-2.922-2.923-5.427 0-3.619 2.626-7.123 8.141-7.123 4.852 0 8.218 2.81 8.218 7.278 0 3.619-2.775 6.698-3.107 7.083 1.997 1.269 3.552 2.961 3.552 5.772 0 4.237-3.517 7.97-8.957 7.97-5.221 0-9.109-3.388-9.109-8.315 0-4.158 3.48-6.735 4.185-7.238" fill="#58585B" mask="url(#asb)"/></g></svg>