<?xml version="1.0" encoding="UTF-8"?><svg width="555" height="555" viewBox="0 0 555 555" xmlns="http://www.w3.org/2000/svg" xmlns:xlink="http://www.w3.org/1999/xlink"><title>2017 WELL Community Seal / Gold (Dark Option)</title><defs><path id="aia" d="M.001 2.55H543.45V546H0z"/><path id="aic" d="M0 546.779h543.45V3.329H0z"/></defs><g transform="translate(5 5)" fill="none" fill-rule="evenodd"><g transform="translate(0 .779)"><mask id="aib" fill="#fff"><use xlink:href="#aia"/></mask><path d="M543.451 274.274c0-150.07-121.655-271.724-271.725-271.724C121.656 2.55.001 124.204.001 274.274S121.656 546 271.726 546c150.07 0 271.725-121.654 271.725-271.725" fill="#D0D2D3" mask="url(#aib)"/></g><path d="M271.434 50.632c-123.746 0-224.423 100.677-224.423 224.422 0 123.746 100.677 224.423 224.423 224.423 123.745 0 224.423-100.677 224.423-224.423 0-123.745-100.678-224.422-224.423-224.422m0 466.99c-133.753 0-242.567-108.814-242.567-242.568 0-133.753 108.814-242.567 242.567-242.567 133.753 0 242.564 108.814 242.564 242.567 0 133.754-108.81 242.568-242.564 242.568M489.849 61.32h-5.054V60.08h11.463v1.239h-5.034v12.798h-1.375zM499.118 60.081h1.438l3.673 8.247c.32.719.679 1.717.679 1.717h.04s.38-.998.699-1.717l3.672-8.247h1.418l1.119 14.036h-1.378l-.776-9.821c-.063-.76-.043-1.958-.043-1.958h-.04s-.42 1.239-.736 1.958l-3.296 7.204h-1.295l-3.3-7.204c-.316-.7-.755-1.998-.755-1.998h-.04s.02 1.239-.04 1.998l-.78 9.821H498l1.118-14.036z" fill="#A6A8AB"/><path d="M469.227 361.945l-16.83-7.507C415.567 436.99 327.48 484.259 238.19 469.38a201.252 201.252 0 0 1-24.79-5.76l-5.3 17.652a220.862 220.862 0 0 0 27.06 6.285c97.565 16.257 193.817-35.396 234.068-125.613" fill="#A6A8AB"/><path d="M396.612 345.854c-14.685 25.246-36.968 46.383-65.473 59.457-35.387 16.234-75.012 17.808-111.57 4.435l-6.207 16.966c41.06 15.025 85.566 13.253 125.31-4.978 32.038-14.695 57.081-38.463 73.574-66.845l-15.634-9.035zM59.774 228.88l17.981 4.03c19.77-88.21 96.759-151.972 187.232-155.058 8.483-.29 17.042-.04 25.435.739l1.705-18.348a220.58 220.58 0 0 0-27.77-.809c-98.852 3.373-182.98 73.051-204.583 169.447M370.639 103.066c61.838 35.866 99.805 102.598 99.085 174.158l18.425.19c.785-78.189-40.697-151.1-108.265-190.288a219.49 219.49 0 0 0-28.229-13.777l-6.865 17.1a201.443 201.443 0 0 1 25.849 12.617" fill="#A6A8AB"/><path d="M450.91 214.831l-17.538 5.66c12.911 39.988 10.904 83.315-5.65 121.998-3.01 7.031-6.472 13.726-10.264 20.142l16 9.135c4.136-7.021 7.914-14.342 11.204-22.03 18.307-42.77 20.525-90.682 6.249-134.905M369.43 415.06c-57.674 38.816-135.655 40.85-196.278-.922-9.268-6.389-17.741-13.577-25.475-21.434l-13.284 12.765c8.586 8.746 18.001 16.74 28.305 23.84 67.102 46.24 153.436 43.937 217.232.89l-10.5-15.139zM96.268 343.543l17.196-6.629c-15.115-39.209-15.525-82.576-1.149-122.12 2.614-7.189 5.7-14.067 9.126-20.686l-16.483-8.23c-3.736 7.242-7.105 14.762-9.958 22.62-15.898 43.726-15.448 91.684 1.268 135.045M164.673 140.255c55.096-42.394 132.791-49.37 195.94-11.522 9.656 5.786 18.568 12.421 26.785 19.772l12.448-13.583c-9.126-8.18-19.027-15.564-29.76-21.997-69.899-41.892-155.917-34.118-216.852 12.888l11.439 14.442z" fill="#A6A8AB"/><path d="M116.558 225.28l17.152 5.673c14.626-44.22 48.284-78.128 92.347-93.026 32.467-10.977 66.136-9.862 96.15.855l5.882-17.069c-33.665-11.979-71.416-13.21-107.818-.902-49.49 16.736-87.29 54.813-103.713 104.469" fill="#A6A8AB"/><path d="M206.02 216.641l11.61 43.58a63.8 63.8 0 0 1 1.262 6.31h.17s.253-3.113 1.092-6.31l10.936-43.58h8.583l-15.564 59.395h-9.675l-10.264-38.53c-1.01-3.785-1.768-8.413-1.768-8.413h-.167s-.759 4.628-1.767 8.413l-10.265 38.53h-9.674l-15.142-59.395h8.58l10.517 43.58c.755 3.197 1.092 6.31 1.092 6.31h.17s.419-3.03 1.261-6.31l11.61-43.58h7.404zM250.44 216.641h34.495v7.235h-26.164v18.594h21.284v7.234H258.77v19.097h27.593v7.235H250.44zM298.647 216.641h8.33v52.16h26.584v7.235h-34.914zM343.152 216.641h8.33v52.16h26.584v7.235h-34.914zM190.058 304.782c-.023.023-2.31 2.45-5.616 2.45-4.245 0-6.462-3.466-6.462-6.888 0-3.892 2.646-6.606 6.435-6.606 3.036 0 5.27 2.021 5.294 2.045l.31.286 2.153-3.326-.186-.203c-.11-.117-2.707-2.887-7.744-2.887-6.142 0-10.773 4.621-10.773 10.747 0 6.326 4.554 10.917 10.833 10.917 5.267 0 8.113-3.27 8.23-3.41l.183-.212-2.364-3.233-.293.32zM213.805 300.344c0 3.928-2.716 6.888-6.319 6.888-3.602 0-6.319-2.96-6.319-6.888 0-3.77 2.717-6.606 6.32-6.606 3.545 0 6.318 2.9 6.318 6.606m-6.319-10.69c-6.072 0-10.83 4.694-10.83 10.69 0 6.152 4.758 10.973 10.83 10.973 6.076 0 10.834-4.82 10.834-10.973 0-5.996-4.758-10.69-10.834-10.69M239.308 289.998l-4.055 10.248c-.24.629-.506 1.415-.703 2.024-.206-.61-.48-1.398-.719-2.028l-4.055-10.244h-4.508l-1.714 20.978h4.398l.882-11.666c.023-.36.037-.752.043-1.132.153.44.316.88.47 1.245l3.346 8.07h3.698l3.376-8.07c.143-.35.297-.762.443-1.178.007.36.02.726.04 1.069l.882 11.662h4.372l-1.688-20.978h-4.508zM267.236 289.998l-4.055 10.248c-.24.629-.506 1.415-.702 2.024a62.45 62.45 0 0 0-.72-2.028l-4.055-10.244h-4.507l-1.715 20.978h4.398l.882-11.666c.02-.36.033-.752.04-1.132.157.44.32.88.473 1.245l3.346 8.07h3.699l3.375-8.07c.144-.35.297-.762.443-1.178.007.36.02.726.04 1.069l.882 11.662h4.372l-1.688-20.978h-4.508zM292.453 303.312c0 2.454-1.552 3.922-4.152 3.922-2.58 0-4.122-1.458-4.122-3.895v-13.34h-4.398v13.34c0 4.77 3.44 7.977 8.55 7.977 5.094 0 8.516-3.207 8.516-7.977v-13.34h-4.394v13.313zM316.753 302.057c0 .433.026.949.06 1.441-.29-.552-.63-1.158-.946-1.638l-7.784-11.862h-4.231v20.978h4.398v-12.032c0-.43-.027-.949-.057-1.442.293.556.626 1.159.942 1.638l7.784 11.836h4.202v-20.978h-4.368v12.059z" fill="#58585B"/><mask id="aid" fill="#fff"><use xlink:href="#aic"/></mask><path fill="#58585B" mask="url(#aid)" d="M328.409 310.974h4.395v-20.978h-4.395zM337.635 293.88h6.649v17.096h4.394V293.88h6.649v-3.882h-17.692zM371.607 289.998l-3.24 6.156a30.404 30.404 0 0 0-.948 2.028 27.15 27.15 0 0 0-.929-2.031l-3.272-6.153h-4.998l6.995 12.235v8.743h4.395v-8.743l6.994-12.235h-4.997z"/><path d="M212.568 336.36c3.942 0 5.992 1.981 5.992 1.981l-1.165 1.725s-1.844-1.608-4.637-1.608c-3.872 0-6.206 2.823-6.206 6.342 0 3.825 2.613 6.459 6.066 6.459 2.843 0 4.66-2.054 4.66-2.054v-2.374h-2.683v-2.008h4.781v8.277h-2.024v-1.026c0-.35.02-.699.02-.699h-.047s-1.794 2.005-5.06 2.005c-4.431 0-8.09-3.496-8.09-8.533 0-4.758 3.592-8.487 8.393-8.487M232.192 351.257c3.356 0 6.06-2.796 6.06-6.505 0-3.589-2.704-6.296-6.06-6.296-3.36 0-6.086 2.707-6.086 6.296 0 3.709 2.727 6.505 6.086 6.505m0-14.898c4.758 0 8.44 3.662 8.44 8.393 0 4.85-3.682 8.63-8.44 8.63-4.757 0-8.466-3.78-8.466-8.63 0-4.73 3.709-8.393 8.466-8.393M245.847 336.64h2.308v14.455h7.367v2.005h-9.675zM265.332 351.095c3.706 0 6.133-2.191 6.133-6.25 0-4.034-2.45-6.202-6.133-6.202h-2.983v12.452h2.983zm-5.297-14.456h5.46c5.037 0 8.347 3.01 8.347 8.207 0 5.223-3.31 8.256-8.347 8.256h-5.46V336.64zM286.042 351.842c0-5.88 8.07-6.718 8.07-10.587 0-1.631-1.235-2.726-2.962-2.726-2.168 0-3.333 2.097-3.333 2.097l-1.705-1.142s1.495-3.123 5.2-3.123c3.034 0 5.204 1.888 5.204 4.731 0 5.41-7.86 6.25-7.907 10.001h8.164v2.008h-10.614a8.59 8.59 0 0 1-.117-1.259M310.706 344.846c0-3.566-.765-6.366-3.472-6.366-2.684 0-3.453 2.8-3.453 6.366 0 3.592.77 6.412 3.453 6.412 2.707 0 3.472-2.82 3.472-6.412m-9.278 0c0-4.734 1.421-8.486 5.806-8.486 4.404 0 5.83 3.752 5.83 8.486 0 4.757-1.426 8.533-5.83 8.533-4.385 0-5.806-3.776-5.806-8.533M317.693 351.095h3.636v-10.63c0-.517.026-1.03.026-1.03h-.05s-.186.373-.792.956l-1.538 1.515-1.398-1.442 3.938-3.825h2.054v14.456h3.59v2.007h-9.466v-2.007zM338.066 340.135c.466-.93.955-1.515.955-1.515v-.047s-.373.07-1.212.07h-7.344v-2.004h11.003v1.585l-7.438 14.878h-2.377l6.413-12.967z" fill="#6C6E70" mask="url(#aid)"/></g></svg>