<?xml version="1.0" encoding="UTF-8"?><svg width="555" height="555" viewBox="0 0 555 555" xmlns="http://www.w3.org/2000/svg" xmlns:xlink="http://www.w3.org/1999/xlink"><title>2018 WELL / Gold</title><defs><path id="aqa" d="M0 .171h545.026V546H0z"/></defs><g transform="translate(5 4)" fill="none" fill-rule="evenodd"><path d="M251.381 314.148c0-8.15 11.348-9.311 11.348-14.676 0-2.263-1.739-3.785-4.166-3.785-3.05 0-4.688 2.91-4.688 2.91l-2.396-1.583s2.1-4.334 7.313-4.334c4.264 0 7.314 2.62 7.314 6.562 0 7.5-11.052 8.666-11.115 13.87h11.473v2.78h-14.92a11.272 11.272 0 0 1-.163-1.744M285.331 304.76c0-5.078-1.067-9.057-4.803-9.057-3.71 0-4.773 3.98-4.773 9.056 0 5.11 1.063 9.124 4.773 9.124 3.736 0 4.803-4.015 4.803-9.124m-12.834 0c0-6.738 1.966-12.079 8.03-12.079 6.093 0 8.059 5.341 8.059 12.08 0 6.77-1.966 12.142-8.058 12.142-6.065 0-8.03-5.373-8.03-12.143M293.775 313.065h4.961V298.07c0-.721.03-1.447.03-1.447h-.064s-.253.53-1.079 1.35l-2.098 2.137-1.912-2.04 5.376-5.39h2.8v20.385h4.896v2.828h-12.91v-2.828zM322.162 303.762c.364-.366 2.045-2.157 2.045-4.614 0-2.157-1.713-3.519-4.156-3.519-2.57 0-3.986 1.46-3.986 3.255 0 2.59 3.101 3.583 6.097 4.878m-4.317 1.126c-.759.535-2.8 2.125-2.8 4.649 0 2.685 2.307 4.413 4.778 4.413 2.437 0 4.615-1.595 4.615-4.016 0-2.523-3.461-3.515-6.593-5.046m-2.406-1.39c-1.517-1.098-2.604-2.523-2.604-4.68 0-3.118 2.339-6.138 7.25-6.138 4.322 0 7.321 2.421 7.321 6.271 0 3.122-2.472 5.772-2.769 6.106 1.78 1.094 3.164 2.555 3.164 4.976 0 3.65-3.132 6.869-7.978 6.869-4.65 0-8.11-2.92-8.11-7.168 0-3.583 3.097-5.807 3.726-6.236M4.022 216.117l.473-2.158 21.649 4.907-.474 2.158zM7.039 199.768l.602-1.963 18.49-6.114c1.271-.4 3.39-.872 3.39-.872l.017-.062s-1.804-.328-2.922-.65l-15.274-4.403.62-2.022 21.22 6.117-.602 1.964-18.493 6.117c-1.272.397-3.387.872-3.387.872l-.017.058s1.804.329 2.922.65l15.274 4.403-.62 2.022-21.22-6.117zM20.906 166.14l-3.031 7.08-1.787-.72 6.873-16.067 1.79.722-3.02 7.054 18.49 7.45-.825 1.93zM27.15 147.163l5.724-10.915 1.688.904-4.727 9.015 6.974 3.744 3.86-7.359 1.692.905-3.86 7.359 7.112 3.818 4.986-9.508 1.688.905-5.983 11.41zM53.025 124.094c1.437-2.183.947-4.508-1.303-6.005-1.481-.986-2.97-1.127-4.224-.445-.635.352-1.21.89-2.126 2.28l-2.4 3.649 7.231 4.811 2.822-4.29zm-12.804.196l3.515-5.345c1.217-1.849 1.94-2.553 2.72-3.066 1.858-1.204 4.244-1.094 6.415.351 2.428 1.618 3.381 4.246 2.606 6.65l.052.034s.346-.027 1.018.014l9.818.88-1.334 2.03-10.253-.948-2.99 4.55 7.56 5.035-1.165 1.773L40.22 124.29zM55.304 102.032l1.302-1.614 18.84 1.456c1.285.12 3.354.498 3.354.498l.037-.046s-1.476-1.015-2.345-1.754l-11.86-10.1 1.34-1.659 16.481 14.031-1.302 1.614-18.84-1.456c-1.285-.12-3.354-.5-3.354-.5l-.037.048s1.476 1.015 2.345 1.754l11.86 10.1-1.34 1.659-16.481-14.031zM82.771 76.163s.905 1.643 1.343 2.654l3.36 7.835 5.263-5.33-7.406-3.739c-.962-.484-2.516-1.463-2.516-1.463l-.044.043zm11.693 6.054L88.31 88.45l3.006 6.828-1.588 1.608-9.286-21.583 1.608-1.63 20.514 10.214-1.588 1.609-6.512-3.28zM99.685 59.24l-5.986 4.945-1.19-1.493 13.58-11.22 1.191 1.493-5.962 4.928 12.306 15.443-1.633 1.348zM114.63 45.628l1.747-1.221 12.33 17.954-1.744 1.221zM146.359 49.358c4.214-2.388 5.63-7.828 3.022-12.4-2.548-4.464-7.89-5.908-12.108-3.52-4.242 2.402-5.705 7.695-3.156 12.16 2.607 4.571 8 6.162 12.242 3.76M136.3 31.734c5.31-3.004 11.937-1.235 15 4.137 3.123 5.474 1.34 12.184-3.974 15.188-5.307 3.007-12.008 1.101-15.134-4.373-3.06-5.368-1.199-11.944 4.108-14.952M157.867 20.624l1.915-.792 16.337 9.964c1.106.699 2.798 1.982 2.798 1.982l.056-.024s-.867-1.56-1.315-2.596l-6.082-14.213 1.97-.816L182 33.875l-1.914.792-16.337-9.964c-1.106-.699-2.799-1.985-2.799-1.985l-.055.024s.867 1.559 1.31 2.6l6.087 14.21-1.97.818-8.455-19.746zM194.078 9.611s.07 1.887.01 2.99l-.501 8.55 7.01-2.198-4.887-6.86c-.633-.888-1.575-2.5-1.575-2.5l-.057.018zm7.654 10.961l-8.203 2.568-.366 7.487-2.113.66 1.348-23.552 2.144-.67 13.602 18.868-2.114.663-4.298-6.024zM213.171 2.45l2.066-.432 3.882 19.852 9.764-2.044.377 1.92-11.83 2.476zM237.71 495.551s-.622 1.754-1.203 3.05l-6.471 14.257-2.55-.385-2.248-21.981 2.209.333 1.583 17.048c.108 1.124.136 2.33.136 2.33l.062.01c.032.003.37-1.145.85-2.183l7.139-15.724 2.028.307 1.952 17.102c.136 1.13.105 2.326.136 2.33l.06.01s.4-1.141.848-2.18l6.927-15.76 2.213.336-9.088 20.262-2.55-.384-1.764-15.506c-.153-1.41-.205-3.262-.205-3.262l-.063-.01zM261.016 494.529l12.455.324-.053 1.929-10.283-.268-.214 7.96 8.398.22-.052 1.929-8.396-.22-.218 8.118 10.85.282-.05 1.929-13.022-.338zM283.558 494.69l2.174-.161 1.491 20.099 10.267-.753.145 1.942-12.44.915zM305.68 492.877l2.154-.367 3.433 19.907 10.168-1.74.333 1.927-12.322 2.11zM353.785 500.307c2.502-.858 3.518-2.93 2.656-5.365-.862-2.431-3.107-3.448-5.522-2.62l-5.271 1.81 2.838 7.996 5.299-1.82zm-3.718-9.644c2.091-.718 2.992-2.651 2.241-4.764-.74-2.088-2.559-3.022-4.765-2.263l-5.005 1.717 2.496 7.041 5.033-1.731zm-10.2-6.409l7.069-2.425c3.267-1.123 6.28.02 7.41 3.208.751 2.112.266 4.001-1.047 5.33l.021.059c2.325-.148 4.388 1.384 5.26 3.847 1.285 3.623-.715 6.649-4.188 7.84l-7.302 2.508-7.223-20.367zM361.989 476.472l1.954-.933 6.19 12.553c1.638 3.322 4.804 4.29 8.178 2.677 3.377-1.617 4.592-4.673 2.926-8.053l-6.161-12.499 1.923-.92 6.203 12.582c2.114 4.286.44 8.514-3.996 10.633-4.464 2.136-8.9.827-11.014-3.46l-6.203-12.58zM387.127 463.364l1.823-1.131 11.249 19.054-1.823 1.13zM399.193 455.424l1.694-1.265 11.325 16.333 8.006-5.976 1.097 1.581-9.703 7.238zM434.904 453.176c4.037-3.612 4.571-8.374.62-12.726-3.935-4.33-8.787-4.27-12.799-.68l-3.523 3.154 12.18 13.406 3.522-3.154zm-18.617-10.248l5.295-4.739c4.923-4.403 10.95-4.382 15.618.758 4.715 5.185 4.093 11.113-.83 15.516l-5.295 4.742-14.788-16.277zM436.398 423.423l1.413-1.56 15.68 14.585-1.41 1.563zM445.448 413.516l1.23-1.691 18.877.58c1.288.06 3.37.347 3.37.347l.037-.05s-1.52-.955-2.42-1.66l-12.291-9.64 1.264-1.742 17.082 13.393-1.23 1.692-18.878-.58c-1.29-.061-3.372-.344-3.372-.344l-.034.05s1.516.952 2.415 1.656l12.295 9.641-1.267 1.741-17.078-13.393zM466.026 380.913c2.506-4.39 6.06-5.475 6.06-5.475l.834 1.797s-3.154 1.131-5.121 4.58c-2.615 4.579-.849 9.686 3.657 12.25 4.67 2.657 9.953 1.415 12.415-2.89 2.107-3.692.619-7.536.619-7.536l-3.21-1.824-1.845 3.23-1.672-.951 2.86-5.01 9.068 5.159-.988 1.724-1.429-.815c-.403-.229-.792-.486-.792-.486l-.032.052s1.318 3.64-.96 7.626c-2.954 5.169-9.476 6.883-15.115 3.674-5.48-3.116-7.457-9.666-4.35-15.105M480.64 351.285l.753-2.087 20.364 8.005-.752 2.087zM485.669 338.398l.54-2.006 17.8-6.619c1.228-.43 3.269-.959 3.269-.959l.017-.06s-1.76-.295-2.848-.597l-14.915-4.14.558-2.069 20.717 5.754-.54 2.005-17.801 6.62c-1.228.43-3.269.959-3.269.959l-.014.059s1.758.295 2.845.598l14.915 4.14-.554 2.069-20.72-5.754zM509.548 312.41s2.67-1.813 3.193-5.107c.363-2.288-.732-4.371-3.029-4.725-5.346-.817-5.64 9.816-12.225 8.806-3.05-.467-5.291-3.516-4.679-7.379.575-3.624 2.94-5.27 2.94-5.27l1.592 1.28s-2.105 1.564-2.536 4.296c-.425 2.672 1.085 4.667 2.957 4.957 5.045.77 5.246-9.876 12.225-8.806 3.172.484 5.36 3.284 4.737 7.204-.675 4.277-3.765 6.208-3.765 6.208l-1.41-1.463zM497.03 283.708l-.407 7.963-1.905-.102.92-18.064 1.904.102-.403 7.928 19.7 1.055-.11 2.172zM495.794 263.88l-.07-1.866 22.051-.62.07 1.865zM496.83 246.195l.932 7.909-1.938.225-2.111-17.937 1.935-.23.929 7.877 20.01-2.36.253 2.156zM491.572 228.089l-.507-2.16 13.997-3.33c3.706-.879 5.38-3.815 4.502-7.545-.877-3.73-3.681-5.635-7.45-4.738l-13.938 3.316-.496-2.128 14.028-3.336c4.777-1.139 8.66 1.485 9.808 6.39 1.159 4.932-1.138 9.06-5.915 10.194l-14.029 3.337zM484.875 194.936l2.69 7.278-1.827.644-6.103-16.514 1.828-.643 2.679 7.25 18.893-6.651.733 1.985zM475.956 178.636l-5.37-11.144 1.743-.843 4.434 9.203 7.197-3.475-3.62-7.515 1.744-.84 3.62 7.512 7.34-3.542-4.678-9.707 1.743-.843 5.615 11.651z" fill="#58585B"/><path d="M209.958 509.667l5.224-20.195C116.685 463.695 47.895 374.104 47.895 271.593c0-9.616.609-19.29 1.808-28.76l-20.58-2.633a250.551 250.551 0 0 0-1.974 31.393c0 112.005 75.173 209.904 182.809 238.074M272.603 46.108c80.534 0 155.256 43.821 195.004 114.362l18.062-10.29C442.242 73.11 360.6 25.232 272.603 25.232c-11.827 0-23.701.856-35.3 2.544l2.976 20.661a225.69 225.69 0 0 1 32.324-2.328" fill="#D1BC70"/><path d="M489.69 271.377c0-52.674-18.942-103.53-53.337-143.203l-15.655 13.706c31.1 35.87 48.23 81.86 48.23 129.497 0 108.759-88.064 197.243-196.31 197.243-29.646 0-58.133-6.474-84.668-19.239l-8.967 18.818c29.356 14.12 60.86 21.283 93.635 21.283 119.693 0 217.073-97.84 217.073-218.105" fill="#D1BC70"/><path d="M272.09 440.375c-44.76 0-86.918-17.412-118.712-49.026l-14.616 14.806c35.706 35.513 83.057 55.069 133.327 55.069 104.462 0 189.447-85.303 189.447-190.15 0-60.28-27.55-115.679-75.58-151.983l-12.497 16.654c42.775 32.333 67.306 81.657 67.306 135.329 0 93.356-75.67 169.301-168.676 169.301" fill="#D1BC70"/><path d="M272.13 433.974c28 0 55.593-7.32 79.804-21.17L341.67 394.58c-21.085 12.062-45.133 18.44-69.54 18.44-49.634 0-96.195-26.776-121.51-69.879l-17.89 10.676c29.04 49.441 82.454 80.156 139.4 80.156M422.331 333.05c7.999-19.54 12.056-40.237 12.056-61.52 0-30.436-8.469-60.116-24.497-85.83l-17.735 11.037c13.96 22.401 21.339 48.261 21.339 74.792 0 18.556-3.531 36.597-10.503 53.619l19.34 7.902z" fill="#D1BC70"/><mask id="aqb" fill="#fff"><use xlink:href="#aqa"/></mask><path d="M303.907.171l-2.375 20.731c126.975 14.666 222.722 122.69 222.722 251.282 0 139.477-112.96 252.95-251.81 252.95-65.828 0-128.093-25.352-175.326-71.386-47.132-45.93-74.25-107.468-76.355-173.277L0 281.142c2.281 71.245 31.633 137.864 82.653 187.584 51.131 49.832 118.534 77.275 189.79 77.275 150.302 0 272.582-122.836 272.582-273.817 0-139.199-103.658-256.137-241.119-272.013" fill="#D1BC70" mask="url(#aqb)"/><path d="M136.733 185.7l16.658 62.94a93.327 93.327 0 0 1 1.81 9.116h.242s.362-4.499 1.57-9.116l15.691-62.94h12.313l-22.332 85.786h-13.881l-14.726-55.652c-1.449-5.468-2.535-12.15-2.535-12.15h-.242s-1.086 6.682-2.535 12.15l-14.726 55.652h-13.882l-21.727-85.785h12.312l15.089 62.939c1.086 4.617 1.569 9.116 1.569 9.116h.241s.604-4.377 1.811-9.116l16.658-62.94h10.622zM201.105 185.7h49.24v10.45h-37.35v26.852h30.384v10.45h-30.384v27.581h39.392v10.453h-51.282zM270.486 185.7h11.994v75.333h38.282v10.453h-50.276zM334.84 185.7h11.993v75.333h38.283v10.453H334.84zM141.927 292.68c5.732 0 8.719 2.819 8.719 2.819l-1.697 2.455s-2.678-2.29-6.752-2.29c-5.63 0-9.028 4.018-9.028 9.028 0 5.441 3.804 9.19 8.824 9.19 4.137 0 6.788-2.919 6.788-2.919v-3.384h-3.902v-2.856h6.955v11.781h-2.955v-1.46c0-.498.035-.995.035-.995h-.067s-2.611 2.853-7.362 2.853c-6.447 0-11.772-4.975-11.772-12.145 0-6.769 5.223-12.077 12.214-12.077M170.956 313.884c4.795 0 8.655-3.981 8.655-9.26 0-5.109-3.86-8.96-8.655-8.96-4.791 0-8.688 3.851-8.688 8.96 0 5.279 3.897 9.26 8.688 9.26m0-21.204c6.79 0 12.05 5.21 12.05 11.945 0 6.903-5.26 12.277-12.05 12.277-6.79 0-12.083-5.374-12.083-12.277 0-6.736 5.294-11.945 12.083-11.945M191.05 292.68h3.357v21.272h10.72v2.95H191.05zM219.878 313.95c5.399 0 8.934-3.227 8.934-9.193 0-5.934-3.567-9.124-8.934-9.124h-4.35v18.316h4.35zm-7.712-21.27h7.95c7.337 0 12.16 4.424 12.16 12.077 0 7.686-4.823 12.145-12.16 12.145h-7.95V292.68z" fill="#58585B"/><path fill="#59595B" d="M503.055 51.798h-5.32v-1.336H509.8v1.336h-5.299V65.6h-1.447zM512.949 50.462h1.46l3.732 8.894c.324.776.69 1.853.69 1.853h.04s.386-1.077.71-1.853l3.731-8.894h1.441l1.137 15.139h-1.4l-.789-10.593c-.064-.819-.044-2.111-.044-2.111h-.04s-.427 1.335-.748 2.111l-3.348 7.77h-1.316l-3.352-7.77c-.321-.754-.768-2.154-.768-2.154h-.04s.02 1.335-.041 2.154l-.792 10.593h-1.4l1.137-15.139z"/></g></svg>