<?xml version="1.0" encoding="UTF-8"?><svg width="555" height="555" viewBox="0 0 555 555" xmlns="http://www.w3.org/2000/svg" xmlns:xlink="http://www.w3.org/1999/xlink"><title>2017 WELL Community Seal / Platinium (Silver color)</title><defs><path id="ana" d="M.001.506h544.493V545H0z"/><path id="anc" d="M0 543.981h545V0H0z"/></defs><g transform="translate(5 7)" fill="none" fill-rule="evenodd"><mask id="anb" fill="#fff"><use xlink:href="#ana"/></mask><path d="M544.495 272.752C544.495 122.394 422.607.506 272.248.506 121.89.506.001 122.394.001 272.752.001 423.111 121.89 545 272.248 545c150.359 0 272.247-121.888 272.247-272.247" fill="#E5E6E7" mask="url(#anb)"/><path d="M271.483 47.716c-123.946 0-224.786 100.84-224.786 224.784 0 123.945 100.84 224.784 224.786 224.784S496.269 396.444 496.269 272.5c0-123.945-100.84-224.784-224.786-224.784m0 467.742c-133.97 0-242.96-108.99-242.96-242.958 0-133.969 108.99-242.958 242.96-242.958 133.97 0 242.956 108.99 242.956 242.958 0 133.969-108.986 242.958-242.956 242.958M490.856 58.305h-4.94v-1.258h11.205v1.258h-4.92v13.003h-1.345zM500.31 57.047h1.48l3.78 8.379c.33.73.7 1.745.7 1.745h.04s.39-1.015.72-1.745l3.78-8.38h1.46l1.15 14.262h-1.418l-.798-9.979c-.066-.771-.045-1.989-.045-1.989h-.041s-.432 1.259-.757 1.99l-3.393 7.32h-1.333l-3.396-7.32c-.325-.711-.777-2.03-.777-2.03h-.042s.021 1.258-.04 2.03l-.802 9.978h-1.42l1.152-14.261z" fill="#C6C7C9"/><path d="M469.617 358.979l-16.808-7.53c-36.783 82.803-124.753 130.215-213.927 115.291a200.253 200.253 0 0 1-24.757-5.777l-5.293 17.705a219.765 219.765 0 0 0 27.025 6.305c97.436 16.306 193.562-35.504 233.76-125.994" fill="#C6C7C9"/><path d="M397.893 343.3c-14.743 25.443-37.113 46.746-65.73 59.923-35.525 16.36-75.306 17.948-112.008 4.47l-6.23 17.098c41.221 15.143 85.901 13.358 125.802-5.016 32.163-14.81 57.304-38.765 73.862-67.37l-15.696-9.106zM59.084 226.182l17.974 4.042c19.762-88.511 96.72-152.492 187.158-155.589 8.48-.29 17.036-.04 25.426.742l1.704-18.41a219.658 219.658 0 0 0-27.759-.812c-98.814 3.384-182.908 73.3-204.503 170.027M371.233 99.96c61.953 35.808 99.99 102.434 99.27 173.879l18.458.189c.787-78.063-40.773-150.858-108.466-189.984a220.218 220.218 0 0 0-28.28-13.754l-6.879 17.072a202.112 202.112 0 0 1 25.897 12.597" fill="#C6C7C9"/><path d="M451.141 211.888l-17.552 5.658c12.921 39.973 10.912 83.284-5.654 121.953-3.012 7.03-6.477 13.722-10.271 20.135l16.012 9.132c4.138-7.019 7.92-14.337 11.211-22.021 18.322-42.756 20.54-90.65 6.254-134.857M369.473 412.437c-57.666 38.681-135.637 40.708-196.251-.919-9.268-6.366-17.74-13.53-25.473-21.36l-13.282 12.721c8.585 8.716 18 16.681 28.302 23.758 67.093 46.08 153.416 43.784 217.203.886l-10.5-15.086zM96.286 341.262l17.036-6.639c-14.975-39.266-15.38-82.698-1.138-122.301 2.589-7.199 5.646-14.087 9.04-20.715l-16.33-8.243c-3.7 7.252-7.038 14.784-9.865 22.653-15.75 43.791-15.304 91.82 1.257 135.245M165.258 137.392C220.334 94.837 298 87.835 361.128 125.826c9.651 5.808 18.56 12.468 26.774 19.847l12.444-13.635c-9.122-8.21-19.02-15.623-29.75-22.08-69.873-42.05-155.86-34.247-216.774 12.937l11.436 14.497z" fill="#C6C7C9"/><path d="M117.15 223.515l17.18 5.69c14.65-44.357 48.366-78.371 92.504-93.316 32.521-11.01 66.247-9.892 96.31.858l5.893-17.122c-33.722-12.016-71.536-13.252-108-.905-49.572 16.788-87.437 54.984-103.887 104.795" fill="#C6C7C9"/><path d="M206.723 213.925l11.622 43.353c.843 3.262 1.263 6.276 1.263 6.276h.17s.253-3.097 1.093-6.276l10.948-43.353h8.592l-15.58 59.084h-9.686l-10.275-38.328c-1.01-3.766-1.77-8.37-1.77-8.37h-.166s-.76 4.604-1.77 8.37l-10.275 38.328h-9.685l-15.157-59.084h8.588l10.529 43.353a57.787 57.787 0 0 1 1.093 6.276h.17s.42-3.014 1.263-6.276l11.621-43.353h7.412zM250.598 213.925h34.237v7.197h-25.97v18.497h21.126v7.197h-21.125v18.997h27.386v7.196h-35.654zM299.495 213.925h8.264v51.888h26.372v7.196h-34.636zM344.318 213.925h8.263v51.888h26.372v7.196h-34.635zM190.88 302.21c-.024.023-2.324 2.42-5.649 2.42-4.268 0-6.498-3.423-6.498-6.802 0-3.844 2.662-6.523 6.472-6.523 3.053 0 5.3 1.996 5.323 2.019l.311.282 2.167-3.284-.188-.2c-.11-.116-2.722-2.851-7.787-2.851-6.178 0-10.835 4.563-10.835 10.612 0 6.247 4.58 10.78 10.895 10.78 5.296 0 8.16-3.228 8.276-3.366l.184-.21-2.377-3.193-.294.316zM213.542 297.828c0 3.879-2.683 6.802-6.24 6.802-3.557 0-6.24-2.923-6.24-6.802 0-3.722 2.683-6.523 6.24-6.523 3.501 0 6.24 2.863 6.24 6.523m-6.24-10.557c-5.997 0-10.695 4.636-10.695 10.557 0 6.075 4.698 10.836 10.695 10.836 6 0 10.698-4.76 10.698-10.836 0-5.921-4.698-10.557-10.698-10.557M239.466 287.271l-3.952 10.45a46.888 46.888 0 0 0-.684 2.064 65.675 65.675 0 0 0-.701-2.067l-3.952-10.447h-4.394l-1.67 21.393h4.285l.86-11.897c.023-.367.036-.767.042-1.154.15.448.309.896.458 1.27l3.26 8.23h3.606l3.29-8.23c.14-.357.289-.778.432-1.202.006.366.019.74.038 1.09l.86 11.893h4.26l-1.644-21.393h-4.394zM266.97 287.271l-3.951 10.45a46.89 46.89 0 0 0-.685 2.064 65.678 65.678 0 0 0-.7-2.067l-3.953-10.447h-4.393l-1.671 21.393h4.286l.86-11.897c.02-.367.032-.767.039-1.154.152.448.311.896.46 1.27l3.262 8.23h3.605l3.29-8.23c.14-.357.288-.778.431-1.202.007.366.02.74.04 1.09l.859 11.893h4.26l-1.645-21.393h-4.393zM294.017 300.632c0 2.462-1.574 3.935-4.213 3.935-2.618 0-4.182-1.463-4.182-3.909v-13.387h-4.463v13.387c0 4.788 3.49 8.006 8.676 8.006 5.169 0 8.642-3.218 8.642-8.006v-13.387h-4.46v13.36zM317.526 299.568c0 .441.027.968.06 1.47a20.465 20.465 0 0 0-.948-1.67l-7.806-12.097h-4.243v21.393h4.41v-12.27c0-.438-.027-.968-.057-1.47.294.567.628 1.181.945 1.67l7.806 12.07h4.214V287.27h-4.38v12.297z" fill="#6C6E70"/><mask id="and" fill="#fff"><use xlink:href="#anc"/></mask><path fill="#6C6E70" mask="url(#and)" d="M329.037 308.664h4.075V287.27h-4.075zM338.206 291.23h6.508v17.434h4.301V291.23h6.508v-3.959h-17.317zM371.932 287.271l-3.231 6.278a31.332 31.332 0 0 0-.947 2.067 27.99 27.99 0 0 0-.926-2.07l-3.264-6.275h-4.985l6.977 12.477v8.916h4.383v-8.916l6.977-12.477h-4.984z"/><path d="M182.902 342.417c1.986 0 3.2-1.223 3.2-3.184 0-1.964-1.214-3.118-3.177-3.118h-3.36v6.302h3.337zm-5.65-8.286h6.023c3.013 0 5.183 2.01 5.183 5.102 0 3.095-2.17 5.172-5.183 5.172h-3.71v6.025h-2.313v-16.3zM193.551 334.13h2.19v14.315h6.979v1.985h-9.169zM212.885 336.369s-.373 1.477-.652 2.31l-1.843 5.172h4.987l-1.817-5.172c-.28-.833-.629-2.31-.629-2.31h-.046zm3.1 9.374h-6.2l-1.63 4.687h-2.38l5.922-16.3h2.422l5.918 16.3h-2.398l-1.654-4.687zM226.55 336.115h-5.494v-1.984H234.3v1.984h-5.5v14.315h-2.249zM238.374 350.43h2.037v-16.3h-2.037zM247.542 334.13h2.296l7.36 10.6c.608.873 1.382 2.354 1.382 2.354h.05s-.164-1.457-.164-2.354v-10.6h2.319v16.3h-2.276l-7.383-10.576c-.609-.897-1.382-2.374-1.382-2.374h-.047s.164 1.45.164 2.374v10.576h-2.319v-16.3zM266.897 334.13h2.357v10.351c0 2.454 1.67 3.884 4.237 3.884 2.599 0 4.289-1.43 4.289-3.926v-10.308h2.36v10.35c0 3.566-2.69 5.949-6.621 5.949-3.932 0-6.622-2.383-6.622-5.949v-10.35zM287.546 334.13h2.36l3.676 8.82c.366.9.794 2.195.794 2.195h.049s.43-1.295.794-2.195l3.676-8.82h2.36l1.296 16.3h-2.227l-.794-10.273c-.065-.995-.023-2.4-.023-2.4h-.042s-.48 1.5-.865 2.4l-3.2 7.342h-1.997l-3.18-7.342c-.363-.877-.862-2.45-.862-2.45h-.045s.022 1.455-.046 2.45l-.771 10.273h-2.247l1.294-16.3zM315.794 349.205c0-5.725 7.662-6.542 7.662-10.309 0-1.588-1.173-2.655-2.813-2.655-2.058 0-3.164 2.042-3.164 2.042l-1.618-1.111s1.419-3.041 4.937-3.041c2.88 0 4.94 1.838 4.94 4.606 0 5.268-7.462 6.085-7.507 9.738h7.75v1.955h-10.076a8.573 8.573 0 0 1-.11-1.225M340.01 342.766c0-3.628-.737-6.477-3.344-6.477-2.584 0-3.324 2.849-3.324 6.477 0 3.655.74 6.525 3.324 6.525 2.607 0 3.344-2.87 3.344-6.525m-8.935 0c0-4.817 1.369-8.635 5.591-8.635 4.242 0 5.614 3.818 5.614 8.635 0 4.841-1.372 8.683-5.614 8.683-4.222 0-5.591-3.842-5.591-8.683M346.467 348.442h3.478v-10.524c0-.51.026-1.018.026-1.018h-.048s-.178.369-.758.946l-1.472 1.5-1.338-1.428 3.769-3.787h1.965v14.311h3.434v1.988h-9.056v-1.988zM367.339 337.592c.474-.92.973-1.5.973-1.5v-.046s-.38.07-1.234.07h-7.48v-1.985h11.206v1.569l-7.575 14.73h-2.42l6.53-12.838z" fill="#808184" mask="url(#and)"/><path fill="#59595B" mask="url(#and)" d="M490.856 58.305h-4.94v-1.258h11.205v1.258h-4.92v13.003h-1.345zM500.31 57.047h1.48l3.78 8.379c.33.73.7 1.745.7 1.745h.04s.39-1.015.72-1.745l3.78-8.38h1.46l1.15 14.262h-1.418l-.798-9.979c-.066-.771-.045-1.989-.045-1.989h-.041s-.432 1.259-.757 1.99l-3.393 7.32h-1.333l-3.396-7.32c-.325-.711-.777-2.03-.777-2.03h-.042s.021 1.258-.04 2.03l-.802 9.978h-1.42l1.152-14.261z"/></g></svg>