<?xml version="1.0" encoding="UTF-8"?><svg width="546" height="543" viewBox="0 0 546 543" xmlns="http://www.w3.org/2000/svg" xmlns:xlink="http://www.w3.org/1999/xlink"><title>2016 WELL / Silver</title><defs><path id="aaa" d="M0 542.34h543.992V0H0z"/></defs><g fill="none" fill-rule="evenodd"><path d="M121.298 306.745s2.871 2.91 6.897 2.91c2.526 0 4.672-1.418 4.672-3.982 0-5.864-13.1-4.6-13.1-12.914 0-4.212 3.642-7.547 8.736-7.547 5.017 0 7.661 2.723 7.661 2.723l-1.724 3.138s-2.492-2.333-5.937-2.333c-2.872 0-4.904 1.797-4.904 3.943 0 5.592 13.1 4.099 13.1 12.873 0 4.174-3.217 7.623-8.58 7.623-5.747 0-8.964-3.563-8.964-3.563l2.143-2.871z" fill="#58585B"/><mask id="aab" fill="#fff"><use xlink:href="#aaa"/></mask><path fill="#58585B" mask="url(#aab)" d="M142.15 312.72h3.794v-27.045h-3.794zM153.306 285.675h3.795v23.751h12.105v3.293h-15.9zM168.139 285.675h4.098l6.704 19.114c.498 1.454 1.037 3.714 1.037 3.714h.072s.54-2.26 1.034-3.714l6.787-19.114h4.019l-9.956 27.044h-3.798l-9.997-27.044zM195.81 285.675h15.706v3.293h-11.912v8.467h9.69v3.293h-9.69v8.698h12.565v3.293H195.81zM227.005 298.66c2.95 0 4.79-1.877 4.79-4.904 0-1.994-.768-3.411-2.147-4.175-.725-.383-1.61-.612-3.715-.612h-4.364v9.69h5.436zm-9.23-12.984h8.276c2.83 0 4.019.228 5.052.612 2.761 1.033 4.562 3.753 4.562 7.312 0 3.449-1.918 6.365-4.866 7.32v.079s.304.342.805 1.227l5.747 10.494h-4.292l-5.709-10.767h-5.781v10.767h-3.794v-27.044zM250.62 310.652c0-9.652 13.256-11.034 13.256-17.393 0-2.682-2.032-4.482-4.866-4.482-3.563 0-5.474 3.449-5.474 3.449l-2.799-1.88s2.45-5.135 8.543-5.135c4.98 0 8.545 3.106 8.545 7.778 0 8.889-12.913 10.27-12.99 16.436h13.409v3.293h-17.431c-.114-.73-.193-1.417-.193-2.066M288.098 299.16c0-5.864-1.265-10.464-5.702-10.464-4.41 0-5.674 4.6-5.674 10.464 0 5.895 1.265 10.533 5.674 10.533 4.437 0 5.702-4.638 5.702-10.533m-15.243 0c0-7.775 2.332-13.947 9.541-13.947 7.236 0 9.572 6.172 9.572 13.947 0 7.813-2.336 14.02-9.572 14.02-7.209 0-9.541-6.207-9.541-14.02M296.544 309.425h5.975v-17.472c0-.84.038-1.682.038-1.682h-.076s-.308.611-1.307 1.572l-2.526 2.488-2.298-2.378 6.473-6.279h3.372v23.751h5.903v3.294h-15.554v-3.294zM330.457 304.138c0-3.293-2.112-5.709-5.553-5.709-3.066 0-5.52 1.839-5.52 3.795 0 3.525 2.64 7.468 6.09 7.468 3.106 0 4.983-2.413 4.983-5.554m-15.057-3.715c0-6.935 3.795-15.212 12.185-15.212 3.176 0 5.242 1.113 5.242 1.113l-1.223 3.259s-1.724-.885-3.87-.885c-4.98 0-7.544 4.6-8.118 9.082h.073c1.154-1.535 3.604-2.568 5.978-2.568 5.132 0 8.543 3.905 8.543 8.926 0 5.325-3.643 9.04-8.695 9.04-5.788 0-10.115-5.052-10.115-12.755M1.95 214.207l.464-2.08 21.187 4.73-.463 2.08zM5.422 198.85l.588-1.983 18.132-6.175c1.247-.405 3.324-.882 3.324-.882l.017-.062s-1.769-.332-2.864-.656l-14.977-4.448.608-2.042 20.807 6.179-.591 1.983-18.132 6.179c-1.248.4-3.321.881-3.321.881l-.017.059s1.769.332 2.864.656l14.977 4.448-.608 2.042-20.807-6.179zM18.765 165.485l-2.996 7.212-1.765-.732 6.793-16.366 1.77.736-2.986 7.184 18.277 7.589-.815 1.966zM25.663 145.63l5.73-10.799 1.69.895-4.732 8.92 6.98 3.704 3.864-7.281 1.693.895-3.863 7.281 7.119 3.777 4.99-9.406 1.69.895-5.99 11.29zM51.032 123.292c1.448-2.187.954-4.516-1.313-6.016-1.493-.988-2.992-1.13-4.257-.446-.64.353-1.22.892-2.143 2.284l-2.419 3.657 7.288 4.82 2.844-4.299zm-12.903.197l3.542-5.356c1.227-1.852 1.956-2.557 2.74-3.072 1.873-1.206 4.278-1.096 6.466.352 2.446 1.621 3.407 4.254 2.626 6.663l.052.034s.349-.027 1.026.014l9.894.882-1.344 2.035-10.333-.95-3.013 4.558 7.62 5.042-1.175 1.78-18.101-11.982zM53.761 101.069l1.32-1.593 19.103 1.437c1.303.118 3.4.49 3.4.49l.039-.044s-1.497-1.002-2.378-1.731l-12.026-9.97 1.358-1.638 16.712 13.85-1.32 1.594-19.103-1.438c-1.303-.118-3.4-.494-3.4-.494l-.039.048s1.497 1.002 2.378 1.731l12.026 9.97-1.358 1.638-16.712-13.85zM80.415 74.845s.919 1.607 1.365 2.595l3.414 7.662 5.35-5.211-7.527-3.657c-.978-.473-2.557-1.43-2.557-1.43l-.045.041zm11.884 5.92l-6.255 6.096 3.055 6.676-1.614 1.572-9.437-21.104 1.634-1.593L100.53 82.4l-1.613 1.573-6.618-3.207zM97.828 58.838l-6.065 4.92-1.206-1.485 13.76-11.166 1.206 1.486-6.04 4.904 12.468 15.367-1.655 1.341zM113.118 44.867l1.752-1.213 12.364 17.835-1.748 1.213zM144.723 48.648c4.24-2.413 5.664-7.907 3.041-12.524-2.564-4.51-7.938-5.968-12.181-3.556-4.268 2.426-5.74 7.772-3.176 12.282 2.623 4.617 8.048 6.223 12.316 3.798m-10.118-17.8c5.342-3.035 12.008-1.248 15.09 4.177 3.142 5.53 1.349 12.302-3.997 15.34-5.34 3.038-12.081 1.113-15.226-4.416-3.08-5.422-1.206-12.064 4.133-15.102M156.084 20.125l1.908-.802 16.28 10.094c1.102.708 2.788 2.008 2.788 2.008l.055-.024s-.863-1.576-1.31-2.63l-6.06-14.4 1.962-.826 8.425 20.005-1.907.802-16.28-10.094c-1.102-.709-2.789-2.012-2.789-2.012l-.055.025s.864 1.579 1.306 2.633l6.065 14.396-1.963.83-8.425-20.005zM191.84 9.173s.073 1.849.01 2.93l-.51 8.377 7.153-2.153-4.987-6.721c-.646-.871-1.607-2.45-1.607-2.45l-.058.017zm7.81 10.74l-8.37 2.516-.372 7.336-2.157.647 1.376-23.078 2.187-.656 13.878 18.488-2.156.65-4.386-5.903zM210.917 1.831l2.087-.421 3.922 19.396 9.867-1.997.38 1.876-11.954 2.42zM235.737 492.452s-.619 1.78-1.196 3.096l-6.427 14.469-2.533-.39-2.233-22.31 2.195.338 1.572 17.303c.107 1.14.135 2.363.135 2.363l.062.01c.031.004.366-1.16.843-2.214l7.091-15.959 2.015.311 1.938 17.358c.135 1.148.104 2.36.135 2.364l.059.01s.397-1.157.843-2.211l6.88-15.997 2.198.342-9.026 20.565-2.533-.39-1.752-15.738c-.152-1.43-.204-3.31-.204-3.31l-.062-.01zM258.74 491.711l12.223.322-.052 1.914-10.09-.266-.212 7.9 8.242.218-.052 1.914-8.238-.218-.214 8.056 10.647.28-.049 1.914-12.779-.335zM281.687 491.689l2.125-.16 1.458 19.74 10.039-.74.142 1.908-12.164.898zM302.93 489.556l2.101-.359 3.349 19.5 9.918-1.703.324 1.887-12.018 2.066zM351.028 497.801c2.478-.864 3.483-2.947 2.63-5.397-.854-2.447-3.076-3.47-5.467-2.637l-5.218 1.821 2.81 8.045 5.245-1.832zm-3.68-9.703c2.07-.723 2.961-2.668 2.218-4.793-.732-2.101-2.533-3.041-4.717-2.278l-4.955 1.728 2.47 7.084 4.984-1.741zm-10.098-6.449l6.998-2.44c3.234-1.13 6.217.021 7.336 3.228.743 2.126.263 4.026-1.036 5.364l.02.058c2.302-.148 4.344 1.393 5.208 3.87 1.272 3.646-.708 6.69-4.147 7.89l-7.23 2.523-7.149-20.493zM359.951 473.143l1.946-.943 6.161 12.693c1.631 3.359 4.783 4.336 8.142 2.705 3.362-1.634 4.572-4.724 2.913-8.141l-6.134-12.638 1.915-.93 6.175 12.721c2.104 4.334.439 8.608-3.978 10.75-4.444 2.16-8.86.837-10.964-3.496l-6.176-12.72zM384.767 460.14l1.82-1.103 11.242 18.568-1.821 1.102zM396.524 452.653l1.728-1.244 11.556 16.065 8.169-5.878 1.12 1.555-9.901 7.119zM431.802 450.033c3.967-3.577 4.492-8.294.608-12.603-3.867-4.289-8.636-4.23-12.579-.674l-3.462 3.124 11.97 13.277 3.463-3.124zm-18.298-10.15l5.204-4.693c4.838-4.36 10.761-4.34 15.35.75 4.635 5.135 4.023 11.007-.815 15.368l-5.204 4.696-14.535-16.12zM433.845 420.338l1.441-1.57 15.99 14.674-1.438 1.572zM443.02 410.032l1.248-1.652 19.148.567c1.306.059 3.417.339 3.417.339l.038-.049s-1.54-.933-2.453-1.62l-12.468-9.414 1.282-1.7 17.327 13.076-1.248 1.652-19.148-.566c-1.31-.06-3.421-.34-3.421-.34l-.035.053s1.538.93 2.45 1.617l12.472 9.413-1.285 1.7-17.324-13.076zM463.883 378.565c2.491-4.372 6.023-5.453 6.023-5.453l.83 1.79s-3.135 1.126-5.091 4.561c-2.599 4.562-.843 9.648 3.635 12.202 4.641 2.647 9.894 1.41 12.34-2.878 2.095-3.677.616-7.506.616-7.506l-3.19-1.818-1.835 3.217-1.662-.947 2.844-4.99 9.013 5.14-.982 1.717-1.42-.813c-.401-.228-.788-.483-.788-.483l-.031.052s1.31 3.625-.954 7.595c-2.937 5.15-9.42 6.856-15.025 3.66-5.446-3.104-7.413-9.628-4.323-15.046M478.328 348.681l.75-1.994 20.313 7.648-.75 1.994zM483.002 335.685l.546-1.994 17.99-6.58c1.241-.428 3.304-.954 3.304-.954l.018-.058s-1.78-.294-2.879-.595l-15.074-4.116.564-2.056 20.938 5.72-.546 1.993-17.99 6.58c-1.241.429-3.304.954-3.304.954l-.018.059s1.78.293 2.879.594l15.074 4.116-.56 2.056-20.942-5.72zM507.098 311.077s2.696-1.862 3.224-5.245c.367-2.35-.74-4.49-3.058-4.852-5.398-.84-5.695 10.08-12.344 9.043-3.079-.48-5.342-3.61-4.724-7.578.58-3.722 2.969-5.412 2.969-5.412l1.607 1.313s-2.126 1.607-2.56 4.413c-.43 2.744 1.095 4.793 2.985 5.09 5.093.792 5.297-10.142 12.344-9.043 3.203.498 5.411 3.373 4.782 7.399-.68 4.392-3.801 6.376-3.801 6.376l-1.424-1.504zM494.69 281.501l-.407 7.803-1.91-.1.922-17.7 1.91.1-.404 7.769 19.767 1.033-.11 2.129zM493.052 262.682l-.069-2.128 21.695-.709.069 2.129zM493.641 243.746l.916 7.758-1.904.221-2.074-17.596 1.9-.225.913 7.727 19.653-2.315.249 2.115zM489.1 225.948l-.497-2.105 13.73-3.244c3.635-.857 5.277-3.719 4.416-7.354-.86-3.636-3.611-5.491-7.309-4.617l-13.67 3.231-.488-2.073 13.761-3.252c4.686-1.11 8.494 1.448 9.62 6.227 1.138 4.807-1.116 8.83-5.801 9.935l-13.761 3.252zM482.092 193.813l2.65 7.347-1.8.65-6.012-16.671 1.8-.65 2.64 7.32 18.616-6.712.722 2.001zM473.412 177.202l-5.311-11.014 1.724-.833 4.386 9.096 7.118-3.435-3.58-7.426 1.725-.83 3.58 7.423 7.26-3.5-4.627-9.594 1.724-.832 5.554 11.514zM134.956 183.82l16.691 62.66c1.21 4.717 1.818 9.07 1.818 9.07h.242s.363-4.474 1.572-9.07l15.724-62.66h12.34l-22.38 85.402h-13.912l-14.756-55.402c-1.45-5.443-2.54-12.095-2.54-12.095h-.241s-1.089 6.652-2.54 12.095l-14.76 55.402H98.305L76.531 183.82h12.337l15.122 62.659c1.088 4.596 1.572 9.07 1.572 9.07h.242s.605-4.353 1.814-9.07l16.695-62.66h10.643zM198.824 183.82h49.596v10.403h-37.622v26.733H241.4v10.405h-30.603v27.455h39.678v10.406h-51.652zM268.135 183.82h11.974v74.996h38.227v10.406h-50.2zM332.124 183.82h11.974v74.996h38.227v10.406h-50.2z"/><path d="M210.17 505.656l5.222-20.064C116.956 459.978 48.209 370.96 48.209 269.106c0-9.551.608-19.168 1.807-28.575l-20.568-2.62a247.622 247.622 0 0 0-1.973 31.195c0 111.288 75.126 208.562 182.695 236.55" fill="#AFC4CB" mask="url(#aab)"/><path d="M210.17 505.656l5.222-20.064C116.956 459.978 48.209 370.96 48.209 269.106c0-9.551.608-19.168 1.807-28.575l-20.568-2.62a247.622 247.622 0 0 0-1.973 31.195c0 111.288 75.126 208.562 182.695 236.55M271.885 45.428c80.432 0 155.054 43.517 194.753 113.571l18.035-10.218C441.304 72.24 359.77 24.694 271.885 24.694c-11.811 0-23.671.85-35.251 2.53l2.968 20.516a226.66 226.66 0 0 1 32.283-2.312" fill="#AFC4CB" mask="url(#aab)"/><path d="M271.885 45.428c80.432 0 155.054 43.517 194.753 113.571l18.035-10.218C441.304 72.24 359.77 24.694 271.885 24.694c-11.811 0-23.671.85-35.251 2.53l2.968 20.516a226.66 226.66 0 0 1 32.283-2.312" fill="#AFC4CB" mask="url(#aab)"/><path d="M488.64 269.107c0-52.347-18.913-102.89-53.26-142.313l-15.633 13.62c31.056 35.648 48.158 81.353 48.158 128.693 0 108.084-87.933 196.017-196.02 196.017-29.605 0-58.053-6.43-84.548-19.117l-8.95 18.703c29.311 14.03 60.769 21.148 93.498 21.148 119.518 0 216.755-97.232 216.755-216.751" fill="#AFC4CB" mask="url(#aab)"/><path d="M488.64 269.107c0-52.347-18.913-102.89-53.26-142.313l-15.633 13.62c31.056 35.648 48.158 81.353 48.158 128.693 0 108.084-87.933 196.017-196.02 196.017-29.605 0-58.053-6.43-84.548-19.117l-8.95 18.703c29.311 14.03 60.769 21.148 93.498 21.148 119.518 0 216.755-97.232 216.755-216.751" fill="#AFC4CB" mask="url(#aab)"/><path d="M271.885 437.467c-44.675 0-86.755-17.313-118.489-48.756l-14.593 14.728c35.642 35.314 82.905 54.762 133.082 54.762 104.269 0 189.096-84.83 189.096-189.095 0-59.946-27.497-115.037-75.438-151.139l-12.475 16.56c42.695 32.152 67.182 81.206 67.182 134.579 0 92.837-75.528 168.361-168.365 168.361" fill="#AFC4CB" mask="url(#aab)"/><path d="M271.885 437.467c-44.675 0-86.755-17.313-118.489-48.756l-14.593 14.728c35.642 35.314 82.905 54.762 133.082 54.762 104.269 0 189.096-84.83 189.096-189.095 0-59.946-27.497-115.037-75.438-151.139l-12.475 16.56c42.695 32.152 67.182 81.206 67.182 134.579 0 92.837-75.528 168.361-168.365 168.361" fill="#AFC4CB" mask="url(#aab)"/><path d="M271.885 430.543c27.922 0 55.44-7.243 79.581-20.945l-10.232-18.035c-21.028 11.935-45.007 18.246-69.349 18.246-49.496 0-95.926-26.492-121.174-69.139l-17.842 10.561c28.963 48.922 82.229 79.312 139.016 79.312" fill="#AFC4CB" mask="url(#aab)"/><path d="M271.885 430.543c27.922 0 55.44-7.243 79.581-20.945l-10.232-18.035c-21.028 11.935-45.007 18.246-69.349 18.246-49.496 0-95.926-26.492-121.174-69.139l-17.842 10.561c28.963 48.922 82.229 79.312 139.016 79.312M421.36 330.202c7.938-19.407 11.964-39.962 11.964-61.097 0-30.223-8.404-59.7-24.31-85.234l-17.6 10.961c13.857 22.244 21.18 47.927 21.18 74.273 0 18.43-3.508 36.344-10.423 53.25l19.19 7.847z" fill="#AFC4CB" mask="url(#aab)"/><path d="M421.36 330.202c7.938-19.407 11.964-39.962 11.964-61.097 0-30.223-8.404-59.7-24.31-85.234l-17.6 10.961c13.857 22.244 21.18 47.927 21.18 74.273 0 18.43-3.508 36.344-10.423 53.25l19.19 7.847z" fill="#AFC4CB" mask="url(#aab)"/><path d="M303.33-.001l-2.367 20.6c126.73 14.569 222.298 121.906 222.298 249.673 0 138.588-112.749 251.337-251.336 251.337-65.7 0-127.847-25.189-174.993-70.929-47.039-45.639-74.107-106.784-76.209-172.173L0 279.174c2.277 70.79 31.574 136.984 82.497 186.387 51.034 49.513 118.306 76.778 189.428 76.778 150.019 0 272.067-122.048 272.067-272.067C543.992 131.965 440.532 15.774 303.33 0" fill="#AFC4CB" mask="url(#aab)"/><path d="M303.33-.001l-2.367 20.6c126.73 14.569 222.298 121.906 222.298 249.673 0 138.588-112.749 251.337-251.336 251.337-65.7 0-127.847-25.189-174.993-70.929-47.039-45.639-74.107-106.784-76.209-172.173L0 279.174c2.277 70.79 31.574 136.984 82.497 186.387 51.034 49.513 118.306 76.778 189.428 76.778 150.019 0 272.067-122.048 272.067-272.067C543.992 131.965 440.532 15.774 303.33 0" fill="#AFC4CB" mask="url(#aab)"/><path fill="#59595B" mask="url(#aab)" d="M500.192 49.961h-5.245v-1.285h11.898v1.285h-5.225v13.284h-1.428zM509.814 48.676h1.493l3.811 8.56c.332.746.705 1.782.705 1.782h.042s.394-1.036.725-1.783l3.812-8.56h1.472l1.161 14.57h-1.43l-.806-10.195c-.065-.787-.045-2.031-.045-2.031h-.041s-.435 1.285-.764 2.031l-3.42 7.479h-1.345l-3.425-7.479c-.328-.725-.784-2.073-.784-2.073h-.042s.021 1.286-.041 2.073l-.809 10.195h-1.43l1.16-14.57z"/></g></svg>