<?xml version="1.0" encoding="UTF-8"?><svg width="555" height="555" viewBox="0 0 555 555" xmlns="http://www.w3.org/2000/svg" xmlns:xlink="http://www.w3.org/1999/xlink"><title>2017 WELL Community Seal / Platinum (Alternate)</title><defs><path id="ala" d="M.001.546h542.453v542.453H.001z"/><path id="alc" d="M0 542h542V0H0z"/></defs><g transform="translate(5 6)" fill="none" fill-rule="evenodd"><mask id="alb" fill="#fff"><use xlink:href="#ala"/></mask><path d="M542.456 271.772C542.456 121.977 421.024.545 271.229.545 121.433.545 0 121.977 0 271.772.001 421.567 121.433 543 271.23 543c149.795 0 271.227-121.432 271.227-271.227" fill="#DBDCDD" mask="url(#alb)"/><path d="M271.002 47.102c-123.457 0-223.9 100.442-223.9 223.898s100.443 223.898 223.9 223.898c123.457 0 223.9-100.442 223.9-223.898S394.458 47.102 271.001 47.102m0 465.898C137.56 513 29 404.44 29 271S137.56 29 271.002 29C404.443 29 513 137.56 513 271S404.443 513 271.002 513" fill="#FEFEFE"/><path fill="#59595B" d="M488.85 58.235H484V57h11v1.235h-4.83V71h-1.32zM498.13 57h1.453l3.71 8.225c.324.718.687 1.714.687 1.714h.04s.384-.996.707-1.714l3.71-8.225h1.433L511 71h-1.393l-.783-9.796c-.064-.757-.044-1.953-.044-1.953h-.04s-.424 1.236-.744 1.953l-3.33 7.186h-1.308l-3.334-7.186c-.32-.697-.764-1.992-.764-1.992h-.04s.02 1.235-.04 1.992L498.393 71H497l1.13-14z"/><path d="M469 358.502L452.179 351c-36.814 82.497-124.857 129.734-214.104 114.865a201.185 201.185 0 0 1-24.777-5.755L208 477.75a220.788 220.788 0 0 0 27.047 6.28C332.563 500.278 428.769 448.659 469 358.503" fill="#FEFEFE"/><path d="M396.357 342c-14.694 25.255-36.99 46.4-65.512 59.478-35.407 16.239-75.056 17.814-111.636 4.436L213 422.886c41.084 15.03 85.616 13.258 125.384-4.98 32.056-14.7 57.113-38.475 73.616-66.867L396.357 342zM60 224.986L77.954 229c19.74-87.904 96.612-151.445 186.947-154.52 8.47-.29 17.017-.04 25.397.736L292 56.932a220.673 220.673 0 0 0-27.727-.806C165.57 59.486 81.57 128.924 60 224.986M369.782 99.708c61.678 35.855 99.548 102.566 98.83 174.102l18.377.19c.784-78.163-40.592-151.051-107.986-190.228A218.715 218.715 0 0 0 350.847 70L344 87.094a200.733 200.733 0 0 1 25.782 12.614" fill="#FEFEFE"/><path d="M450.646 211l-17.64 5.662c12.985 40.004 10.966 83.35-5.683 122.048-3.027 7.035-6.509 13.733-10.323 20.15l16.093 9.14c4.159-7.024 7.96-14.348 11.268-22.039 18.413-42.789 20.643-90.72 6.285-134.961M368.522 411.187c-57.546 38.521-135.357 40.54-195.847-.916-9.249-6.34-17.703-13.473-25.42-21.271L134 401.668c8.567 8.68 17.962 16.612 28.244 23.66 66.954 45.89 153.1 43.603 216.756.882l-10.478-15.023zM95.857 339l17.176-6.6c-15.097-39.044-15.506-82.229-1.148-121.607 2.61-7.158 5.693-14.007 9.115-20.598L104.536 182c-3.73 7.21-7.096 14.7-9.946 22.524C78.712 248.066 79.161 295.822 95.857 339M164.411 136.74c54.96-42.448 132.462-49.432 195.454-11.537 9.631 5.793 18.522 12.437 26.718 19.797L399 131.4c-9.103-8.19-18.98-15.584-29.686-22.025C299.589 67.431 213.784 75.215 153 122.28l11.411 14.46z" fill="#FEFEFE"/><path d="M116 222.318L133.11 228c14.588-44.288 48.162-78.249 92.114-93.17 32.386-10.994 65.97-9.877 95.908.857L327 118.59c-33.58-11.997-71.237-13.23-107.547-.904C170.087 134.45 132.382 172.585 116 222.318" fill="#FEFEFE"/><path d="M205.477 213l11.565 43.29a63.219 63.219 0 0 1 1.257 6.268h.169s.252-3.092 1.088-6.267L230.45 213H239l-15.504 59h-9.638l-10.225-38.274c-1.005-3.76-1.76-8.357-1.76-8.357h-.167s-.756 4.597-1.76 8.357L189.72 272h-9.638L165 213h8.546l10.477 43.29a57.89 57.89 0 0 1 1.088 6.268h.17s.417-3.01 1.256-6.267L198.102 213h7.375zM250 213h34.569v7.186h-26.221v18.471h21.33v7.187h-21.33v18.97H286V272h-36zM298 213h8.35v51.814H333V272h-35zM343 213h8.35v51.814H378V272h-35zM189.377 301.363c-.023.024-2.28 2.489-5.544 2.489-4.19 0-6.38-3.52-6.38-6.996 0-3.952 2.613-6.708 6.353-6.708 2.998 0 5.203 2.053 5.226 2.076l.306.291 2.126-3.377-.184-.207c-.108-.118-2.672-2.931-7.644-2.931-6.064 0-10.636 4.693-10.636 10.914 0 6.424 4.496 11.086 10.695 11.086 5.2 0 8.01-3.32 8.124-3.462l.181-.216-2.334-3.283-.289.324zM213.415 296.856c0 3.99-2.758 6.996-6.417 6.996-3.658 0-6.417-3.006-6.417-6.996 0-3.827 2.76-6.708 6.417-6.708 3.601 0 6.417 2.945 6.417 6.708M206.998 286c-6.167 0-10.998 4.767-10.998 10.856 0 6.248 4.831 11.144 10.998 11.144 6.17 0 11.002-4.896 11.002-11.144 0-6.089-4.831-10.856-11.002-10.856M238.79 286l-4.064 10.258c-.24.63-.507 1.417-.704 2.027-.207-.61-.48-1.4-.721-2.03L229.237 286h-4.519L223 307h4.408l.884-11.678c.024-.36.037-.753.044-1.133.153.44.317.88.47 1.246l3.354 8.079h3.707l3.384-8.079a26 26 0 0 0 .443-1.18c.007.36.02.727.04 1.07L240.62 307H245l-1.692-21h-4.518zM266.79 286l-4.064 10.258c-.24.63-.507 1.417-.704 2.027-.207-.61-.48-1.4-.721-2.03L257.237 286h-4.519L251 307h4.408l.884-11.678c.02-.36.034-.753.04-1.133.157.44.32.88.474 1.246l3.354 8.079h3.707l3.384-8.079a26 26 0 0 0 .443-1.18c.007.36.02.727.04 1.07L268.62 307H273l-1.692-21h-4.518zM291.622 299.116c0 2.417-1.545 3.863-4.135 3.863-2.57 0-4.106-1.436-4.106-3.837V286H279v13.142c0 4.7 3.426 7.858 8.517 7.858 5.074 0 8.483-3.158 8.483-7.858V286h-4.378v13.116zM315.7 298.071c0 .434.026.95.059 1.444-.285-.554-.62-1.16-.93-1.64L307.165 286H303v21h4.33v-12.045c0-.43-.027-.95-.056-1.443a20.5 20.5 0 0 0 .927 1.64L315.864 307H320v-21h-4.3v12.071z" fill="#6C6E70"/><mask id="ald" fill="#fff"><use xlink:href="#alc"/></mask><path fill="#6C6E70" mask="url(#ald)" d="M328 307h4v-21h-4zM337 289.886h6.764V307h4.472v-17.114H355V286h-18zM371.107 286l-3.171 6.162c-.366.714-.701 1.487-.93 2.03a27.476 27.476 0 0 0-.909-2.033L362.893 286H358l6.849 12.248V307h4.302v-8.752L376 286h-4.893zM182.546 341.134c1.95 0 3.14-1.2 3.14-3.125 0-1.929-1.19-3.061-3.117-3.061h-3.298v6.186h3.275zM177 333h5.912c2.958 0 5.088 1.974 5.088 5.009 0 3.038-2.13 5.076-5.088 5.076h-3.641V349H177v-16zM193 333h2.387v14.052H203V349h-10zM211.979 335.197s-.366 1.45-.64 2.268l-1.81 5.077h4.896l-1.783-5.077c-.275-.818-.618-2.268-.618-2.268h-.045zm3.043 9.202h-6.087l-1.6 4.601H205l5.813-16h2.377l5.81 16h-2.355l-1.623-4.601zM225.808 334.948H220V333h14v1.948h-5.815V349h-2.377zM238 349h2.082v-16H238zM247 333h2.254l7.224 10.405c.598.857 1.357 2.31 1.357 2.31h.05s-.162-1.43-.162-2.31V333H260v16h-2.234l-7.247-10.382c-.598-.88-1.357-2.33-1.357-2.33h-.046s.16 1.424.16 2.33V349H247v-16zM266 333h2.314v10.796c0 2.56 1.639 4.05 4.16 4.05 2.55 0 4.21-1.49 4.21-4.094V333H279v10.796c0 3.719-2.64 6.204-6.5 6.204s-6.5-2.485-6.5-6.204V333zM285.349 333h2.461l3.835 8.657c.382.883.828 2.155.828 2.155h.05s.45-1.272.829-2.155l3.834-8.657h2.462L301 349h-2.323l-.828-10.084c-.068-.977-.024-2.356-.024-2.356h-.044s-.5 1.472-.903 2.356l-3.337 7.207h-2.082l-3.317-7.207c-.379-.861-.9-2.405-.9-2.405h-.047s.024 1.428-.047 2.405L286.343 349H284l1.349-16zM314 348.722c0-5.971 8.273-6.823 8.273-10.752 0-1.657-1.266-2.769-3.038-2.769-2.221 0-3.416 2.13-3.416 2.13l-1.747-1.16s1.532-3.171 5.33-3.171c3.11 0 5.335 1.917 5.335 4.804 0 5.495-8.058 6.347-8.106 10.157H325V350h-10.88a8.645 8.645 0 0 1-.12-1.278M338.57 341.477c0-3.562-.79-6.359-3.582-6.359-2.767 0-3.56 2.797-3.56 6.359 0 3.588.793 6.405 3.56 6.405 2.791 0 3.581-2.817 3.581-6.405m-9.569 0c0-4.73 1.466-8.477 5.988-8.477 4.542 0 6.012 3.748 6.012 8.477 0 4.752-1.47 8.523-6.012 8.523-4.522 0-5.988-3.771-5.988-8.523M345.122 347.049h3.794v-10.331c0-.502.028-1 .028-1h-.052s-.195.362-.827.929l-1.606 1.472-1.459-1.401 4.11-3.718h2.144v14.049H355V349h-9.878v-1.951zM365.598 336.397a8.338 8.338 0 0 1 .956-1.472v-.045s-.373.068-1.212.068H358V333h11v1.54L361.565 349h-2.377l6.41-12.603z"/></g></svg>