<?xml version="1.0" encoding="UTF-8"?><svg width="555" height="555" viewBox="0 0 555 555" xmlns="http://www.w3.org/2000/svg" xmlns:xlink="http://www.w3.org/1999/xlink"><title>2017 WELL Community Seal / Platinum</title><defs><path id="aka" d="M0 .53h545.468V546H0z"/></defs><g transform="translate(4 4)" fill="none" fill-rule="evenodd"><g transform="translate(0 .785)"><mask id="akb" fill="#fff"><use xlink:href="#aka"/></mask><path d="M545.447 276.687C547.335 126.073 426.769 2.443 276.155.552 125.542-1.336 1.912 119.23.02 269.843-1.868 420.46 118.698 544.09 269.312 545.978c150.617 1.888 274.247-118.677 276.135-269.291" fill="#D0D2D3" mask="url(#akb)"/></g><path d="M275.267 48.81C151.07 47.255 48.762 147.029 47.205 271.223c-1.56 124.195 98.213 226.506 222.411 228.066 124.195 1.557 226.506-98.22 228.063-222.415 1.56-124.195-98.217-226.505-222.412-228.062m-5.881 468.686C135.15 515.812 27.309 405.235 28.993 270.995 30.677 136.755 141.258 28.915 275.494 30.6c134.24 1.684 242.077 112.265 240.393 246.505-1.684 134.236-112.262 242.077-246.501 240.393" fill="#9C9EA1"/><path fill="#59595B" d="M494.34 62.288l-5.068-.064.013-1.243 11.502.144-.014 1.243-5.052-.064-.16 12.845-1.38-.02zM503.66 61.16l1.443.017 3.582 8.324c.311.726.662 1.731.662 1.731h.037s.394-.995.725-1.714l3.79-8.23 1.423.02.946 14.098-1.384-.017-.655-9.867c-.053-.762-.02-1.965-.02-1.965h-.037s-.437 1.24-.765 1.955l-3.398 7.19-1.3-.016-3.218-7.271c-.314-.709-.735-2.015-.735-2.015h-.04s.003 1.243-.067 2.001l-.906 9.848-1.383-.017 1.3-14.071z"/><path d="M469.86 363.745l-16.796-7.746c-38.008 82.39-127.005 128.719-216.437 112.663a202.599 202.599 0 0 1-24.805-6.092l-5.54 17.647a221.382 221.382 0 0 0 27.077 6.65c97.716 17.543 194.967-33.086 236.5-123.122" fill="#9C9EA1"/><path d="M397.183 346.68c-15.054 25.153-37.687 46.088-66.462 58.85-35.718 15.846-75.504 16.929-112.03 3.047l-6.444 16.95c41.026 15.595 85.71 14.378 125.83-3.42 32.34-14.345 57.773-37.883 74.681-66.16l-15.575-9.266zM60.594 225.042l17.995 4.27C99.54 141.032 177.615 78.005 268.453 76.05c8.521-.183 17.106.174 25.52 1.063l1.942-18.396c-9.19-.969-18.563-1.36-27.86-1.16-99.256 2.14-184.567 71.01-207.46 167.486M374.172 102.684c61.61 36.775 98.875 104.229 97.251 176.04l18.49.418c1.774-78.458-38.944-152.157-106.26-192.34a220.277 220.277 0 0 0-28.16-14.179l-7.105 17.073a202.166 202.166 0 0 1 25.784 12.988" fill="#9C9EA1"/><path d="M453.328 215.866l-17.67 5.46c12.45 40.297 9.891 83.755-7.211 122.367-3.108 7.021-6.667 13.698-10.553 20.09l15.943 9.367c4.237-6.994 8.123-14.296 11.522-21.965 18.91-42.7 21.74-90.755 7.97-135.319M369.03 415.796c-58.371 38.229-136.662 39.291-196.979-3.398-9.222-6.53-17.637-13.848-25.299-21.83l-13.49 12.644c8.508 8.885 17.854 17.025 28.106 24.283 66.763 47.25 153.44 46.028 218.011 3.63l-10.349-15.329zM95.777 340.58l17.34-6.436c-14.676-39.542-14.54-83.073.388-122.578 2.713-7.181 5.894-14.048 9.42-20.644l-16.441-8.468c-3.843 7.218-7.315 14.726-10.282 22.573-16.505 43.685-16.655 91.824-.425 135.552M166.99 137.416c55.832-41.854 133.896-47.88 196.795-9.1 9.62 5.932 18.482 12.705 26.636 20.184l12.661-13.474c-9.055-8.327-18.896-15.862-29.59-22.452-69.626-42.927-156.05-36.207-217.8 10.202l11.298 14.64z" fill="#9C9EA1"/><path d="M117.63 222.143l17.146 5.911c15.234-44.2 49.442-77.803 93.852-92.202 32.722-10.61 66.499-9.062 96.486 2.069l6.122-17.06c-33.64-12.443-71.51-14.154-108.201-2.261-49.88 16.173-88.3 53.913-105.405 103.543" fill="#9C9EA1"/><path d="M207.526 214.6l11.105 43.885a64.64 64.64 0 0 1 1.186 6.346l.17.003s.291-3.12 1.177-6.319l11.525-43.601 8.611.11-16.367 59.414-9.71-.12-9.819-38.803c-.962-3.81-1.664-8.464-1.664-8.464l-.17-.004s-.819 4.635-1.878 8.424l-10.787 38.54-9.71-.12-14.45-59.803 8.612.107 10.004 43.872a58.055 58.055 0 0 1 1.02 6.346h.167s.46-3.034 1.346-6.315l12.2-43.592 7.432.094zM252.108 215.159l34.619.434-.09 7.261-26.262-.33-.234 18.663 21.363.267-.09 7.261-21.363-.267-.24 19.164 27.694.348-.09 7.261-36.056-.451zM300.489 215.766l8.36.103-.658 52.35 26.683.338-.093 7.261-35.04-.44zM345.155 216.326l8.358.104-.655 52.35 26.682.337-.093 7.262-35.04-.442zM190.396 302.859c-.023.023-2.35 2.433-5.667 2.39-4.261-.054-6.443-3.56-6.4-6.995.047-3.906 2.737-6.6 6.54-6.55 3.05.037 5.266 2.096 5.286 2.12l.311.29 2.202-3.312-.184-.203c-.11-.12-2.68-2.934-7.735-2.998-6.166-.077-10.87 4.501-10.948 10.65-.08 6.349 4.435 11.014 10.734 11.094 5.286.067 8.183-3.178 8.304-3.315l.187-.214-2.33-3.275-.3.318zM214.285 298.704c-.05 3.943-2.813 6.88-6.43 6.833-3.615-.043-6.305-3.05-6.255-6.994.047-3.78 2.81-6.596 6.426-6.55 3.556.044 6.306 2.991 6.26 6.71m-6.21-10.806c-6.095-.077-10.927 4.574-11.004 10.59-.076 6.175 4.639 11.074 10.734 11.15 6.095.077 10.934-4.701 11.01-10.877.074-6.018-4.641-10.79-10.74-10.863M240.01 288.642l-4.2 10.235c-.247.625-.521 1.41-.728 2.018a74.07 74.07 0 0 0-.695-2.041l-3.943-10.333-4.525-.056-1.985 21.032 4.418.057 1.029-11.7c.027-.357.047-.751.057-1.132.15.44.31.882.458 1.253l3.254 8.143 3.713.044 3.488-8.054c.15-.35.308-.765.458-1.18.004.362.014.733.03 1.074l.739 11.715 4.387.057-1.43-21.076-4.524-.056zM268.04 288.994l-4.2 10.235c-.248.625-.522 1.41-.729 2.018a64.54 64.54 0 0 0-.698-2.041l-3.94-10.333-4.524-.057-1.985 21.033 4.417.053 1.03-11.696c.026-.357.043-.751.056-1.132.15.44.311.882.458 1.253l3.255 8.143 3.712.044 3.489-8.054c.15-.35.307-.765.458-1.18.003.362.013.733.03 1.073l.738 11.716 4.388.057-1.43-21.076-4.525-.056zM293.18 302.673c-.03 2.463-1.606 3.917-4.216 3.883-2.59-.033-4.117-1.514-4.087-3.96l.167-13.39-4.41-.053-.168 13.386c-.06 4.792 3.348 8.05 8.478 8.117 5.112.064 8.588-3.11 8.648-7.903l.167-13.386-4.411-.057-.167 13.363zM317.585 301.72c-.007.434.013.952.04 1.446a20.223 20.223 0 0 0-.926-1.654l-7.662-12.003-4.247-.053-.264 21.052 4.414.053.15-12.073c.007-.431-.013-.952-.04-1.447.288.562.615 1.173.926 1.654l7.662 11.977 4.22.053.265-21.052-4.388-.057-.15 12.103zM329.17 310.817l4.411.057.264-21.056-4.41-.053zM338.646 293.776l6.674.084-.218 17.155 4.415.057.213-17.156 6.674.084.05-3.896-17.758-.224zM372.79 290.307l-3.328 6.136a31.233 31.233 0 0 0-.979 2.025 27.392 27.392 0 0 0-.905-2.052l-3.205-6.215-5.016-.06 6.864 12.363-.11 8.775 4.41.057.111-8.775 7.174-12.19-5.015-.064z" fill="#6C6E70"/><path d="M182.33 343.137c1.992.023 3.225-1.2 3.248-3.188.024-1.988-1.176-3.175-3.144-3.201l-3.369-.044-.08 6.39 3.345.043zm-5.56-8.471l6.041.077c3.018.036 5.17 2.102 5.13 5.236-.04 3.138-2.242 5.213-5.26 5.176l-3.72-.047-.076 6.109-2.322-.03.207-16.521zM192.838 334.868l2.32.03-.181 14.506 7.395.094-.027 2.012-9.714-.12zM212.372 337.382s-.395 1.493-.685 2.335l-1.915 5.217 5.006.063-1.758-5.263c-.267-.849-.601-2.352-.601-2.352h-.047zm2.994 9.54l-6.226-.077-1.697 4.728-2.39-.03 6.153-16.444 2.436.03 5.737 16.595-2.413-.03-1.6-4.772zM226.377 337.3l-5.66-.07.023-2.012 13.643.17-.026 2.012-5.664-.07-.18 14.509-2.317-.03zM238.612 335.443l2.32.03-.208 16.52-2.319-.03zM247.292 335.551l2.292.03 7.212 10.834c.598.896 1.35 2.403 1.35 2.403h.05s-.144-1.477-.134-2.386l.134-10.744 2.319.03-.207 16.521-2.273-.03-7.238-10.81c-.598-.919-1.35-2.426-1.35-2.426h-.046s.147 1.474.137 2.41l-.137 10.72-2.316-.03.207-16.522zM266.635 335.794l2.316.03-.134 10.67c-.03 2.53 1.588 4.02 4.114 4.054 2.553.03 4.23-1.42 4.264-3.994l.134-10.626 2.315.03-.133 10.67c-.047 3.672-2.72 6.098-6.58 6.048-3.863-.047-6.476-2.536-6.43-6.212l.134-10.67zM286.586 336.045l2.429.03 3.682 8.985c.361.92.789 2.236.789 2.236h.05s.461-1.307.846-2.216l3.903-8.888 2.432.03 1.13 16.537-2.296-.03-.688-10.422c-.057-1.01.006-2.433.006-2.433h-.043s-.511 1.514-.922 2.423l-3.392 7.398-2.059-.027-3.184-7.482c-.364-.895-.859-2.492-.859-2.492h-.047s.007 1.473-.077 2.482l-.925 10.403-2.316-.03 1.54-16.504zM314.62 351.657c.073-5.898 8.183-6.64 8.233-10.523.02-1.638-1.206-2.754-2.94-2.774-2.176-.03-3.372 2.062-3.372 2.062l-1.694-1.166s1.537-3.118 5.256-3.071c3.044.037 5.196 1.961 5.163 4.812-.07 5.43-7.967 6.175-8.064 9.941l8.194.104-.023 2.011-10.653-.133a8.984 8.984 0 0 1-.1-1.263M339.458 344.945c.043-3.579-.689-6.4-3.405-6.433-2.69-.033-3.5 2.767-3.546 6.346-.043 3.606.692 6.443 3.385 6.48 2.714.033 3.519-2.787 3.566-6.393m-9.313-.117c.06-4.752 1.533-8.498 5.934-8.444 4.421.057 5.805 3.84 5.745 8.591-.06 4.772-1.538 8.548-5.959 8.491-4.4-.053-5.78-3.863-5.72-8.638M346.395 351.304l3.649.047.133-10.67c.007-.518.037-1.032.037-1.032h-.047s-.19.374-.808.949l-1.564 1.5-1.384-1.467 4.003-3.786 2.059.027-.18 14.506 3.602.047-.027 2.011-9.5-.12.027-2.012zM366.976 340.561c.477-.929.979-1.507.979-1.507v-.046s-.378.063-1.22.053l-7.368-.094.023-2.008 11.047.137-.02 1.59-7.655 14.838-2.383-.03 6.597-12.933z" fill="#58585B"/></g></svg>