<?xml version="1.0" encoding="UTF-8"?><svg width="555" height="555" viewBox="0 0 555 555" xmlns="http://www.w3.org/2000/svg" xmlns:xlink="http://www.w3.org/1999/xlink"><title>2017 WELL / Silver</title><defs><path id="afa" d="M.207.204h543.785v542.133H.207z"/></defs><g transform="translate(6 9)" fill="none" fill-rule="evenodd"><path fill="#4D4E4C" d="M1.949 214.412l.467-2.08 21.183 4.73-.463 2.081-21.187-4.73M5.422 199.055l.59-1.984 18.133-6.175c1.244-.404 3.32-.881 3.32-.881l.018-.059s-1.77-.335-2.865-.66L9.641 184.85l.609-2.043 20.806 6.183-.59 1.983-18.133 6.175c-1.247.401-3.32.882-3.32.882l-.018.058s1.77.332 2.865.657l14.977 4.45-.608 2.043-20.807-6.182M18.764 165.69l-2.992 7.216-1.77-.736 6.794-16.366 1.77.736-2.983 7.184 18.274 7.589-.815 1.966-18.278-7.589M25.662 145.834l5.73-10.8 1.693.9-4.734 8.918 6.983 3.701 3.864-7.28 1.69.898-3.864 7.28 7.12 3.778 4.99-9.41 1.689.899-5.989 11.29-19.172-10.174M51.034 123.496c1.448-2.187.95-4.513-1.313-6.013-1.493-.988-2.993-1.13-4.258-.449-.643.353-1.223.895-2.142 2.284l-2.42 3.656 7.285 4.825 2.848-4.303zm-12.904.197l3.542-5.353c1.227-1.855 1.953-2.557 2.74-3.075 1.87-1.206 4.279-1.092 6.466.356 2.447 1.617 3.404 4.25 2.627 6.662l.051.031s.35-.024 1.027.014l9.893.885-1.344 2.032-10.332-.947-3.017 4.555 7.623 5.045-1.178 1.776-18.098-11.98zM53.76 101.273l1.32-1.59 19.103 1.434c1.303.121 3.4.494 3.4.494l.039-.048s-1.496-.999-2.374-1.728l-12.03-9.97 1.359-1.641 16.711 13.85-1.32 1.593-19.1-1.434c-1.306-.12-3.4-.494-3.4-.494l-.041.049s1.496.998 2.377 1.727l12.03 9.97-1.362 1.642-16.712-13.854M80.414 75.05s.92 1.608 1.365 2.596l3.414 7.661 5.35-5.21-7.527-3.66c-.974-.47-2.557-1.428-2.557-1.428l-.045.042zm11.888 5.92l-6.259 6.096 3.055 6.677-1.614 1.572-9.437-21.104 1.634-1.593 20.852 9.987-1.614 1.572-6.617-3.207zM97.827 59.044l-6.064 4.92-1.206-1.485 13.76-11.165 1.206 1.486-6.04 4.9 12.468 15.367-1.656 1.345-12.468-15.368M113.119 45.073l1.748-1.213 12.368 17.835-1.752 1.212-12.364-17.834M144.725 48.853c4.24-2.412 5.663-7.906 3.037-12.523-2.564-4.513-7.938-5.968-12.178-3.56-4.268 2.43-5.74 7.776-3.179 12.285 2.626 4.617 8.048 6.224 12.32 3.798zm-10.119-17.8c5.343-3.034 12.005-1.248 15.088 4.178 3.145 5.529 1.348 12.302-3.995 15.34-5.342 3.037-12.081 1.112-15.226-4.417-3.082-5.422-1.21-12.064 4.133-15.101zM156.083 20.33l1.908-.802 16.28 10.094c1.102.709 2.789 2.008 2.789 2.008l.055-.024s-.864-1.576-1.306-2.63l-6.065-14.4 1.963-.826 8.425 20.005-1.908.802-16.28-10.094c-1.102-.709-2.788-2.011-2.788-2.011l-.056.024s.864 1.58 1.307 2.633l6.064 14.397-1.963.829-8.425-20.005M191.84 9.379s.072 1.849.01 2.93l-.512 8.373 7.157-2.153-4.986-6.717c-.65-.871-1.61-2.45-1.61-2.45l-.06.017zm7.81 10.74l-8.367 2.516-.373 7.333-2.16.65 1.375-23.078 2.188-.66 13.881 18.492-2.16.65-4.385-5.903zM210.918 2.035l2.088-.421 3.922 19.397 9.866-1.994.377 1.876-11.954 2.416-4.299-21.274M235.737 492.658s-.618 1.776-1.199 3.093l-6.424 14.472-2.533-.39-2.232-22.31 2.194.338 1.572 17.303c.107 1.14.135 2.364.135 2.364l.062.01c.028.004.367-1.164.84-2.215l7.095-15.962 2.014.315 1.939 17.358c.135 1.143.104 2.36.131 2.363l.062.007s.398-1.154.844-2.211l6.88-15.993 2.198.338-9.027 20.569-2.533-.391-1.752-15.737c-.152-1.43-.204-3.314-.204-3.314l-.062-.007M258.738 491.915l12.223.325-.048 1.914-10.094-.266-.208 7.9 8.239.218-.049 1.91-8.242-.214-.21 8.056 10.647.28-.052 1.914-12.776-.339.57-21.698M281.688 491.894l2.125-.159 1.458 19.74 10.039-.74.138 1.907-12.16.899-1.6-21.647M302.93 489.762l2.1-.363 3.35 19.504 9.92-1.704.322 1.887-12.019 2.067-3.673-21.391M351.026 498.007c2.478-.864 3.484-2.95 2.63-5.398-.854-2.446-3.076-3.472-5.464-2.636l-5.218 1.82 2.806 8.046 5.246-1.832zm-3.677-9.703c2.07-.723 2.958-2.668 2.215-4.793-.729-2.101-2.53-3.041-4.717-2.278l-4.955 1.728 2.47 7.084 4.987-1.741zm-10.097-6.449l6.994-2.44c3.235-1.13 6.22.021 7.337 3.225.743 2.129.262 4.03-1.037 5.367l.02.058c2.302-.148 4.344 1.393 5.208 3.87 1.272 3.643-.705 6.687-4.143 7.89l-7.23 2.52-7.15-20.49zM359.952 473.347l1.942-.943 6.165 12.693c1.631 3.362 4.783 4.337 8.142 2.706 3.362-1.631 4.572-4.724 2.913-8.142l-6.137-12.637 1.918-.93 6.175 12.72c2.105 4.334.439 8.608-3.978 10.751-4.444 2.16-8.86.836-10.964-3.497l-6.176-12.72M384.768 460.344l1.82-1.103 11.242 18.568-1.821 1.102-11.241-18.567M396.524 452.859l1.728-1.244 11.556 16.062 8.169-5.875 1.12 1.552-9.901 7.122-12.672-17.617M431.803 450.24c3.967-3.58 4.492-8.298.605-12.607-3.867-4.289-8.636-4.226-12.579-.67l-3.463 3.12 11.974 13.277 3.463-3.12zm-18.301-10.15l5.207-4.693c4.838-4.365 10.761-4.344 15.35.746 4.631 5.139 4.023 11.007-.815 15.371l-5.204 4.693-14.538-16.117zM433.845 420.544l1.441-1.572 15.99 14.676-1.441 1.57-15.99-14.674M443.02 410.236l1.248-1.648 19.148.563c1.306.062 3.417.339 3.417.339l.038-.049s-1.54-.933-2.45-1.62l-12.471-9.414 1.282-1.7 17.327 13.08-1.248 1.648-19.148-.563c-1.31-.062-3.421-.339-3.421-.339l-.035.049s1.538.933 2.45 1.62l12.472 9.414-1.285 1.7-17.324-13.08M463.882 378.768c2.492-4.371 6.024-5.45 6.024-5.45l.829 1.787s-3.134 1.13-5.09 4.562c-2.599 4.561-.843 9.648 3.635 12.202 4.641 2.647 9.894 1.413 12.34-2.879 2.095-3.673.615-7.502.615-7.502l-3.19-1.821-1.834 3.217-1.662-.947 2.844-4.99 9.012 5.139-.981 1.717-1.42-.808c-.401-.232-.788-.487-.788-.487l-.031.055s1.31 3.625-.954 7.592c-2.938 5.152-9.42 6.86-15.026 3.663-5.446-3.107-7.412-9.631-4.323-15.05M478.327 348.887l.75-1.994 20.316 7.644-.753 1.994-20.313-7.644M483.003 335.89l.546-1.997 17.99-6.576c1.24-.429 3.304-.954 3.304-.954l.013-.059s-1.776-.294-2.875-.594l-15.073-4.116.563-2.056 20.938 5.719-.546 1.994-17.99 6.58c-1.241.428-3.304.953-3.304.953l-.017.06s1.78.293 2.878.594l15.074 4.115-.563 2.056-20.938-5.719M507.1 311.282s2.695-1.859 3.22-5.246c.366-2.35-.736-4.488-3.055-4.851-5.398-.84-5.695 10.08-12.344 9.043-3.082-.48-5.342-3.611-4.724-7.575.578-3.721 2.965-5.415 2.965-5.415l1.61 1.313s-2.124 1.607-2.563 4.413c-.425 2.744 1.099 4.797 2.989 5.09 5.094.792 5.297-10.142 12.344-9.043 3.203.498 5.408 3.373 4.782 7.399-.684 4.392-3.804 6.375-3.804 6.375l-1.42-1.503M494.69 281.705l-.408 7.803-1.91-.1.925-17.7 1.911.1-.408 7.772 19.767 1.03-.11 2.128-19.767-1.033M493.052 262.889l-.07-2.13 21.696-.71.069 2.131-21.695.709M493.643 243.951l.912 7.758-1.9.222-2.074-17.597 1.9-.224.91 7.727 19.652-2.316.249 2.115-19.65 2.315M489.102 226.155l-.498-2.105 13.73-3.245c3.635-.857 5.273-3.722 4.416-7.357-.86-3.635-3.614-5.488-7.309-4.617l-13.67 3.231-.491-2.073 13.76-3.252c4.69-1.106 8.498 1.451 9.625 6.227 1.137 4.807-1.117 8.83-5.802 9.939l-13.761 3.252M482.094 194.017l2.65 7.35-1.804.65-6.009-16.67 1.8-.65 2.64 7.319 18.616-6.715.723 2.005-18.616 6.71M473.413 177.405l-5.311-11.01 1.724-.833 4.385 9.092 7.12-3.431-3.581-7.426 1.724-.833 3.58 7.426 7.26-3.5-4.63-9.597 1.725-.833 5.556 11.514-19.552 9.431M134.955 184.026l16.695 62.659a92.404 92.404 0 0 1 1.814 9.071h.242s.363-4.475 1.572-9.071l15.724-62.659h12.34l-22.38 85.4h-13.908l-14.76-55.4c-1.451-5.444-2.54-12.096-2.54-12.096h-.241s-1.089 6.652-2.54 12.095l-14.76 55.402H98.304l-21.774-85.4h12.34l15.119 62.658c1.088 4.596 1.572 9.071 1.572 9.071h.242s.605-4.354 1.814-9.071l16.695-62.659h10.643M198.823 184.026h49.597v10.402h-37.623v26.733h30.604v10.405h-30.604v27.456h39.679v10.405h-51.653v-85.4M268.134 184.026h11.978v74.996h38.223v10.405h-50.2v-85.4M332.124 184.026H344.1v74.996h38.223v10.405h-50.2v-85.4"/><path d="M210.172 505.862l5.218-20.067c-98.432-25.61-167.183-114.629-167.183-216.482 0-9.555.608-19.169 1.807-28.575l-20.568-2.62a248.187 248.187 0 0 0-1.97 31.195c0 111.287 75.127 208.561 182.696 236.55" fill="#ACBFC0"/><path d="M210.172 505.862l5.218-20.067c-98.432-25.61-167.183-114.629-167.183-216.482 0-9.555.608-19.169 1.807-28.575l-20.568-2.62a248.187 248.187 0 0 0-1.97 31.195c0 111.287 75.127 208.561 182.696 236.55M271.884 45.632c80.431 0 155.057 43.518 194.752 113.572l18.04-10.215c-43.373-76.544-124.907-124.09-212.792-124.09-11.808 0-23.668.853-35.252 2.529l2.972 20.516a226.575 226.575 0 0 1 32.28-2.312" fill="#ACBFC0"/><path d="M271.884 45.632c80.431 0 155.057 43.518 194.752 113.572l18.04-10.215c-43.373-76.544-124.907-124.09-212.792-124.09-11.808 0-23.668.853-35.252 2.529l2.972 20.516a226.575 226.575 0 0 1 32.28-2.312" fill="#ACBFC0"/><path d="M488.639 269.313c0-52.35-18.913-102.89-53.256-142.313l-15.637 13.62c31.056 35.648 48.162 81.35 48.162 128.693 0 108.084-87.937 196.017-196.024 196.017-29.605 0-58.049-6.43-84.544-19.117l-8.954 18.703c29.312 14.03 60.769 21.148 93.498 21.148 119.519 0 216.755-97.233 216.755-216.751" fill="#ACBFC0"/><path d="M488.639 269.313c0-52.35-18.913-102.89-53.256-142.313l-15.637 13.62c31.056 35.648 48.162 81.35 48.162 128.693 0 108.084-87.937 196.017-196.024 196.017-29.605 0-58.049-6.43-84.544-19.117l-8.954 18.703c29.312 14.03 60.769 21.148 93.498 21.148 119.519 0 216.755-97.233 216.755-216.751" fill="#ACBFC0"/><path d="M271.884 437.67c-44.672 0-86.755-17.312-118.49-48.752l-14.59 14.725c35.64 35.317 82.903 54.762 133.08 54.762 104.269 0 189.099-84.827 189.099-189.092 0-59.95-27.497-115.037-75.441-151.142l-12.472 16.563c42.695 32.152 67.179 81.202 67.179 134.579 0 92.834-75.528 168.358-168.365 168.358" fill="#ACBFC0"/><path d="M271.884 437.67c-44.672 0-86.755-17.312-118.49-48.752l-14.59 14.725c35.64 35.317 82.903 54.762 133.08 54.762 104.269 0 189.099-84.827 189.099-189.092 0-59.95-27.497-115.037-75.441-151.142l-12.472 16.563c42.695 32.152 67.179 81.202 67.179 134.579 0 92.834-75.528 168.358-168.365 168.358" fill="#ACBFC0"/><path d="M271.884 430.75c27.922 0 55.443-7.244 79.584-20.946l-10.235-18.035c-21.028 11.936-45.007 18.246-69.35 18.246-49.495 0-95.926-26.491-121.17-69.138l-17.841 10.56c28.958 48.92 82.224 79.312 139.012 79.312" fill="#ACBFC0"/><path d="M271.884 430.75c27.922 0 55.443-7.244 79.584-20.946l-10.235-18.035c-21.028 11.936-45.007 18.246-69.35 18.246-49.495 0-95.926-26.491-121.17-69.138l-17.841 10.56c28.958 48.92 82.224 79.312 139.012 79.312M421.36 330.406c7.938-19.407 11.964-39.958 11.964-61.093 0-30.227-8.405-59.704-24.311-85.238l-17.597 10.961c13.854 22.244 21.177 47.927 21.177 74.277 0 18.426-3.508 36.343-10.423 53.245l19.19 7.848" fill="#ACBFC0"/><mask id="afb" fill="#fff"><use xlink:href="#afa"/></mask><path d="M421.36 330.406c7.938-19.407 11.964-39.958 11.964-61.093 0-30.227-8.405-59.704-24.311-85.238l-17.597 10.961c13.854 22.244 21.177 47.927 21.177 74.277 0 18.426-3.508 36.343-10.423 53.245l19.19 7.848" fill="#ACBFC0" mask="url(#afb)"/><path d="M303.33.204l-2.37 20.6C427.694 35.372 523.262 142.71 523.262 270.476c0 138.588-112.75 251.337-251.337 251.337-65.7 0-127.847-25.189-174.993-70.929-47.039-45.639-74.107-106.784-76.208-172.173L0 279.38c2.277 70.79 31.575 136.984 82.498 186.387 51.034 49.513 118.306 76.778 189.427 76.778 150.019 0 272.067-122.048 272.067-272.067 0-138.307-103.46-254.498-240.661-270.273" fill="#ACBFC0" mask="url(#afb)"/><path d="M303.33.204l-2.37 20.6C427.694 35.372 523.262 142.71 523.262 270.476c0 138.588-112.75 251.337-251.337 251.337-65.7 0-127.847-25.189-174.993-70.929-47.039-45.639-74.107-106.784-76.208-172.173L0 279.38c2.277 70.79 31.575 136.984 82.498 186.387 51.034 49.513 118.306 76.778 189.427 76.778 150.019 0 272.067-122.048 272.067-272.067 0-138.307-103.46-254.498-240.661-270.273" fill="#ACBFC0" mask="url(#afb)"/><path d="M120.99 309.686s2.59 2.623 6.218 2.623c2.277 0 4.212-1.276 4.212-3.59 0-5.285-11.811-4.144-11.811-11.64 0-3.798 3.282-6.804 7.875-6.804 4.524 0 6.908 2.45 6.908 2.45l-1.555 2.837s-2.246-2.111-5.353-2.111c-2.592 0-4.423 1.624-4.423 3.56 0 5.044 11.815 3.693 11.815 11.603 0 3.767-2.903 6.874-7.737 6.874-5.18 0-8.083-3.21-8.083-3.21l1.935-2.592M142.382 315.077h3.417v-24.384h-3.417zM155.03 290.693h3.417v21.412h10.913v2.968h-14.33v-24.38M170.995 290.693h3.694l6.044 17.23c.45 1.313.933 3.352.933 3.352h.07s.483-2.039.932-3.352l6.113-17.23h3.625l-8.978 24.38h-3.42l-9.013-24.38M198.533 290.693h14.162v2.969h-10.74v7.63h8.735v2.972h-8.736v7.84h11.328v2.97h-14.749v-24.38M229.25 302.398c2.662 0 4.32-1.694 4.32-4.42 0-1.797-.694-3.076-1.935-3.767-.656-.342-1.451-.55-3.352-.55h-3.936v8.737h4.904zm-8.324-11.705h7.461c2.557 0 3.625.204 4.558.55 2.488.933 4.112 3.383 4.112 6.597 0 3.106-1.728 5.733-4.388 6.596v.07s.276.31.725 1.105l5.184 9.462h-3.87l-5.146-9.703h-5.215v9.703h-3.42v-24.38zM255.725 313.207c0-8.701 11.95-9.945 11.95-15.678 0-2.416-1.828-4.04-4.386-4.04-3.213 0-4.938 3.11-4.938 3.11l-2.522-1.697s2.211-4.627 7.702-4.627c4.49 0 7.703 2.8 7.703 7.012 0 8.013-11.642 9.257-11.708 14.818h12.088v2.968h-15.716a12.055 12.055 0 0 1-.173-1.866M292.11 302.847c0-5.284-1.144-9.427-5.149-9.427-3.97 0-5.111 4.143-5.111 9.427 0 5.318 1.14 9.496 5.111 9.496 4.005 0 5.149-4.178 5.149-9.496zm-13.747 0c0-7.012 2.105-12.572 8.598-12.572 6.528 0 8.636 5.56 8.636 12.572 0 7.046-2.108 12.64-8.636 12.64-6.493 0-8.598-5.594-8.598-12.64zM302.311 312.105h5.388v-15.751c0-.757.034-1.517.034-1.517h-.069s-.276.549-1.175 1.413l-2.28 2.246-2.07-2.142 5.836-5.66h3.038v21.41h5.318v2.97h-14.02v-2.97M332.334 295.873c.688-1.385 1.414-2.25 1.414-2.25v-.065s-.553.104-1.794.104h-10.882v-2.969h16.304v2.343l-11.017 22.037h-3.524l9.5-19.2" fill="#4D4E4C"/><path fill="#525351" d="M500.191 50.166h-5.242v-1.285h11.895v1.285h-5.226V63.45h-1.427V50.166M509.815 48.88h1.49l3.815 8.56c.328.747.705 1.784.705 1.784h.038s.397-1.037.726-1.783l3.815-8.56h1.472l1.16 14.569h-1.43l-.808-10.194c-.063-.788-.042-2.032-.042-2.032h-.041s-.436 1.285-.767 2.032l-3.418 7.478h-1.348l-3.421-7.478c-.332-.726-.788-2.074-.788-2.074h-.038s.02 1.286-.045 2.074l-.805 10.194h-1.43l1.16-14.57"/></g></svg>