<?xml version="1.0" encoding="UTF-8"?><svg width="555" height="555" viewBox="0 0 555 555" xmlns="http://www.w3.org/2000/svg" xmlns:xlink="http://www.w3.org/1999/xlink"><title>2017 WELL Community Seal / Silver</title><defs><path id="aoa" d="M.001.234h545.765V546H0z"/><path id="aoc" d="M0 547.006h546V0H0z"/></defs><g transform="translate(4 5)" fill="none" fill-rule="evenodd"><mask id="aob" fill="#fff"><use xlink:href="#aoa"/></mask><path d="M545.767 273.116C545.767 122.406 423.594.234 272.884.234 122.174.234.001 122.407.001 273.116.001 423.826 122.175 546 272.884 546c150.71 0 272.883-122.173 272.883-272.883" fill="#E5E6E7" mask="url(#aob)"/><path d="M273.002 47.4C148.606 47.4 47.4 148.605 47.4 273s101.206 225.6 225.602 225.6c124.395 0 225.601-101.205 225.601-225.6S397.397 47.4 273.002 47.4m0 469.44C138.546 516.84 29.16 407.455 29.16 273c0-134.455 109.386-243.84 243.842-243.84C407.458 29.16 516.84 138.545 516.84 273c0 134.455-109.382 243.84-243.838 243.84" fill="#C6C7C9"/><path fill="#59595B" d="M491.994 58.557h-5.32v-1.242h12.066v1.242h-5.299v12.835h-1.447zM501.888 57.315h1.461l3.73 8.27c.325.722.69 1.724.69 1.724h.041s.386-1.002.71-1.723l3.731-8.271h1.441l1.137 14.077h-1.4l-.789-9.85c-.064-.761-.044-1.963-.044-1.963h-.04s-.426 1.242-.748 1.963l-3.348 7.226h-1.316l-3.352-7.226c-.321-.701-.768-2.003-.768-2.003h-.04s.02 1.242-.04 2.003l-.792 9.85h-1.4l1.136-14.077z"/><path d="M470.586 360.539l-16.85-7.6c-36.875 83.563-125.065 131.41-214.461 116.35a199.634 199.634 0 0 1-24.82-5.83l-5.306 17.867a219.085 219.085 0 0 0 27.092 6.363c97.68 16.455 194.046-35.83 234.345-127.15" fill="#C6C7C9"/><path d="M397.62 343.89c-14.701 25.394-37.007 46.655-65.543 59.806-35.424 16.329-75.09 17.913-111.688 4.46l-6.212 17.066c41.103 15.113 85.656 13.332 125.442-5.006 32.072-14.782 57.141-38.69 73.652-67.238l-15.651-9.088zM59.326 225.223l18.131 4.037c19.934-88.39 97.564-152.282 188.79-155.375 8.554-.29 17.185-.04 25.647.741l1.72-18.385a223.805 223.805 0 0 0-28.001-.81c-99.676 3.379-184.504 73.2-206.287 169.792M371.825 100.259c62.02 36.053 100.098 103.132 99.376 175.064l18.479.19c.788-78.594-40.817-151.885-108.583-191.278a219.924 219.924 0 0 0-28.311-13.848L345.9 87.575a201.842 201.842 0 0 1 25.924 12.684" fill="#C6C7C9"/><path d="M452.349 211.16l-17.325 5.657c12.753 39.97 10.77 83.276-5.581 121.941-2.973 7.028-6.393 13.72-10.14 20.133l15.806 9.131c4.085-7.018 7.818-14.336 11.067-22.02 18.084-42.75 20.275-90.64 6.173-134.842M371.521 413.777c-58.1 39.288-136.661 41.347-197.734-.933-9.337-6.467-17.873-13.742-25.664-21.695l-13.383 12.92c8.65 8.852 18.135 16.943 28.516 24.13 67.6 46.803 154.575 44.471 218.843.9l-10.578-15.322zM96.387 341.878l17.27-6.679c-15.18-39.51-15.591-83.209-1.153-123.057 2.624-7.243 5.724-14.174 9.165-20.843l-16.555-8.293c-3.752 7.296-7.135 14.875-10 22.792-15.967 44.062-15.516 92.388 1.273 136.08M164.314 137.495c55.263-42.682 133.193-49.705 196.534-11.6 9.684 5.825 18.624 12.505 26.865 19.906l12.486-13.675c-9.153-8.236-19.084-15.67-29.85-22.146-70.11-42.177-156.39-34.35-217.51 12.975l11.475 14.54z" fill="#C6C7C9"/><path d="M117.646 221.583l17.286 5.666c14.739-44.159 48.658-78.02 93.063-92.898 32.718-10.962 66.648-9.848 96.894.854l5.929-17.045c-33.927-11.962-71.97-13.193-108.654-.901-49.874 16.713-87.967 54.737-104.518 104.324" fill="#C6C7C9"/><path d="M207.618 214.177l11.628 43.53a63.568 63.568 0 0 1 1.264 6.302h.17s.254-3.11 1.094-6.302l10.955-43.53h8.597l-15.59 59.326h-9.691l-10.281-38.486c-1.01-3.78-1.77-8.403-1.77-8.403h-.168s-.76 4.622-1.77 8.403l-10.281 38.486h-9.691l-15.167-59.326h8.594l10.534 43.53a58.209 58.209 0 0 1 1.094 6.302h.17s.42-3.027 1.264-6.302l11.629-43.53h7.416zM251.381 214.177h33.794v7.226h-25.633v18.573h20.852v7.226h-20.852v19.075h27.033v7.226H251.38zM299.646 214.177h8.397v52.1h26.797v7.226h-35.194zM344.895 214.177h8.397v52.1h26.796v7.226h-35.193zM191.29 301.32c-.024.023-2.414 2.389-5.868 2.389-4.436 0-6.753-3.378-6.753-6.714 0-3.794 2.766-6.439 6.725-6.439 3.172 0 5.507 1.97 5.531 1.993l.324.279 2.25-3.242-.195-.198c-.114-.113-2.828-2.813-8.091-2.813-6.418 0-11.257 4.504-11.257 10.475 0 6.166 4.759 10.64 11.32 10.64 5.503 0 8.477-3.186 8.599-3.322l.191-.208-2.47-3.151-.306.311zM213.799 296.995c0 3.829-2.649 6.714-6.16 6.714s-6.159-2.885-6.159-6.714c0-3.674 2.648-6.439 6.16-6.439 3.455 0 6.159 2.827 6.159 6.439m-6.16-10.42c-5.919 0-10.556 4.575-10.556 10.42 0 5.997 4.637 10.696 10.556 10.696 5.923 0 10.56-4.7 10.56-10.696 0-5.845-4.637-10.42-10.56-10.42M240.11 288.586l-4.087 10.315c-.242.633-.51 1.424-.708 2.037a62.815 62.815 0 0 0-.725-2.04l-4.087-10.312h-4.543l-1.728 21.116h4.432l.89-11.743c.023-.362.036-.757.043-1.14.155.443.319.885.473 1.254l3.372 8.123h3.728l3.402-8.123c.145-.352.299-.767.447-1.186.006.362.02.73.04 1.075l.89 11.74h4.405l-1.702-21.116h-4.543zM268.264 288.586l-4.087 10.315c-.241.633-.51 1.424-.708 2.037a62.815 62.815 0 0 0-.724-2.04l-4.087-10.312h-4.543l-1.728 21.116h4.432l.89-11.743c.02-.362.033-.757.04-1.14.157.443.322.885.476 1.254l3.372 8.123h3.728l3.402-8.123c.144-.352.299-.767.446-1.186.007.362.02.73.04 1.075l.89 11.74h4.405l-1.7-21.116h-4.544zM294.239 301.774c0 2.43-1.554 3.885-4.158 3.885-2.585 0-4.129-1.445-4.129-3.859v-13.214h-4.405V301.8c0 4.726 3.445 7.902 8.564 7.902 5.102 0 8.53-3.176 8.53-7.902v-13.214h-4.402v13.188zM318.45 300.724c0 .435.026.955.06 1.45a20.2 20.2 0 0 0-.937-1.648l-7.705-11.94h-4.188v21.116h4.353V297.59c0-.432-.026-.955-.056-1.45.29.559.62 1.166.933 1.648l7.705 11.914h4.158v-21.116h-4.323v12.138z" fill="#6C6E70"/><mask id="aod" fill="#fff"><use xlink:href="#aoc"/></mask><path fill="#6C6E70" mask="url(#aod)" d="M330.818 309.702h4.022v-21.116h-4.022zM339.867 292.493h6.424v17.209h4.246v-17.209h6.424v-3.907h-17.094zM372.152 288.586l-3.19 6.196a30.927 30.927 0 0 0-.933 2.04c-.223-.549-.551-1.326-.915-2.043l-3.222-6.193h-4.92l6.887 12.315v8.8h4.326v-8.8l6.887-12.315h-4.92z"/><path d="M199.44 348s1.81 1.78 4.35 1.78c1.591 0 2.943-.868 2.943-2.435 0-3.581-8.257-2.81-8.257-7.893 0-2.57 2.296-4.612 5.507-4.612 3.162 0 4.828 1.666 4.828 1.666l-1.084 1.918s-1.575-1.427-3.744-1.427c-1.81 0-3.092 1.1-3.092 2.41 0 3.418 8.258 2.507 8.258 7.867 0 2.55-2.028 4.66-5.409 4.66-3.62 0-5.652-2.178-5.652-2.178l1.353-1.755zM214.177 350.928h3.016V334.84h-3.016zM223.227 334.84h2.159v14.13h6.89v1.958h-9.05zM235.293 334.84h2.43l3.973 11.372c.294.864.612 2.21.612 2.21h.047s.318-1.346.612-2.21l4.02-11.372h2.383l-5.903 16.088h-2.248l-5.926-16.088zM253.392 334.84h8.691v1.96h-6.592v5.035h5.362v1.961h-5.362v5.175h6.951v1.957h-9.05zM275.171 342.563c1.821 0 2.954-1.116 2.954-2.918 0-1.186-.475-2.027-1.325-2.482-.448-.23-.992-.366-2.29-.366h-2.688v5.766h3.35zm-5.69-7.723h5.102c1.745 0 2.478.136 3.115.362 1.7.615 2.81 2.233 2.81 4.354 0 2.05-1.182 3.785-3 4.353v.047s.19.202.497.728l3.542 6.244h-2.644l-3.518-6.404h-3.563v6.404h-2.341V334.84zM293.613 349.72c0-5.647 8.32-6.454 8.32-10.172 0-1.568-1.277-2.624-3.054-2.624-2.237 0-3.436 2.02-3.436 2.02l-1.756-1.102s1.539-3.002 5.36-3.002c3.127 0 5.364 1.816 5.364 4.548 0 5.198-8.105 6.009-8.15 9.616h8.413v1.924h-10.942c-.07-.425-.119-.83-.119-1.209M318.319 343.366c0-3.585-.797-6.395-3.6-6.395-2.782 0-3.58 2.81-3.58 6.395 0 3.603.798 6.437 3.58 6.437 2.803 0 3.6-2.834 3.6-6.437m-9.623 0c0-4.753 1.474-8.526 6.023-8.526 4.57 0 6.043 3.773 6.043 8.526 0 4.777-1.473 8.568-6.043 8.568-4.549 0-6.023-3.79-6.023-8.568M324.89 348.968h3.437v-10.394c0-.498.022-1 .022-1h-.042s-.18.366-.751.934l-1.452 1.482-1.32-1.416 3.72-3.734h1.939v14.128h3.391v1.96h-8.943v-1.96zM345.497 338.259c.468-.914.96-1.482.96-1.482v-.047s-.376.07-1.217.07h-7.384v-1.96h11.061v1.548l-7.476 14.54h-2.389l6.445-12.67z" fill="#808184" mask="url(#aod)"/></g></svg>