<?xml version="1.0" encoding="UTF-8"?><svg width="555" height="555" viewBox="0 0 555 555" xmlns="http://www.w3.org/2000/svg" xmlns:xlink="http://www.w3.org/1999/xlink"><title>2017 WELL Community Seal / Silver (Alternate Option 2)</title><defs><path id="apa" d="M.001.545h545.454v545.454H.001z"/><path id="apc" d="M0 544.993h544.993V0H0z"/></defs><g transform="translate(4 6)" fill="none" fill-rule="evenodd"><mask id="apb" fill="#fff"><use xlink:href="#apa"/></mask><path d="M545.456 273.272C545.456 122.648 423.353.544 272.73.544 122.105.544 0 122.648 0 273.272c0 150.624 122.104 272.727 272.728 272.727 150.624 0 272.727-122.103 272.727-272.727" fill="#D0D2D3" mask="url(#apb)"/><path d="M272.498 47.412c-124.111 0-225.086 100.974-225.086 225.084s100.975 225.085 225.086 225.085c124.111 0 225.086-100.974 225.086-225.085 0-124.11-100.975-225.084-225.086-225.084m0 468.367c-134.149 0-243.284-109.135-243.284-243.283 0-134.147 109.135-243.282 243.284-243.282s243.28 109.135 243.28 243.282c0 134.148-109.131 243.283-243.28 243.283" fill="#9C9EA1"/><path fill="#59595B" d="M491.45 58.665h-4.885v-1.244h11.08v1.244h-4.866v12.859h-1.329zM500.8 57.42h1.463l3.738 8.287c.325.722.69 1.726.69 1.726h.042s.386-1.004.711-1.726l3.738-8.286h1.443l1.139 14.103h-1.403l-.79-9.868c-.064-.763-.044-1.967-.044-1.967h-.04s-.427 1.244-.75 1.967l-3.354 7.239h-1.318l-3.358-7.24c-.322-.702-.77-2.006-.77-2.006h-.04s.02 1.244-.04 2.007l-.794 9.868h-1.402l1.138-14.103z"/><path d="M470.446 360.14l-16.88-7.557C416.623 435.689 328.27 483.274 238.71 468.296a201.24 201.24 0 0 1-24.865-5.798l-5.316 17.77a220.849 220.849 0 0 0 27.142 6.328c97.86 16.365 194.404-35.634 234.776-126.455" fill="#9C9EA1"/><path d="M398.354 343.517c-14.728 25.44-37.076 46.741-65.664 59.916-35.49 16.36-75.23 17.946-111.894 4.47l-6.224 17.096c41.179 15.141 85.814 13.357 125.674-5.015 32.13-14.81 57.246-38.76 73.787-67.362l-15.68-9.105zM60.443 226.646l18.086 4.044c19.885-88.552 97.325-152.563 188.327-155.66 8.533-.292 17.142-.041 25.584.741l1.715-18.419a222.302 222.302 0 0 0-27.932-.812c-99.43 3.386-184.05 73.335-205.78 170.106M372.51 100.297c62.135 35.942 100.283 102.816 99.56 174.528l18.513.19c.79-78.354-40.892-151.42-108.782-190.693a220.787 220.787 0 0 0-28.364-13.805l-6.898 17.135a202.634 202.634 0 0 1 25.972 12.645" fill="#9C9EA1"/><g transform="translate(134.989 211.55)" fill="#9C9EA1"><path d="M317.526.984l-17.582 5.685c12.943 40.171 10.93 83.696-5.664 122.556-3.017 7.064-6.488 13.79-10.29 20.234l16.04 9.178c4.146-7.054 7.934-14.408 11.232-22.13 18.353-42.968 20.576-91.098 6.264-135.523M235.841 202.129c-57.817 38.993-135.993 41.037-196.767-.927-9.292-6.418-17.786-13.639-25.54-21.532L.219 192.493c8.607 8.786 18.046 16.816 28.376 23.95 67.269 46.452 153.82 44.138 217.774.893L235.84 202.13z"/></g><g transform="translate(83.613 82.605)" fill="#9C9EA1"><path d="M13.066 259.752l17.236-6.66c-15.15-39.394-15.56-82.966-1.151-122.698 2.62-7.222 5.712-14.133 9.146-20.783l-16.521-8.269c-3.744 7.276-7.121 14.832-9.98 22.726-15.935 43.934-15.484 92.119 1.27 135.684M81.63 55.503C136.851 12.908 214.725 5.9 278.021 43.926c9.677 5.814 18.61 12.48 26.845 19.866l12.477-13.647c-9.146-8.22-19.07-15.638-29.829-22.1C217.456-14.047 131.24-6.236 70.163 40.992l11.466 14.51z"/></g><path d="M116.856 223l17.236 5.675c14.696-44.24 48.518-78.164 92.795-93.069 32.624-10.982 66.456-9.866 96.615.856l5.911-17.077c-33.828-11.984-71.762-13.216-108.34-.903-49.73 16.744-87.714 54.839-104.217 104.518" fill="#9C9EA1"/><path d="M206.994 214.572l11.65 43.61a63.685 63.685 0 0 1 1.266 6.314h.17s.254-3.115 1.096-6.314l10.975-43.61h8.613l-15.619 59.435h-9.709l-10.3-38.556c-1.012-3.788-1.774-8.419-1.774-8.419h-.167s-.762 4.631-1.774 8.419l-10.3 38.556h-9.709l-15.194-59.435h8.61l10.553 43.61a58.316 58.316 0 0 1 1.096 6.314h.17s.421-3.032 1.267-6.314l11.65-43.61h7.43zM251.845 214.572h34.824v7.24h-26.415v18.606h21.488v7.24h-21.488v19.11h27.857v7.24h-36.266zM300.2 214.572h8.411v52.196h26.847v7.24h-35.259zM344.524 214.572h8.412v52.196h26.846v7.24h-35.258zM190.775 302.58c-.023.024-2.298 2.507-5.586 2.507-4.22 0-6.426-3.546-6.426-7.047 0-3.982 2.632-6.758 6.4-6.758 3.02 0 5.241 2.068 5.264 2.092l.308.293 2.142-3.403-.185-.208c-.11-.119-2.692-2.953-7.701-2.953-6.109 0-10.714 4.728-10.714 10.995 0 6.47 4.529 11.168 10.773 11.168 5.238 0 8.069-3.345 8.185-3.488l.182-.218-2.35-3.307-.292.327zM214.99 298.04c0 4.019-2.779 7.047-6.464 7.047-3.685 0-6.464-3.028-6.464-7.047 0-3.856 2.779-6.758 6.464-6.758 3.627 0 6.464 2.967 6.464 6.758m-6.464-10.937c-6.212 0-11.08 4.803-11.08 10.937 0 6.294 4.868 11.226 11.08 11.226 6.216 0 11.083-4.932 11.083-11.226 0-6.134-4.867-10.937-11.083-10.937M240.552 288.11l-4.094 10.335c-.242.634-.51 1.427-.71 2.041a62.93 62.93 0 0 0-.725-2.045l-4.095-10.33h-4.551l-1.731 21.155h4.44l.891-11.765c.024-.362.037-.758.044-1.141.154.443.32.886.474 1.256l3.378 8.138h3.735l3.408-8.138c.145-.353.3-.77.447-1.189.007.363.02.732.04 1.078l.891 11.76h4.414l-1.704-21.154h-4.552zM268.759 288.11l-4.094 10.335c-.242.634-.511 1.427-.71 2.041a62.93 62.93 0 0 0-.726-2.045l-4.094-10.33h-4.551l-1.732 21.155h4.44l.892-11.765c.02-.362.033-.758.04-1.141a26 26 0 0 0 .477 1.256l3.379 8.138h3.734l3.409-8.138c.144-.353.3-.77.447-1.189.007.363.02.732.04 1.078l.891 11.76h4.414l-1.705-21.154h-4.551zM293.775 301.323c0 2.435-1.557 3.892-4.167 3.892-2.589 0-4.136-1.447-4.136-3.866v-13.238h-4.413v13.238c0 4.735 3.451 7.917 8.58 7.917 5.111 0 8.546-3.182 8.546-7.917v-13.238h-4.41v13.212zM318.03 300.271c0 .437.026.957.06 1.454a20.237 20.237 0 0 0-.938-1.652l-7.72-11.962h-4.196v21.155h4.362v-12.134c0-.433-.027-.957-.057-1.454.291.561.621 1.169.935 1.652l7.719 11.936h4.167V288.11h-4.332v12.16z" fill="#6C6E70"/><mask id="apd" fill="#fff"><use xlink:href="#apc"/></mask><path fill="#6C6E70" mask="url(#apd)" d="M329.413 309.266h4.03V288.11h-4.03zM338.48 292.025h6.814v17.24h4.504v-17.24h6.815v-3.914H338.48zM372.839 288.11l-3.195 6.209a30.984 30.984 0 0 0-.936 2.044 27.68 27.68 0 0 0-.916-2.048l-3.228-6.204h-4.93l6.9 12.338v8.817h4.334v-8.817l6.9-12.338h-4.93z"/><path d="M199.685 347.635s1.649 1.782 3.961 1.782c1.45 0 2.682-.868 2.682-2.438 0-3.588-7.521-2.815-7.521-7.908 0-2.575 2.09-4.62 5.016-4.62 2.88 0 4.397 1.668 4.397 1.668l-.988 1.923s-1.434-1.43-3.41-1.43c-1.648 0-2.815 1.101-2.815 2.415 0 3.423 7.52 2.51 7.52 7.88 0 2.555-1.847 4.669-4.926 4.669-3.297 0-5.147-2.183-5.147-2.183l1.231-1.758zM214.572 350.568h2.052V334.45h-2.052zM223.638 334.45h2.163v14.157h6.904v1.961h-9.067zM234.72 334.45h2.434l3.98 11.394c.296.865.614 2.214.614 2.214h.046s.319-1.349.614-2.214l4.027-11.394h2.388l-5.914 16.118h-2.252l-5.937-16.118zM253.86 334.45h9.674v1.965h-7.338v5.044h5.97v1.964h-5.97v5.184h7.738v1.961H253.86zM274.672 342.188c1.824 0 2.959-1.119 2.959-2.923 0-1.189-.476-2.031-1.328-2.487-.448-.23-.993-.367-2.294-.367h-2.693v5.777h3.356zm-5.702-7.738h5.112c1.748 0 2.483.137 3.121.363 1.704.616 2.814 2.238 2.814 4.362 0 2.054-1.183 3.792-3.004 4.361v.047s.19.203.497.73l3.549 6.255h-2.649l-3.525-6.416h-3.57v6.416h-2.345V334.45zM293.148 349.357c0-5.656 7.577-6.465 7.577-10.19 0-1.571-1.163-2.628-2.782-2.628-2.037 0-3.129 2.023-3.129 2.023l-1.6-1.104s1.402-3.008 4.883-3.008c2.848 0 4.885 1.82 4.885 4.557 0 5.208-7.382 6.02-7.424 9.633h7.663v1.928h-9.965a8.285 8.285 0 0 1-.108-1.21M317.095 342.992c0-3.592-.731-6.407-3.306-6.407-2.555 0-3.287 2.815-3.287 6.407 0 3.61.732 6.449 3.287 6.449 2.575 0 3.306-2.84 3.306-6.449m-8.837 0c0-4.762 1.354-8.542 5.531-8.542 4.197 0 5.55 3.78 5.55 8.542 0 4.786-1.353 8.584-5.55 8.584-4.177 0-5.53-3.798-5.53-8.584M325.49 348.604h3.442v-10.412c0-.5.023-1.002.023-1.002h-.042s-.18.366-.753.935l-1.454 1.485-1.322-1.418 3.725-3.742h1.944v14.154h3.397v1.964h-8.96v-1.964zM346.134 337.876c.47-.916.962-1.485.962-1.485v-.047s-.376.07-1.219.07h-7.397v-1.964h11.08v1.551l-7.49 14.567h-2.392l6.456-12.692z" fill="#808184" mask="url(#apd)"/></g></svg>