<?xml version="1.0" encoding="UTF-8"?><svg width="555" height="555" viewBox="0 0 555 555" xmlns="http://www.w3.org/2000/svg" xmlns:xlink="http://www.w3.org/1999/xlink"><title>2017 WELL Community Seal / Gold</title><defs><path id="aha" d="M.001.695h545.304V546H0z"/></defs><g transform="translate(5 5)" fill="none" fill-rule="evenodd"><mask id="ahb" fill="#fff"><use xlink:href="#aha"/></mask><path d="M545.306 273.347C545.306 122.765 423.236.695 272.654.695 122.07.695 0 122.765 0 273.347S122.071 546 272.654 546c150.582 0 272.652-122.07 272.652-272.652" fill-opacity=".5" fill="#D2BD71" mask="url(#ahb)"/><path d="M273.002 50.177C149.034 50.177 48.177 151.034 48.177 275c0 123.966 100.857 224.823 224.825 224.823 123.967 0 224.824-100.857 224.824-224.823 0-123.966-100.857-224.823-224.824-224.823m0 467.823C139.009 518 30 408.992 30 275 30 141.008 139.009 32 273.002 32S516 141.008 516 275c0 133.992-109.005 243-242.998 243" fill="#D1BC70"/><path fill="#59595B" d="M490.85 59.324H486V58h11v1.324h-4.83V73h-1.32zM500.05 58h1.349l3.445 8.813c.3.768.637 1.836.637 1.836h.038s.356-1.068.656-1.836L509.62 58h1.33L512 73h-1.293l-.728-10.496c-.06-.81-.04-2.092-.04-2.092h-.038s-.394 1.324-.69 2.092l-3.093 7.7h-1.215l-3.095-7.7c-.297-.747-.709-2.134-.709-2.134h-.037s.018 1.323-.038 2.134L500.294 73H499l1.05-15z"/><path d="M472 361.502L455.05 354c-37.096 82.497-125.813 129.734-215.744 114.865a204.04 204.04 0 0 1-24.968-5.755L209 480.75a223.921 223.921 0 0 0 27.254 6.28C334.518 503.278 431.461 451.659 472 361.503" fill="#D1BC70"/><path d="M397.357 345c-14.694 25.255-36.99 46.4-65.512 59.478-35.407 16.239-75.056 17.814-111.636 4.436L214 425.886c41.084 15.03 85.616 13.258 125.384-4.98 32.056-14.7 57.113-38.475 73.616-66.867L397.357 345zM60 228.94L78.031 233C97.856 144.08 175.06 79.804 265.784 76.693c8.507-.292 17.09-.04 25.507.745L293 58.943a220.043 220.043 0 0 0-27.847-.816C166.025 61.527 81.663 131.767 60 228.94M372.782 102.853c61.678 36.031 99.548 103.069 98.83 174.956l18.377.191c.784-78.546-40.592-151.792-107.986-191.16A218.27 218.27 0 0 0 353.847 73L347 90.178a200.324 200.324 0 0 1 25.782 12.675" fill="#D1BC70"/><path d="M452.646 214l-17.64 5.698c12.985 40.26 10.966 83.88-5.683 122.826-3.027 7.079-6.509 13.82-10.323 20.278L435.093 372c4.159-7.07 7.96-14.44 11.268-22.18 18.413-43.06 20.643-91.297 6.285-135.82M369.48 415.504c-57.782 39.071-135.91 41.12-196.648-.929-9.286-6.43-17.775-13.666-25.523-21.575L134 405.849c8.602 8.803 18.035 16.85 28.359 23.998 67.228 46.545 153.725 44.226 217.641.895l-10.52-15.238zM96.52 342l16.722-6.643c-14.7-39.292-15.098-82.751-1.117-122.38 2.542-7.204 5.543-14.097 8.875-20.73L104.97 184c-3.633 7.257-6.91 14.793-9.685 22.667-15.46 43.82-15.023 91.88 1.234 135.333M166.504 138.74c55.406-42.448 133.538-49.432 197.043-11.537 9.71 5.793 18.672 12.437 26.935 19.797L403 133.4c-9.177-8.19-19.134-15.584-29.928-22.025C302.781 69.431 216.28 77.215 155 124.28l11.504 14.46z" fill="#D1BC70"/><path d="M117 223.318L134.19 229c14.658-44.288 48.392-78.249 92.552-93.17 32.539-10.994 66.282-9.877 96.362.857L329 119.59c-33.74-11.997-71.574-13.23-108.057-.904-49.6 16.763-87.483 54.898-103.943 104.631" fill="#D1BC70"/><path d="M207.024 216l11.721 44.025c.85 3.312 1.274 6.373 1.274 6.373h.171s.256-3.145 1.103-6.373L232.335 216H241l-15.714 60h-9.768l-10.363-38.923c-1.018-3.824-1.784-8.499-1.784-8.499h-.168s-.767 4.675-1.785 8.5L191.055 276h-9.768L166 216h8.662l10.618 44.025a59.054 59.054 0 0 1 1.103 6.373h.171s.424-3.06 1.274-6.373L199.548 216h7.476zM252 216h33.608v7.308h-25.492v18.784h20.737v7.308h-20.737v19.292H287V276h-35zM300 216h8.35v52.692H335V276h-35zM345 216h8.35v52.692H380V276h-35zM189.377 304.363c-.023.024-2.28 2.489-5.544 2.489-4.19 0-6.38-3.52-6.38-6.996 0-3.952 2.613-6.708 6.353-6.708 2.998 0 5.203 2.053 5.226 2.076l.306.291 2.126-3.377-.184-.207c-.108-.118-2.672-2.931-7.644-2.931-6.064 0-10.636 4.693-10.636 10.914 0 6.424 4.496 11.086 10.695 11.086 5.2 0 8.01-3.32 8.124-3.462l.181-.216-2.334-3.283-.289.324zM215.415 299.856c0 3.99-2.758 6.996-6.417 6.996-3.658 0-6.417-3.006-6.417-6.996 0-3.827 2.76-6.708 6.417-6.708 3.601 0 6.417 2.945 6.417 6.708M208.998 289c-6.167 0-10.998 4.767-10.998 10.856 0 6.248 4.831 11.144 10.998 11.144 6.17 0 11.002-4.896 11.002-11.144 0-6.089-4.831-10.856-11.002-10.856M239.79 289l-4.064 9.77c-.24.6-.507 1.349-.704 1.93-.207-.581-.48-1.333-.721-1.933L230.237 289h-4.519L224 309h4.408l.884-11.122c.024-.343.037-.717.044-1.08.153.42.317.839.47 1.188l3.354 7.694h3.707l3.384-7.694c.143-.333.297-.727.443-1.124.007.343.02.692.04 1.02L241.62 309H246l-1.692-20h-4.518zM267.79 289l-4.064 9.77c-.24.6-.507 1.349-.704 1.93-.207-.581-.48-1.333-.721-1.933L258.237 289h-4.519L252 309h4.408l.884-11.122c.02-.343.034-.717.04-1.08.157.42.32.839.474 1.188l3.354 7.694h3.707l3.384-7.694c.143-.333.297-.727.443-1.124.007.343.02.692.04 1.02L269.62 309H274l-1.692-20h-4.518zM293.622 301.491c0 2.302-1.545 3.68-4.135 3.68-2.57 0-4.106-1.369-4.106-3.655V289H281v12.516c0 4.476 3.426 7.484 8.517 7.484 5.074 0 8.483-3.008 8.483-7.484V289h-4.378v12.491zM318.7 300.497c0 .412.026.904.059 1.374a18.91 18.91 0 0 0-.93-1.562L310.165 289H306v20h4.33v-11.471c0-.41-.027-.905-.056-1.375.288.53.616 1.105.927 1.562L318.864 309H323v-20h-4.3v11.497zM330 309h4v-20h-4zM339 292.701h7.14V309h4.72v-16.299H358V289h-19zM373.835 289l-3.347 5.869c-.386.68-.74 1.416-.981 1.933a24.968 24.968 0 0 0-.96-1.936L365.165 289H360l7.23 11.665V309h4.54v-8.335L379 289h-5.165z" fill="#6C6E70"/><path d="M213.282 335c3.89 0 5.913 1.979 5.913 1.979l-1.15 1.722s-1.82-1.606-4.576-1.606c-3.82 0-6.123 2.82-6.123 6.335 0 3.821 2.578 6.452 5.985 6.452 2.806 0 4.6-2.052 4.6-2.052v-2.371h-2.648v-2.006H220v8.268h-1.997v-1.025c0-.349.02-.698.02-.698h-.047s-1.77 2.002-4.993 2.002c-4.373 0-7.983-3.492-7.983-8.523 0-4.752 3.545-8.477 8.282-8.477M232.513 349.879c3.375 0 6.093-2.793 6.093-6.497 0-3.584-2.718-6.287-6.093-6.287-3.378 0-6.12 2.703-6.12 6.287 0 3.704 2.742 6.497 6.12 6.497m0-14.879c4.784 0 8.487 3.657 8.487 8.382 0 4.844-3.703 8.618-8.487 8.618-4.784 0-8.513-3.774-8.513-8.618 0-4.725 3.73-8.382 8.513-8.382M246 335h2.146v14.93H255V352h-9zM265.987 349.927c3.49 0 5.775-2.262 5.775-6.453 0-4.166-2.307-6.404-5.775-6.404h-2.808v12.857h2.808zM261 335h5.141c4.743 0 7.859 3.108 7.859 8.474 0 5.394-3.116 8.526-7.859 8.526H261v-17zM287 350.722c0-5.971 8.273-6.823 8.273-10.752 0-1.657-1.266-2.769-3.038-2.769-2.221 0-3.416 2.13-3.416 2.13l-1.747-1.16s1.532-3.171 5.33-3.171c3.11 0 5.335 1.917 5.335 4.804 0 5.495-8.058 6.347-8.106 10.157H298V352h-10.88a8.645 8.645 0 0 1-.12-1.278M310.772 343.477c0-3.562-.724-6.359-3.283-6.359-2.537 0-3.264 2.797-3.264 6.359 0 3.588.727 6.405 3.264 6.405 2.559 0 3.283-2.817 3.283-6.405m-8.772 0c0-4.73 1.344-8.477 5.489-8.477 4.164 0 5.511 3.748 5.511 8.477 0 4.752-1.347 8.523-5.511 8.523-4.145 0-5.489-3.771-5.489-8.523M319.11 349.927h3.414V338.95c0-.533.025-1.062.025-1.062h-.047s-.175.385-.744.986l-1.445 1.565L319 338.95l3.7-3.95h1.929v14.927H328V352h-8.89v-2.073zM339.598 338.61c.466-.96.956-1.564.956-1.564v-.049s-.373.073-1.212.073H332V335h11v1.636L335.565 352h-2.377l6.41-13.39z" fill="#58585B"/></g></svg>