<?xml version="1.0" encoding="UTF-8"?><svg width="555" height="555" viewBox="0 0 555 555" xmlns="http://www.w3.org/2000/svg" xmlns:xlink="http://www.w3.org/1999/xlink"><title>2017 WELL Community Seal / Gold (Silver Colour)</title><defs><path id="aja" d="M.001.581H545.42V546H0z"/><path id="ajc" d="M0 545h545V0H0z"/></defs><g transform="translate(5 4)" fill="none" fill-rule="evenodd"><mask id="ajb" fill="#fff"><use xlink:href="#aja"/></mask><path d="M545.42 273.29C545.42 122.676 423.325.58 272.71.58 122.098.58.002 122.677.002 273.29.001 423.904 122.097 546 272.711 546c150.614 0 272.71-122.096 272.71-272.71" fill="#E5E6E7" mask="url(#ajb)"/><path d="M272.502 48.214C148.279 48.214 47.214 149.28 47.214 273.5S148.28 498.786 272.502 498.786c124.222 0 225.287-101.065 225.287-225.286S396.724 48.214 272.502 48.214m0 468.786C138.233 517 29 407.768 29 273.5S138.233 30 272.502 30C406.77 30 516 139.232 516 273.5S406.77 517 272.502 517" fill="#C6C7C9"/><path fill="#59595B" d="M492.29 58.235H487V57h12v1.235h-5.27V71h-1.44zM501.13 57h1.453l3.71 8.225c.324.718.687 1.714.687 1.714h.04s.384-.996.707-1.714l3.71-8.225h1.433L514 71h-1.393l-.783-9.796c-.064-.757-.044-1.953-.044-1.953h-.04s-.424 1.236-.744 1.953l-3.33 7.186h-1.308l-3.334-7.186c-.32-.697-.764-1.992-.764-1.992h-.04s.02 1.235-.04 1.992L501.393 71H500l1.13-14z"/><path d="M471 359.558L454.114 352C417.16 435.103 328.78 482.688 239.19 467.71a201.36 201.36 0 0 1-24.872-5.798L209 479.682a220.98 220.98 0 0 0 27.15 6.327c97.89 16.365 194.465-35.633 234.85-126.451" fill="#C6C7C9"/><path d="M398.278 344c-14.768 25.255-37.176 46.4-65.84 59.478-35.586 16.239-75.434 17.814-112.197 4.436L214 424.886c41.29 15.03 86.046 13.258 126.014-4.98 32.217-14.7 57.4-38.475 73.986-66.867L398.278 344zM60 225.962L78.031 230C97.856 141.588 175.06 77.68 265.784 74.586c8.507-.29 17.09-.04 25.507.741L293 56.937a221.302 221.302 0 0 0-27.847-.81C166.025 59.506 81.663 129.344 60 225.961M371.782 99.853c61.678 36.031 99.548 103.069 98.83 174.956l18.377.191c.784-78.546-40.592-151.792-107.986-191.16A218.27 218.27 0 0 0 352.847 70L346 87.178a200.324 200.324 0 0 1 25.782 12.675" fill="#C6C7C9"/><path d="M452.646 213l-17.64 5.662c12.985 40.004 10.966 83.35-5.683 122.048-3.027 7.035-6.509 13.733-10.323 20.15l16.093 9.14c4.159-7.024 7.96-14.348 11.268-22.039 18.413-42.789 20.643-90.72 6.285-134.961M370.48 413.504c-57.782 39.071-135.91 41.12-196.648-.929-9.286-6.43-17.775-13.666-25.523-21.575L135 403.849c8.602 8.803 18.035 16.85 28.359 23.998 67.228 46.545 153.725 44.226 217.641.895l-10.52-15.238zM97.196 341l17.627-6.643c-15.494-39.292-15.914-82.751-1.177-122.38 2.679-7.204 5.842-14.097 9.354-20.73L106.103 183c-3.829 7.257-7.283 14.793-10.208 22.667-16.296 43.82-15.835 91.88 1.3 135.333M164.457 137.74c55.183-42.448 133-49.432 196.25-11.537 9.67 5.793 18.596 12.437 26.825 19.797L400 132.4c-9.14-8.19-19.057-15.584-29.807-22.025C300.185 68.431 214.03 76.215 153 123.28l11.457 14.46z" fill="#C6C7C9"/><path d="M117 223.318L134.271 229c14.727-44.288 48.62-78.249 92.989-93.17 32.692-10.994 66.595-9.877 96.816.857L330 119.59c-33.9-11.997-71.912-13.23-108.567-.904C171.6 135.45 133.537 173.585 117 223.318" fill="#C6C7C9"/><path d="M206.477 215l11.565 43.29a63.219 63.219 0 0 1 1.257 6.268h.169s.252-3.092 1.088-6.267L231.45 215H240l-15.504 59h-9.638l-10.225-38.274c-1.005-3.76-1.76-8.357-1.76-8.357h-.167s-.756 4.597-1.76 8.357L190.72 274h-9.638L166 215h8.546l10.477 43.29a57.89 57.89 0 0 1 1.088 6.268h.17s.417-3.01 1.256-6.267L199.102 215h7.375zM251 215h34.569v7.186h-26.221v18.471h21.33v7.187h-21.33v18.97H287V274h-36zM300 215h8.35v51.814H335V274h-35zM344 215h8.35v51.814H379V274h-35zM191.24 303.363c-.025.024-2.402 2.489-5.837 2.489-4.411 0-6.715-3.52-6.715-6.996 0-3.952 2.75-6.708 6.687-6.708 3.155 0 5.477 2.053 5.501 2.076l.322.291 2.238-3.377-.194-.207c-.114-.118-2.812-2.931-8.047-2.931-6.383 0-11.195 4.693-11.195 10.914 0 6.424 4.733 11.086 11.258 11.086 5.473 0 8.43-3.32 8.552-3.462l.19-.216-2.456-3.283-.305.324zM215.415 298.856c0 3.99-2.758 6.996-6.417 6.996-3.658 0-6.417-3.006-6.417-6.996 0-3.827 2.76-6.708 6.417-6.708 3.601 0 6.417 2.945 6.417 6.708M208.998 288c-6.167 0-10.998 4.767-10.998 10.856 0 6.248 4.831 11.144 10.998 11.144 6.17 0 11.002-4.896 11.002-11.144 0-6.089-4.831-10.856-11.002-10.856M240.79 288l-4.064 10.258c-.24.63-.507 1.417-.704 2.027-.207-.61-.48-1.4-.721-2.03L231.237 288h-4.519L225 309h4.408l.884-11.678c.024-.36.037-.753.044-1.133.153.44.317.88.47 1.246l3.354 8.079h3.707l3.384-8.079a26 26 0 0 0 .443-1.18c.007.36.02.727.04 1.07L242.62 309H247l-1.692-21h-4.518zM267.79 288l-4.064 10.258c-.24.63-.507 1.417-.704 2.027-.207-.61-.48-1.4-.721-2.03L258.237 288h-4.519L252 309h4.408l.884-11.678c.02-.36.034-.753.04-1.133.157.44.32.88.474 1.246l3.354 8.079h3.707l3.384-8.079a26 26 0 0 0 .443-1.18c.007.36.02.727.04 1.07L269.62 309H274l-1.692-21h-4.518zM293.622 301.74c0 2.532-1.545 4.048-4.135 4.048-2.57 0-4.106-1.505-4.106-4.02V288H281v13.768c0 4.923 3.426 8.232 8.517 8.232 5.074 0 8.483-3.309 8.483-8.232V288h-4.378v13.74zM318.447 300.071c0 .434.028.95.063 1.444a19.82 19.82 0 0 0-.986-1.64L309.411 288H305v21h4.584v-12.045c0-.43-.028-.95-.059-1.443.306.557.653 1.16.982 1.64L318.621 309H323v-21h-4.553v12.071z" fill="#6C6E70"/><mask id="ajd" fill="#fff"><use xlink:href="#ajc"/></mask><path fill="#6C6E70" mask="url(#ajd)" d="M329 309h4v-21h-4zM339 291.886h6.764V309h4.472v-17.114H357V288h-18zM372.835 288l-3.347 6.162c-.386.714-.74 1.487-.981 2.03a26.776 26.776 0 0 0-.96-2.033L364.165 288H359l7.23 12.248V309h4.54v-8.752L378 288h-5.165z"/><path d="M213.282 334c3.89 0 5.913 1.979 5.913 1.979l-1.15 1.722s-1.82-1.606-4.576-1.606c-3.82 0-6.123 2.82-6.123 6.335 0 3.821 2.578 6.452 5.985 6.452 2.806 0 4.6-2.052 4.6-2.052v-2.371h-2.648v-2.006H220v8.268h-1.997v-1.025c0-.349.02-.698.02-.698h-.047s-1.77 2.002-4.993 2.002c-4.373 0-7.983-3.492-7.983-8.523 0-4.752 3.545-8.477 8.282-8.477M233.513 348.879c3.375 0 6.093-2.793 6.093-6.497 0-3.584-2.718-6.287-6.093-6.287-3.378 0-6.12 2.703-6.12 6.287 0 3.704 2.742 6.497 6.12 6.497m0-14.879c4.784 0 8.487 3.657 8.487 8.382 0 4.844-3.703 8.618-8.487 8.618-4.784 0-8.513-3.774-8.513-8.618 0-4.725 3.73-8.382 8.513-8.382M246 334h2.385v14.93H256V351h-10zM266.371 348.927c3.758 0 6.219-2.262 6.219-6.453 0-4.166-2.485-6.404-6.219-6.404h-3.025v12.857h3.025zM261 334h5.537c5.107 0 8.463 3.108 8.463 8.474 0 5.394-3.356 8.526-8.463 8.526H261v-17zM287 349.722c0-5.971 8.273-6.823 8.273-10.752 0-1.657-1.266-2.769-3.038-2.769-2.221 0-3.416 2.13-3.416 2.13l-1.747-1.16s1.532-3.171 5.33-3.171c3.11 0 5.335 1.917 5.335 4.804 0 5.495-8.058 6.347-8.106 10.157H298V351h-10.88a8.645 8.645 0 0 1-.12-1.278M312.57 342.477c0-3.562-.79-6.359-3.582-6.359-2.767 0-3.56 2.797-3.56 6.359 0 3.588.793 6.405 3.56 6.405 2.791 0 3.581-2.817 3.581-6.405m-9.569 0c0-4.73 1.466-8.477 5.988-8.477 4.542 0 6.012 3.748 6.012 8.477 0 4.752-1.47 8.523-6.012 8.523-4.522 0-5.988-3.771-5.988-8.523M319.122 348.927h3.794V337.95c0-.533.028-1.062.028-1.062h-.052s-.195.385-.827.986l-1.606 1.565L319 337.95l4.11-3.95h2.144v14.927H329V351h-9.878v-2.073zM338.598 337.61c.466-.96.956-1.564.956-1.564v-.049s-.373.073-1.212.073H331V334h11v1.636L334.565 351h-2.377l6.41-13.39z" fill="#808184" mask="url(#ajd)"/></g></svg>