<?xml version="1.0" encoding="UTF-8"?><svg width="555" height="555" viewBox="0 0 555 555" xmlns="http://www.w3.org/2000/svg" xmlns:xlink="http://www.w3.org/1999/xlink"><title>2017 WELL Community Seal / Platinium (Dark Option)</title><defs><path id="ama" d="M.001.157h541.842V542H0z"/><path id="amc" d="M0 542h542V0H0z"/></defs><g transform="translate(5 5)" fill="none" fill-rule="evenodd"><g transform="translate(0 1)"><mask id="amb" fill="#fff"><use xlink:href="#ama"/></mask><path d="M541.844 271.078C541.844 121.452 420.549.157 270.923.157 121.296.157 0 121.452 0 271.078.001 420.704 121.296 542 270.923 542c149.626 0 270.92-121.295 270.92-270.92" fill="#B1B3B5" mask="url(#amb)"/></g><path d="M270.502 47.065C147.3 47.065 47.065 147.299 47.065 270.5c0 123.201 100.235 223.435 223.437 223.435 123.202 0 223.437-100.234 223.437-223.435 0-123.201-100.235-223.435-223.437-223.435m0 464.935C137.336 512 29 403.665 29 270.5 29 137.335 137.336 29 270.502 29 403.667 29 512 137.335 512 270.5 512 403.665 403.667 512 270.502 512M487.85 58.235H483V57h11v1.235h-4.83V71h-1.32zM497.13 57h1.453l3.71 8.225c.324.718.687 1.714.687 1.714h.04s.384-.996.707-1.714l3.71-8.225h1.433L510 71h-1.393l-.783-9.796c-.064-.757-.044-1.953-.044-1.953h-.04s-.424 1.236-.744 1.953l-3.33 7.186h-1.308l-3.334-7.186c-.32-.697-.764-1.992-.764-1.992h-.04s.02 1.235-.04 1.992L497.393 71H496l1.13-14z" fill="#808184"/><path d="M468 357.502L451.243 350c-36.672 82.497-124.378 129.734-213.283 114.865a199.766 199.766 0 0 1-24.683-5.755L208 476.75a219.23 219.23 0 0 0 26.943 6.28c97.143 16.247 192.98-35.372 233.057-125.528" fill="#808184"/><path d="M395.435 342c-14.62 24.977-36.804 45.89-65.182 58.824-35.23 16.06-74.679 17.619-111.075 4.388L213 421.997c40.877 14.865 85.185 13.113 124.753-4.924 31.896-14.54 56.827-38.054 73.247-66.134L395.435 342zM60 225.986L77.877 230c19.654-87.904 96.195-151.445 186.14-154.52a200.11 200.11 0 0 1 25.288.736L291 57.932a218.779 218.779 0 0 0-27.608-.806C165.115 60.486 81.478 129.924 60 225.986M369.782 100.708c61.678 35.855 99.548 102.566 98.83 174.102l18.377.19c.784-78.163-40.592-151.051-107.986-190.228A218.715 218.715 0 0 0 350.847 71L344 88.094a200.733 200.733 0 0 1 25.782 12.614" fill="#808184"/><path d="M449.646 211l-17.64 5.662c12.985 40.004 10.966 83.35-5.683 122.048-3.027 7.035-6.509 13.733-10.323 20.15l16.093 9.14c4.159-7.024 7.96-14.348 11.268-22.039 18.413-42.789 20.643-90.72 6.285-134.961M368.522 410.504c-57.546 39.071-135.357 41.12-195.847-.929-9.249-6.43-17.703-13.666-25.42-21.575L134 400.849c8.567 8.803 17.962 16.85 28.244 23.998 66.954 46.545 153.1 44.226 216.756.895l-10.478-15.238zM95.52 340l16.722-6.6c-14.7-39.044-15.098-82.229-1.117-121.607 2.542-7.158 5.543-14.007 8.875-20.598L103.97 183c-3.633 7.21-6.91 14.7-9.685 22.524C78.825 249.066 79.262 296.822 95.52 340M163.457 136.87c55.183-41.773 133-48.646 196.25-11.353 9.67 5.701 18.596 12.24 26.825 19.483L399 131.615c-9.14-8.06-19.057-15.336-29.807-21.674C299.185 68.662 213.03 76.322 152 122.64l11.457 14.23z" fill="#808184"/><path d="M116 221.366L133.11 227c14.588-43.916 48.162-77.591 92.114-92.387 32.386-10.902 65.97-9.794 95.908.85L327 118.51c-33.58-11.897-71.237-13.12-107.547-.897-49.366 16.622-87.071 54.437-103.453 103.752" fill="#808184"/><path d="M204.93 213l11.409 44.025a66.061 66.061 0 0 1 1.24 6.373h.166s.249-3.145 1.073-6.373L229.566 213H238l-15.295 60h-9.507l-10.087-38.923c-.991-3.824-1.737-8.499-1.737-8.499h-.164s-.745 4.675-1.737 8.5L189.387 273h-9.508L165 213h8.431l10.335 44.025a60.54 60.54 0 0 1 1.073 6.373h.167s.412-3.06 1.24-6.373L197.654 213h7.276zM249 213h34.569v7.308h-26.221v18.784h21.33v7.308h-21.33v19.292H285V273h-36zM298 213h8.35v52.692H333V273h-35zM342 213h8.35v52.692H377V273h-35zM189.377 300.363c-.023.024-2.28 2.489-5.544 2.489-4.19 0-6.38-3.52-6.38-6.996 0-3.952 2.613-6.708 6.353-6.708 2.998 0 5.203 2.053 5.226 2.076l.306.291 2.126-3.377-.184-.207c-.108-.118-2.672-2.931-7.644-2.931-6.064 0-10.636 4.693-10.636 10.914 0 6.424 4.496 11.086 10.695 11.086 5.2 0 8.01-3.32 8.124-3.462l.181-.216-2.334-3.283-.289.324zM214.415 295.856c0 3.99-2.758 6.996-6.417 6.996-3.658 0-6.417-3.006-6.417-6.996 0-3.827 2.76-6.708 6.417-6.708 3.601 0 6.417 2.945 6.417 6.708M207.998 285c-6.167 0-10.998 4.767-10.998 10.856 0 6.248 4.831 11.144 10.998 11.144 6.17 0 11.002-4.896 11.002-11.144 0-6.089-4.831-10.856-11.002-10.856M238.79 287l-4.064 10.258c-.24.63-.507 1.417-.704 2.027-.207-.61-.48-1.4-.721-2.03L229.237 287h-4.519L223 308h4.408l.884-11.678c.024-.36.037-.753.044-1.133.153.44.317.88.47 1.246l3.354 8.079h3.707l3.384-8.079a26 26 0 0 0 .443-1.18c.007.36.02.727.04 1.07L240.62 308H245l-1.692-21h-4.518zM266.79 287l-4.064 10.258c-.24.63-.507 1.417-.704 2.027-.207-.61-.48-1.4-.721-2.03L257.237 287h-4.519L251 308h4.408l.884-11.678c.02-.36.034-.753.04-1.133.157.44.32.88.474 1.246l3.354 8.079h3.707l3.384-8.079a26 26 0 0 0 .443-1.18c.007.36.02.727.04 1.07L268.62 308H273l-1.692-21h-4.518zM290.622 300.116c0 2.417-1.545 3.863-4.135 3.863-2.57 0-4.106-1.436-4.106-3.837V287H278v13.142c0 4.7 3.426 7.858 8.517 7.858 5.074 0 8.483-3.158 8.483-7.858V287h-4.378v13.116zM315.7 299.071c0 .434.026.95.059 1.444-.285-.554-.62-1.16-.93-1.64L307.165 287H303v21h4.33v-12.045c0-.43-.027-.95-.056-1.443a20.5 20.5 0 0 0 .927 1.64L315.864 308H320v-21h-4.3v12.071z" fill="#404042"/><mask id="amd" fill="#fff"><use xlink:href="#amc"/></mask><path fill="#404042" mask="url(#amd)" d="M327 308h4v-21h-4zM337 290.886h6.764V308h4.472v-17.114H355V287h-18zM370.107 287l-3.171 6.162c-.366.714-.701 1.487-.93 2.03a27.476 27.476 0 0 0-.909-2.033L361.893 287H357l6.849 12.248V308h4.302v-8.752L375 287h-4.893z"/><path d="M181.546 340.643c1.95 0 3.14-1.276 3.14-3.321 0-2.05-1.19-3.252-3.117-3.252h-3.298v6.573h3.275zM176 332h5.912c2.958 0 5.088 2.097 5.088 5.322 0 3.228-2.13 5.394-5.088 5.394h-3.641V349H176v-17zM193 332h2.387v14.93H203V349h-10zM211.979 334.334s-.366 1.54-.64 2.41l-1.81 5.394h4.896l-1.783-5.394c-.275-.87-.618-2.41-.618-2.41h-.045zm3.043 9.777h-6.087l-1.6 4.889H205l5.813-17h2.377l5.81 17h-2.355l-1.623-4.889zM225.808 334.07H220V332h14v2.07h-5.815V349h-2.377zM238 349h2v-17h-2zM247 332h2.08l6.67 11.055c.551.911 1.252 2.455 1.252 2.455h.045s-.149-1.52-.149-2.455V332H259v17h-2.062l-6.69-11.03c-.552-.936-1.253-2.476-1.253-2.476h-.042s.149 1.512.149 2.475V349H247v-17zM266 332h2.136v10.796c0 2.56 1.513 4.05 3.84 4.05 2.354 0 3.885-1.49 3.885-4.094V332H278v10.796c0 3.719-2.438 6.204-6 6.204s-6-2.485-6-6.204V332zM285.349 332h2.461l3.835 9.198c.382.939.828 2.29.828 2.29h.05s.45-1.351.829-2.29l3.834-9.198h2.462L301 349h-2.323l-.828-10.714c-.068-1.039-.024-2.504-.024-2.504h-.044s-.5 1.565-.903 2.504l-3.337 7.657h-2.082l-3.317-7.657c-.379-.915-.9-2.555-.9-2.555h-.047s.024 1.516-.047 2.555L286.343 349H284l1.349-17zM313 347.722c0-5.971 8.273-6.823 8.273-10.752 0-1.657-1.266-2.769-3.038-2.769-2.221 0-3.416 2.13-3.416 2.13l-1.747-1.16s1.532-3.171 5.33-3.171c3.11 0 5.335 1.917 5.335 4.804 0 5.495-8.058 6.347-8.106 10.157H324V349h-10.88a8.645 8.645 0 0 1-.12-1.278M336.772 340.477c0-3.562-.724-6.359-3.283-6.359-2.537 0-3.264 2.797-3.264 6.359 0 3.588.727 6.405 3.264 6.405 2.559 0 3.283-2.817 3.283-6.405m-8.772 0c0-4.73 1.344-8.477 5.489-8.477 4.164 0 5.511 3.748 5.511 8.477 0 4.752-1.347 8.523-5.511 8.523-4.145 0-5.489-3.771-5.489-8.523M345.122 346.927h3.794V335.95c0-.533.028-1.062.028-1.062h-.052s-.195.385-.827.986l-1.606 1.565L345 335.95l4.11-3.95h2.144v14.927H355V349h-9.878v-2.073zM364.598 335.61c.466-.96.956-1.564.956-1.564v-.049s-.373.073-1.212.073H357V332h11v1.636L360.565 349h-2.377l6.41-13.39z" fill="#58585B" mask="url(#amd)"/></g></svg>