<?xml version="1.0" encoding="UTF-8"?><svg width="13" height="13" viewBox="0 0 13 13" xmlns="http://www.w3.org/2000/svg"><title></title><path d="M2.123 12.67a.211.211 0 0 1-.09-.02.248.248 0 0 1-.126-.13.232.232 0 0 1-.019-.093V6.83H.242c-.081 0-.122-.023-.122-.069 0-.032.019-.068.056-.107L6.007.738a.225.225 0 0 1 .17-.068c.068 0 .125.023.169.068l5.718 5.917c.037.04.056.072.056.098 0 .052-.04.078-.122.078h-1.646v5.596a.237.237 0 0 1-.07.17.222.222 0 0 1-.165.073H7.766a.222.222 0 0 1-.165-.073.237.237 0 0 1-.07-.17v-3.65H4.709v3.65a.237.237 0 0 1-.07.17.222.222 0 0 1-.165.073h-2.35z" fill="#6A7D92" fill-rule="evenodd"/></svg>