<?xml version="1.0" encoding="utf-8"?><svg width="140" height="20" viewBox="0 0 140 20" xmlns="http://www.w3.org/2000/svg"><path d="M14.5 17.983l.128.86A1.007 1.007 0 0 1 13.633 20H1.007a1.008 1.008 0 0 1-.92-1.418l3.215-7.25c.115-.26.115-.558 0-.819L.088 3.263a1.008 1.008 0 0 1 .92-1.418h8.04l-.105-.683C8.85.552 9.32.002 9.935 0h120.13c.616.002 1.086.552.992 1.162l-.105.683h8.041c.728 0 1.215.752.919 1.419l-3.214 7.249c-.115.26-.115.559 0 .82l3.214 7.249a1.008 1.008 0 0 1-.919 1.418h-12.626a1.008 1.008 0 0 1-.995-1.158l.128-.86h-111z"/></svg>