<?xml version="1.0" encoding="utf-8"?><svg data-name="Layer 1" xmlns="http://www.w3.org/2000/svg" viewBox="0 0 14 15" width="14" height="15"><title>clipboard</title><path d="M2 4a1 1 0 0 1 1-1h1a1 1 0 0 0 1-1 1 1 0 0 1 .3-.7 1 1 0 0 1 1.41 0A1 1 0 0 1 7 2a1 1 0 0 0 1 1h1a1 1 0 0 1 1 1H2zm9 10H1V5h10v3h1V3a1 1 0 0 0-1-1H8a2 2 0 1 0-4 0H1a1 1 0 0 0-1 1v11a1 1 0 0 0 1 1h10a1 1 0 0 0 1-1v-2h-1v2zm-9-3h2.5v-1H2v1zm2.5-3H2v1h2.5V8zM9 9V7l-3 3 3 3v-2h5V9H9zM7 6H2v1h5V6zm-5 7h4v-1H2v1z" fill="#405770" fill-rule="evenodd"/></svg>