<?xml version="1.0" encoding="UTF-8"?><svg width="11" height="14" viewBox="0 0 11 14" xmlns="http://www.w3.org/2000/svg"><path d="M.167 14v-1.038c.319-.055.593-.181.822-.38a.964.964 0 0 0 .344-.764V2.17c0-.187-.002-.319-.006-.397a1.798 1.798 0 0 0-.04-.28.46.46 0 0 0-.1-.227 1.52 1.52 0 0 0-.198-.158A1.053 1.053 0 0 0 .662.962L.167.829V0l5.495.012c.443 0 .892.08 1.347.239.455.16.875.38 1.26.665.385.284.698.65.94 1.097.24.447.361.93.361 1.452 0 .288-.033.566-.1.834a3.06 3.06 0 0 1-.256.7 4.59 4.59 0 0 1-.344.554c-.124.171-.25.315-.38.432a6.062 6.062 0 0 1-.35.297 2.172 2.172 0 0 1-.262.181l-.093.059.105.035a5.969 5.969 0 0 1 .665.286c.132.066.288.155.467.268a4.262 4.262 0 0 1 .962.828c.16.183.294.373.403.572.109.198.198.426.268.682a3.405 3.405 0 0 1-.73 3.062 5.13 5.13 0 0 1-.863.77c-.322.23-.664.413-1.026.55a7.49 7.49 0 0 1-1.056.314A4.638 4.638 0 0 1 6 14H.167zm3.5-8.167h1.621c.607 0 1.114-.188 1.523-.566.408-.377.612-.853.612-1.429 0-.319-.033-.593-.099-.822a1.835 1.835 0 0 0-.344-.648c-.163-.202-.406-.355-.73-.46-.322-.106-.724-.158-1.207-.158H3.667v4.083zm0 5.834h2.52c.622 0 1.092-.197 1.411-.59.32-.392.479-.9.479-1.522 0-.7-.243-1.3-.73-1.802C6.862 7.25 6.253 7 5.522 7H3.667v4.667z" fill-rule="evenodd"/></svg>