<?xml version="1.0" encoding="UTF-8"?><svg width="12" height="12" viewBox="0 0 12 12" xmlns="http://www.w3.org/2000/svg"><path d="M2.278 11.902l-2.18-2.18A.305.305 0 0 1 0 9.502c0-.082.033-.155.098-.22L3.368 6 .097 2.718A.305.305 0 0 1 0 2.498c0-.082.033-.155.098-.22l2.18-2.18A.305.305 0 0 1 2.498 0c.082 0 .155.033.22.098L6 3.368 9.282.085a.326.326 0 0 1 .44 0l2.18 2.192a.305.305 0 0 1 .098.22.305.305 0 0 1-.098.22L8.632 6l3.27 3.282a.305.305 0 0 1 .098.22.305.305 0 0 1-.098.22l-2.18 2.18a.305.305 0 0 1-.22.098.305.305 0 0 1-.22-.098L6 8.632l-3.282 3.27a.305.305 0 0 1-.22.098.305.305 0 0 1-.22-.098z" fill-rule="evenodd"/></svg>