<?xml version="1.0" encoding="UTF-8"?><svg width="14" height="14" viewBox="0 0 14 14" xmlns="http://www.w3.org/2000/svg"><path d="M7 13.685a7.37 7.37 0 0 1-.863-.058l-.444-1.762-.058-.023a5.184 5.184 0 0 1-1.097-.455l-.058-.035-1.563.945a7.221 7.221 0 0 1-1.214-1.225l.934-1.564-.035-.058a4.826 4.826 0 0 1-.444-1.085l-.023-.07-1.762-.443a6.193 6.193 0 0 1-.07-.864c0-.256.024-.54.07-.851l1.762-.444.023-.07a4.85 4.85 0 0 1 .444-1.085l.035-.058-.934-1.563a6.524 6.524 0 0 1 1.225-1.225l1.552.933.058-.023c.35-.195.716-.346 1.097-.455l.058-.012.444-1.773A7.63 7.63 0 0 1 7 .303c.257 0 .544.02.863.059l.444 1.773.058.012c.381.109.747.26 1.097.455l.058.023 1.563-.933c.475.373.88.781 1.214 1.225l-.934 1.563.035.058c.195.343.346.704.455 1.085l.012.07 1.773.444c.04.334.059.618.059.851 0 .265-.02.553-.059.864l-1.773.443-.012.07a5.812 5.812 0 0 1-.455 1.085l-.035.058.934 1.564a7.242 7.242 0 0 1-1.214 1.225l-1.563-.945-.058.035a4.867 4.867 0 0 1-1.097.455l-.058.023-.444 1.762a7.63 7.63 0 0 1-.863.058zm0-4.188c.692 0 1.283-.245 1.773-.735s.735-1.08.735-1.768a2.41 2.41 0 0 0-.735-1.767A2.417 2.417 0 0 0 7 4.492c-.692 0-1.283.245-1.773.735a2.41 2.41 0 0 0-.735 1.767c0 .689.245 1.278.735 1.768s1.08.735 1.773.735z" fill-rule="evenodd"/></svg>