<?xml version="1.0" encoding="UTF-8"?><svg width="14" height="15" viewBox="0 0 14 15" xmlns="http://www.w3.org/2000/svg"><path d="M2.625 14.977a.251.251 0 0 1-.192-.082c-.051-.054-.069-.124-.053-.21l.537-3.208H.875a.251.251 0 0 1-.193-.082c-.05-.054-.068-.124-.052-.21l.292-1.75a.343.343 0 0 1 .122-.21.333.333 0 0 1 .216-.082h2.042l.396-2.333H1.657a.247.247 0 0 1-.199-.082c-.046-.054-.062-.124-.046-.21l.291-1.75a.291.291 0 0 1 .065-.146.45.45 0 0 1 .122-.104.296.296 0 0 1 .152-.041h2.041l.537-3.209a.343.343 0 0 1 .122-.21.333.333 0 0 1 .216-.081h1.75c.078 0 .142.027.193.081.05.055.068.125.052.21l-.536 3.209H8.75l.537-3.209a.343.343 0 0 1 .122-.21.333.333 0 0 1 .216-.081h1.75c.078 0 .142.027.193.081.05.055.068.125.052.21l-.537 3.209h2.042c.078 0 .142.027.193.081.05.055.068.125.052.21l-.292 1.75a.291.291 0 0 1-.064.146.423.423 0 0 1-.128.105.311.311 0 0 1-.146.041h-2.042l-.396 2.333h2.041c.055 0 .103.014.146.041a.207.207 0 0 1 .088.105c.015.043.02.092.011.146l-.291 1.75a.343.343 0 0 1-.123.21.333.333 0 0 1-.216.082H9.917l-.537 3.208a.291.291 0 0 1-.064.146.45.45 0 0 1-.123.105.296.296 0 0 1-.151.04h-1.75a.251.251 0 0 1-.193-.081c-.05-.054-.068-.124-.052-.21l.536-3.208H5.25l-.537 3.208a.343.343 0 0 1-.122.21.333.333 0 0 1-.216.082h-1.75zm3.01-5.834h2.333l.397-2.333H6.032l-.397 2.333z" fill-rule="evenodd"/></svg>