<?xml version="1.0" encoding="UTF-8"?><svg width="18" height="15" viewBox="0 0 18 15" xmlns="http://www.w3.org/2000/svg"><path d="M1.603 14.977c-.24 0-.43-.055-.565-.164a.538.538 0 0 1-.205-.443.95.95 0 0 1 .152-.478l7.432-12.88c.179-.304.389-.455.63-.455.24 0 .45.151.63.455l7.431 12.88a.95.95 0 0 1 .152.478.538.538 0 0 1-.204.443c-.136.11-.325.164-.566.164H1.603zm7.082-4.667h.63a.674.674 0 0 0 .438-.17.691.691 0 0 0 .25-.402l.677-3.523a.506.506 0 0 0-.047-.344.395.395 0 0 0-.169-.17.53.53 0 0 0-.25-.058H7.786a.466.466 0 0 0-.345.135.452.452 0 0 0-.134.332c0 .047.004.082.012.105l.677 3.523c.03.156.114.29.25.403a.675.675 0 0 0 .438.169zm-.56 2.333h1.75a.28.28 0 0 0 .204-.087.28.28 0 0 0 .088-.204v-.584a.28.28 0 0 0-.088-.204.28.28 0 0 0-.204-.087h-1.75a.28.28 0 0 0-.204.087.28.28 0 0 0-.088.204v.584c0 .077.03.145.088.204a.28.28 0 0 0 .204.087z" fill-rule="evenodd"/></svg>