<?xml version="1.0" encoding="UTF-8"?><svg width="14" height="13" viewBox="0 0 14 13" xmlns="http://www.w3.org/2000/svg"><path d="M.583 2.5a.563.563 0 0 1-.414-.17A.563.563 0 0 1 0 1.918V.75A.56.56 0 0 1 .17.336a.563.563 0 0 1 .413-.17H1.75c.163 0 .301.057.414.17.113.113.17.25.17.414v1.167a.563.563 0 0 1-.17.414.563.563 0 0 1-.414.169H.583zm3.5 0a.563.563 0 0 1-.414-.17.563.563 0 0 1-.169-.413V.75a.56.56 0 0 1 .17-.414.563.563 0 0 1 .413-.17h9.334c.163 0 .301.057.414.17.113.113.169.25.169.414v1.167a.563.563 0 0 1-.17.414.563.563 0 0 1-.413.169H4.083zM.583 6a.563.563 0 0 1-.414-.17A.563.563 0 0 1 0 5.418V4.25a.56.56 0 0 1 .17-.414.563.563 0 0 1 .413-.17H1.75c.163 0 .301.057.414.17.113.113.17.25.17.414v1.167a.563.563 0 0 1-.17.414A.563.563 0 0 1 1.75 6H.583zm3.5 0a.563.563 0 0 1-.414-.17.563.563 0 0 1-.169-.413V4.25a.56.56 0 0 1 .17-.414.563.563 0 0 1 .413-.17h9.334c.163 0 .301.057.414.17.113.113.169.25.169.414v1.167a.563.563 0 0 1-.17.414.563.563 0 0 1-.413.169H4.083zm-3.5 3.5a.563.563 0 0 1-.414-.17A.563.563 0 0 1 0 8.918V7.75a.56.56 0 0 1 .17-.414.563.563 0 0 1 .413-.17H1.75c.163 0 .301.057.414.17.113.113.17.25.17.414v1.167a.563.563 0 0 1-.17.414.563.563 0 0 1-.414.169H.583zm3.5 0a.563.563 0 0 1-.414-.17.563.563 0 0 1-.169-.413V7.75a.56.56 0 0 1 .17-.414.563.563 0 0 1 .413-.17h9.334c.163 0 .301.057.414.17.113.113.169.25.169.414v1.167a.563.563 0 0 1-.17.414.563.563 0 0 1-.413.169H4.083zM.583 13a.563.563 0 0 1-.414-.17.563.563 0 0 1-.169-.413V11.25a.56.56 0 0 1 .17-.414.563.563 0 0 1 .413-.17H1.75c.163 0 .301.057.414.17.113.113.17.25.17.414v1.167a.563.563 0 0 1-.17.414.563.563 0 0 1-.414.169H.583zm3.5 0a.563.563 0 0 1-.414-.17.563.563 0 0 1-.169-.413V11.25a.56.56 0 0 1 .17-.414.563.563 0 0 1 .413-.17h9.334c.163 0 .301.057.414.17.113.113.169.25.169.414v1.167a.563.563 0 0 1-.17.414.563.563 0 0 1-.413.169H4.083z" fill-rule="evenodd"/></svg>