<?xml version="1.0" encoding="UTF-8"?><svg width="13" height="16" viewBox="0 0 13 16" xmlns="http://www.w3.org/2000/svg"><path d="M.167 4.333v-.875a.28.28 0 0 1 .087-.204.28.28 0 0 1 .204-.087h3.209V2c0-.319.114-.593.344-.823.23-.229.503-.344.822-.344h3.5c.32 0 .593.115.823.345.23.229.344.503.344.822v1.167h3.208a.28.28 0 0 1 .204.087.28.28 0 0 1 .088.204v.875H.167zm4.666-1.166h3.5V2h-3.5v1.167zM2.5 16c-.319 0-.593-.115-.823-.344a1.122 1.122 0 0 1-.344-.823V5.5h10.5v9.333c0 .32-.114.593-.344.823a1.12 1.12 0 0 1-.822.344H2.5zm0-1.167h1.167V6.667H2.5v8.166zm2.333 0H6V6.667H4.833v8.166zm2.334 0h1.166V6.667H7.167v8.166zm2.333 0h1.167V6.667H9.5v8.166z" fill-rule="evenodd"/></svg>