<?xml version="1.0" encoding="UTF-8"?><svg width="14" height="14" viewBox="0 0 14 14" xmlns="http://www.w3.org/2000/svg"><path d="M7 13.732a6.61 6.61 0 0 1-2.613-.531 6.733 6.733 0 0 1-2.153-1.435A6.733 6.733 0 0 1 .8 9.613 6.61 6.61 0 0 1 .27 7c0-.91.176-1.781.53-2.613a6.733 6.733 0 0 1 1.435-2.153A6.733 6.733 0 0 1 4.387.8 6.61 6.61 0 0 1 7 .27c.91 0 1.781.176 2.613.53.833.354 1.55.832 2.153 1.435A6.733 6.733 0 0 1 13.2 4.387 6.61 6.61 0 0 1 13.73 7a6.61 6.61 0 0 1-.53 2.613 6.733 6.733 0 0 1-1.435 2.153A6.733 6.733 0 0 1 9.613 13.2 6.61 6.61 0 0 1 7 13.73zm-.875-9.065h1.75a.28.28 0 0 0 .204-.088.28.28 0 0 0 .088-.204v-1.75a.28.28 0 0 0-.088-.204.28.28 0 0 0-.204-.088h-1.75a.28.28 0 0 0-.204.088.28.28 0 0 0-.088.204v1.75c0 .078.03.146.088.204a.28.28 0 0 0 .204.088zM4.958 10.5h4.084a.28.28 0 0 0 .204-.088.28.28 0 0 0 .087-.204v-.583a.28.28 0 0 0-.087-.204.28.28 0 0 0-.204-.088h-.875V6.125a.28.28 0 0 0-.088-.204.28.28 0 0 0-.204-.088H4.958a.28.28 0 0 0-.204.088.28.28 0 0 0-.087.204v.583a.28.28 0 0 0 .087.204.28.28 0 0 0 .204.088h.875v2.333h-.875a.28.28 0 0 0-.204.088.28.28 0 0 0-.087.204v.583a.28.28 0 0 0 .087.204.28.28 0 0 0 .204.088z" fill-rule="evenodd"/></svg>