<?xml version="1.0" encoding="UTF-8"?><svg width="14" height="15" viewBox="0 0 14 15" xmlns="http://www.w3.org/2000/svg"><path d="M3.827 5.568L1.505 3.247.408 4.343c-.085.086-.163.129-.233.129C.058 4.472 0 4.37 0 4.168v-3.5A.56.56 0 0 1 .17.254.563.563 0 0 1 .582.085h3.5c.203 0 .304.058.304.175 0 .07-.043.148-.129.233L3.162 1.59l2.321 2.322a.284.284 0 0 1 .082.21.284.284 0 0 1-.082.21L4.247 5.568a.284.284 0 0 1-.21.082.284.284 0 0 1-.21-.082zm5.926 0L8.517 4.332a.284.284 0 0 1-.082-.21c0-.086.027-.156.082-.21l2.321-2.322L9.742.493C9.656.408 9.613.33 9.613.26c0-.117.101-.175.304-.175h3.5a.56.56 0 0 1 .414.17c.113.112.169.25.169.413v3.5c0 .203-.058.304-.175.304-.07 0-.148-.043-.233-.129l-1.097-1.096-2.322 2.321a.284.284 0 0 1-.21.082.284.284 0 0 1-.21-.082zm-9.17 8.517a.563.563 0 0 1-.414-.17.563.563 0 0 1-.169-.413v-3.5c0-.203.058-.304.175-.304.07 0 .148.043.233.129l1.097 1.096 2.322-2.321a.284.284 0 0 1 .21-.082c.085 0 .155.027.21.082l1.236 1.236a.284.284 0 0 1 .082.21.284.284 0 0 1-.082.21L3.162 12.58l1.096 1.097c.086.085.129.163.129.233 0 .117-.101.175-.304.175h-3.5zm9.334 0c-.203 0-.304-.058-.304-.175 0-.07.043-.148.129-.233l1.096-1.097-2.321-2.322a.284.284 0 0 1-.082-.21c0-.085.027-.155.082-.21l1.236-1.236a.284.284 0 0 1 .21-.082c.086 0 .156.027.21.082l2.322 2.321 1.097-1.096c.085-.086.163-.129.233-.129.117 0 .175.101.175.304v3.5a.563.563 0 0 1-.17.414.563.563 0 0 1-.413.169h-3.5z" fill-rule="evenodd"/></svg>