<?xml version="1.0" encoding="UTF-8"?><svg width="12" height="12" viewBox="0 0 12 12" xmlns="http://www.w3.org/2000/svg"><path d="M6 11.833a5.094 5.094 0 0 1-.747-.058l-.128-.012a.291.291 0 0 1-.146-.064.45.45 0 0 1-.105-.122.296.296 0 0 1-.04-.152V8.812L2.99 10.655a.303.303 0 0 1-.222.093.311.311 0 0 1-.21-.07L1.322 9.442a.311.311 0 0 1-.07-.21.3.3 0 0 1 .093-.222l1.843-1.843H.575a.296.296 0 0 1-.152-.041.45.45 0 0 1-.122-.105.291.291 0 0 1-.064-.146A6.083 6.083 0 0 1 .167 6a5.094 5.094 0 0 1 .058-.747l.012-.128a.364.364 0 0 1 .122-.204.32.32 0 0 1 .216-.088h2.613L1.345 2.99a.303.303 0 0 1-.093-.222c0-.085.023-.155.07-.21l1.236-1.236a.311.311 0 0 1 .21-.07.3.3 0 0 1 .222.093l1.843 1.843V.575c0-.054.014-.105.041-.152A.45.45 0 0 1 4.98.301a.291.291 0 0 1 .146-.064A5.094 5.094 0 0 1 6.747.225l.128.012a.364.364 0 0 1 .204.122.32.32 0 0 1 .088.216v2.613L9.01 1.345a.303.303 0 0 1 .222-.093c.085 0 .155.023.21.07l1.236 1.236c.047.055.07.125.07.21a.3.3 0 0 1-.093.222L8.812 4.833h2.613c.054 0 .105.014.152.041a.45.45 0 0 1 .122.105.291.291 0 0 1 .064.146 5.094 5.094 0 0 1 .012 1.622l-.012.128a.364.364 0 0 1-.122.204.32.32 0 0 1-.216.088H8.812l1.843 1.843a.303.303 0 0 1 .093.222.311.311 0 0 1-.07.21l-1.236 1.236a.311.311 0 0 1-.21.07.303.303 0 0 1-.222-.093L7.167 8.812v2.613a.32.32 0 0 1-.088.216.364.364 0 0 1-.204.122 6.03 6.03 0 0 1-.875.07z" fill-rule="evenodd"/></svg>