<?xml version="1.0" encoding="UTF-8"?><svg width="15" height="13" viewBox="0 0 15 13" xmlns="http://www.w3.org/2000/svg"><path d="M3.462 12.822c-.094.062-.168.093-.222.093-.07 0-.105-.043-.105-.128 0-.04.012-.101.035-.187l1.517-4.667L.638 5.005c-.116-.086-.175-.156-.175-.21 0-.086.094-.128.28-.128h5.005L7.277.548c.054-.147.12-.221.198-.221.086 0 .156.074.21.221L9.19 4.667h4.912c.186 0 .28.042.28.128 0 .062-.055.132-.164.21l-3.99 2.905 1.517 4.678a.59.59 0 0 1 .035.175c0 .094-.035.14-.105.14-.047 0-.12-.03-.222-.093L7.452 9.94l-3.99 2.882z" fill-rule="evenodd"/></svg>