<?xml version="1.0" encoding="UTF-8"?><svg width="14" height="14" viewBox="0 0 14 14" xmlns="http://www.w3.org/2000/svg"><path d="M.268 7c0-.91.177-1.781.531-2.613a6.733 6.733 0 0 1 1.435-2.153A6.733 6.733 0 0 1 4.387.8 6.61 6.61 0 0 1 7 .27c1.493 0 2.843.454 4.048 1.364L12.623.058c.04-.039.078-.058.117-.058.062 0 .093.05.093.152v4.211a.312.312 0 0 1-.087.216.312.312 0 0 1-.216.087H8.318c-.1 0-.151-.03-.151-.093 0-.039.02-.077.058-.116l1.563-1.564A4.85 4.85 0 0 0 7 2.018c-.677 0-1.322.133-1.937.397a5.027 5.027 0 0 0-1.586 1.062 5.027 5.027 0 0 0-1.062 1.586A4.848 4.848 0 0 0 2.018 7H.268zm1.109 6.918c-.047.047-.086.07-.117.07-.062 0-.093-.05-.093-.151v-4.2c0-.086.029-.158.087-.216a.293.293 0 0 1 .216-.088h4.2c.101 0 .152.031.152.094 0 .03-.024.07-.07.116L4.2 11.095a4.824 4.824 0 0 0 2.8.887 4.91 4.91 0 0 0 2.502-.665 4.892 4.892 0 0 0 1.815-1.815A4.91 4.91 0 0 0 11.982 7h1.75a6.61 6.61 0 0 1-.531 2.613 6.733 6.733 0 0 1-1.435 2.153A6.733 6.733 0 0 1 9.613 13.2 6.61 6.61 0 0 1 7 13.73c-1.493 0-2.847-.458-4.06-1.376l-1.563 1.563z" fill-rule="evenodd"/></svg>