<?xml version="1.0" encoding="UTF-8"?><svg width="16" height="13" viewBox="0 0 16 13" xmlns="http://www.w3.org/2000/svg"><path d="M6.417 13a.563.563 0 0 1-.414-.17.563.563 0 0 1-.17-.413V11.25c0-.163.057-.301.17-.414a.563.563 0 0 1 .414-.17h5.25c.319 0 .593-.114.822-.344.23-.229.344-.503.344-.822V3.667c0-.32-.114-.593-.344-.823a1.122 1.122 0 0 0-.822-.344h-5.25a.563.563 0 0 1-.414-.17.563.563 0 0 1-.17-.413V.75c0-.163.057-.301.17-.414a.563.563 0 0 1 .414-.17h4.666c1.284 0 2.285.36 3.005 1.08.719.72 1.079 1.72 1.079 3.004v4.667c0 1.283-.36 2.284-1.08 3.004-.719.72-1.72 1.079-3.004 1.079H6.417zm-2.474-2.718c-.085.077-.167.116-.245.116-.132 0-.198-.105-.198-.315v-1.75H.583a.563.563 0 0 1-.414-.169A.563.563 0 0 1 0 7.75V5.417c0-.164.056-.302.17-.414a.563.563 0 0 1 .413-.17H3.5v-1.75c0-.21.066-.315.198-.315.078 0 .16.04.245.117l3.78 3.313c.125.101.187.23.187.385a.475.475 0 0 1-.187.385l-3.78 3.314z" fill-rule="evenodd"/></svg>