<?xml version="1.0" encoding="UTF-8"?><svg width="14" height="14" viewBox="0 0 14 14" xmlns="http://www.w3.org/2000/svg"><path d="M7.583 7a.563.563 0 0 1-.414-.17A.563.563 0 0 1 7 6.418v-3.5c0-.203.058-.304.175-.304.07 0 .148.043.233.129l1.097 1.096L11.41.933a.284.284 0 0 1 .21-.081c.086 0 .156.027.21.081l1.237 1.237a.284.284 0 0 1 .081.21.284.284 0 0 1-.081.21l-2.905 2.905 1.096 1.097c.086.085.129.163.129.233 0 .117-.101.175-.304.175h-3.5zM2.17 13.067L.933 11.83a.284.284 0 0 1-.081-.21c0-.086.027-.156.081-.21l2.905-2.905-1.096-1.097c-.086-.085-.129-.163-.129-.233 0-.117.101-.175.304-.175h3.5a.56.56 0 0 1 .414.17c.113.112.169.25.169.413v3.5c0 .203-.058.304-.175.304-.07 0-.148-.043-.233-.129l-1.097-1.096-2.905 2.905a.284.284 0 0 1-.21.081.284.284 0 0 1-.21-.081z" fill-rule="evenodd"/></svg>