<?xml version="1.0" encoding="utf-8"?><!DOCTYPE svg PUBLIC "-//W3C//DTD SVG 1.1//EN" "http://www.w3.org/Graphics/SVG/1.1/DTD/svg11.dtd"><svg xmlns="http://www.w3.org/2000/svg" viewBox="0 0 36 36" width="36" height="36"><path d="M24 30c-2 0-4-2-6-2s-4 2-6 2-4-2-6-2c-1.3 0-2.7.9-4 1.5v4c1.3-.6 2.7-1.5 4-1.5 2 0 4 2 6 2s4-2 6-2 4 2 6 2 4-2 6-2c1.3 0 2.7.9 4 1.5v-4c-1.3-.6-2.7-1.5-4-1.5-2 0-4 2-6 2zM30 20c-2 0-4 2-6 2s-4-2-6-2-4 2-6 2-4-2-6-2c-1.3 0-2.7.9-4 1.5v4c1.3-.6 2.7-1.5 4-1.5 2 0 4 2 6 2s4-2 6-2 4 2 6 2 4-2 6-2c1.3 0 2.7.9 4 1.5v-4c-1.3-.6-2.7-1.5-4-1.5zM23 13c0-2.8-5-11-5-11s-5 8.2-5 11 2.2 5 5 5 5-2.2 5-5z"/></svg>