<?xml version="1.0" encoding="utf-8"?><!DOCTYPE svg PUBLIC "-//W3C//DTD SVG 1.1//EN" "http://www.w3.org/Graphics/SVG/1.1/DTD/svg11.dtd"><svg xmlns="http://www.w3.org/2000/svg" viewBox="0 0 36 36" width="36" height="36"><path d="M29.8 11.5l.3-.3c1.2-1.2 1.2-3.1 0-4.2S27 5.8 25.9 7l-.3.3c-1.4-.9-2.9-1.5-4.5-1.9V2h-6v3.3C8.7 6.7 4 12.3 4 19c0 7.7 6.3 14 14 14s14-6.3 14-14c0-2.8-.8-5.4-2.2-7.5zM18 29c-5.5 0-10-4.5-10-10S12.5 9 18 9s10 4.5 10 10-4.5 10-10 10z"/><path d="M23.8 20.7l-4.3-2.6V17c0-.8-.7-1.5-1.5-1.5s-1.5.7-1.5 1.5v2.8l5.7 3.4c.2.1.5.2.8.2.5 0 1-.3 1.3-.7.4-.6.2-1.6-.5-2z"/><circle cx="18" cy="11" r="1"/><circle cx="10" cy="19" r="1"/><circle cx="18" cy="27" r="1"/><circle cx="26" cy="19" r="1"/></svg>