<?xml version="1.0" encoding="utf-8"?><!DOCTYPE svg PUBLIC "-//W3C//DTD SVG 1.1//EN" "http://www.w3.org/Graphics/SVG/1.1/DTD/svg11.dtd"><svg xmlns="http://www.w3.org/2000/svg" viewBox="0 0 36 36" width="36" height="36"><path d="M34 20v-4l-4.4-.9c0-.2-.1-.3-.1-.5l3.3-2.9-2-3.5-4.2 1.4-.3-.3 1.4-4.2-3.5-2-2.9 3.3c-.2 0-.3-.1-.5-.1L20 2h-4l-.9 4.4c-.2 0-.3.1-.5.1l-2.9-3.3-3.5 2 1.4 4.2c0 .1-.1.2-.2.3L5.1 8.3l-2 3.5 3.3 2.9c0 .2-.1.3-.1.5L2 16v4l4.4.9c0 .2.1.3.1.5l-3.3 2.9 2 3.5 4.2-1.4.3.3-1.4 4.2 3.5 2 2.9-3.3c.2 0 .3.1.5.1L16 34h4l.9-4.4c.2 0 .3-.1.5-.1l2.9 3.3 3.5-2-1.4-4.2.3-.3 4.2 1.4 2-3.5-3.3-2.9c0-.2.1-.3.1-.5L34 20zm-10-2c0 3.3-2.7 6-6 6s-6-2.7-6-6 2.7-6 6-6 6 2.7 6 6z"/></svg>