<?xml version="1.0" encoding="utf-8"?><!DOCTYPE svg PUBLIC "-//W3C//DTD SVG 1.1//EN" "http://www.w3.org/Graphics/SVG/1.1/DTD/svg11.dtd"><svg xmlns="http://www.w3.org/2000/svg" viewBox="0 0 36 36" width="36" height="36"><path d="M34 16h-.3c-.9-2.9-3.5-5-6.7-5-2.4 0-4.5 1.2-5.7 3-.9-.6-2-1-3.3-1s-2.4.4-3.3 1c-1.3-1.8-3.4-3-5.7-3-3.2 0-5.8 2.1-6.7 5H2c-1.1 0-2 .9-2 2s.9 2 2 2h.3c.9 2.9 3.5 5 6.7 5 3.7 0 6.7-2.9 7-6.5.2-.4.9-1.5 2-1.5 1.2 0 1.8 1 2 1.5.2 3.6 3.3 6.5 7 6.5 3.2 0 5.8-2.1 6.7-5h.3c1.1 0 2-.9 2-2s-.9-2-2-2zM9 21c-1.7 0-3-1.3-3-3s1.3-3 3-3 3 1.3 3 3-1.3 3-3 3zm18 0c-1.7 0-3-1.3-3-3s1.3-3 3-3 3 1.3 3 3-1.3 3-3 3z"/></svg>