<?xml version="1.0" encoding="utf-8"?><!DOCTYPE svg PUBLIC "-//W3C//DTD SVG 1.1//EN" "http://www.w3.org/Graphics/SVG/1.1/DTD/svg11.dtd"><svg xmlns="http://www.w3.org/2000/svg" viewBox="0 0 36 36" width="36" height="36"><circle cx="28" cy="6" r="3"/><path d="M35.1 9.9c-.6-.6-1.5-.6-2.1 0l-3.4 3.4-5.4-5.4c-.3-.3-.7-.4-1.1-.4h-5c-.4 0-.8.2-1.1.4l-5 5c-.6.6-.6 1.5 0 2.1s1.5.6 2.1 0l4.6-4.6h3.1L12.2 20H4c-1.1 0-2 .9-2 2s.9 2 2 2h9c.5 0 1-.2 1.4-.6l2.6-2.6 3.3 3.3-1.3 7.6c-.2 1.1.5 2.1 1.6 2.3h.3c1 0 1.8-.7 2-1.7l1.5-8.5c.1-.6-.1-1.3-.6-1.8L21 19.2l5-5 2.3 2.3c.3.3.7.4 1.1.4s.8-.1 1.1-.4L35 12c.6-.5.6-1.5.1-2.1z"/></svg>