<?xml version="1.0" encoding="utf-8"?><!DOCTYPE svg PUBLIC "-//W3C//DTD SVG 1.1//EN" "http://www.w3.org/Graphics/SVG/1.1/DTD/svg11.dtd"><svg xmlns="http://www.w3.org/2000/svg" viewBox="0 0 36 36" width="36" height="36"><path d="M18 2C9.2 2 2 9.2 2 18s7.2 16 16 16 16-7.2 16-16S26.8 2 18 2zm11.9 14.5h-4c-.2-2.1-1.1-6.1-3.9-9.8 4.2 1.5 7.3 5.3 7.9 9.8zM19 6.3c3.5 3.6 4.6 8 4.9 10.2H19V6.3zm-2 10.2h-4.9c.3-2.2 1.3-6.6 4.9-10.2v10.2zm0 3v10.2c-3.5-3.6-4.6-8-4.9-10.2H17zm2 0h4.9c-.3 2.2-1.3 6.6-4.9 10.2V19.5zM14 6.7c-2.8 3.7-3.6 7.7-3.9 9.8h-4C6.7 12 9.8 8.2 14 6.7zM6.1 19.5h4c.2 2.1 1.1 6.1 3.9 9.8-4.2-1.5-7.3-5.3-7.9-9.8zM22 29.3c2.8-3.7 3.6-7.7 3.9-9.8h4c-.6 4.5-3.7 8.3-7.9 9.8z"/></svg>