<?xml version="1.0" encoding="utf-8"?><!DOCTYPE svg PUBLIC "-//W3C//DTD SVG 1.1//EN" "http://www.w3.org/Graphics/SVG/1.1/DTD/svg11.dtd"><svg xmlns="http://www.w3.org/2000/svg" viewBox="0 0 36 36" width="36" height="36"><path d="M34 15.5c0-1.4-1.1-2.5-2.5-2.5H24c-.4 0-1.8-.6-.7-2.3.7-1.3.7-6.2.7-6.2C24 3.1 22.9 2 21.5 2S19 3.1 19 4.5c0 7.3-7 9.5-7 9.5v13c3.2 1.1 4 3 8 3h7.5c1.4 0 2.5-1.1 2.5-2.5 0-.6-.2-1.1-.5-1.5 1.4 0 2.5-1.1 2.5-2.5 0-.6-.2-1.2-.6-1.7 1-.4 1.6-1.3 1.6-2.3 0-.6-.2-1.2-.6-1.7.9-.3 1.6-1.2 1.6-2.3zM7 12H2v17h5c1.7 0 3-1.4 3-3V15c0-1.7-1.3-3-3-3z"/></svg>