<?xml version="1.0" encoding="utf-8"?><!DOCTYPE svg PUBLIC "-//W3C//DTD SVG 1.1//EN" "http://www.w3.org/Graphics/SVG/1.1/DTD/svg11.dtd"><svg xmlns="http://www.w3.org/2000/svg" viewBox="0 0 36 36" width="36" height="36"><path d="M19.4 9l4.8-4.8c.4-.4.4-1 0-1.4s-1-.4-1.4 0L18 7.6l-4.8-4.8c-.4-.4-1-.4-1.4 0s-.4 1 0 1.4L16.6 9H3v20h30V9H19.4zM25 22c0 1.6-1.3 3-3 3H10c-1.7 0-3-1.4-3-3v-6c0-1.7 1.3-3 3-3h12c1.7 0 3 1.3 3 3v6zm4-1c-.6 0-1-.4-1-1s.4-1 1-1 1 .4 1 1-.4 1-1 1zm0-3c-.6 0-1-.4-1-1s.4-1 1-1 1 .4 1 1-.4 1-1 1zm0-3c-.6 0-1-.4-1-1s.4-1 1-1 1 .4 1 1-.4 1-1 1z"/></svg>