<?xml version="1.0" encoding="utf-8"?><!DOCTYPE svg PUBLIC "-//W3C//DTD SVG 1.1//EN" "http://www.w3.org/Graphics/SVG/1.1/DTD/svg11.dtd"><svg xmlns="http://www.w3.org/2000/svg" viewBox="0 0 36 36" width="36" height="36"><circle cx="18" cy="8" r="3"/><circle cx="7" cy="11" r="3"/><circle cx="29" cy="11" r="3"/><ellipse cx="18" cy="26" rx="11" ry="5"/><path d="M11.8 19.8C11.3 17.6 9.3 16 7 16c-2.8 0-5 2.2-5 5v5h3c0-2.5 2.3-5 6.8-6.2zM18 19c1.9 0 3.5.2 5 .5V18c0-2.8-2.2-5-5-5s-5 2.2-5 5v1.5c1.5-.3 3.1-.5 5-.5zM29 16c-2.3 0-4.3 1.6-4.8 3.8C28.7 21 31 23.5 31 26h3v-5c0-2.8-2.2-5-5-5z"/></svg>