<?xml version="1.0" encoding="utf-8"?><!DOCTYPE svg PUBLIC "-//W3C//DTD SVG 1.1//EN" "http://www.w3.org/Graphics/SVG/1.1/DTD/svg11.dtd"><svg xmlns="http://www.w3.org/2000/svg" viewBox="0 0 36 36" width="36" height="36"><path d="M34 13h-4l-1-5.4C28.4 5 25.7 5 24.2 5H11.8C10.3 5 7.6 5 7 7.6L6 13H2c-1.1 0-2 .9-2 2s.9 2 2 2h1.8c-.5.5-.8 1.2-.8 2v8c0 1.6 1.3 3 3 3h1v2.5C7 33.9 8.1 35 9.5 35s2.5-1.1 2.5-2.5V30h12v2.5c0 1.4 1.1 2.5 2.5 2.5s2.5-1.1 2.5-2.5V30h1c1.7 0 3-1.4 3-3v-8c0-.8-.3-1.5-.8-2H34c1.1 0 2-.9 2-2s-.9-2-2-2zm-8.8-4l1.4 7H9.4l1.4-7h14.4zM9 23c-1.1 0-2-.9-2-2s.9-2 2-2 2 .9 2 2-.9 2-2 2zm18 0c-1.1 0-2-.9-2-2s.9-2 2-2 2 .9 2 2-.9 2-2 2z"/></svg>