<?xml version="1.0" encoding="utf-8"?><!DOCTYPE svg PUBLIC "-//W3C//DTD SVG 1.1//EN" "http://www.w3.org/Graphics/SVG/1.1/DTD/svg11.dtd"><svg xmlns="http://www.w3.org/2000/svg" viewBox="0 0 38 36" width="38" height="36"><path d="M26.4 6.3c1.8 3.1 3.8 6.6 5.4 9.3-5.1 2-8.1 5-10.9 7.8-2.7 2.7-5 5-9.3 6.4-1.4-2.4-3.5-6.1-5.4-9.3 5.1-2 8.1-5 10.9-7.8 2.7-2.7 5-5.1 9.3-6.4m2-4.6C13.8 4.4 14.8 15.3.2 18l9.4 16.3C24.2 31.6 23.2 20.7 37.8 18L28.4 1.7z"/><ellipse transform="rotate(-30 19.097 17.954)" cx="19.1" cy="18" rx="4.2" ry="6.8"/></svg>