<?xml version="1.0" encoding="UTF-8"?><svg width="14" height="14" viewBox="0 0 14 14" xmlns="http://www.w3.org/2000/svg"><title>vimeo</title><g fill="none"><path d="M0 12a2 2 0 0 0 2 2h10a2 2 0 0 0 2-2V2a2 2 0 0 0-2-2H2a2 2 0 0 0-2 2v10z" fill="#31AFD9"/><path d="M11.862 4.594c-.045.985-.733 2.333-2.063 4.045-1.376 1.787-2.54 2.681-3.491 2.681-.59 0-1.09-.544-1.497-1.633l-.816-2.994C3.692 5.605 3.367 5.06 3.02 5.06c-.076 0-.34.16-.794.476l-.476-.613c.5-.438.992-.877 1.476-1.316.666-.575 1.167-.878 1.5-.909.787-.075 1.271.463 1.453 1.615.197 1.243.333 2.016.41 2.318.227 1.031.476 1.546.749 1.546.212 0 .53-.334.954-1.003.423-.669.65-1.178.681-1.528.06-.577-.167-.866-.681-.866a1.9 1.9 0 0 0-.749.166c.497-1.628 1.447-2.42 2.85-2.374 1.039.03 1.53.704 1.47 2.022z" fill="#FFF"/></g></svg>