<?xml version="1.0" encoding="utf-8"?><svg viewBox="0 0 256 256" xmlns="http://www.w3.org/2000/svg" preserveAspectRatio="xMidYMid" width="256" height="256"><path d="M0 128.002c0 52.414 31.518 97.442 76.62 117.24-.36-8.94-.065-19.67 2.227-29.394 2.46-10.39 16.47-69.748 16.47-69.748s-4.09-8.173-4.09-20.252c0-18.97 10.995-33.136 24.687-33.136 11.643 0 17.268 8.745 17.268 19.217 0 11.703-7.465 29.21-11.304 45.425-3.207 13.578 6.808 24.653 20.203 24.653 24.253 0 40.587-31.15 40.587-68.055 0-28.054-18.895-49.052-53.262-49.052-38.828 0-63.017 28.957-63.017 61.3 0 11.153 3.288 19.017 8.438 25.107 2.368 2.797 2.697 3.922 1.84 7.134-.614 2.356-2.024 8.026-2.608 10.273-.852 3.242-3.48 4.4-6.41 3.204-17.883-7.3-26.212-26.886-26.212-48.902 0-36.36 30.666-79.96 91.482-79.96 48.87 0 81.035 35.363 81.035 73.324 0 50.212-27.916 87.725-69.066 87.725-13.82 0-26.818-7.47-31.27-15.955 0 0-7.432 29.492-9.006 35.187-2.713 9.87-8.025 19.733-12.882 27.42a127.826 127.826 0 0 0 36.277 5.25c70.684 0 127.996-57.31 127.996-128.005C256 57.31 198.69 0 128.006 0 57.315 0 0 57.31 0 128.002z" fill="#CB1F27"/></svg>