<?xml version="1.0" encoding="utf-8"?><svg xmlns="http://www.w3.org/2000/svg" viewBox="0 0 16 16" width="16" height="16"><path fill-rule="evenodd" d="M4.55 7c.248 0 .45.234.45.522v5.956c0 .288-.202.522-.45.522h-2.1c-.248 0-.45-.234-.45-.522V7.522C2 7.234 2.202 7 2.45 7h2.1zm1.995 6.2c-.305-.036-.528-.302-.545-.626.017 0 .013-2.906 0-4.43.013-.525.108-1.458.398-1.87a66.267 66.267 0 0 1 1.494-2.048c.29-.382.636-.755.646-1.04.013-.384-.001-.391 0-.83.001-.44.208-.856.733-.856.254 0 .46.057.648.3.303.356.515.919.515 1.81 0 .89-.924 2.563-.926 2.57h4.038c.618-.004.954.545.954 1.117 0 .536-.366.982-.846 1.057.291.139.5.47.5.852 0 .476-.325.872-.756.94a.817.817 0 0 1 .376.702c0 .398-.26.733-.615.813a.808.808 0 0 1 .347.682.846.846 0 0 1-.763.857H6.545z"/></svg>