<?xml version="1.0" encoding="UTF-8"?><svg width="30" height="30" viewBox="0 0 30 30" xmlns="http://www.w3.org/2000/svg"><g fill-rule="evenodd"><path d="M15 0c-4.074 0-4.585.017-6.184.09-1.597.073-2.687.327-3.642.698a7.352 7.352 0 0 0-2.656 1.73 7.352 7.352 0 0 0-1.73 2.656C.417 6.13.163 7.22.09 8.816.017 10.416 0 10.926 0 15s.017 4.585.09 6.184c.073 1.597.327 2.687.698 3.642a7.352 7.352 0 0 0 1.73 2.656 7.353 7.353 0 0 0 2.656 1.73c.955.371 2.045.625 3.642.698 1.6.073 2.11.09 6.184.09s4.585-.017 6.184-.09c1.597-.073 2.687-.327 3.642-.697a7.353 7.353 0 0 0 2.656-1.73 7.353 7.353 0 0 0 1.73-2.657c.371-.955.625-2.045.698-3.642.073-1.6.09-2.11.09-6.184s-.017-4.585-.09-6.184c-.073-1.597-.327-2.687-.697-3.642a7.353 7.353 0 0 0-1.73-2.656 7.352 7.352 0 0 0-2.657-1.73C23.87.417 22.78.163 21.184.09 19.584.017 19.074 0 15 0zm0 2.703c4.005 0 4.48.015 6.061.087 1.463.067 2.257.311 2.786.517.7.272 1.2.597 1.724 1.122.525.525.85 1.024 1.122 1.724.206.529.45 1.323.517 2.786.072 1.581.087 2.056.087 6.061s-.015 4.48-.087 6.061c-.067 1.463-.311 2.257-.517 2.786-.272.7-.597 1.2-1.122 1.724a4.646 4.646 0 0 1-1.724 1.122c-.529.206-1.323.45-2.786.517-1.581.072-2.056.087-6.061.087s-4.48-.015-6.061-.087c-1.463-.067-2.257-.311-2.786-.517-.7-.272-1.2-.597-1.724-1.122a4.646 4.646 0 0 1-1.122-1.724c-.206-.529-.45-1.323-.517-2.786-.072-1.581-.087-2.056-.087-6.061s.015-4.48.087-6.061c.067-1.463.311-2.257.517-2.786.272-.7.597-1.2 1.122-1.724a4.647 4.647 0 0 1 1.724-1.122c.529-.206 1.323-.45 2.786-.517 1.581-.072 2.056-.087 6.061-.087z"/><path d="M15 20.003a5 5 0 1 1 0-10 5 5 0 0 1 0 10zM15 7.3a7.703 7.703 0 1 0 0 15.405A7.703 7.703 0 0 0 15 7.3zm9.808-.3a1.8 1.8 0 1 1-3.6 0 1.8 1.8 0 0 1 3.6 0z"/></g></svg>