<?xml version="1.0" encoding="utf-8"?><svg xmlns="http://www.w3.org/2000/svg" viewBox="0 0 31.19 20" width="31.19" height="20"><title>logo-basic</title><path fill-rule="evenodd" d="M10.58 7.65l.62-3.36 3.26.63-.62 3.34-3.26-.61zm5.79 1.09l.62-3.35 3.26.62-.62 3.35-3.26-.62z"/><path d="M22.15 9.73a5.53 5.53 0 0 1-1.7 2.76A6.89 6.89 0 0 1 17.57 14 8.11 8.11 0 0 1 11 12.74a7 7 0 0 1-2.2-2.43 5.58 5.58 0 0 1-.61-3.19l-1.27-.24a7.73 7.73 0 0 0 .29 3.34L1.12 9.13v.2l-.48-2L0 7.4l1 4.3.61-.08-.31-1.41 6.42 1.15a8.29 8.29 0 0 0 2.41 2.71 9.08 9.08 0 0 0 3.72 1.66 9 9 0 0 0 4.05-.22 8.15 8.15 0 0 0 3.53-1.94 7.28 7.28 0 0 0 2-3.62zm9.04-3.7L1.1 0 .95.79l14.69 2.94-.21 1.71.5.06.21-1.67 14.9 2.99.15-.79zM21.9 17.39l-.91 1.25-5.83-1.13.05-.81-.51-.03-.04.74-2.65-.52.05-.88-.51-.03-.04.81-5.01-.97-.14.77 14.12 2.76-.33.44.56.21 1.74-2.41-.55-.2z" fill-rule="evenodd"/></svg>