<?xml version="1.0" encoding="UTF-8"?><svg width="15" height="15" viewBox="0 0 15 15" xmlns="http://www.w3.org/2000/svg"><path d="M12.168 13.86L8.96 10.663a5.492 5.492 0 0 1-3.045.899l-.07-.012-.012.012a5.681 5.681 0 0 1-1.808-.292 5.423 5.423 0 0 1-1.575-.822 6.362 6.362 0 0 1-1.23-1.231 5.423 5.423 0 0 1-.823-1.575 5.681 5.681 0 0 1-.292-1.809c0-.777.152-1.52.455-2.228a5.758 5.758 0 0 1 1.22-1.826A5.758 5.758 0 0 1 3.604.56 5.599 5.599 0 0 1 5.833.105c.778 0 1.52.152 2.229.455.707.303 1.316.71 1.825 1.22a5.75 5.75 0 0 1 1.22 1.825c.303.708.455 1.45.455 2.228l-.012.024.012.058a5.535 5.535 0 0 1-.91 3.057l3.208 3.196c.179.18.268.346.268.502 0 .14-.09.311-.268.513l-.688.677c-.21.156-.393.233-.549.233-.147 0-.3-.077-.455-.233zM5.833 9.59c.685 0 1.315-.167 1.89-.502a3.707 3.707 0 0 0 1.365-1.365 3.695 3.695 0 0 0 .502-1.89c0-.684-.167-1.314-.502-1.89a3.707 3.707 0 0 0-1.365-1.365 3.695 3.695 0 0 0-1.89-.501c-.684 0-1.314.167-1.89.501-.575.335-1.03.79-1.365 1.365a3.695 3.695 0 0 0-.501 1.89 3.787 3.787 0 0 0 1.097 2.66c.334.335.732.601 1.195.8.463.198.951.297 1.464.297z" fill-rule="evenodd"/></svg>