<?xml version="1.0" encoding="utf-8"?><svg data-name="8f23047d-b81a-4313-900e-56ff9e97de04" xmlns="http://www.w3.org/2000/svg" viewBox="0 0 120 21" width="120" height="21"><title>logo-full</title><path d="M8.19 5.94l.48-2.6 2.53.48-.47 2.6zm4.49.85l.48-2.6 2.54.47-.5 2.6z"/><path d="M17.17 7.54a4.28 4.28 0 0 1-1.32 2.14 5.35 5.35 0 0 1-2.24 1.16 6.29 6.29 0 0 1-5.11-1A5.44 5.44 0 0 1 6.82 8a4.32 4.32 0 0 1-.47-2.47l-1-.17a6 6 0 0 0 .22 2.59l-4.7-.86v.15l-.4-1.57-.47.07.8 3.36.48-.1L1 7.94l5 .89a6.42 6.42 0 0 0 1.87 2.1 7 7 0 0 0 2.88 1.29 7 7 0 0 0 3.15-.17 6.32 6.32 0 0 0 2.74-1.5 5.65 5.65 0 0 0 1.54-2.81zm-4.82-3.27l-.39-.05.19-1.56.39.05-.19 1.56"/><path d="M24.06 5.29L.73.61.85 0l23.33 4.68-.12.61m-7.08 8.2l-.71.97-4.52-.88.04-.63-.4-.02-.03.57-2.05-.4.04-.68-.4-.03-.03.64-3.89-.76-.11.6 10.95 2.14-.25.34.43.17 1.36-1.87-.43-.16zM36 12.31s0 .18 2.16 4.69a.57.57 0 0 1 .05.24.52.52 0 0 1-1 .22l-2.35-5h-4.14v4.76a.57.57 0 0 1-.57.54.54.54 0 0 1-.54-.54V6.65a.54.54 0 0 1 .54-.54H35a3.1 3.1 0 0 1 3.33 3.21A2.93 2.93 0 0 1 36 12.31zm-.91-5.21h-4.37v4.39h4.35a2.06 2.06 0 0 0 2.11-2v-.18a2.07 2.07 0 0 0-2-2.18h-.09zm11.15 10.71a.54.54 0 0 1-.54-.54v-.45a3.24 3.24 0 0 1-2.51 1.07 2.72 2.72 0 0 1-3-2.52c0-1.61 1.3-2.5 3-2.5a3.34 3.34 0 0 1 2.51.88v-.9c0-1.49-.74-2-2.35-2a5.7 5.7 0 0 0-2.34.54.5.5 0 0 1-.19.05.41.41 0 0 1-.37-.24.39.39 0 0 1-.05-.2.44.44 0 0 1 .24-.39 5.84 5.84 0 0 1 2.79-.66c2.07 0 3.29.9 3.29 3v4.37a.49.49 0 0 1-.46.52zm-2.79-4.14c-1.18 0-2.24.49-2.24 1.69a1.92 1.92 0 0 0 2.19 1.71c1.26 0 2.32-.71 2.32-1.72 0-1.23-1.05-1.66-2.25-1.66zm9.84-6.85h-.47c-1.25 0-1.61.5-1.61 1.88v1.47h1.55a.42.42 0 0 1 .42.42.43.43 0 0 1-.42.44h-1.54v6.25a.51.51 0 0 1-1 0V11h-1.14a.42.42 0 0 1-.41-.43.41.41 0 0 1 .41-.41h1.12V8.83c0-1.89.64-2.87 2.56-2.87h.54a.42.42 0 0 1 .42.43.42.42 0 0 1-.4.43m6.09 0h-.47c-1.24 0-1.61.5-1.61 1.88v1.47h1.55a.42.42 0 0 1 .42.42.42.42 0 0 1-.41.44h-1.56v6.25a.51.51 0 0 1-1 0V11h-1.14a.41.41 0 0 1-.4-.42.41.41 0 0 1 .38-.43h1.15V8.83c0-1.9.68-2.83 2.56-2.83h.54a.43.43 0 0 1 .42.43.42.42 0 0 1-.41.43m2.94 10.95a.5.5 0 0 1-.53-.47V6.47a.54.54 0 0 1 .54-.54.49.49 0 0 1 .49.5v10.88a.48.48 0 0 1-.45.5m9.84-3.63h-6A2.84 2.84 0 0 0 69.08 17a3.16 3.16 0 0 0 2.49-1.21.4.4 0 0 1 .32-.18.45.45 0 0 1 .27.11.42.42 0 0 1 .15.33.45.45 0 0 1-.1.27A4 4 0 0 1 69 17.88 3.88 3.88 0 0 1 65.21 14a3.81 3.81 0 0 1 3.64-4H69a3.75 3.75 0 0 1 3.69 3.8v.09a.35.35 0 0 1-.34.36zM69 10.8a2.73 2.73 0 0 0-2.7 2.58h5.38A2.71 2.71 0 0 0 69 10.81zm11.77 5.57a3.82 3.82 0 0 1-6.86-2.45 3.86 3.86 0 0 1 3.73-4h.11A3.75 3.75 0 0 1 80.43 11a.43.43 0 0 1 0 .6.4.4 0 0 1-.32.16.49.49 0 0 1-.27-.09 3.34 3.34 0 0 0-2.14-.87 2.93 2.93 0 0 0-2.84 3v.09A2.93 2.93 0 0 0 77.69 17h.07a3.14 3.14 0 0 0 2.39-1.2.37.37 0 0 1 .31-.14.43.43 0 0 1 .31.12.45.45 0 0 1 .12.32.5.5 0 0 1-.1.29M86 17.88a3.91 3.91 0 0 1-3.86-3.95 3.85 3.85 0 1 1 7.7-.29v.29A3.9 3.9 0 0 1 86 17.88zm0-7a2.93 2.93 0 0 0-2.84 3v.06a2.86 2.86 0 1 0 5.7 0A2.94 2.94 0 0 0 86 10.85zm9.85 6.96a3.3 3.3 0 0 1-2.93-1.65v4.31a.5.5 0 1 1-1 0v-10a.5.5 0 0 1 1 0v1.07a3.28 3.28 0 0 1 2.93-1.65 3.81 3.81 0 0 1 3.75 3.86v.12a3.81 3.81 0 0 1-3.64 4h-.11zm-.09-7a2.9 2.9 0 0 0-2.85 2.94v.14a2.9 2.9 0 0 0 2.73 3.05h.12a2.86 2.86 0 0 0 2.84-3.06 2.86 2.86 0 0 0-2.84-3.07zm9.02.16h-1.5v6.29a.47.47 0 0 1-.44.5.5.5 0 0 1-.53-.46V11h-1.33a.41.41 0 0 1-.4-.42.41.41 0 0 1 .38-.43h1.35V7.59a.54.54 0 0 1 .54-.54.49.49 0 0 1 .49.54v2.57h1.5a.42.42 0 0 1 .42.42.43.43 0 0 1-.42.44m8.25 3.16h-6a2.84 2.84 0 0 0 2.84 2.82 3.16 3.16 0 0 0 2.49-1.21.39.39 0 0 1 .32-.18.45.45 0 0 1 .27.11.42.42 0 0 1 .13.35.45.45 0 0 1-.1.27 4 4 0 0 1-3.16 1.57A3.88 3.88 0 0 1 106 14v-.08a3.81 3.81 0 0 1 3.64-4h.11a3.75 3.75 0 0 1 3.69 3.8v.09a.35.35 0 0 1-.34.36zm-3.3-3.38a2.73 2.73 0 0 0-2.71 2.58h5.38a2.71 2.71 0 0 0-2.67-2.57zm9.77.04a2.72 2.72 0 0 0-2.84 2.6v3.84a.54.54 0 0 1-.51.54.5.5 0 0 1-.49-.52v-6.8a.49.49 0 0 1 .45-.53.54.54 0 0 1 .51.54v.89a3.21 3.21 0 0 1 2.84-1.48.45.45 0 0 1 .44.46.43.43 0 0 1-.41.45"/></svg>