<?xml version="1.0" encoding="utf-8"?><svg xmlns="http://www.w3.org/2000/svg" preserveAspectRatio="xMidYMid" width="23.875" height="23.906" viewBox="0 0 23.875 23.906"><defs><style>.gzdacls-1{fill:#000;fill-rule:evenodd}</style></defs><path d="M23.64 1.65L11.695 15.587a.998.998 0 0 1-.718.346l-.038.001a.997.997 0 0 1-.704-.292l-4.977-4.977a.995.995 0 0 1 1.407-1.408l4.218 4.217L22.129.354A.995.995 0 1 1 23.64 1.65zm-9.126 2.987c-1.002-.449-2.105-.649-3.575-.649-4.94 0-8.959 4.02-8.959 8.959 0 4.941 4.019 8.96 8.959 8.96 4.94 0 8.959-4.019 8.959-8.96 0-.918-.135-1.717-.452-2.672a.996.996 0 0 1 .63-1.259.997.997 0 0 1 1.258.631c.384 1.154.555 2.172.555 3.3 0 6.038-4.912 10.951-10.95 10.951-6.038 0-10.95-4.913-10.95-10.951s4.912-10.95 10.95-10.95c1.74 0 3.134.261 4.388.822a.996.996 0 1 1-.813 1.818z" class="gzdacls-1"/></svg>