<?xml version="1.0" encoding="UTF-8" standalone="no"?><svg width="100" height="100" viewBox="0 0 100 100" xmlns="http://www.w3.org/2000/svg"><g fill="none" fill-rule="evenodd"><path d="M99.096 49.687c0 27.441-22.147 49.687-49.466 49.687C22.31 99.374.164 77.128.164 49.687S22.311 0 49.63 0c27.319 0 49.466 22.246 49.466 49.687" fill="currentColor" fill-rule="nonzero"/><path class="hfstar" d="M54.854 39.545c0-5.203 4.2-9.422 9.38-9.422 5.18 0 9.38 4.219 9.38 9.422 0 5.204-4.456 9.423-9.636 9.423H21.252" stroke="#FFF" stroke-width="2" stroke-linecap="round" stroke-linejoin="round"/><path class="hfstar" d="M40.575 43.88c0-2.81 2.268-5.088 5.065-5.088 2.798 0 5.066 2.277 5.066 5.087 0 2.81-2.407 5.088-5.204 5.088h-10.68M50.758 60.876c0 3.285 2.652 5.949 5.923 5.949s5.922-2.664 5.922-5.95c0-3.285-2.813-5.949-6.084-5.949H31.16" stroke="#FFF" stroke-width="2" stroke-linecap="round" stroke-linejoin="round"/></g></svg>