<?xml version="1.0" encoding="UTF-8" standalone="no"?><svg width="100" height="100" viewBox="0 0 100 100" xmlns="http://www.w3.org/2000/svg"><g stroke-width="0" fill="none" fill-rule="evenodd"><path d="M49.575 99.374C22.256 99.374.11 77.128.11 49.687S22.256 0 49.575 0c27.32 0 49.466 22.246 49.466 49.687S76.894 99.374 49.575 99.374z" fill="#0A7B98" fill-rule="nonzero"/><path class="hnstar" d="M49.476 52.338s1.56-19.845-4.46-27.46" stroke="#FFF" stroke-width="2" stroke-linecap="round" stroke-linejoin="round"/><path class="hnstar3" d="M49.566 45.333c.306-6.583-6.86-10.95-13.658-10.581.429 4.983 5.512 11.566 13.658 10.581zM49.337 37.12c-1.512-6.412 4.727-12.035 11.476-12.934.496 4.976-3.29 12.39-11.476 12.934z" stroke="#FFF" stroke-width="2" stroke-linecap="round" stroke-linejoin="round"/><path class="hnstar2" stroke="#FFF" stroke-width="2" stroke-linecap="round" stroke-linejoin="round" d="M59.815 74.083h-20.48l-2.654-13.855H62.47z"/><path class="hnstar" d="M56.097 60.228l-2.654 13.855" stroke="#FFF" stroke-width="2" stroke-linecap="round" stroke-linejoin="round"/><path class="hnstar2" stroke="#FFF" stroke-width="2.184" stroke-linecap="round" stroke-linejoin="round" d="M32.66 53.504h33.83l-1.339 6.724H33.999z"/></g></svg>