<?xml version="1.0" encoding="utf-8"?>
<!-- Generator: Adobe Illustrator 18.1.1, SVG Export Plug-In . SVG Version: 6.00 Build 0)  -->
<!DOCTYPE svg PUBLIC "-//W3C//DTD SVG 1.1//EN" "http://www.w3.org/Graphics/SVG/1.1/DTD/svg11.dtd">
<svg version="1.1" xmlns="http://www.w3.org/2000/svg" xmlns:xlink="http://www.w3.org/1999/xlink" x="0px" y="0px"
	 viewBox="0 0 36 36" enable-background="new 0 0 36 36" xml:space="preserve">
<g id="Guide">
</g>
<g id="Layer_1">
	<path d="M18,24c3.3,0,6-2.7,6-6V8c0-3.3-2.7-6-6-6s-6,2.7-6,6v10C12,21.3,14.7,24,18,24z"/>
	<path d="M26,15v3c0,4.4-3.6,8-8,8s-8-3.6-8-8v-3H6v3c0,5.9,4.3,10.9,10,11.8V34h4v-4.2c5.7-1,10-5.9,10-11.8v-3H26z"/>
</g>
</svg>
