<svg xmlns="http://www.w3.org/2000/svg" xmlns:xlink="http://www.w3.org/1999/xlink" width="297" height="157" viewBox="0 0 297 157">
  <defs>
    <polygon id="iwbi-black_tm-a" points=".06 .466 .06 156.94 223.318 156.94 223.318 .466"/>
  </defs>
  <g fill="none" fill-rule="evenodd">
    <polygon fill="#1A1919" points="99.235 16.459 100.212 16.459 100.212 .565 99.235 .565"/>
    <path fill="#1A1919" d="M107.388,0.565 L108.296,0.565 L117.355,13.03 C117.877,13.757 118.649,15.028 118.649,15.028 L118.695,15.028 C118.695,15.028 118.581,13.825 118.581,13.03 L118.581,0.565 L119.558,0.565 L119.558,16.459 L118.649,16.459 L109.59,3.994 C109.068,3.268 108.296,1.996 108.296,1.996 L108.25,1.996 C108.25,1.996 108.364,3.199 108.364,3.994 L108.364,16.459 L107.388,16.459 L107.388,0.565"/>
    <polyline fill="#1A1919" points="130.392 1.474 124.466 1.474 124.466 .565 137.294 .565 137.294 1.474 131.368 1.474 131.368 16.459 130.392 16.459 130.392 1.474"/>
    <polyline fill="#1A1919" points="142.201 .565 150.897 .565 150.897 1.474 143.178 1.474 143.178 7.99 149.512 7.99 149.512 8.898 143.178 8.898 143.178 15.551 151.328 15.551 151.328 16.459 142.201 16.459 142.201 .565"/>
    <path fill="#1A1919" d="M162.729 8.513C164.818 8.513 166.136 7.014 166.136 4.856 166.136 3.449 165.432 2.314 164.273 1.792 163.819 1.587 163.32 1.474 162.049 1.474L158.416 1.474 158.416 8.513 162.729 8.513zM157.439.565L162.094.565C163.57.565 164.319.725 164.955 1.042 166.271 1.701 167.157 3.04 167.157 4.856 167.157 7.127 165.84 8.83 163.979 9.239L163.979 9.284C163.979 9.284 164.138 9.466 164.342 9.852L167.906 16.459 166.748 16.459 162.979 9.421 158.416 9.421 158.416 16.459 157.439 16.459 157.439.565 157.439.565zM173.813.565L174.721.565 183.78 13.03C184.303 13.757 185.074 15.028 185.074 15.028L185.119 15.028C185.119 15.028 185.006 13.825 185.006 13.03L185.006.565 185.982.565 185.982 16.459 185.074 16.459 176.015 3.994C175.492 3.268 174.721 1.996 174.721 1.996L174.676 1.996C174.676 1.996 174.789 3.199 174.789 3.994L174.789 16.459 173.813 16.459 173.813.565M197.566 1.701C197.566 1.701 197.226 2.927 196.976 3.608L194.546 10.057 200.608 10.057 198.201 3.608C197.952 2.927 197.611 1.701 197.611 1.701L197.566 1.701zM200.949 10.965L194.205 10.965 192.162 16.459 191.117 16.459 197.066.565 198.111.565 204.06 16.459 203.016 16.459 200.949 10.965 200.949 10.965z"/>
    <polyline fill="#1A1919" points="211.805 1.474 205.879 1.474 205.879 .565 218.707 .565 218.707 1.474 212.781 1.474 212.781 16.459 211.805 16.459 211.805 1.474"/>
    <polygon fill="#1A1919" points="223.615 16.459 224.592 16.459 224.592 .565 223.615 .565"/>
    <path fill="#1A1919" d="M238.692 15.801C242.575 15.801 245.709 12.576 245.709 8.398 245.709 4.335 242.575 1.224 238.692 1.224 234.811 1.224 231.677 4.335 231.677 8.398 231.677 12.576 234.811 15.801 238.692 15.801zM238.692.293C243.12.293 246.73 3.835 246.73 8.398 246.73 13.076 243.12 16.732 238.692 16.732 234.266 16.732 230.655 13.076 230.655 8.398 230.655 3.835 234.266.293 238.692.293L238.692.293zM252.797.565L253.705.565 262.765 13.03C263.287 13.757 264.059 15.028 264.059 15.028L264.104 15.028C264.104 15.028 263.99 13.825 263.99 13.03L263.99.565 264.967.565 264.967 16.459 264.059 16.459 254.999 3.994C254.477 3.268 253.705 1.996 253.705 1.996L253.66 1.996C253.66 1.996 253.773 3.199 253.773 3.994L253.773 16.459 252.797 16.459 252.797.565M276.549 1.701C276.549 1.701 276.209 2.927 275.959 3.608L273.529 10.057 279.592 10.057 277.186 3.608C276.936 2.927 276.595 1.701 276.595 1.701L276.549 1.701zM279.933 10.965L273.189 10.965 271.146 16.459 270.102 16.459 276.05.565 277.094.565 283.043 16.459 281.998 16.459 279.933 10.965 279.933 10.965z"/>
    <polyline fill="#1A1919" points="288.178 .565 289.154 .565 289.154 15.551 296.737 15.551 296.737 16.459 288.178 16.459 288.178 .565"/>
    <path fill="#1A1919" d="M97.287,22.548 L101.704,22.548 L103.864,33.276 C104.08,34.333 104.08,35.077 104.08,35.077 L104.128,35.077 C104.128,35.077 104.151,34.333 104.416,33.276 L107.056,22.548 L110.44,22.548 L113.009,33.276 C113.272,34.333 113.297,35.077 113.297,35.077 L113.345,35.077 C113.345,35.077 113.345,34.333 113.561,33.276 L115.913,22.548 L120.257,22.548 L115.913,39.709 L111.232,39.709 L109.072,31.045 C108.809,29.941 108.736,29.028 108.736,29.028 L108.688,29.028 C108.688,29.028 108.616,29.941 108.353,31.045 L106.192,39.709 L101.464,39.709 L97.287,22.548"/>
    <polyline fill="#1A1919" points="125.151 22.548 135.904 22.548 135.904 26.148 129.352 26.148 129.352 29.269 134.584 29.269 134.584 32.868 129.352 32.868 129.352 36.109 136.24 36.109 136.24 39.709 125.151 39.709 125.151 22.548"/>
    <polyline fill="#1A1919" points="141.663 22.548 145.863 22.548 145.863 36.109 152.872 36.109 152.872 39.709 141.663 39.709 141.663 22.548"/>
    <polyline fill="#1A1919" points="157.575 22.548 161.775 22.548 161.775 36.109 168.784 36.109 168.784 39.709 157.575 39.709 157.575 22.548"/>
    <path fill="#1A1919" d="M104.707 60.801C106.842 60.801 108.204 59.484 108.204 57.327 108.204 55.17 106.729 53.808 104.685 53.808L100.212 53.808 100.212 60.801 104.707 60.801zM104.549 52.899C106.319 52.899 107.568 51.674 107.568 49.789 107.568 47.927 106.388 46.724 104.525 46.724L100.212 46.724 100.212 52.899 104.549 52.899zM99.235 45.816L104.571 45.816C106.887 45.816 108.59 47.359 108.59 49.789 108.59 51.515 107.75 52.673 106.523 53.263L106.523 53.309C108.09 53.739 109.226 55.283 109.226 57.327 109.226 59.983 107.341 61.709 104.798 61.709L99.235 61.709 99.235 45.816 99.235 45.816zM115.336 45.816L116.312 45.816 116.312 56.215C116.312 59.212 118.265 61.051 121.262 61.051 124.259 61.051 126.234 59.212 126.234 56.169L126.234 45.816 127.21 45.816 127.21 56.26C127.21 59.757 124.781 61.982 121.284 61.982 117.787 61.982 115.336 59.757 115.336 56.26L115.336 45.816"/>
    <polygon fill="#1A1919" points="134.162 61.71 135.139 61.71 135.139 45.816 134.162 45.816"/>
    <polyline fill="#1A1919" points="142.314 45.816 143.291 45.816 143.291 60.801 150.874 60.801 150.874 61.709 142.314 61.709 142.314 45.816"/>
    <path fill="#1A1919" d="M160.98,60.801 C165.204,60.801 168.042,58.326 168.042,53.763 C168.042,49.222 165.204,46.724 160.98,46.724 L157.121,46.724 L157.121,60.801 L160.98,60.801 Z M156.145,45.816 L161.14,45.816 C165.862,45.816 169.063,48.722 169.063,53.763 C169.063,58.825 165.862,61.709 161.14,61.709 L156.145,61.709 L156.145,45.816 L156.145,45.816 Z"/>
    <polygon fill="#1A1919" points="175.243 61.71 176.22 61.71 176.22 45.816 175.243 45.816"/>
    <path fill="#1A1919" d="M183.396 45.816L184.305 45.816 193.364 58.28C193.887 59.007 194.658 60.278 194.658 60.278L194.703 60.278C194.703 60.278 194.59 59.075 194.59 58.28L194.59 45.816 195.566 45.816 195.566 61.709 194.658 61.709 185.599 49.244C185.076 48.518 184.305 47.246 184.305 47.246L184.26 47.246C184.26 47.246 184.373 48.449 184.373 49.244L184.373 61.709 183.396 61.709 183.396 45.816M209.602 45.543C213.188 45.543 215.141 47.337 215.141 47.337L214.551 48.086C214.551 48.086 212.644 46.474 209.602 46.474 205.605 46.474 202.699 49.652 202.699 53.763 202.699 57.895 205.537 61.051 209.465 61.051 212.871 61.051 214.914 58.439 214.914 58.439L214.914 55.374 212.076 55.374 212.076 54.466 215.891 54.466 215.891 61.709 214.914 61.709 214.914 60.324C214.914 59.983 214.937 59.643 214.937 59.643L214.892 59.643C214.892 59.643 212.984 61.982 209.465 61.982 205.037 61.982 201.677 58.371 201.677 53.763 201.677 49.176 205.105 45.543 209.602 45.543"/>
    <polygon fill="#1A1919" points="99.235 83.709 100.212 83.709 100.212 67.816 99.235 67.816"/>
    <path fill="#1A1919" d="M107.388 67.816L108.296 67.816 117.355 80.28C117.877 81.007 118.649 82.278 118.649 82.278L118.695 82.278C118.695 82.278 118.581 81.075 118.581 80.28L118.581 67.816 119.558 67.816 119.558 83.709 118.649 83.709 109.59 71.244C109.068 70.518 108.296 69.246 108.296 69.246L108.25 69.246C108.25 69.246 108.364 70.449 108.364 71.244L108.364 83.709 107.388 83.709 107.388 67.816M126.214 81.257C126.214 81.257 127.826 83.028 130.46 83.028 132.436 83.028 134.002 81.802 134.002 79.895 134.002 75.376 125.873 76.625 125.873 71.652 125.873 69.541 127.758 67.543 130.642 67.543 133.23 67.543 134.684 69.019 134.684 69.019L134.139 69.859C134.139 69.859 132.775 68.497 130.664 68.497 128.303 68.497 126.896 70.086 126.896 71.63 126.896 75.83 135.023 74.536 135.023 79.85 135.023 82.143 133.253 83.981 130.414 83.981 127.281 83.981 125.556 82.006 125.556 82.006L126.214 81.257"/>
    <polyline fill="#1A1919" points="144.698 68.724 138.772 68.724 138.772 67.816 151.601 67.816 151.601 68.724 145.675 68.724 145.675 83.709 144.698 83.709 144.698 68.724"/>
    <polygon fill="#1A1919" points="156.509 83.709 157.485 83.709 157.485 67.816 156.509 67.816"/>
    <polyline fill="#1A1919" points="168.316 68.724 162.391 68.724 162.391 67.816 175.219 67.816 175.219 68.724 169.293 68.724 169.293 83.709 168.316 83.709 168.316 68.724"/>
    <path fill="#1A1919" d="M179.9,67.816 L180.876,67.816 L180.876,78.215 C180.876,81.212 182.829,83.051 185.826,83.051 C188.823,83.051 190.799,81.212 190.799,78.169 L190.799,67.816 L191.774,67.816 L191.774,78.26 C191.774,81.757 189.346,83.981 185.849,83.981 C182.352,83.981 179.9,81.757 179.9,78.26 L179.9,67.816"/>
    <polyline fill="#1A1919" points="202.381 68.724 196.455 68.724 196.455 67.816 209.283 67.816 209.283 68.724 203.357 68.724 203.357 83.709 202.381 83.709 202.381 68.724"/>
    <mask id="iwbi-black_tm-b" fill="#fff">
      <use xlink:href="#iwbi-black_tm-a"/>
    </mask>
    <polyline fill="#1A1919" points="214.191 67.816 222.888 67.816 222.888 68.724 215.168 68.724 215.168 75.24 221.502 75.24 221.502 76.149 215.168 76.149 215.168 82.801 223.318 82.801 223.318 83.709 214.191 83.709 214.191 67.816" mask="url(#iwbi-black_tm-b)"/>
    <path fill="#1A1919" d="M144.299,109.797 C132.239,134.826 106.503,151 78.735,151 C38.629,151 6,118.371 6,78.265 C6,60.804 12.279,43.923 23.681,30.73 C34.967,17.671 50.521,9.028 67.48,6.395 L66.56,0.466 C48.197,3.318 31.356,12.672 19.141,26.807 C6.798,41.089 0,59.364 0,78.265 C0,121.68 35.32,157 78.735,157 C108.793,157 136.65,139.494 149.704,112.401 L144.299,109.797" mask="url(#iwbi-black_tm-b)"/>
    <path fill="#1A1919" d="M8.004 78.265C8.004 81.056 8.169 83.87 8.494 86.63L14.453 85.929C14.155 83.401 14.004 80.823 14.004 78.265 14.004 42.572 43.042 13.533 78.735 13.533 80.943 13.533 83.17 13.646 85.357 13.868L85.963 7.898C83.576 7.656 81.144 7.533 78.735 7.533 39.734 7.533 8.004 39.263 8.004 78.265M78.735 142.996C58.243 142.996 38.744 133.131 26.576 116.607L21.745 120.165C35.039 138.218 56.344 148.996 78.735 148.996 113.044 148.996 142.325 124.522 148.358 90.802L142.452 89.745C136.931 120.601 110.134 142.996 78.735 142.996"/>
    <path fill="#1A1919" d="M78.735,140.992 C92.923,140.992 106.307,136.371 117.441,127.629 L113.736,122.91 C103.669,130.815 91.566,134.992 78.735,134.992 C47.456,134.992 22.008,109.544 22.008,78.265 C22.008,68.82 24.375,59.471 28.853,51.227 L23.581,48.363 C18.626,57.483 16.008,67.823 16.008,78.265 C16.008,112.853 44.147,140.992 78.735,140.992"/>
    <path fill="#1A1919" d="M30.012,78.265 C30.012,64.513 35.867,51.334 46.077,42.107 L42.053,37.656 C30.588,48.018 24.012,62.82 24.012,78.265 C24.012,108.439 48.56,132.988 78.735,132.988 C99.839,132.988 118.697,121.197 127.951,102.217 L122.558,99.588 C114.318,116.488 97.526,126.988 78.735,126.988 C51.869,126.988 30.012,105.131 30.012,78.265"/>
    <path fill="#1A1919" d="M68.068 38.956L66.501 33.164C46.197 38.66 32.016 57.206 32.016 78.265 32.016 85.623 33.679 92.667 36.958 99.2L42.321 96.509C39.464 90.819 38.016 84.681 38.016 78.265 38.016 59.91 50.374 43.745 68.068 38.956M61.492 115.164L58.948 120.598C65.163 123.508 71.82 124.984 78.735 124.984 87.214 124.984 95.518 122.689 102.75 118.347L99.662 113.202C93.362 116.985 86.126 118.984 78.735 118.984 72.706 118.984 66.905 117.698 61.492 115.164"/>
    <polyline fill="#1A1919" points="230.634 69.292 228.21 69.292 228.21 68.698 233.71 68.698 233.71 69.292 231.295 69.292 231.295 75.435 230.634 75.435 230.634 69.292"/>
    <path fill="#1A1919" d="M235.079,68.698 L235.77,68.698 L237.532,72.656 C237.687,73.001 237.858,73.479 237.858,73.479 L237.878,73.479 C237.878,73.479 238.06,73.001 238.213,72.656 L239.977,68.698 L240.656,68.698 L241.193,75.435 L240.532,75.435 L240.158,70.72 C240.13,70.357 240.14,69.781 240.14,69.781 L240.12,69.781 C240.12,69.781 239.919,70.375 239.766,70.72 L238.185,74.18 L237.562,74.18 L235.98,70.72 C235.827,70.385 235.616,69.762 235.616,69.762 L235.597,69.762 C235.597,69.762 235.606,70.357 235.578,70.72 L235.204,75.435 L234.543,75.435 L235.079,68.698"/>
  </g>
</svg>
