<svg xmlns="http://www.w3.org/2000/svg" xmlns:xlink="http://www.w3.org/1999/xlink" width="297" height="157" viewBox="0 0 297 157">
  <defs>
    <polygon id="logo-white-a" points=".06 .465 .06 156.94 223.296 156.94 223.296 .465"/>
    <path id="logo-white-c" d="M81.782655,156.94 L75.6403874,156.94 C34.6807096,155.349111 1.65086658,122.318352 0.06,81.3577279 L0.06,75.1885 C0.755059202,57.3890815 7.46866528,40.3129864 19.142,26.806 C31.355,12.672 48.197,3.317 66.56,0.465 L67.481,6.394 C50.522,9.027 34.967,17.67 23.681,30.73 C12.279,43.922 6,60.803 6,78.263 C6,118.371 38.629,150.999 78.735,150.999 C106.504,150.999 132.238,134.827 144.298,109.797 L149.705,112.4 C137.091429,138.575864 110.66392,155.802536 81.782655,156.94 L81.782655,156.94 Z"/>
    <path id="logo-white-e" d="M0.004,71.263 C0.004,32.263 31.733,0.532 70.735,0.532 C73.144,0.532 75.576,0.656 77.963,0.898 L77.357,6.867 C75.17,6.644 72.943,6.533 70.735,6.533 C35.043,6.533 6.003,35.571 6.003,71.263 C6.003,73.822 6.156,76.4 6.453,78.929 L0.494,79.63 C0.169,76.869 0.004,74.054 0.004,71.263 Z"/>
    <path id="logo-white-g" d="M57.735,53.996 C89.134,53.996 115.93,31.599 121.451,0.744 L127.358,1.8 C121.324,35.521 92.044,59.994 57.735,59.994 C35.344,59.994 14.039,49.217 0.744,31.164 L5.576,27.605 C17.744,44.129 37.243,53.996 57.735,53.996 Z"/>
    <path id="logo-white-i" d="M0.009,30.263 C0.009,19.822 2.627,9.482 7.58,0.363 L12.852,3.226 C8.375,11.47 6.008,20.82 6.008,30.263 C6.008,61.543 31.455,86.992 62.735,86.992 C75.565,86.992 87.669,82.814 97.736,74.911 L101.439,79.629 C90.307,88.371 76.923,92.992 62.735,92.992 C28.147,92.992 0.009,64.852 0.009,30.263 Z"/>
    <path id="logo-white-k" d="M0.011,41.263 C0.011,25.818 6.588,11.018 18.053,0.654 L22.077,5.106 C11.867,14.333 6.012,27.512 6.012,41.263 C6.012,68.129 27.869,89.987 54.735,89.987 C73.526,89.987 90.317,79.488 98.557,62.586 L103.951,65.215 C94.698,84.197 75.839,95.986 54.735,95.986 C24.561,95.986 0.011,71.438 0.011,41.263 Z"/>
    <path id="logo-white-m" d="M0.016,45.263 C0.016,24.205 14.196,5.66 34.501,0.163 L36.067,5.956 C18.374,10.745 6.016,26.91 6.016,45.263 C6.016,51.68 7.464,57.818 10.321,63.508 L4.959,66.199 C1.679,59.666 0.016,52.623 0.016,45.263 Z"/>
    <path id="logo-white-o" d="M20.735,5.982 C28.126,5.982 35.364,3.984 41.662,0.201 L44.75,5.346 C37.518,9.687 29.214,11.982 20.735,11.982 C13.82,11.982 7.163,10.505 0.949,7.598 L3.492,2.162 C8.905,4.697 14.706,5.982 20.735,5.982 Z"/>
  </defs>
  <g fill="none" fill-rule="evenodd">
    <polygon fill="#FFFFFE" points="99.235 16.458 100.211 16.458 100.211 .565 99.235 .565"/>
    <path fill="#FFFFFE" d="M107.388,0.565 L108.296,0.565 L117.355,13.029 C117.877,13.756 118.649,15.027 118.649,15.027 L118.695,15.027 C118.695,15.027 118.581,13.824 118.581,13.029 L118.581,0.565 L119.558,0.565 L119.558,16.458 L118.649,16.458 L109.59,3.993 C109.068,3.267 108.296,1.995 108.296,1.995 L108.25,1.995 C108.25,1.995 108.364,3.198 108.364,3.993 L108.364,16.458 L107.388,16.458 L107.388,0.565"/>
    <polyline fill="#FFFFFE" points="130.369 1.473 124.443 1.473 124.443 .565 137.271 .565 137.271 1.473 131.345 1.473 131.345 16.458 130.369 16.458 130.369 1.473"/>
    <polyline fill="#FFFFFE" points="142.179 .565 150.874 .565 150.874 1.473 143.155 1.473 143.155 7.989 149.49 7.989 149.49 8.898 143.155 8.898 143.155 15.55 151.306 15.55 151.306 16.458 142.179 16.458 142.179 .565"/>
    <path fill="#FFFFFE" d="M162.684 8.511C164.773 8.511 166.09 7.013 166.09 4.855 166.09 3.448 165.386 2.313 164.228 1.79 163.774 1.586 163.275 1.473 162.003 1.473L158.371 1.473 158.371 8.511 162.684 8.511zM157.394.565L162.048.565C163.525.565 164.274.724 164.91 1.041 166.226 1.7 167.112 3.039 167.112 4.855 167.112 7.126 165.794 8.829 163.933 9.238L163.933 9.283C163.933 9.283 164.092 9.465 164.296 9.851L167.861 16.458 166.703 16.458 162.934 9.42 158.371 9.42 158.371 16.458 157.394 16.458 157.394.565 157.394.565zM173.814.565L174.722.565 183.782 13.029C184.304 13.756 185.076 15.027 185.076 15.027L185.121 15.027C185.121 15.027 185.007 13.824 185.007 13.029L185.007.565 185.984.565 185.984 16.458 185.076 16.458 176.016 3.993C175.494 3.267 174.722 1.995 174.722 1.995L174.677 1.995C174.677 1.995 174.79 3.198 174.79 3.993L174.79 16.458 173.814 16.458 173.814.565M197.544 1.7C197.544 1.7 197.204 2.926 196.954 3.607L194.524 10.055 200.586 10.055 198.179 3.607C197.93 2.926 197.589 1.7 197.589 1.7L197.544 1.7zM200.927 10.963L194.183 10.963 192.14 16.458 191.095 16.458 197.044.565 198.089.565 204.038 16.458 202.994 16.458 200.927 10.963 200.927 10.963z"/>
    <polyline fill="#FFFFFE" points="211.783 1.473 205.857 1.473 205.857 .565 218.685 .565 218.685 1.473 212.759 1.473 212.759 16.458 211.783 16.458 211.783 1.473"/>
    <polygon fill="#FFFFFE" points="223.571 16.458 224.547 16.458 224.547 .565 223.571 .565"/>
    <path fill="#FFFFFE" d="M238.648 15.8C242.531 15.8 245.664 12.575 245.664 8.398 245.664 4.333 242.531 1.223 238.648 1.223 234.765 1.223 231.632 4.333 231.632 8.398 231.632 12.575 234.765 15.8 238.648 15.8zM238.648.292C243.076.292 246.686 3.834 246.686 8.398 246.686 13.075 243.076 16.73 238.648 16.73 234.22 16.73 230.611 13.075 230.611 8.398 230.611 3.834 234.22.292 238.648.292L238.648.292zM252.752.565L253.661.565 262.72 13.029C263.242 13.756 264.014 15.027 264.014 15.027L264.06 15.027C264.06 15.027 263.946 13.824 263.946 13.029L263.946.565 264.922.565 264.922 16.458 264.014 16.458 254.955 3.993C254.433 3.267 253.661 1.995 253.661 1.995L253.615 1.995C253.615 1.995 253.729 3.198 253.729 3.993L253.729 16.458 252.752 16.458 252.752.565M276.505 1.7C276.505 1.7 276.165 2.926 275.915 3.607L273.486 10.055 279.548 10.055 277.142 3.607C276.892 2.926 276.551 1.7 276.551 1.7L276.505 1.7zM279.889 10.963L273.146 10.963 271.102 16.458 270.058 16.458 276.006.565 277.05.565 282.999 16.458 281.955 16.458 279.889 10.963 279.889 10.963z"/>
    <polyline fill="#FFFFFE" points="288.134 .565 289.111 .565 289.111 15.55 296.694 15.55 296.694 16.458 288.134 16.458 288.134 .565"/>
    <path fill="#FFFFFE" d="M97.287,22.546 L101.704,22.546 L103.864,33.275 C104.08,34.332 104.08,35.076 104.08,35.076 L104.128,35.076 C104.128,35.076 104.152,34.332 104.416,33.275 L107.056,22.546 L110.44,22.546 L113.009,33.275 C113.272,34.332 113.296,35.076 113.296,35.076 L113.345,35.076 C113.345,35.076 113.345,34.332 113.56,33.275 L115.913,22.546 L120.257,22.546 L115.913,39.708 L111.232,39.708 L109.072,31.044 C108.808,29.939 108.736,29.027 108.736,29.027 L108.688,29.027 C108.688,29.027 108.616,29.939 108.352,31.044 L106.192,39.708 L101.463,39.708 L97.287,22.546"/>
    <polyline fill="#FFFFFE" points="125.151 22.546 135.904 22.546 135.904 26.147 129.351 26.147 129.351 29.267 134.584 29.267 134.584 32.867 129.351 32.867 129.351 36.108 136.24 36.108 136.24 39.708 125.151 39.708 125.151 22.546"/>
    <polyline fill="#FFFFFE" points="141.639 22.546 145.839 22.546 145.839 36.108 152.848 36.108 152.848 39.708 141.639 39.708 141.639 22.546"/>
    <polyline fill="#FFFFFE" points="157.576 22.546 161.776 22.546 161.776 36.108 168.785 36.108 168.785 39.708 157.576 39.708 157.576 22.546"/>
    <path fill="#FFFFFE" d="M104.707 60.8C106.841 60.8 108.204 59.483 108.204 57.326 108.204 55.169 106.728 53.807 104.684 53.807L100.211 53.807 100.211 60.8 104.707 60.8zM104.548 52.899C106.319 52.899 107.568 51.672 107.568 49.788 107.568 47.926 106.387 46.723 104.526 46.723L100.211 46.723 100.211 52.899 104.548 52.899zM99.235 45.815L104.571 45.815C106.887 45.815 108.59 47.358 108.59 49.788 108.59 51.514 107.749 52.671 106.524 53.262L106.524 53.307C108.09 53.738 109.226 55.282 109.226 57.326 109.226 59.982 107.341 61.708 104.798 61.708L99.235 61.708 99.235 45.815 99.235 45.815zM115.336 45.815L116.313 45.815 116.313 56.213C116.313 59.211 118.265 61.05 121.262 61.05 124.259 61.05 126.235 59.211 126.235 56.168L126.235 45.815 127.211 45.815 127.211 56.259C127.211 59.755 124.782 61.981 121.285 61.981 117.789 61.981 115.336 59.755 115.336 56.259L115.336 45.815"/>
    <polygon fill="#FFFFFE" points="134.14 61.709 135.116 61.709 135.116 45.815 134.14 45.815"/>
    <polyline fill="#FFFFFE" points="142.292 45.815 143.268 45.815 143.268 60.8 150.852 60.8 150.852 61.708 142.292 61.708 142.292 45.815"/>
    <path fill="#FFFFFE" d="M160.982,60.8 C165.205,60.8 168.043,58.325 168.043,53.761 C168.043,49.22 165.205,46.723 160.982,46.723 L157.122,46.723 L157.122,60.8 L160.982,60.8 Z M156.146,45.815 L161.141,45.815 C165.864,45.815 169.065,48.721 169.065,53.761 C169.065,58.824 165.864,61.708 161.141,61.708 L156.146,61.708 L156.146,45.815 L156.146,45.815 Z"/>
    <polygon fill="#FFFFFE" points="175.221 61.709 176.198 61.709 176.198 45.815 175.221 45.815"/>
    <path fill="#FFFFFE" d="M183.373 45.815L184.282 45.815 193.341 58.279C193.863 59.006 194.635 60.277 194.635 60.277L194.681 60.277C194.681 60.277 194.567 59.074 194.567 58.279L194.567 45.815 195.543 45.815 195.543 61.708 194.635 61.708 185.576 49.243C185.054 48.517 184.282 47.245 184.282 47.245L184.236 47.245C184.236 47.245 184.35 48.448 184.35 49.243L184.35 61.708 183.373 61.708 183.373 45.815M209.58 45.542C213.167 45.542 215.121 47.336 215.121 47.336L214.53 48.085C214.53 48.085 212.622 46.473 209.58 46.473 205.583 46.473 202.677 49.651 202.677 53.761 202.677 57.894 205.516 61.05 209.444 61.05 212.849 61.05 214.893 58.439 214.893 58.439L214.893 55.373 212.055 55.373 212.055 54.465 215.87 54.465 215.87 61.708 214.893 61.708 214.893 60.323C214.893 59.982 214.915 59.642 214.915 59.642L214.871 59.642C214.871 59.642 212.963 61.981 209.444 61.981 205.016 61.981 201.656 58.37 201.656 53.761 201.656 49.175 205.084 45.542 209.58 45.542"/>
    <polygon fill="#FFFFFE" points="99.235 83.714 100.211 83.714 100.211 67.82 99.235 67.82"/>
    <path fill="#FFFFFE" d="M107.388 67.82L108.296 67.82 117.355 80.285C117.877 81.012 118.649 82.283 118.649 82.283L118.695 82.283C118.695 82.283 118.581 81.08 118.581 80.285L118.581 67.82 119.558 67.82 119.558 83.714 118.649 83.714 109.59 71.249C109.068 70.523 108.296 69.251 108.296 69.251L108.25 69.251C108.25 69.251 108.364 70.454 108.364 71.249L108.364 83.714 107.388 83.714 107.388 67.82M126.191 81.262C126.191 81.262 127.803 83.033 130.437 83.033 132.413 83.033 133.979 81.807 133.979 79.899 133.979 75.381 125.851 76.63 125.851 71.657 125.851 69.546 127.735 67.548 130.619 67.548 133.207 67.548 134.66 69.024 134.66 69.024L134.115 69.863C134.115 69.863 132.753 68.502 130.641 68.502 128.28 68.502 126.872 70.091 126.872 71.635 126.872 75.835 135.001 74.541 135.001 79.854 135.001 82.148 133.23 83.986 130.392 83.986 127.258 83.986 125.533 82.011 125.533 82.011L126.191 81.262"/>
    <polyline fill="#FFFFFE" points="144.676 68.729 138.75 68.729 138.75 67.82 151.579 67.82 151.579 68.729 145.652 68.729 145.652 83.714 144.676 83.714 144.676 68.729"/>
    <polygon fill="#FFFFFE" points="156.463 83.714 157.44 83.714 157.44 67.82 156.463 67.82"/>
    <polyline fill="#FFFFFE" points="168.317 68.729 162.391 68.729 162.391 67.82 175.219 67.82 175.219 68.729 169.293 68.729 169.293 83.714 168.317 83.714 168.317 68.729"/>
    <path fill="#FFFFFE" d="M179.876,67.82 L180.853,67.82 L180.853,78.219 C180.853,81.217 182.806,83.056 185.803,83.056 C188.8,83.056 190.775,81.217 190.775,78.174 L190.775,67.82 L191.751,67.82 L191.751,78.265 C191.751,81.762 189.322,83.986 185.826,83.986 C182.33,83.986 179.876,81.762 179.876,78.265 L179.876,67.82"/>
    <polyline fill="#FFFFFE" points="202.358 68.729 196.432 68.729 196.432 67.82 209.26 67.82 209.26 68.729 203.334 68.729 203.334 83.714 202.358 83.714 202.358 68.729"/>
    <mask id="logo-white-b" fill="#fff">
      <use xlink:href="#logo-white-a"/>
    </mask>
    <polyline fill="#FFFFFE" points="214.168 67.82 222.865 67.82 222.865 68.729 215.145 68.729 215.145 75.245 221.48 75.245 221.48 76.153 215.145 76.153 215.145 82.806 223.296 82.806 223.296 83.714 214.168 83.714 214.168 67.82" mask="url(#logo-white-b)"/>
    <path fill="#FFFFFE" d="M19.142,26.806 C6.798,41.089 0,59.363 0,78.263 C0,121.679 35.32,157 78.735,157 C108.793,157 136.649,139.494 149.705,112.4 L144.298,109.797 C132.238,134.827 106.504,150.999 78.735,150.999 C38.629,150.999 6,118.371 6,78.263 C6,60.803 12.279,43.922 23.681,30.73 C34.967,17.67 50.522,9.027 67.481,6.394 L66.56,0.465 C48.197,3.317 31.355,12.672 19.142,26.806" mask="url(#logo-white-b)"/>
    <mask id="logo-white-d" fill="#fff">
      <use xlink:href="#logo-white-c"/>
    </mask>
    <polyline fill="#FFFFFE" points="56.601 229.593 225.609 97.817 93.104 -72.127 -75.905 59.649 56.601 229.593" mask="url(#logo-white-d)"/>
    <path fill="#FFFFFE" d="M8.004,78.263 C8.004,81.054 8.169,83.869 8.494,86.63 L14.453,85.929 C14.156,83.4 14.003,80.822 14.003,78.263 C14.003,42.571 43.043,13.533 78.735,13.533 C80.943,13.533 83.17,13.644 85.357,13.867 L85.963,7.898 C83.576,7.656 81.144,7.532 78.735,7.532 C39.733,7.532 8.004,39.263 8.004,78.263"/>
    <g transform="translate(8 7)">
      <mask id="logo-white-f" fill="#fff">
        <use xlink:href="#logo-white-e"/>
      </mask>
      <polyline fill="#FFFFFE" points="29.479 117.433 116.318 49.725 48.488 -37.271 -38.351 30.438 29.479 117.433" mask="url(#logo-white-f)"/>
    </g>
    <path fill="#FFFFFE" d="M78.735,142.996 C58.243,142.996 38.744,133.129 26.576,116.605 L21.744,120.164 C35.039,138.217 56.344,148.994 78.735,148.994 C113.044,148.994 142.324,124.521 148.358,90.8 L142.451,89.744 C136.93,120.599 110.134,142.996 78.735,142.996"/>
    <g transform="translate(21 89)">
      <mask id="logo-white-h" fill="#fff">
        <use xlink:href="#logo-white-g"/>
      </mask>
      <polyline fill="#FFFFFE" points="48.615 121.391 156.089 37.593 79.488 -60.652 -27.987 23.145 48.615 121.391" mask="url(#logo-white-h)"/>
    </g>
    <path fill="#FFFFFE" d="M16.009,78.263 C16.009,112.852 44.147,140.992 78.735,140.992 C92.923,140.992 106.307,136.371 117.439,127.629 L113.736,122.911 C103.669,130.814 91.565,134.992 78.735,134.992 C47.455,134.992 22.008,109.543 22.008,78.263 C22.008,68.82 24.375,59.47 28.852,51.226 L23.58,48.363 C18.627,57.482 16.009,67.822 16.009,78.263"/>
    <g transform="translate(16 48)">
      <mask id="logo-white-j" fill="#fff">
        <use xlink:href="#logo-white-i"/>
      </mask>
      <polyline fill="#FFFFFE" points="38.358 142.177 146.356 57.971 63.09 -48.821 -44.907 35.385 38.358 142.177" mask="url(#logo-white-j)"/>
    </g>
    <path fill="#FFFFFE" d="M24.011,78.263 C24.011,108.438 48.561,132.986 78.735,132.986 C99.839,132.986 118.698,121.197 127.951,102.215 L122.557,99.586 C114.317,116.488 97.526,126.987 78.735,126.987 C51.869,126.987 30.012,105.129 30.012,78.263 C30.012,64.512 35.867,51.333 46.077,42.106 L42.053,37.654 C30.588,48.018 24.011,62.818 24.011,78.263"/>
    <g transform="translate(24 37)">
      <mask id="logo-white-l" fill="#fff">
        <use xlink:href="#logo-white-k"/>
      </mask>
      <polyline fill="#FFFFFE" points="39.309 146.388 150.178 59.942 64.653 -49.747 -46.216 36.697 39.309 146.388" mask="url(#logo-white-l)"/>
    </g>
    <path fill="#FFFFFE" d="M32.016,78.263 C32.016,85.623 33.679,92.666 36.959,99.199 L42.321,96.508 C39.464,90.818 38.016,84.68 38.016,78.263 C38.016,59.91 50.374,43.745 68.067,38.956 L66.501,33.163 C46.196,38.66 32.016,57.205 32.016,78.263"/>
    <g transform="translate(32 33)">
      <mask id="logo-white-n" fill="#fff">
        <use xlink:href="#logo-white-m"/>
      </mask>
      <polyline fill="#FFFFFE" points="13.646 83.681 68.088 41.232 22.437 -17.318 -32.005 25.13 13.646 83.681" mask="url(#logo-white-n)"/>
    </g>
    <path fill="#FFFFFE" d="M78.735,118.982 C72.706,118.982 66.905,117.697 61.492,115.162 L58.949,120.598 C65.163,123.505 71.82,124.982 78.735,124.982 C87.214,124.982 95.518,122.687 102.75,118.346 L99.662,113.201 C93.364,116.984 86.126,118.982 78.735,118.982"/>
    <g transform="translate(58 113)">
      <mask id="logo-white-p" fill="#fff">
        <use xlink:href="#logo-white-o"/>
      </mask>
      <polyline fill="#FFFFFE" points="17.509 33.222 50.463 7.528 28.19 -21.038 -4.764 4.655 17.509 33.222" mask="url(#logo-white-p)"/>
    </g>
    <polyline fill="#FFFFFE" points="230.414 68.39 227.991 68.39 227.991 67.796 233.491 67.796 233.491 68.39 231.076 68.39 231.076 74.532 230.414 74.532 230.414 68.39"/>
    <path fill="#FFFFFE" d="M234.861,67.796 L235.55,67.796 L237.314,71.753 C237.466,72.099 237.639,72.577 237.639,72.577 L237.659,72.577 C237.659,72.577 237.84,72.099 237.994,71.753 L239.757,67.796 L240.437,67.796 L240.974,74.532 L240.313,74.532 L239.939,69.817 C239.911,69.453 239.919,68.879 239.919,68.879 L239.901,68.879 C239.901,68.879 239.7,69.473 239.546,69.817 L237.965,73.277 L237.342,73.277 L235.761,69.817 C235.608,69.482 235.397,68.859 235.397,68.859 L235.377,68.859 C235.377,68.859 235.387,69.453 235.359,69.817 L234.985,74.532 L234.324,74.532 L234.861,67.796"/>
  </g>
</svg>
