<?xml version="1.0" encoding="UTF-8"?>
<svg width="555px" height="555px" viewBox="0 0 555 555" version="1.1" xmlns="http://www.w3.org/2000/svg" xmlns:xlink="http://www.w3.org/1999/xlink">
    <!-- Generator: Sketch 48.2 (47327) - http://www.bohemiancoding.com/sketch -->
    <title>2017 WELL Community Seal / Gold (Dark Option)</title>
    <desc>Created with Sketch.</desc>
    <defs>
        <polygon id="path-1" points="0.00133170732 2.55021951 543.44978 2.55021951 543.44978 545.999334 0.00133170732 545.999334"></polygon>
        <polygon id="path-3" points="0 546.779049 543.44978 546.779049 543.44978 3.32926829 0 3.32926829"></polygon>
    </defs>
    <g id="Symbols" stroke="none" stroke-width="1" fill="none" fill-rule="evenodd">
        <g id="2017-WELL-Community-Seal-/-Gold-(Dark-Option)">
            <g id="Page-1" transform="translate(5.000000, 5.000000)">
                <g id="Group-3" transform="translate(0.000000, 0.779049)">
                    <mask id="mask-2" fill="white">
                        <use xlink:href="#path-1"></use>
                    </mask>
                    <g id="Clip-2"></g>
                    <path d="M543.451112,274.274444 C543.451112,124.204346 421.79632,2.54955366 271.726222,2.54955366 C121.656124,2.54955366 0.00133170732,124.204346 0.00133170732,274.274444 C0.00133170732,424.344541 121.656124,545.999334 271.726222,545.999334 C421.79632,545.999334 543.451112,424.344541 543.451112,274.274444" id="Fill-1" fill="#D0D2D3" mask="url(#mask-2)"></path>
                </g>
                <path d="M271.433912,50.6318451 C147.688339,50.6318451 47.0112659,151.308918 47.0112659,275.054491 C47.0112659,398.800065 147.688339,499.477138 271.433912,499.477138 C395.179485,499.477138 495.856559,398.800065 495.856559,275.054491 C495.856559,151.308918 395.179485,50.6318451 271.433912,50.6318451 M271.433912,517.62165 C137.680559,517.62165 28.8667537,408.807845 28.8667537,275.054491 C28.8667537,141.301138 137.680559,32.4873329 271.433912,32.4873329 C405.187266,32.4873329 513.997741,141.301138 513.997741,275.054491 C513.997741,408.807845 405.187266,517.62165 271.433912,517.62165" id="Fill-4" fill="#A6A8AB"></path>
                <polygon id="Fill-6" fill="#A6A8AB" points="489.848894 61.3197951 484.795065 61.3197951 484.795065 60.0813073 496.257735 60.0813073 496.257735 61.3197951 491.223882 61.3197951 491.223882 74.1175024 489.848894 74.1175024"></polygon>
                <path d="M499.118243,60.0809744 L500.556487,60.0809744 L504.22867,68.327572 C504.548279,69.0466939 504.90784,70.0454744 504.90784,70.0454744 L504.947791,70.0454744 C504.947791,70.0454744 505.327328,69.0466939 505.646938,68.327572 L509.319121,60.0809744 L510.737389,60.0809744 L511.856023,74.1171695 L510.477706,74.1171695 L509.701987,64.295828 C509.63873,63.5367549 509.658706,62.3382183 509.658706,62.3382183 L509.618755,62.3382183 C509.618755,62.3382183 509.199267,63.5767061 508.882987,64.295828 L505.587011,71.5003646 L504.291926,71.5003646 L500.992621,64.295828 C500.67634,63.5966817 500.236877,62.2982671 500.236877,62.2982671 L500.196926,62.2982671 C500.196926,62.2982671 500.216901,63.5367549 500.156974,64.295828 L499.377926,74.1171695 L497.999609,74.1171695 L499.118243,60.0809744 Z" id="Fill-8" fill="#A6A8AB"></path>
                <path d="M469.227073,361.945065 L452.397622,354.437565 C415.565927,436.990101 327.480146,484.259052 238.189171,469.380552 C229.812732,467.985589 221.472915,466.047955 213.399439,463.620918 L208.099244,481.272699 C216.915146,483.919467 226.020695,486.033552 235.159537,487.558357 C332.723744,503.815174 428.97622,452.161577 469.227073,361.945065" id="Fill-10" fill="#A6A8AB"></path>
                <path d="M396.61207,345.853712 C381.926667,371.099554 359.643874,392.237078 331.138679,405.311115 C295.751887,421.544627 256.126935,423.119371 219.56824,409.7457 L213.362484,426.711651 C254.42235,441.736639 298.928009,439.965468 338.672813,421.734395 C370.710362,407.039005 395.753118,383.271359 412.246313,354.889346 L396.61207,345.853712 Z" id="Fill-12" fill="#A6A8AB"></path>
                <path d="M59.7740159,228.88087 L77.7553939,232.909284 C97.524589,144.700321 174.513918,80.9381744 264.986784,77.8519427 C273.46976,77.5622963 282.029309,77.8119915 290.422394,78.5910402 L292.126979,60.2434427 C282.961504,59.39115 273.616248,59.1214793 264.357552,59.4344305 C165.504918,62.8069793 81.3776378,132.485235 59.7740159,228.88087" id="Fill-14" fill="#A6A8AB"></path>
                <path d="M370.638783,103.066156 C432.476612,138.932363 470.443588,205.664217 469.724466,277.22351 L488.148637,277.413278 C488.934344,199.225412 447.451661,126.314437 379.884161,87.1256195 C370.801917,81.8587171 361.306844,77.2243756 351.655295,73.3491073 L344.790344,90.4482293 C353.622893,93.9972293 362.318941,98.2420463 370.638783,103.066156" id="Fill-16" fill="#A6A8AB"></path>
                <path d="M450.910771,214.831357 L433.372185,220.491113 C446.283088,260.478955 444.275539,303.806052 427.722417,342.488821 C424.712759,349.520235 421.25032,356.215394 417.458283,362.630894 L433.458746,371.766406 C437.593698,364.744979 441.372417,357.423918 444.661734,349.736638 C462.96938,306.965528 465.186673,259.054028 450.910771,214.831357" id="Fill-18" fill="#A6A8AB"></path>
                <path d="M369.42926,415.060211 C311.756345,453.87615 233.774894,455.910333 173.152248,414.138004 C163.883565,407.749138 155.410577,400.561248 147.676687,392.704174 L134.392906,405.468589 C142.979089,414.214577 152.39426,422.20815 162.698345,429.309479 C229.799748,475.549687 316.134333,473.245833 379.929772,430.198394 L369.42926,415.060211 Z" id="Fill-20" fill="#A6A8AB"></path>
                <path d="M96.2681232,343.542534 L113.463794,336.913961 C98.3489159,297.705168 97.9394159,254.33812 112.315196,214.793071 C114.928672,207.60518 118.014904,200.726912 121.440721,194.108327 L104.957513,185.878376 C101.222074,193.119534 97.8528549,200.640351 94.999672,208.497424 C79.1024159,252.224034 79.5518671,300.182144 96.2681232,343.542534" id="Fill-22" fill="#A6A8AB"></path>
                <path d="M164.672934,140.255415 C219.768995,97.8605122 297.464129,90.8856951 360.61369,128.732817 C370.268568,134.519085 379.18102,141.154317 387.397654,148.505341 L399.845788,134.921927 C390.720263,126.741915 380.81902,119.357598 370.085459,112.925451 C300.187471,71.0332683 214.169166,78.8071098 153.233568,125.813049 L164.672934,140.255415 Z" id="Fill-24" fill="#A6A8AB"></path>
                <path d="M116.557683,225.279933 L133.710073,230.953006 C148.335549,186.733665 181.994451,152.825067 226.057317,137.926591 C258.524341,126.949994 292.193232,128.065299 322.206585,138.782213 L328.089402,121.713055 C294.423841,109.734348 256.673268,108.502518 220.271049,120.810823 C170.781476,137.547055 132.980963,175.623896 116.557683,225.279933" id="Fill-26" fill="#A6A8AB"></path>
                <path d="M206.020782,216.64148 L217.62994,260.221602 C218.472245,263.500932 218.891733,266.530566 218.891733,266.530566 L219.061526,266.530566 C219.061526,266.530566 219.31455,263.4177 220.153526,260.221602 L231.090172,216.64148 L239.673026,216.64148 L224.108696,276.035627 L214.433843,276.035627 L204.169709,237.506005 C203.16094,233.720627 202.401867,229.092944 202.401867,229.092944 L202.235404,229.092944 C202.235404,229.092944 201.47633,233.720627 200.467562,237.506005 L190.203428,276.035627 L180.528574,276.035627 L165.387062,216.64148 L173.966587,216.64148 L184.483745,260.221602 C185.239489,263.4177 185.575745,266.530566 185.575745,266.530566 L185.745538,266.530566 C185.745538,266.530566 186.165026,263.500932 187.00733,260.221602 L198.616489,216.64148 L206.020782,216.64148 Z" id="Fill-28" fill="#58585B"></path>
                <polygon id="Fill-30" fill="#58585B" points="250.440878 216.64148 284.935427 216.64148 284.935427 223.87598 258.770707 223.87598 258.770707 242.469944 280.05472 242.469944 280.05472 249.704444 258.770707 249.704444 258.770707 268.801127 286.363683 268.801127 286.363683 276.035627 250.440878 276.035627"></polygon>
                <polygon id="Fill-32" fill="#58585B" points="298.647018 216.64148 306.976848 216.64148 306.976848 268.801127 333.561055 268.801127 333.561055 276.035627 298.647018 276.035627"></polygon>
                <polygon id="Fill-34" fill="#58585B" points="343.151678 216.64148 351.481507 216.64148 351.481507 268.801127 378.065715 268.801127 378.065715 276.035627 343.151678 276.035627"></polygon>
                <path d="M190.058272,304.781528 C190.034967,304.804833 187.74776,307.23187 184.441796,307.23187 C180.196979,307.23187 177.979687,303.766101 177.979687,300.343613 C177.979687,296.451699 180.626455,293.738345 184.415162,293.738345 C187.451455,293.738345 189.685394,295.759211 189.708699,295.782516 L190.018321,296.068833 L192.172357,292.742894 L191.985918,292.539809 C191.876052,292.423284 189.279223,289.653333 184.24204,289.653333 C178.09954,289.653333 173.468528,294.274357 173.468528,300.400211 C173.468528,306.725821 178.022967,311.316882 184.301967,311.316882 C189.56887,311.316882 192.415394,308.04754 192.531918,307.907711 L192.715028,307.694638 L190.351248,304.461918 L190.058272,304.781528 Z" id="Fill-36" fill="#58585B"></path>
                <path d="M213.805277,300.343613 C213.805277,304.27215 211.088594,307.23187 207.486326,307.23187 C203.884057,307.23187 201.167374,304.27215 201.167374,300.343613 C201.167374,296.574882 203.884057,293.738345 207.486326,293.738345 C211.031996,293.738345 213.805277,296.638138 213.805277,300.343613 M207.486326,289.653333 C201.41374,289.653333 196.656216,294.347601 196.656216,300.343613 C196.656216,306.496101 201.41374,311.316882 207.486326,311.316882 C213.56224,311.316882 218.319765,306.496101 218.319765,300.343613 C218.319765,294.347601 213.56224,289.653333 207.486326,289.653333" id="Fill-38" fill="#58585B"></path>
                <path d="M239.307805,289.998245 L235.252756,300.245733 C235.013049,300.874965 234.746707,301.660672 234.55028,302.269928 C234.343866,301.660672 234.070866,300.871635 233.831159,300.242404 L229.77611,289.998245 L225.26828,289.998245 L223.553707,310.975965 L227.951671,310.975965 L228.833927,299.310209 C228.857232,298.950648 228.870549,298.557794 228.877207,298.178257 C229.030354,298.617721 229.193488,299.057184 229.346634,299.423404 L232.692549,307.49355 L236.391366,307.49355 L239.767244,299.423404 C239.910402,299.07383 240.063549,298.661001 240.210037,298.244843 C240.216695,298.604404 240.230012,298.970623 240.249988,299.313538 L241.132244,310.975965 L245.503573,310.975965 L243.815634,289.998245 L239.307805,289.998245 Z" id="Fill-40" fill="#58585B"></path>
                <path d="M267.236038,289.998245 L263.180989,300.245733 C262.941282,300.874965 262.67494,301.660672 262.478513,302.269928 C262.272099,301.660672 261.999099,300.871635 261.759391,300.242404 L257.704343,289.998245 L253.196513,289.998245 L251.48194,310.975965 L255.879904,310.975965 L256.76216,299.310209 C256.782135,298.950648 256.795452,298.557794 256.802111,298.178257 C256.958587,298.617721 257.121721,299.057184 257.274867,299.423404 L260.620782,307.49355 L264.319599,307.49355 L267.695477,299.423404 C267.838635,299.07383 267.991782,298.661001 268.13827,298.244843 C268.144928,298.604404 268.158245,298.970623 268.178221,299.313538 L269.060477,310.975965 L273.431806,310.975965 L271.743867,289.998245 L267.236038,289.998245 Z" id="Fill-42" fill="#58585B"></path>
                <path d="M292.452582,303.311989 C292.452582,305.76566 290.901143,307.233867 288.300984,307.233867 C285.720801,307.233867 284.17935,305.775648 284.17935,303.338623 L284.17935,289.998245 L279.781387,289.998245 L279.781387,303.338623 C279.781387,308.109465 283.220521,311.31555 288.330948,311.31555 C293.424728,311.31555 296.847216,308.109465 296.847216,303.338623 L296.847216,289.998245 L292.452582,289.998245 L292.452582,303.311989 Z" id="Fill-44" fill="#58585B"></path>
                <path d="M316.752578,302.056855 C316.752578,302.48966 316.779212,303.005696 316.812505,303.498428 C316.522859,302.94577 316.183273,302.339843 315.866993,301.860428 L308.083163,289.998245 L303.851663,289.998245 L303.851663,310.975965 L308.249627,310.975965 L308.249627,298.943989 C308.249627,298.514513 308.222993,297.995148 308.193029,297.502416 C308.486005,298.058404 308.818932,298.661001 309.135212,299.140416 L316.919041,310.975965 L321.120578,310.975965 L321.120578,289.998245 L316.752578,289.998245 L316.752578,302.056855 Z" id="Fill-46" fill="#58585B"></path>
                <mask id="mask-4" fill="white">
                    <use xlink:href="#path-3"></use>
                </mask>
                <g id="Clip-49"></g>
                <polygon id="Fill-48" fill="#58585B" mask="url(#mask-4)" points="328.409012 310.973634 332.803646 310.973634 332.803646 289.995915 328.409012 289.995915"></polygon>
                <polygon id="Fill-50" fill="#58585B" mask="url(#mask-4)" points="337.63508 293.880172 344.283629 293.880172 344.283629 310.975965 348.678263 310.975965 348.678263 293.880172 355.326812 293.880172 355.326812 289.998245 337.63508 289.998245"></polygon>
                <path d="M371.607267,289.998245 L368.367889,296.154062 C367.995011,296.866526 367.652096,297.638916 367.419048,298.181587 C367.192657,297.635587 366.85973,296.863196 366.490182,296.150733 L363.217511,289.998245 L358.220279,289.998245 L365.215072,302.233306 L365.215072,310.975965 L369.609706,310.975965 L369.609706,302.233306 L376.604499,289.998245 L371.607267,289.998245 Z" id="Fill-51" fill="#58585B" mask="url(#mask-4)"></path>
                <path d="M212.567788,336.360304 C216.509641,336.360304 218.560471,338.341218 218.560471,338.341218 L217.395227,340.065779 C217.395227,340.065779 215.550812,338.457743 212.757556,338.457743 C208.885617,338.457743 206.5518,341.280962 206.5518,344.799999 C206.5518,348.625328 209.165276,351.258779 212.617727,351.258779 C215.460922,351.258779 217.278702,349.204621 217.278702,349.204621 L217.278702,346.830852 L214.595312,346.830852 L214.595312,344.823304 L219.376141,344.823304 L219.376141,353.099865 L217.351946,353.099865 L217.351946,352.07445 C217.351946,351.724877 217.371922,351.375304 217.371922,351.375304 L217.325312,351.375304 C217.325312,351.375304 215.530837,353.379523 212.264824,353.379523 C207.833568,353.379523 204.174702,349.883791 204.174702,344.846609 C204.174702,340.089084 207.766983,336.360304 212.567788,336.360304" id="Fill-52" fill="#6C6E70" mask="url(#mask-4)"></path>
                <path d="M232.19216,351.257448 C235.548062,351.257448 238.251428,348.460862 238.251428,344.752057 C238.251428,341.163106 235.548062,338.456411 232.19216,338.456411 C228.832928,338.456411 226.106257,341.163106 226.106257,344.752057 C226.106257,348.460862 228.832928,351.257448 232.19216,351.257448 M232.19216,336.358972 C236.949684,336.358972 240.631855,340.021167 240.631855,344.752057 C240.631855,349.602801 236.949684,353.381521 232.19216,353.381521 C227.434635,353.381521 223.72583,349.602801 223.72583,344.752057 C223.72583,340.021167 227.434635,336.358972 232.19216,336.358972" id="Fill-53" fill="#6C6E70" mask="url(#mask-4)"></path>
                <polygon id="Fill-54" fill="#6C6E70" mask="url(#mask-4)" points="245.847487 336.639629 248.15467 336.639629 248.15467 351.095312 255.52234 351.095312 255.52234 353.099532 245.847487 353.099532"></polygon>
                <path d="M265.332029,351.094646 C269.037505,351.094646 271.464541,348.903988 271.464541,344.84561 C271.464541,340.810537 269.0142,338.643183 265.332029,338.643183 L262.349005,338.643183 L262.349005,351.094646 L265.332029,351.094646 Z M260.035163,336.638963 L265.495163,336.638963 C270.532346,336.638963 273.841639,339.648622 273.841639,344.84561 C273.841639,350.069232 270.532346,353.102195 265.495163,353.102195 L260.035163,353.102195 L260.035163,336.638963 Z" id="Fill-55" fill="#6C6E70" mask="url(#mask-4)"></path>
                <path d="M286.042409,351.8424 C286.042409,345.962912 294.112555,345.123937 294.112555,341.255327 C294.112555,339.623985 292.877396,338.528656 291.149506,338.528656 C288.982152,338.528656 287.816909,340.626095 287.816909,340.626095 L286.112323,339.484156 C286.112323,339.484156 287.607165,336.361302 291.31264,336.361302 C294.345604,336.361302 296.516287,338.248998 296.516287,341.092193 C296.516287,346.502254 288.655884,347.341229 288.609274,351.093315 L296.77264,351.093315 L296.77264,353.100863 L286.158933,353.100863 C286.092348,352.658071 286.042409,352.238583 286.042409,351.8424" id="Fill-56" fill="#6C6E70" mask="url(#mask-4)"></path>
                <path d="M310.706294,344.845943 C310.706294,341.280296 309.940562,338.480382 307.233867,338.480382 C304.550477,338.480382 303.781416,341.280296 303.781416,344.845943 C303.781416,348.438223 304.550477,351.258113 307.233867,351.258113 C309.940562,351.258113 310.706294,348.438223 310.706294,344.845943 M301.427623,344.845943 C301.427623,340.111723 302.849221,336.359638 307.233867,336.359638 C311.638489,336.359638 313.063416,340.111723 313.063416,344.845943 C313.063416,349.603467 311.638489,353.378857 307.233867,353.378857 C302.849221,353.378857 301.427623,349.603467 301.427623,344.845943" id="Fill-57" fill="#6C6E70" mask="url(#mask-4)"></path>
                <path d="M317.693096,351.094646 L321.328657,351.094646 L321.328657,340.464293 C321.328657,339.948256 321.355291,339.435549 321.355291,339.435549 L321.305352,339.435549 C321.305352,339.435549 321.118913,339.808427 320.512987,340.391049 L318.974865,341.905866 L317.576572,340.464293 L321.515096,336.638963 L323.569255,336.638963 L323.569255,351.094646 L327.158206,351.094646 L327.158206,353.102195 L317.693096,353.102195 L317.693096,351.094646 Z" id="Fill-58" fill="#6C6E70" mask="url(#mask-4)"></path>
                <path d="M338.065555,340.134695 C338.531652,339.205829 339.021055,338.619878 339.021055,338.619878 L339.021055,338.573268 C339.021055,338.573268 338.648177,338.643183 337.809201,338.643183 L330.464835,338.643183 L330.464835,336.638963 L341.468067,336.638963 L341.468067,338.223695 L334.030482,353.102195 L331.653384,353.102195 L338.065555,340.134695 Z" id="Fill-59" fill="#6C6E70" mask="url(#mask-4)"></path>
            </g>
        </g>
    </g>
</svg>