<?xml version="1.0" encoding="UTF-8"?>
<svg width="555px" height="555px" viewBox="0 0 555 555" version="1.1" xmlns="http://www.w3.org/2000/svg" xmlns:xlink="http://www.w3.org/1999/xlink">
    <!-- Generator: Sketch 48.2 (47327) - http://www.bohemiancoding.com/sketch -->
    <title>2017 WELL Community Seal / Platinium (Dark Option)</title>
    <desc>Created with Sketch.</desc>
    <defs>
        <polygon id="path-1" points="0.00132776879 0.157473152 541.842527 0.157473152 541.842527 541.999336 0.00132776879 541.999336"></polygon>
        <polygon id="path-3" points="0 542 542 542 542 0 0 0"></polygon>
    </defs>
    <g id="Symbols" stroke="none" stroke-width="1" fill="none" fill-rule="evenodd">
        <g id="2017-WELL-Community-Seal-/-Platinium-(Dark-Option)">
            <g id="Page-1" transform="translate(5.000000, 5.000000)">
                <g id="Group-3" transform="translate(0.000000, 1.000000)">
                    <mask id="mask-2" fill="white">
                        <use xlink:href="#path-1"></use>
                    </mask>
                    <g id="Clip-2"></g>
                    <path d="M541.843855,271.078073 C541.843855,121.451808 420.548856,0.156809268 270.922591,0.156809268 C121.296326,0.156809268 0.00132776879,121.451808 0.00132776879,271.078073 C0.00132776879,420.704338 121.296326,541.999336 270.922591,541.999336 C420.548856,541.999336 541.843855,420.704338 541.843855,271.078073" id="Fill-1" fill="#B1B3B5" mask="url(#mask-2)"></path>
                </g>
                <path d="M270.501657,47.0646866 C147.299649,47.0646866 47.0648106,147.298837 47.0648106,270.5 C47.0648106,393.701163 147.299649,493.935313 270.501657,493.935313 C393.703665,493.935313 493.938504,393.701163 493.938504,270.5 C493.938504,147.298837 393.703665,47.0646866 270.501657,47.0646866 M270.501657,512 C137.335829,512 29,403.664914 29,270.5 C29,137.335086 137.335829,29 270.501657,29 C403.667486,29 512,137.335086 512,270.5 C512,403.664914 403.667486,512 270.501657,512" id="Fill-4" fill="#808184"></path>
                <polygon id="Fill-6" fill="#808184" points="487.84984 58.2352941 483 58.2352941 483 57 494 57 494 58.2352941 489.169329 58.2352941 489.169329 71 487.84984 71"></polygon>
                <path d="M497.130226,57 L498.583373,57 L502.293609,65.2253321 C502.616531,65.9425996 502.979817,66.9388046 502.979817,66.9388046 L503.020183,66.9388046 C503.020183,66.9388046 503.403652,65.9425996 503.726574,65.2253321 L507.436809,57 L508.869774,57 L510,71 L508.6074,71 L507.823642,61.2039848 C507.759731,60.4468691 507.779914,59.2514231 507.779914,59.2514231 L507.739548,59.2514231 C507.739548,59.2514231 507.315714,60.4867173 506.996156,61.2039848 L503.666026,68.3899431 L502.35752,68.3899431 L499.024027,61.2039848 C498.704469,60.5066414 498.260452,59.211575 498.260452,59.211575 L498.220086,59.211575 C498.220086,59.211575 498.240269,60.4468691 498.179721,61.2039848 L497.3926,71 L496,71 L497.130226,57 Z" id="Fill-8" fill="#808184"></path>
                <path d="M468,357.502429 L451.243236,350 C414.57062,432.496778 326.865288,479.733803 237.959966,464.865352 C229.619706,463.471331 221.315909,461.535005 213.277303,459.109608 L208,476.749466 C216.777826,479.394447 225.844047,481.507104 234.943417,483.030879 C332.086238,499.276716 427.922993,447.658007 468,357.502429" id="Fill-10" fill="#808184"></path>
                <path d="M395.435234,342 C380.815093,366.977013 358.631323,387.889456 330.252804,400.824275 C295.023268,416.884926 255.574408,418.442902 219.178178,405.211639 L213,421.99693 C253.877398,436.861925 298.185276,435.109615 337.753457,417.072674 C369.648632,402.533766 394.5801,379.019208 411,350.939419 L395.435234,342 Z" id="Fill-12" fill="#808184"></path>
                <path d="M60,225.98553 L77.8766746,230 C97.5307561,142.096376 174.071786,78.5549458 264.017839,75.4793973 C272.451419,75.1907536 280.961127,75.4395843 289.30534,76.2159364 L291,57.93185 C281.887894,57.0825076 272.597054,56.8137703 263.392271,57.1256382 C165.115244,60.4865128 81.4778267,129.923574 60,225.98553" id="Fill-14" fill="#808184"></path>
                <path d="M369.781864,100.707704 C431.460425,136.562633 469.329613,203.273501 468.612344,274.810291 L486.989061,275 C487.772745,196.836721 446.396904,123.948674 379.00343,84.77218 C369.944578,79.5069338 360.47396,74.8740497 350.84727,71 L344,88.0937449 C352.8098,91.6416289 361.483451,95.8851111 369.781864,100.707704" id="Fill-16" fill="#808184"></path>
                <path d="M449.645814,211 L432.005871,216.662099 C444.991387,256.66649 442.972236,300.011519 426.323452,338.710297 C423.2964,345.744622 419.813951,352.442552 416,358.860707 L432.092932,368 C436.25178,360.975667 440.052337,353.651576 443.360663,345.961114 C461.774112,303.172303 464.004219,255.240973 449.645814,211" id="Fill-18" fill="#808184"></path>
                <path d="M368.522447,410.503504 C310.975634,449.575485 233.164689,451.623086 172.674594,409.575213 C163.426177,403.144205 154.971716,395.908901 147.254736,388 L134,400.848613 C142.567409,409.652292 151.961994,417.698593 162.243549,424.846765 C229.198235,471.391987 315.34405,469.072936 379,425.741543 L368.522447,410.503504 Z" id="Fill-20" fill="#808184"></path>
                <path d="M95.5190704,340 L112.242255,333.39935 C97.5426891,294.355724 97.1444409,251.171358 111.125218,211.792892 C113.666883,204.635281 116.668314,197.785987 120,191.195283 L103.969702,183 C100.336902,190.210655 97.0602584,197.699791 94.2854724,205.523766 C78.8250256,249.066178 79.2621272,296.822265 95.5190704,340" id="Fill-22" fill="#808184"></path>
                <path d="M163.457353,136.870838 C218.640049,95.0965233 296.457353,88.2238054 359.706213,125.516911 C369.376272,131.218478 378.302738,137.756582 386.532292,145 L399,131.615423 C389.860126,123.555152 379.943313,116.278929 369.192875,109.940938 C299.184977,68.6619837 213.031415,76.3220296 152,122.639883 L163.457353,136.870838 Z" id="Fill-24" fill="#808184"></path>
                <path d="M116,221.3659 L133.109275,227 C147.697987,183.084438 181.272282,149.408786 225.224389,134.612661 C257.609802,123.71147 291.19406,124.819113 321.13197,135.462405 L327,118.510508 C293.419063,106.614092 255.763382,105.390726 219.452665,117.614475 C170.087492,134.235731 132.381998,172.050992 116,221.3659" id="Fill-26" fill="#808184"></path>
                <path d="M204.93031,213 L216.338502,257.024664 C217.166226,260.337444 217.578452,263.397982 217.578452,263.397982 L217.745305,263.397982 C217.745305,263.397982 217.99395,260.253363 218.818402,257.024664 L229.565724,213 L238,213 L222.705105,273 L213.197732,273 L203.11128,234.077354 C202.119975,230.253363 201.374042,225.578475 201.374042,225.578475 L201.21046,225.578475 C201.21046,225.578475 200.464527,230.253363 199.473222,234.077354 L189.38677,273 L179.879398,273 L165,213 L173.431004,213 L183.7661,257.024664 C184.508762,260.253363 184.839197,263.397982 184.839197,263.397982 L185.00605,263.397982 C185.00605,263.397982 185.418276,260.337444 186.246,257.024664 L197.654193,213 L204.93031,213 Z" id="Fill-28" fill="#404042"></path>
                <polygon id="Fill-30" fill="#404042" points="249 213 283.568675 213 283.568675 220.308296 257.347729 220.308296 257.347729 239.091928 278.677479 239.091928 278.677479 246.400224 257.347729 246.400224 257.347729 265.691704 285 265.691704 285 273 249 273"></polygon>
                <polygon id="Fill-32" fill="#404042" points="298 213 306.350339 213 306.350339 265.691704 333 265.691704 333 273 298 273"></polygon>
                <polygon id="Fill-34" fill="#404042" points="342 213 350.350339 213 350.350339 265.691704 377 265.691704 377 273 342 273"></polygon>
                <path d="M189.37727,300.363147 C189.354264,300.386814 187.09635,302.851544 183.832728,302.851544 C179.642276,302.851544 177.453382,299.33195 177.453382,295.856309 C177.453382,291.90395 180.066252,289.148456 183.806435,289.148456 C186.80384,289.148456 189.009168,291.200707 189.032174,291.224374 L189.337831,291.515138 L191.46428,288.137544 L191.280228,287.931305 C191.17177,287.812971 188.608199,285 183.63553,285 C177.5717,285 173,289.692792 173,295.913785 C173,302.337636 177.496108,307 183.69469,307 C188.894136,307 191.704203,303.679883 191.819235,303.537882 L192,303.3215 L189.666494,300.038574 L189.37727,300.363147 Z" id="Fill-36" fill="#404042"></path>
                <path d="M214.415399,295.856309 C214.415399,299.845858 211.656524,302.851544 207.99831,302.851544 C204.340095,302.851544 201.58122,299.845858 201.58122,295.856309 C201.58122,292.029046 204.340095,289.148456 207.99831,289.148456 C211.599047,289.148456 214.415399,292.093284 214.415399,295.856309 M207.99831,285 C201.831412,285 197,289.767174 197,295.856309 C197,302.104349 201.831412,307 207.99831,307 C214.168588,307 219,302.104349 219,295.856309 C219,289.767174 214.168588,285 207.99831,285" id="Fill-38" fill="#404042"></path>
                <path d="M238.79008,287 L234.72577,297.258372 C234.485515,297.888272 234.218565,298.674814 234.02169,299.284717 C233.814804,298.674814 233.54118,297.884939 233.300925,297.255039 L229.236615,287 L224.718489,287 L223,308 L227.408008,308 L228.29228,296.321854 C228.315638,295.961911 228.328985,295.56864 228.335659,295.1887 C228.489155,295.62863 228.652662,296.068561 228.806158,296.435169 L232.159715,304.513887 L235.86698,304.513887 L239.250569,296.435169 C239.394054,296.085225 239.54755,295.671957 239.694373,295.255356 C239.701047,295.615299 239.714394,295.981908 239.734415,296.325186 L240.618686,308 L245,308 L243.308206,287 L238.79008,287 Z" id="Fill-40" fill="#404042"></path>
                <path d="M266.79008,287 L262.72577,297.258372 C262.485515,297.888272 262.218565,298.674814 262.02169,299.284717 C261.814804,298.674814 261.54118,297.884939 261.300925,297.255039 L257.236615,287 L252.718489,287 L251,308 L255.408008,308 L256.29228,296.321854 C256.312301,295.961911 256.325648,295.56864 256.332322,295.1887 C256.489155,295.62863 256.652662,296.068561 256.806158,296.435169 L260.159715,304.513887 L263.86698,304.513887 L267.250569,296.435169 C267.394054,296.085225 267.54755,295.671957 267.694373,295.255356 C267.701047,295.615299 267.714394,295.981908 267.734415,296.325186 L268.618686,308 L273,308 L271.308206,287 L266.79008,287 Z" id="Fill-42" fill="#404042"></path>
                <path d="M290.622318,300.115571 C290.622318,302.532719 289.076863,303.979072 286.486734,303.979072 C283.916504,303.979072 282.380999,302.542558 282.380999,300.141809 L282.380999,287 L278,287 L278,300.141809 C278,304.841637 281.425868,308 286.516582,308 C291.590714,308 295,304.841637 295,300.141809 L295,287 L290.622318,287 L290.622318,300.115571 Z" id="Fill-44" fill="#404042"></path>
                <path d="M315.700019,299.071417 C315.700019,299.504682 315.726239,300.021266 315.759013,300.514522 C315.473877,299.961276 315.13958,299.354706 314.828224,298.874782 L307.165606,287 L303,287 L303,308 L307.329478,308 L307.329478,295.955245 C307.329478,295.525313 307.303258,295.005396 307.273761,294.512141 C307.562175,295.068719 307.889917,295.671957 308.201272,296.151881 L315.86389,308 L320,308 L320,287 L315.700019,287 L315.700019,299.071417 Z" id="Fill-46" fill="#404042"></path>
                <mask id="mask-4" fill="white">
                    <use xlink:href="#path-3"></use>
                </mask>
                <g id="Clip-49"></g>
                <polygon id="Fill-48" fill="#404042" mask="url(#mask-4)" points="327 308 331 308 331 287 327 287"></polygon>
                <polygon id="Fill-50" fill="#404042" mask="url(#mask-4)" points="337 290.88605 343.764396 290.88605 343.764396 308 348.235604 308 348.235604 290.88605 355 290.88605 355 287 337 287"></polygon>
                <path d="M370.107208,287 L366.935531,293.162355 C366.570445,293.875575 366.234698,294.648786 366.006519,295.192033 C365.784861,294.645453 365.458892,293.872243 365.097066,293.159022 L361.892792,287 L357,287 L363.848606,299.248056 L363.848606,308 L368.151394,308 L368.151394,299.248056 L375,287 L370.107208,287 Z" id="Fill-51" fill="#404042" mask="url(#mask-4)"></path>
                <path d="M181.545806,340.642669 C183.495836,340.642669 184.686794,339.36724 184.686794,337.321739 C184.686794,335.272801 183.495836,334.069565 181.568709,334.069565 L178.270672,334.069565 L178.270672,340.642669 L181.545806,340.642669 Z M176,332 L181.912255,332 C184.870018,332 187,334.097068 187,337.321739 C187,340.549848 184.870018,342.715672 181.912255,342.715672 L178.270672,342.715672 L178.270672,349 L176,349 L176,332 Z" id="Fill-52" fill="#58585B" mask="url(#mask-4)"></path>
                <polygon id="Fill-53" fill="#58585B" mask="url(#mask-4)" points="193 332 195.387341 332 195.387341 346.930016 203 346.930016 203 349 193 349"></polygon>
                <path d="M211.978773,334.334277 C211.978773,334.334277 211.613016,335.874419 211.338698,336.744186 L209.529508,342.138119 L214.424773,342.138119 L212.641707,336.744186 C212.36739,335.874419 212.024493,334.334277 212.024493,334.334277 L211.978773,334.334277 Z M215.022393,344.111426 L208.935153,344.111426 L207.334966,349 L205,349 L210.812923,332 L213.190343,332 L219,349 L216.64544,349 L215.022393,344.111426 Z" id="Fill-54" fill="#58585B" mask="url(#mask-4)"></path>
                <polygon id="Fill-55" fill="#58585B" mask="url(#mask-4)" points="225.808474 334.069565 220 334.069565 220 332 234 332 234 334.069565 228.184668 334.069565 228.184668 349 225.808474 349"></polygon>
                <polygon id="Fill-56" fill="#58585B" mask="url(#mask-4)" points="238 349 240 349 240 332 238 332"></polygon>
                <path d="M247,332 L249.080364,332 L255.749052,343.054814 C256.300986,343.966019 257.001516,345.509911 257.001516,345.509911 L257.047005,345.509911 C257.047005,345.509911 256.898408,343.990089 256.898408,343.054814 L256.898408,332 L259,332 L259,349 L256.937832,349 L250.247915,337.969256 C249.695982,337.033981 248.995451,335.493528 248.995451,335.493528 L248.952995,335.493528 C248.952995,335.493528 249.101592,337.006472 249.101592,337.969256 L249.101592,349 L247,349 L247,332 Z" id="Fill-57" fill="#58585B" mask="url(#mask-4)"></path>
                <path d="M266,332 L268.135593,332 L268.135593,342.795744 C268.135593,345.355211 269.64869,346.846261 271.975347,346.846261 C274.329738,346.846261 275.861325,345.355211 275.861325,342.75179 L275.861325,332 L278,332 L278,342.795744 C278,346.514916 275.562404,349 272,349 C268.437596,349 266,346.514916 266,342.795744 L266,332 Z" id="Fill-58" fill="#58585B" mask="url(#mask-4)"></path>
                <path d="M285.349045,332 L287.810461,332 L291.64459,341.198018 C292.026651,342.136731 292.472951,343.488066 292.472951,343.488066 L292.523667,343.488066 C292.523667,343.488066 292.973349,342.136731 293.352029,341.198018 L297.186158,332 L299.647574,332 L301,349 L298.677208,349 L297.848846,338.285599 C297.781225,337.247168 297.825179,335.782362 297.825179,335.782362 L297.781225,335.782362 C297.781225,335.782362 297.280827,337.346885 296.878481,338.285599 L293.541368,345.943163 L291.458632,345.943163 L288.141806,338.285599 C287.763126,337.370955 287.242442,335.730785 287.242442,335.730785 L287.195107,335.730785 C287.195107,335.730785 287.218775,337.247168 287.147772,338.285599 L286.343079,349 L284,349 L285.349045,332 Z" id="Fill-59" fill="#58585B" mask="url(#mask-4)"></path>
                <path d="M313,347.721957 C313,341.750994 321.273038,340.898966 321.273038,336.970167 C321.273038,335.313445 320.006826,334.201074 318.235495,334.201074 C316.013652,334.201074 314.819113,336.331146 314.819113,336.331146 L313.071672,335.17144 C313.071672,335.17144 314.604096,332 318.40273,332 C321.511945,332 323.737201,333.917064 323.737201,336.804495 C323.737201,342.298727 315.679181,343.150756 315.631399,346.961217 L324,346.961217 L324,349 L313.119454,349 C313.051195,348.550318 313,348.124304 313,347.721957" id="Fill-60" fill="#58585B" mask="url(#mask-4)"></path>
                <path d="M336.771674,340.476721 C336.771674,336.915102 336.047783,334.118349 333.488984,334.118349 C330.952217,334.118349 330.225179,336.915102 330.225179,340.476721 C330.225179,344.064945 330.952217,346.881651 333.488984,346.881651 C336.047783,346.881651 336.771674,344.064945 336.771674,340.476721 M328,340.476721 C328,335.747848 329.34392,332 333.488984,332 C337.652933,332 339,335.747848 339,340.476721 C339,345.228873 337.652933,349 333.488984,349 C329.34392,349 328,345.228873 328,340.476721" id="Fill-61" fill="#58585B" mask="url(#mask-4)"></path>
                <path d="M345.121612,346.926997 L348.915914,346.926997 L348.915914,335.950051 C348.915914,335.417189 348.943711,334.887765 348.943711,334.887765 L348.891591,334.887765 C348.891591,334.887765 348.697012,335.272801 348.064628,335.874419 L346.459347,337.438625 L345,335.950051 L349.110493,332 L351.254343,332 L351.254343,346.926997 L355,346.926997 L355,349 L345.121612,349 L345.121612,346.926997 Z" id="Fill-62" fill="#58585B" mask="url(#mask-4)"></path>
                <path d="M364.598487,335.609707 C365.064448,334.650556 365.553707,334.045501 365.553707,334.045501 L365.553707,333.997371 C365.553707,333.997371 365.180938,334.069565 364.342209,334.069565 L357,334.069565 L357,332 L368,332 L368,333.6364 L360.564599,349 L358.1882,349 L364.598487,335.609707 Z" id="Fill-63" fill="#58585B" mask="url(#mask-4)"></path>
            </g>
        </g>
    </g>
</svg>