<?xml version="1.0" encoding="utf-8"?>
<!-- Generator: Adobe Illustrator 18.1.1, SVG Export Plug-In . SVG Version: 6.00 Build 0)  -->
<!DOCTYPE svg PUBLIC "-//W3C//DTD SVG 1.1//EN" "http://www.w3.org/Graphics/SVG/1.1/DTD/svg11.dtd">
<svg version="1.1" xmlns="http://www.w3.org/2000/svg" xmlns:xlink="http://www.w3.org/1999/xlink" x="0px" y="0px"
	 viewBox="0 0 36 36" enable-background="new 0 0 36 36" xml:space="preserve">
<g id="Guide">
</g>
<g id="Layer_1">
	<path d="M31,14c0-6.6-5.4-12-12-12S7,7.4,7,14l-2.9,6.6l0,0C4,20.7,4,20.8,4,21c0,0.6,0.4,1,1,1h2v3c0,2.8,2.2,5,5,5
		c0.3,0,0.7,0,1-0.1V34h13V23.7C29,21.6,31,18,31,14z M11.5,13c0.8,0,1.5,0.7,1.5,1.5S12.3,16,11.5,16S10,15.3,10,14.5
		S10.7,13,11.5,13z M23.1,14.7L23.1,14.7c0,0-0.9-2.9-3.3-3.5c-1.4-0.4-4.8,0.8-4.8,0.8l0,0c-0.3,0.1-0.7,0.2-1,0.2
		c-1.7,0-3-1.3-3-3c0-0.7,0.3-1.4,0.7-1.9c0.1-0.1,0.2-0.2,0.3-0.3C13.7,5.1,16.2,4,19,4c5.5,0,9.9,4.4,10,9.8c0,0,0,0.1,0,0.1
		c0,1.6-1.3,3-3,3C24.6,16.9,23.4,16,23.1,14.7z"/>
</g>
</svg>
