<?xml version="1.0" encoding="utf-8"?>
<!-- Generator: Adobe Illustrator 18.1.1, SVG Export Plug-In . SVG Version: 6.00 Build 0)  -->
<!DOCTYPE svg PUBLIC "-//W3C//DTD SVG 1.1//EN" "http://www.w3.org/Graphics/SVG/1.1/DTD/svg11.dtd">
<svg version="1.1" xmlns="http://www.w3.org/2000/svg" xmlns:xlink="http://www.w3.org/1999/xlink" x="0px" y="0px"
	 viewBox="0 0 36 36" enable-background="new 0 0 36 36" xml:space="preserve">
<g id="Guide">
</g>
<g id="Layer_1">
	<path d="M10,2C8.9,2,8,2.9,8,4v3h4V4C12,2.9,11.1,2,10,2z"/>
	<path d="M28,7v2c0,1.1-0.9,2-2,2s-2-0.9-2-2V7H12v2c0,1.1-0.9,2-2,2s-2-0.9-2-2V7H2v27h32V7H28z M30,30H6V13h24V30z"/>
	<path d="M26,2c-1.1,0-2,0.9-2,2v3h4V4C28,2.9,27.1,2,26,2z"/>
	<polygon points="16,27.8 10.6,22.4 13.4,19.6 16,22.2 22.6,15.6 25.4,18.4 	"/>
</g>
</svg>
