<?xml version="1.0" encoding="utf-8"?>
<!-- Generator: Adobe Illustrator 18.1.1, SVG Export Plug-In . SVG Version: 6.00 Build 0)  -->
<!DOCTYPE svg PUBLIC "-//W3C//DTD SVG 1.1//EN" "http://www.w3.org/Graphics/SVG/1.1/DTD/svg11.dtd">
<svg version="1.1" xmlns="http://www.w3.org/2000/svg" xmlns:xlink="http://www.w3.org/1999/xlink" x="0px" y="0px"
	 viewBox="0 0 36 36" enable-background="new 0 0 36 36" xml:space="preserve">
<g id="Guide">
</g>
<g id="Layer_1">
	<g>
		<circle cx="18" cy="21" r="3"/>
		<path d="M33,10h-8l-2-4H13l-2,4H3c-1.7,0-3,1.3-3,3v16c0,1.6,1.3,3,3,3h30c1.7,0,3-1.4,3-3V13C36,11.3,34.7,10,33,10z M18,28
			c-3.9,0-7-3.1-7-7c0-3.9,3.1-7,7-7s7,3.1,7,7C25,24.9,21.9,28,18,28z"/>
	</g>
</g>
</svg>
