<?xml version="1.0" encoding="utf-8"?>
<!-- Generator: Adobe Illustrator 18.1.1, SVG Export Plug-In . SVG Version: 6.00 Build 0)  -->
<!DOCTYPE svg PUBLIC "-//W3C//DTD SVG 1.1//EN" "http://www.w3.org/Graphics/SVG/1.1/DTD/svg11.dtd">
<svg version="1.1" xmlns="http://www.w3.org/2000/svg" xmlns:xlink="http://www.w3.org/1999/xlink" x="0px" y="0px"
	 viewBox="0 0 36 36" enable-background="new 0 0 36 36" xml:space="preserve">
<g id="Guide">
</g>
<g id="Layer_1">
	<path d="M18,6c6.6,0,12,5.4,12,12s-5.4,12-12,12S6,24.6,6,18S11.4,6,18,6 M18,2C9.2,2,2,9.2,2,18s7.2,16,16,16s16-7.2,16-16
		S26.8,2,18,2L18,2z"/>
	<path d="M24.6,23.7c-0.3,0-0.6-0.1-0.8-0.2l-7.3-4.6V14c0-0.8,0.7-1.5,1.5-1.5s1.5,0.7,1.5,1.5v3.2l5.9,3.7
		c0.7,0.4,0.9,1.4,0.5,2.1C25.6,23.4,25.1,23.7,24.6,23.7z"/>
	<circle cx="18" cy="8" r="1"/>
	<circle cx="8" cy="18" r="1"/>
	<circle cx="18" cy="28" r="1"/>
	<circle cx="28" cy="18" r="1"/>
</g>
</svg>
