<?xml version="1.0" encoding="utf-8"?>
<!-- Generator: Adobe Illustrator 18.1.1, SVG Export Plug-In . SVG Version: 6.00 Build 0)  -->
<!DOCTYPE svg PUBLIC "-//W3C//DTD SVG 1.1//EN" "http://www.w3.org/Graphics/SVG/1.1/DTD/svg11.dtd">
<svg version="1.1" xmlns="http://www.w3.org/2000/svg" xmlns:xlink="http://www.w3.org/1999/xlink" x="0px" y="0px"
	 viewBox="0 0 36 36" enable-background="new 0 0 36 36" xml:space="preserve">
<g id="Guide">
</g>
<g id="Layer_1">
	<path d="M31.5,16c-0.6,0-1.2,0.1-1.8,0.4c0.2-0.4,0.3-0.9,0.3-1.4c0-2.2-1.8-4-4-4c-0.9,0-1.6,0.3-2.3,0.7C22.7,7.9,19.2,5,15,5
		c-5,0-9,4-9,9c0,0.4,0,0.8,0.1,1.1C5.7,15,5.4,15,5,15c-2.8,0-5,2.2-5,5s2.2,5,5,5c0,0,26.3,0,26.5,0c2.5,0,4.5-2,4.5-4.5
		S34,16,31.5,16z"/>
</g>
</svg>
