<?xml version="1.0" encoding="utf-8"?>
<!-- Generator: Adobe Illustrator 18.1.1, SVG Export Plug-In . SVG Version: 6.00 Build 0)  -->
<!DOCTYPE svg PUBLIC "-//W3C//DTD SVG 1.1//EN" "http://www.w3.org/Graphics/SVG/1.1/DTD/svg11.dtd">
<svg version="1.1" xmlns="http://www.w3.org/2000/svg" xmlns:xlink="http://www.w3.org/1999/xlink" x="0px" y="0px"
	 viewBox="0 0 36 36" enable-background="new 0 0 36 36" xml:space="preserve">
<g id="Guide">
</g>
<g id="Layer_1">
	<path d="M18,2C9.2,2,2,9.2,2,18s7.2,16,16,16s16-7.2,16-16S26.8,2,18,2z M15,29.6c-5.2-1.3-9-6-9-11.6c0-3.5,1.6-6.7,4-8.9V14v3
		c0,0.5,0.2,1,0.6,1.4l2.4,2.4V26c0,1.1,0.9,2,2,2V29.6z M21,29.6V28c1.1,0,2-0.9,2-2v-3c0-1.7-1.3-3-3-3h-2.2L14,16.2V15h4
		c1.1,0,2-0.9,2-2V9c1.1,0,2-0.9,2-2V6.7c3.4,1.2,6.1,3.9,7.3,7.3c-0.1,0-0.2,0-0.3,0c-1.1,0-2,0.9-2,2c0,1.1,0.9,2,2,2
		c0.4,0,0.7-0.1,1-0.3c0,0.1,0,0.2,0,0.3C30,23.6,26.2,28.3,21,29.6z"/>
</g>
</svg>
