<?xml version="1.0" encoding="utf-8"?>
<!-- Generator: Adobe Illustrator 18.1.1, SVG Export Plug-In . SVG Version: 6.00 Build 0)  -->
<!DOCTYPE svg PUBLIC "-//W3C//DTD SVG 1.1//EN" "http://www.w3.org/Graphics/SVG/1.1/DTD/svg11.dtd">
<svg version="1.1" xmlns="http://www.w3.org/2000/svg" xmlns:xlink="http://www.w3.org/1999/xlink" x="0px" y="0px"
	 viewBox="0 0 36 36" enable-background="new 0 0 36 36" xml:space="preserve">
<g id="Guide">
</g>
<g id="Layer_1">
	<path d="M34,16h-0.3c-0.9-2.9-3.5-5-6.7-5c-2.4,0-4.5,1.2-5.7,3c-0.9-0.6-2-1-3.3-1s-2.4,0.4-3.3,1c-1.3-1.8-3.4-3-5.7-3
		c-3.2,0-5.8,2.1-6.7,5H2c-1.1,0-2,0.9-2,2s0.9,2,2,2h0.3c0.9,2.9,3.5,5,6.7,5c3.7,0,6.7-2.9,7-6.5c0.2-0.4,0.9-1.5,2-1.5
		c1.2,0,1.8,1,2,1.5c0.2,3.6,3.3,6.5,7,6.5c3.2,0,5.8-2.1,6.7-5H34c1.1,0,2-0.9,2-2S35.1,16,34,16z M9,21c-1.7,0-3-1.3-3-3
		s1.3-3,3-3s3,1.3,3,3S10.7,21,9,21z M27,21c-1.7,0-3-1.3-3-3s1.3-3,3-3s3,1.3,3,3S28.7,21,27,21z"/>
</g>
</svg>
