<?xml version="1.0" encoding="utf-8"?>
<!-- Generator: Adobe Illustrator 18.1.1, SVG Export Plug-In . SVG Version: 6.00 Build 0)  -->
<!DOCTYPE svg PUBLIC "-//W3C//DTD SVG 1.1//EN" "http://www.w3.org/Graphics/SVG/1.1/DTD/svg11.dtd">
<svg version="1.1" xmlns="http://www.w3.org/2000/svg" xmlns:xlink="http://www.w3.org/1999/xlink" x="0px" y="0px"
	 viewBox="0 0 36 36" enable-background="new 0 0 36 36" xml:space="preserve">
<g id="Guide">
</g>
<g id="Layer_1">
	<path d="M18,2C9.2,2,2,9.2,2,18s7.2,16,16,16s16-7.2,16-16S26.8,2,18,2z M29.9,16.5h-4c-0.2-2.1-1.1-6.1-3.9-9.8
		C26.2,8.2,29.3,12,29.9,16.5z M19,6.3c3.5,3.6,4.6,8,4.9,10.2H19V6.3z M17,16.5h-4.9c0.3-2.2,1.3-6.6,4.9-10.2V16.5z M17,19.5v10.2
		c-3.5-3.6-4.6-8-4.9-10.2H17z M19,19.5h4.9c-0.3,2.2-1.3,6.6-4.9,10.2V19.5z M14,6.7c-2.8,3.7-3.6,7.7-3.9,9.8h-4
		C6.7,12,9.8,8.2,14,6.7z M6.1,19.5h4c0.2,2.1,1.1,6.1,3.9,9.8C9.8,27.8,6.7,24,6.1,19.5z M22,29.3c2.8-3.7,3.6-7.7,3.9-9.8h4
		C29.3,24,26.2,27.8,22,29.3z"/>
</g>
</svg>
