<?xml version="1.0" encoding="utf-8"?>
<!-- Generator: Adobe Illustrator 18.1.1, SVG Export Plug-In . SVG Version: 6.00 Build 0)  -->
<!DOCTYPE svg PUBLIC "-//W3C//DTD SVG 1.1//EN" "http://www.w3.org/Graphics/SVG/1.1/DTD/svg11.dtd">
<svg version="1.1" xmlns="http://www.w3.org/2000/svg" xmlns:xlink="http://www.w3.org/1999/xlink" x="0px" y="0px"
	 viewBox="0 0 36 36" enable-background="new 0 0 36 36" xml:space="preserve">
<g id="Guide">
</g>
<g id="Layer_1">
	<path d="M29.5,6C28.7,6,28,6.7,28,7.5V18c0,0.6-0.4,1-1,1s-1-0.4-1-1V5c0-0.8-0.7-1.5-1.5-1.5S23,4.2,23,5v12c0,0.6-0.4,1-1,1
		s-1-0.4-1-1V2c0-1.1-0.9-2-2-2s-2,0.9-2,2v15c0,0.6-0.4,1-1,1s-1-0.4-1-1V5c0-1.1-0.9-2-2-2s-2,0.9-2,2v13v3h-0.3l-1.8-6.5
		c-0.3-1.1-1.4-1.7-2.5-1.4c-1.1,0.3-1.7,1.4-1.4,2.5l3,11c0.1,0.3,0.3,0.6,0.5,0.9l6.4,6.4V36h13v-3l3-8V7.5C31,6.7,30.3,6,29.5,6z
		"/>
</g>
</svg>
