<?xml version="1.0" encoding="utf-8"?>
<!-- Generator: Adobe Illustrator 18.1.1, SVG Export Plug-In . SVG Version: 6.00 Build 0)  -->
<!DOCTYPE svg PUBLIC "-//W3C//DTD SVG 1.1//EN" "http://www.w3.org/Graphics/SVG/1.1/DTD/svg11.dtd">
<svg version="1.1" xmlns="http://www.w3.org/2000/svg" xmlns:xlink="http://www.w3.org/1999/xlink" x="0px" y="0px"
	 viewBox="0 0 36 36" enable-background="new 0 0 36 36" xml:space="preserve">
<g id="Guide">
</g>
<g id="Layer_1">
	<path d="M34.7,16.1L26,12.7V7h-4v4.2l-10.3-4C11,6.9,10.2,7,9.7,7.5l-9,8c-0.8,0.7-0.9,2-0.2,2.8C0.9,18.8,1.4,19,2,19v0h0
		c0,0,0,0,0,0h1v14h6V21h6v12h18V20h1c0,0,0,0,0,0c0.8,0,1.6-0.5,1.9-1.3C36.3,17.7,35.8,16.5,34.7,16.1z M29,21v3h-4v-3H29z M19,21
		h4v3h-4V21z M19,29v-3h4v3H19z M29,29h-4v-3h4V29z"/>
</g>
</svg>
