<?xml version="1.0" encoding="utf-8"?>
<!-- Generator: Adobe Illustrator 18.1.1, SVG Export Plug-In . SVG Version: 6.00 Build 0)  -->
<!DOCTYPE svg PUBLIC "-//W3C//DTD SVG 1.1//EN" "http://www.w3.org/Graphics/SVG/1.1/DTD/svg11.dtd">
<svg version="1.1" xmlns="http://www.w3.org/2000/svg" xmlns:xlink="http://www.w3.org/1999/xlink" x="0px" y="0px"
	 viewBox="0 0 36 36" enable-background="new 0 0 36 36" xml:space="preserve">
<g id="Guide">
</g>
<g id="Layer_1">
	<path d="M33,13H15.9c-1.4-2.4-4-4-6.9-4c-4.4,0-8,3.6-8,8s3.6,8,8,8c3,0,5.5-1.6,6.9-4H19h1l2-2l2,1.3l3-3.3l2,2l2-2l2,2l2-3L33,13
		z M6,20c-1.7,0-3-1.3-3-3s1.3-3,3-3s3,1.3,3,3S7.7,20,6,20z"/>
</g>
</svg>
