<?xml version="1.0" encoding="utf-8"?>
<!-- Generator: Adobe Illustrator 18.1.1, SVG Export Plug-In . SVG Version: 6.00 Build 0)  -->
<!DOCTYPE svg PUBLIC "-//W3C//DTD SVG 1.1//EN" "http://www.w3.org/Graphics/SVG/1.1/DTD/svg11.dtd">
<svg version="1.1" xmlns="http://www.w3.org/2000/svg" xmlns:xlink="http://www.w3.org/1999/xlink" x="0px" y="0px"
	 viewBox="0 0 36 36" enable-background="new 0 0 36 36" xml:space="preserve">
<g id="Guide">
</g>
<g id="Layer_1">
	<path d="M22.3,28.8c-0.3,0.1-0.7,0.1-1,0.2C21.6,28.9,22,28.8,22.3,28.8z"/>
	<path d="M30.6,21c-0.1,0.4-0.2,0.7-0.3,1C30.4,21.7,30.5,21.3,30.6,21z"/>
	<path d="M30.2,22.1c-0.2,0.4-0.4,0.8-0.6,1.2C29.8,23,30,22.6,30.2,22.1z"/>
	<path d="M30.9,19.7c0,0.3-0.1,0.6-0.2,0.9C30.8,20.3,30.8,20,30.9,19.7z"/>
	<path d="M31,18c0,0.4,0,0.9-0.1,1.3C31,18.9,31,18.4,31,18z"/>
	<path d="M21.2,28.9C20.8,29,20.4,29,20,29C20.4,29,20.8,29,21.2,28.9z"/>
	<path d="M30.7,20.6c0,0.1-0.1,0.2-0.1,0.3C30.6,20.8,30.6,20.7,30.7,20.6z"/>
	<path d="M30.9,19.3c0,0.1,0,0.2-0.1,0.4C30.9,19.5,30.9,19.4,30.9,19.3z"/>
	<path d="M22.4,28.7C22.3,28.7,22.3,28.8,22.4,28.7C22.3,28.8,22.3,28.7,22.4,28.7z"/>
	<path d="M30.2,22c0,0.1,0,0.1-0.1,0.2C30.2,22.1,30.2,22,30.2,22z"/>
	<path d="M21.2,28.9c0,0,0.1,0,0.1,0C21.3,28.9,21.2,28.9,21.2,28.9z"/>
	<polygon points="29.6,23.3 29.6,23.3 29.6,23.3 	"/>
	<g>
		<line x1="17.6" y1="14.2" x2="17.6" y2="14.2"/>
		<path d="M28.4,25.1c-3.2-3.8-7.7-8-10.9-10.9c-0.2-0.2-0.3-0.4-0.3-0.7c0-0.6,0.4-1,1-1c0.2,0,0.5,0.1,0.7,0.2l0,0c0,0,0,0,0.1,0
			c0,0,0,0,0,0l0,0c4.5,4.1,8.1,7.6,10.7,10.6l0,0c0.2-0.4,0.4-0.8,0.6-1.2c0,0,0-0.1,0.1-0.2c0.1-0.3,0.2-0.7,0.3-1
			c0-0.1,0.1-0.2,0.1-0.3c0.1-0.3,0.1-0.6,0.2-0.9c0-0.1,0-0.2,0.1-0.4C31,18.9,31,18.4,31,18c0-7.8-8.2-11.9-16-12C7.9,5.9,4,4,4,4
			s1,10.2,3.1,15.9C9.5,26.4,13.9,29,20,29c0.4,0,0.8,0,1.2-0.1c0,0,0.1,0,0.1,0c0.3,0,0.7-0.1,1-0.2c0,0,0,0,0.1,0
			c0.7-0.2,1.4-0.4,2.1-0.7c0,0,0,0,0,0l0,0c0.6-0.3,1.2-0.6,1.8-1c2,2.3,3.3,4.1,3.3,4.9h3C32.5,30.4,30.8,27.8,28.4,25.1z"/>
	</g>
</g>
</svg>
