<?xml version="1.0" encoding="utf-8"?>
<!-- Generator: Adobe Illustrator 18.1.1, SVG Export Plug-In . SVG Version: 6.00 Build 0)  -->
<!DOCTYPE svg PUBLIC "-//W3C//DTD SVG 1.1//EN" "http://www.w3.org/Graphics/SVG/1.1/DTD/svg11.dtd">
<svg version="1.1" xmlns="http://www.w3.org/2000/svg" xmlns:xlink="http://www.w3.org/1999/xlink" x="0px" y="0px"
	 viewBox="0 0 36 36" enable-background="new 0 0 36 36" xml:space="preserve">
<g id="Guide">
</g>
<g id="Layer_1">
	<g>
		<path d="M26.9,17.5L26.9,17.5c1.3-1.8,2.1-4.1,2.1-6.5c0-6.1-4.9-11-11-11S7,4.9,7,11c0,2.4,0.8,4.7,2.1,6.5l0,0c0,0,0,0,0.1,0.1
			c0.2,0.3,0.5,0.6,0.7,0.9c1.4,1.7,4.1,5.4,4.1,8.5h8c0-3.1,2.7-6.8,4.1-8.5c0.3-0.3,0.5-0.6,0.7-0.9
			C26.8,17.6,26.9,17.5,26.9,17.5z"/>
		<rect x="14" y="29" width="8" height="2"/>
		<rect x="14" y="33" width="8" height="2"/>
	</g>
</g>
</svg>
