<?xml version="1.0" encoding="utf-8"?>
<!-- Generator: Adobe Illustrator 18.1.1, SVG Export Plug-In . SVG Version: 6.00 Build 0)  -->
<!DOCTYPE svg PUBLIC "-//W3C//DTD SVG 1.1//EN" "http://www.w3.org/Graphics/SVG/1.1/DTD/svg11.dtd">
<svg version="1.1" xmlns="http://www.w3.org/2000/svg" xmlns:xlink="http://www.w3.org/1999/xlink" x="0px" y="0px"
	 viewBox="0 0 36 36" enable-background="new 0 0 36 36" xml:space="preserve">
<g id="Guide">
</g>
<g id="Layer_1">
	<path d="M34,15.5c0-1.4-1.1-2.5-2.5-2.5H24c-0.4,0-1.8-0.6-0.7-2.3C24,9.4,24,4.5,24,4.5C24,3.1,22.9,2,21.5,2S19,3.1,19,4.5
		c0,7.3-7,9.5-7,9.5v13c3.2,1.1,4,3,8,3h7.5c1.4,0,2.5-1.1,2.5-2.5c0-0.6-0.2-1.1-0.5-1.5c0,0,0,0,0,0c1.4,0,2.5-1.1,2.5-2.5
		c0-0.6-0.2-1.2-0.6-1.7c1-0.4,1.6-1.3,1.6-2.3c0-0.6-0.2-1.2-0.6-1.7C33.3,17.5,34,16.6,34,15.5z"/>
	<path d="M7,12H6H2v17h5c1.7,0,3-1.4,3-3V15C10,13.3,8.7,12,7,12z"/>
</g>
</svg>
