<?xml version="1.0" encoding="utf-8"?>
<!-- Generator: Adobe Illustrator 18.1.1, SVG Export Plug-In . SVG Version: 6.00 Build 0)  -->
<!DOCTYPE svg PUBLIC "-//W3C//DTD SVG 1.1//EN" "http://www.w3.org/Graphics/SVG/1.1/DTD/svg11.dtd">
<svg version="1.1" xmlns="http://www.w3.org/2000/svg" xmlns:xlink="http://www.w3.org/1999/xlink" x="0px" y="0px"
	 viewBox="0 0 36 36" enable-background="new 0 0 36 36" xml:space="preserve">
<g id="Guide">
</g>
<g id="Layer_1">
	<path d="M18,24c-7.2,0-13,2.2-13,5s5.8,5,13,5s13-2.2,13-5S25.2,24,18,24z M18,31c-5,0-9-0.9-9-2c0-1.1,4-2,9-2s9,0.9,9,2
		C27,30.1,23,31,18,31z"/>
	<path d="M18,2c-5,0-9,4-9,9c0,5,9,19,9,19s9-14,9-19C27,6,23,2,18,2z M18,15c-2.2,0-4-1.8-4-4c0-2.2,1.8-4,4-4s4,1.8,4,4
		C22,13.2,20.2,15,18,15z"/>
</g>
</svg>
