<?xml version="1.0" encoding="utf-8"?>
<!-- Generator: Adobe Illustrator 20.1.0, SVG Export Plug-In . SVG Version: 6.00 Build 0)  -->
<svg version="1.1" id="Layer_1" xmlns="http://www.w3.org/2000/svg" xmlns:xlink="http://www.w3.org/1999/xlink" x="0px" y="0px"
	 viewBox="0 0 36 36" style="enable-background:new 0 0 36 36;" xml:space="preserve">
<style type="text/css">
	.st0{fill:#FFFFFF;}
</style>
<g id="Guide">
</g>
<g id="Layer_1_1_">
	<path class="st0" d="M34.7,31.8L24.2,21.5c1.6-2.1,2.5-4.8,2.5-7.7c0-7.2-5.8-13-13-13s-13,5.8-13,13s5.8,13,13,13
		c2.9,0,5.5-0.9,7.7-2.5l10.4,10.4c0.4,0.4,0.9,0.6,1.4,0.6s1-0.2,1.4-0.6C35.5,33.8,35.5,32.7,34.7,31.8z M13.8,22.8c-5,0-9-4-9-9
		s4-9,9-9s9,4,9,9S18.8,22.8,13.8,22.8z"/>
</g>
</svg>
