<?xml version="1.0" encoding="utf-8"?>
<!-- Generator: Adobe Illustrator 18.1.1, SVG Export Plug-In . SVG Version: 6.00 Build 0)  -->
<!DOCTYPE svg PUBLIC "-//W3C//DTD SVG 1.1//EN" "http://www.w3.org/Graphics/SVG/1.1/DTD/svg11.dtd">
<svg version="1.1" xmlns="http://www.w3.org/2000/svg" xmlns:xlink="http://www.w3.org/1999/xlink" x="0px" y="0px"
	 viewBox="0 0 38 36" enable-background="new 0 0 38 36" xml:space="preserve">
<g id="Guide">
</g>
<g id="Layer_1">
	<g>
		<path d="M26.4,6.3c1.8,3.1,3.8,6.6,5.4,9.3c-5.1,2-8.1,5-10.9,7.8c-2.7,2.7-5,5-9.3,6.4c-1.4-2.4-3.5-6.1-5.4-9.3
			c5.1-2,8.1-5,10.9-7.8C19.8,10,22.1,7.6,26.4,6.3 M28.4,1.7C13.8,4.4,14.8,15.3,0.2,18c0,0,9.4,16.3,9.4,16.3
			C24.2,31.6,23.2,20.7,37.8,18C37.8,18,28.4,1.7,28.4,1.7L28.4,1.7z"/>
		<ellipse transform="matrix(0.866 -0.5 0.5 0.866 -6.4181 11.9546)" cx="19.1" cy="18" rx="4.2" ry="6.8"/>
	</g>
</g>
</svg>
