<?xml version="1.0" encoding="utf-8"?>
<!-- Generator: Adobe Illustrator 18.1.1, SVG Export Plug-In . SVG Version: 6.00 Build 0)  -->
<!DOCTYPE svg PUBLIC "-//W3C//DTD SVG 1.1//EN" "http://www.w3.org/Graphics/SVG/1.1/DTD/svg11.dtd">
<svg version="1.1" xmlns="http://www.w3.org/2000/svg" xmlns:xlink="http://www.w3.org/1999/xlink" x="0px" y="0px"
	 viewBox="0 0 35 36" enable-background="new 0 0 35 36" xml:space="preserve">
<g id="Guide">
</g>
<g id="Layer_1">
	<path d="M30,13c0-1.2-0.7-2.3-1.8-2.7C28.9,9.3,29,8.1,28.4,7s-1.8-1.6-2.9-1.5c0.1-1.1-0.4-2.3-1.5-2.9s-2.3-0.5-3.3,0.2
		C20.3,1.7,19.2,1,18,1s-2.3,0.7-2.7,1.8C14.3,2.1,13.1,2,12,2.6s-1.6,1.8-1.5,2.9C9.4,5.4,8.2,5.9,7.6,7s-0.5,2.3,0.2,3.3
		C6.7,10.7,6,11.8,6,13s0.7,2.3,1.8,2.7C7.1,16.7,7,17.9,7.6,19s1.8,1.6,2.9,1.5c-0.1,1.1,0.4,2.3,1.5,2.9c0,0,0.1,0,0.1,0.1l-3,9.6
		l3.8-2l2,3.8l3.1-9.9c0,0,0,0,0.1,0c0,0,0,0,0.1,0l3.1,10l2-3.8l3.8,2l-3.1-9.7c0,0,0.1,0,0.1-0.1c1.1-0.6,1.6-1.8,1.5-2.9
		c1.1,0.1,2.3-0.4,2.9-1.5s0.5-2.3-0.2-3.3C29.3,15.3,30,14.2,30,13z M18,20c-3.9,0-7-3.1-7-7c0-3.9,3.1-7,7-7s7,3.1,7,7
		C25,16.9,21.9,20,18,20z"/>
</g>
</svg>
