<?xml version="1.0" encoding="utf-8"?>
<!-- Generator: Adobe Illustrator 18.1.1, SVG Export Plug-In . SVG Version: 6.00 Build 0)  -->
<!DOCTYPE svg PUBLIC "-//W3C//DTD SVG 1.1//EN" "http://www.w3.org/Graphics/SVG/1.1/DTD/svg11.dtd">
<svg version="1.1" xmlns="http://www.w3.org/2000/svg" xmlns:xlink="http://www.w3.org/1999/xlink" x="0px" y="0px"
	 viewBox="0 0 36 36" enable-background="new 0 0 36 36" xml:space="preserve">
<g id="Guide">
</g>
<g id="Layer_1">
	<circle cx="28" cy="6" r="3"/>
	<path d="M35.1,9.9c-0.6-0.6-1.5-0.6-2.1,0l-3.4,3.4l-5.4-5.4c-0.3-0.3-0.7-0.4-1.1-0.4h-5c-0.4,0-0.8,0.2-1.1,0.4l-5,5
		c-0.6,0.6-0.6,1.5,0,2.1s1.5,0.6,2.1,0l4.6-4.6h3.1L12.2,20H4c-1.1,0-2,0.9-2,2s0.9,2,2,2h9c0.5,0,1-0.2,1.4-0.6l2.6-2.6l3.3,3.3
		L19,31.7c-0.2,1.1,0.5,2.1,1.6,2.3c0.1,0,0.2,0,0.3,0c1,0,1.8-0.7,2-1.7l1.5-8.5c0.1-0.6-0.1-1.3-0.6-1.8l-2.8-2.8l5-5l2.3,2.3
		c0.3,0.3,0.7,0.4,1.1,0.4s0.8-0.1,1.1-0.4l4.5-4.5C35.6,11.5,35.6,10.5,35.1,9.9z"/>
</g>
</svg>
