<?xml version="1.0" encoding="utf-8"?>
<!-- Generator: Adobe Illustrator 18.1.1, SVG Export Plug-In . SVG Version: 6.00 Build 0)  -->
<!DOCTYPE svg PUBLIC "-//W3C//DTD SVG 1.1//EN" "http://www.w3.org/Graphics/SVG/1.1/DTD/svg11.dtd">
<svg version="1.1" xmlns="http://www.w3.org/2000/svg" xmlns:xlink="http://www.w3.org/1999/xlink" x="0px" y="0px"
	 viewBox="0 0 36 36" enable-background="new 0 0 36 36" xml:space="preserve">
<g id="Guide">
</g>
<g id="Layer_1">
	<g>
		<path d="M34,24H11.1c-0.1-0.2-0.2-0.6,0-1c0.3-0.9,1.3-1.6,3-2l18.2-2c0,0,0,0,0,0c1-0.1,1.7-1,1.7-2V8c0-1.1-0.9-2-2-2H7.4L7,3.6
			C6.8,2.7,6,2,5,2H2C0.9,2,0,2.9,0,4s0.9,2,2,2h1.4l3.7,18.5c0,0.1,0,0.1,0,0.1c0.4,2,1.9,3.3,3.6,3.3H34c1.1,0,2-0.9,2-2
			S35.1,24,34,24z M14,17v-7h4v6.5L14,17z M20,10h4v5.9l-4,0.4V10z M30,15.2l-4,0.4V10h4V15.2z M12,10v7.4c-0.8,0.3-1.5,0.6-2.1,1
			L8.3,10H12z"/>
		<circle cx="6" cy="33" r="3"/>
		<circle cx="30" cy="33" r="3"/>
	</g>
</g>
</svg>
