<?xml version="1.0" encoding="utf-8"?>
<!-- Generator: Adobe Illustrator 18.1.1, SVG Export Plug-In . SVG Version: 6.00 Build 0)  -->
<!DOCTYPE svg PUBLIC "-//W3C//DTD SVG 1.1//EN" "http://www.w3.org/Graphics/SVG/1.1/DTD/svg11.dtd">
<svg version="1.1" xmlns="http://www.w3.org/2000/svg" xmlns:xlink="http://www.w3.org/1999/xlink" x="0px" y="0px"
	 viewBox="0 0 36 36" enable-background="new 0 0 36 36" xml:space="preserve">
<g id="Guide">
</g>
<g id="Layer_1">
	<g>
		<path d="M29.8,11.5l0.3-0.3c1.2-1.2,1.2-3.1,0-4.2s-3.1-1.2-4.2,0l-0.3,0.3c-1.4-0.9-2.9-1.5-4.5-1.9V2h-6v3.3
			C8.7,6.7,4,12.3,4,19c0,7.7,6.3,14,14,14s14-6.3,14-14C32,16.2,31.2,13.6,29.8,11.5z M18,29c-5.5,0-10-4.5-10-10
			c0-5.5,4.5-10,10-10s10,4.5,10,10C28,24.5,23.5,29,18,29z"/>
		<path d="M23.8,20.7l-4.3-2.6V17c0-0.8-0.7-1.5-1.5-1.5s-1.5,0.7-1.5,1.5v2.8l5.7,3.4c0.2,0.1,0.5,0.2,0.8,0.2c0.5,0,1-0.3,1.3-0.7
			C24.7,22.1,24.5,21.1,23.8,20.7z"/>
		<circle cx="18" cy="11" r="1"/>
		<circle cx="10" cy="19" r="1"/>
		<circle cx="18" cy="27" r="1"/>
		<circle cx="26" cy="19" r="1"/>
	</g>
</g>
</svg>
