<?xml version="1.0" encoding="utf-8"?>
<!-- Generator: Adobe Illustrator 18.1.1, SVG Export Plug-In . SVG Version: 6.00 Build 0)  -->
<!DOCTYPE svg PUBLIC "-//W3C//DTD SVG 1.1//EN" "http://www.w3.org/Graphics/SVG/1.1/DTD/svg11.dtd">
<svg version="1.1" xmlns="http://www.w3.org/2000/svg" xmlns:xlink="http://www.w3.org/1999/xlink" x="0px" y="0px"
	 viewBox="0 0 36 36" enable-background="new 0 0 36 36" xml:space="preserve">
<g id="Guide">
</g>
<g id="Layer_1">
	<path d="M35.5,12.5C35.5,12.5,35.5,12.5,35.5,12.5L35.5,12.5L30,4H6l-5.5,8.5h0c0,0,0,0,0,0l0,0h0C0.5,14.5,2.1,16,4,16
		s3.5-1.5,3.5-3.5h0c0,1.9,1.6,3.5,3.5,3.5s3.5-1.5,3.5-3.5h0c0,1.9,1.6,3.5,3.5,3.5s3.5-1.5,3.5-3.5h0c0,1.9,1.6,3.5,3.5,3.5
		s3.5-1.5,3.5-3.5h0c0,1.9,1.6,3.5,3.5,3.5S35.5,14.5,35.5,12.5L35.5,12.5L35.5,12.5z"/>
	<path d="M32,20c-1.1,0-2.1-0.2-3-0.6V27H7v-7.6C6.1,19.8,5.1,20,4,20c-0.3,0-0.7,0-1-0.1V31h3h1h22h1h3V19.9C32.7,20,32.3,20,32,20
		z"/>
</g>
</svg>
