<?xml version="1.0" encoding="utf-8"?>
<!-- Generator: Adobe Illustrator 18.1.1, SVG Export Plug-In . SVG Version: 6.00 Build 0)  -->
<!DOCTYPE svg PUBLIC "-//W3C//DTD SVG 1.1//EN" "http://www.w3.org/Graphics/SVG/1.1/DTD/svg11.dtd">
<svg version="1.1" xmlns="http://www.w3.org/2000/svg" xmlns:xlink="http://www.w3.org/1999/xlink" x="0px" y="0px"
	 viewBox="0 0 36 36" enable-background="new 0 0 36 36" xml:space="preserve">
<g id="Guide">
</g>
<g id="Layer_1">
	<path d="M32.1,18.9l-15-15C16.6,3.3,15.8,3,15,3H5C3.3,3,2,4.3,2,6v10c0,0.8,0.3,1.6,0.9,2.1l15,15c0.6,0.6,1.4,0.9,2.1,0.9
		s1.5-0.3,2.1-0.9l10-10C33.3,22,33.3,20,32.1,18.9z M9,12c-1.1,0-2-0.9-2-2c0-1.1,0.9-2,2-2s2,0.9,2,2C11,11.1,10.1,12,9,12z"/>
</g>
</svg>
