<?xml version="1.0" encoding="utf-8"?>
<!-- Generator: Adobe Illustrator 18.1.1, SVG Export Plug-In . SVG Version: 6.00 Build 0)  -->
<!DOCTYPE svg PUBLIC "-//W3C//DTD SVG 1.1//EN" "http://www.w3.org/Graphics/SVG/1.1/DTD/svg11.dtd">
<svg version="1.1" xmlns="http://www.w3.org/2000/svg" xmlns:xlink="http://www.w3.org/1999/xlink" x="0px" y="0px"
	 viewBox="0 0 36 36" enable-background="new 0 0 36 36" xml:space="preserve">
<g id="Guide">
</g>
<g id="Layer_1">
	<path d="M19.4,9l4.8-4.8c0.4-0.4,0.4-1,0-1.4s-1-0.4-1.4,0L18,7.6l-4.8-4.8c-0.4-0.4-1-0.4-1.4,0s-0.4,1,0,1.4L16.6,9H3v20h30V9
		H19.4z M25,22c0,1.6-1.3,3-3,3H10c-1.7,0-3-1.4-3-3v-6c0-1.7,1.3-3,3-3h12c1.7,0,3,1.3,3,3V22z M29,21c-0.6,0-1-0.4-1-1
		c0-0.6,0.4-1,1-1s1,0.4,1,1C30,20.6,29.6,21,29,21z M29,18c-0.6,0-1-0.4-1-1c0-0.6,0.4-1,1-1s1,0.4,1,1C30,17.6,29.6,18,29,18z
		 M29,15c-0.6,0-1-0.4-1-1c0-0.6,0.4-1,1-1s1,0.4,1,1C30,14.6,29.6,15,29,15z"/>
</g>
</svg>
