<?xml version="1.0" encoding="utf-8"?>
<!-- Generator: Adobe Illustrator 18.1.1, SVG Export Plug-In . SVG Version: 6.00 Build 0)  -->
<!DOCTYPE svg PUBLIC "-//W3C//DTD SVG 1.1//EN" "http://www.w3.org/Graphics/SVG/1.1/DTD/svg11.dtd">
<svg version="1.1" xmlns="http://www.w3.org/2000/svg" xmlns:xlink="http://www.w3.org/1999/xlink" x="0px" y="0px"
	 viewBox="0 0 36 36" enable-background="new 0 0 36 36" xml:space="preserve">
<g id="Guide">
</g>
<g id="Layer_1">
	<path d="M6,11.6V32c0,1.1,0.9,2,2,2s2-0.9,2-2V11.6H6z"/>
	<path d="M29,2h-5c0,1.1-0.9,2-2,2s-2-0.9-2-2h-3v8h3c0-1.1,0.9-2,2-2s2,0.9,2,2v22c0,1.1,0.9,2,2,2s2-0.9,2-2V8.1
		c2.3,0.5,4,2.5,4,4.9h2V7C34,4.2,31.8,2,29,2z"/>
	<path d="M11,2v5.2l-3,2l-3-2V2C3.2,3,2,5,2,7.2c0,3.3,2.7,6,6,6s6-2.7,6-6C14,5,12.8,3,11,2z"/>
</g>
</svg>
