<?xml version="1.0" encoding="utf-8"?>
<!-- Generator: Adobe Illustrator 18.1.1, SVG Export Plug-In . SVG Version: 6.00 Build 0)  -->
<!DOCTYPE svg PUBLIC "-//W3C//DTD SVG 1.1//EN" "http://www.w3.org/Graphics/SVG/1.1/DTD/svg11.dtd">
<svg version="1.1" xmlns="http://www.w3.org/2000/svg" xmlns:xlink="http://www.w3.org/1999/xlink" x="0px" y="0px"
	 viewBox="0 0 36 36" enable-background="new 0 0 36 36" xml:space="preserve">
<g id="Guide">
</g>
<g id="Layer_1">
	<path d="M9,28h1.7l-4.1,7h4.6l4.1-7h5.2l4.1,7h4.6l-4.1-7H27c1.7,0,3-1.3,3-3V9V5c0-2-1.1-4-12-4S6,3,6,5v4v16C6,26.7,7.3,28,9,28z
		 M26,26c-1.1,0-2-0.9-2-2c0-1.1,0.9-2,2-2s2,0.9,2,2C28,25.1,27.1,26,26,26z M15,4h6c0.6,0,1,0.4,1,1s-0.4,1-1,1h-6
		c-0.6,0-1-0.4-1-1S14.4,4,15,4z M8,12c0-1.7,1.3-3,3-3h7h7c1.7,0,3,1.3,3,3v4c0,1.6-1.3,3-3,3H11c-1.7,0-3-1.4-3-3V12z M10,22
		c1.1,0,2,0.9,2,2c0,1.1-0.9,2-2,2s-2-0.9-2-2C8,22.9,8.9,22,10,22z"/>
</g>
</svg>
