<?xml version="1.0" encoding="utf-8"?>
<!-- Generator: Adobe Illustrator 18.1.1, SVG Export Plug-In . SVG Version: 6.00 Build 0)  -->
<!DOCTYPE svg PUBLIC "-//W3C//DTD SVG 1.1//EN" "http://www.w3.org/Graphics/SVG/1.1/DTD/svg11.dtd">
<svg version="1.1" xmlns="http://www.w3.org/2000/svg" xmlns:xlink="http://www.w3.org/1999/xlink" x="0px" y="0px"
	 viewBox="0 0 36 36" enable-background="new 0 0 36 36" xml:space="preserve">
<g id="Guide">
</g>
<g id="Layer_1">
	<g>
		<path d="M24,30c-2,0-4-2-6-2s-4,2-6,2c-2,0-4-2-6-2c-1.3,0-2.7,0.9-4,1.5v4C3.3,32.9,4.7,32,6,32c2,0,4,2,6,2c2,0,4-2,6-2s4,2,6,2
			c2,0,4-2,6-2c1.3,0,2.7,0.9,4,1.5v-4c-1.3-0.6-2.7-1.5-4-1.5C28,28,26,30,24,30z"/>
		<path d="M30,20c-2,0-4,2-6,2c-2,0-4-2-6-2s-4,2-6,2c-2,0-4-2-6-2c-1.3,0-2.7,0.9-4,1.5v4C3.3,24.9,4.7,24,6,24c2,0,4,2,6,2
			c2,0,4-2,6-2s4,2,6,2c2,0,4-2,6-2c1.3,0,2.7,0.9,4,1.5v-4C32.7,20.9,31.3,20,30,20z"/>
	</g>
	<path d="M23,13c0-2.8-5-11-5-11s-5,8.2-5,11s2.2,5,5,5S23,15.8,23,13z"/>
</g>
</svg>
