<?xml version="1.0" encoding="utf-8"?>
<!-- Generator: Adobe Illustrator 18.1.1, SVG Export Plug-In . SVG Version: 6.00 Build 0)  -->
<!DOCTYPE svg PUBLIC "-//W3C//DTD SVG 1.1//EN" "http://www.w3.org/Graphics/SVG/1.1/DTD/svg11.dtd">
<svg version="1.1" xmlns="http://www.w3.org/2000/svg" xmlns:xlink="http://www.w3.org/1999/xlink" x="0px" y="0px"
	 viewBox="0 0 36 36" enable-background="new 0 0 36 36" xml:space="preserve">
<g id="Guide">
</g>
<g id="Layer_1">
	<g>
		<circle cx="18" cy="4" r="3"/>
		<path d="M22,13.4l2.6,6.2c0.2,0.6,0.8,0.9,1.4,0.9c0.2,0,0.4,0,0.6-0.1c0.8-0.3,1.1-1.2,0.8-2l-4-9.5C23.1,8.3,22.6,8,22,8h-8
			c-0.6,0-1.1,0.3-1.4,0.9l-4,9.5c-0.3,0.8,0,1.6,0.8,2c0.2,0.1,0.4,0.1,0.6,0.1c0.6,0,1.1-0.3,1.4-0.9l2.6-6.2v4.9L9.2,29H14v4.5
			c0,0.8,0.7,1.5,1.5,1.5s1.5-0.7,1.5-1.5V29h2v4.5c0,0.8,0.7,1.5,1.5,1.5s1.5-0.7,1.5-1.5V29h5l-5-11.3V13.4z"/>
	</g>
</g>
</svg>
