<?xml version="1.0" encoding="utf-8"?>
<!-- Generator: Adobe Illustrator 18.1.1, SVG Export Plug-In . SVG Version: 6.00 Build 0)  -->
<!DOCTYPE svg PUBLIC "-//W3C//DTD SVG 1.1//EN" "http://www.w3.org/Graphics/SVG/1.1/DTD/svg11.dtd">
<svg version="1.1" xmlns="http://www.w3.org/2000/svg" xmlns:xlink="http://www.w3.org/1999/xlink" x="0px" y="0px"
	 viewBox="0 0 36 36" enable-background="new 0 0 36 36" xml:space="preserve">
<g id="Guide">
</g>
<g id="Layer_1">
	<path d="M33.8,6.5l-3.7,3.7l-3.5-0.7l-0.7-3.5l3.7-3.7c-2-0.5-4.2,0-5.8,1.5c-1.8,1.8-2.2,4.6-1.2,6.8l-12,12
		c-2.2-1.1-5-0.7-6.8,1.2c-1.6,1.6-2.1,3.8-1.5,5.8l3.7-3.7l3.5,0.7l0.7,3.5l-3.7,3.7c2,0.5,4.2,0,5.8-1.5c1.8-1.8,2.2-4.6,1.2-6.8
		l12-12c2.2,1.1,5,0.7,6.8-1.2C33.8,10.7,34.3,8.5,33.8,6.5z"/>
</g>
</svg>
