<?xml version="1.0" encoding="UTF-8"?>
<svg width="555px" height="555px" viewBox="0 0 555 555" version="1.1" xmlns="http://www.w3.org/2000/svg" xmlns:xlink="http://www.w3.org/1999/xlink">
    <!-- Generator: Sketch 48.2 (47327) - http://www.bohemiancoding.com/sketch -->
    <title>2018 WELL / Silver</title>
    <desc>Created with Sketch.</desc>
    <defs>
        <polygon id="path-1" points="0 542.544304 543.992241 542.544304 543.992241 0.203886076 0 0.203886076"></polygon>
    </defs>
    <g id="Symbols" stroke="none" stroke-width="1" fill="none" fill-rule="evenodd">
        <g id="2018-WELL-/-Silver">
            <g id="Page-1" transform="translate(6.000000, 6.000000)">
                <g id="Group-63" transform="translate(0.000000, 3.251810)">
                    <path d="M121.297701,306.948414 C121.297701,306.948414 124.169385,309.85811 128.195271,309.85811 C130.721385,309.85811 132.867372,308.441275 132.867372,305.877148 C132.867372,300.012832 119.766828,301.277616 119.766828,292.963211 C119.766828,288.750718 123.409132,285.415971 128.502828,285.415971 C133.520499,285.415971 136.164106,288.139059 136.164106,288.139059 L134.439714,291.276832 C134.439714,291.276832 131.948157,288.944237 128.502828,288.944237 C125.631144,288.944237 123.599195,290.741199 123.599195,292.887186 C123.599195,298.478503 136.699739,296.985642 136.699739,305.759654 C136.699739,309.934135 133.482486,313.38292 128.119246,313.38292 C122.372423,313.38292 119.15517,309.820097 119.15517,309.820097 L121.297701,306.948414 Z" id="Fill-1" fill="#58585B"></path>
                    <mask id="mask-2" fill="white">
                        <use xlink:href="#path-1"></use>
                    </mask>
                    <g id="Clip-4"></g>
                    <polygon id="Fill-3" fill="#58585B" mask="url(#mask-2)" points="142.150063 312.923658 145.944418 312.923658 145.944418 285.87938 142.150063 285.87938"></polygon>
                    <polygon id="Fill-5" fill="#58585B" mask="url(#mask-2)" points="153.306433 285.879034 157.100787 285.879034 157.100787 309.630034 169.206091 309.630034 169.206091 312.923313 153.306433 312.923313"></polygon>
                    <path d="M168.138627,285.879034 L172.237082,285.879034 L178.941133,304.99249 C179.438753,306.447338 179.977842,308.707363 179.977842,308.707363 L180.050411,308.707363 C180.050411,308.707363 180.5895,306.447338 181.083665,304.99249 L187.870652,285.879034 L191.889627,285.879034 L181.933766,312.923313 L178.135956,312.923313 L168.138627,285.879034 Z" id="Fill-6" fill="#58585B" mask="url(#mask-2)"></path>
                    <polygon id="Fill-7" fill="#58585B" mask="url(#mask-2)" points="195.810114 285.879034 211.516253 285.879034 211.516253 289.172313 199.604468 289.172313 199.604468 297.638768 209.294241 297.638768 209.294241 300.932047 199.604468 300.932047 199.604468 309.630034 212.16938 309.630034 212.16938 312.923313 195.810114 312.923313"></polygon>
                    <path d="M227.004684,298.863122 C229.955848,298.863122 231.794278,296.986678 231.794278,293.959489 C231.794278,291.965552 231.027114,290.548716 229.648291,289.785008 C228.922595,289.401425 228.037937,289.173349 225.933418,289.173349 L221.568873,289.173349 L221.568873,298.863122 L227.004684,298.863122 Z M217.774519,285.880071 L226.050911,285.880071 C228.881127,285.880071 230.069886,286.108147 231.103139,286.491729 C233.864241,287.524982 235.664658,290.244615 235.664658,293.803982 C235.664658,297.252767 233.746747,300.169375 230.799038,301.123147 L230.799038,301.202628 C230.799038,301.202628 231.103139,301.544742 231.604215,302.4294 L237.351038,312.924349 L233.059063,312.924349 L227.350253,302.1564 L221.568873,302.1564 L221.568873,312.924349 L217.774519,312.924349 L217.774519,285.880071 Z" id="Fill-8" fill="#58585B" mask="url(#mask-2)"></path>
                    <polygon id="Fill-9" fill="#58585B" mask="url(#mask-2)" points="1.95074051 214.410399 2.4138038 212.33007 23.6006772 217.060918 23.1376139 219.141247"></polygon>
                    <path d="M5.42233291,199.054322 L6.00980127,197.070752 L24.1418392,190.895423 C25.3893456,190.491106 27.466219,190.01422 27.466219,190.01422 L27.4834975,189.952018 C27.4834975,189.952018 25.714181,189.620271 24.6187253,189.295435 L9.64173797,184.847954 L10.2499405,182.805638 L31.0566873,188.984423 L30.4657633,190.967992 L12.3337253,197.146777 C11.086219,197.547638 9.01280127,198.02798 9.01280127,198.02798 L8.99552278,198.086727 C8.99552278,198.086727 10.7648392,198.418473 11.8602949,198.743309 L26.8372823,203.19079 L26.2290797,205.233106 L5.42233291,199.054322 Z" id="Fill-10" fill="#58585B" mask="url(#mask-2)"></path>
                    <polygon id="Fill-11" fill="#58585B" mask="url(#mask-2)" points="18.7654671 165.689229 15.7693785 172.901267 14.0035177 172.168659 20.7974165 155.802482 22.5667329 156.538546 19.5810114 163.722938 37.8581886 171.311647 37.0426443 173.277938"></polygon>
                    <polygon id="Fill-12" fill="#58585B" mask="url(#mask-2)" points="25.6626911 145.834181 31.3922354 135.03513 33.0820709 135.930156 28.3512228 144.849308 35.3317291 148.553814 39.1951975 141.272662 40.8884886 142.167687 37.0250203 149.448839 44.1437544 153.225915 49.1337797 143.81951 50.8236152 144.714535 44.8348937 156.004295"></polygon>
                    <path d="M51.0323392,123.496215 C52.4802759,121.308759 51.9861114,118.97962 49.7191747,117.479848 C48.2263139,116.491519 46.7265418,116.349835 45.461757,117.034063 C44.8224532,117.386544 44.2418962,117.925633 43.3192253,119.318278 L40.900238,122.974405 L48.1883013,127.795101 L51.0323392,123.496215 Z M38.1287696,123.69319 L41.6708582,118.336861 C42.8976304,116.484608 43.6267823,115.779646 44.4112253,115.264747 C46.2842127,114.058709 48.6893772,114.169291 50.8768329,115.617228 C53.3234658,117.237949 54.2841494,119.87119 53.503162,122.27981 L53.5549975,122.314367 C53.5549975,122.314367 53.9040228,122.286722 54.5813392,122.32819 L64.4749975,123.209392 L63.1307316,125.244797 L52.7982,124.294481 L49.7848329,128.852544 L57.404643,133.894405 L56.2297063,135.674089 L38.1287696,123.69319 Z" id="Fill-13" fill="#58585B" mask="url(#mask-2)"></path>
                    <path d="M53.760957,101.272633 L55.0810329,99.679557 L74.1841215,101.117127 C75.486919,101.23462 77.5845266,101.607835 77.5845266,101.607835 L77.6225392,101.562911 C77.6225392,101.562911 76.1262228,100.560759 75.2450203,99.8316076 L63.2191975,89.8619241 L64.5772861,88.2239241 L81.2890329,102.074354 L79.968957,103.66743 L60.8658684,102.229861 C59.5630709,102.112367 57.4654633,101.735696 57.4654633,101.735696 L57.4274506,101.784076 C57.4274506,101.784076 58.9237671,102.786228 59.8049696,103.51538 L71.8307924,113.485063 L70.4727038,115.123063 L53.760957,101.272633 Z" id="Fill-14" fill="#58585B" mask="url(#mask-2)"></path>
                    <path d="M80.4147418,75.0490823 C80.4147418,75.0490823 81.333957,76.655981 81.7797418,77.6443101 L85.1939696,85.3055886 L90.5433873,80.0943987 L83.016881,76.4382722 C82.038919,75.9648418 80.4596658,75.0076139 80.4596658,75.0076139 L80.4147418,75.0490823 Z M92.298881,80.9686899 L86.0440709,87.064538 L89.0989063,93.740943 L87.4850962,95.3132848 L78.0475899,74.2093481 L79.6821342,72.6162722 L100.530349,82.6032342 L98.9165392,84.1755759 L92.298881,80.9686899 Z" id="Fill-15" fill="#58585B" mask="url(#mask-2)"></path>
                    <polygon id="Fill-16" fill="#58585B" mask="url(#mask-2)" points="97.8276494 59.0416063 91.7629025 63.9625177 90.5568646 62.4765684 104.317447 51.3112139 105.523485 52.7971633 99.4829278 57.7007962 111.95108 73.0682772 110.295801 74.4090873"></polygon>
                    <polygon id="Fill-17" fill="#58585B" mask="url(#mask-2)" points="113.117723 45.0712633 114.869761 43.8583139 127.234242 61.693162 125.485659 62.9061114"></polygon>
                    <path d="M144.723175,48.8514494 C148.963314,46.4393734 150.387061,40.9448165 147.764187,36.3280063 C145.200061,31.8183228 139.826453,30.360019 135.582858,32.7720949 C131.315073,35.1979937 129.842947,40.5439557 132.407073,45.0536392 C135.029947,49.6704494 140.45539,51.2773481 144.723175,48.8514494 M134.604896,31.0511582 C139.947403,28.017057 146.613441,29.8036519 149.695922,35.2290949 C152.837149,40.7582089 151.043643,47.5313734 145.697681,50.5689304 C140.35863,53.6064873 133.616567,51.6816646 130.471884,46.1525506 C127.392858,40.7305633 129.265846,34.0887152 134.604896,31.0511582" id="Fill-18" fill="#58585B" mask="url(#mask-2)"></path>
                    <path d="M156.084122,20.3284785 L157.991666,19.526757 L174.271451,29.6208456 C175.373818,30.3292633 177.060197,31.6286051 177.060197,31.6286051 L177.115489,31.6044152 C177.115489,31.6044152 176.251565,30.0286177 175.80578,28.9746304 L169.744489,14.5747443 L171.707324,13.7488329 L180.132311,33.7538582 L178.224767,34.5555797 L161.944982,24.4614911 C160.842615,23.7530734 159.156235,22.4502759 159.156235,22.4502759 L159.100944,22.4744658 C159.100944,22.4744658 159.964868,24.053719 160.407197,25.1077063 L166.471944,39.5041367 L164.509109,40.3335038 L156.084122,20.3284785 Z" id="Fill-19" fill="#58585B" mask="url(#mask-2)"></path>
                    <path d="M191.840556,9.37668608 C191.840556,9.37668608 191.913125,11.2254835 191.850923,12.3071165 L191.33948,20.6837241 L198.492771,18.5308253 L193.506201,11.8094962 C192.859986,10.9386608 191.899303,9.35940759 191.899303,9.35940759 L191.840556,9.37668608 Z M199.650429,20.1169899 L191.280733,22.6327367 L190.907518,29.9691797 L188.751163,30.6153949 L190.12653,7.5382557 L192.313986,6.88167342 L206.192062,25.3696481 L204.035708,26.019319 L199.650429,20.1169899 Z" id="Fill-20" fill="#58585B" mask="url(#mask-2)"></path>
                    <polygon id="Fill-21" fill="#58585B" mask="url(#mask-2)" points="210.917035 2.03505949 213.004276 1.61346456 216.926491 21.0102873 226.792504 19.0128949 227.17263 20.889338 215.219377 23.3083253"></polygon>
                    <path d="M235.736882,492.655454 C235.736882,492.655454 235.118313,494.435138 234.541211,495.751758 L228.113616,510.220758 L225.580591,509.830265 L223.348211,487.52029 L225.542578,487.858948 L227.11492,505.161619 C227.222047,506.301999 227.249692,507.525315 227.249692,507.525315 L227.311895,507.535682 C227.342996,507.539138 227.678199,506.374568 228.155085,505.320581 L235.246173,489.362176 L237.260844,489.673189 L239.19949,507.031151 C239.334262,508.178442 239.303161,509.391391 239.334262,509.394847 L239.393009,509.405214 C239.393009,509.405214 239.790414,508.247556 240.236199,507.193568 L247.11649,491.197151 L249.314313,491.539265 L240.288034,512.104113 L237.755009,511.713619 L236.002971,495.976378 C235.85092,494.54572 235.799085,492.665822 235.799085,492.665822 L235.736882,492.655454 Z" id="Fill-22" fill="#58585B" mask="url(#mask-2)"></path>
                    <polygon id="Fill-23" fill="#58585B" mask="url(#mask-2)" points="258.739724 491.915244 270.962522 492.236624 270.910686 494.15108 260.820053 493.884991 260.609256 501.784713 268.851091 502.002422 268.799256 503.916877 260.560876 503.699168 260.346623 511.754396 270.993623 512.034308 270.945243 513.948763 258.166078 513.613561"></polygon>
                    <polygon id="Fill-24" fill="#58585B" mask="url(#mask-2)" points="281.686584 491.892782 283.811837 491.73382 285.270141 511.472757 295.308938 510.733238 295.450622 512.640782 283.286571 513.539263"></polygon>
                    <polygon id="Fill-25" fill="#58585B" mask="url(#mask-2)" points="302.93013 489.760272 305.031194 489.40088 308.379763 508.901373 318.297611 507.197715 318.622447 509.084525 306.603535 511.151032"></polygon>
                    <path d="M351.027892,498.005218 C353.505627,497.141294 354.511234,495.057509 353.657677,492.60742 C352.80412,490.160787 350.582108,489.137901 348.190766,489.970724 L342.972665,491.791876 L345.782146,499.836737 L351.027892,498.005218 Z M347.347576,488.301623 C349.417538,487.579382 350.309108,485.633825 349.566133,483.508572 C348.833525,481.407509 347.033108,480.467559 344.849108,481.231268 L339.893639,482.959116 L342.364462,490.043294 L347.347576,488.301623 Z M337.250032,481.853294 L344.247816,479.413572 C347.482348,478.283559 350.464614,479.434306 351.584259,482.641192 C352.327234,484.766446 351.846892,486.667078 350.547551,488.004433 L350.568285,488.06318 C352.869778,487.914585 354.912095,489.455825 355.776019,491.933559 C357.047715,495.579319 355.067601,498.623787 351.629184,499.822914 L344.399867,502.345572 L337.250032,481.853294 Z" id="Fill-26" fill="#58585B" mask="url(#mask-2)"></path>
                    <path d="M359.951191,473.347097 L361.896748,472.403692 L368.058254,485.096465 C369.689343,488.455401 372.840938,489.433363 376.199875,487.802275 C379.562267,486.16773 380.771761,483.078338 379.113027,479.660654 L372.979166,467.023173 L374.893622,466.093591 L381.068951,478.814009 C383.17347,483.147452 381.507824,487.422148 377.091444,489.56468 C372.647419,491.72449 368.231039,490.400958 366.12652,486.067515 L359.951191,473.347097 Z" id="Fill-27" fill="#58585B" mask="url(#mask-2)"></path>
                    <polygon id="Fill-28" fill="#58585B" mask="url(#mask-2)" points="384.766546 460.343313 386.587697 459.240946 397.829077 477.808401 396.007925 478.910768"></polygon>
                    <polygon id="Fill-29" fill="#58585B" mask="url(#mask-2)" points="396.523861 452.856547 398.251709 451.612496 409.807557 467.678028 417.976823 461.799889 419.096468 463.354952 409.195899 470.473686"></polygon>
                    <path d="M431.802027,450.236438 C435.769166,446.659792 436.294432,441.942767 432.410229,437.633514 C428.543305,433.344995 423.774444,433.403742 419.831495,436.959653 L416.368887,440.083603 L428.339419,453.360387 L431.802027,450.236438 Z M413.504115,440.087058 L418.708394,435.394223 C423.546368,431.033134 429.469432,431.053868 434.058596,436.144109 C438.692685,441.279273 438.081027,447.150501 433.243052,451.51159 L428.038773,456.207881 L413.504115,440.087058 Z" id="Fill-30" fill="#58585B" mask="url(#mask-2)"></path>
                    <polygon id="Fill-31" fill="#58585B" mask="url(#mask-2)" points="433.845034 420.541641 435.286059 418.972754 451.275566 433.645641 449.837996 435.217982"></polygon>
                    <path d="M443.020253,410.236063 L444.267759,408.584241 L463.415772,409.150975 C464.722025,409.209722 466.833456,409.489633 466.833456,409.489633 L466.871468,409.441253 C466.871468,409.441253 465.330228,408.508215 464.417924,407.820532 L451.949772,398.407215 L453.231835,396.707013 L470.558696,409.783367 L469.31119,411.43519 L450.163177,410.868456 C448.853468,410.809709 446.742038,410.529797 446.742038,410.529797 L446.707481,410.581633 C446.707481,410.581633 448.245266,411.511215 449.15757,412.198899 L461.629177,421.612215 L460.343658,423.312418 L443.020253,410.236063 Z" id="Fill-32" fill="#58585B" mask="url(#mask-2)"></path>
                    <path d="M463.882637,378.768494 C466.374194,374.397038 469.905915,373.315405 469.905915,373.315405 L470.735282,375.105456 C470.735282,375.105456 467.600966,376.232013 465.645042,379.666975 C463.046358,384.228494 464.801852,389.315278 469.280434,391.869038 C473.921434,394.516101 479.174092,393.278962 481.620725,388.990443 C483.714877,385.313582 482.235839,381.484671 482.235839,381.484671 L479.046232,379.666975 L477.211257,382.884228 L475.549067,381.937367 L478.393105,376.947342 L487.405561,382.085962 L486.424143,383.803443 L485.003852,382.991354 C484.602991,382.763278 484.215953,382.507557 484.215953,382.507557 L484.184852,382.559392 C484.184852,382.559392 485.494561,386.184418 483.23108,390.155013 C480.293738,395.304 473.810852,397.011114 468.205713,393.814595 C462.759535,390.71138 460.793244,384.187025 463.882637,378.768494" id="Fill-33" fill="#58585B" mask="url(#mask-2)"></path>
                    <polygon id="Fill-34" fill="#58585B" mask="url(#mask-2)" points="478.328138 348.885015 479.078024 346.891078 499.390606 354.538534 498.64072 356.532471"></polygon>
                    <path d="M483.002313,335.888487 L483.548313,333.894551 L501.538667,327.314905 C502.779262,326.886399 504.842313,326.361133 504.842313,326.361133 L504.859591,326.302386 C504.859591,326.302386 503.079908,326.008652 501.980996,325.708006 L486.907249,321.592272 L487.470528,319.536133 L508.408591,325.25531 L507.862591,327.249247 L489.872237,333.828892 C488.631642,334.257399 486.568591,334.782665 486.568591,334.782665 L486.551313,334.841411 C486.551313,334.841411 488.330996,335.135146 489.429908,335.435791 L504.503654,339.551525 L503.943832,341.607665 L483.002313,335.888487 Z" id="Fill-35" fill="#58585B" mask="url(#mask-2)"></path>
                    <path d="M507.098191,311.281166 C507.098191,311.281166 509.793634,309.418546 510.322356,306.035419 C510.688659,303.685546 509.582837,301.54647 507.264065,301.183622 C501.866267,300.343887 501.569077,311.263887 494.920318,310.227178 C491.841292,309.746837 489.577811,306.615976 490.196381,302.648837 C490.776938,298.927052 493.164824,297.237216 493.164824,297.237216 L494.771723,298.550381 C494.771723,298.550381 492.64647,300.15728 492.211052,302.963305 C491.782546,305.707128 493.306508,307.756356 495.196773,308.053546 C500.29047,308.8449 500.494356,297.911077 507.54052,299.009989 C510.743951,299.507609 512.952141,302.382748 512.323204,306.408634 C511.642432,310.800824 508.521938,312.784394 508.521938,312.784394 L507.098191,311.281166 Z" id="Fill-36" fill="#58585B" mask="url(#mask-2)"></path>
                    <polygon id="Fill-37" fill="#58585B" mask="url(#mask-2)" points="494.690859 281.705244 494.283087 289.508206 492.372087 289.407991 493.294758 271.707915 495.205758 271.80813 494.801442 279.576535 514.568024 280.609789 514.457442 282.738497"></polygon>
                    <polygon id="Fill-38" fill="#58585B" mask="url(#mask-2)" points="493.052168 262.886214 492.983054 260.757505 514.677915 260.049087 514.747029 262.177796"></polygon>
                    <polygon id="Fill-39" fill="#58585B" mask="url(#mask-2)" points="493.641019 243.950035 494.556778 251.708073 492.65269 251.929238 490.579272 234.332833 492.479905 234.108213 493.392209 241.835149 513.044753 239.519833 513.293563 241.634719"></polygon>
                    <path d="M489.100925,226.151818 L488.603305,224.047299 L502.332786,220.8024 C505.968178,219.945387 507.609634,217.084071 506.749166,213.448678 C505.888697,209.813286 503.137963,207.957577 499.440368,208.831868 L485.769634,212.062944 L485.282381,209.989527 L499.042963,206.737716 C503.728887,205.628438 507.537065,208.185653 508.663622,212.964881 C509.800546,217.771754 507.547432,221.794185 502.861508,222.900008 L489.100925,226.151818 Z" id="Fill-40" fill="#58585B" mask="url(#mask-2)"></path>
                    <polygon id="Fill-41" fill="#58585B" mask="url(#mask-2)" points="482.092428 194.016608 484.742947 201.363418 482.942529 202.013089 476.929618 185.34281 478.730035 184.693139 481.370187 192.012304 499.986023 185.301342 500.708263 187.30219"></polygon>
                    <polygon id="Fill-42" fill="#58585B" mask="url(#mask-2)" points="473.41241 177.405422 468.101005 166.392118 469.825397 165.559295 474.210676 174.654687 481.32941 171.219725 477.749309 163.793434 479.473701 162.964067 483.053803 170.386903 490.31422 166.886282 485.687043 157.29327 487.411435 156.460447 492.964739 167.974827"></polygon>
                    <path d="M134.956341,184.024808 L151.647353,246.683491 C152.856847,251.400516 153.465049,255.754694 153.465049,255.754694 L153.706948,255.754694 C153.706948,255.754694 154.069796,251.279567 155.27929,246.683491 L171.002708,184.024808 L183.342999,184.024808 L160.96391,269.425428 L147.051277,269.425428 L132.295454,214.023706 C130.844062,208.580985 129.755518,201.92877 129.755518,201.92877 L129.513619,201.92877 C129.513619,201.92877 128.425075,208.580985 126.973682,214.023706 L112.214404,269.425428 L98.3052266,269.425428 L76.5308848,184.024808 L88.8677203,184.024808 L103.989847,246.683491 C105.078391,251.279567 105.562189,255.754694 105.562189,255.754694 L105.804087,255.754694 C105.804087,255.754694 106.408834,251.400516 107.618328,246.683491 L124.312796,184.024808 L134.956341,184.024808 Z" id="Fill-43" fill="#58585B" mask="url(#mask-2)"></path>
                    <polygon id="Fill-44" fill="#58585B" mask="url(#mask-2)" points="198.823827 184.024808 248.419978 184.024808 248.419978 194.426453 210.797814 194.426453 210.797814 221.159719 241.401459 221.159719 241.401459 231.56482 210.797814 231.56482 210.797814 259.020327 250.476118 259.020327 250.476118 269.425428 198.823827 269.425428"></polygon>
                    <polygon id="Fill-45" fill="#58585B" mask="url(#mask-2)" points="268.135071 184.024808 280.109058 184.024808 280.109058 259.020327 318.33597 259.020327 318.33597 269.425428 268.135071 269.425428"></polygon>
                    <polygon id="Fill-46" fill="#58585B" mask="url(#mask-2)" points="332.124197 184.024808 344.098185 184.024808 344.098185 259.020327 382.325096 259.020327 382.325096 269.425428 332.124197 269.425428"></polygon>
                    <path d="M210.170259,505.85967 L215.391816,485.795897 C116.95631,460.182277 48.2086899,371.163543 48.2086899,269.310353 C48.2086899,259.758809 48.8168924,250.141606 50.016019,240.735201 L29.4477152,238.115784 C28.1380063,248.389568 27.4745127,258.887973 27.4745127,269.310353 C27.4745127,380.597594 102.601348,477.871986 210.170259,505.85967" id="Fill-47" fill="#AFC4CB" mask="url(#mask-2)"></path>
                    <path d="M210.170259,505.85967 L215.391816,485.795897 C116.95631,460.182277 48.2086899,371.163543 48.2086899,269.310353 C48.2086899,259.758809 48.8168924,250.141606 50.016019,240.735201 L29.4477152,238.115784 C28.1380063,248.389568 27.4745127,258.887973 27.4745127,269.310353 C27.4745127,380.597594 102.601348,477.871986 210.170259,505.85967" id="Fill-48" fill="#AFC4CB" mask="url(#mask-2)"></path>
                    <path d="M271.885192,45.6317772 C352.316522,45.6317772 426.938825,89.1493595 466.637863,159.203233 L484.673142,148.984739 C441.304154,72.4445241 359.770458,24.8976 271.885192,24.8976 C260.073623,24.8976 248.213673,25.7477013 236.633635,27.4271696 L239.602078,47.943638 C250.204154,46.4127646 261.065408,45.6317772 271.885192,45.6317772" id="Fill-49" fill="#AFC4CB" mask="url(#mask-2)"></path>
                    <path d="M271.885192,45.6317772 C352.316522,45.6317772 426.938825,89.1493595 466.637863,159.203233 L484.673142,148.984739 C441.304154,72.4445241 359.770458,24.8976 271.885192,24.8976 C260.073623,24.8976 248.213673,25.7477013 236.633635,27.4271696 L239.602078,47.943638 C250.204154,46.4127646 261.065408,45.6317772 271.885192,45.6317772" id="Fill-50" fill="#AFC4CB" mask="url(#mask-2)"></path>
                    <path d="M488.63959,269.310699 C488.63959,216.963813 469.726565,166.4208 435.3804,126.998218 L419.74683,140.617116 C450.803172,176.266078 467.905413,221.971116 467.905413,269.310699 C467.905413,377.394509 379.971767,465.328154 271.884501,465.328154 C242.279552,465.328154 213.832261,458.897104 187.337438,446.211243 L178.387185,464.913471 C207.6984,478.943597 239.155603,486.062332 271.884501,486.062332 C391.40321,486.062332 488.63959,388.829408 488.63959,269.310699" id="Fill-51" fill="#AFC4CB" mask="url(#mask-2)"></path>
                    <path d="M488.63959,269.310699 C488.63959,216.963813 469.726565,166.4208 435.3804,126.998218 L419.74683,140.617116 C450.803172,176.266078 467.905413,221.971116 467.905413,269.310699 C467.905413,377.394509 379.971767,465.328154 271.884501,465.328154 C242.279552,465.328154 213.832261,458.897104 187.337438,446.211243 L178.387185,464.913471 C207.6984,478.943597 239.155603,486.062332 271.884501,486.062332 C391.40321,486.062332 488.63959,388.829408 488.63959,269.310699" id="Fill-52" fill="#AFC4CB" mask="url(#mask-2)"></path>
                    <path d="M271.885192,437.671181 C227.209952,437.671181 185.129939,420.358143 153.396281,388.914763 L138.802876,403.642941 C174.444927,438.9567 221.708484,458.405358 271.885192,458.405358 C376.153914,458.405358 460.980889,373.574928 460.980889,269.309662 C460.980889,209.3637 433.483914,154.272991 385.543041,118.171333 L373.067977,134.731029 C415.763104,166.882827 440.250167,215.936434 440.250167,269.309662 C440.250167,362.146941 364.722471,437.671181 271.885192,437.671181" id="Fill-53" fill="#AFC4CB" mask="url(#mask-2)"></path>
                    <path d="M271.885192,437.671181 C227.209952,437.671181 185.129939,420.358143 153.396281,388.914763 L138.802876,403.642941 C174.444927,438.9567 221.708484,458.405358 271.885192,458.405358 C376.153914,458.405358 460.980889,373.574928 460.980889,269.309662 C460.980889,209.3637 433.483914,154.272991 385.543041,118.171333 L373.067977,134.731029 C415.763104,166.882827 440.250167,215.936434 440.250167,269.309662 C440.250167,362.146941 364.722471,437.671181 271.885192,437.671181" id="Fill-54" fill="#AFC4CB" mask="url(#mask-2)"></path>
                    <path d="M271.885192,430.746657 C299.807218,430.746657 327.324927,423.503518 351.46642,409.801682 L341.234104,391.766404 C320.206192,403.702378 296.227116,410.01248 271.885192,410.01248 C222.389256,410.01248 175.958522,383.521113 150.711205,340.874366 L132.869446,351.434973 C161.831635,400.357265 215.097737,430.746657 271.885192,430.746657" id="Fill-55" fill="#AFC4CB" mask="url(#mask-2)"></path>
                    <path d="M271.885192,430.746657 C299.807218,430.746657 327.324927,423.503518 351.46642,409.801682 L341.234104,391.766404 C320.206192,403.702378 296.227116,410.01248 271.885192,410.01248 C222.389256,410.01248 175.958522,383.521113 150.711205,340.874366 L132.869446,351.434973 C161.831635,400.357265 215.097737,430.746657 271.885192,430.746657" id="Fill-56" fill="#AFC4CB" mask="url(#mask-2)"></path>
                    <path d="M421.360295,330.406025 C429.298029,310.998835 433.323915,290.444354 433.323915,269.309316 C433.323915,239.085797 424.919662,209.608709 409.013092,184.07457 L391.413232,195.036038 C405.270573,217.280354 412.593194,242.963089 412.593194,269.309316 C412.593194,287.738544 409.085662,305.652873 402.170814,322.558139 L421.360295,330.406025 Z" id="Fill-57" fill="#AFC4CB" mask="url(#mask-2)"></path>
                    <path d="M421.360295,330.406025 C429.298029,310.998835 433.323915,290.444354 433.323915,269.309316 C433.323915,239.085797 424.919662,209.608709 409.013092,184.07457 L391.413232,195.036038 C405.270573,217.280354 412.593194,242.963089 412.593194,269.309316 C412.593194,287.738544 409.085662,305.652873 402.170814,322.558139 L421.360295,330.406025 Z" id="Fill-58" fill="#AFC4CB" mask="url(#mask-2)"></path>
                    <path d="M303.3303,0.202849367 L300.963148,20.8022544 C427.693895,35.3714696 523.261173,142.708849 523.261173,270.476305 C523.261173,409.063546 410.512173,521.812546 271.924933,521.812546 C206.225237,521.812546 144.077996,496.623976 96.9319329,450.884381 C49.8929962,405.245001 22.8245278,344.099913 20.7234646,278.711229 L-0.00034556962,279.378178 C2.27695823,350.168115 31.5743506,416.361976 82.4974899,465.764609 C133.531211,515.277824 200.803249,542.543267 271.924933,542.543267 C421.943616,542.543267 543.991895,420.494989 543.991895,270.476305 C543.991895,132.168976 440.531806,15.9781025 303.3303,0.202849367" id="Fill-59" fill="#AFC4CB" mask="url(#mask-2)"></path>
                    <path d="M303.3303,0.202849367 L300.963148,20.8022544 C427.693895,35.3714696 523.261173,142.708849 523.261173,270.476305 C523.261173,409.063546 410.512173,521.812546 271.924933,521.812546 C206.225237,521.812546 144.077996,496.623976 96.9319329,450.884381 C49.8929962,405.245001 22.8245278,344.099913 20.7234646,278.711229 L-0.00034556962,279.378178 C2.27695823,350.168115 31.5743506,416.361976 82.4974899,465.764609 C133.531211,515.277824 200.803249,542.543267 271.924933,542.543267 C421.943616,542.543267 543.991895,420.494989 543.991895,270.476305 C543.991895,132.168976 440.531806,15.9781025 303.3303,0.202849367" id="Fill-60" fill="#AFC4CB" mask="url(#mask-2)"></path>
                    <polygon id="Fill-61" fill="#59595B" mask="url(#mask-2)" points="500.192328 50.1653051 494.946581 50.1653051 494.946581 48.8797861 506.844543 48.8797861 506.844543 50.1653051 501.61953 50.1653051 501.61953 63.4490013 500.192328 63.4490013"></polygon>
                    <path d="M509.813677,48.8794405 L511.306538,48.8794405 L515.118171,57.4392 C515.449918,58.1856304 515.823133,59.2223392 515.823133,59.2223392 L515.864601,59.2223392 C515.864601,59.2223392 516.258551,58.1856304 516.590297,57.4392 L520.40193,48.8794405 L521.874057,48.8794405 L523.035171,63.4486557 L521.604513,63.4486557 L520.799335,53.2543519 C520.733677,52.4664532 520.754411,51.2224025 520.754411,51.2224025 L520.712943,51.2224025 C520.712943,51.2224025 520.277525,52.5079215 519.949234,53.2543519 L516.528095,60.7324785 L515.183829,60.7324785 L511.759234,53.2543519 C511.430943,52.5286557 510.974791,51.1809342 510.974791,51.1809342 L510.933323,51.1809342 C510.933323,51.1809342 510.954057,52.4664532 510.891854,53.2543519 L510.083222,63.4486557 L508.652563,63.4486557 L509.813677,48.8794405 Z" id="Fill-62" fill="#59595B" mask="url(#mask-2)"></path>
                </g>
                <text id="2018" font-family="MuseoSans-500, Museo Sans" font-size="10.7146" font-weight="normal" letter-spacing="0.05" fill="#58585B">
                    <tspan x="260.085027" y="297.711595">2018</tspan>
                </text>
            </g>
        </g>
    </g>
</svg>