<?xml version="1.0" encoding="UTF-8"?>
<svg width="546px" height="543px" viewBox="0 0 546 543" version="1.1" xmlns="http://www.w3.org/2000/svg" xmlns:xlink="http://www.w3.org/1999/xlink">
    <!-- Generator: Sketch 48.2 (47327) - http://www.bohemiancoding.com/sketch -->
    <title>2016 WELL / Silver</title>
    <desc>Created with Sketch.</desc>
    <defs>
        <polygon id="path-1" points="0 542.340418 543.992241 542.340418 543.992241 0 0 0"></polygon>
    </defs>
    <g id="Symbols" stroke="none" stroke-width="1" fill="none" fill-rule="evenodd">
        <g id="2016-WELL-/-Silver">
            <g id="Page-1">
                <path d="M121.297701,306.744528 C121.297701,306.744528 124.169385,309.654224 128.195271,309.654224 C130.721385,309.654224 132.867372,308.237389 132.867372,305.673262 C132.867372,299.808946 119.766828,301.07373 119.766828,292.759325 C119.766828,288.546832 123.409132,285.212085 128.502828,285.212085 C133.520499,285.212085 136.164106,287.935173 136.164106,287.935173 L134.439714,291.072946 C134.439714,291.072946 131.948157,288.740351 128.502828,288.740351 C125.631144,288.740351 123.599195,290.537313 123.599195,292.6833 C123.599195,298.274616 136.699739,296.781756 136.699739,305.555768 C136.699739,309.730249 133.482486,313.179034 128.119246,313.179034 C122.372423,313.179034 119.15517,309.616211 119.15517,309.616211 L121.297701,306.744528 Z" id="Fill-1" fill="#58585B"></path>
                <mask id="mask-2" fill="white">
                    <use xlink:href="#path-1"></use>
                </mask>
                <g id="Clip-4"></g>
                <polygon id="Fill-3" fill="#58585B" mask="url(#mask-2)" points="142.150063 312.719772 145.944418 312.719772 145.944418 285.675494 142.150063 285.675494"></polygon>
                <polygon id="Fill-5" fill="#58585B" mask="url(#mask-2)" points="153.306433 285.675148 157.100787 285.675148 157.100787 309.426148 169.206091 309.426148 169.206091 312.719427 153.306433 312.719427"></polygon>
                <path d="M168.138627,285.675148 L172.237082,285.675148 L178.941133,304.788604 C179.438753,306.243452 179.977842,308.503477 179.977842,308.503477 L180.050411,308.503477 C180.050411,308.503477 180.5895,306.243452 181.083665,304.788604 L187.870652,285.675148 L191.889627,285.675148 L181.933766,312.719427 L178.135956,312.719427 L168.138627,285.675148 Z" id="Fill-6" fill="#58585B" mask="url(#mask-2)"></path>
                <polygon id="Fill-7" fill="#58585B" mask="url(#mask-2)" points="195.810114 285.675148 211.516253 285.675148 211.516253 288.968427 199.604468 288.968427 199.604468 297.434882 209.294241 297.434882 209.294241 300.728161 199.604468 300.728161 199.604468 309.426148 212.16938 309.426148 212.16938 312.719427 195.810114 312.719427"></polygon>
                <path d="M227.004684,298.659235 C229.955848,298.659235 231.794278,296.782792 231.794278,293.755603 C231.794278,291.761666 231.027114,290.34483 229.648291,289.581122 C228.922595,289.197539 228.037937,288.969463 225.933418,288.969463 L221.568873,288.969463 L221.568873,298.659235 L227.004684,298.659235 Z M217.774519,285.676185 L226.050911,285.676185 C228.881127,285.676185 230.069886,285.904261 231.103139,286.287843 C233.864241,287.321096 235.664658,290.040729 235.664658,293.600096 C235.664658,297.048881 233.746747,299.965489 230.799038,300.919261 L230.799038,300.998742 C230.799038,300.998742 231.103139,301.340856 231.604215,302.225514 L237.351038,312.720463 L233.059063,312.720463 L227.350253,301.952514 L221.568873,301.952514 L221.568873,312.720463 L217.774519,312.720463 L217.774519,285.676185 Z" id="Fill-8" fill="#58585B" mask="url(#mask-2)"></path>
                <path d="M250.619529,310.651538 C250.619529,300.999778 263.87558,299.6175 263.87558,293.259019 C263.87558,290.577399 261.84363,288.776981 259.009959,288.776981 C255.447137,288.776981 253.536137,292.225766 253.536137,292.225766 L250.737023,290.345867 C250.737023,290.345867 253.187111,285.210703 259.279504,285.210703 C264.259162,285.210703 267.825441,288.317373 267.825441,292.989475 C267.825441,301.877525 254.911504,303.259804 254.835478,309.424766 L268.24358,309.424766 L268.24358,312.718044 L250.813048,312.718044 C250.69901,311.988892 250.619529,311.301209 250.619529,310.651538" id="Fill-9" fill="#58585B" mask="url(#mask-2)"></path>
                <path d="M288.097937,299.159966 C288.097937,293.295649 286.833152,288.696118 282.396038,288.696118 C277.98657,288.696118 276.721785,293.295649 276.721785,299.159966 C276.721785,305.055384 277.98657,309.692928 282.396038,309.692928 C286.833152,309.692928 288.097937,305.055384 288.097937,299.159966 M272.854861,299.159966 C272.854861,291.384649 275.187456,285.212776 282.396038,285.212776 C289.632266,285.212776 291.968316,291.384649 291.968316,299.159966 C291.968316,306.973295 289.632266,313.179725 282.396038,313.179725 C275.187456,313.179725 272.854861,306.973295 272.854861,299.159966" id="Fill-10" fill="#58585B" mask="url(#mask-2)"></path>
                <path d="M296.543658,309.425457 L302.518557,309.425457 L302.518557,291.953457 C302.518557,291.113723 302.55657,290.270533 302.55657,290.270533 L302.480544,290.270533 C302.480544,290.270533 302.172987,290.882191 301.174291,291.842875 L298.648177,294.330976 L296.350139,291.953457 L302.822658,285.674457 L306.195418,285.674457 L306.195418,309.425457 L312.097747,309.425457 L312.097747,312.718735 L296.543658,312.718735 L296.543658,309.425457 Z" id="Fill-11" fill="#58585B" mask="url(#mask-2)"></path>
                <path d="M330.456824,304.138242 C330.456824,300.844963 328.345394,298.429432 324.90352,298.429432 C321.838318,298.429432 319.384773,300.267862 319.384773,302.223786 C319.384773,305.748596 322.024925,309.691546 325.47371,309.691546 C328.580381,309.691546 330.456824,307.27947 330.456824,304.138242 M315.400356,300.423368 C315.400356,293.487786 319.19471,285.211394 327.585141,285.211394 C330.760925,285.211394 332.827432,286.324128 332.827432,286.324128 L331.604115,289.582849 C331.604115,289.582849 329.879723,288.698191 327.733735,288.698191 C322.754077,288.698191 320.189951,293.297723 319.616305,297.779761 L319.688875,297.779761 C320.843077,296.245432 323.293166,295.212178 325.667229,295.212178 C330.798938,295.212178 334.20971,299.117115 334.20971,304.138242 C334.20971,309.46347 330.567406,313.178343 325.515178,313.178343 C319.726887,313.178343 315.400356,308.126115 315.400356,300.423368" id="Fill-12" fill="#58585B" mask="url(#mask-2)"></path>
                <polygon id="Fill-13" fill="#58585B" mask="url(#mask-2)" points="1.95074051 214.206513 2.4138038 212.126184 23.6006772 216.857032 23.1376139 218.937361"></polygon>
                <path d="M5.42233291,198.850435 L6.00980127,196.866866 L24.1418392,190.691537 C25.3893456,190.28722 27.466219,189.810334 27.466219,189.810334 L27.4834975,189.748132 C27.4834975,189.748132 25.714181,189.416385 24.6187253,189.091549 L9.64173797,184.644068 L10.2499405,182.601752 L31.0566873,188.780537 L30.4657633,190.764106 L12.3337253,196.942891 C11.086219,197.343752 9.01280127,197.824094 9.01280127,197.824094 L8.99552278,197.882841 C8.99552278,197.882841 10.7648392,198.214587 11.8602949,198.539423 L26.8372823,202.986904 L26.2290797,205.02922 L5.42233291,198.850435 Z" id="Fill-14" fill="#58585B" mask="url(#mask-2)"></path>
                <polygon id="Fill-15" fill="#58585B" mask="url(#mask-2)" points="18.7654671 165.485343 15.7693785 172.697381 14.0035177 171.964773 20.7974165 155.598596 22.5667329 156.334659 19.5810114 163.519052 37.8581886 171.107761 37.0426443 173.074052"></polygon>
                <polygon id="Fill-16" fill="#58585B" mask="url(#mask-2)" points="25.6626911 145.630295 31.3922354 134.831244 33.0820709 135.72627 28.3512228 144.645422 35.3317291 148.349928 39.1951975 141.068776 40.8884886 141.963801 37.0250203 149.244953 44.1437544 153.022029 49.1337797 143.615624 50.8236152 144.510649 44.8348937 155.800409"></polygon>
                <path d="M51.0323392,123.292329 C52.4802759,121.104873 51.9861114,118.775734 49.7191747,117.275962 C48.2263139,116.287633 46.7265418,116.145949 45.461757,116.830177 C44.8224532,117.182658 44.2418962,117.721747 43.3192253,119.114392 L40.900238,122.770519 L48.1883013,127.591215 L51.0323392,123.292329 Z M38.1287696,123.489304 L41.6708582,118.132975 C42.8976304,116.280722 43.6267823,115.575759 44.4112253,115.060861 C46.2842127,113.854823 48.6893772,113.965405 50.8768329,115.413342 C53.3234658,117.034063 54.2841494,119.667304 53.503162,122.075924 L53.5549975,122.110481 C53.5549975,122.110481 53.9040228,122.082835 54.5813392,122.124304 L64.4749975,123.005506 L63.1307316,125.040911 L52.7982,124.090595 L49.7848329,128.648658 L57.404643,133.690519 L56.2297063,135.470203 L38.1287696,123.489304 Z" id="Fill-17" fill="#58585B" mask="url(#mask-2)"></path>
                <path d="M53.760957,101.068747 L55.0810329,99.4756709 L74.1841215,100.913241 C75.486919,101.030734 77.5845266,101.403949 77.5845266,101.403949 L77.6225392,101.359025 C77.6225392,101.359025 76.1262228,100.356873 75.2450203,99.6277215 L63.2191975,89.658038 L64.5772861,88.020038 L81.2890329,101.870468 L79.968957,103.463544 L60.8658684,102.025975 C59.5630709,101.908481 57.4654633,101.53181 57.4654633,101.53181 L57.4274506,101.58019 C57.4274506,101.58019 58.9237671,102.582342 59.8049696,103.311494 L71.8307924,113.281177 L70.4727038,114.919177 L53.760957,101.068747 Z" id="Fill-18" fill="#58585B" mask="url(#mask-2)"></path>
                <path d="M80.4147418,74.8451962 C80.4147418,74.8451962 81.333957,76.4520949 81.7797418,77.4404241 L85.1939696,85.1017025 L90.5433873,79.8905127 L83.016881,76.2343861 C82.038919,75.7609557 80.4596658,74.8037278 80.4596658,74.8037278 L80.4147418,74.8451962 Z M92.298881,80.7648038 L86.0440709,86.8606519 L89.0989063,93.537057 L87.4850962,95.1093987 L78.0475899,74.005462 L79.6821342,72.4123861 L100.530349,82.3993481 L98.9165392,83.9716899 L92.298881,80.7648038 Z" id="Fill-19" fill="#58585B" mask="url(#mask-2)"></path>
                <polygon id="Fill-20" fill="#58585B" mask="url(#mask-2)" points="97.8276494 58.8377203 91.7629025 63.7586316 90.5568646 62.2726823 104.317447 51.1073278 105.523485 52.5932772 99.4829278 57.4969101 111.95108 72.8643911 110.295801 74.2052013"></polygon>
                <polygon id="Fill-21" fill="#58585B" mask="url(#mask-2)" points="113.117723 44.8673772 114.869761 43.6544278 127.234242 61.4892759 125.485659 62.7022253"></polygon>
                <path d="M144.723175,48.6475633 C148.963314,46.2354873 150.387061,40.7409304 147.764187,36.1241203 C145.200061,31.6144367 139.826453,30.1561329 135.582858,32.5682089 C131.315073,34.9941076 129.842947,40.3400696 132.407073,44.8497532 C135.029947,49.4665633 140.45539,51.073462 144.723175,48.6475633 M134.604896,30.8472722 C139.947403,27.8131709 146.613441,29.5997658 149.695922,35.0252089 C152.837149,40.5543228 151.043643,47.3274873 145.697681,50.3650443 C140.35863,53.4026013 133.616567,51.4777785 130.471884,45.9486646 C127.392858,40.5266772 129.265846,33.8848291 134.604896,30.8472722" id="Fill-22" fill="#58585B" mask="url(#mask-2)"></path>
                <path d="M156.084122,20.1245924 L157.991666,19.3228709 L174.271451,29.4169595 C175.373818,30.1253772 177.060197,31.424719 177.060197,31.424719 L177.115489,31.4005291 C177.115489,31.4005291 176.251565,29.8247316 175.80578,28.7707443 L169.744489,14.3708582 L171.707324,13.5449468 L180.132311,33.5499722 L178.224767,34.3516937 L161.944982,24.2576051 C160.842615,23.5491873 159.156235,22.2463899 159.156235,22.2463899 L159.100944,22.2705797 C159.100944,22.2705797 159.964868,23.8498329 160.407197,24.9038203 L166.471944,39.3002506 L164.509109,40.1296177 L156.084122,20.1245924 Z" id="Fill-23" fill="#58585B" mask="url(#mask-2)"></path>
                <path d="M191.840556,9.1728 C191.840556,9.1728 191.913125,11.0215975 191.850923,12.1032304 L191.33948,20.479838 L198.492771,18.3269392 L193.506201,11.6056101 C192.859986,10.7347747 191.899303,9.15552152 191.899303,9.15552152 L191.840556,9.1728 Z M199.650429,19.9131038 L191.280733,22.4288506 L190.907518,29.7652937 L188.751163,30.4115089 L190.12653,7.33436962 L192.313986,6.67778734 L206.192062,25.165762 L204.035708,25.8154329 L199.650429,19.9131038 Z" id="Fill-24" fill="#58585B" mask="url(#mask-2)"></path>
                <polygon id="Fill-25" fill="#58585B" mask="url(#mask-2)" points="210.917035 1.83117342 213.004276 1.40957848 216.926491 20.8064013 226.792504 18.8090089 227.17263 20.6854519 215.219377 23.1044392"></polygon>
                <path d="M235.736882,492.451568 C235.736882,492.451568 235.118313,494.231252 234.541211,495.547872 L228.113616,510.016872 L225.580591,509.626378 L223.348211,487.316404 L225.542578,487.655062 L227.11492,504.957733 C227.222047,506.098113 227.249692,507.321429 227.249692,507.321429 L227.311895,507.331796 C227.342996,507.335252 227.678199,506.170682 228.155085,505.116695 L235.246173,489.15829 L237.260844,489.469303 L239.19949,506.827265 C239.334262,507.974556 239.303161,509.187505 239.334262,509.190961 L239.393009,509.201328 C239.393009,509.201328 239.790414,508.04367 240.236199,506.989682 L247.11649,490.993265 L249.314313,491.335378 L240.288034,511.900227 L237.755009,511.509733 L236.002971,495.772492 C235.85092,494.341834 235.799085,492.461935 235.799085,492.461935 L235.736882,492.451568 Z" id="Fill-26" fill="#58585B" mask="url(#mask-2)"></path>
                <polygon id="Fill-27" fill="#58585B" mask="url(#mask-2)" points="258.739724 491.711358 270.962522 492.032738 270.910686 493.947194 260.820053 493.681105 260.609256 501.580827 268.851091 501.798535 268.799256 503.712991 260.560876 503.495282 260.346623 511.55051 270.993623 511.830422 270.945243 513.744877 258.166078 513.409675"></polygon>
                <polygon id="Fill-28" fill="#58585B" mask="url(#mask-2)" points="281.686584 491.688896 283.811837 491.529934 285.270141 511.268871 295.308938 510.529352 295.450622 512.436896 283.286571 513.335377"></polygon>
                <polygon id="Fill-29" fill="#58585B" mask="url(#mask-2)" points="302.93013 489.556386 305.031194 489.196994 308.379763 508.697487 318.297611 506.993829 318.622447 508.880639 306.603535 510.947146"></polygon>
                <path d="M351.027892,497.801332 C353.505627,496.937408 354.511234,494.853623 353.657677,492.403534 C352.80412,489.956901 350.582108,488.934015 348.190766,489.766838 L342.972665,491.58799 L345.782146,499.632851 L351.027892,497.801332 Z M347.347576,488.097737 C349.417538,487.375496 350.309108,485.429939 349.566133,483.304686 C348.833525,481.203623 347.033108,480.263673 344.849108,481.027382 L339.893639,482.75523 L342.364462,489.839408 L347.347576,488.097737 Z M337.250032,481.649408 L344.247816,479.209686 C347.482348,478.079673 350.464614,479.23042 351.584259,482.437306 C352.327234,484.562559 351.846892,486.463192 350.547551,487.800547 L350.568285,487.859294 C352.869778,487.710699 354.912095,489.251939 355.776019,491.729673 C357.047715,495.375433 355.067601,498.419901 351.629184,499.619028 L344.399867,502.141686 L337.250032,481.649408 Z" id="Fill-30" fill="#58585B" mask="url(#mask-2)"></path>
                <path d="M359.951191,473.143211 L361.896748,472.199806 L368.058254,484.892578 C369.689343,488.251515 372.840938,489.229477 376.199875,487.598389 C379.562267,485.963844 380.771761,482.874452 379.113027,479.456768 L372.979166,466.819287 L374.893622,465.889705 L381.068951,478.610123 C383.17347,482.943566 381.507824,487.218262 377.091444,489.360794 C372.647419,491.520604 368.231039,490.197072 366.12652,485.863629 L359.951191,473.143211 Z" id="Fill-31" fill="#58585B" mask="url(#mask-2)"></path>
                <polygon id="Fill-32" fill="#58585B" mask="url(#mask-2)" points="384.766546 460.139427 386.587697 459.037059 397.829077 477.604515 396.007925 478.706882"></polygon>
                <polygon id="Fill-33" fill="#58585B" mask="url(#mask-2)" points="396.523861 452.652661 398.251709 451.40861 409.807557 467.474142 417.976823 461.596003 419.096468 463.151066 409.195899 470.2698"></polygon>
                <path d="M431.802027,450.032552 C435.769166,446.455906 436.294432,441.738881 432.410229,437.429628 C428.543305,433.141109 423.774444,433.199856 419.831495,436.755767 L416.368887,439.879716 L428.339419,453.156501 L431.802027,450.032552 Z M413.504115,439.883172 L418.708394,435.190337 C423.546368,430.829248 429.469432,430.849982 434.058596,435.940223 C438.692685,441.075387 438.081027,446.946615 433.243052,451.307704 L428.038773,456.003995 L413.504115,439.883172 Z" id="Fill-34" fill="#58585B" mask="url(#mask-2)"></path>
                <polygon id="Fill-35" fill="#58585B" mask="url(#mask-2)" points="433.845034 420.337754 435.286059 418.768868 451.275566 433.441754 449.837996 435.014096"></polygon>
                <path d="M443.020253,410.032177 L444.267759,408.380354 L463.415772,408.947089 C464.722025,409.005835 466.833456,409.285747 466.833456,409.285747 L466.871468,409.237367 C466.871468,409.237367 465.330228,408.304329 464.417924,407.616646 L451.949772,398.203329 L453.231835,396.503127 L470.558696,409.579481 L469.31119,411.231304 L450.163177,410.66457 C448.853468,410.605823 446.742038,410.325911 446.742038,410.325911 L446.707481,410.377747 C446.707481,410.377747 448.245266,411.307329 449.15757,411.995013 L461.629177,421.408329 L460.343658,423.108532 L443.020253,410.032177 Z" id="Fill-36" fill="#58585B" mask="url(#mask-2)"></path>
                <path d="M463.882637,378.564608 C466.374194,374.193152 469.905915,373.111519 469.905915,373.111519 L470.735282,374.90157 C470.735282,374.90157 467.600966,376.028127 465.645042,379.463089 C463.046358,384.024608 464.801852,389.111392 469.280434,391.665152 C473.921434,394.312215 479.174092,393.075076 481.620725,388.786557 C483.714877,385.109696 482.235839,381.280785 482.235839,381.280785 L479.046232,379.463089 L477.211257,382.680342 L475.549067,381.733481 L478.393105,376.743456 L487.405561,381.882076 L486.424143,383.599557 L485.003852,382.787468 C484.602991,382.559392 484.215953,382.303671 484.215953,382.303671 L484.184852,382.355506 C484.184852,382.355506 485.494561,385.980532 483.23108,389.951127 C480.293738,395.100114 473.810852,396.807228 468.205713,393.610709 C462.759535,390.507494 460.793244,383.983139 463.882637,378.564608" id="Fill-37" fill="#58585B" mask="url(#mask-2)"></path>
                <polygon id="Fill-38" fill="#58585B" mask="url(#mask-2)" points="478.328138 348.681129 479.078024 346.687192 499.390606 354.334648 498.64072 356.328585"></polygon>
                <path d="M483.002313,335.684601 L483.548313,333.690665 L501.538667,327.111019 C502.779262,326.682513 504.842313,326.157247 504.842313,326.157247 L504.859591,326.0985 C504.859591,326.0985 503.079908,325.804766 501.980996,325.50412 L486.907249,321.388386 L487.470528,319.332247 L508.408591,325.051424 L507.862591,327.045361 L489.872237,333.625006 C488.631642,334.053513 486.568591,334.578778 486.568591,334.578778 L486.551313,334.637525 C486.551313,334.637525 488.330996,334.931259 489.429908,335.231905 L504.503654,339.347639 L503.943832,341.403778 L483.002313,335.684601 Z" id="Fill-39" fill="#58585B" mask="url(#mask-2)"></path>
                <path d="M507.098191,311.07728 C507.098191,311.07728 509.793634,309.214659 510.322356,305.831533 C510.688659,303.481659 509.582837,301.342584 507.264065,300.979735 C501.866267,300.140001 501.569077,311.060001 494.920318,310.023292 C491.841292,309.542951 489.577811,306.41209 490.196381,302.444951 C490.776938,298.723166 493.164824,297.03333 493.164824,297.03333 L494.771723,298.346495 C494.771723,298.346495 492.64647,299.953394 492.211052,302.759419 C491.782546,305.503242 493.306508,307.55247 495.196773,307.849659 C500.29047,308.641014 500.494356,297.707191 507.54052,298.806103 C510.743951,299.303723 512.952141,302.178862 512.323204,306.204748 C511.642432,310.596938 508.521938,312.580508 508.521938,312.580508 L507.098191,311.07728 Z" id="Fill-40" fill="#58585B" mask="url(#mask-2)"></path>
                <polygon id="Fill-41" fill="#58585B" mask="url(#mask-2)" points="494.690859 281.501358 494.283087 289.30432 492.372087 289.204105 493.294758 271.504029 495.205758 271.604244 494.801442 279.372649 514.568024 280.405903 514.457442 282.534611"></polygon>
                <polygon id="Fill-42" fill="#58585B" mask="url(#mask-2)" points="493.052168 262.682328 492.983054 260.553619 514.677915 259.845201 514.747029 261.97391"></polygon>
                <polygon id="Fill-43" fill="#58585B" mask="url(#mask-2)" points="493.641019 243.746149 494.556778 251.504187 492.65269 251.725352 490.579272 234.128947 492.479905 233.904327 493.392209 241.631263 513.044753 239.315947 513.293563 241.430833"></polygon>
                <path d="M489.100925,225.947932 L488.603305,223.843413 L502.332786,220.598514 C505.968178,219.741501 507.609634,216.880185 506.749166,213.244792 C505.888697,209.6094 503.137963,207.753691 499.440368,208.627982 L485.769634,211.859058 L485.282381,209.785641 L499.042963,206.53383 C503.728887,205.424552 507.537065,207.981767 508.663622,212.760995 C509.800546,217.567868 507.547432,221.590299 502.861508,222.696122 L489.100925,225.947932 Z" id="Fill-44" fill="#58585B" mask="url(#mask-2)"></path>
                <polygon id="Fill-45" fill="#58585B" mask="url(#mask-2)" points="482.092428 193.812722 484.742947 201.159532 482.942529 201.809203 476.929618 185.138924 478.730035 184.489253 481.370187 191.808418 499.986023 185.097456 500.708263 187.098304"></polygon>
                <polygon id="Fill-46" fill="#58585B" mask="url(#mask-2)" points="473.41241 177.201535 468.101005 166.188232 469.825397 165.355409 474.210676 174.450801 481.32941 171.015839 477.749309 163.589548 479.473701 162.760181 483.053803 170.183016 490.31422 166.682396 485.687043 157.089384 487.411435 156.256561 492.964739 167.770941"></polygon>
                <path d="M134.956341,183.820922 L151.647353,246.479605 C152.856847,251.19663 153.465049,255.550808 153.465049,255.550808 L153.706948,255.550808 C153.706948,255.550808 154.069796,251.075681 155.27929,246.479605 L171.002708,183.820922 L183.342999,183.820922 L160.96391,269.221542 L147.051277,269.221542 L132.295454,213.81982 C130.844062,208.377099 129.755518,201.724884 129.755518,201.724884 L129.513619,201.724884 C129.513619,201.724884 128.425075,208.377099 126.973682,213.81982 L112.214404,269.221542 L98.3052266,269.221542 L76.5308848,183.820922 L88.8677203,183.820922 L103.989847,246.479605 C105.078391,251.075681 105.562189,255.550808 105.562189,255.550808 L105.804087,255.550808 C105.804087,255.550808 106.408834,251.19663 107.618328,246.479605 L124.312796,183.820922 L134.956341,183.820922 Z" id="Fill-47" fill="#58585B" mask="url(#mask-2)"></path>
                <polygon id="Fill-48" fill="#58585B" mask="url(#mask-2)" points="198.823827 183.820922 248.419978 183.820922 248.419978 194.222567 210.797814 194.222567 210.797814 220.955833 241.401459 220.955833 241.401459 231.360934 210.797814 231.360934 210.797814 258.816441 250.476118 258.816441 250.476118 269.221542 198.823827 269.221542"></polygon>
                <polygon id="Fill-49" fill="#58585B" mask="url(#mask-2)" points="268.135071 183.820922 280.109058 183.820922 280.109058 258.816441 318.33597 258.816441 318.33597 269.221542 268.135071 269.221542"></polygon>
                <polygon id="Fill-50" fill="#58585B" mask="url(#mask-2)" points="332.124197 183.820922 344.098185 183.820922 344.098185 258.816441 382.325096 258.816441 382.325096 269.221542 332.124197 269.221542"></polygon>
                <path d="M210.170259,505.655784 L215.391816,485.592011 C116.95631,459.978391 48.2086899,370.959657 48.2086899,269.106467 C48.2086899,259.554923 48.8168924,249.93772 50.016019,240.531315 L29.4477152,237.911897 C28.1380063,248.185682 27.4745127,258.684087 27.4745127,269.106467 C27.4745127,380.393708 102.601348,477.6681 210.170259,505.655784" id="Fill-51" fill="#AFC4CB" mask="url(#mask-2)"></path>
                <path d="M210.170259,505.655784 L215.391816,485.592011 C116.95631,459.978391 48.2086899,370.959657 48.2086899,269.106467 C48.2086899,259.554923 48.8168924,249.93772 50.016019,240.531315 L29.4477152,237.911897 C28.1380063,248.185682 27.4745127,258.684087 27.4745127,269.106467 C27.4745127,380.393708 102.601348,477.6681 210.170259,505.655784" id="Fill-52" fill="#AFC4CB" mask="url(#mask-2)"></path>
                <path d="M271.885192,45.4278911 C352.316522,45.4278911 426.938825,88.9454734 466.637863,158.999347 L484.673142,148.780853 C441.304154,72.240638 359.770458,24.6937139 271.885192,24.6937139 C260.073623,24.6937139 248.213673,25.5438152 236.633635,27.2232835 L239.602078,47.7397519 C250.204154,46.2088785 261.065408,45.4278911 271.885192,45.4278911" id="Fill-53" fill="#AFC4CB" mask="url(#mask-2)"></path>
                <path d="M271.885192,45.4278911 C352.316522,45.4278911 426.938825,88.9454734 466.637863,158.999347 L484.673142,148.780853 C441.304154,72.240638 359.770458,24.6937139 271.885192,24.6937139 C260.073623,24.6937139 248.213673,25.5438152 236.633635,27.2232835 L239.602078,47.7397519 C250.204154,46.2088785 261.065408,45.4278911 271.885192,45.4278911" id="Fill-54" fill="#AFC4CB" mask="url(#mask-2)"></path>
                <path d="M488.63959,269.106813 C488.63959,216.759927 469.726565,166.216914 435.3804,126.794332 L419.74683,140.41323 C450.803172,176.062192 467.905413,221.76723 467.905413,269.106813 C467.905413,377.190623 379.971767,465.124268 271.884501,465.124268 C242.279552,465.124268 213.832261,458.693218 187.337438,446.007357 L178.387185,464.709585 C207.6984,478.739711 239.155603,485.858446 271.884501,485.858446 C391.40321,485.858446 488.63959,388.625522 488.63959,269.106813" id="Fill-55" fill="#AFC4CB" mask="url(#mask-2)"></path>
                <path d="M488.63959,269.106813 C488.63959,216.759927 469.726565,166.216914 435.3804,126.794332 L419.74683,140.41323 C450.803172,176.062192 467.905413,221.76723 467.905413,269.106813 C467.905413,377.190623 379.971767,465.124268 271.884501,465.124268 C242.279552,465.124268 213.832261,458.693218 187.337438,446.007357 L178.387185,464.709585 C207.6984,478.739711 239.155603,485.858446 271.884501,485.858446 C391.40321,485.858446 488.63959,388.625522 488.63959,269.106813" id="Fill-56" fill="#AFC4CB" mask="url(#mask-2)"></path>
                <path d="M271.885192,437.467295 C227.209952,437.467295 185.129939,420.154257 153.396281,388.710877 L138.802876,403.439054 C174.444927,438.752814 221.708484,458.201472 271.885192,458.201472 C376.153914,458.201472 460.980889,373.371042 460.980889,269.105776 C460.980889,209.159814 433.483914,154.069105 385.543041,117.967447 L373.067977,134.527143 C415.763104,166.678941 440.250167,215.732548 440.250167,269.105776 C440.250167,361.943054 364.722471,437.467295 271.885192,437.467295" id="Fill-57" fill="#AFC4CB" mask="url(#mask-2)"></path>
                <path d="M271.885192,437.467295 C227.209952,437.467295 185.129939,420.154257 153.396281,388.710877 L138.802876,403.439054 C174.444927,438.752814 221.708484,458.201472 271.885192,458.201472 C376.153914,458.201472 460.980889,373.371042 460.980889,269.105776 C460.980889,209.159814 433.483914,154.069105 385.543041,117.967447 L373.067977,134.527143 C415.763104,166.678941 440.250167,215.732548 440.250167,269.105776 C440.250167,361.943054 364.722471,437.467295 271.885192,437.467295" id="Fill-58" fill="#AFC4CB" mask="url(#mask-2)"></path>
                <path d="M271.885192,430.542771 C299.807218,430.542771 327.324927,423.299632 351.46642,409.597796 L341.234104,391.562518 C320.206192,403.498492 296.227116,409.808594 271.885192,409.808594 C222.389256,409.808594 175.958522,383.317227 150.711205,340.67048 L132.869446,351.231087 C161.831635,400.153378 215.097737,430.542771 271.885192,430.542771" id="Fill-59" fill="#AFC4CB" mask="url(#mask-2)"></path>
                <path d="M271.885192,430.542771 C299.807218,430.542771 327.324927,423.299632 351.46642,409.597796 L341.234104,391.562518 C320.206192,403.498492 296.227116,409.808594 271.885192,409.808594 C222.389256,409.808594 175.958522,383.317227 150.711205,340.67048 L132.869446,351.231087 C161.831635,400.153378 215.097737,430.542771 271.885192,430.542771" id="Fill-60" fill="#AFC4CB" mask="url(#mask-2)"></path>
                <path d="M421.360295,330.202139 C429.298029,310.794949 433.323915,290.240468 433.323915,269.10543 C433.323915,238.881911 424.919662,209.404823 409.013092,183.870684 L391.413232,194.832152 C405.270573,217.076468 412.593194,242.759203 412.593194,269.10543 C412.593194,287.534658 409.085662,305.448987 402.170814,322.354253 L421.360295,330.202139 Z" id="Fill-61" fill="#AFC4CB" mask="url(#mask-2)"></path>
                <path d="M421.360295,330.202139 C429.298029,310.794949 433.323915,290.240468 433.323915,269.10543 C433.323915,238.881911 424.919662,209.404823 409.013092,183.870684 L391.413232,194.832152 C405.270573,217.076468 412.593194,242.759203 412.593194,269.10543 C412.593194,287.534658 409.085662,305.448987 402.170814,322.354253 L421.360295,330.202139 Z" id="Fill-62" fill="#AFC4CB" mask="url(#mask-2)"></path>
                <path d="M303.3303,-0.00103670886 L300.963148,20.5983684 C427.693895,35.1675835 523.261173,142.504963 523.261173,270.272419 C523.261173,408.859659 410.512173,521.608659 271.924933,521.608659 C206.225237,521.608659 144.077996,496.42009 96.9319329,450.680495 C49.8929962,405.041115 22.8245278,343.896027 20.7234646,278.507343 L-0.00034556962,279.174292 C2.27695823,349.964229 31.5743506,416.15809 82.4974899,465.560723 C133.531211,515.073938 200.803249,542.339381 271.924933,542.339381 C421.943616,542.339381 543.991895,420.291103 543.991895,270.272419 C543.991895,131.96509 440.531806,15.7742165 303.3303,-0.00103670886" id="Fill-63" fill="#AFC4CB" mask="url(#mask-2)"></path>
                <path d="M303.3303,-0.00103670886 L300.963148,20.5983684 C427.693895,35.1675835 523.261173,142.504963 523.261173,270.272419 C523.261173,408.859659 410.512173,521.608659 271.924933,521.608659 C206.225237,521.608659 144.077996,496.42009 96.9319329,450.680495 C49.8929962,405.041115 22.8245278,343.896027 20.7234646,278.507343 L-0.00034556962,279.174292 C2.27695823,349.964229 31.5743506,416.15809 82.4974899,465.560723 C133.531211,515.073938 200.803249,542.339381 271.924933,542.339381 C421.943616,542.339381 543.991895,420.291103 543.991895,270.272419 C543.991895,131.96509 440.531806,15.7742165 303.3303,-0.00103670886" id="Fill-64" fill="#AFC4CB" mask="url(#mask-2)"></path>
                <polygon id="Fill-65" fill="#59595B" mask="url(#mask-2)" points="500.192328 49.961419 494.946581 49.961419 494.946581 48.6759 506.844543 48.6759 506.844543 49.961419 501.61953 49.961419 501.61953 63.2451152 500.192328 63.2451152"></polygon>
                <path d="M509.813677,48.6755544 L511.306538,48.6755544 L515.118171,57.2353139 C515.449918,57.9817443 515.823133,59.0184532 515.823133,59.0184532 L515.864601,59.0184532 C515.864601,59.0184532 516.258551,57.9817443 516.590297,57.2353139 L520.40193,48.6755544 L521.874057,48.6755544 L523.035171,63.2447696 L521.604513,63.2447696 L520.799335,53.0504658 C520.733677,52.2625671 520.754411,51.0185165 520.754411,51.0185165 L520.712943,51.0185165 C520.712943,51.0185165 520.277525,52.3040354 519.949234,53.0504658 L516.528095,60.5285924 L515.183829,60.5285924 L511.759234,53.0504658 C511.430943,52.3247696 510.974791,50.9770481 510.974791,50.9770481 L510.933323,50.9770481 C510.933323,50.9770481 510.954057,52.2625671 510.891854,53.0504658 L510.083222,63.2447696 L508.652563,63.2447696 L509.813677,48.6755544 Z" id="Fill-66" fill="#59595B" mask="url(#mask-2)"></path>
            </g>
        </g>
    </g>
</svg>