<?xml version="1.0" encoding="UTF-8"?><svg width="13" height="12" viewBox="0 0 13 12" xmlns="http://www.w3.org/2000/svg"><path d="M9.06 3.732l-.516 3.432c0 .132.024.396.096.516 1.476-.348 2.1-1.812 2.1-3.012 0-2.16-1.98-3.228-3.924-3.228-2.724 0-4.596 2.136-4.596 4.848 0 2.568 1.656 4.392 4.296 4.392.984 0 2.172-.276 3.048-.756.204.168.504.588.6.828-1.128.696-2.604 1.044-3.912 1.044-3.3 0-5.472-2.232-5.472-5.4C.78 2.928 3.348.312 6.924.312c2.808 0 5.208 1.572 5.208 4.284C12.132 6.624 10.74 8.82 7.38 9a2.6 2.6 0 0 1-.288-.756h-.108C6.696 8.64 6.276 9 5.568 9c-.996 0-1.8-.708-1.8-2.256 0-.888.264-1.86.816-2.556.528-.66 1.368-1.104 2.412-1.104.828 0 1.584.288 2.064.648zm-2.1 3.432l.42-2.904a1.509 1.509 0 0 0-.396-.06c-.516 0-.852.276-1.092.636-.336.504-.444 1.164-.444 1.728 0 .852.24 1.128.624 1.128.324 0 .672-.204.888-.528z" fill-rule="evenodd"/></svg>