<?xml version="1.0" encoding="UTF-8"?><svg width="12" height="13" viewBox="0 0 12 13" xmlns="http://www.w3.org/2000/svg"><path d="M.167 13V.458A.28.28 0 0 1 .254.254.28.28 0 0 1 .458.167h.584a.28.28 0 0 1 .204.087.28.28 0 0 1 .087.204V13H.167zm8.82-4.737a3.26 3.26 0 0 1-.473-.035 3.866 3.866 0 0 1-.519-.116 10.635 10.635 0 0 1-.467-.146l-.525-.181a37.906 37.906 0 0 0-.735-.263 5.977 5.977 0 0 0-.67-.175 3.716 3.716 0 0 0-.765-.087c-.669 0-1.29.222-1.866.665a.295.295 0 0 1-.175.058.245.245 0 0 1-.129-.035.27.27 0 0 1-.163-.256v-5.11c.171-.428.49-.811.957-1.15.466-.338.93-.519 1.388-.542.179-.016.346-.018.502-.006.155.012.322.04.501.082.18.043.306.076.38.099.073.023.221.074.443.152.222.077.348.12.379.128a13.523 13.523 0 0 0 1.056.333 3.925 3.925 0 0 0 1.09.157c.802 0 1.513-.338 2.136-1.015a.266.266 0 0 1 .315-.07.264.264 0 0 1 .186.268V5.93a.31.31 0 0 1-.035.14 7.52 7.52 0 0 1-.775 1.155c-.261.311-.516.537-.765.677a2.91 2.91 0 0 1-.659.285c-.19.051-.395.076-.612.076z" fill-rule="evenodd"/></svg>