<?xml version="1.0" encoding="UTF-8"?><svg width="14" height="14" viewBox="0 0 14 14" xmlns="http://www.w3.org/2000/svg"><path d="M9.333 11.667V4.772l-3.5-3.5v-.98a.28.28 0 0 1 .088-.204A.28.28 0 0 1 6.125 0H10.5v4.667H14v6.708a.28.28 0 0 1-.088.204.28.28 0 0 1-.204.088H9.333zM11.667 3.5V1.167L14 3.5h-2.333zM.292 14a.28.28 0 0 1-.204-.088.28.28 0 0 1-.088-.204V2.625a.28.28 0 0 1 .087-.204.28.28 0 0 1 .205-.088h4.375V7h3.5v6.708a.28.28 0 0 1-.088.204.28.28 0 0 1-.204.088H.292zm5.541-8.167V3.5l2.334 2.333H5.833z" fill-rule="evenodd"/></svg>