<?xml version="1.0" encoding="UTF-8"?><svg width="12" height="11" viewBox="0 0 12 11" xmlns="http://www.w3.org/2000/svg"><path d="M.25 11a.25.25 0 0 1-.25-.25V.25A.25.25 0 0 1 .25 0h11.5a.25.25 0 0 1 .25.25v10.5a.25.25 0 0 1-.25.25H.25zM1 2h1V1H1v1zm2.25 3h5.5A.25.25 0 0 0 9 4.75v-3.5A.25.25 0 0 0 8.75 1h-5.5a.25.25 0 0 0-.25.25v3.5c0 .138.112.25.25.25zM10 2h1V1h-1v1zM1 4h1V3H1v1zm9 0h1V3h-1v1zM1 6h1V5H1v1zm9 0h1V5h-1v1zm-6.75 4h5.5A.25.25 0 0 0 9 9.75v-3.5A.25.25 0 0 0 8.75 6h-5.5a.25.25 0 0 0-.25.25v3.5c0 .138.112.25.25.25zM1 8h1V7H1v1zm9 0h1V7h-1v1zm-9 2h1V9H1v1zm9 0h1V9h-1v1z" fill-rule="evenodd"/></svg>