<?xml version="1.0" encoding="UTF-8"?><svg width="18" height="12" viewBox="0 0 18 12" xmlns="http://www.w3.org/2000/svg"><path d="M3.25 11.98a.25.25 0 0 1-.25-.25v-.926c0-.137.095-.31.21-.385l3.58-2.304A.512.512 0 0 0 7 7.73v-.75c-.55 0-1-.95-1-1.5v-2.5c0-1.65 1.35-3 3-3s3 1.35 3 3v2.5c0 .55-.45 1.5-1 1.5v.75c0 .138.095.311.21.385l3.58 2.304c.115.074.21.248.21.385v.926a.25.25 0 0 1-.25.25H3.25zm-3.083-2A.167.167 0 0 1 0 9.813v-.617c0-.091.063-.207.14-.257l2.386-1.535a.342.342 0 0 0 .14-.257v-.5c-.366 0-.666-.634-.666-1V3.98c0-1.1.9-2 2-2 .316 0 .612.081.88.214-.05.255-.08.517-.08.786v2.5c0 .55.21 1.163.533 1.66l.238.332-3.017 1.942c-.213.139-.389.34-.52.566H.167zm15.8 0a1.684 1.684 0 0 0-.528-.57l-3.01-1.938.238-.332c.323-.497.533-1.11.533-1.66v-2.5c0-.27-.03-.531-.08-.786A1.97 1.97 0 0 1 14 1.98c1.1 0 2 .9 2 2v1.667c0 .366-.3 1-.667 1v.5c0 .091.063.207.14.257l2.387 1.535c.077.05.14.166.14.257v.617a.167.167 0 0 1-.167.167h-1.865z" fill-rule="evenodd"/></svg>