<?xml version="1.0" encoding="UTF-8"?>
<svg width="555px" height="555px" viewBox="0 0 555 555" version="1.1" xmlns="http://www.w3.org/2000/svg" xmlns:xlink="http://www.w3.org/1999/xlink">
    <!-- Generator: Sketch 48.2 (47327) - http://www.bohemiancoding.com/sketch -->
    <title>2017 WELL Community Seal / Gold</title>
    <desc>Created with Sketch.</desc>
    <defs>
        <polygon id="path-1" points="0.00133625239 0.695442104 545.304558 0.695442104 545.304558 545.999332 0.00133625239 545.999332"></polygon>
    </defs>
    <g id="Symbols" stroke="none" stroke-width="1" fill="none" fill-rule="evenodd">
        <g id="2017-WELL-Community-Seal-/-Gold">
            <g id="Page-1" transform="translate(5.000000, 5.000000)">
                <g id="Group-3">
                    <mask id="mask-2" fill="white">
                        <use xlink:href="#path-1"></use>
                    </mask>
                    <g id="Clip-2"></g>
                    <path d="M545.305894,273.347053 C545.305894,122.764771 423.235897,0.694773978 272.653615,0.694773978 C122.071333,0.694773978 0.00133625239,122.764771 0.00133625239,273.347053 C0.00133625239,423.929335 122.071333,545.999332 272.653615,545.999332 C423.235897,545.999332 545.305894,423.929335 545.305894,273.347053" id="Fill-1" fill-opacity="0.5" fill="#D2BD71" mask="url(#mask-2)"></path>
                </g>
                <path d="M273.001668,50.1768896 C149.03443,50.1768896 48.1770143,151.033613 48.1770143,275 C48.1770143,398.966387 149.03443,499.82311 273.001668,499.82311 C396.968905,499.82311 497.826321,398.966387 497.826321,275 C497.826321,151.033613 396.968905,50.1768896 273.001668,50.1768896 M273.001668,518 C139.008722,518 30,408.992026 30,275 C30,141.007974 139.008722,32 273.001668,32 C406.994613,32 516,141.007974 516,275 C516,408.992026 406.994613,518 273.001668,518" id="Fill-4" fill="#D1BC70"></path>
                <polygon id="Fill-6" fill="#59595B" points="490.84984 59.3235294 486 59.3235294 486 58 497 58 497 59.3235294 492.169329 59.3235294 492.169329 73 490.84984 73"></polygon>
                <path d="M500.049495,58 L501.398847,58 L504.844065,66.8128558 C505.143921,67.5813567 505.481259,68.6487192 505.481259,68.6487192 L505.518741,68.6487192 C505.518741,68.6487192 505.87482,67.5813567 506.174676,66.8128558 L509.619894,58 L510.950505,58 L512,73 L510.706872,73 L509.979097,62.5042694 C509.91975,61.693074 509.938491,60.4122391 509.938491,60.4122391 L509.901009,60.4122391 C509.901009,60.4122391 509.507448,61.7357685 509.210716,62.5042694 L506.118453,70.2035104 L504.903412,70.2035104 L501.808025,62.5042694 C501.511293,61.7571157 501.098991,60.3695446 501.098991,60.3695446 L501.061509,60.3695446 C501.061509,60.3695446 501.08025,61.693074 501.024027,62.5042694 L500.293128,73 L499,73 L500.049495,58 Z" id="Fill-8" fill="#59595B"></path>
                <path d="M472,361.502429 L455.049889,354 C417.954127,436.496778 329.236811,483.733803 239.305658,468.865352 C230.869164,467.471331 222.469554,465.535005 214.338195,463.109608 L209,480.749466 C217.879109,483.394447 227.04994,485.507104 236.254303,487.030879 C334.518002,503.276716 431.460566,451.658007 472,361.502429" id="Fill-10" fill="#D1BC70"></path>
                <path d="M397.356624,345 C382.662644,370.254536 360.366835,391.399339 331.84499,404.477878 C296.437527,420.716981 256.789431,422.292267 220.209381,408.913991 L214,425.885785 C255.083849,440.915947 299.615504,439.144166 339.383525,420.906815 C371.439787,406.206364 396.497171,382.430532 413,354.038746 L397.356624,345 Z" id="Fill-12" fill="#D1BC70"></path>
                <path d="M60,228.93912 L78.031451,233 C97.8556977,144.080149 175.05942,79.804136 265.784227,76.6930319 C274.290825,76.4010513 282.87421,76.6527587 291.290668,77.438086 L293,58.9426228 C283.809001,58.0834614 274.437721,57.8116174 265.153243,58.1270907 C166.025333,61.5268193 81.6637819,131.766621 60,228.93912" id="Fill-14" fill="#D1BC70"></path>
                <path d="M372.781864,102.85333 C434.460425,138.884018 472.329613,205.921901 471.612344,277.809361 L489.989061,278 C490.772745,199.453568 449.396904,126.208226 382.00343,86.8396907 C372.944578,81.5486345 363.47396,76.8930401 353.84727,73 L347,90.1775378 C355.8098,93.7428133 364.483451,98.0070969 372.781864,102.85333" id="Fill-16" fill="#D1BC70"></path>
                <path d="M452.645814,214 L435.005871,219.698163 C447.991387,259.957359 445.972236,303.578472 429.323452,342.523739 C426.2964,349.602868 422.813951,356.34346 419,362.802495 L435.092932,372 C439.25178,364.930926 443.052337,357.560185 446.360663,349.820739 C464.774112,306.759387 467.004219,258.522763 452.645814,214" id="Fill-18" fill="#D1BC70"></path>
                <path d="M369.479682,415.503504 C311.697984,454.575485 233.569443,456.623086 172.83245,414.575213 C163.546284,408.144205 155.057314,400.908901 147.308836,393 L134,405.848613 C142.602378,414.652292 152.035308,422.698593 162.358829,429.846765 C229.586799,476.391987 316.084229,474.072936 380,430.741543 L369.479682,415.503504 Z" id="Fill-20" fill="#D1BC70"></path>
                <path d="M96.5190704,342 L113.242255,335.357307 C98.5426891,296.064996 98.1444409,252.60557 112.125218,212.976287 C114.666883,205.773085 117.668314,198.880166 121,192.247482 L104.969702,184 C101.336902,191.256583 98.0602584,198.79342 95.2854724,206.66723 C79.8250256,250.486982 80.2621272,298.547248 96.5190704,342" id="Fill-22" fill="#D1BC70"></path>
                <path d="M166.50374,138.739722 C221.909847,96.2916285 300.042201,89.3080603 363.547129,127.202668 C373.256338,132.996196 382.218943,139.639753 390.481815,147 L403,133.399543 C393.823123,125.209267 383.866161,117.815685 373.072198,111.375469 C302.780868,69.4307254 216.278505,77.2143204 155,124.279236 L166.50374,138.739722 Z" id="Fill-24" fill="#D1BC70"></path>
                <path d="M117,223.318153 L134.190362,229 C148.848214,184.712272 182.58163,150.751234 226.74204,135.829717 C259.280939,124.836144 293.024364,125.953174 323.10416,136.686662 L329,119.591106 C295.259912,107.593873 257.425768,106.360139 220.942962,118.687479 C171.343831,135.449593 133.459638,173.585322 117,223.318153" id="Fill-26" fill="#D1BC70"></path>
                <path d="M207.024291,216 L218.745037,260.024664 C219.595438,263.337444 220.018958,266.397982 220.018958,266.397982 L220.190382,266.397982 C220.190382,266.397982 220.445839,263.253363 221.292879,260.024664 L232.334648,216 L241,216 L225.286066,276 L215.518218,276 L205.155425,237.077354 C204.136961,233.253363 203.370591,228.578475 203.370591,228.578475 L203.202528,228.578475 C203.202528,228.578475 202.436158,233.253363 201.417694,237.077354 L191.054901,276 L181.287052,276 L166,216 L174.661991,216 L185.28024,260.024664 C186.043248,263.253363 186.382737,266.397982 186.382737,266.397982 L186.554161,266.397982 C186.554161,266.397982 186.977681,263.337444 187.828082,260.024664 L199.548828,216 L207.024291,216 Z" id="Fill-28" fill="#6C6E70"></path>
                <polygon id="Fill-30" fill="#6C6E70" points="252 216 285.608434 216 285.608434 223.308296 260.115848 223.308296 260.115848 242.091928 280.853105 242.091928 280.853105 249.400224 260.115848 249.400224 260.115848 268.691704 287 268.691704 287 276 252 276"></polygon>
                <polygon id="Fill-32" fill="#6C6E70" points="300 216 308.350339 216 308.350339 268.691704 335 268.691704 335 276 300 276"></polygon>
                <polygon id="Fill-34" fill="#6C6E70" points="345 216 353.350339 216 353.350339 268.691704 380 268.691704 380 276 345 276"></polygon>
                <path d="M189.37727,304.363147 C189.354264,304.386814 187.09635,306.851544 183.832728,306.851544 C179.642276,306.851544 177.453382,303.33195 177.453382,299.856309 C177.453382,295.90395 180.066252,293.148456 183.806435,293.148456 C186.80384,293.148456 189.009168,295.200707 189.032174,295.224374 L189.337831,295.515138 L191.46428,292.137544 L191.280228,291.931305 C191.17177,291.812971 188.608199,289 183.63553,289 C177.5717,289 173,293.692792 173,299.913785 C173,306.337636 177.496108,311 183.69469,311 C188.894136,311 191.704203,307.679883 191.819235,307.537882 L192,307.3215 L189.666494,304.038574 L189.37727,304.363147 Z" id="Fill-36" fill="#6C6E70"></path>
                <path d="M215.415399,299.856309 C215.415399,303.845858 212.656524,306.851544 208.99831,306.851544 C205.340095,306.851544 202.58122,303.845858 202.58122,299.856309 C202.58122,296.029046 205.340095,293.148456 208.99831,293.148456 C212.599047,293.148456 215.415399,296.093284 215.415399,299.856309 M208.99831,289 C202.831412,289 198,293.767174 198,299.856309 C198,306.104349 202.831412,311 208.99831,311 C215.168588,311 220,306.104349 220,299.856309 C220,293.767174 215.168588,289 208.99831,289" id="Fill-38" fill="#6C6E70"></path>
                <path d="M239.79008,289 L235.72577,298.769878 C235.485515,299.369783 235.218565,300.11887 235.02169,300.69973 C234.814804,300.11887 234.54118,299.366608 234.300925,298.766704 L230.236615,289 L225.718489,289 L224,309 L228.408008,309 L229.29228,297.877956 C229.315638,297.535153 229.328985,297.160609 229.335659,296.798762 C229.489155,297.217743 229.652662,297.636724 229.806158,297.985875 L233.159715,305.679892 L236.86698,305.679892 L240.250569,297.985875 C240.394054,297.652595 240.54755,297.259007 240.694373,296.862244 C240.701047,297.205047 240.714394,297.554198 240.734415,297.88113 L241.618686,309 L246,309 L244.308206,289 L239.79008,289 Z" id="Fill-40" fill="#6C6E70"></path>
                <path d="M267.79008,289 L263.72577,298.769878 C263.485515,299.369783 263.218565,300.11887 263.02169,300.69973 C262.814804,300.11887 262.54118,299.366608 262.300925,298.766704 L258.236615,289 L253.718489,289 L252,309 L256.408008,309 L257.29228,297.877956 C257.312301,297.535153 257.325648,297.160609 257.332322,296.798762 C257.489155,297.217743 257.652662,297.636724 257.806158,297.985875 L261.159715,305.679892 L264.86698,305.679892 L268.250569,297.985875 C268.394054,297.652595 268.54755,297.259007 268.694373,296.862244 C268.701047,297.205047 268.714394,297.554198 268.734415,297.88113 L269.618686,309 L274,309 L272.308206,289 L267.79008,289 Z" id="Fill-42" fill="#6C6E70"></path>
                <path d="M293.622318,301.49102 C293.622318,303.793066 292.076863,305.170545 289.486734,305.170545 C286.916504,305.170545 285.380999,303.802436 285.380999,301.516008 L285.380999,289 L281,289 L281,301.516008 C281,305.992035 284.425868,309 289.516582,309 C294.590714,309 298,305.992035 298,301.516008 L298,289 L293.622318,289 L293.622318,301.49102 Z" id="Fill-44" fill="#6C6E70"></path>
                <path d="M318.700019,300.496588 C318.700019,300.909221 318.726239,301.401206 318.759013,301.870973 C318.473877,301.344072 318.13958,300.766386 317.828224,300.309316 L310.165606,289 L306,289 L306,309 L310.329478,309 L310.329478,297.528805 C310.329478,297.119346 310.303258,296.624187 310.273761,296.15442 C310.562175,296.684495 310.889917,297.259007 311.201272,297.716077 L318.86389,309 L323,309 L323,289 L318.700019,289 L318.700019,300.496588 Z" id="Fill-46" fill="#6C6E70"></path>
                <polygon id="Fill-48" fill="#6C6E70" points="330 309 334 309 334 289 330 289"></polygon>
                <polygon id="Fill-50" fill="#6C6E70" points="339 292.701 346.140196 292.701 346.140196 309 350.859804 309 350.859804 292.701 358 292.701 358 289 339 289"></polygon>
                <path d="M373.835386,289 L370.487505,294.86891 C370.102137,295.548167 369.747736,296.284558 369.506882,296.801936 C369.272908,296.281384 368.92883,295.544993 368.546903,294.865736 L365.164614,289 L360,289 L367.229084,300.664815 L367.229084,309 L371.770916,309 L371.770916,300.664815 L379,289 L373.835386,289 Z" id="Fill-51" fill="#6C6E70"></path>
                <path d="M213.281866,335 C217.171485,335 219.195138,336.978678 219.195138,336.978678 L218.045335,338.701291 C218.045335,338.701291 216.225361,337.09507 213.46912,337.09507 C209.648489,337.09507 207.345598,339.915102 207.345598,343.430164 C207.345598,347.251174 209.924442,349.881651 213.331143,349.881651 C216.136662,349.881651 217.930355,347.829812 217.930355,347.829812 L217.930355,345.458725 L215.282523,345.458725 L215.282523,343.453443 L220,343.453443 L220,351.720657 L218.002628,351.720657 L218.002628,350.696401 C218.002628,350.347222 218.022339,349.998044 218.022339,349.998044 L217.976347,349.998044 C217.976347,349.998044 216.20565,352 212.982917,352 C208.610381,352 205,348.508216 205,343.476721 C205,338.72457 208.544678,335 213.281866,335" id="Fill-52" fill="#58585B"></path>
                <path d="M232.513391,349.87874 C235.887948,349.87874 238.606341,347.08586 238.606341,343.381968 C238.606341,339.79777 235.887948,337.094661 232.513391,337.094661 C229.135486,337.094661 226.393659,339.79777 226.393659,343.381968 C226.393659,347.08586 229.135486,349.87874 232.513391,349.87874 M232.513391,335 C237.297361,335 241,338.657344 241,343.381968 C241,348.226286 237.297361,352 232.513391,352 C227.729421,352 224,348.226286 224,343.381968 C224,338.657344 227.729421,335 232.513391,335" id="Fill-53" fill="#58585B"></path>
                <polygon id="Fill-54" fill="#58585B" points="246 335 248.146249 335 248.146249 349.930016 255 349.930016 255 352 246 352"></polygon>
                <path d="M265.987461,349.926997 C269.476489,349.926997 271.761755,347.664914 271.761755,343.474216 C271.761755,339.307583 269.454545,337.069565 265.987461,337.069565 L263.178683,337.069565 L263.178683,349.926997 L265.987461,349.926997 Z M261,335 L266.141066,335 C270.884013,335 274,338.107786 274,343.474216 C274,348.86815 270.884013,352 266.141066,352 L261,352 L261,335 Z" id="Fill-55" fill="#58585B"></path>
                <path d="M287,350.721957 C287,344.750994 295.273038,343.898966 295.273038,339.970167 C295.273038,338.313445 294.006826,337.201074 292.235495,337.201074 C290.013652,337.201074 288.819113,339.331146 288.819113,339.331146 L287.071672,338.17144 C287.071672,338.17144 288.604096,335 292.40273,335 C295.511945,335 297.737201,336.917064 297.737201,339.804495 C297.737201,345.298727 289.679181,346.150756 289.631399,349.961217 L298,349.961217 L298,352 L287.119454,352 C287.051195,351.550318 287,351.124304 287,350.721957" id="Fill-56" fill="#58585B"></path>
                <path d="M310.771674,343.476721 C310.771674,339.915102 310.047783,337.118349 307.488984,337.118349 C304.952217,337.118349 304.225179,339.915102 304.225179,343.476721 C304.225179,347.064945 304.952217,349.881651 307.488984,349.881651 C310.047783,349.881651 310.771674,347.064945 310.771674,343.476721 M302,343.476721 C302,338.747848 303.34392,335 307.488984,335 C311.652933,335 313,338.747848 313,343.476721 C313,348.228873 311.652933,352 307.488984,352 C303.34392,352 302,348.228873 302,343.476721" id="Fill-57" fill="#58585B"></path>
                <path d="M319.109451,349.926997 L322.524322,349.926997 L322.524322,338.950051 C322.524322,338.417189 322.54934,337.887765 322.54934,337.887765 L322.502432,337.887765 C322.502432,337.887765 322.327311,338.272801 321.758165,338.874419 L320.313412,340.438625 L319,338.950051 L322.699444,335 L324.628909,335 L324.628909,349.926997 L328,349.926997 L328,352 L319.109451,352 L319.109451,349.926997 Z" id="Fill-58" fill="#58585B"></path>
                <path d="M339.598487,338.609707 C340.064448,337.650556 340.553707,337.045501 340.553707,337.045501 L340.553707,336.997371 C340.553707,336.997371 340.180938,337.069565 339.342209,337.069565 L332,337.069565 L332,335 L343,335 L343,336.6364 L335.564599,352 L333.1882,352 L339.598487,338.609707 Z" id="Fill-59" fill="#58585B"></path>
            </g>
        </g>
    </g>
</svg>