<?xml version="1.0" encoding="UTF-8"?>
<svg width="555px" height="555px" viewBox="0 0 555 555" version="1.1" xmlns="http://www.w3.org/2000/svg" xmlns:xlink="http://www.w3.org/1999/xlink">
    <!-- Generator: Sketch 48.2 (47327) - http://www.bohemiancoding.com/sketch -->
    <title>2018 WELL / Gold Gradient</title>
    <desc>Created with Sketch.</desc>
    <defs>
        <polygon id="path-1" points="0.000684810127 0.168938854 539.042128 0.168938854 539.042128 538 0.000684810127 538"></polygon>
    </defs>
    <g id="Symbols" stroke="none" stroke-width="1" fill="none" fill-rule="evenodd">
        <g id="2018-WELL-/-Gold-Gradient">
            <g id="Page-1" transform="translate(5.000000, 7.000000)">
                <text id="2018" font-family="MuseoSans-500, Museo Sans" font-size="9.4342" font-weight="normal" letter-spacing="0.05" fill="#58585B">
                    <tspan x="247" y="282">2018</tspan>
                </text>
                <polygon id="Fill-1" fill="#58585B" points="4 213.138001 4.44916201 211 25 215.861999 24.550838 218"></polygon>
                <g id="Group-103">
                    <path d="M7.13743354,197.371297 L7.7229462,195.404341 L25.6855158,189.280736 C26.9215981,188.879806 28.9794525,188.406915 28.9794525,188.406915 L28.9965728,188.345233 C28.9965728,188.345233 27.2434589,188.016265 26.1580348,187.69415 L11.3181994,183.283921 L11.9208323,181.258711 L32.5370411,187.385743 L31.9515285,189.352698 L13.9855348,195.47973 C12.7494525,195.877233 10.6950222,196.353552 10.6950222,196.353552 L10.6779019,196.411806 C10.6779019,196.411806 12.4310158,196.740775 13.5164399,197.062889 L28.3562753,201.473118 L27.7536424,203.498329 L7.13743354,197.371297 Z" id="Fill-2" fill="#58585B"></path>
                    <polygon id="Fill-4" fill="#58585B" points="20.3587203 164.285668 17.3900684 171.437298 15.6403785 170.710827 22.372062 154.481731 24.1251759 155.211629 21.1667962 162.335846 39.2766 169.860992 38.4685241 171.810814"></polygon>
                    <polygon id="Fill-6" fill="#58585B" points="27.1924405 144.596581 32.8695165 133.887982 34.5438772 134.775511 29.8563519 143.619957 36.7729342 147.293434 40.6010228 140.073269 42.2788076 140.960797 38.450719 148.180963 45.5042633 151.926403 50.4485924 142.598785 52.1229532 143.486313 46.1890734 154.681511"></polygon>
                    <path d="M52.3297658,122.445716 C53.764443,120.276582 53.2748038,117.966952 51.0286266,116.479741 C49.5494367,115.49969 48.0633987,115.359194 46.8101962,116.03769 C46.1767468,116.387219 45.6015063,116.921792 44.6872848,118.302773 L42.2904494,121.928276 L49.5117722,126.708595 L52.3297658,122.445716 Z M39.5443608,122.641041 L43.0540127,117.329576 C44.2695506,115.492837 44.9920253,114.79378 45.7692848,114.283194 C47.6251203,113.087257 50.0082595,113.196913 52.1756835,114.632722 C54.5999114,116.239869 55.5517975,118.851054 54.777962,121.239499 L54.8293228,121.273767 C54.8293228,121.273767 55.1751519,121.246353 55.8462658,121.287474 L65.6493228,122.161296 L64.3173671,124.179652 L54.0794557,123.237296 L51.0936835,127.757181 L58.6437152,132.760238 L57.479538,134.521589 L39.5443608,122.641041 Z" id="Fill-8" fill="#58585B"></path>
                    <path d="M55.0333962,100.408276 L56.3413835,98.8285439 L75.2695354,100.254073 C76.5604025,100.370582 78.6388013,100.740671 78.6388013,100.740671 L78.6764658,100.696124 C78.6764658,100.696124 77.1938519,99.7023656 76.320719,98.979321 L64.4050228,89.0931427 L65.7506747,87.4688624 L82.3093835,101.203283 L81.0013962,102.783015 L62.0732443,101.357487 C60.7823772,101.240977 58.7039785,100.867461 58.7039785,100.867461 L58.6663139,100.915436 C58.6663139,100.915436 60.1489278,101.909194 61.0220608,102.632238 L72.937757,112.518417 L71.5921051,114.142697 L55.0333962,100.408276 Z" id="Fill-10" fill="#58585B"></path>
                    <path d="M81.4430987,74.404372 C81.4430987,74.404372 82.3538962,75.9978115 82.7955987,76.9778624 L86.1785608,84.5749707 L91.4789911,79.4074293 L84.0214089,75.7819261 C83.0524025,75.3124611 81.4876114,74.363251 81.4876114,74.363251 L81.4430987,74.404372 Z M93.2184089,80.2743975 L87.0208772,86.3191873 L90.047738,92.9396713 L88.4487063,94.4988433 L79.0976241,73.5716713 L80.7172,71.9919389 L101.374497,81.895251 L99.7754658,83.4544229 L93.2184089,80.2743975 Z" id="Fill-12" fill="#58585B"></path>
                    <polygon id="Fill-14" fill="#58585B" points="98.6965475 58.5309732 92.6873386 63.4106675 91.4923449 61.9371643 105.126915 50.8653299 106.321908 52.3388331 100.336668 57.2013936 112.690642 72.440158 111.050522 73.7697376"></polygon>
                    <polygon id="Fill-16" fill="#58585B" points="113.846602 44.6779873 115.582596 43.4751975 127.833849 61.1606624 126.101279 62.3634522"></polygon>
                    <path d="M145.162969,48.4261682 C149.364279,46.0342955 150.774988,40.5857605 148.176134,36.0076204 C145.635488,31.5357096 140.311089,30.0896204 136.106355,32.481493 C131.877653,34.8870726 130.419007,40.1882573 132.959653,44.6601682 C135.558507,49.2383083 140.934266,50.8317478 145.162969,48.4261682 M135.137349,30.7749707 C140.430931,27.7662828 147.035925,29.5379134 150.090178,34.9179134 C153.20264,40.4007159 151.425558,47.1205758 146.128551,50.1292637 C140.838393,53.1413783 134.15807,51.2326777 131.042184,45.7498752 C127.991355,40.3733019 129.847191,33.7870854 135.137349,30.7749707" id="Fill-18" fill="#58585B"></path>
                    <path d="M156.419535,20.1424459 L158.309611,19.3474395 L174.440314,29.3569809 C175.532586,30.059465 177.203523,31.3479236 177.203523,31.3479236 L177.258308,31.3239363 C177.258308,31.3239363 176.402295,29.7579108 175.960592,28.7161783 L169.954808,14.4369045 L171.899668,13.6179108 L180.247504,33.4553758 L178.357428,34.2503822 L162.226725,24.2408408 C161.134453,23.5383567 159.463516,22.2464713 159.463516,22.2464713 L159.408732,22.2704586 C159.408732,22.2704586 160.264744,23.8364841 160.703023,24.8816433 L166.712232,39.1574904 L164.767371,39.9799108 L156.419535,20.1424459 Z" id="Fill-20" fill="#58585B"></path>
                    <path d="M191.848872,9.28204204 C191.848872,9.28204204 191.920777,11.1153541 191.859144,12.1879274 L191.352385,20.4943732 L198.44017,18.359507 L193.499265,11.6944752 C192.858967,10.8309338 191.907081,9.26490828 191.907081,9.26490828 L191.848872,9.28204204 Z M199.587227,19.932386 L191.294176,22.4270611 L190.924378,29.7020548 L188.787771,30.3428573 L190.150543,7.45901019 L192.317967,6.80792739 L206.068954,25.1410484 L203.932347,25.7852777 L199.587227,19.932386 Z" id="Fill-22" fill="#58585B"></path>
                    <polygon id="Fill-24" fill="#58585B" points="210.750316 2.00190828 212.818443 1.58384459 216.704741 20.8182013 226.480405 18.8375389 226.857051 20.698265 215.013259 23.0969911"></polygon>
                    <path d="M235.342875,488.513252 C235.342875,488.513252 234.72997,490.278029 234.158154,491.583622 L227.78942,505.931431 L225.279591,505.544208 L223.067654,483.421099 L225.241926,483.756921 L226.799869,500.914666 C226.906015,502.045494 226.933407,503.258564 226.933407,503.258564 L226.99504,503.268845 C227.025856,503.272271 227.357989,502.117456 227.830508,501.072297 L234.85666,485.247558 L236.852882,485.555966 L238.773774,502.768539 C238.907312,503.90622 238.876496,505.10901 238.907312,505.112437 L238.965521,505.122717 C238.965521,505.122717 239.359287,503.974755 239.800989,502.929596 L246.618274,487.067163 L248.79597,487.406411 L239.85235,507.79901 L237.342521,507.411787 L235.606527,491.806361 C235.455869,490.387685 235.404508,488.523532 235.404508,488.523532 L235.342875,488.513252 Z" id="Fill-26" fill="#58585B"></path>
                    <polygon id="Fill-28" fill="#58585B" points="258.135068 487.779242 270.245935 488.09793 270.194575 489.99635 260.196347 489.73249 259.98748 497.566045 268.153841 497.78193 268.10248 499.68035 259.939543 499.464465 259.727252 507.452223 270.276752 507.72979 270.228815 509.62821 257.566676 509.295815"></polygon>
                    <polygon id="Fill-30" fill="#58585B" points="280.871792 487.756625 282.977583 487.598995 284.422532 507.1726 294.369399 506.439275 294.509785 508.330842 282.457127 509.221797"></polygon>
                    <polygon id="Fill-32" fill="#58585B" points="301.920801 485.641977 304.002623 485.285595 307.320528 504.622754 317.147554 502.933366 317.469415 504.804372 305.560566 506.853569"></polygon>
                    <path d="M349.578107,493.817864 C352.033151,492.961176 353.02955,490.894845 352.183809,488.465278 C351.338069,486.039138 349.136404,485.024819 346.766961,485.850666 L341.596645,487.656564 L344.380398,495.634042 L349.578107,493.817864 Z M345.931493,484.195545 C347.982499,483.479354 348.865904,481.550093 348.129734,479.442641 C347.403835,477.359176 345.619904,476.427099 343.455904,477.184411 L338.545816,478.897787 L340.994012,485.922628 L345.931493,484.195545 Z M335.926417,477.801227 L342.86012,475.38194 C346.065031,474.261392 349.019987,475.402501 350.129379,478.582526 C350.86555,480.689978 350.389607,482.574692 349.102164,483.900845 L349.122708,483.959099 C351.403126,483.811749 353.42674,485.34008 354.282753,487.797061 C355.542803,491.412284 353.580822,494.431252 350.173892,495.620335 L343.010778,498.121864 L335.926417,477.801227 Z" id="Fill-34" fill="#58585B"></path>
                    <path d="M358.419691,469.36662 L360.347431,468.431117 L366.452513,481.017576 C368.068665,484.348378 371.191399,485.318149 374.519577,483.700722 C377.851178,482.079869 379.049596,479.016353 377.406051,475.627296 L371.328361,463.095665 L373.225285,462.173869 L379.344064,474.787741 C381.429311,479.084888 379.778918,483.32378 375.402982,485.448366 C370.999653,487.590085 366.623716,486.277639 364.538469,481.980493 L358.419691,469.36662 Z" id="Fill-36" fill="#58585B"></path>
                    <polygon id="Fill-38" fill="#58585B" points="383.007798 456.471411 384.812273 455.378278 395.950709 473.790214 394.146235 474.883348"></polygon>
                    <polygon id="Fill-40" fill="#58585B" points="394.657446 449.047354 396.369471 447.813724 407.819496 463.744692 415.913952 457.915787 417.023344 459.457825 407.213439 466.516934"></polygon>
                    <path d="M429.612551,446.449191 C433.543361,442.902503 434.063817,438.224987 430.215184,433.951828 C426.383672,429.699229 421.658482,429.757484 417.75164,433.283611 L414.320741,436.381395 L426.181653,449.546975 L429.612551,446.449191 Z M411.482203,436.384822 L416.638823,431.731293 C421.432494,427.406732 427.301317,427.427293 431.848456,432.474898 C436.440108,437.567051 435.834051,443.389102 431.04038,447.713662 L425.88376,452.370618 L411.482203,436.384822 Z" id="Fill-42" fill="#58585B"></path>
                    <polygon id="Fill-44" fill="#58585B" points="431.63685 417.003115 433.064679 415.447369 448.907761 429.997357 447.483356 431.556529"></polygon>
                    <path d="M440.728389,406.784199 L441.964472,405.146211 L460.937136,405.708199 C462.231427,405.766454 464.323522,406.04402 464.323522,406.04402 L464.361187,405.996046 C464.361187,405.996046 462.83406,405.070823 461.930111,404.388899 L449.576136,395.054428 L450.846459,393.368466 L468.014649,406.335294 L466.778566,407.973282 L447.805902,407.411294 C446.508187,407.353039 444.416092,407.078899 444.416092,407.078899 L444.381851,407.126874 C444.381851,407.126874 445.905554,408.04867 446.809503,408.730594 L459.166902,418.065065 L457.893155,419.751027 L440.728389,406.784199 Z" id="Fill-46" fill="#58585B"></path>
                    <path d="M461.399383,375.580199 C463.868123,371.245358 467.367503,370.172785 467.367503,370.172785 L468.189275,371.947842 C468.189275,371.947842 465.083661,373.064963 463.145649,376.471154 C460.570763,380.994466 462.31018,386.038645 466.74775,388.571014 C471.34625,391.195906 476.550807,389.969129 478.975035,385.71653 C481.050009,382.070466 479.584516,378.273625 479.584516,378.273625 L476.424117,376.471154 L474.605946,379.66146 L472.958978,378.72253 L475.776972,373.774301 L484.706896,378.86988 L483.734465,380.572976 L482.32718,379.767689 C481.929991,379.541524 481.546497,379.287944 481.546497,379.287944 L481.51568,379.339345 C481.51568,379.339345 482.813396,382.934008 480.570642,386.871345 C477.660199,391.977205 471.23668,393.67002 465.68287,390.500275 C460.286566,387.423052 458.338282,380.953345 461.399383,375.580199" id="Fill-48" fill="#58585B"></path>
                    <polygon id="Fill-50" fill="#58585B" points="475.712599 345.946679 476.455618 343.969443 496.582188 351.552845 495.839169 353.53008"></polygon>
                    <path d="M480.34397,333.059352 L480.88497,331.082116 L498.710578,324.557581 C499.939812,324.132664 501.98397,323.611797 501.98397,323.611797 L502.001091,323.553543 C502.001091,323.553543 500.237704,323.262269 499.148856,322.964141 L484.213147,318.88288 L484.771268,316.843963 L505.517591,322.515237 L504.976591,324.492473 L487.150983,331.017008 C485.921749,331.441925 483.877591,331.962791 483.877591,331.962791 L483.863894,332.021046 C483.863894,332.021046 485.623856,332.31232 486.712704,332.610447 L501.648413,336.691708 L501.093717,338.730625 L480.34397,333.059352 Z" id="Fill-52" fill="#58585B"></path>
                    <path d="M504.219191,308.658139 C504.219191,308.658139 506.88995,306.81112 507.41383,303.45633 C507.776779,301.126139 506.681083,299.00498 504.383545,298.645171 C499.035178,297.81247 498.740709,308.641005 492.152836,307.61298 C489.102007,307.136661 486.859254,304.032024 487.472159,300.098113 C488.047399,296.407502 490.413418,294.73182 490.413418,294.73182 L492.005602,296.033986 C492.005602,296.033986 489.899811,297.627425 489.46838,300.409948 C489.043798,303.130789 490.553804,305.162852 492.42676,305.457553 C497.473811,306.242279 497.67583,295.400037 504.657469,296.489744 C507.831564,296.983196 510.019532,299.834254 509.396355,303.826419 C508.721817,308.18182 505.629899,310.148776 505.629899,310.148776 L504.219191,308.658139 Z" id="Fill-54" fill="#58585B"></path>
                    <polygon id="Fill-56" fill="#58585B" points="491.925479 279.3296 491.521441 287.067205 489.627941 286.967829 490.542163 269.416008 492.435663 269.515383 492.035049 277.218721 511.620618 278.24332 511.511049 280.354199"></polygon>
                    <polygon id="Fill-58" fill="#58585B" points="490.301794 260.668196 490.233313 258.557317 511.729503 257.854833 511.797984 259.965712"></polygon>
                    <polygon id="Fill-60" fill="#58585B" points="490.885253 241.890625 491.792626 249.583683 489.905974 249.802995 487.851544 232.353976 489.734772 232.131237 490.638721 239.793454 510.111297 237.49753 510.357828 239.594702"></polygon>
                    <path d="M486.386735,224.241484 L485.893672,222.154592 L499.497425,218.936873 C503.099526,218.087038 504.72595,215.249688 503.873361,211.644745 C503.020773,208.039803 500.295228,206.199637 496.631494,207.066605 L483.08595,210.270618 L482.603159,208.214567 L496.237728,204.989994 C500.880741,203.890006 504.654045,206.425803 505.770285,211.165 C506.896798,215.931611 504.664317,219.92035 500.021304,221.016911 L486.386735,224.241484 Z" id="Fill-62" fill="#58585B"></path>
                    <polygon id="Fill-64" fill="#58585B" points="479.442418 192.375778 482.068665 199.661052 480.284734 200.305282 474.326886 183.774632 476.110816 183.130403 478.726791 190.388262 497.172152 183.730084 497.887778 185.7176"></polygon>
                    <polygon id="Fill-66" fill="#58585B" points="470.84223 175.903383 465.579464 164.982326 467.288065 164.156479 471.633185 173.175689 478.68673 169.769498 475.139413 162.405409 476.848015 161.582989 480.395331 168.943651 487.589261 165.472352 483.004458 155.959689 484.713059 155.133842 490.215508 166.551778"></polygon>
                    <path d="M208.258635,501.620577 L213.432375,481.721431 C115.891445,456.322348 47.7699576,368.0458 47.7699576,267.03887 C47.7699576,257.563902 48.3725905,248.030679 49.5607361,238.699634 L29.1807867,236.105583 C27.8830715,246.289889 27.2256538,256.700361 27.2256538,267.03887 C27.2256538,377.400832 101.667939,473.863889 208.258635,501.620577" id="Fill-68" fill="#D1BC70"></path>
                    <path d="M269.411494,45.2200994 C349.109697,45.2200994 423.055494,88.3766089 462.390988,157.847144 L480.264532,147.714239 C437.289273,71.8116917 356.495374,24.6595898 269.411494,24.6595898 C257.708089,24.6595898 245.956747,25.5025707 234.47933,27.1645452 L237.424013,47.5125962 C247.929001,45.9945452 258.690792,45.2200994 269.411494,45.2200994" id="Fill-70" fill="#D1BC70"></path>
                    <path d="M484.193973,267.03887 C484.193973,215.12701 465.45072,165.007341 431.41908,125.908106 L415.928675,139.416361 C446.700618,174.76673 463.649669,220.092373 463.649669,267.03887 C463.649669,374.224233 376.514428,461.428208 269.410125,461.428208 C240.076283,461.428208 211.889498,455.047596 185.633878,442.467991 L176.762163,461.013571 C205.808384,474.929609 236.980941,481.988717 269.410125,481.988717 C387.841188,481.988717 484.193973,385.563354 484.193973,267.03887" id="Fill-72" fill="#D1BC70"></path>
                    <path d="M269.411494,433.999117 C225.141944,433.999117 183.443855,416.827665 151.997374,385.651079 L137.541032,400.252468 C172.856691,435.273869 219.690855,454.559627 269.411494,454.559627 C372.732222,454.559627 456.789241,370.436302 456.789241,267.037499 C456.789241,207.590213 429.540646,152.957512 382.035368,117.154811 L369.674545,133.579232 C411.982115,165.465155 436.244937,214.107894 436.244937,267.037499 C436.244937,359.104034 361.402039,433.999117 269.411494,433.999117" id="Fill-74" fill="#D1BC70"></path>
                    <path d="M269.411494,427.13225 C297.081247,427.13225 324.346963,419.949778 348.270804,406.359282 L338.128766,388.478492 C317.293418,400.314492 293.530507,406.57174 269.411494,406.57174 C220.365393,406.57174 174.356425,380.298836 149.340311,338.005868 L131.661937,348.481447 C160.358906,396.993969 213.140646,427.13225 269.411494,427.13225" id="Fill-76" fill="#D1BC70"></path>
                    <path d="M417.527022,327.625894 C425.392066,308.381257 429.381085,287.998939 429.381085,267.037499 C429.381085,237.063703 421.053794,207.833512 405.292889,182.509818 L387.854199,193.379474 C401.581218,215.440901 408.836782,240.908518 408.836782,267.037499 C408.836782,285.312366 405.364794,303.080073 398.509845,319.843741 L417.527022,327.625894 Z" id="Fill-78" fill="#D1BC70"></path>
                    <g id="Group-82">
                        <mask id="mask-2" fill="white">
                            <use xlink:href="#path-1"></use>
                        </mask>
                        <g id="Clip-81"></g>
                        <path d="M300.570697,0.168938854 L298.221799,20.5958051 C423.80228,35.0464166 518.497824,141.488175 518.497824,268.195741 C518.497824,405.629041 406.7779,517.440518 269.452925,517.440518 C204.348027,517.440518 142.766476,492.459499 96.0521532,447.099589 C49.4371278,401.84248 22.6165392,341.206111 20.5347165,276.36169 L0.000684810127,277.023054 C2.25713418,347.223487 31.2862354,412.86634 81.7464696,461.858608 C132.316273,510.960531 198.979115,538.001028 269.452925,538.001028 C418.104659,538.001028 539.042128,416.964735 539.042128,268.195741 C539.042128,131.036582 436.522628,15.8120599 300.570697,0.168938854" id="Fill-80" fill="#D1BC70" mask="url(#mask-2)"></path>
                    </g>
                    <path d="M135.477699,182.515301 L152.015864,244.642307 C153.214282,249.319823 153.813491,253.640957 153.813491,253.640957 L154.053174,253.640957 C154.053174,253.640957 154.412699,249.199887 155.611117,244.642307 L171.190547,182.515301 L183.414408,182.515301 L161.24368,267.193759 L147.461877,267.193759 L132.84118,212.259504 C131.403079,206.862371 130.324503,200.265874 130.324503,200.265874 L130.08482,200.265874 C130.08482,200.265874 129.006244,206.862371 127.568142,212.259504 L112.947446,267.193759 L99.1656424,267.193759 L77.5941234,182.515301 L89.8179842,182.515301 L104.798206,244.642307 C105.876782,249.199887 106.356149,253.640957 106.356149,253.640957 L106.595832,253.640957 C106.595832,253.640957 107.195041,249.319823 108.393459,244.642307 L124.931623,182.515301 L135.477699,182.515301 Z" id="Fill-83" fill="#58585B"></path>
                    <polygon id="Fill-85" fill="#58585B" points="198.75484 182.515301 247.889966 182.515301 247.889966 192.829823 210.619175 192.829823 210.619175 219.335746 240.939144 219.335746 240.939144 229.650269 210.619175 229.650269 210.619175 256.87581 249.927277 256.87581 249.927277 267.193759 198.75484 267.193759"></polygon>
                    <polygon id="Fill-87" fill="#58585B" points="267.425203 182.515301 279.289538 182.515301 279.289538 256.87581 317.159538 256.87581 317.159538 267.193759 267.425203 267.193759"></polygon>
                    <polygon id="Fill-89" fill="#58585B" points="330.822527 182.515301 342.686863 182.515301 342.686863 256.87581 380.556863 256.87581 380.556863 267.193759 330.822527 267.193759"></polygon>
                    <path d="M140.183715,288.45127 C145.782037,288.45127 148.699328,291.26806 148.699328,291.26806 L147.042088,293.721614 C147.042088,293.721614 144.426113,291.432544 140.447366,291.432544 C134.948341,291.432544 131.630436,295.448697 131.630436,300.455181 C131.630436,305.893436 135.345531,309.638875 140.248772,309.638875 C144.289151,309.638875 146.877734,306.72271 146.877734,306.72271 L146.877734,303.340506 L143.066765,303.340506 L143.066765,300.486022 L149.860082,300.486022 L149.860082,312.26034 L146.973607,312.26034 L146.973607,310.800544 C146.973607,310.303665 147.007847,309.806786 147.007847,309.806786 L146.942791,309.806786 C146.942791,309.806786 144.391873,312.657843 139.752284,312.657843 C133.455455,312.657843 128.254322,307.685627 128.254322,300.520289 C128.254322,293.755882 133.356158,288.45127 140.183715,288.45127" id="Fill-91" fill="#58585B"></path>
                    <path d="M168.755363,309.640246 C173.528489,309.640246 177.370274,305.661787 177.370274,300.388017 C177.370274,295.282157 173.528489,291.433915 168.755363,291.433915 C163.98566,291.433915 160.106211,295.282157 160.106211,300.388017 C160.106211,305.661787 163.98566,309.640246 168.755363,309.640246 M168.755363,288.452641 C175.514439,288.452641 180.749812,293.657876 180.749812,300.388017 C180.749812,307.286068 175.514439,312.655787 168.755363,312.655787 C161.996287,312.655787 156.726673,307.286068 156.726673,300.388017 C156.726673,293.657876 161.996287,288.452641 168.755363,288.452641" id="Fill-93" fill="#58585B"></path>
                    <polygon id="Fill-95" fill="#58585B" points="188.847349 288.848088 192.12759 288.848088 192.12759 309.408597 202.601761 309.408597 202.601761 312.259655 188.847349 312.259655"></polygon>
                    <path d="M217.220745,309.407227 C222.486935,309.407227 225.934954,306.288883 225.934954,300.52166 C225.934954,294.785278 222.456118,291.701201 217.220745,291.701201 L212.978346,291.701201 L212.978346,309.407227 L217.220745,309.407227 Z M209.698106,288.846717 L217.45358,288.846717 C224.609846,288.846717 229.314492,293.123303 229.314492,300.52166 C229.314492,307.950857 224.609846,312.261711 217.45358,312.261711 L209.698106,312.261711 L209.698106,288.846717 Z" id="Fill-97" fill="#58585B"></path>
                    <polygon id="Fill-99" fill="#59595B" points="497.554961 50.3975783 492.357252 50.3975783 492.357252 49.1228268 504.146258 49.1228268 504.146258 50.3975783 498.969094 50.3975783 498.969094 63.5700115 497.554961 63.5700115"></polygon>
                    <path d="M507.08786,49.1228268 L508.56705,49.1228268 L512.343778,57.6108904 C512.672487,58.3510688 513.042284,59.3790943 513.042284,59.3790943 L513.083373,59.3790943 C513.083373,59.3790943 513.473715,58.3510688 513.802423,57.6108904 L517.579151,49.1228268 L519.037797,49.1228268 L520.188278,63.5700115 L518.770721,63.5700115 L517.972917,53.4610943 C517.90786,52.6797949 517.928404,51.4461643 517.928404,51.4461643 L517.887316,51.4461643 C517.887316,51.4461643 517.455885,52.7209159 517.130601,53.4610943 L513.740791,60.8765847 L512.408835,60.8765847 L509.015601,53.4610943 C508.690316,52.7414764 508.238341,51.4050433 508.238341,51.4050433 L508.197253,51.4050433 C508.197253,51.4050433 508.217797,52.6797949 508.156164,53.4610943 L507.354936,63.5700115 L505.937379,63.5700115 L507.08786,49.1228268 Z" id="Fill-101" fill="#59595B"></path>
                </g>
            </g>
        </g>
    </g>
</svg>