<?xml version="1.0" encoding="UTF-8"?>
<svg width="555px" height="555px" viewBox="0 0 555 555" version="1.1" xmlns="http://www.w3.org/2000/svg" xmlns:xlink="http://www.w3.org/1999/xlink">
    <!-- Generator: Sketch 48.2 (47327) - http://www.bohemiancoding.com/sketch -->
    <title>2018 WELL / Platinum</title>
    <desc>Created with Sketch.</desc>
    <defs>
        <polygon id="path-1" points="0 1.00595316 543.187063 1.00595316 543.187063 542.544304 0 542.544304"></polygon>
        <polygon id="path-3" points="0 542.544304 543.187063 542.544304 543.187063 1.00560759 0 1.00560759"></polygon>
    </defs>
    <g id="Symbols" stroke="none" stroke-width="1" fill="none" fill-rule="evenodd">
        <g id="2018-WELL-/-Platinum">
            <g id="Page-1" transform="translate(7.000000, 5.000000)">
                <polygon id="Fill-1" fill="#58585B" points="3.64368608 217.284847 4.10674937 215.207973 25.2659772 219.93191 24.8029139 222.008784"></polygon>
                <g id="Group-110" transform="translate(0.000000, 2.450089)">
                    <path d="M7.11044051,199.498724 L7.69790886,197.51861 L25.805757,191.350192 C27.0532633,190.945876 29.1232253,190.46899 29.1232253,190.46899 L29.1439595,190.410243 C29.1439595,190.410243 27.374643,190.078496 26.282643,189.753661 L11.3263899,185.309635 L11.9311367,183.270775 L32.710238,189.442648 L32.1227696,191.422762 L14.0149215,197.59118 C12.7674152,197.995496 10.6974532,198.472382 10.6974532,198.472382 L10.676719,198.531129 C10.676719,198.531129 12.4460354,198.862876 13.5380354,199.187711 L28.4977443,203.631737 L27.8895418,205.670597 L7.11044051,199.498724 Z" id="Fill-2" fill="#58585B"></path>
                    <polygon id="Fill-4" fill="#58585B" points="20.4366418 166.176828 17.4474646 173.381954 15.6816038 172.649347 22.4651354 156.303904 24.2309962 157.036511 21.2521861 164.210537 39.5051734 171.788878 38.6896291 173.75517"></polygon>
                    <polygon id="Fill-6" fill="#58585B" points="27.324881 146.347352 33.0475139 135.562124 34.7373494 136.457149 30.009957 145.362478 36.9835519 149.063529 40.8401089 141.789289 42.5299443 142.68777 38.6699316 149.958554 45.7817544 153.728719 50.7648684 144.332681 52.4547038 145.227706 46.4728937 156.503643"></polygon>
                    <path d="M52.6617,124.038414 C54.1096367,121.850958 53.6120165,119.52873 51.3519911,118.028958 C49.8591304,117.044085 48.3628139,116.902401 47.0980291,117.583173 C46.4587253,117.935654 45.8781684,118.474743 44.9589532,119.863933 L42.5434215,123.516604 L49.8211177,128.333844 L52.6617,124.038414 Z M39.7754089,124.235389 L43.3140418,118.885971 C44.5408139,117.037173 45.2630544,116.332211 46.0509532,115.817313 C47.9170291,114.611275 50.3221937,114.725313 52.5061937,116.169794 C54.9493709,117.787059 55.9065987,120.416844 55.1290671,122.825465 L55.1809025,122.856566 C55.1809025,122.856566 55.5299278,122.832376 56.2072443,122.870389 L66.0870797,123.755047 L64.7428139,125.783541 L54.4275608,124.83668 L51.4141937,129.387832 L59.0270924,134.426237 L57.8521557,136.199009 L39.7754089,124.235389 Z" id="Fill-8" fill="#58585B"></path>
                    <path d="M55.386862,101.843514 L56.706938,100.253894 L75.782381,101.688008 C77.0851785,101.805501 79.1793304,102.178716 79.1793304,102.178716 L79.217343,102.130337 C79.217343,102.130337 77.7244823,101.131641 76.8432797,100.405944 L64.8312797,90.4466278 L66.1893684,88.8086278 L82.880381,102.64178 L81.5603051,104.234856 L62.484862,102.800742 C61.1820646,102.679792 59.0879127,102.306577 59.0879127,102.306577 L59.0499,102.354957 C59.0499,102.354957 60.5427608,103.353653 61.4205076,104.082805 L73.4325076,114.038666 L72.0778747,115.676666 L55.386862,101.843514 Z" id="Fill-10" fill="#58585B"></path>
                    <path d="M82.0060899,75.6538291 C82.0060899,75.6538291 82.9218494,77.2572722 83.3676342,78.2456013 L86.7784063,85.8999684 L92.1209127,80.6922342 L84.6047734,77.0395633 C83.6302671,76.5695886 82.0510139,75.6123608 82.0510139,75.6123608 L82.0060899,75.6538291 Z M93.8764063,81.5665253 L87.6285076,87.655462 L90.6798873,94.3215 L89.0660772,95.8938418 L79.638938,74.8175506 L81.2734823,73.2244747 L102.097508,83.1976139 L100.483697,84.7699557 L93.8764063,81.5665253 Z" id="Fill-12" fill="#58585B"></path>
                    <polygon id="Fill-14" fill="#58585B" points="99.3961899 59.6670873 93.3383544 64.5810873 92.1357722 63.0985937 105.879076 51.947062 107.081658 53.4330114 101.048013 58.3262772 113.498886 73.6730241 111.847063 75.0138342"></polygon>
                    <polygon id="Fill-16" fill="#58585B" points="114.666911 45.7150595 116.415494 44.5021101 128.766152 62.3162241 127.01757 63.5291734"></polygon>
                    <path d="M146.231586,49.490062 C150.46827,47.0814418 151.888561,41.5937962 149.265687,36.9804418 C146.705016,32.4776696 141.33832,31.0228215 137.105092,33.4314418 C132.840763,35.8538848 131.372092,41.1929354 133.929308,45.6991633 C136.552181,50.309062 141.967257,51.9125051 146.231586,49.490062 M136.12713,31.7139608 C141.462725,28.6833152 148.118396,30.4699101 151.197422,35.8849861 C154.335194,41.4071886 152.541687,48.1734418 147.206092,51.207543 C141.870497,54.2381886 135.138801,52.3168215 132.001029,46.794619 C128.922004,41.379543 130.791535,34.748062 136.12713,31.7139608" id="Fill-18" fill="#58585B"></path>
                    <path d="M157.577673,21.0040671 L159.481762,20.2023456 L175.740813,30.2860671 C176.84318,30.9910291 178.526104,32.2903709 178.526104,32.2903709 L178.581395,32.266181 C178.581395,32.266181 177.717471,30.6903835 177.275142,29.6398519 L171.220762,15.2607 L173.180142,14.4313329 L181.594762,34.4121684 L179.690673,35.2138899 L163.431623,25.1301684 C162.329256,24.4217506 160.646332,23.1258646 160.646332,23.1258646 L160.587585,23.1500544 C160.587585,23.1500544 161.454965,24.7258519 161.897294,25.7763835 L167.951673,40.1555354 L165.992294,40.9814468 L157.577673,21.0040671 Z" id="Fill-20" fill="#58585B"></path>
                    <path d="M193.287801,10.066443 C193.287801,10.066443 193.360371,11.9117848 193.298168,12.9934177 L192.786725,21.3562025 L199.933105,19.2067595 L194.953447,12.4957975 C194.303776,11.6284177 193.346548,10.0491646 193.346548,10.0491646 L193.287801,10.066443 Z M201.087308,20.7929241 L192.731434,23.3052152 L192.358219,30.6312911 L190.201865,31.280962 L191.577232,8.23146835 L193.761232,7.57488608 L207.622029,26.0386709 L205.465675,26.6883418 L201.087308,20.7929241 Z" id="Fill-22" fill="#58585B"></path>
                    <polygon id="Fill-24" fill="#58585B" points="212.3394 2.73414684 214.423185 2.3125519 218.341944 21.6851848 228.194134 19.6912481 228.574261 21.5642354 216.63483 23.9797671"></polygon>
                    <path d="M237.127109,492.720076 C237.127109,492.720076 236.508539,494.496304 235.931438,495.809468 L229.51421,510.264646 L226.984641,509.870696 L224.752261,487.591823 L226.946628,487.930481 L228.515514,505.208962 C228.622641,506.349342 228.650286,507.572658 228.650286,507.572658 L228.712489,507.57957 C228.74359,507.586481 229.078792,506.421911 229.552223,505.37138 L236.6364,489.430253 L238.647615,489.741266 L240.586261,507.078494 C240.721033,508.222329 240.689932,509.435278 240.717577,509.438734 L240.77978,509.449101 C240.77978,509.449101 241.177185,508.291443 241.619514,507.237456 L248.492894,491.265228 L250.687261,491.603886 L241.671349,512.144544 L239.14178,511.754051 L237.393197,496.037544 C237.241147,494.610342 237.189311,492.730443 237.189311,492.730443 L237.127109,492.720076 Z" id="Fill-26" fill="#58585B"></path>
                    <polygon id="Fill-28" fill="#58585B" points="260.100232 491.980903 272.305751 492.302282 272.257371 494.213282 262.177105 493.947194 261.969763 501.840004 270.197776 502.057713 270.149396 503.965257 261.917928 503.751004 261.70713 511.795865 272.340308 512.075776 272.288472 513.986776 259.530042 513.648118"></polygon>
                    <polygon id="Fill-30" fill="#58585B" points="283.017718 491.958095 285.139515 491.802589 286.597819 511.51388 296.622794 510.774361 296.764477 512.678449 284.617705 513.57693"></polygon>
                    <polygon id="Fill-32" fill="#58585B" points="304.233619 489.828349 306.331227 489.468957 309.676341 508.945261 319.583822 507.245058 319.905201 509.128413 307.903568 511.191463"></polygon>
                    <path d="M352.268833,498.062928 C354.743111,497.199004 355.748719,495.118675 354.895162,492.672042 C354.041605,490.228865 351.823048,489.205978 349.435162,490.038801 L344.223972,491.856497 L347.029997,499.890991 L352.268833,498.062928 Z M348.595428,488.373156 C350.661934,487.650915 351.550048,485.708814 350.810529,483.583561 C350.077922,481.489409 348.280959,480.549459 346.096959,481.309713 L341.148403,483.037561 L343.61577,490.111371 L348.595428,488.373156 Z M338.508251,481.931738 L345.495668,479.495472 C348.726744,478.368915 351.70901,479.516206 352.8252,482.716181 C353.564719,484.841434 353.084377,486.742067 351.788491,488.075966 L351.809225,488.134713 C354.107263,487.986118 356.146124,489.523903 357.010048,492.001637 C358.281744,495.640485 356.305086,498.678042 352.870124,499.877168 L345.651175,502.396371 L338.508251,481.931738 Z" id="Fill-34" fill="#58585B"></path>
                    <path d="M361.181073,473.4366 L363.123175,472.493195 L369.27777,485.168689 C370.905403,488.527625 374.053542,489.502132 377.409023,487.871043 C380.767959,486.24341 381.973997,483.154018 380.318719,479.73979 L374.19177,467.119587 L376.106225,466.190005 L382.271187,478.8966 C384.372251,483.223132 382.710061,487.490916 378.300592,489.633448 C373.860023,491.789803 369.450554,490.469727 367.349491,486.139739 L361.181073,473.4366 Z" id="Fill-36" fill="#58585B"></path>
                    <polygon id="Fill-38" fill="#58585B" points="385.96429 460.449748 387.785442 459.347381 399.012999 477.890647 397.191847 478.993014"></polygon>
                    <polygon id="Fill-40" fill="#58585B" points="397.706054 452.972313 399.433903 451.728262 410.972472 467.773059 419.131371 461.905287 420.247561 463.456895 410.360814 470.565262"></polygon>
                    <path d="M432.938605,450.355659 C436.898833,446.78247 437.427554,442.072356 433.543352,437.766558 C429.683339,433.484951 424.92139,433.543697 420.981896,437.096153 L417.522744,440.216647 L429.479453,453.472697 L432.938605,450.355659 Z M414.664884,440.220103 L419.862251,435.534178 C424.693314,431.176546 430.609466,431.19728 435.195175,436.280609 C439.818896,441.408862 439.210694,447.273178 434.37963,451.630811 L429.182263,456.316735 L414.664884,440.220103 Z" id="Fill-42" fill="#58585B"></path>
                    <polygon id="Fill-44" fill="#58585B" points="434.979194 420.699566 436.416763 419.13068 452.388991 433.786287 450.951422 435.355173"></polygon>
                    <path d="M444.142663,410.407466 L445.386714,408.759099 L464.510537,409.322377 C465.81679,409.38458 467.924765,409.661035 467.924765,409.661035 L467.962777,409.612656 C467.962777,409.612656 466.424992,408.683073 465.512689,407.99539 L453.061815,398.592441 L454.343878,396.895694 L471.643094,409.958225 L470.399043,411.606592 L451.27522,411.039858 C449.968967,410.981111 447.860992,410.7012 447.860992,410.7012 L447.82298,410.753035 C447.82298,410.753035 449.360765,411.682618 450.273068,412.370301 L462.727397,421.769795 L461.445334,423.469997 L444.142663,410.407466 Z" id="Fill-46" fill="#58585B"></path>
                    <path d="M464.977747,378.980328 C467.465848,374.612328 470.994114,373.534151 470.994114,373.534151 L471.820025,375.320746 C471.820025,375.320746 468.69262,376.447303 466.736696,379.878809 C464.141468,384.433416 465.893506,389.51329 470.368633,392.063594 C475.002722,394.707201 480.248468,393.473518 482.691646,389.188454 C484.785797,385.518505 483.310215,381.693049 483.310215,381.693049 L480.120608,379.875353 L478.289089,383.092606 L476.626899,382.145746 L479.467481,377.162632 L488.46957,382.294341 L487.491608,384.008366 L486.071316,383.199733 C485.670456,382.968201 485.283418,382.71248 485.283418,382.71248 L485.252316,382.767771 C485.252316,382.767771 486.562025,386.389341 484.302,390.353024 C481.368114,395.4951 474.892139,397.198758 469.293911,394.009151 C463.858101,390.905935 461.89181,384.391948 464.977747,378.980328" id="Fill-48" fill="#58585B"></path>
                    <polygon id="Fill-50" fill="#58585B" points="479.404587 349.135553 480.154473 347.145072 500.43941 354.778705 499.689524 356.772642"></polygon>
                    <path d="M484.072887,336.155958 L484.618887,334.162022 L502.588508,327.596199 C503.822191,327.164237 505.885242,326.642427 505.885242,326.642427 L505.899065,326.58368 C505.899065,326.58368 504.126292,326.289946 503.023925,325.9893 L487.974368,321.877022 L488.534191,319.824338 L509.444609,325.536604 L508.902065,327.530541 L490.932444,334.096363 C489.695305,334.528325 487.63571,335.050135 487.63571,335.050135 L487.618432,335.108882 C487.618432,335.108882 489.394659,335.402616 490.493571,335.703262 L505.546584,339.815541 L504.986761,341.868224 L484.072887,336.155958 Z" id="Fill-52" fill="#58585B"></path>
                    <path d="M508.137319,311.580429 C508.137319,311.580429 510.829306,309.721265 511.354572,306.341594 C511.720876,303.995176 510.618509,301.8561 508.303192,301.496708 C502.912306,300.656973 502.618572,311.563151 495.976724,310.529897 C492.897699,310.049556 490.641129,306.922151 491.256243,302.961923 C491.8368,299.243594 494.22123,297.557214 494.22123,297.557214 L495.828129,298.866923 C495.828129,298.866923 493.702876,300.470366 493.267458,303.272935 C492.842408,306.013303 494.362914,308.06253 496.249724,308.356265 C501.339965,309.147619 501.543851,298.227619 508.579648,299.323075 C511.779623,299.824151 513.984357,302.692378 513.35542,306.714809 C512.674648,311.100087 509.55761,313.080201 509.55761,313.080201 L508.137319,311.580429 Z" id="Fill-54" fill="#58585B"></path>
                    <polygon id="Fill-56" fill="#58585B" points="495.746229 282.04252 495.338457 289.835115 493.430913 289.7349 494.353584 272.059014 496.261128 272.155773 495.856811 279.917267 515.595748 280.947065 515.485166 283.072318"></polygon>
                    <polygon id="Fill-58" fill="#58585B" points="494.109611 263.248025 494.040497 261.122772 515.707713 260.414354 515.776827 262.539608"></polygon>
                    <polygon id="Fill-60" fill="#58585B" points="494.697771 244.336382 495.610075 252.084053 493.712897 252.305218 491.63948 234.733003 493.540113 234.508382 494.448961 242.224952 514.073859 239.909635 514.32267 242.024522"></polygon>
                    <path d="M490.163552,226.560972 L489.665932,224.459909 L503.378134,221.218466 C507.010071,220.361453 508.648071,217.503592 507.787603,213.875111 C506.93059,210.243175 504.179856,208.390922 500.489172,209.261757 L486.839172,212.489377 L486.348463,210.419415 L500.091767,207.171061 C504.77078,206.065238 508.575501,208.618997 509.702058,213.391314 C510.835527,218.191276 508.585868,222.206795 503.906856,223.312618 L490.163552,226.560972 Z" id="Fill-62" fill="#58585B"></path>
                    <polygon id="Fill-64" fill="#58585B" points="483.164039 194.467576 485.811103 201.807475 484.010685 202.45369 478.008141 185.804146 479.805103 185.15793 482.441799 192.466728 501.033444 185.762677 501.755685 187.763525"></polygon>
                    <polygon id="Fill-66" fill="#58585B" points="474.495425 177.877815 469.190932 166.878334 470.911868 166.048967 475.293691 175.130537 482.402058 171.69903 478.825413 164.283106 480.549805 163.453739 484.126451 170.869663 491.376501 167.372499 486.75278 157.789853 488.473716 156.960486 494.020109 168.457587"></polygon>
                    <path d="M136.52108,184.605019 L153.187903,247.163487 C154.393941,251.873601 154.998687,256.220867 154.998687,256.220867 L155.240586,256.220867 C155.240586,256.220867 155.603434,251.752652 156.809472,247.163487 L172.5087,184.605019 L184.828257,184.605019 L162.487181,269.867411 L148.598738,269.867411 L133.863649,214.555538 C132.415713,209.119728 131.327168,202.47788 131.327168,202.47788 L131.08527,202.47788 C131.08527,202.47788 130.000181,209.119728 128.548789,214.555538 L113.817156,269.867411 L99.9287127,269.867411 L78.1889278,184.605019 L90.5084848,184.605019 L105.602966,247.163487 C106.69151,251.752652 107.175308,256.220867 107.175308,256.220867 L107.417206,256.220867 C107.417206,256.220867 108.018497,251.873601 109.227991,247.163487 L125.894814,184.605019 L136.52108,184.605019 Z" id="Fill-68" fill="#58585B"></path>
                    <polygon id="Fill-70" fill="#58585B" points="200.284895 184.605019 249.79811 184.605019 249.79811 194.989386 212.241604 194.989386 212.241604 221.681184 242.79687 221.681184 242.79687 232.065551 212.241604 232.065551 212.241604 259.479589 251.854249 259.479589 251.854249 269.867411 200.284895 269.867411"></polygon>
                    <polygon id="Fill-72" fill="#58585B" points="269.484175 184.605019 281.440884 184.605019 281.440884 259.479589 319.602137 259.479589 319.602137 269.867411 269.484175 269.867411"></polygon>
                    <polygon id="Fill-74" fill="#58585B" points="333.36963 184.605019 345.326339 184.605019 345.326339 259.479589 383.487592 259.479589 383.487592 269.867411 333.36963 269.867411"></polygon>
                    <path d="M209.859592,505.913924 L215.070782,485.877797 C116.783871,460.305646 48.1364658,371.418228 48.1364658,269.713633 C48.1364658,260.175911 48.7446684,250.575987 49.9403392,241.183405 L29.4031367,238.567443 C28.0968835,248.823949 27.4333899,259.308532 27.4333899,269.713633 C27.4333899,380.838456 102.449643,477.967709 209.859592,505.913924" id="Fill-76" fill="#B7B8B8"></path>
                    <path d="M271.482604,46.3678405 C351.792984,46.3678405 426.308161,89.8197646 465.944996,159.773423 L483.956085,149.568752 C440.6493,73.1425747 359.236553,25.6647646 271.482604,25.6647646 C259.688313,25.6647646 247.845642,26.5148658 236.282882,28.1908785 L239.24787,48.6762456 C249.832667,47.1453722 260.676642,46.3678405 271.482604,46.3678405" id="Fill-78" fill="#B7B8B8"></path>
                    <path d="M487.915967,269.715361 C487.915967,217.4445 469.030587,166.977513 434.736258,127.613677 L419.126878,141.211842 C450.134841,176.808968 467.212891,222.444892 467.212891,269.715361 C467.212891,377.640209 379.410562,465.442538 271.482258,465.442538 C241.918777,465.442538 213.51641,459.021854 187.063056,446.353272 L178.12317,465.027854 C207.392916,479.037247 238.801739,486.145614 271.482258,486.145614 C390.824727,486.145614 487.915967,389.057829 487.915967,269.715361" id="Fill-80" fill="#B7B8B8"></path>
                    <path d="M271.482604,437.826687 C226.873022,437.826687 184.855211,420.537839 153.166477,389.142839 L138.597262,403.846827 C174.187477,439.108751 221.378465,458.529763 271.482604,458.529763 C375.595819,458.529763 460.298389,373.827194 460.298389,269.713978 C460.298389,209.857865 432.842882,154.850092 384.971123,118.80027 L372.516794,135.335776 C415.149718,167.439194 439.598768,216.420232 439.598768,269.713978 C439.598768,362.413029 364.181654,437.826687 271.482604,437.826687" id="Fill-82" fill="#B7B8B8"></path>
                    <path d="M271.482604,430.912185 C299.363161,430.912185 326.842857,423.682868 350.946338,409.998311 L340.727844,391.990678 C319.731034,403.909375 295.786515,410.209109 271.482604,410.209109 C222.059237,410.209109 175.697616,383.755754 150.488313,341.17121 L132.674199,351.717995 C161.591465,400.567716 214.778085,430.912185 271.482604,430.912185" id="Fill-84" fill="#B7B8B8"></path>
                    <path d="M420.736542,330.720148 C428.663909,311.340604 432.682884,290.817224 432.682884,269.716743 C432.682884,239.534692 424.288997,210.102528 408.406618,184.606401 L390.834403,195.550591 C404.667554,217.760351 411.979808,243.405072 411.979808,269.716743 C411.979808,288.11487 408.479187,306.005009 401.574706,322.882629 L420.736542,330.720148 Z" id="Fill-86" fill="#B7B8B8"></path>
                    <g id="Group-90">
                        <mask id="mask-2" fill="white">
                            <use xlink:href="#path-1"></use>
                        </mask>
                        <g id="Clip-89"></g>
                        <path d="M302.881405,1.00595316 L300.517709,21.574257 C427.061848,36.122738 522.483987,143.301156 522.483987,270.878548 C522.483987,409.258447 409.904316,521.841573 271.524418,521.841573 C205.918025,521.841573 143.864089,496.691016 96.7905949,451.01708 C49.8173165,405.446814 22.7903165,344.395029 20.6927089,279.099649 L0,279.766599 C2.2738481,350.452865 31.5297722,416.54651 82.3734304,465.876573 C133.334582,515.317219 200.506405,542.544649 271.524418,542.544649 C421.318481,542.544649 543.187063,420.676067 543.187063,270.878548 C543.187063,132.778561 439.879025,16.7570165 302.881405,1.00595316" id="Fill-88" fill="#B7B8B8" mask="url(#mask-2)"></path>
                    </g>
                    <path d="M97.5214747,303.470947 C100.458816,303.470947 102.255778,301.639428 102.255778,298.702086 C102.255778,295.7682 100.458816,294.040352 97.5560316,294.040352 L92.5832848,294.040352 L92.5832848,303.470947 L97.5214747,303.470947 Z M89.1656013,291.071909 L98.0743861,291.071909 C102.528778,291.071909 105.742576,294.074909 105.742576,298.702086 C105.742576,303.332719 102.528778,306.43939 98.0743861,306.43939 L92.5832848,306.43939 L92.5832848,315.455301 L89.1656013,315.455301 L89.1656013,291.071909 Z" id="Fill-91" fill="#58585B"></path>
                    <polygon id="Fill-93" fill="#58585B" points="112.731376 291.072254 116.149059 291.072254 116.149059 312.483748 127.065604 312.483748 127.065604 315.455647 112.731376 315.455647"></polygon>
                    <path d="M141.445101,294.419787 C141.445101,294.419787 140.89219,296.631433 140.477506,297.875484 L137.750962,305.609332 L145.139241,305.609332 L142.447253,297.875484 C142.03257,296.631433 141.514215,294.419787 141.514215,294.419787 L141.445101,294.419787 Z M146.037722,308.443003 L136.849025,308.443003 L134.433494,315.45461 L130.912139,315.45461 L139.682696,291.071218 L143.27662,291.071218 L152.047177,315.45461 L148.491266,315.45461 L146.037722,308.443003 Z" id="Fill-95" fill="#58585B"></path>
                    <polygon id="Fill-97" fill="#58585B" points="161.971591 294.04208 153.612262 294.04208 153.612262 291.073637 173.748604 291.073637 173.748604 294.04208 165.389275 294.04208 165.389275 315.453573 161.971591 315.453573"></polygon>
                    <mask id="mask-4" fill="white">
                        <use xlink:href="#path-3"></use>
                    </mask>
                    <g id="Clip-100"></g>
                    <polygon id="Fill-99" fill="#58585B" mask="url(#mask-4)" points="179.837886 315.456684 183.25557 315.456684 183.25557 291.073291 179.837886 291.073291"></polygon>
                    <path d="M192.485734,291.072254 L195.868861,291.072254 L206.716291,306.923533 C207.611316,308.236697 208.755152,310.444887 208.755152,310.444887 L208.824266,310.444887 C208.824266,310.444887 208.578911,308.271254 208.578911,306.923533 L208.578911,291.072254 L212.000051,291.072254 L212.000051,315.455647 L208.648025,315.455647 L197.769494,299.638925 C196.874468,298.291204 195.730633,296.079558 195.730633,296.079558 L195.661519,296.079558 C195.661519,296.079558 195.903418,298.253191 195.903418,299.638925 L195.903418,315.455647 L192.485734,315.455647 L192.485734,291.072254 Z" id="Fill-101" fill="#58585B" mask="url(#mask-4)"></path>
                    <path d="M220.89052,291.072254 L224.311659,291.072254 L224.311659,306.819862 C224.311659,310.552014 226.727191,312.725647 230.459343,312.725647 C234.222596,312.725647 236.676141,310.552014 236.676141,306.750748 L236.676141,291.072254 L240.093824,291.072254 L240.093824,306.819862 C240.093824,312.241849 236.192343,315.87033 230.4939,315.87033 C224.792001,315.87033 220.89052,312.241849 220.89052,306.819862 L220.89052,291.072254 Z" id="Fill-102" fill="#58585B" mask="url(#mask-4)"></path>
                    <path d="M250.193096,291.072254 L253.78702,291.072254 L259.381792,304.262647 C259.934704,305.610368 260.58783,307.545558 260.58783,307.545558 L260.656944,307.545558 C260.656944,307.545558 261.313527,305.610368 261.866438,304.262647 L267.464666,291.072254 L271.055134,291.072254 L273.024881,315.455647 L269.638299,315.455647 L268.428805,300.08471 C268.32859,298.602216 268.394248,296.490786 268.394248,296.490786 L268.32859,296.490786 C268.32859,296.490786 267.602894,298.740444 267.015425,300.08471 L262.142894,311.066913 L259.105337,311.066913 L254.270818,300.08471 C253.717906,298.775001 252.957653,296.425128 252.957653,296.425128 L252.888539,296.425128 C252.888539,296.425128 252.923096,298.602216 252.819425,300.08471 L251.644489,315.455647 L248.226805,315.455647 L250.193096,291.072254 Z" id="Fill-103" fill="#58585B" mask="url(#mask-4)"></path>
                    <polygon id="Fill-104" fill="#59595B" mask="url(#mask-4)" points="489.346625 50.5278076 484.100878 50.5278076 484.100878 49.2422886 495.998841 49.2422886 495.998841 50.5278076 490.773828 50.5278076 490.773828 63.8115038 489.346625 63.8115038"></polygon>
                    <path d="M498.967975,49.241943 L500.460835,49.241943 L504.272468,57.8017025 C504.604215,58.5481329 504.97743,59.5848418 504.97743,59.5848418 L505.018899,59.5848418 C505.018899,59.5848418 505.412848,58.5481329 505.744595,57.8017025 L509.556228,49.241943 L511.028354,49.241943 L512.189468,63.8111582 L510.75881,63.8111582 L509.953633,53.6168544 C509.887975,52.8289557 509.908709,51.5849051 509.908709,51.5849051 L509.867241,51.5849051 C509.867241,51.5849051 509.431823,52.8704241 509.103532,53.6168544 L505.682392,61.094981 L504.338127,61.094981 L500.913532,53.6168544 C500.585241,52.8911582 500.129089,51.5434367 500.129089,51.5434367 L500.08762,51.5434367 C500.08762,51.5434367 500.108354,52.8289557 500.046152,53.6168544 L499.237519,63.8111582 L497.806861,63.8111582 L498.967975,49.241943 Z" id="Fill-105" fill="#59595B" mask="url(#mask-4)"></path>
                    <path d="M294.157154,313.466548 C294.157154,305.079573 305.671534,303.883903 305.671534,298.358244 C305.671534,296.029105 303.905673,294.46713 301.441762,294.46713 C298.35237,294.46713 296.686724,297.459763 296.686724,297.459763 L294.25737,295.828675 C294.25737,295.828675 296.389534,291.370827 301.676749,291.370827 C306.003281,291.370827 309.096129,294.069725 309.096129,298.126713 C309.096129,305.846738 297.885851,307.045865 297.820192,312.398738 L309.465889,312.398738 L309.465889,315.26351 L294.326484,315.26351 C294.226268,314.631118 294.157154,314.029827 294.157154,313.466548" id="Fill-106" fill="#58585B" mask="url(#mask-4)"></path>
                    <path d="M328.359908,303.484424 C328.359908,298.390728 327.264452,294.399399 323.400984,294.399399 C319.575528,294.399399 318.480072,298.390728 318.480072,303.484424 C318.480072,308.605766 319.575528,312.631652 323.400984,312.631652 C327.264452,312.631652 328.359908,308.605766 328.359908,303.484424 M315.11768,303.484424 C315.11768,296.728538 317.149629,291.372209 323.400984,291.372209 C329.693806,291.372209 331.7223,296.728538 331.7223,303.484424 C331.7223,310.271411 329.693806,315.658842 323.400984,315.658842 C317.149629,315.658842 315.11768,310.271411 315.11768,303.484424" id="Fill-107" fill="#58585B" mask="url(#mask-4)"></path>
                    <path d="M337.33988,312.400466 L342.530335,312.400466 L342.530335,297.226504 C342.530335,296.493896 342.564892,295.764744 342.564892,295.764744 L342.495778,295.764744 C342.495778,295.764744 342.22969,296.296922 341.365766,297.129744 L339.167943,299.29301 L337.174006,297.226504 L342.796424,291.769959 L345.726854,291.769959 L345.726854,312.400466 L350.848196,312.400466 L350.848196,315.261782 L337.33988,315.261782 L337.33988,312.400466 Z" id="Fill-108" fill="#58585B" mask="url(#mask-4)"></path>
                    <path d="M365.852829,302.485382 C366.219133,302.122534 367.919335,300.322116 367.919335,297.861661 C367.919335,295.698395 366.188032,294.333395 363.72412,294.333395 C361.128892,294.333395 359.698234,295.795154 359.698234,297.595572 C359.698234,300.1908 362.825639,301.186041 365.852829,302.485382 M361.495196,303.615395 C360.731487,304.147572 358.668437,305.744104 358.668437,308.277129 C358.668437,310.969116 360.997576,312.70042 363.489133,312.70042 C365.953044,312.70042 368.150867,311.103889 368.150867,308.674534 C368.150867,306.14842 364.653703,305.149724 361.495196,303.615395 M359.065842,302.219294 C357.538424,301.120382 356.436057,299.689724 356.436057,297.526458 C356.436057,294.399053 358.799753,291.371863 363.758677,291.371863 C368.11631,291.371863 371.1435,293.801218 371.1435,297.66123 C371.1435,300.788635 368.651943,303.449522 368.351297,303.784724 C370.144804,304.88018 371.540905,306.345395 371.540905,308.771294 C371.540905,312.434332 368.382399,315.661952 363.489133,315.661952 C358.799753,315.661952 355.306044,312.734977 355.306044,308.474104 C355.306044,304.88018 358.436905,302.651256 359.065842,302.219294" id="Fill-109" fill="#58585B" mask="url(#mask-4)"></path>
                </g>
            </g>
        </g>
    </g>
</svg>