<?xml version="1.0" encoding="UTF-8"?>
<svg width="555px" height="555px" viewBox="0 0 555 555" version="1.1" xmlns="http://www.w3.org/2000/svg" xmlns:xlink="http://www.w3.org/1999/xlink">
    <!-- Generator: Sketch 48.2 (47327) - http://www.bohemiancoding.com/sketch -->
    <title>2017 WELL Community Seal / Gold (Silver Colour)</title>
    <desc>Created with Sketch.</desc>
    <defs>
        <polygon id="path-1" points="0.00133653234 0.581198568 545.418801 0.581198568 545.418801 545.999332 0.00133653234 545.999332"></polygon>
        <polygon id="path-3" points="0 545 545 545 545 0 0 0"></polygon>
    </defs>
    <g id="Symbols" stroke="none" stroke-width="1" fill="none" fill-rule="evenodd">
        <g id="2017-WELL-Community-Seal-/-Gold-(Silver-Colour)">
            <g id="Page-1" transform="translate(5.000000, 4.000000)">
                <g id="Group-3">
                    <mask id="mask-2" fill="white">
                        <use xlink:href="#path-1"></use>
                    </mask>
                    <g id="Clip-2"></g>
                    <path d="M545.420138,273.289931 C545.420138,122.676101 423.324567,0.580530302 272.710737,0.580530302 C122.096907,0.580530302 0.00133653234,122.676101 0.00133653234,273.289931 C0.00133653234,423.903761 122.096907,545.999332 272.710737,545.999332 C423.324567,545.999332 545.420138,423.903761 545.420138,273.289931" id="Fill-1" fill="#E5E6E7" mask="url(#mask-2)"></path>
                </g>
                <path d="M272.501671,48.2142906 C148.279357,48.2142906 47.2144156,149.278538 47.2144156,273.5 C47.2144156,397.721462 148.279357,498.785709 272.501671,498.785709 C396.723986,498.785709 497.788926,397.721462 497.788926,273.5 C497.788926,149.278538 396.723986,48.2142906 272.501671,48.2142906 M272.501671,517 C138.23302,517 29,407.767729 29,273.5 C29,139.232271 138.23302,30 272.501671,30 C406.770322,30 516,139.232271 516,273.5 C516,407.767729 406.770322,517 272.501671,517" id="Fill-4" fill="#C6C7C9"></path>
                <polygon id="Fill-6" fill="#59595B" points="492.290735 58.2352941 487 58.2352941 487 57 499 57 499 58.2352941 493.730177 58.2352941 493.730177 71 492.290735 71"></polygon>
                <path d="M501.130226,57 L502.583373,57 L506.293609,65.2253321 C506.616531,65.9425996 506.979817,66.9388046 506.979817,66.9388046 L507.020183,66.9388046 C507.020183,66.9388046 507.403652,65.9425996 507.726574,65.2253321 L511.436809,57 L512.869774,57 L514,71 L512.6074,71 L511.823642,61.2039848 C511.759731,60.4468691 511.779914,59.2514231 511.779914,59.2514231 L511.739548,59.2514231 C511.739548,59.2514231 511.315714,60.4867173 510.996156,61.2039848 L507.666026,68.3899431 L506.35752,68.3899431 L503.024027,61.2039848 C502.704469,60.5066414 502.260452,59.211575 502.260452,59.211575 L502.220086,59.211575 C502.220086,59.211575 502.240269,60.4468691 502.179721,61.2039848 L501.3926,71 L500,71 L501.130226,57 Z" id="Fill-8" fill="#59595B"></path>
                <path d="M471,359.557594 L454.114338,352 C417.159625,435.103372 328.779636,482.687728 239.190428,467.70995 C230.786011,466.305679 222.418339,464.355116 214.317898,461.911885 L209,479.681448 C217.845348,482.345876 226.981309,484.474068 236.150674,486.009047 C334.040748,502.374339 430.614708,450.37608 471,359.557594" id="Fill-10" fill="#C6C7C9"></path>
                <path d="M398.278014,344 C383.510195,369.254536 361.102347,390.399339 332.437176,403.477878 C296.851786,419.716981 257.004453,421.292267 220.240584,407.913991 L214,424.885785 C255.290301,439.915947 300.045733,438.144166 340.013593,419.906815 C372.230942,405.206364 397.414242,381.430532 414,353.038746 L398.278014,344 Z" id="Fill-12" fill="#C6C7C9"></path>
                <path d="M60,225.962325 L78.031451,230 C97.8556977,141.588263 175.05942,77.6795409 265.784227,74.5862146 C274.290825,74.2959024 282.87421,74.5461715 291.290668,75.3270112 L293,56.9372364 C283.809001,56.0829845 274.437721,55.8126938 265.153243,56.1263645 C166.025333,59.506666 81.6637819,129.345098 60,225.962325" id="Fill-14" fill="#C6C7C9"></path>
                <path d="M371.781864,99.8533299 C433.460425,135.884018 471.329613,202.921901 470.612344,274.809361 L488.989061,275 C489.772745,196.453568 448.396904,123.208226 381.00343,83.8396907 C371.944578,78.5486345 362.47396,73.8930401 352.84727,70 L346,87.1775378 C354.8098,90.7428133 363.483451,95.0070969 371.781864,99.8533299" id="Fill-16" fill="#C6C7C9"></path>
                <path d="M452.645814,213 L435.005871,218.662099 C447.991387,258.66649 445.972236,302.011519 429.323452,340.710297 C426.2964,347.744622 422.813951,354.442552 419,360.860707 L435.092932,370 C439.25178,362.975667 443.052337,355.651576 446.360663,347.961114 C464.774112,305.172303 467.004219,257.240973 452.645814,213" id="Fill-18" fill="#C6C7C9"></path>
                <path d="M370.479682,413.503504 C312.697984,452.575485 234.569443,454.623086 173.83245,412.575213 C164.546284,406.144205 156.057314,398.908901 148.308836,391 L135,403.848613 C143.602378,412.652292 153.035308,420.698593 163.358829,427.846765 C230.586799,474.391987 317.084229,472.072936 381,428.741543 L370.479682,413.503504 Z" id="Fill-20" fill="#C6C7C9"></path>
                <path d="M97.1957769,341 L114.822918,334.357307 C99.3287804,295.064996 98.9090053,251.60557 113.6455,211.976287 C116.324552,204.773085 119.488223,197.880166 123,191.247482 L106.1032,183 C102.274032,190.256583 98.8202724,197.79342 95.895498,205.66723 C79.5993513,249.486982 80.06008,297.547248 97.1957769,341" id="Fill-22" fill="#C6C7C9"></path>
                <path d="M164.457353,137.739722 C219.640049,95.2916285 297.457353,88.3080603 360.706213,126.202668 C370.376272,131.996196 379.302738,138.639753 387.532292,146 L400,132.399543 C390.860126,124.209267 380.943313,116.815685 370.192875,110.375469 C300.184977,68.4307254 214.031415,76.2143204 153,123.279236 L164.457353,137.739722 Z" id="Fill-24" fill="#C6C7C9"></path>
                <path d="M117,223.318153 L134.271448,229 C148.998442,184.712272 182.890977,150.751234 227.259691,135.829717 C259.952075,124.836144 293.854667,125.953174 324.076349,136.686662 L330,119.591106 C296.10076,107.593873 258.088153,106.360139 221.433259,118.687479 C171.60017,135.449593 133.537277,173.585322 117,223.318153" id="Fill-26" fill="#C6C7C9"></path>
                <path d="M206.4773,215 L218.041769,258.290919 C218.880832,261.548487 219.298705,264.558016 219.298705,264.558016 L219.467844,264.558016 C219.467844,264.558016 219.719894,261.465807 220.55564,258.290919 L231.450186,215 L240,215 L224.495586,274 L214.857975,274 L204.633353,235.726065 C203.628468,231.965807 202.872317,227.368834 202.872317,227.368834 L202.706494,227.368834 C202.706494,227.368834 201.950343,231.965807 200.945458,235.726065 L190.720835,274 L181.083225,274 L166,215 L174.546498,215 L185.02317,258.290919 C185.776005,261.465807 186.110967,264.558016 186.110967,264.558016 L186.280106,264.558016 C186.280106,264.558016 186.697979,261.548487 187.537041,258.290919 L199.10151,215 L206.4773,215 Z" id="Fill-28" fill="#6C6E70"></path>
                <polygon id="Fill-30" fill="#6C6E70" points="251 215 285.568675 215 285.568675 222.186491 259.347729 222.186491 259.347729 240.657063 280.677479 240.657063 280.677479 247.843554 259.347729 247.843554 259.347729 266.813509 287 266.813509 287 274 251 274"></polygon>
                <polygon id="Fill-32" fill="#6C6E70" points="300 215 308.350339 215 308.350339 266.813509 335 266.813509 335 274 300 274"></polygon>
                <polygon id="Fill-34" fill="#6C6E70" points="344 215 352.350339 215 352.350339 266.813509 379 266.813509 379 274 344 274"></polygon>
                <path d="M191.239232,303.363147 C191.215015,303.386814 188.838263,305.851544 185.402871,305.851544 C180.99187,305.851544 178.68777,302.33195 178.68777,298.856309 C178.68777,294.90395 181.438159,292.148456 185.375195,292.148456 C188.530358,292.148456 190.851756,294.200707 190.875973,294.224374 L191.197717,294.515138 L193.436084,291.137544 L193.242346,290.931305 C193.128179,290.812971 190.429683,288 185.195295,288 C178.812316,288 174,292.692792 174,298.913785 C174,305.337636 178.732745,310 185.257568,310 C190.730669,310 193.688635,306.679883 193.809722,306.537882 L194,306.3215 L191.543678,303.038574 L191.239232,303.363147 Z" id="Fill-36" fill="#6C6E70"></path>
                <path d="M215.415399,298.856309 C215.415399,302.845858 212.656524,305.851544 208.99831,305.851544 C205.340095,305.851544 202.58122,302.845858 202.58122,298.856309 C202.58122,295.029046 205.340095,292.148456 208.99831,292.148456 C212.599047,292.148456 215.415399,295.093284 215.415399,298.856309 M208.99831,288 C202.831412,288 198,292.767174 198,298.856309 C198,305.104349 202.831412,310 208.99831,310 C215.168588,310 220,305.104349 220,298.856309 C220,292.767174 215.168588,288 208.99831,288" id="Fill-38" fill="#6C6E70"></path>
                <path d="M240.79008,288 L236.72577,298.258372 C236.485515,298.888272 236.218565,299.674814 236.02169,300.284717 C235.814804,299.674814 235.54118,298.884939 235.300925,298.255039 L231.236615,288 L226.718489,288 L225,309 L229.408008,309 L230.29228,297.321854 C230.315638,296.961911 230.328985,296.56864 230.335659,296.1887 C230.489155,296.62863 230.652662,297.068561 230.806158,297.435169 L234.159715,305.513887 L237.86698,305.513887 L241.250569,297.435169 C241.394054,297.085225 241.54755,296.671957 241.694373,296.255356 C241.701047,296.615299 241.714394,296.981908 241.734415,297.325186 L242.618686,309 L247,309 L245.308206,288 L240.79008,288 Z" id="Fill-40" fill="#6C6E70"></path>
                <path d="M267.79008,288 L263.72577,298.258372 C263.485515,298.888272 263.218565,299.674814 263.02169,300.284717 C262.814804,299.674814 262.54118,298.884939 262.300925,298.255039 L258.236615,288 L253.718489,288 L252,309 L256.408008,309 L257.29228,297.321854 C257.312301,296.961911 257.325648,296.56864 257.332322,296.1887 C257.489155,296.62863 257.652662,297.068561 257.806158,297.435169 L261.159715,305.513887 L264.86698,305.513887 L268.250569,297.435169 C268.394054,297.085225 268.54755,296.671957 268.694373,296.255356 C268.701047,296.615299 268.714394,296.981908 268.734415,297.325186 L269.618686,309 L274,309 L272.308206,288 L267.79008,288 Z" id="Fill-42" fill="#6C6E70"></path>
                <path d="M293.622318,301.740122 C293.622318,304.272372 292.076863,305.7876 289.486734,305.7876 C286.916504,305.7876 285.380999,304.28268 285.380999,301.767609 L285.380999,288 L281,288 L281,301.767609 C281,306.691238 284.425868,310 289.516582,310 C294.590714,310 298,306.691238 298,301.767609 L298,288 L293.622318,288 L293.622318,301.740122 Z" id="Fill-44" fill="#6C6E70"></path>
                <path d="M318.447079,300.071417 C318.447079,300.504682 318.474841,301.021266 318.509543,301.514522 C318.207634,300.961276 317.853673,300.354706 317.524002,299.874782 L309.410642,288 L305,288 L305,309 L309.584153,309 L309.584153,296.955245 C309.584153,296.525313 309.556391,296.005396 309.525159,295.512141 C309.830538,296.068719 310.177559,296.671957 310.50723,297.151881 L318.62059,309 L323,309 L323,288 L318.447079,288 L318.447079,300.071417 Z" id="Fill-46" fill="#6C6E70"></path>
                <mask id="mask-4" fill="white">
                    <use xlink:href="#path-3"></use>
                </mask>
                <g id="Clip-49"></g>
                <polygon id="Fill-48" fill="#6C6E70" mask="url(#mask-4)" points="329 309 333 309 333 288 329 288"></polygon>
                <polygon id="Fill-50" fill="#6C6E70" mask="url(#mask-4)" points="339 291.88605 345.764396 291.88605 345.764396 309 350.235604 309 350.235604 291.88605 357 291.88605 357 288 339 288"></polygon>
                <path d="M372.835386,288 L369.487505,294.162355 C369.102137,294.875575 368.747736,295.648786 368.506882,296.192033 C368.272908,295.645453 367.92883,294.872243 367.546903,294.159022 L364.164614,288 L359,288 L366.229084,300.248056 L366.229084,309 L370.770916,309 L370.770916,300.248056 L378,288 L372.835386,288 Z" id="Fill-51" fill="#6C6E70" mask="url(#mask-4)"></path>
                <path d="M213.281866,334 C217.171485,334 219.195138,335.978678 219.195138,335.978678 L218.045335,337.701291 C218.045335,337.701291 216.225361,336.09507 213.46912,336.09507 C209.648489,336.09507 207.345598,338.915102 207.345598,342.430164 C207.345598,346.251174 209.924442,348.881651 213.331143,348.881651 C216.136662,348.881651 217.930355,346.829812 217.930355,346.829812 L217.930355,344.458725 L215.282523,344.458725 L215.282523,342.453443 L220,342.453443 L220,350.720657 L218.002628,350.720657 L218.002628,349.696401 C218.002628,349.347222 218.022339,348.998044 218.022339,348.998044 L217.976347,348.998044 C217.976347,348.998044 216.20565,351 212.982917,351 C208.610381,351 205,347.508216 205,342.476721 C205,337.72457 208.544678,334 213.281866,334" id="Fill-52" fill="#808184" mask="url(#mask-4)"></path>
                <path d="M233.513391,348.87874 C236.887948,348.87874 239.606341,346.08586 239.606341,342.381968 C239.606341,338.79777 236.887948,336.094661 233.513391,336.094661 C230.135486,336.094661 227.393659,338.79777 227.393659,342.381968 C227.393659,346.08586 230.135486,348.87874 233.513391,348.87874 M233.513391,334 C238.297361,334 242,337.657344 242,342.381968 C242,347.226286 238.297361,351 233.513391,351 C228.729421,351 225,347.226286 225,342.381968 C225,337.657344 228.729421,334 233.513391,334" id="Fill-53" fill="#808184" mask="url(#mask-4)"></path>
                <polygon id="Fill-54" fill="#808184" mask="url(#mask-4)" points="246 334 248.384721 334 248.384721 348.930016 256 348.930016 256 351 246 351"></polygon>
                <path d="M266.371112,348.926997 C270.128527,348.926997 272.589583,346.664914 272.589583,342.474216 C272.589583,338.307583 270.104895,336.069565 266.371112,336.069565 L263.346274,336.069565 L263.346274,348.926997 L266.371112,348.926997 Z M261,334 L266.536532,334 C271.644321,334 275,337.107786 275,342.474216 C275,347.86815 271.644321,351 266.536532,351 L261,351 L261,334 Z" id="Fill-55" fill="#808184" mask="url(#mask-4)"></path>
                <path d="M287,349.721957 C287,343.750994 295.273038,342.898966 295.273038,338.970167 C295.273038,337.313445 294.006826,336.201074 292.235495,336.201074 C290.013652,336.201074 288.819113,338.331146 288.819113,338.331146 L287.071672,337.17144 C287.071672,337.17144 288.604096,334 292.40273,334 C295.511945,334 297.737201,335.917064 297.737201,338.804495 C297.737201,344.298727 289.679181,345.150756 289.631399,348.961217 L298,348.961217 L298,351 L287.119454,351 C287.051195,350.550318 287,350.124304 287,349.721957" id="Fill-56" fill="#808184" mask="url(#mask-4)"></path>
                <path d="M312.569099,342.476721 C312.569099,338.915102 311.779399,336.118349 308.987983,336.118349 C306.220601,336.118349 305.427468,338.915102 305.427468,342.476721 C305.427468,346.064945 306.220601,348.881651 308.987983,348.881651 C311.779399,348.881651 312.569099,346.064945 312.569099,342.476721 M303,342.476721 C303,337.747848 304.466094,334 308.987983,334 C313.530472,334 315,337.747848 315,342.476721 C315,347.228873 313.530472,351 308.987983,351 C304.466094,351 303,347.228873 303,342.476721" id="Fill-57" fill="#808184" mask="url(#mask-4)"></path>
                <path d="M319.121612,348.926997 L322.915914,348.926997 L322.915914,337.950051 C322.915914,337.417189 322.943711,336.887765 322.943711,336.887765 L322.891591,336.887765 C322.891591,336.887765 322.697012,337.272801 322.064628,337.874419 L320.459347,339.438625 L319,337.950051 L323.110493,334 L325.254343,334 L325.254343,348.926997 L329,348.926997 L329,351 L319.121612,351 L319.121612,348.926997 Z" id="Fill-58" fill="#808184" mask="url(#mask-4)"></path>
                <path d="M338.598487,337.609707 C339.064448,336.650556 339.553707,336.045501 339.553707,336.045501 L339.553707,335.997371 C339.553707,335.997371 339.180938,336.069565 338.342209,336.069565 L331,336.069565 L331,334 L342,334 L342,335.6364 L334.564599,351 L332.1882,351 L338.598487,337.609707 Z" id="Fill-59" fill="#808184" mask="url(#mask-4)"></path>
            </g>
        </g>
    </g>
</svg>