<?xml version="1.0" encoding="UTF-8"?>
<svg width="555px" height="555px" viewBox="0 0 555 555" version="1.1" xmlns="http://www.w3.org/2000/svg" xmlns:xlink="http://www.w3.org/1999/xlink">
    <!-- Generator: Sketch 48.2 (47327) - http://www.bohemiancoding.com/sketch -->
    <title>2017 WELL Community Seal / Platinum (Alternate)</title>
    <desc>Created with Sketch.</desc>
    <defs>
        <polygon id="path-1" points="0.00132926829 0.54554878 542.454451 0.54554878 542.454451 542.999335 0.00132926829 542.999335"></polygon>
        <polygon id="path-3" points="0 542 542 542 542 0 0 0"></polygon>
    </defs>
    <g id="Symbols" stroke="none" stroke-width="1" fill="none" fill-rule="evenodd">
        <g id="2017-WELL-Community-Seal-/-Platinum-(Alternate)">
            <g id="Page-1" transform="translate(5.000000, 6.000000)">
                <g id="Group-3">
                    <mask id="mask-2" fill="white">
                        <use xlink:href="#path-1"></use>
                    </mask>
                    <g id="Clip-2"></g>
                    <path d="M542.45578,271.77211 C542.45578,121.976866 421.023799,0.544884146 271.228555,0.544884146 C121.433311,0.544884146 0.00132926829,121.976866 0.00132926829,271.77211 C0.00132926829,421.567354 121.433311,542.999335 271.228555,542.999335 C421.023799,542.999335 542.45578,421.567354 542.45578,271.77211" id="Fill-1" fill="#DBDCDD" mask="url(#mask-2)"></path>
                </g>
                <path d="M271.001661,47.1020876 C147.544576,47.1020876 47.1022118,147.543763 47.1022118,271 C47.1022118,394.456237 147.544576,494.897912 271.001661,494.897912 C394.458745,494.897912 494.90111,394.456237 494.90111,271 C494.90111,147.543763 394.458745,47.1020876 271.001661,47.1020876 M271.001661,513 C137.560127,513 29,404.440618 29,271 C29,137.559382 137.560127,29 271.001661,29 C404.443195,29 513,137.559382 513,271 C513,404.440618 404.443195,513 271.001661,513" id="Fill-4" fill="#FEFEFE"></path>
                <polygon id="Fill-6" fill="#59595B" points="488.84984 58.2352941 484 58.2352941 484 57 495 57 495 58.2352941 490.169329 58.2352941 490.169329 71 488.84984 71"></polygon>
                <path d="M498.130226,57 L499.583373,57 L503.293609,65.2253321 C503.616531,65.9425996 503.979817,66.9388046 503.979817,66.9388046 L504.020183,66.9388046 C504.020183,66.9388046 504.403652,65.9425996 504.726574,65.2253321 L508.436809,57 L509.869774,57 L511,71 L509.6074,71 L508.823642,61.2039848 C508.759731,60.4468691 508.779914,59.2514231 508.779914,59.2514231 L508.739548,59.2514231 C508.739548,59.2514231 508.315714,60.4867173 507.996156,61.2039848 L504.666026,68.3899431 L503.35752,68.3899431 L500.024027,61.2039848 C499.704469,60.5066414 499.260452,59.211575 499.260452,59.211575 L499.220086,59.211575 C499.220086,59.211575 499.240269,60.4468691 499.179721,61.2039848 L498.3926,71 L497,71 L498.130226,57 Z" id="Fill-8" fill="#59595B"></path>
                <path d="M469,358.502429 L452.178787,351 C415.365122,433.496778 327.322462,480.733803 238.075197,465.865352 C229.702858,464.471331 221.367124,462.535005 213.297601,460.109608 L208,477.749466 C216.811587,480.394447 225.912678,482.507104 235.047046,484.030879 C332.563493,500.276716 428.76885,448.658007 469,358.502429" id="Fill-10" fill="#FEFEFE"></path>
                <path d="M396.356624,342 C381.662644,367.254536 359.366835,388.399339 330.84499,401.477878 C295.437527,417.716981 255.789431,419.292267 219.209381,405.913991 L213,422.885785 C254.083849,437.915947 298.615504,436.144166 338.383525,417.906815 C370.439787,403.206364 395.497171,379.430532 412,351.038746 L396.356624,342 Z" id="Fill-12" fill="#FEFEFE"></path>
                <path d="M60,224.98553 L77.9540628,229 C97.6932269,141.096376 174.565603,77.5549458 264.901033,74.4793973 C273.371122,74.1907536 281.917668,74.4395843 290.298004,75.2159364 L292,56.93185 C282.848448,56.0825076 273.517388,55.8137703 264.272757,56.1256382 C165.570288,59.4865128 81.5708043,128.923574 60,224.98553" id="Fill-14" fill="#FEFEFE"></path>
                <path d="M369.781864,99.7077039 C431.460425,135.562633 469.329613,202.273501 468.612344,273.810291 L486.989061,274 C487.772745,195.836721 446.396904,122.948674 379.00343,83.77218 C369.944578,78.5069338 360.47396,73.8740497 350.84727,70 L344,87.0937449 C352.8098,90.6416289 361.483451,94.8851111 369.781864,99.7077039" id="Fill-16" fill="#FEFEFE"></path>
                <path d="M450.645814,211 L433.005871,216.662099 C445.991387,256.66649 443.972236,300.011519 427.323452,338.710297 C424.2964,345.744622 420.813951,352.442552 417,358.860707 L433.092932,368 C437.25178,360.975667 441.052337,353.651576 444.360663,345.961114 C462.774112,303.172303 465.004219,255.240973 450.645814,211" id="Fill-18" fill="#FEFEFE"></path>
                <path d="M368.522447,411.186553 C310.975634,449.708224 233.164689,451.726986 172.674594,410.271337 C163.426177,403.930906 154.971716,396.797508 147.254736,389 L134,401.667646 C142.567409,410.34733 151.961994,418.280303 162.243549,425.327796 C229.198235,471.217452 315.34405,468.931064 379,426.209972 L368.522447,411.186553 Z" id="Fill-20" fill="#FEFEFE"></path>
                <path d="M95.8574237,339 L113.032587,332.39935 C97.9357348,293.355724 97.5267231,250.171358 111.885359,210.792892 C114.495718,203.635281 117.578269,196.785987 121,190.195283 L104.536451,182 C100.805467,189.210655 97.4402654,196.699791 94.5904852,204.523766 C78.7121884,248.066178 79.1611036,295.822265 95.8574237,339" id="Fill-22" fill="#FEFEFE"></path>
                <path d="M164.410967,136.739722 C219.370251,94.2916285 296.872506,87.3080603 359.865297,125.202668 C369.496206,130.996196 378.386532,137.639753 386.582769,145 L399,131.399543 C389.89713,123.209267 380.020466,115.815685 369.313551,109.375469 C299.589087,67.4307254 213.784324,75.2143204 153,122.279236 L164.410967,136.739722 Z" id="Fill-24" fill="#FEFEFE"></path>
                <path d="M116,222.318153 L133.109275,228 C147.697987,183.712272 181.272282,149.751234 225.224389,134.829717 C257.609802,123.836144 291.19406,124.953174 321.13197,135.686662 L327,118.591106 C293.419063,106.593873 255.763382,105.360139 219.452665,117.687479 C170.087492,134.449593 132.381998,172.585322 116,222.318153" id="Fill-26" fill="#FEFEFE"></path>
                <path d="M205.4773,213 L217.041769,256.290919 C217.880832,259.548487 218.298705,262.558016 218.298705,262.558016 L218.467844,262.558016 C218.467844,262.558016 218.719894,259.465807 219.55564,256.290919 L230.450186,213 L239,213 L223.495586,272 L213.857975,272 L203.633353,233.726065 C202.628468,229.965807 201.872317,225.368834 201.872317,225.368834 L201.706494,225.368834 C201.706494,225.368834 200.950343,229.965807 199.945458,233.726065 L189.720835,272 L180.083225,272 L165,213 L173.546498,213 L184.02317,256.290919 C184.776005,259.465807 185.110967,262.558016 185.110967,262.558016 L185.280106,262.558016 C185.280106,262.558016 185.697979,259.548487 186.537041,256.290919 L198.10151,213 L205.4773,213 Z" id="Fill-28" fill="#6C6E70"></path>
                <polygon id="Fill-30" fill="#6C6E70" points="250 213 284.568675 213 284.568675 220.186491 258.347729 220.186491 258.347729 238.657063 279.677479 238.657063 279.677479 245.843554 258.347729 245.843554 258.347729 264.813509 286 264.813509 286 272 250 272"></polygon>
                <polygon id="Fill-32" fill="#6C6E70" points="298 213 306.350339 213 306.350339 264.813509 333 264.813509 333 272 298 272"></polygon>
                <polygon id="Fill-34" fill="#6C6E70" points="343 213 351.350339 213 351.350339 264.813509 378 264.813509 378 272 343 272"></polygon>
                <path d="M189.37727,301.363147 C189.354264,301.386814 187.09635,303.851544 183.832728,303.851544 C179.642276,303.851544 177.453382,300.33195 177.453382,296.856309 C177.453382,292.90395 180.066252,290.148456 183.806435,290.148456 C186.80384,290.148456 189.009168,292.200707 189.032174,292.224374 L189.337831,292.515138 L191.46428,289.137544 L191.280228,288.931305 C191.17177,288.812971 188.608199,286 183.63553,286 C177.5717,286 173,290.692792 173,296.913785 C173,303.337636 177.496108,308 183.69469,308 C188.894136,308 191.704203,304.679883 191.819235,304.537882 L192,304.3215 L189.666494,301.038574 L189.37727,301.363147 Z" id="Fill-36" fill="#6C6E70"></path>
                <path d="M213.415399,296.856309 C213.415399,300.845858 210.656524,303.851544 206.99831,303.851544 C203.340095,303.851544 200.58122,300.845858 200.58122,296.856309 C200.58122,293.029046 203.340095,290.148456 206.99831,290.148456 C210.599047,290.148456 213.415399,293.093284 213.415399,296.856309 M206.99831,286 C200.831412,286 196,290.767174 196,296.856309 C196,303.104349 200.831412,308 206.99831,308 C213.168588,308 218,303.104349 218,296.856309 C218,290.767174 213.168588,286 206.99831,286" id="Fill-38" fill="#6C6E70"></path>
                <path d="M238.79008,286 L234.72577,296.258372 C234.485515,296.888272 234.218565,297.674814 234.02169,298.284717 C233.814804,297.674814 233.54118,296.884939 233.300925,296.255039 L229.236615,286 L224.718489,286 L223,307 L227.408008,307 L228.29228,295.321854 C228.315638,294.961911 228.328985,294.56864 228.335659,294.1887 C228.489155,294.62863 228.652662,295.068561 228.806158,295.435169 L232.159715,303.513887 L235.86698,303.513887 L239.250569,295.435169 C239.394054,295.085225 239.54755,294.671957 239.694373,294.255356 C239.701047,294.615299 239.714394,294.981908 239.734415,295.325186 L240.618686,307 L245,307 L243.308206,286 L238.79008,286 Z" id="Fill-40" fill="#6C6E70"></path>
                <path d="M266.79008,286 L262.72577,296.258372 C262.485515,296.888272 262.218565,297.674814 262.02169,298.284717 C261.814804,297.674814 261.54118,296.884939 261.300925,296.255039 L257.236615,286 L252.718489,286 L251,307 L255.408008,307 L256.29228,295.321854 C256.312301,294.961911 256.325648,294.56864 256.332322,294.1887 C256.489155,294.62863 256.652662,295.068561 256.806158,295.435169 L260.159715,303.513887 L263.86698,303.513887 L267.250569,295.435169 C267.394054,295.085225 267.54755,294.671957 267.694373,294.255356 C267.701047,294.615299 267.714394,294.981908 267.734415,295.325186 L268.618686,307 L273,307 L271.308206,286 L266.79008,286 Z" id="Fill-42" fill="#6C6E70"></path>
                <path d="M291.622318,299.115571 C291.622318,301.532719 290.076863,302.979072 287.486734,302.979072 C284.916504,302.979072 283.380999,301.542558 283.380999,299.141809 L283.380999,286 L279,286 L279,299.141809 C279,303.841637 282.425868,307 287.516582,307 C292.590714,307 296,303.841637 296,299.141809 L296,286 L291.622318,286 L291.622318,299.115571 Z" id="Fill-44" fill="#6C6E70"></path>
                <path d="M315.700019,298.071417 C315.700019,298.504682 315.726239,299.021266 315.759013,299.514522 C315.473877,298.961276 315.13958,298.354706 314.828224,297.874782 L307.165606,286 L303,286 L303,307 L307.329478,307 L307.329478,294.955245 C307.329478,294.525313 307.303258,294.005396 307.273761,293.512141 C307.562175,294.068719 307.889917,294.671957 308.201272,295.151881 L315.86389,307 L320,307 L320,286 L315.700019,286 L315.700019,298.071417 Z" id="Fill-46" fill="#6C6E70"></path>
                <mask id="mask-4" fill="white">
                    <use xlink:href="#path-3"></use>
                </mask>
                <g id="Clip-49"></g>
                <polygon id="Fill-48" fill="#6C6E70" mask="url(#mask-4)" points="328 307 332 307 332 286 328 286"></polygon>
                <polygon id="Fill-50" fill="#6C6E70" mask="url(#mask-4)" points="337 289.88605 343.764396 289.88605 343.764396 307 348.235604 307 348.235604 289.88605 355 289.88605 355 286 337 286"></polygon>
                <path d="M371.107208,286 L367.935531,292.162355 C367.570445,292.875575 367.234698,293.648786 367.006519,294.192033 C366.784861,293.645453 366.458892,292.872243 366.097066,292.159022 L362.892792,286 L358,286 L364.848606,298.248056 L364.848606,307 L369.151394,307 L369.151394,298.248056 L376,286 L371.107208,286 Z" id="Fill-51" fill="#6C6E70" mask="url(#mask-4)"></path>
                <path d="M182.545806,341.134277 C184.495836,341.134277 185.686794,339.933873 185.686794,338.008696 C185.686794,336.080283 184.495836,334.947826 182.568709,334.947826 L179.270672,334.947826 L179.270672,341.134277 L182.545806,341.134277 Z M177,333 L182.912255,333 C185.870018,333 188,334.973711 188,338.008696 C188,341.046916 185.870018,343.085339 182.912255,343.085339 L179.270672,343.085339 L179.270672,349 L177,349 L177,333 Z" id="Fill-52" fill="#6C6E70" mask="url(#mask-4)"></path>
                <polygon id="Fill-53" fill="#6C6E70" mask="url(#mask-4)" points="193 333 195.387341 333 195.387341 347.05178 203 347.05178 203 349 193 349"></polygon>
                <path d="M211.978773,335.196967 C211.978773,335.196967 211.613016,336.646512 211.338698,337.465116 L209.529508,342.541759 L214.424773,342.541759 L212.641707,337.465116 C212.36739,336.646512 212.024493,335.196967 212.024493,335.196967 L211.978773,335.196967 Z M215.022393,344.398989 L208.935153,344.398989 L207.334966,349 L205,349 L210.812923,333 L213.190343,333 L219,349 L216.64544,349 L215.022393,344.398989 Z" id="Fill-54" fill="#6C6E70" mask="url(#mask-4)"></path>
                <polygon id="Fill-55" fill="#6C6E70" mask="url(#mask-4)" points="225.808474 334.947826 220 334.947826 220 333 234 333 234 334.947826 228.184668 334.947826 228.184668 349 225.808474 349"></polygon>
                <polygon id="Fill-56" fill="#6C6E70" mask="url(#mask-4)" points="238 349 240.082 349 240.082 333 238 333"></polygon>
                <path d="M247,333 L249.253728,333 L256.47814,343.404531 C257.076068,344.262136 257.834976,345.71521 257.834976,345.71521 L257.884256,345.71521 C257.884256,345.71521 257.723275,344.28479 257.723275,343.404531 L257.723275,333 L260,333 L260,349 L257.765984,349 L250.518575,338.618123 C249.920647,337.737864 249.161739,336.288026 249.161739,336.288026 L249.115744,336.288026 C249.115744,336.288026 249.276725,337.711974 249.276725,338.618123 L249.276725,349 L247,349 L247,333 Z" id="Fill-57" fill="#6C6E70" mask="url(#mask-4)"></path>
                <path d="M266,333 L268.313559,333 L268.313559,343.795744 C268.313559,346.355211 269.952748,347.846261 272.473292,347.846261 C275.023883,347.846261 276.683102,346.355211 276.683102,343.75179 L276.683102,333 L279,333 L279,343.795744 C279,347.514916 276.359271,350 272.5,350 C268.640729,350 266,347.514916 266,343.795744 L266,333 Z" id="Fill-58" fill="#6C6E70" mask="url(#mask-4)"></path>
                <path d="M285.349045,333 L287.810461,333 L291.64459,341.656958 C292.026651,342.540453 292.472951,343.812298 292.472951,343.812298 L292.523667,343.812298 C292.523667,343.812298 292.973349,342.540453 293.352029,341.656958 L297.186158,333 L299.647574,333 L301,349 L298.677208,349 L297.848846,338.915858 C297.781225,337.938511 297.825179,336.559871 297.825179,336.559871 L297.781225,336.559871 C297.781225,336.559871 297.280827,338.032362 296.878481,338.915858 L293.541368,346.122977 L291.458632,346.122977 L288.141806,338.915858 C287.763126,338.055016 287.242442,336.511327 287.242442,336.511327 L287.195107,336.511327 C287.195107,336.511327 287.218775,337.938511 287.147772,338.915858 L286.343079,349 L284,349 L285.349045,333 Z" id="Fill-59" fill="#6C6E70" mask="url(#mask-4)"></path>
                <path d="M314,348.721957 C314,342.750994 322.273038,341.898966 322.273038,337.970167 C322.273038,336.313445 321.006826,335.201074 319.235495,335.201074 C317.013652,335.201074 315.819113,337.331146 315.819113,337.331146 L314.071672,336.17144 C314.071672,336.17144 315.604096,333 319.40273,333 C322.511945,333 324.737201,334.917064 324.737201,337.804495 C324.737201,343.298727 316.679181,344.150756 316.631399,347.961217 L325,347.961217 L325,350 L314.119454,350 C314.051195,349.550318 314,349.124304 314,348.721957" id="Fill-60" fill="#6C6E70" mask="url(#mask-4)"></path>
                <path d="M338.569099,341.476721 C338.569099,337.915102 337.779399,335.118349 334.987983,335.118349 C332.220601,335.118349 331.427468,337.915102 331.427468,341.476721 C331.427468,345.064945 332.220601,347.881651 334.987983,347.881651 C337.779399,347.881651 338.569099,345.064945 338.569099,341.476721 M329,341.476721 C329,336.747848 330.466094,333 334.987983,333 C339.530472,333 341,336.747848 341,341.476721 C341,346.228873 339.530472,350 334.987983,350 C330.466094,350 329,346.228873 329,341.476721" id="Fill-61" fill="#6C6E70" mask="url(#mask-4)"></path>
                <path d="M345.121612,347.048938 L348.915914,347.048938 L348.915914,336.717695 C348.915914,336.216178 348.943711,335.717897 348.943711,335.717897 L348.891591,335.717897 C348.891591,335.717897 348.697012,336.080283 348.064628,336.646512 L346.459347,338.118706 L345,336.717695 L349.110493,333 L351.254343,333 L351.254343,347.048938 L355,347.048938 L355,349 L345.121612,349 L345.121612,347.048938 Z" id="Fill-62" fill="#6C6E70" mask="url(#mask-4)"></path>
                <path d="M365.598487,336.397371 C366.064448,335.494641 366.553707,334.925177 366.553707,334.925177 L366.553707,334.879879 C366.553707,334.879879 366.180938,334.947826 365.342209,334.947826 L358,334.947826 L358,333 L369,333 L369,334.540142 L361.564599,349 L359.1882,349 L365.598487,336.397371 Z" id="Fill-63" fill="#6C6E70" mask="url(#mask-4)"></path>
            </g>
        </g>
    </g>
</svg>