<?xml version="1.0" encoding="UTF-8"?>
<svg width="555px" height="555px" viewBox="0 0 555 555" version="1.1" xmlns="http://www.w3.org/2000/svg" xmlns:xlink="http://www.w3.org/1999/xlink">
    <!-- Generator: Sketch 48.2 (47327) - http://www.bohemiancoding.com/sketch -->
    <title>2017 WELL Community Seal / Platinum</title>
    <desc>Created with Sketch.</desc>
    <defs>
        <polygon id="path-1" points="0 0.530366646 545.468451 0.530366646 545.468451 546 0 546"></polygon>
    </defs>
    <g id="Symbols" stroke="none" stroke-width="1" fill="none" fill-rule="evenodd">
        <g id="2017-WELL-Community-Seal-/-Platinum">
            <g id="Page-1" transform="translate(4.000000, 4.000000)">
                <g id="Group-3" transform="translate(0.000000, 0.785281)">
                    <mask id="mask-2" fill="white">
                        <use xlink:href="#path-1"></use>
                    </mask>
                    <g id="Clip-2"></g>
                    <path d="M545.446576,276.687004 C547.334592,126.073427 426.768878,2.44344512 276.155301,0.552087187 C125.541723,-1.33592913 1.91174183,119.229785 0.0203838929,269.843363 C-1.86763242,420.460282 118.698082,544.090263 269.311659,545.978279 C419.928578,547.866296 543.55856,427.300581 545.446576,276.687004" id="Fill-1" fill="#D0D2D3" mask="url(#mask-2)"></path>
                </g>
                <path d="M275.267098,48.8107866 C151.06904,47.2535909 48.7619477,147.027734 47.2047519,271.22245 C45.6442146,395.417165 145.418358,497.7276 269.616415,499.288137 C393.811131,500.845333 496.121565,401.067848 497.678761,276.873132 C499.239298,152.678417 399.461813,50.3679824 275.267098,48.8107866 M269.385843,517.496634 C135.149554,515.812457 27.3087358,405.23485 28.9929132,270.99522 C30.6770905,136.755589 141.258039,28.9147705 275.494328,30.5989479 C409.733959,32.2831252 517.571435,142.864074 515.887258,277.103704 C514.203081,411.339993 403.625474,519.180812 269.385843,517.496634" id="Fill-4" fill="#9C9EA1"></path>
                <polygon id="Fill-6" fill="#59595B" points="494.340815 62.2875473 489.271575 62.2240565 489.284941 60.9809732 500.786803 61.1246629 500.773437 62.3677462 495.720905 62.3042554 495.560507 75.1494496 494.180417 75.1293999"></polygon>
                <path d="M503.659596,61.1607525 L505.103176,61.1774606 L508.685395,69.5014404 C508.996166,70.2265724 509.347036,71.2324005 509.347036,71.2324005 L509.383794,71.2324005 C509.383794,71.2324005 509.778105,70.2365972 510.108926,69.5181486 L513.898325,61.2877341 L515.321856,61.3077838 L516.267535,75.4060862 L514.884103,75.389378 L514.229145,65.5215689 C514.175679,64.7596791 514.209096,63.5566953 514.209096,63.5566953 L514.172338,63.5566953 C514.172338,63.5566953 513.734585,64.796437 513.407106,65.511544 L510.008677,72.7027141 L508.708786,72.686006 L505.490804,65.414637 C505.176692,64.7062132 504.755648,63.3996391 504.755648,63.3996391 L504.715548,63.3996391 C504.715548,63.3996391 504.71889,64.6427224 504.648716,65.4012705 L503.743136,75.2490299 L502.359705,75.2323218 L503.659596,61.1607525 Z" id="Fill-8" fill="#59595B"></path>
                <path d="M469.859091,363.744606 L453.0641,355.998726 C415.056494,438.389753 326.059081,484.717998 236.627257,468.661505 C228.239786,467.154434 219.895756,465.10602 211.822398,462.569729 L206.281989,480.216833 C215.093846,482.983696 224.206448,485.222583 233.35915,486.866661 C331.074855,504.410175 428.326074,453.781263 469.859091,363.744606" id="Fill-10" fill="#9C9EA1"></path>
                <path d="M397.182827,346.680614 C382.128821,371.833001 359.496017,392.768262 330.721311,405.529916 C295.002716,421.375886 255.217367,422.458572 218.690099,408.577475 L212.247452,425.52618 C253.272543,441.121529 297.95671,439.905179 338.076221,422.107701 C370.416437,407.762119 395.84952,384.223735 412.758126,355.946931 L397.182827,346.680614 Z" id="Fill-12" fill="#9C9EA1"></path>
                <path d="M60.5942963,225.042239 L78.5889296,229.312832 C99.5408983,141.030526 177.61455,78.0041971 268.453197,76.0493484 C276.974332,75.8655592 285.558959,76.2231127 293.973162,77.1119841 L295.914645,58.7163561 C286.725185,57.7472858 277.351936,57.356316 268.055544,57.5568134 C168.799352,59.6954513 83.4877472,128.566276 60.5942963,225.042239" id="Fill-14" fill="#9C9EA1"></path>
                <path d="M374.172085,102.684413 C435.781566,139.458961 473.047333,206.912939 471.423304,278.724391 L489.912498,279.142094 C491.686899,200.684155 450.969237,126.984687 383.652266,86.8016848 C374.603155,81.401624 365.129657,76.6331297 355.49242,72.6231835 L348.388132,89.6955293 C357.206671,93.3679716 365.884863,97.7388129 374.172085,102.684413" id="Fill-16" fill="#9C9EA1"></path>
                <path d="M453.328422,215.866146 L435.657926,221.326356 C448.108809,261.622973 445.549127,305.080764 428.446706,343.693204 C425.338998,350.713952 421.780171,357.390512 417.893865,363.783034 L433.836742,373.1496 C438.073919,366.155586 441.960225,358.854142 445.358654,351.18512 C464.268892,308.485877 467.099246,260.430014 453.328422,215.866146" id="Fill-18" fill="#9C9EA1"></path>
                <path d="M369.029998,415.79638 C310.658548,454.024533 232.367691,455.087169 172.051418,412.397951 C162.828542,405.868422 154.414338,398.55027 146.751999,390.567136 L133.261872,403.211832 C141.769641,412.097205 151.116157,420.237396 161.368253,427.495398 C228.130515,474.74593 314.808843,473.522897 379.379,431.124399 L369.029998,415.79638 Z" id="Fill-20" fill="#9C9EA1"></path>
                <path d="M95.7772297,340.579481 L113.116905,334.143517 C98.4405022,294.602107 98.5775087,251.0708 113.504533,211.566147 C116.21793,204.385002 119.399154,197.517969 122.924565,190.921607 L106.483786,182.453938 C102.640921,189.671841 99.1689758,197.180465 96.2016156,205.026593 C79.6973456,248.711615 79.5469726,296.851018 95.7772297,340.579481" id="Fill-22" fill="#9C9EA1"></path>
                <path d="M166.990198,137.415559 C222.822014,95.5617463 300.885641,89.5368022 363.784988,128.316323 C373.405517,134.247702 382.267498,141.021169 390.421055,148.499719 L403.08246,135.0263 C394.026665,126.698978 384.185589,119.163621 373.492399,112.573943 C303.866368,69.6474693 217.442003,76.3674707 155.692174,122.775914 L166.990198,137.415559 Z" id="Fill-24" fill="#9C9EA1"></path>
                <path d="M117.629765,222.143048 L134.775627,228.054377 C150.010081,183.854746 184.218263,150.251397 228.628416,135.852349 C261.349577,125.242699 295.12669,126.78987 325.114404,137.920812 L331.236255,120.861833 C297.596149,108.417634 259.725549,106.706723 223.034542,118.599555 C173.154153,134.773005 134.735527,172.513281 117.629765,222.143048" id="Fill-26" fill="#9C9EA1"></path>
                <path d="M207.526409,214.599671 L218.630618,258.48519 C219.432607,261.786712 219.816894,264.83093 219.816894,264.83093 L219.987317,264.834272 C219.987317,264.834272 220.278038,261.713197 221.163568,258.515265 L232.688821,214.913784 L241.30018,215.024057 L224.932917,274.438093 L215.222164,274.317794 L205.404479,235.514882 C204.442092,231.705433 203.740352,227.050554 203.740352,227.050554 L203.569929,227.047212 C203.569929,227.047212 202.751231,231.682042 201.691937,235.471441 L190.905182,274.010365 L181.194429,273.890067 L166.745257,214.088403 L175.356616,214.195335 L185.361432,258.067487 C186.083222,261.285469 186.380626,264.413227 186.380626,264.413227 L186.547707,264.413227 C186.547707,264.413227 187.008851,261.379035 187.894381,258.097562 L200.094642,214.506106 L207.526409,214.599671 Z" id="Fill-28" fill="#6C6E70"></path>
                <polygon id="Fill-30" fill="#6C6E70" points="252.107654 215.158724 286.726855 215.593135 286.636632 222.854479 260.374826 222.523659 260.140912 241.186617 281.503901 241.453946 281.413677 248.71529 260.050689 248.447961 259.810092 267.612162 287.505453 267.95969 287.41523 275.221035 251.35913 274.769916"></polygon>
                <polygon id="Fill-32" fill="#6C6E70" points="300.488991 215.765897 308.849728 215.869487 308.191429 268.219334 334.874279 268.556838 334.780713 275.818182 299.740467 275.377088"></polygon>
                <polygon id="Fill-34" fill="#6C6E70" points="345.155112 216.326287 353.512509 216.429877 352.857551 268.779724 379.540401 269.117228 379.446835 276.378572 344.406589 275.937478"></polygon>
                <path d="M190.395919,302.85892 C190.372528,302.882311 188.046759,305.291621 184.728528,305.24818 C180.467961,305.194714 178.285882,301.689352 178.329323,298.254165 C178.376105,294.347809 181.066111,291.654462 184.868877,291.704587 C187.919777,291.741344 190.135273,293.799783 190.155322,293.823175 L190.466093,294.113896 L192.668222,290.802349 L192.484433,290.59851 C192.374159,290.478211 189.804452,287.664566 184.748578,287.601075 C178.583286,287.524218 173.878283,292.10224 173.801425,298.250824 C173.721226,304.599905 178.235757,309.264809 184.534714,309.345008 C189.82116,309.41184 192.718346,306.167126 192.838645,306.030119 L193.025775,305.816255 L190.696665,302.541466 L190.395919,302.85892 Z" id="Fill-36" fill="#6C6E70"></path>
                <path d="M214.285173,298.703613 C214.235049,302.646727 211.471528,305.584013 207.855893,305.53723 C204.240258,305.493789 201.550253,302.486329 201.600377,298.543216 C201.64716,294.763841 204.410681,291.946854 208.026316,291.993637 C211.581801,292.037078 214.331956,294.984388 214.285173,298.703613 M208.07644,287.896809 C201.981322,287.819951 197.149337,292.471489 197.072479,298.486408 C196.995622,304.661725 201.71065,309.560543 207.805769,309.6374 C213.900887,309.714257 218.739555,304.935738 218.816412,298.760421 C218.889928,292.74216 214.1749,287.970324 208.07644,287.896809" id="Fill-38" fill="#6C6E70"></path>
                <path d="M240.010649,288.641656 L235.81023,298.877044 C235.56295,299.501927 235.288937,300.287208 235.081756,300.895383 C234.881259,300.283866 234.617271,299.48856 234.386699,298.853652 L230.443585,288.521358 L225.91903,288.46455 L223.934106,309.496718 L228.35173,309.553525 L229.38095,297.854507 C229.407683,297.496954 229.427732,297.102642 229.437757,296.721697 C229.58813,297.162792 229.748528,297.603886 229.895559,297.974806 L233.150299,306.118338 L236.862841,306.161779 L240.351494,298.108471 C240.501867,297.7576 240.658923,297.343239 240.809296,296.928878 C240.812638,297.289773 240.822663,297.660693 240.839371,298.001539 L241.577869,309.717265 L245.965419,309.774072 L244.535205,288.698464 L240.010649,288.641656 Z" id="Fill-40" fill="#6C6E70"></path>
                <path d="M268.040172,288.993529 L263.839754,299.228916 C263.592474,299.8538 263.318461,300.639081 263.11128,301.247256 C262.910783,300.635739 262.646795,299.840433 262.412881,299.205525 L258.473109,288.87323 L253.948553,288.816423 L251.96363,309.84859 L256.381254,309.902056 L257.410473,298.20638 C257.437206,297.848827 257.453914,297.454515 257.467281,297.07357 C257.617654,297.514664 257.778052,297.955758 257.925083,298.326678 L261.179823,306.470211 L264.892364,306.513652 L268.381018,298.460343 C268.531391,298.109473 268.688447,297.695112 268.83882,297.280751 C268.842161,297.641646 268.852186,298.012566 268.868894,298.353411 L269.607393,310.069137 L273.994942,310.125945 L272.564728,289.050336 L268.040172,288.993529 Z" id="Fill-42" fill="#6C6E70"></path>
                <path d="M293.180864,302.673126 C293.150789,305.135901 291.573544,306.589507 288.963737,306.55609 C286.37398,306.522674 284.846859,305.042336 284.876934,302.596269 L285.044015,289.20639 L280.633074,289.152924 L280.465993,302.539461 C280.405844,307.331347 283.814298,310.589428 288.943687,310.65626 C294.056369,310.719751 297.531655,307.54521 297.591805,302.753325 L297.758886,289.366788 L293.347945,289.30998 L293.180864,302.673126 Z" id="Fill-44" fill="#6C6E70"></path>
                <path d="M317.584728,301.719427 C317.578044,302.153838 317.598094,302.671789 317.624827,303.166349 C317.340789,302.608298 317.009969,301.996782 316.699198,301.512246 L309.036859,289.509141 L304.789658,289.455675 L304.52567,310.507892 L308.939952,310.561358 L309.090325,298.488079 C309.097008,298.05701 309.076959,297.535717 309.050226,297.041157 C309.337605,297.602549 309.665084,298.214066 309.975855,298.695259 L317.638194,310.671632 L321.858662,310.725098 L322.12265,289.67288 L317.735101,289.616073 L317.584728,301.719427 Z" id="Fill-46" fill="#6C6E70"></path>
                <polygon id="Fill-48" fill="#6C6E70" points="329.170465 310.816992 333.581405 310.8738 333.845394 289.818241 329.434453 289.764775"></polygon>
                <polygon id="Fill-50" fill="#6C6E70" points="338.646302 293.776058 345.31952 293.859598 345.102315 311.015485 349.516597 311.072292 349.730461 293.916406 356.40368 293.999947 356.453804 290.103616 338.696426 289.879727"></polygon>
                <path d="M372.790659,290.307454 L369.462404,296.442672 C369.078117,297.157779 368.723905,297.926352 368.483308,298.467695 C368.262761,297.916327 367.938624,297.134388 367.577729,296.415939 L364.373114,290.200523 L359.357339,290.140373 L366.22103,302.504374 L366.110757,311.279473 L370.521698,311.33628 L370.631971,302.561182 L377.806433,290.370945 L372.790659,290.307454 Z" id="Fill-52" fill="#6C6E70"></path>
                <path d="M182.330247,343.136824 C184.321853,343.160216 185.554912,341.937182 185.578303,339.948917 C185.601694,337.960652 184.402052,336.774376 182.433837,336.747643 L179.065482,336.704202 L178.985283,343.093383 L182.330247,343.136824 Z M176.769788,334.665813 L182.81144,334.74267 C185.828925,334.779428 187.980929,336.84455 187.94083,339.978992 C187.90073,343.116774 185.698601,345.191922 182.681117,345.155164 L178.961892,345.108381 L178.885034,351.216866 L176.562607,351.186791 L176.769788,334.665813 Z" id="Fill-54" fill="#58585B"></path>
                <polygon id="Fill-56" fill="#58585B" points="192.83831 334.868315 195.157396 334.89839 194.976948 349.40437 202.371957 349.497935 202.345224 351.509592 192.63113 351.389293"></polygon>
                <path d="M212.371761,337.381549 C212.371761,337.381549 211.977449,338.875254 211.686728,339.717343 L209.771979,344.933614 L214.777728,344.997105 L213.020035,339.734051 C212.752705,338.885279 212.418543,337.381549 212.418543,337.381549 L212.371761,337.381549 Z M215.365854,346.921879 L209.140412,346.845022 L207.442868,351.573417 L205.053609,351.543342 L211.205535,335.099221 L213.641577,335.129296 L219.379142,351.72379 L216.966491,351.693715 L215.365854,346.921879 Z" id="Fill-58" fill="#58585B"></path>
                <polygon id="Fill-60" fill="#58585B" points="226.376832 337.299345 220.716124 337.229171 220.739516 335.217515 234.383358 335.387937 234.356625 337.399594 228.692576 337.32942 228.512128 351.838742 226.196384 351.808667"></polygon>
                <polygon id="Fill-62" fill="#58585B" points="238.61218 335.44274 240.931265 335.472815 240.724085 351.993793 238.404999 351.963718"></polygon>
                <path d="M247.292043,335.551343 L249.584395,335.581417 L256.795615,346.414955 C257.393765,347.31051 258.14563,348.817581 258.14563,348.817581 L258.195754,348.817581 C258.195754,348.817581 258.052065,347.340584 258.06209,346.431663 L258.195754,335.688349 L260.51484,335.718424 L260.307659,352.239402 L258.035357,352.209327 L250.797404,341.399181 C250.199253,340.480235 249.447389,338.973163 249.447389,338.973163 L249.400606,338.973163 C249.400606,338.973163 249.547637,340.446819 249.537612,341.382473 L249.400606,352.102395 L247.084862,352.072321 L247.292043,335.551343 Z" id="Fill-64" fill="#58585B"></path>
                <path d="M266.635354,335.794279 L268.951098,335.824353 L268.817433,346.494152 C268.787359,349.023759 270.404704,350.514123 272.93097,350.547539 C275.483969,350.577613 277.161463,349.12735 277.194879,346.554301 L277.328544,335.927944 L279.644288,335.958018 L279.510623,346.627816 C279.46384,350.300259 276.790543,352.726276 272.93097,352.676152 C269.068055,352.629369 266.454907,350.139861 266.50169,346.464077 L266.635354,335.794279 Z" id="Fill-66" fill="#58585B"></path>
                <path d="M286.585505,336.044566 L289.014864,336.074641 L292.697331,345.060262 C293.058226,345.979208 293.485954,347.295807 293.485954,347.295807 L293.536078,347.295807 C293.536078,347.295807 293.997222,345.989233 294.381508,345.080311 L298.284523,336.191597 L300.717223,336.221672 L301.846692,352.759358 L299.550997,352.729284 L298.862623,342.306765 C298.805816,341.297596 298.869307,339.874065 298.869307,339.874065 L298.825865,339.874065 C298.825865,339.874065 298.314597,341.387819 297.903578,342.29674 L294.511832,349.695091 L292.453393,349.668358 L289.268827,342.186467 C288.90459,341.290912 288.41003,339.693617 288.41003,339.693617 L288.363248,339.693617 C288.363248,339.693617 288.369931,341.167272 288.28639,342.176442 L287.360761,352.578911 L285.045017,352.548836 L286.585505,336.044566 Z" id="Fill-68" fill="#58585B"></path>
                <path d="M314.619373,351.656623 C314.692888,345.758661 322.803004,345.016821 322.853129,341.133856 C322.873178,339.496461 321.646803,338.38036 319.912501,338.36031 C317.737106,338.330235 316.540805,340.422091 316.540805,340.422091 L314.846603,339.255865 C314.846603,339.255865 316.383749,336.138132 320.102974,336.184914 C323.147191,336.221672 325.299196,338.146446 325.26578,340.99685 C325.195606,346.426985 317.299353,347.172167 317.202446,350.938174 L325.396103,351.041765 L325.372711,353.053421 L314.719621,352.919756 C314.659472,352.47532 314.616031,352.054276 314.619373,351.656623" id="Fill-70" fill="#58585B"></path>
                <path d="M339.457647,344.944976 C339.501088,341.366099 338.769273,338.54577 336.052535,338.512354 C333.362529,338.478938 332.553857,341.279217 332.507074,344.858094 C332.463633,348.463704 333.19879,351.30074 335.892137,351.337498 C338.605534,351.370914 339.410865,348.550586 339.457647,344.944976 M330.144547,344.828019 C330.204697,340.076233 331.678352,336.330275 336.079268,336.383741 C340.500233,336.440548 341.883665,340.223264 341.823516,344.97505 C341.763366,349.746886 340.28637,353.522919 335.865404,353.466111 C331.464488,353.412645 330.084398,349.603197 330.144547,344.828019" id="Fill-72" fill="#58585B"></path>
                <path d="M346.39452,351.304416 L350.043571,351.351199 L350.177236,340.681401 C350.183919,340.163449 350.213994,339.648839 350.213994,339.648839 L350.167211,339.648839 C350.167211,339.648839 349.976739,340.023101 349.358539,340.59786 L347.79466,342.098248 L346.411228,340.631276 L350.414491,336.845219 L352.47293,336.871952 L352.292482,351.377932 L355.894751,351.424715 L355.868018,353.436371 L346.367787,353.316073 L346.39452,351.304416 Z" id="Fill-74" fill="#58585B"></path>
                <path d="M366.975569,340.561436 C367.453421,339.632465 367.954664,339.054365 367.954664,339.054365 L367.954664,339.007582 C367.954664,339.007582 367.577061,339.071073 366.734972,339.061048 L359.366696,338.967483 L359.390087,336.959168 L370.437489,337.096174 L370.417439,338.686786 L362.761784,353.523587 L360.379207,353.493513 L366.975569,340.561436 Z" id="Fill-76" fill="#58585B"></path>
            </g>
        </g>
    </g>
</svg>