<?xml version="1.0" encoding="UTF-8"?>
<svg width="555px" height="555px" viewBox="0 0 555 555" version="1.1" xmlns="http://www.w3.org/2000/svg" xmlns:xlink="http://www.w3.org/1999/xlink">
    <!-- Generator: Sketch 48.2 (47327) - http://www.bohemiancoding.com/sketch -->
    <title>2017 WELL Community Seal / Silver</title>
    <desc>Created with Sketch.</desc>
    <defs>
        <polygon id="path-1" points="0.00133738242 0.234293098 545.765707 0.234293098 545.765707 545.999331 0.00133738242 545.999331"></polygon>
        <polygon id="path-3" points="0 547.005525 546 547.005525 546 0 0 0"></polygon>
    </defs>
    <g id="Symbols" stroke="none" stroke-width="1" fill="none" fill-rule="evenodd">
        <g id="2017-WELL-Community-Seal-/-Silver">
            <g id="Page-1" transform="translate(4.000000, 5.000000)">
                <g id="Group-3">
                    <mask id="mask-2" fill="white">
                        <use xlink:href="#path-1"></use>
                    </mask>
                    <g id="Clip-2"></g>
                    <path d="M545.767044,273.116478 C545.767044,122.406852 423.593816,0.233624407 272.884191,0.233624407 C122.174565,0.233624407 0.00133738242,122.406852 0.00133738242,273.116478 C0.00133738242,423.826103 122.174565,545.999331 272.884191,545.999331 C423.593816,545.999331 545.767044,423.826103 545.767044,273.116478" id="Fill-1" fill="#E5E6E7" mask="url(#mask-2)"></path>
                </g>
                <path d="M273.001673,47.3999278 C148.60602,47.3999278 47.4000529,148.6052 47.4000529,273 C47.4000529,397.3948 148.60602,498.600072 273.001673,498.600072 C397.397327,498.600072 498.603294,397.3948 498.603294,273 C498.603294,148.6052 397.397327,47.3999278 273.001673,47.3999278 M273.001673,516.839779 C138.545665,516.839779 29.160221,407.455086 29.160221,273 C29.160221,138.544914 138.545665,29.160221 273.001673,29.160221 C407.457682,29.160221 516.839779,138.544914 516.839779,273 C516.839779,407.455086 407.457682,516.839779 273.001673,516.839779" id="Fill-4" fill="#C6C7C9"></path>
                <polygon id="Fill-6" fill="#59595B" points="491.993999 58.5570361 486.674033 58.5570361 486.674033 57.3149171 498.740331 57.3149171 498.740331 58.5570361 493.441394 58.5570361 493.441394 71.3922652 491.993999 71.3922652"></polygon>
                <path d="M501.887851,57.3149171 L503.349027,57.3149171 L507.079761,65.585693 C507.404467,66.3069234 507.769761,67.3086322 507.769761,67.3086322 L507.810349,67.3086322 C507.810349,67.3086322 508.195937,66.3069234 508.520643,65.585693 L512.251377,57.3149171 L513.692259,57.3149171 L514.828729,71.3922652 L513.428436,71.3922652 L512.640348,61.5421284 C512.576083,60.7808297 512.596377,59.5787791 512.596377,59.5787791 L512.555789,59.5787791 C512.555789,59.5787791 512.129613,60.820898 511.808289,61.5421284 L508.459761,68.7677881 L507.144026,68.7677881 L503.792115,61.5421284 C503.470792,60.8409322 503.024322,59.5387107 503.024322,59.5387107 L502.983733,59.5387107 C502.983733,59.5387107 503.004027,60.7808297 502.943145,61.5421284 L502.151675,71.3922652 L500.751381,71.3922652 L501.887851,57.3149171 Z" id="Fill-8" fill="#59595B"></path>
                <path d="M470.585635,360.538575 L453.736293,352.939227 C416.861065,436.501733 328.671174,484.348986 239.274662,469.288458 C230.888323,467.876429 222.538649,465.915089 214.455631,463.458359 L209.149171,481.326096 C217.975493,484.005246 227.091804,486.145196 236.241447,487.688655 C333.920969,504.144363 430.287208,451.858821 470.585635,360.538575" id="Fill-10" fill="#C6C7C9"></path>
                <path d="M397.619959,343.889503 C382.919043,369.283566 360.612712,390.545192 332.077405,403.695988 C296.653231,420.02481 256.986422,421.608799 220.389107,408.15661 L214.176796,425.22217 C255.280036,440.335372 299.832708,438.553802 339.619498,420.215692 C371.69089,405.434023 396.7601,381.526833 413.270718,352.978186 L397.619959,343.889503 Z" id="Fill-12" fill="#C6C7C9"></path>
                <path d="M59.3259669,225.223019 L77.4570392,229.259669 C97.3908121,140.870389 175.021075,76.9779013 266.247123,73.8853608 C274.80072,73.5951224 283.431526,73.8453279 291.894484,74.6259692 L293.61326,56.2408657 C284.371482,55.3868308 274.948427,55.1166088 265.612653,55.4301998 C165.937075,58.8096427 81.1094381,128.630334 59.3259669,225.223019" id="Fill-14" fill="#C6C7C9"></path>
                <path d="M371.824858,100.258575 C433.844184,136.311597 471.922595,203.391035 471.201362,275.323055 L489.679609,275.513812 C490.467622,196.918692 448.863185,123.627948 381.097372,84.2350097 C371.988471,78.9406738 362.465529,74.2821936 352.785653,70.3867403 L345.900552,87.5749258 C354.759025,91.1424114 363.480597,95.4093382 371.824858,100.258575" id="Fill-16" fill="#C6C7C9"></path>
                <path d="M452.348786,211.160221 L435.023882,216.817338 C447.777485,256.786536 445.794395,300.093432 429.442948,338.758165 C426.469958,345.786301 423.049704,352.478338 419.303867,358.890847 L435.109389,368.022099 C439.193962,361.003946 442.926643,353.686299 446.175885,346.002602 C464.260479,303.251435 466.450758,255.362273 452.348786,211.160221" id="Fill-18" fill="#C6C7C9"></path>
                <path d="M371.521006,413.777004 C313.420072,453.064852 234.859882,455.123766 173.787325,412.843585 C164.449855,406.377046 155.913985,399.101768 148.122697,391.149171 L134.740331,404.068771 C143.390237,412.921089 152.875282,421.011845 163.255839,428.199509 C230.855234,475.001887 317.830551,472.670024 382.099448,429.099231 L371.521006,413.777004 Z" id="Fill-20" fill="#C6C7C9"></path>
                <path d="M96.3870227,341.878453 L113.657076,335.19906 C98.4768162,295.689664 98.0655448,251.990132 112.50351,212.141901 C115.128291,204.898903 118.227872,197.967901 121.668508,191.298573 L105.114,183.005525 C101.362403,190.302199 97.9786094,197.880677 95.1130846,205.797988 C79.1470624,249.859838 79.5984578,298.18563 96.3870227,341.878453" id="Fill-22" fill="#C6C7C9"></path>
                <path d="M164.31379,137.49519 C219.576717,94.8125767 297.507161,87.7904253 360.847978,125.894395 C370.532097,131.719932 379.471541,138.400193 387.71306,145.801105 L400.198895,132.125507 C391.045733,123.889982 381.114502,116.455551 370.348433,109.979753 C300.23875,67.8032708 213.959928,75.6298691 152.839779,122.954812 L164.31379,137.49519 Z" id="Fill-24" fill="#C6C7C9"></path>
                <path d="M117.646409,221.583391 L134.931745,227.248619 C149.67058,183.090429 183.590368,149.228724 227.994759,134.350852 C260.71343,123.389434 294.643283,124.503197 324.889266,135.205291 L330.81768,118.159737 C296.891182,106.197596 258.848009,104.96747 222.163642,117.258753 C172.290482,133.97184 134.196984,171.996025 117.646409,221.583391" id="Fill-26" fill="#C6C7C9"></path>
                <path d="M207.618059,214.176796 L219.24642,257.706891 C220.090118,260.982456 220.5103,264.008612 220.5103,264.008612 L220.680373,264.008612 C220.680373,264.008612 220.933816,260.89932 221.77418,257.706891 L232.728916,214.176796 L241.325967,214.176796 L225.735893,273.502762 L216.045036,273.502762 L205.763924,235.017369 C204.753487,231.236336 203.993158,226.613966 203.993158,226.613966 L203.826419,226.613966 C203.826419,226.613966 203.066091,231.236336 202.055654,235.017369 L191.774542,273.502762 L182.083685,273.502762 L166.917127,214.176796 L175.510843,214.176796 L186.045398,257.706891 C186.802392,260.89932 187.139204,264.008612 187.139204,264.008612 L187.309278,264.008612 C187.309278,264.008612 187.729459,260.982456 188.573157,257.706891 L200.201519,214.176796 L207.618059,214.176796 Z" id="Fill-28" fill="#6C6E70"></path>
                <polygon id="Fill-30" fill="#6C6E70" points="251.381215 214.176796 285.175331 214.176796 285.175331 221.402991 259.541902 221.402991 259.541902 239.97561 280.39373 239.97561 280.39373 247.201805 259.541902 247.201805 259.541902 266.276567 286.574586 266.276567 286.574586 273.502762 251.381215 273.502762"></polygon>
                <polygon id="Fill-32" fill="#6C6E70" points="299.646409 214.176796 308.042882 214.176796 308.042882 266.276567 334.839779 266.276567 334.839779 273.502762 299.646409 273.502762"></polygon>
                <polygon id="Fill-34" fill="#6C6E70" points="344.895028 214.176796 353.291501 214.176796 353.291501 266.276567 380.088398 266.276567 380.088398 273.502762 344.895028 273.502762"></polygon>
                <path d="M191.290277,301.320429 C191.265926,301.343145 188.876044,303.708841 185.421672,303.708841 C180.9863,303.708841 178.669471,300.330666 178.669471,296.994679 C178.669471,293.201129 181.435055,290.556353 185.393842,290.556353 C188.566437,290.556353 190.90066,292.526143 190.925012,292.548859 L191.248533,292.82794 L193.499267,289.586061 L193.304458,289.388108 C193.18966,289.274529 190.476256,286.574586 185.212948,286.574586 C178.794705,286.574586 173.955801,291.078818 173.955801,297.049846 C173.955801,303.215582 178.714694,307.690608 185.275566,307.690608 C190.778905,307.690608 193.753213,304.503896 193.874969,304.367601 L194.066298,304.159913 L191.596405,301.008897 L191.290277,301.320429 Z" id="Fill-36" fill="#6C6E70"></path>
                <path d="M213.798507,296.994679 C213.798507,300.823925 211.150486,303.708841 207.639261,303.708841 C204.128037,303.708841 201.480016,300.823925 201.480016,296.994679 C201.480016,293.321199 204.128037,290.556353 207.639261,290.556353 C211.095319,290.556353 213.798507,293.382856 213.798507,296.994679 M207.639261,286.574586 C201.720155,286.574586 197.082873,291.150211 197.082873,296.994679 C197.082873,302.991668 201.720155,307.690608 207.639261,307.690608 C213.561613,307.690608 218.198895,302.991668 218.198895,296.994679 C218.198895,291.150211 213.561613,286.574586 207.639261,286.574586" id="Fill-38" fill="#6C6E70"></path>
                <path d="M240.109363,288.585635 L236.022597,298.900683 C235.781015,299.534063 235.51259,300.324951 235.314627,300.938223 C235.106598,300.324951 234.831463,299.530712 234.589881,298.897332 L230.503115,288.585635 L225.960028,288.585635 L224.232044,309.701657 L228.664406,309.701657 L229.553563,297.958991 C229.57705,297.597059 229.590471,297.201616 229.597182,296.819577 C229.751526,297.261938 229.915936,297.704298 230.07028,298.072932 L233.442365,306.196284 L237.170113,306.196284 L240.572395,298.072932 C240.716673,297.721055 240.871018,297.305504 241.018651,296.886601 C241.025362,297.248533 241.038783,297.617167 241.058915,297.962342 L241.948071,309.701657 L246.353591,309.701657 L244.65245,288.585635 L240.109363,288.585635 Z" id="Fill-40" fill="#6C6E70"></path>
                <path d="M268.264059,288.585635 L264.177293,298.900683 C263.935711,299.534063 263.667286,300.324951 263.469323,300.938223 C263.261294,300.324951 262.986159,299.530712 262.744577,298.897332 L258.657811,288.585635 L254.114724,288.585635 L252.38674,309.701657 L256.819102,309.701657 L257.708259,297.958991 C257.728391,297.597059 257.741812,297.201616 257.748523,296.819577 C257.906222,297.261938 258.070632,297.704298 258.224977,298.072932 L261.597061,306.196284 L265.324809,306.196284 L268.727091,298.072932 C268.87137,297.721055 269.025714,297.305504 269.173347,296.886601 C269.180058,297.248533 269.193479,297.617167 269.213611,297.962342 L270.102768,309.701657 L274.508287,309.701657 L272.807146,288.585635 L268.264059,288.585635 Z" id="Fill-42" fill="#6C6E70"></path>
                <path d="M294.239015,301.773668 C294.239015,304.204171 292.685023,305.658515 290.080584,305.658515 C287.496153,305.658515 285.952165,304.214064 285.952165,301.800051 L285.952165,288.585635 L281.546961,288.585635 L281.546961,301.800051 C281.546961,306.525845 284.991757,309.701657 290.110596,309.701657 C295.212762,309.701657 298.640884,306.525845 298.640884,301.800051 L298.640884,288.585635 L294.239015,288.585635 L294.239015,301.773668 Z" id="Fill-44" fill="#6C6E70"></path>
                <path d="M318.449743,300.723746 C318.449743,301.159404 318.476107,301.678843 318.509063,302.174823 C318.222351,301.618521 317.886207,301.008599 317.573132,300.526024 L309.868179,288.585635 L305.679558,288.585635 L305.679558,309.701657 L310.032955,309.701657 L310.032955,297.590357 C310.032955,297.15805 310.006591,296.63526 309.976931,296.13928 C310.266938,296.698933 310.596491,297.305504 310.909567,297.788079 L318.61452,309.701657 L322.773481,309.701657 L322.773481,288.585635 L318.449743,288.585635 L318.449743,300.723746 Z" id="Fill-46" fill="#6C6E70"></path>
                <mask id="mask-4" fill="white">
                    <use xlink:href="#path-3"></use>
                </mask>
                <g id="Clip-49"></g>
                <polygon id="Fill-48" fill="#6C6E70" mask="url(#mask-4)" points="330.81768 309.701657 334.839779 309.701657 334.839779 288.585635 330.81768 288.585635"></polygon>
                <polygon id="Fill-50" fill="#6C6E70" mask="url(#mask-4)" points="339.867403 292.493155 346.291296 292.493155 346.291296 309.701657 350.537434 309.701657 350.537434 292.493155 356.961326 292.493155 356.961326 288.585635 339.867403 288.585635"></polygon>
                <path d="M372.151999,288.585635 L368.962799,294.782037 C368.595697,295.499197 368.258094,296.27668 368.028655,296.822928 C367.805771,296.273329 367.478002,295.495846 367.114177,294.778685 L363.8922,288.585635 L358.972376,288.585635 L365.858819,300.90136 L365.858819,309.701657 L370.18538,309.701657 L370.18538,300.90136 L377.071823,288.585635 L372.151999,288.585635 Z" id="Fill-51" fill="#6C6E70" mask="url(#mask-4)"></path>
                <path d="M199.440622,348.000768 C199.440622,348.000768 201.250631,349.779465 203.789573,349.779465 C205.381254,349.779465 206.733479,348.912307 206.733479,347.345279 C206.733479,343.763988 198.475754,344.535553 198.475754,339.4521 C198.475754,336.881354 200.771718,334.839779 203.983251,334.839779 C207.145485,334.839779 208.811115,336.505813 208.811115,336.505813 L207.726518,338.424484 C207.726518,338.424484 206.152445,336.99743 203.983251,336.99743 C202.173243,336.99743 200.891446,338.09674 200.891446,339.407718 C200.891446,342.825137 209.149171,341.913597 209.149171,347.273585 C209.149171,349.823847 207.120835,351.933702 203.740273,351.933702 C200.120256,351.933702 198.088398,349.755567 198.088398,349.755567 L199.440622,348.000768 Z" id="Fill-52" fill="#808184" mask="url(#mask-4)"></path>
                <polygon id="Fill-53" fill="#808184" mask="url(#mask-4)" points="214.176796 350.928177 217.19337 350.928177 217.19337 334.839779 214.176796 334.839779"></polygon>
                <polygon id="Fill-54" fill="#808184" mask="url(#mask-4)" points="223.226519 334.839779 225.385607 334.839779 225.385607 348.970716 232.276243 348.970716 232.276243 350.928177 223.226519 350.928177"></polygon>
                <path d="M235.292818,334.839779 L237.722915,334.839779 L241.695826,346.212325 C241.990484,347.0764 242.308316,348.422361 242.308316,348.422361 L242.354667,348.422361 C242.354667,348.422361 242.6725,347.0764 242.967157,346.212325 L246.986419,334.839779 L249.370166,334.839779 L243.467082,350.928177 L241.219077,350.928177 L235.292818,334.839779 Z" id="Fill-55" fill="#808184" mask="url(#mask-4)"></path>
                <polygon id="Fill-56" fill="#808184" mask="url(#mask-4)" points="253.392265 334.839779 262.083462 334.839779 262.083462 336.800563 255.490886 336.800563 255.490886 341.835457 260.853342 341.835457 260.853342 343.796241 255.490886 343.796241 255.490886 348.970716 262.441989 348.970716 262.441989 350.928177 253.392265 350.928177"></polygon>
                <path d="M275.171274,342.563273 C276.992407,342.563273 278.125021,341.446624 278.125021,339.645361 C278.125021,338.458921 277.649943,337.61811 276.799622,337.162809 C276.352084,336.933497 275.808154,336.79724 274.510295,336.79724 L271.821628,336.79724 L271.821628,342.563273 L275.171274,342.563273 Z M269.480663,334.839779 L274.58259,334.839779 C276.327986,334.839779 277.061259,334.976037 277.698139,335.202026 C279.398782,335.816848 280.507297,337.435325 280.507297,339.55563 C280.507297,341.606145 279.326487,343.34094 277.508796,343.909235 L277.508796,343.955762 C277.508796,343.955762 277.698139,344.158487 278.00453,344.683579 L281.546961,350.928177 L278.903048,350.928177 L275.384715,344.524057 L271.821628,344.524057 L271.821628,350.928177 L269.480663,350.928177 L269.480663,334.839779 Z" id="Fill-57" fill="#808184" mask="url(#mask-4)"></path>
                <path d="M293.61326,349.71926 C293.61326,344.073291 301.932504,343.266257 301.932504,339.548021 C301.932504,337.979696 300.656396,336.924344 298.878959,336.924344 C296.642264,336.924344 295.443283,338.943562 295.443283,338.943562 L293.686881,337.842467 C293.686881,337.842467 295.225924,334.839779 299.047237,334.839779 C302.174404,334.839779 304.411099,336.656422 304.411099,339.387921 C304.411099,344.586264 296.305708,345.396565 296.260133,349.003712 L304.674033,349.003712 L304.674033,350.928177 L293.732457,350.928177 C293.662341,350.503422 293.61326,350.098272 293.61326,349.71926" id="Fill-58" fill="#808184" mask="url(#mask-4)"></path>
                <path d="M318.318847,343.366252 C318.318847,339.780831 317.521949,336.970544 314.718703,336.970544 C311.936614,336.970544 311.139717,339.780831 311.139717,343.366252 C311.139717,346.968747 311.936614,349.802937 314.718703,349.802937 C317.521949,349.802937 318.318847,346.968747 318.318847,343.366252 M308.696133,343.366252 C308.696133,338.613008 310.17004,334.839779 314.718703,334.839779 C319.288523,334.839779 320.762431,338.613008 320.762431,343.366252 C320.762431,348.143399 319.288523,351.933702 314.718703,351.933702 C310.17004,351.933702 308.696133,348.143399 308.696133,343.366252" id="Fill-59" fill="#808184" mask="url(#mask-4)"></path>
                <path d="M324.890507,348.967798 L328.326704,348.967798 L328.326704,338.574467 C328.326704,338.076066 328.349184,337.574341 328.349184,337.574341 L328.307436,337.574341 C328.307436,337.574341 328.127597,337.939836 327.555968,338.508013 L326.104416,339.989927 L324.78453,338.574467 L328.503331,334.839779 L330.443016,334.839779 L330.443016,348.967798 L333.834254,348.967798 L333.834254,350.928177 L324.890507,350.928177 L324.890507,348.967798 Z" id="Fill-60" fill="#808184" mask="url(#mask-4)"></path>
                <path d="M345.496727,338.258813 C345.964854,337.345077 346.456899,336.776899 346.456899,336.776899 L346.456899,336.730382 C346.456899,336.730382 346.081031,336.800158 345.240454,336.800158 L337.856354,336.800158 L337.856354,334.839779 L348.917127,334.839779 L348.917127,336.388146 L341.440769,350.928177 L339.052298,350.928177 L345.496727,338.258813 Z" id="Fill-61" fill="#808184" mask="url(#mask-4)"></path>
            </g>
        </g>
    </g>
</svg>