<?xml version="1.0" encoding="UTF-8"?>
<svg width="555px" height="555px" viewBox="0 0 555 555" version="1.1" xmlns="http://www.w3.org/2000/svg" xmlns:xlink="http://www.w3.org/1999/xlink">
    <!-- Generator: Sketch 48.2 (47327) - http://www.bohemiancoding.com/sketch -->
    <title>2017 WELL / Gold</title>
    <desc>Created with Sketch.</desc>
    <defs>
        <polygon id="path-1" points="0.000691139241 0.170365823 544.024033 0.170365823 544.024033 542.544304 0.000691139241 542.544304"></polygon>
    </defs>
    <g id="Symbols" stroke="none" stroke-width="1" fill="none" fill-rule="evenodd">
        <g id="2017-WELL-/-Gold">
            <g id="Page-1" transform="translate(6.000000, 4.000000)">
                <polygon id="Fill-1" fill="#58585B" points="3.73180633 217.680524 4.19486962 215.600195 25.381743 220.331043 24.9186797 222.411372"></polygon>
                <g id="Group-111" transform="translate(0.000000, 3.286367)">
                    <path d="M7.20339873,199.038425 L7.79432278,197.054856 L25.9229051,190.879527 C27.1704114,190.47521 29.2472848,189.998324 29.2472848,189.998324 L29.2645633,189.936122 C29.2645633,189.936122 27.4952468,189.604375 26.3997911,189.279539 L11.4228038,184.832058 L12.0310063,182.789742 L32.8377532,188.968527 L32.2468291,190.952096 L14.1147911,197.130881 C12.8672848,197.531742 10.7938671,198.012084 10.7938671,198.012084 L10.7765886,198.07083 C10.7765886,198.07083 12.5459051,198.402577 13.6413608,198.727413 L28.6183481,203.174894 L28.0101456,205.21721 L7.20339873,199.038425 Z" id="Fill-2" fill="#58585B"></path>
                    <polygon id="Fill-4" fill="#58585B" points="20.5468785 165.673333 17.5507899 172.885371 15.7849291 172.152763 22.5788278 155.786586 24.3481443 156.522649 21.3624228 163.707042 39.6396 171.295751 38.8240557 173.262042"></polygon>
                    <polygon id="Fill-6" fill="#58585B" points="27.443757 145.817939 33.1733013 135.018889 34.8631367 135.913914 30.1322886 144.833066 37.1127949 148.537572 40.9762633 141.25642 42.6695544 142.151446 38.8060861 149.432597 45.9248203 153.209673 50.9148456 143.803268 52.604681 144.698294 46.6159595 155.988053"></polygon>
                    <path d="M52.8134051,123.479973 C54.2613418,121.292518 53.7671772,118.963378 51.5002405,117.463606 C50.0073797,116.475277 48.5076076,116.333594 47.2428228,117.017822 C46.603519,117.370303 46.022962,117.909391 45.1002911,119.302037 L42.6813038,122.958163 L49.9693671,127.778859 L52.8134051,123.479973 Z M39.9098354,123.676948 L43.4519241,118.320619 C44.6786962,116.468366 45.4078481,115.763404 46.1922911,115.248505 C48.0652785,114.042467 50.470443,114.153049 52.6578987,115.600986 C55.1045316,117.221708 56.0652152,119.854948 55.2842278,122.263568 L55.3360633,122.298125 C55.3360633,122.298125 55.6850886,122.27048 56.3624051,122.311948 L66.2560633,123.193151 L64.9117975,125.228556 L54.5792658,124.278239 L51.5658987,128.836303 L59.1857089,133.881619 L58.0107722,135.657847 L39.9098354,123.676948 Z" id="Fill-8" fill="#58585B"></path>
                    <path d="M55.5420228,101.256391 L56.8620987,99.6633152 L75.9651873,101.100885 C77.2679848,101.218378 79.3655924,101.591594 79.3655924,101.591594 L79.4036051,101.54667 C79.4036051,101.54667 77.9072886,100.544518 77.0260861,99.8153658 L65.0002633,89.8456823 L66.3583519,88.2076823 L83.0700987,102.058113 L81.7500228,103.651189 L62.6469342,102.213619 C61.3441367,102.096125 59.2465291,101.719454 59.2465291,101.719454 L59.2085165,101.767834 C59.2085165,101.767834 60.7048329,102.769986 61.5860354,103.499138 L73.6118582,113.468822 L72.2537696,115.106822 L55.5420228,101.256391 Z" id="Fill-10" fill="#58585B"></path>
                    <path d="M82.1958076,75.0328405 C82.1958076,75.0328405 83.1150228,76.6397392 83.5608076,77.6280684 L86.9750354,85.2893468 L92.3244532,80.078157 L84.7979468,76.4220304 C83.8199848,75.9486 82.2407316,74.9913722 82.2407316,74.9913722 L82.1958076,75.0328405 Z M94.0799468,80.9524481 L87.8251367,87.0482962 L90.8799722,93.7247013 L89.266162,95.297043 L79.8286557,74.1931063 L81.4632,72.6000304 L102.311415,82.5869924 L100.697605,84.1593342 L94.0799468,80.9524481 Z" id="Fill-12" fill="#58585B"></path>
                    <polygon id="Fill-14" fill="#58585B" points="99.6087152 59.0253646 93.5439684 63.9462759 92.3379304 62.4603266 106.098513 51.2949722 107.304551 52.7809215 101.263994 57.6845544 113.732146 73.0520354 112.076867 74.3928456"></polygon>
                    <polygon id="Fill-16" fill="#58585B" points="114.898789 45.0553671 116.650827 43.8424177 129.015308 61.6772658 127.266725 62.8902152"></polygon>
                    <path d="M146.504586,48.8352076 C150.744725,46.4231316 152.168472,40.9285747 149.545599,36.3117646 C146.981472,31.802081 141.607865,30.3437772 137.36427,32.7558532 C133.096485,35.1817519 131.624358,40.5277139 134.188485,45.0373975 C136.811358,49.6542076 142.236801,51.2611063 146.504586,48.8352076 M136.386308,31.0349165 C141.728814,28.0008152 148.394852,29.7874101 151.477333,35.2128532 C154.618561,40.7419671 152.825054,47.5185873 147.479092,50.5526886 C142.140042,53.5902456 135.397978,51.6654228 132.253295,46.1363089 C129.17427,40.7143215 131.047257,34.0724734 136.386308,31.0349165" id="Fill-18" fill="#58585B"></path>
                    <path d="M157.865187,20.3125823 L159.772732,19.5108608 L176.052516,29.6049494 C177.154884,30.3133671 178.841263,31.6127089 178.841263,31.6127089 L178.896554,31.588519 C178.896554,31.588519 178.03263,30.0092658 177.586846,28.9587342 L171.525554,14.5588481 L173.48839,13.7329367 L181.913377,33.737962 L180.005833,34.5396835 L163.726048,24.4455949 C162.623681,23.7371772 160.937301,22.4343797 160.937301,22.4343797 L160.88201,22.4585696 C160.88201,22.4585696 161.745934,24.0378228 162.188263,25.0918101 L168.25301,39.4882405 L166.290175,40.3176076 L157.865187,20.3125823 Z" id="Fill-20" fill="#58585B"></path>
                    <path d="M193.621967,9.3604443 C193.621967,9.3604443 193.694537,11.2092418 193.632334,12.2908747 L193.120891,20.6674823 L200.274182,18.5145835 L195.287613,11.7932544 C194.641397,10.922419 193.680714,9.34316582 193.680714,9.34316582 L193.621967,9.3604443 Z M201.431841,20.1007481 L193.062144,22.6164949 L192.688929,29.952938 L190.532575,30.5991532 L191.907942,7.52201392 L194.095397,6.86543165 L207.973473,25.3534063 L205.817119,26.0030772 L201.431841,20.1007481 Z" id="Fill-22" fill="#58585B"></path>
                    <polygon id="Fill-24" fill="#58585B" points="212.698101 2.01881772 214.785342 1.59722278 218.707557 20.9940456 228.57357 18.9966532 228.953696 20.8730962 217.000443 23.2920835"></polygon>
                    <path d="M237.517948,492.639558 C237.517948,492.639558 236.899378,494.419242 236.322277,495.735862 L229.894682,510.204862 L227.361657,509.814368 L225.129277,487.504394 L227.323644,487.843052 L228.895986,505.145723 C229.003113,506.286103 229.030758,507.509419 229.030758,507.509419 L229.092961,507.519786 C229.124062,507.523242 229.459265,506.358672 229.936151,505.304685 L237.027239,489.34628 L239.04191,489.657292 L240.980556,507.015254 C241.115328,508.162546 241.084227,509.375495 241.115328,509.378951 L241.174075,509.389318 C241.174075,509.389318 241.57148,508.231659 242.017265,507.177672 L248.897556,491.181254 L251.095378,491.523368 L242.0691,512.088216 L239.536075,511.697723 L237.784037,495.960482 C237.631986,494.529824 237.580151,492.649925 237.580151,492.649925 L237.517948,492.639558 Z" id="Fill-26" fill="#58585B"></path>
                    <polygon id="Fill-28" fill="#58585B" points="260.52079 491.899348 272.743587 492.220728 272.691752 494.135184 262.601119 493.869095 262.390322 501.768816 270.632157 501.986525 270.580322 503.900981 262.341942 503.683272 262.127689 511.7385 272.774689 512.018411 272.726309 513.932867 259.947144 513.597665"></polygon>
                    <polygon id="Fill-30" fill="#58585B" points="283.467649 491.876541 285.592903 491.717578 287.051206 511.456515 297.090004 510.716996 297.231687 512.624541 285.067637 513.523022"></polygon>
                    <polygon id="Fill-32" fill="#58585B" points="304.711196 489.74403 306.812259 489.384638 310.160829 508.885132 320.078677 507.181473 320.403513 509.068284 308.384601 511.13479"></polygon>
                    <path d="M352.808958,497.988976 C355.286692,497.125052 356.2923,495.041267 355.438743,492.591178 C354.585186,490.144546 352.363173,489.121659 349.971832,489.954482 L344.75373,491.775634 L347.563211,499.820495 L352.808958,497.988976 Z M349.128642,488.285381 C351.198604,487.563141 352.090173,485.617584 351.347199,483.49233 C350.614591,481.391267 348.814173,480.451318 346.630173,481.215027 L341.674705,482.942875 L344.145528,490.027052 L349.128642,488.285381 Z M339.031097,481.837052 L346.028882,479.39733 C349.263414,478.267318 352.24568,479.418065 353.365325,482.624951 C354.1083,484.750204 353.627958,486.650837 352.328616,487.988191 L352.349351,488.046938 C354.650844,487.898343 356.693161,489.439584 357.557085,491.917318 C358.828781,495.563077 356.848667,498.607546 353.410249,499.806672 L346.180933,502.32933 L339.031097,481.837052 Z" id="Fill-34" fill="#58585B"></path>
                    <path d="M361.732257,473.331201 L363.677814,472.387796 L369.83932,485.080568 C371.470409,488.439505 374.622004,489.417467 377.980941,487.786378 C381.343333,486.151834 382.552827,483.062442 380.894092,479.644758 L374.760232,467.007277 L376.674687,466.077695 L382.850016,478.798113 C384.954535,483.131556 383.28889,487.406252 378.87251,489.548784 C374.428485,491.708594 370.012105,490.385062 367.907586,486.051619 L361.732257,473.331201 Z" id="Fill-36" fill="#58585B"></path>
                    <polygon id="Fill-38" fill="#58585B" points="386.547611 460.327071 388.368763 459.224704 399.610143 477.792159 397.788991 478.894527"></polygon>
                    <polygon id="Fill-40" fill="#58585B" points="398.304927 452.840305 400.032775 451.596254 411.588623 467.661786 419.757889 461.783647 420.877534 463.33871 410.976965 470.457444"></polygon>
                    <path d="M433.583092,450.220196 C437.550232,446.643551 438.075497,441.926525 434.191295,437.617272 C430.324371,433.328753 425.55551,433.3875 421.612561,436.943411 L418.149953,440.067361 L430.120485,453.344146 L433.583092,450.220196 Z M415.285181,440.070816 L420.489459,435.377981 C425.327434,431.016892 431.250497,431.037627 435.839662,436.127867 C440.473751,441.263032 439.862092,447.134259 435.024118,451.495348 L429.819839,456.191639 L415.285181,440.070816 Z" id="Fill-42" fill="#58585B"></path>
                    <polygon id="Fill-44" fill="#58585B" points="435.6261 420.525399 437.067125 418.956513 453.056632 433.629399 451.619062 435.201741"></polygon>
                    <path d="M444.801665,410.220167 L446.049171,408.568344 L465.197184,409.135078 C466.503437,409.193825 468.614867,409.473737 468.614867,409.473737 L468.65288,409.425357 C468.65288,409.425357 467.111639,408.492319 466.199335,407.804635 L453.731184,398.391319 L455.013247,396.691116 L472.340108,409.767471 L471.092601,411.419294 L451.944589,410.852559 C450.63488,410.793813 448.523449,410.517357 448.523449,410.517357 L448.488892,410.565737 C448.488892,410.565737 450.026677,411.495319 450.938981,412.183003 L463.410589,421.596319 L462.12507,423.296522 L444.801665,410.220167 Z" id="Fill-46" fill="#58585B"></path>
                    <path d="M465.663703,378.752597 C468.155259,374.381142 471.686981,373.299509 471.686981,373.299509 L472.516348,375.089559 C472.516348,375.089559 469.382032,376.216116 467.426108,379.651078 C464.827424,384.212597 466.582918,389.299382 471.0615,391.853142 C475.7025,394.500205 480.955158,393.263066 483.401791,388.974547 C485.495943,385.297686 484.016905,381.468775 484.016905,381.468775 L480.827297,379.651078 L478.992323,382.868332 L477.330133,381.921471 L480.174171,376.931446 L489.186627,382.070066 L488.205209,383.787547 L486.784918,382.975458 C486.384057,382.747382 485.997019,382.491661 485.997019,382.491661 L485.965918,382.543496 C485.965918,382.543496 487.275627,386.168522 485.012146,390.139116 C482.074804,395.288104 475.591918,396.995218 469.986778,393.798699 C464.540601,390.695484 462.57431,384.171129 465.663703,378.752597" id="Fill-48" fill="#58585B"></path>
                    <polygon id="Fill-50" fill="#58585B" points="480.109204 348.868773 480.85909 346.874837 501.171672 354.522292 500.421786 356.516229"></polygon>
                    <path d="M484.783378,335.872591 L485.329378,333.878654 L503.319733,327.299009 C504.560328,326.870503 506.623378,326.345237 506.623378,326.345237 L506.640657,326.28649 C506.640657,326.28649 504.860973,325.992756 503.762062,325.69211 L488.688315,321.576376 L489.251594,319.520237 L510.189657,325.239414 L509.643657,327.233351 L491.653303,333.812996 C490.412708,334.241503 488.349657,334.766768 488.349657,334.766768 L488.335834,334.825515 C488.335834,334.825515 490.112062,335.119249 491.210973,335.419895 L506.28472,339.535629 L505.724897,341.591768 L484.783378,335.872591 Z" id="Fill-52" fill="#58585B"></path>
                    <path d="M508.879257,311.26527 C508.879257,311.26527 511.5747,309.402649 512.103422,306.019523 C512.469725,303.669649 511.363903,301.530573 509.04513,301.167725 C503.647333,300.327991 503.350143,311.247991 496.701384,310.211282 C493.622358,309.730941 491.358877,306.60008 491.977447,302.632941 C492.558004,298.911156 494.94589,297.22132 494.94589,297.22132 L496.552789,298.534485 C496.552789,298.534485 494.427535,300.141384 493.992118,302.947409 C493.563611,305.691232 495.087573,307.740459 496.977839,308.037649 C502.071535,308.829004 502.275422,297.895181 509.321586,298.994092 C512.525016,299.491713 514.733206,302.366852 514.10427,306.392738 C513.423497,310.784928 510.303004,312.768497 510.303004,312.768497 L508.879257,311.26527 Z" id="Fill-54" fill="#58585B"></path>
                    <polygon id="Fill-56" fill="#58585B" points="496.471925 281.689003 496.064153 289.491965 494.153153 289.391749 495.075824 271.691673 496.986824 271.791889 496.582508 279.560294 516.34909 280.593547 516.238508 282.722256"></polygon>
                    <polygon id="Fill-58" fill="#58585B" points="494.833234 262.869972 494.76412 260.741263 516.458981 260.032846 516.528095 262.161554"></polygon>
                    <polygon id="Fill-60" fill="#58585B" points="495.422085 243.933794 496.337844 251.691832 494.433756 251.912996 492.360338 234.316591 494.260971 234.091971 495.173275 241.818908 514.825819 239.503591 515.074629 241.618477"></polygon>
                    <path d="M490.881991,226.135576 L490.384371,224.031057 L504.113852,220.786158 C507.749244,219.929146 509.3907,217.067829 508.530232,213.432437 C507.669763,209.797044 504.919029,207.941335 501.221434,208.815627 L487.5507,212.046703 L487.063447,209.973285 L500.824029,206.721475 C505.509953,205.612196 509.31813,208.169411 510.444687,212.948639 C511.581611,217.755513 509.328497,221.777943 504.642573,222.883766 L490.881991,226.135576 Z" id="Fill-62" fill="#58585B"></path>
                    <polygon id="Fill-64" fill="#58585B" points="483.873494 194.000711 486.524013 201.347522 484.723595 201.997192 478.710684 185.326914 480.511101 184.677243 483.151253 191.996408 501.767089 185.28199 502.489329 187.286294"></polygon>
                    <polygon id="Fill-66" fill="#58585B" points="475.193822 177.38918 469.882416 166.375876 471.606809 165.543053 475.992087 174.638446 483.110822 171.203484 479.53072 163.777192 481.255113 162.947825 484.835214 170.370661 492.095632 166.870041 487.468454 157.277028 489.192847 156.444205 494.746151 167.958585"></polygon>
                    <path d="M210.183391,505.857596 L215.404948,485.790368 C116.96253,460.176748 48.2114544,371.154558 48.2114544,269.294457 C48.2114544,259.739457 48.819657,250.12571 50.0187835,240.715849 L29.4504797,238.099887 C28.1407709,248.370216 27.4772772,258.868622 27.4772772,269.294457 C27.4772772,380.588609 102.607568,477.866457 210.183391,505.857596" id="Fill-68" fill="#D1BC70"></path>
                    <path d="M271.901434,45.6020582 C352.336219,45.6020582 426.965434,89.1230962 466.664472,159.180425 L484.703206,148.961932 C441.330763,72.4182608 359.790156,24.867881 271.901434,24.867881 C260.089865,24.867881 248.229915,25.7179823 236.646422,27.3939949 L239.61832,47.913919 C250.220396,46.3830456 261.081649,45.6020582 271.901434,45.6020582" id="Fill-70" fill="#D1BC70"></path>
                    <path d="M488.668963,269.294457 C488.668963,216.944115 469.752482,166.401103 435.406318,126.971609 L419.772748,140.593963 C450.82909,176.242925 467.934786,221.951419 467.934786,269.294457 C467.934786,377.385178 379.994229,465.325735 271.900052,465.325735 C242.295103,465.325735 213.847811,458.891229 187.349533,446.205368 L178.395824,464.907596 C207.710495,478.941178 239.171153,486.059913 271.900052,486.059913 C391.425672,486.059913 488.668963,388.820077 488.668963,269.294457" id="Fill-72" fill="#D1BC70"></path>
                    <path d="M271.901434,437.664961 C227.222738,437.664961 185.13927,420.348467 153.402156,388.908543 L138.812206,403.633265 C174.454257,438.95048 221.72127,458.399138 271.901434,458.399138 C376.177067,458.399138 461.010953,373.565252 461.010953,269.293075 C461.010953,209.343657 433.510523,154.249492 385.566194,118.144378 L373.09113,134.70753 C415.789713,166.862784 440.276776,215.916391 440.276776,269.293075 C440.276776,362.137265 364.742168,437.664961 271.901434,437.664961" id="Fill-74" fill="#D1BC70"></path>
                    <path d="M271.901434,430.740091 C299.826915,430.740091 327.344624,423.496952 351.489573,409.791661 L341.253801,391.759838 C320.22589,403.695813 296.243358,410.005914 271.901434,410.005914 C222.402042,410.005914 175.967852,383.511091 150.720535,340.860889 L132.878776,351.424952 C161.840966,400.347243 215.110523,430.740091 271.901434,430.740091" id="Fill-76" fill="#D1BC70"></path>
                    <path d="M421.385867,330.393239 C429.323601,310.986049 433.349487,290.431568 433.349487,269.293075 C433.349487,239.0661 424.945234,209.589011 409.038665,184.051416 L391.438804,195.012885 C405.29269,217.260657 412.61531,242.943391 412.61531,269.293075 C412.61531,287.722303 409.111234,305.640087 402.19293,322.545353 L421.385867,330.393239 Z" id="Fill-78" fill="#D1BC70"></path>
                    <g id="Group-82">
                        <mask id="mask-2" fill="white">
                            <use xlink:href="#path-1"></use>
                        </mask>
                        <g id="Clip-81"></g>
                        <path d="M303.348615,0.170365823 L300.978008,20.7697709 C427.719122,35.3424418 523.289856,142.683277 523.289856,270.4611 C523.289856,409.055252 410.5374,521.811163 271.943248,521.811163 C206.236641,521.811163 144.085944,496.619138 96.939881,450.876087 C49.8940329,405.236708 22.8255646,344.088163 20.7245013,278.696024 L0.000691139241,279.362973 C2.27799494,350.156366 31.5753873,416.353682 82.5019823,465.759771 C133.539159,515.276442 200.818109,542.545341 271.943248,542.545341 C421.968843,542.545341 544.024033,420.486695 544.024033,270.4611 C544.024033,132.143404 440.557033,15.945619 303.348615,0.170365823" id="Fill-80" fill="#D1BC70" mask="url(#mask-2)"></path>
                    </g>
                    <path d="M136.729804,184.056946 L153.420816,246.708718 C154.63031,251.425743 155.235057,255.783376 155.235057,255.783376 L155.476956,255.783376 C155.476956,255.783376 155.839804,251.304794 157.049297,246.708718 L172.772715,184.056946 L185.109551,184.056946 L162.733918,269.450654 L148.824741,269.450654 L134.068918,214.052389 C132.617525,208.609667 131.528981,201.957452 131.528981,201.957452 L131.287082,201.957452 C131.287082,201.957452 130.198538,208.609667 128.747146,214.052389 L113.991323,269.450654 L100.082146,269.450654 L78.3112595,184.056946 L90.6480949,184.056946 L105.766766,246.708718 C106.85531,251.304794 107.339108,255.783376 107.339108,255.783376 L107.581006,255.783376 C107.581006,255.783376 108.185753,251.425743 109.395247,246.708718 L126.086259,184.056946 L136.729804,184.056946 Z" id="Fill-83" fill="#58585B"></path>
                    <polygon id="Fill-85" fill="#58585B" points="200.591761 184.056946 250.181001 184.056946 250.181001 194.458591 212.565748 194.458591 212.565748 221.188401 243.165938 221.188401 243.165938 231.590047 212.565748 231.590047 212.565748 259.045553 252.237141 259.045553 252.237141 269.450654 200.591761 269.450654"></polygon>
                    <polygon id="Fill-87" fill="#58585B" points="269.896785 184.056946 281.870772 184.056946 281.870772 259.045553 320.090772 259.045553 320.090772 269.450654 269.896785 269.450654"></polygon>
                    <polygon id="Fill-89" fill="#58585B" points="333.880037 184.056946 345.854024 184.056946 345.854024 259.045553 384.074024 259.045553 384.074024 269.450654 333.880037 269.450654"></polygon>
                    <path d="M141.479313,290.88772 C147.129376,290.88772 150.073629,293.728303 150.073629,293.728303 L148.401072,296.202581 C148.401072,296.202581 145.76092,293.894176 141.745401,293.894176 C136.195553,293.894176 132.846984,297.944252 132.846984,302.993024 C132.846984,308.477214 136.596414,312.25429 141.544971,312.25429 C145.622692,312.25429 148.235199,309.313492 148.235199,309.313492 L148.235199,305.90272 L144.389009,305.90272 L144.389009,303.024125 L151.24511,303.024125 L151.24511,314.897897 L148.331958,314.897897 L148.331958,313.425771 C148.331958,312.924695 148.366515,312.423619 148.366515,312.423619 L148.300857,312.423619 C148.300857,312.423619 145.726363,315.298758 141.043895,315.298758 C134.68887,315.298758 129.439667,310.284543 129.439667,303.058682 C129.439667,296.237138 134.588654,290.88772 141.479313,290.88772" id="Fill-91" fill="#58585B"></path>
                    <path d="M170.315024,312.255672 C175.132265,312.255672 179.009556,308.243609 179.009556,302.925292 C179.009556,297.776305 175.132265,293.895558 170.315024,293.895558 C165.501239,293.895558 161.585935,297.776305 161.585935,302.925292 C161.585935,308.243609 165.501239,312.255672 170.315024,312.255672 M170.315024,290.889103 C177.136568,290.889103 182.420328,296.138305 182.420328,302.925292 C182.420328,309.881609 177.136568,315.296685 170.315024,315.296685 C163.49348,315.296685 158.175163,309.881609 158.175163,302.925292 C158.175163,296.138305 163.49348,290.889103 170.315024,290.889103" id="Fill-93" fill="#58585B"></path>
                    <polygon id="Fill-95" fill="#58585B" points="190.592704 291.28789 193.903261 291.28789 193.903261 312.022067 204.474235 312.022067 204.474235 314.897206 190.592704 314.897206"></polygon>
                    <path d="M219.22833,312.020685 C224.543191,312.020685 228.023077,308.876001 228.023077,303.060065 C228.023077,297.275229 224.51209,294.165103 219.22833,294.165103 L214.946723,294.165103 L214.946723,312.020685 L219.22833,312.020685 Z M211.636166,291.286508 L219.463318,291.286508 C226.685723,291.286508 231.433849,295.599216 231.433849,303.060065 C231.433849,310.552014 226.685723,314.89928 219.463318,314.89928 L211.636166,314.89928 L211.636166,291.286508 Z" id="Fill-97" fill="#58585B"></path>
                    <path d="M249.517162,313.230178 C249.517162,304.52528 261.466959,303.284685 261.466959,297.551685 C261.466959,295.136153 259.638896,293.511976 257.078225,293.511976 C253.867884,293.511976 252.143491,296.618647 252.143491,296.618647 L249.620833,294.925356 C249.620833,294.925356 251.832478,290.298178 257.32358,290.298178 C261.812529,290.298178 265.022871,293.097292 265.022871,297.309786 C265.022871,305.323546 253.384086,306.564141 253.318428,312.127811 L265.402997,312.127811 L265.402997,315.096254 L249.689947,315.096254 C249.586276,314.443128 249.517162,313.817647 249.517162,313.230178" id="Fill-99" fill="#58585B"></path>
                    <path d="M285.894585,302.869656 C285.894585,297.585896 284.754205,293.439061 280.749053,293.439061 C276.775003,293.439061 275.634623,297.585896 275.634623,302.869656 C275.634623,308.187972 276.775003,312.365909 280.749053,312.365909 C284.754205,312.365909 285.894585,308.187972 285.894585,302.869656 M272.147825,302.869656 C272.147825,295.858048 274.2558,290.297833 280.749053,290.297833 C287.273408,290.297833 289.384838,295.858048 289.384838,302.869656 C289.384838,309.91582 287.273408,315.510592 280.749053,315.510592 C274.2558,315.510592 272.147825,309.91582 272.147825,302.869656" id="Fill-101" fill="#58585B"></path>
                    <path d="M296.096491,312.126429 L301.487377,312.126429 L301.487377,296.375366 C301.487377,295.618568 301.518478,294.858315 301.518478,294.858315 L301.449365,294.858315 C301.449365,294.858315 301.176365,295.407771 300.274428,296.271695 L297.997124,298.517897 L295.923706,296.375366 L301.763833,290.714935 L304.80139,290.714935 L304.80139,312.126429 L310.119706,312.126429 L310.119706,315.094872 L296.096491,315.094872 L296.096491,312.126429 Z" id="Fill-103" fill="#58585B"></path>
                    <path d="M326.120962,295.894333 C326.808646,294.512054 327.534342,293.64813 327.534342,293.64813 L327.534342,293.579016 C327.534342,293.579016 326.98143,293.682687 325.740835,293.682687 L314.858848,293.682687 L314.858848,290.714244 L331.162823,290.714244 L331.162823,293.060662 L320.146063,315.097637 L316.621253,315.097637 L326.120962,295.894333 Z" id="Fill-105" fill="#58585B"></path>
                    <polygon id="Fill-107" fill="#59595B" points="502.153435 50.8232696 496.907689 50.8232696 496.907689 49.5377506 508.805651 49.5377506 508.805651 50.8232696 503.580638 50.8232696 503.580638 64.1069658 502.153435 64.1069658"></polygon>
                    <path d="M511.774439,49.5377506 L513.2673,49.5377506 L517.078933,58.0975101 C517.41068,58.8439405 517.783895,59.8806494 517.783895,59.8806494 L517.825363,59.8806494 C517.825363,59.8806494 518.219313,58.8439405 518.551059,58.0975101 L522.362692,49.5377506 L523.834819,49.5377506 L524.995933,64.1069658 L523.565275,64.1069658 L522.760097,53.912662 C522.694439,53.1247633 522.715173,51.8807127 522.715173,51.8807127 L522.673705,51.8807127 C522.673705,51.8807127 522.238287,53.1662316 521.909996,53.912662 L518.488857,61.3907886 L517.144591,61.3907886 L513.719996,53.912662 C513.391705,53.1869658 512.935553,51.8392443 512.935553,51.8392443 L512.894085,51.8392443 C512.894085,51.8392443 512.914819,53.1247633 512.852616,53.912662 L512.043984,64.1069658 L510.613325,64.1069658 L511.774439,49.5377506 Z" id="Fill-109" fill="#59595B"></path>
                </g>
            </g>
        </g>
    </g>
</svg>