<?xml version="1.0" encoding="UTF-8"?><svg width="15" height="13" viewBox="0 0 15 13" xmlns="http://www.w3.org/2000/svg"><path d="M5.017 12.393l-4.48-4.48a.284.284 0 0 1-.082-.21c0-.085.027-.151.082-.198L2.602 5.44a.279.279 0 0 1 .198-.093.29.29 0 0 1 .21.093l1.995 1.995a.284.284 0 0 0 .21.082.284.284 0 0 0 .21-.082L12.087.773a.29.29 0 0 1 .21-.093c.085 0 .151.031.198.093l2.065 2.065a.279.279 0 0 1 .093.199.29.29 0 0 1-.093.21l-9.135 9.146a.284.284 0 0 1-.21.082.27.27 0 0 1-.198-.082z" fill-rule="evenodd"/></svg>