<?xml version="1.0" encoding="UTF-8"?><svg width="14" height="13" viewBox="0 0 14 13" xmlns="http://www.w3.org/2000/svg"><path d="M4.083 13C2.8 13 1.8 12.64 1.08 11.92.36 11.202 0 10.2 0 8.918V4.25c0-1.283.36-2.285 1.08-3.004C1.798.526 2.8.166 4.082.166h4.084c.466 0 .96.09 1.481.269L7.572 2.5H3.5c-.319 0-.593.115-.822.344-.23.23-.345.504-.345.823V9.5c0 .319.115.593.345.822.229.23.503.345.822.345h5.833c.32 0 .593-.115.823-.345.23-.229.344-.503.344-.822v-.805l2.333-2.333v2.555c0 1.283-.36 2.284-1.079 3.004-.72.72-1.72 1.079-3.004 1.079H4.083zm3.01-4.27L4.2 5.837a.284.284 0 0 1-.082-.21.27.27 0 0 1 .082-.199L5.378 4.25a.284.284 0 0 1 .21-.082.27.27 0 0 1 .199.082l1.295 1.295a.284.284 0 0 0 .21.082.284.284 0 0 0 .21-.082L12.11.937a.247.247 0 0 1 .198-.082c.086 0 .156.027.21.082l1.179 1.178a.284.284 0 0 1 .081.21.247.247 0 0 1-.081.198L7.502 8.73a.284.284 0 0 1-.21.082.247.247 0 0 1-.199-.082z" fill-rule="evenodd"/></svg>