<?xml version="1.0" encoding="UTF-8"?><svg width="14" height="14" viewBox="0 0 14 14" xmlns="http://www.w3.org/2000/svg"><path d="M7 13.732a6.61 6.61 0 0 1-2.613-.531 6.733 6.733 0 0 1-2.153-1.435A6.733 6.733 0 0 1 .8 9.613 6.61 6.61 0 0 1 .27 7c0-.91.176-1.781.53-2.613a6.733 6.733 0 0 1 1.435-2.153A6.733 6.733 0 0 1 4.387.8 6.61 6.61 0 0 1 7 .27c.91 0 1.781.176 2.613.53.833.354 1.55.832 2.153 1.435A6.733 6.733 0 0 1 13.2 4.387 6.61 6.61 0 0 1 13.73 7a6.61 6.61 0 0 1-.53 2.613 6.733 6.733 0 0 1-1.435 2.153A6.733 6.733 0 0 1 9.613 13.2 6.61 6.61 0 0 1 7 13.73zM6.078 8.33h2.019c.054 0 .14-.031.256-.093.117-.063.253-.171.409-.327.155-.156.301-.342.437-.56.136-.218.251-.506.344-.863.094-.358.14-.747.14-1.167 0-.366-.066-.688-.198-.968a1.887 1.887 0 0 0-.496-.665 2.58 2.58 0 0 0-.694-.403 3.405 3.405 0 0 0-.747-.21 4.636 4.636 0 0 0-.688-.052c-.226 0-.455.021-.688.064a3.165 3.165 0 0 0-.735.239 2.473 2.473 0 0 0-.677.45 2.104 2.104 0 0 0-.484.734 2.687 2.687 0 0 0-.193 1.044c0 .195.078.292.234.292h1.528l.128.012c.156 0 .25-.047.28-.14a.522.522 0 0 1 .24-.327c.112-.062.29-.093.53-.093.156 0 .278.04.368.122.09.082.134.193.134.333 0 .179-.027.31-.082.396-.054.086-.155.156-.303.21-.008 0-.06.016-.157.047-.098.031-.174.06-.228.087a9.379 9.379 0 0 0-.233.123.942.942 0 0 0-.257.198c-.07.078-.142.171-.216.28a1.42 1.42 0 0 0-.18.409 2.752 2.752 0 0 0-.094.536c-.008.063.014.127.064.193s.13.099.24.099zm.047 3.337h1.75a.28.28 0 0 0 .204-.088.28.28 0 0 0 .088-.204v-1.75a.28.28 0 0 0-.088-.204.28.28 0 0 0-.204-.088h-1.75a.28.28 0 0 0-.204.088.28.28 0 0 0-.088.204v1.75c0 .078.03.146.088.204a.28.28 0 0 0 .204.088z" fill-rule="evenodd"/></svg>