<?xml version="1.0" encoding="UTF-8"?><svg width="16" height="12" viewBox="0 0 16 12" xmlns="http://www.w3.org/2000/svg"><path d="M8 11.763c-.63 0-1.25-.087-1.86-.262a6.924 6.924 0 0 1-1.634-.688 10.345 10.345 0 0 1-1.36-.963 8.003 8.003 0 0 1-1.102-1.108c-.307-.381-.573-.75-.799-1.109a5.64 5.64 0 0 1-.502-.962C.634 6.387.58 6.16.58 5.994c0-.167.054-.39.163-.67.11-.28.274-.6.496-.957.222-.358.486-.728.794-1.109.307-.38.674-.75 1.102-1.108.428-.358.88-.679 1.36-.962A6.924 6.924 0 0 1 6.127.499 6.763 6.763 0 0 1 8 .237c.638 0 1.262.087 1.873.262.61.175 1.154.405 1.633.689.478.283.931.604 1.359.962.428.358.795.727 1.102 1.108.308.381.572.75.794 1.109.222.357.387.676.496.956.109.28.163.504.163.671 0 .167-.054.393-.163.677a5.64 5.64 0 0 1-.502.962c-.226.358-.492.728-.8 1.109-.306.38-.674.75-1.102 1.108-.427.358-.88.679-1.359.963a6.924 6.924 0 0 1-1.633.688c-.61.175-1.231.262-1.861.262zM8 10.2c.443 0 .879-.062 1.307-.187a4.534 4.534 0 0 0 1.166-.519 8.86 8.86 0 0 0 .969-.706c.295-.249.57-.523.822-.822.253-.3.46-.56.619-.782.159-.222.305-.445.437-.67a.802.802 0 0 0 .105-.42.952.952 0 0 0-.163-.56c-.693-.91-1.326-1.646-1.902-2.206-.093-.093-.16-.14-.198-.14-.016 0-.024.012-.024.035 0 .031.024.105.07.222.195.443.292.906.292 1.388 0 .965-.342 1.79-1.027 2.474A3.371 3.371 0 0 1 8 8.333a3.371 3.371 0 0 1-2.473-1.026A3.371 3.371 0 0 1 4.5 4.833c0-.459.09-.902.268-1.33a.722.722 0 0 0 .07-.221c0-.024-.011-.035-.035-.035-.03 0-.093.046-.186.14-.545.536-1.167 1.252-1.867 2.146-.117.14-.175.327-.175.56 0 .156.035.292.105.409.171.28.354.556.548.828.195.272.467.591.817.957.35.365.71.68 1.08.945.369.264.808.492 1.317.682.51.19 1.03.286 1.558.286zM6.728 7.225a.548.548 0 0 0 .385.128.666.666 0 0 0 .49-.198l.409-.397a.494.494 0 0 0 .151-.361.565.565 0 0 0-.198-.42c-.342-.343-.688-.798-1.038-1.365-.094-.156-.218-.234-.374-.234a.474.474 0 0 0-.326.14l-.409.42a.838.838 0 0 0-.245.619c0 .116.024.221.07.315.288.529.65.98 1.085 1.353z" fill-rule="evenodd"/></svg>