<?xml version="1.0" encoding="UTF-8"?><svg width="13" height="14" viewBox="0 0 13 14" xmlns="http://www.w3.org/2000/svg"><path d="M.458 14a.28.28 0 0 1-.204-.088.28.28 0 0 1-.087-.204V.292A.28.28 0 0 1 .254.088.28.28 0 0 1 .458 0h12.25a.28.28 0 0 1 .204.087.28.28 0 0 1 .088.205v13.416a.28.28 0 0 1-.088.204.28.28 0 0 1-.204.088H.458zm1.167-1.167h9.917a.28.28 0 0 0 .204-.087.28.28 0 0 0 .087-.204V2.625a.28.28 0 0 0-.087-.204.28.28 0 0 0-.204-.088H1.625a.28.28 0 0 0-.204.088.28.28 0 0 0-.088.204v9.917c0 .077.03.145.088.204a.28.28 0 0 0 .204.087zm1.167-8.166a.28.28 0 0 1-.204-.088.28.28 0 0 1-.088-.204v-.583a.28.28 0 0 1 .087-.204.28.28 0 0 1 .205-.088h.583a.28.28 0 0 1 .204.087.28.28 0 0 1 .088.205v.583a.28.28 0 0 1-.088.204.28.28 0 0 1-.204.088h-.583zm2.333 0a.28.28 0 0 1-.204-.088.28.28 0 0 1-.088-.204v-.583a.28.28 0 0 1 .088-.204.28.28 0 0 1 .204-.088h5.25a.28.28 0 0 1 .204.087.28.28 0 0 1 .088.205v.583a.28.28 0 0 1-.088.204.28.28 0 0 1-.204.088h-5.25zM2.792 7a.28.28 0 0 1-.204-.088.28.28 0 0 1-.088-.204v-.583a.28.28 0 0 1 .087-.204.28.28 0 0 1 .205-.088h.583a.28.28 0 0 1 .204.088.28.28 0 0 1 .088.204v.583a.28.28 0 0 1-.088.204.28.28 0 0 1-.204.088h-.583zm2.333 0a.28.28 0 0 1-.204-.088.28.28 0 0 1-.088-.204v-.583a.28.28 0 0 1 .088-.204.28.28 0 0 1 .204-.088h5.25a.28.28 0 0 1 .204.088.28.28 0 0 1 .088.204v.583a.28.28 0 0 1-.088.204.28.28 0 0 1-.204.088h-5.25zM2.792 9.333a.28.28 0 0 1-.204-.087.28.28 0 0 1-.088-.204v-.584a.28.28 0 0 1 .087-.204.28.28 0 0 1 .205-.087h.583a.28.28 0 0 1 .204.087.28.28 0 0 1 .088.204v.584a.28.28 0 0 1-.088.204.28.28 0 0 1-.204.087h-.583zm2.333 0a.28.28 0 0 1-.204-.087.28.28 0 0 1-.088-.204v-.584a.28.28 0 0 1 .088-.204.28.28 0 0 1 .204-.087h5.25a.28.28 0 0 1 .204.087.28.28 0 0 1 .088.204v.584a.28.28 0 0 1-.088.204.28.28 0 0 1-.204.087h-5.25zm-2.333 2.334a.28.28 0 0 1-.204-.088.28.28 0 0 1-.088-.204v-.583a.28.28 0 0 1 .087-.204.28.28 0 0 1 .205-.088h.583a.28.28 0 0 1 .204.088.28.28 0 0 1 .088.204v.583a.28.28 0 0 1-.088.204.28.28 0 0 1-.204.088h-.583zm2.333 0a.28.28 0 0 1-.204-.088.28.28 0 0 1-.088-.204v-.583a.28.28 0 0 1 .088-.204.28.28 0 0 1 .204-.088h5.25a.28.28 0 0 1 .204.088.28.28 0 0 1 .088.204v.583a.28.28 0 0 1-.088.204.28.28 0 0 1-.204.088h-5.25z" fill-rule="evenodd"/></svg>