<?xml version="1.0" encoding="UTF-8"?><svg width="12" height="10" viewBox="0 0 12 10" xmlns="http://www.w3.org/2000/svg"><path d="M5.824 5.854L.176.177C.14.14.12.1.12.08.12.03.17 0 .25 0h11.5c.08 0 .13.03.13.08 0 .02-.02.06-.056.097L6.176 5.854A.267.267 0 0 1 6 5.93c-.06 0-.13-.03-.176-.076zM.176 7.824C.14 7.86.1 7.88.08 7.88c-.05 0-.08-.05-.08-.13v-5.5c0-.08.03-.13.08-.13.02 0 .06.02.096.057l2.647 2.646A.266.266 0 0 1 2.899 5c0 .06-.03.13-.076.177L.176 7.823zm11.647 0L9.176 5.176A.266.266 0 0 1 9.1 5c0-.06.03-.13.077-.177l2.647-2.646c.036-.037.076-.057.096-.057.05 0 .08.05.08.13v5.5c0 .08-.03.13-.08.13-.02 0-.06-.02-.096-.057zM.25 10c-.08 0-.13-.03-.13-.08 0-.02.02-.06.056-.097l3.647-3.646a.266.266 0 0 1 .176-.077c.06 0 .13.03.177.077l1.647 1.646a.266.266 0 0 0 .176.077c.06 0 .13-.03.177-.077l1.647-1.646a.266.266 0 0 1 .176-.077c.06 0 .13.03.177.077l3.647 3.646c.036.037.056.077.056.097 0 .05-.05.08-.13.08H.25z" fill-rule="evenodd"/></svg>