<?xml version="1.0" encoding="UTF-8"?><svg width="15" height="4" viewBox="0 0 15 4" xmlns="http://www.w3.org/2000/svg"><path d="M2 4a1.926 1.926 0 0 1-1.413-.587A1.926 1.926 0 0 1 0 2C0 1.449.196.978.587.587A1.926 1.926 0 0 1 2 0c.551 0 1.022.196 1.413.587C3.804.977 4 1.449 4 2s-.196 1.022-.587 1.413A1.926 1.926 0 0 1 2 4zm5.333 0a1.926 1.926 0 0 1-1.413-.587A1.926 1.926 0 0 1 5.333 2c0-.551.196-1.022.587-1.413A1.926 1.926 0 0 1 7.333 0c.551 0 1.023.196 1.414.587.39.39.586.862.586 1.413s-.195 1.022-.586 1.413A1.926 1.926 0 0 1 7.333 4zm5.334 0a1.926 1.926 0 0 1-1.414-.587A1.926 1.926 0 0 1 10.667 2c0-.551.195-1.022.586-1.413A1.926 1.926 0 0 1 12.667 0c.55 0 1.022.196 1.413.587.391.39.587.862.587 1.413s-.196 1.022-.587 1.413A1.926 1.926 0 0 1 12.667 4z" fill-rule="evenodd"/></svg>