<?xml version="1.0" encoding="utf-8"?><svg viewBox="0 0 256 256" xmlns="http://www.w3.org/2000/svg" preserveAspectRatio="xMidYMid" width="256" height="256"><path d="M226.468 256H29.532C13.224 256 0 242.772 0 226.452V29.532C0 13.223 13.224 0 29.532 0h196.936C242.778 0 256 13.222 256 29.533v196.92c0 16.32-13.22 29.547-29.532 29.547zm-98.47-177.234c-27.19 0-49.23 22.038-49.23 49.23 0 27.187 22.04 49.235 49.23 49.235 27.192 0 49.236-22.047 49.236-49.235 0-27.19-22.044-49.23-49.235-49.23zm98.47-39.39c0-5.433-4.41-9.843-9.856-9.843H187.08c-5.44 0-9.846 4.41-9.846 9.844V68.92c0 5.436 4.406 9.846 9.845 9.846h29.532c5.446 0 9.856-4.41 9.856-9.845V39.378zm0 68.92h-22.286c1.624 6.304 2.582 12.89 2.582 19.7 0 43.51-35.263 78.77-78.765 78.77-43.5 0-78.767-35.26-78.767-78.77 0-6.81.964-13.396 2.588-19.7H29.533v108.317c0 5.43 4.41 9.84 9.856 9.84h177.224c5.446 0 9.856-4.41 9.856-9.84V108.297z" fill="#343433"/></svg>