<?xml version="1.0" encoding="UTF-8" standalone="no"?>
<?xml-stylesheet type="text/css" href="css/style3.css" ?>
<svg width="100px" height="100px" viewBox="0 0 185 185" version="1.1" xmlns="http://www.w3.org/2000/svg" xmlns:xlink="http://www.w3.org/1999/xlink">
   
    <defs>
        <rect id="path-1" x="0" y="0" width="200" height="200"></rect>
        <rect id="path-3" x="0" y="0" width="200" height="200"></rect>
    </defs>
    <g id="Page-1" stroke="none" stroke-width="1" fill="none" fill-rule="evenodd">
        <g id="materials" transform="translate(-7.000000, -8.000000)">
            <g id="Clipped">
                <mask id="mask-2" fill="white">
                    <use xlink:href="#path-1"></use>
                </mask>
                <g id="SVGID_1_"></g>
                <path d="M7.639,100.806 C7.639,49.921 48.89,8.67 99.775,8.67 C150.66,8.67 191.91,49.921 191.91,100.806 C191.91,151.691 150.66,192.942 99.775,192.942 C48.89,192.942 7.639,151.69 7.639,100.806" id="Shape" fill="#40937D" fill-rule="nonzero" mask="url(#mask-2)"></path>
            </g>
            <g id="Clipped">
                <mask id="mask-4" fill="white">
                    <use xlink:href="#path-3"></use>
                </mask>
                <g id="SVGID_1_"></g>
                <path class="star" d="M143.748,53.605 L89.545,53.605 C88.716,53.605 88.042,54.279 88.042,55.108 L88.042,88.666 L55.319,88.666 C54.49,88.666 53.816,89.34 53.816,90.168 L53.816,144.373 C53.816,145.201 54.49,145.874 55.319,145.874 L109.522,145.874 C110.351,145.874 111.025,145.201 111.025,144.373 L111.025,110.814 L143.748,110.814 C144.577,110.814 145.251,110.14 145.251,109.312 L145.251,55.108 C145.251,54.279 144.577,53.605 143.748,53.605 Z M56.821,142.87 L56.821,138.36 L88.394,142.87 L56.821,142.87 Z M108.021,142.64 L56.822,135.327 L56.822,130.649 L108.021,137.963 L108.021,142.64 Z M108.021,134.928 L56.822,127.615 L56.822,122.937 L108.021,130.251 L108.021,134.928 Z M108.021,127.216 L56.822,119.904 L56.822,115.226 L108.021,122.539 L108.021,127.216 Z M108.021,119.505 L56.822,112.192 L56.822,107.514 L108.021,114.828 L108.021,119.505 Z M108.021,111.793 L56.822,104.48 L56.822,99.802 L108.021,107.117 L108.021,111.793 Z M108.021,104.081 L56.822,96.767 L56.822,92.09 L108.021,99.404 L108.021,104.081 Z M108.021,96.37 L75.131,91.671 L108.021,91.671 L108.021,96.37 Z M142.246,107.811 L111.025,107.811 L111.025,90.168 C111.025,89.34 110.351,88.666 109.522,88.666 L91.047,88.666 L91.047,56.61 L142.246,56.61 L142.246,107.811 Z" id="Shape" stroke="#FFFFFF" stroke-width="2" stroke-linecap="round" stroke-linejoin="round"></path>
            </g>
        </g>
    </g>
</svg>