<?xml version="1.0" encoding="utf-8"?>
<!-- Generator: Adobe Illustrator 18.1.1, SVG Export Plug-In . SVG Version: 6.00 Build 0)  -->
<!DOCTYPE svg PUBLIC "-//W3C//DTD SVG 1.1//EN" "http://www.w3.org/Graphics/SVG/1.1/DTD/svg11.dtd">
<svg version="1.1" xmlns="http://www.w3.org/2000/svg" xmlns:xlink="http://www.w3.org/1999/xlink" x="0px" y="0px"
	 viewBox="0 0 36 36" enable-background="new 0 0 36 36" xml:space="preserve">
<g id="Guide">
</g>
<g id="Layer_1">
	<path d="M31,10V7c0-2-2.1-4-13-4S5,5,5,7v3c-1.1,0-2,0.9-2,2v2c0,1.1,0.9,2,2,2v11c0,1.1,0.6,2.1,1.5,2.6v1.9C6.5,32.9,7.6,34,9,34
		s2.5-1.1,2.5-2.5V30h13v1.5c0,1.4,1.1,2.5,2.5,2.5s2.5-1.1,2.5-2.5v-1.9c0.9-0.5,1.5-1.5,1.5-2.6V16c1.1,0,2-0.9,2-2v-2
		C33,10.9,32.1,10,31,10z M11,6h14c0.6,0,1,0.4,1,1s-0.4,1-1,1H11c-0.6,0-1-0.4-1-1S10.4,6,11,6z M9,28c-1.1,0-2-0.9-2-2
		c0-1.1,0.9-2,2-2s2,0.9,2,2C11,27.1,10.1,28,9,28z M27,28c-1.1,0-2-0.9-2-2c0-1.1,0.9-2,2-2s2,0.9,2,2C29,27.1,28.1,28,27,28z
		 M29,18c0,1.6-1.3,3-3,3H10c-1.7,0-3-1.4-3-3v-5c0-1.7,1.3-3,3-3h16c1.7,0,3,1.3,3,3V18z"/>
</g>
</svg>
