<?xml version="1.0" encoding="utf-8"?>
<!-- Generator: Adobe Illustrator 18.1.1, SVG Export Plug-In . SVG Version: 6.00 Build 0)  -->
<!DOCTYPE svg PUBLIC "-//W3C//DTD SVG 1.1//EN" "http://www.w3.org/Graphics/SVG/1.1/DTD/svg11.dtd">
<svg version="1.1" xmlns="http://www.w3.org/2000/svg" xmlns:xlink="http://www.w3.org/1999/xlink" x="0px" y="0px"
	 viewBox="0 0 36 36" enable-background="new 0 0 36 36" xml:space="preserve">
<g id="Guide">
</g>
<g id="Layer_1">
	<circle cx="18" cy="9" r="3"/>
	<circle cx="7" cy="12" r="3"/>
	<circle cx="29" cy="12" r="3"/>
	<path d="M29,17c-0.9,0-1.7,0.3-2.5,0.7l0,0l-8.5,5l-8.5-5l0,0C8.7,17.3,7.9,17,7,17c-2.8,0-5,2.2-5,5v8h10v-6.2l5,3l0,0
		c0.2,0.1,0.3,0.2,0.5,0.2c0.2,0,0.3,0.1,0.5,0.1c0,0,0,0,0,0s0,0,0,0c0.2,0,0.3,0,0.5-0.1c0.2,0,0.3-0.1,0.5-0.2l0,0l5-3V30h10v-8
		C34,19.2,31.8,17,29,17z"/>
	<path d="M18,20.4l4.8-2.8c-0.6-2-2.5-3.5-4.8-3.5s-4.1,1.5-4.8,3.5L18,20.4z"/>
</g>
</svg>
