<?xml version="1.0" encoding="utf-8"?>
<!-- Generator: Adobe Illustrator 18.1.1, SVG Export Plug-In . SVG Version: 6.00 Build 0)  -->
<!DOCTYPE svg PUBLIC "-//W3C//DTD SVG 1.1//EN" "http://www.w3.org/Graphics/SVG/1.1/DTD/svg11.dtd">
<svg version="1.1" xmlns="http://www.w3.org/2000/svg" xmlns:xlink="http://www.w3.org/1999/xlink" x="0px" y="0px"
	 viewBox="0 0 36 36" enable-background="new 0 0 36 36" xml:space="preserve">
<g id="Guide">
</g>
<g id="Layer_1">
	<circle cx="6" cy="7" r="2"/>
	<circle cx="19" cy="8" r="2"/>
	<circle cx="31" cy="15.5" r="1.5"/>
	<path d="M8,10H4c-1.7,0-3,1.3-3,3v6h2v12h2v-9h2v9h2V19h2v-6C11,11.3,9.7,10,8,10z"/>
	<path d="M24,24l-2-10.5c-0.2-1.4-1.5-2.5-3-2.5s-2.7,1.1-3,2.5L14,24h2v7h2v-7h1h1v7h2v-7H24z"/>
	<path d="M32,18h-2c-1.7,0-3,1.3-3,3v1v2h2v7h4v-7h2v-2v-1C35,19.3,33.7,18,32,18z"/>
</g>
</svg>
