<?xml version="1.0" encoding="utf-8"?>
<!-- Generator: Adobe Illustrator 18.1.1, SVG Export Plug-In . SVG Version: 6.00 Build 0)  -->
<!DOCTYPE svg PUBLIC "-//W3C//DTD SVG 1.1//EN" "http://www.w3.org/Graphics/SVG/1.1/DTD/svg11.dtd">
<svg version="1.1" xmlns="http://www.w3.org/2000/svg" xmlns:xlink="http://www.w3.org/1999/xlink" x="0px" y="0px"
	 viewBox="0 0 36 36" enable-background="new 0 0 36 36" xml:space="preserve">
<g id="Guide">
</g>
<g id="Layer_1">
	<path d="M32,34c-0.2,0-0.4,0-0.6-0.1l-28-8c-1.1-0.3-1.7-1.4-1.4-2.5c0.3-1.1,1.4-1.7,2.5-1.4l28,8c1.1,0.3,1.7,1.4,1.4,2.5
		C33.7,33.4,32.9,34,32,34z"/>
	<path d="M4,34c-0.9,0-1.7-0.6-1.9-1.5c-0.3-1.1,0.3-2.2,1.4-2.5l28-8c1.1-0.3,2.2,0.3,2.5,1.4c0.3,1.1-0.3,2.2-1.4,2.5l-28,8
		C4.4,34,4.2,34,4,34z"/>
	<path d="M25,16c0,3.9-3.1,7-7,7s-7-3.1-7-7c0-5.4,3-9,3-9c5.3,5.3,6.4-0.1,5-5C19,2,25,5,25,16z"/>
</g>
</svg>
