<?xml version="1.0" encoding="utf-8"?>
<!-- Generator: Adobe Illustrator 18.1.1, SVG Export Plug-In . SVG Version: 6.00 Build 0)  -->
<!DOCTYPE svg PUBLIC "-//W3C//DTD SVG 1.1//EN" "http://www.w3.org/Graphics/SVG/1.1/DTD/svg11.dtd">
<svg version="1.1" xmlns="http://www.w3.org/2000/svg" xmlns:xlink="http://www.w3.org/1999/xlink" x="0px" y="0px"
	 viewBox="0 0 36 36" enable-background="new 0 0 36 36" xml:space="preserve">
<g id="Guide">
</g>
<g id="Layer_1">
	<g>
		<path d="M18,4C10.3,4,4,10.3,4,18s6.3,14,14,14s14-6.3,14-14S25.7,4,18,4z M10,14c0-1.1,0.9-2,2-2s2,0.9,2,2c0,1.1-0.9,2-2,2
			S10,15.1,10,14z M24.7,24.1c-1.8,1.8-4.3,2.8-6.7,2.8s-4.9-0.9-6.7-2.8c-0.4-0.4-0.4-1,0-1.4s1-0.4,1.4,0c2.9,2.9,7.7,2.9,10.6,0
			c0.4-0.4,1-0.4,1.4,0S25.1,23.7,24.7,24.1z M24,16c-1.1,0-2-0.9-2-2c0-1.1,0.9-2,2-2s2,0.9,2,2C26,15.1,25.1,16,24,16z"/>
	</g>
</g>
</svg>
