<?xml version="1.0" encoding="utf-8"?>
<!-- Generator: Adobe Illustrator 18.1.1, SVG Export Plug-In . SVG Version: 6.00 Build 0)  -->
<!DOCTYPE svg PUBLIC "-//W3C//DTD SVG 1.1//EN" "http://www.w3.org/Graphics/SVG/1.1/DTD/svg11.dtd">
<svg version="1.1" xmlns="http://www.w3.org/2000/svg" xmlns:xlink="http://www.w3.org/1999/xlink" x="0px" y="0px"
	 viewBox="0 0 36 36" enable-background="new 0 0 36 36" xml:space="preserve">
<g id="Guide">
</g>
<g id="Layer_1">
	<g>
		<path d="M23,2.7v6.7c1.8,0.8,3,2.5,3,4.6c0,2.8-2.2,5-5,5s-5-2.2-5-5c0-2,1.2-3.8,3-4.6V2C12.4,2,7,7.4,7,14l-2.9,6.6l0,0
			C4,20.7,4,20.8,4,21c0,0.6,0.4,1,1,1h2v3c0,2.8,2.2,5,5,5c0.3,0,0.7,0,1-0.1V34h13V23.7c3-2.2,5-5.7,5-9.7C31,8.8,27.7,4.3,23,2.7
			z M11.5,16c-0.8,0-1.5-0.7-1.5-1.5s0.7-1.5,1.5-1.5s1.5,0.7,1.5,1.5S12.3,16,11.5,16z"/>
		<circle cx="21" cy="14" r="3"/>
	</g>
</g>
</svg>
