<?xml version="1.0" encoding="utf-8"?>
<!-- Generator: Adobe Illustrator 18.1.1, SVG Export Plug-In . SVG Version: 6.00 Build 0)  -->
<!DOCTYPE svg PUBLIC "-//W3C//DTD SVG 1.1//EN" "http://www.w3.org/Graphics/SVG/1.1/DTD/svg11.dtd">
<svg version="1.1" xmlns="http://www.w3.org/2000/svg" xmlns:xlink="http://www.w3.org/1999/xlink" x="0px" y="0px"
	 viewBox="0 0 36 36" enable-background="new 0 0 36 36" xml:space="preserve">
<g id="Guide">
</g>
<g id="Layer_1">
	<path d="M30,6H6C4.3,6,3,7.3,3,9v14c0,1.6,1.3,3,3,3h16l7,7v-7h1c1.7,0,3-1.4,3-3V9C33,7.3,31.7,6,30,6z M25.5,13
		c1.4,0,2.5,1.1,2.5,2.5c0,1.4-1.1,2.5-2.5,2.5S23,16.9,23,15.5C23,14.1,24.1,13,25.5,13z M9.5,18C8.1,18,7,16.9,7,15.5
		C7,14.1,8.1,13,9.5,13s2.5,1.1,2.5,2.5C12,16.9,10.9,18,9.5,18z M17.5,18c-1.4,0-2.5-1.1-2.5-2.5c0-1.4,1.1-2.5,2.5-2.5
		s2.5,1.1,2.5,2.5C20,16.9,18.9,18,17.5,18z"/>
</g>
</svg>
