<?xml version="1.0" encoding="utf-8"?>
<!-- Generator: Adobe Illustrator 18.1.1, SVG Export Plug-In . SVG Version: 6.00 Build 0)  -->
<!DOCTYPE svg PUBLIC "-//W3C//DTD SVG 1.1//EN" "http://www.w3.org/Graphics/SVG/1.1/DTD/svg11.dtd">
<svg version="1.1" xmlns="http://www.w3.org/2000/svg" xmlns:xlink="http://www.w3.org/1999/xlink" x="0px" y="0px"
	 viewBox="0 0 36 36" enable-background="new 0 0 36 36" xml:space="preserve">
<g id="Guide">
</g>
<g id="Layer_1">
	<g>
		<path d="M32.7,26.5L29.1,21c0,0,0,0,0-0.1L35,18l-5.9-2.9c0,0,0,0,0-0.1l3.6-5.5l-6.6,0.4c0,0,0,0,0,0l0.4-6.6L21,6.9
			c0,0,0,0-0.1,0L18,1l-2.9,5.9c0,0,0,0-0.1,0L9.5,3.3l0.4,6.6c0,0,0,0,0,0L3.3,9.5L6.9,15c0,0,0,0,0,0.1L1,18l5.9,2.9
			c0,0,0,0,0,0.1l-3.6,5.5l6.6-0.4c0,0,0,0,0,0l-0.4,6.6l5.5-3.6c0,0,0,0,0.1,0L18,35l2.9-5.9c0,0,0,0,0.1,0l5.5,3.6l-0.4-6.6
			c0,0,0,0,0,0L32.7,26.5z M18,26c-4.4,0-8-3.6-8-8s3.6-8,8-8s8,3.6,8,8S22.4,26,18,26z"/>
		<path d="M18,12c-3.3,0-6,2.7-6,6s2.7,6,6,6s6-2.7,6-6S21.3,12,18,12z"/>
	</g>
</g>
</svg>
