<?xml version="1.0" encoding="utf-8"?>
<!-- Generator: Adobe Illustrator 18.1.1, SVG Export Plug-In . SVG Version: 6.00 Build 0)  -->
<!DOCTYPE svg PUBLIC "-//W3C//DTD SVG 1.1//EN" "http://www.w3.org/Graphics/SVG/1.1/DTD/svg11.dtd">
<svg version="1.1" xmlns="http://www.w3.org/2000/svg" xmlns:xlink="http://www.w3.org/1999/xlink" x="0px" y="0px"
	 viewBox="0 0 36 36" enable-background="new 0 0 36 36" xml:space="preserve">
<g id="Guide">
</g>
<g id="Layer_1">
	<path d="M18,0C10.8,0,4.6,3.8,1.1,9.4l5.1,3.2C7.4,10.7,9,9,11,7.9V4.5c2.1-1,4.5-1.5,7-1.5s4.9,0.6,7,1.5v3.4
		c2,1.1,3.6,2.8,4.9,4.7l5.1-3.2C31.4,3.8,25.2,0,18,0z"/>
	<circle cx="18" cy="17" r="2.5"/>
	<circle cx="26" cy="17" r="2.5"/>
	<circle cx="10" cy="17" r="2.5"/>
	<circle cx="18" cy="25" r="2.5"/>
	<circle cx="26" cy="25" r="2.5"/>
	<circle cx="10" cy="25" r="2.5"/>
	<circle cx="18" cy="33" r="2.5"/>
	<circle cx="26" cy="33" r="2.5"/>
	<circle cx="10" cy="33" r="2.5"/>
</g>
</svg>
