<?xml version="1.0" encoding="utf-8"?>
<!-- Generator: Adobe Illustrator 18.1.1, SVG Export Plug-In . SVG Version: 6.00 Build 0)  -->
<!DOCTYPE svg PUBLIC "-//W3C//DTD SVG 1.1//EN" "http://www.w3.org/Graphics/SVG/1.1/DTD/svg11.dtd">
<svg version="1.1" xmlns="http://www.w3.org/2000/svg" xmlns:xlink="http://www.w3.org/1999/xlink" x="0px" y="0px"
	 viewBox="0 0 36 36" enable-background="new 0 0 36 36" xml:space="preserve">
<g id="Guide">
</g>
<g id="Layer_1">
	<path fill-rule="evenodd" clip-rule="evenodd" d="M13,7v4H9.4c-2,0-2.8,2.2-3.1,3l-1,3H5c-1.7,0-3,1.3-3,3v2H1v4h4c0,2.2,1.8,4,4,4
		s4-1.8,4-4h10c0,2.2,1.8,4,4,4s4-1.8,4-4h4V7H13z M7.7,14.5c0.3-0.9,0.8-2,1.7-2H13V17H6.9L7.7,14.5z"/>
</g>
</svg>
