<?xml version="1.0" encoding="UTF-8"?>
<svg width="555px" height="555px" viewBox="0 0 555 555" version="1.1" xmlns="http://www.w3.org/2000/svg" xmlns:xlink="http://www.w3.org/1999/xlink">
    <!-- Generator: Sketch 48.2 (47327) - http://www.bohemiancoding.com/sketch -->
    <title>2018 WELL / Gold</title>
    <desc>Created with Sketch.</desc>
    <defs>
        <polygon id="path-1" points="0.000692412057 0.171450955 545.025919 0.171450955 545.025919 546 0.000692412057 546"></polygon>
    </defs>
    <g id="Symbols" stroke="none" stroke-width="1" fill="none" fill-rule="evenodd">
        <g id="2018-WELL-/-Gold">
            <g id="Page-1" transform="translate(5.000000, 4.000000)">
                <path d="M251.381215,314.14782 C251.381215,305.998909 262.729017,304.836738 262.729017,299.471552 C262.729017,297.208918 260.990157,295.686783 258.562708,295.686783 C255.512747,295.686783 253.874741,298.597353 253.874741,298.597353 L251.478592,297.013509 C251.478592,297.013509 253.579135,292.680222 258.792237,292.680222 C263.055923,292.680222 266.105883,295.299392 266.105883,299.241861 C266.105883,306.742836 255.053688,307.908435 254.991089,313.112494 L266.464088,313.112494 L266.464088,315.892791 L251.544668,315.892791 C251.447292,315.279137 251.381215,314.696338 251.381215,314.14782" id="Fill-1" fill="#58585B"></path>
                <path d="M285.331034,304.75946 C285.331034,299.682169 284.2644,295.70267 280.527762,295.70267 C276.818473,295.70267 275.755258,299.682169 275.755258,304.75946 C275.755258,309.868419 276.818473,313.883103 280.527762,313.883103 C284.2644,313.883103 285.331034,309.868419 285.331034,304.75946 M272.497238,304.75946 C272.497238,298.021406 274.46299,292.680222 280.527762,292.680222 C286.619883,292.680222 288.585635,298.021406 288.585635,304.75946 C288.585635,311.529182 286.619883,316.902033 280.527762,316.902033 C274.46299,316.902033 272.497238,311.529182 272.497238,304.75946" id="Fill-3" fill="#58585B"></path>
                <path d="M293.77514,313.065306 L298.736092,313.065306 L298.736092,298.070224 C298.736092,297.348535 298.766445,296.62336 298.766445,296.62336 L298.702367,296.62336 C298.702367,296.62336 298.44943,297.153296 297.623166,297.972604 L295.525469,300.109778 L293.61326,298.070224 L298.98903,292.680222 L301.788208,292.680222 L301.788208,313.065306 L306.685083,313.065306 L306.685083,315.892791 L293.77514,315.892791 L293.77514,313.065306 Z" id="Fill-5" fill="#58585B"></path>
                <path d="M322.162125,303.761797 C322.525705,303.395813 324.20726,301.604603 324.20726,299.148287 C324.20726,296.991092 322.494241,295.629209 320.050567,295.629209 C317.481038,295.629209 316.065175,297.089626 316.065175,298.884356 C316.065175,301.474397 319.166089,302.466777 322.162125,303.761797 M317.844617,304.887902 C317.085994,305.422802 315.044355,307.013425 315.044355,309.536604 C315.044355,312.22166 317.351687,313.949527 319.823329,313.949527 C322.260012,313.949527 324.437994,312.355385 324.437994,309.93426 C324.437994,307.411081 320.976995,306.418701 317.844617,304.887902 M315.439398,303.497867 C313.922153,302.399914 312.83491,300.974688 312.83491,298.817493 C312.83491,295.69959 315.173705,292.680222 320.085526,292.680222 C324.40653,292.680222 327.406062,295.101347 327.406062,298.951218 C327.406062,302.07264 324.93442,304.722506 324.637263,305.056818 C326.416706,306.151251 327.801105,307.611668 327.801105,310.032794 C327.801105,313.682077 324.668727,316.902033 319.823329,316.902033 C315.173705,316.902033 311.712707,313.981199 311.712707,309.733672 C311.712707,306.151251 314.810126,303.927194 315.439398,303.497867" id="Fill-7" fill="#58585B"></path>
                <polygon id="Fill-9" fill="#58585B" points="4.02209945 216.117095 4.49524985 213.959335 26.1436464 218.866269 25.670496 221.02403"></polygon>
                <path d="M7.03867403,199.768364 L7.6413383,197.804618 L26.1300912,191.691005 C27.4023824,191.29073 29.5205183,190.81861 29.5205183,190.81861 L29.53814,190.757029 C29.53814,190.757029 27.7336716,190.428597 26.6164518,190.107008 L11.3419084,185.703976 L11.9621944,183.68207 L33.1823204,189.799104 L32.5796562,191.76285 L14.0873789,197.879883 C12.8150877,198.276738 10.7004762,198.752279 10.7004762,198.752279 L10.6828545,198.810439 C10.6828545,198.810439 12.4873229,199.13887 13.6045426,199.460459 L28.8790861,203.863492 L28.2588001,205.885397 L7.03867403,199.768364 Z" id="Fill-11" fill="#58585B"></path>
                <polygon id="Fill-13" fill="#58585B" points="20.9058276 166.139179 17.8748322 173.219839 16.0883978 172.500577 22.9614508 156.432532 24.7513812 157.155187 21.7308737 164.208706 40.2209945 171.659176 39.3959484 173.589649"></polygon>
                <polygon id="Fill-15" fill="#58585B" points="27.1491713 147.162573 32.8735231 136.247689 34.5618271 137.152315 29.8352664 146.167136 36.8094465 149.911378 40.6694135 142.552126 42.3611701 143.456752 38.5012031 150.816003 45.6134858 154.633593 50.5989888 145.126293 52.2872928 146.030918 46.3039987 157.441774"></polygon>
                <path d="M53.025346,124.093805 C54.4621492,121.910659 53.9717844,119.586108 51.7222786,118.08929 C50.2408967,117.102908 48.7526566,116.961503 47.497597,117.644383 C46.8632089,117.99617 46.287116,118.534197 45.3715397,119.924099 L42.9711525,123.573023 L50.2031764,128.384223 L53.025346,124.093805 Z M40.2209945,124.290392 L43.7358473,118.944615 C44.9531865,117.09601 45.6767318,116.392437 46.4551431,115.878552 C48.3137287,114.67489 50.7003994,114.785255 52.8710353,116.230339 C55.2988556,117.847868 56.2521523,120.475921 55.4771701,122.879797 L55.528607,122.914285 C55.528607,122.914285 55.8749485,122.886694 56.547057,122.928081 L66.3646409,123.807548 L65.0307114,125.838943 L54.7776287,124.890499 L51.787432,129.439583 L59.3486518,134.474961 L58.1827494,136.247689 L40.2209945,124.290392 Z" id="Fill-17" fill="#58585B"></path>
                <path d="M55.3038674,102.031995 L56.6057734,100.418167 L75.4459214,101.874463 C76.7307868,101.993487 78.7995223,102.371564 78.7995223,102.371564 L78.8370117,102.326055 C78.8370117,102.326055 77.361291,101.310849 76.4922176,100.572198 L64.6319219,90.4726459 L65.9713173,88.8133087 L82.4530387,102.84416 L81.1511326,104.457988 L62.3109847,103.001692 C61.0261193,102.882668 58.9573838,102.50109 58.9573838,102.50109 L58.9198944,102.5501 C58.9198944,102.5501 60.3956151,103.565307 61.2646885,104.303957 L73.1249842,114.403509 L71.7855888,116.062847 L55.3038674,102.031995 Z" id="Fill-19" fill="#58585B"></path>
                <path d="M82.7711097,76.1627473 C82.7711097,76.1627473 83.6755566,77.8061463 84.1141793,78.8169251 L87.4735535,86.6522275 L92.7370264,81.3226668 L85.3314425,77.5834922 C84.3691926,77.099308 82.815312,76.120337 82.815312,76.120337 L82.7711097,76.1627473 Z M94.464316,82.2168172 L88.3099969,88.4511309 L91.3157527,95.2791887 L89.7278704,96.8872458 L80.441989,75.3039388 L82.0502723,73.6746765 L102.563536,83.8884898 L100.975654,85.4965469 L94.464316,82.2168172 Z" id="Fill-21" fill="#58585B"></path>
                <polygon id="Fill-23" fill="#58585B" points="99.6845287 59.2401282 93.6986429 64.1854751 92.5082873 62.692147 106.089938 51.4713494 107.280294 52.9646774 101.318283 57.89266 113.624309 73.3364506 111.990555 74.6839187"></polygon>
                <polygon id="Fill-25" fill="#58585B" points="114.629834 45.6277421 116.377011 44.4066543 128.707182 62.3611673 126.963452 63.5822551"></polygon>
                <path d="M146.358759,49.3582062 C150.573378,46.9700011 151.988556,41.5298206 149.381469,36.9587003 C146.832775,32.4936465 141.491509,31.0497746 137.273455,33.4379797 C133.031356,35.8398707 131.568089,41.1329269 134.116784,45.5979808 C136.723871,50.169101 142.11666,51.7600972 146.358759,49.3582062 M136.301378,31.7340741 C141.61173,28.7299995 148.237648,30.4989136 151.301577,35.8706642 C154.423899,41.3450597 152.641187,48.0546158 147.3274,51.0586903 C142.020483,54.0661864 135.318998,52.1604124 132.193241,46.6860169 C129.132747,41.3176878 130.994462,34.7415701 136.301378,31.7340741" id="Fill-27" fill="#58585B"></path>
                <path d="M157.867403,20.6238035 L159.781643,19.8324674 L176.118568,29.7957982 C177.224804,30.4950392 178.917103,31.7775494 178.917103,31.7775494 L178.972588,31.7536729 C178.972588,31.7536729 178.105632,30.1948772 177.658283,29.157954 L171.575717,14.9446026 L173.545442,14.12939 L182,33.8752723 L180.08576,34.6666084 L163.748835,24.7032776 C162.642599,24.0040366 160.9503,22.7181154 160.9503,22.7181154 L160.894815,22.741992 C160.894815,22.741992 161.761771,24.3007876 162.205653,25.3411217 L168.291686,39.5510622 L166.321962,40.3696858 L157.867403,20.6238035 Z" id="Fill-29" fill="#58585B"></path>
                <path d="M194.077655,9.61101823 C194.077655,9.61101823 194.14878,11.4978367 194.087815,12.6017136 L193.586547,21.1505883 L200.597528,18.9534146 L195.710163,12.0938597 C195.076804,11.2051153 194.135233,9.59338441 194.135233,9.59338441 L194.077655,9.61101823 Z M201.732155,20.5721991 L193.528969,23.1396829 L193.163179,30.6270017 L191.049724,31.2865065 L192.397729,7.73478007 L194.541666,7.06469501 L208.143646,25.9328795 L206.030191,26.5959111 L201.732155,20.5721991 Z" id="Fill-31" fill="#58585B"></path>
                <polygon id="Fill-33" fill="#58585B" points="213.171271 2.44996022 215.237043 2.01848429 219.118916 21.869914 228.883452 19.8257083 229.259669 21.7461299 217.429361 24.2218115"></polygon>
                <path d="M237.710948,495.551228 C237.710948,495.551228 237.088149,497.304705 236.507102,498.601937 L230.035558,512.857873 L227.485213,512.473129 L225.237569,490.491682 L227.44694,490.825353 L229.030033,507.873232 C229.137892,508.996819 229.165727,510.202122 229.165727,510.202122 L229.228355,510.212336 C229.259669,510.215741 229.597163,509.06832 230.07731,508.029853 L237.216884,492.306445 L239.245331,492.612878 L241.197232,509.715234 C241.332926,510.84563 241.301612,512.040718 241.332926,512.044123 L241.392074,512.054338 C241.392074,512.054338 241.792196,510.913727 242.241029,509.87526 L249.168365,494.114399 L251.381215,494.451475 L242.293219,514.713494 L239.742874,514.32875 L237.978856,498.82325 C237.825766,497.413659 237.773576,495.561443 237.773576,495.561443 L237.710948,495.551228 Z" id="Fill-35" fill="#58585B"></path>
                <polygon id="Fill-37" fill="#58585B" points="261.015509 494.528651 273.471069 494.852507 273.418246 496.781717 263.135454 496.513578 262.920643 504.474181 271.31943 504.693568 271.266607 506.622778 262.871342 506.403391 262.653008 514.520699 273.502762 514.802768 273.453461 516.731978 260.430939 516.394192"></polygon>
                <polygon id="Fill-39" fill="#58585B" points="283.558011 494.690513 285.731641 494.528651 287.22314 514.627764 297.49045 513.874751 297.635359 515.817102 285.194419 516.731978"></polygon>
                <polygon id="Fill-41" fill="#58585B" points="305.679558 492.877047 307.833653 492.510166 311.266742 512.416963 321.434921 510.677808 321.767956 512.603931 309.445682 514.713494"></polygon>
                <path d="M353.784665,500.307258 C356.287468,499.448616 357.30325,497.377573 356.441057,494.942466 C355.578864,492.510794 353.33437,491.494163 350.918833,492.321893 L345.647936,494.131909 L348.485843,502.127578 L353.784665,500.307258 Z M350.067112,490.662998 C352.158017,489.945174 353.058607,488.011513 352.308116,485.899255 C351.568096,483.81104 349.749462,482.876838 347.543365,483.635877 L342.537758,485.353159 L345.03358,492.394019 L350.067112,490.662998 Z M339.867403,484.254098 L346.93599,481.829295 C350.203248,480.706192 353.215687,481.849903 354.346661,485.037179 C355.097153,487.149437 354.611951,489.038448 353.299463,490.367625 L353.320407,490.426013 C355.645187,490.278326 357.708167,491.810143 358.580832,494.272726 C359.865394,497.896193 357.865246,500.922045 354.39204,502.113839 L347.089579,504.621072 L339.867403,484.254098 Z" id="Fill-43" fill="#58585B"></path>
                <path d="M361.98895,476.47166 L363.943271,475.538587 L370.132533,488.092343 C371.770969,491.414491 374.936761,492.381742 378.310828,490.768518 C381.688367,489.151876 382.903309,486.09632 381.237103,482.716068 L375.075611,470.216998 L376.998691,469.297597 L383.201838,481.878695 C385.315837,486.164677 383.642688,490.392555 379.206414,492.51162 C374.74237,494.647775 370.306096,493.338739 368.192097,489.052758 L361.98895,476.47166 Z" id="Fill-45" fill="#58585B"></path>
                <polygon id="Fill-47" fill="#58585B" points="387.127072 463.364133 388.949519 462.232902 400.198895 481.286514 398.376448 482.417745"></polygon>
                <polygon id="Fill-49" fill="#58585B" points="399.19337 455.423753 400.886691 454.158965 412.211623 470.492305 420.217645 464.516178 421.314917 466.097164 411.612187 473.334566"></polygon>
                <path d="M434.904398,453.175745 C438.940741,449.564367 439.47517,444.801536 435.52321,440.450436 C431.58883,436.120272 426.73678,436.17959 422.725049,439.770032 L419.202039,442.924317 L431.381388,456.33003 L434.904398,453.175745 Z M416.287293,442.927806 L421.582356,438.1894 C426.504726,433.785961 432.531113,433.806897 437.200332,438.946568 C441.915259,444.131599 441.292931,450.059841 436.370561,454.46328 L431.075498,459.205176 L416.287293,442.927806 Z" id="Fill-51" fill="#58585B"></path>
                <polygon id="Fill-53" fill="#58585B" points="436.39779 423.4227 437.810987 421.863216 453.491713 436.448171 452.081905 438.011091"></polygon>
                <path d="M445.447514,413.516486 L446.677386,411.824672 L465.55473,412.405127 C466.842519,412.465296 468.924103,412.751984 468.924103,412.751984 L468.961578,412.702433 C468.961578,412.702433 467.442124,411.746806 466.542716,411.042473 L454.250809,401.401255 L455.514749,399.659889 L472.596685,413.05283 L471.366813,414.744644 L452.489469,414.164189 C451.198273,414.10402 449.116689,413.820871 449.116689,413.820871 L449.082621,413.870422 C449.082621,413.870422 450.598668,414.82251 451.498076,415.526843 L463.79339,425.168062 L462.526043,426.909427 L445.447514,413.516486 Z" id="Fill-55" fill="#58585B"></path>
                <path d="M466.025709,380.912531 C468.532304,376.523948 472.085341,375.438078 472.085341,375.438078 L472.919714,377.235142 C472.919714,377.235142 469.76648,378.366112 467.798751,381.814532 C465.184383,386.393923 466.950472,391.500637 471.456085,394.064402 C476.125096,396.721836 481.409458,395.47985 483.870857,391.174529 C485.977649,387.483262 484.489684,383.63935 484.489684,383.63935 L481.280825,381.814532 L479.434775,385.04439 L477.762553,384.09382 L480.623756,379.084244 L489.690608,384.242997 L488.703267,385.967207 L487.274403,385.151936 C486.871123,384.922967 486.481749,384.666243 486.481749,384.666243 L486.45046,384.718282 C486.45046,384.718282 487.768074,388.35751 485.490931,392.343661 C482.535861,397.512822 476.013847,399.226624 470.374877,396.017581 C464.895829,392.902208 462.91767,386.352292 466.025709,380.912531" id="Fill-57" fill="#58585B"></path>
                <polygon id="Fill-59" fill="#58585B" points="480.640884 351.284996 481.392677 349.197782 501.756906 357.202989 501.005113 359.290203"></polygon>
                <path d="M485.668508,338.398243 L486.208745,336.3924 L504.009216,329.773465 C505.236717,329.3424 507.277993,328.813998 507.277993,328.813998 L507.295089,328.7549 C507.295089,328.7549 505.534189,328.459412 504.446877,328.156971 L489.532229,324.016661 L490.089563,321.948244 L510.80663,327.701572 L510.266393,329.707415 L492.465922,336.32635 C491.238421,336.757415 489.197146,337.285817 489.197146,337.285817 L489.183469,337.344915 C489.183469,337.344915 490.940949,337.640403 492.028262,337.942844 L506.942909,342.083154 L506.388995,344.151571 L485.668508,338.398243 Z" id="Fill-61" fill="#58585B"></path>
                <path d="M509.547769,312.41058 C509.547769,312.41058 512.217293,310.596906 512.74093,307.30268 C513.103712,305.014556 512.008523,302.93169 509.712047,302.578377 C504.366154,301.760709 504.071822,312.393756 497.486996,311.38429 C494.437579,310.91657 492.195863,307.867981 492.808484,304.00509 C493.383459,300.381105 495.748383,298.735675 495.748383,298.735675 L497.33983,300.014332 C497.33983,300.014332 495.235013,301.579005 494.803783,304.311294 C494.379397,306.983016 495.888704,308.978394 497.760794,309.267775 C502.80551,310.038334 503.007435,299.391828 509.985845,300.461862 C513.158471,300.946406 515.345428,303.745993 514.722539,307.666088 C514.048313,311.942861 510.957825,313.874307 510.957825,313.874307 L509.547769,312.41058 Z" id="Fill-63" fill="#58585B"></path>
                <polygon id="Fill-65" fill="#58585B" points="497.029233 283.707548 496.622827 291.67098 494.718232 291.568704 495.637811 273.504621 497.542406 273.606897 497.139444 281.535061 516.839779 282.589564 516.729567 284.76205"></polygon>
                <polygon id="Fill-67" fill="#58585B" points="495.794006 263.879479 495.723757 262.014399 517.775054 261.393715 517.845304 263.258795"></polygon>
                <polygon id="Fill-69" fill="#58585B" points="496.830094 246.195198 497.762496 254.10357 495.823805 254.32902 493.712707 236.391635 495.64788 236.162662 496.576763 244.03933 516.586447 241.679148 516.839779 243.835016"></polygon>
                <path d="M491.572419,228.088725 L491.065114,225.929237 L505.0618,222.599582 C508.767945,221.720185 510.441347,218.784132 509.564132,215.053785 C508.686917,211.323438 505.882648,209.419259 502.11309,210.316386 L488.176294,213.631856 L487.679558,211.504282 L501.70795,208.167536 C506.485072,207.029283 510.367365,209.653292 511.515847,214.557351 C512.674898,219.489778 510.377934,223.617272 505.600812,224.751979 L491.572419,228.088725 Z" id="Fill-71" fill="#58585B"></path>
                <polygon id="Fill-73" fill="#58585B" points="484.875019 194.936369 487.564992 202.214108 485.737774 202.857671 479.635359 186.344118 481.462577 185.700555 484.142028 192.950908 503.034965 186.299616 503.767956 188.285076"></polygon>
                <polygon id="Fill-75" fill="#58585B" points="475.955655 178.63586 470.585635 167.491568 472.329058 166.64884 476.76273 175.852409 483.960024 172.376593 480.340414 164.861977 482.083837 164.022746 485.703447 171.533865 493.043988 167.99161 488.365747 158.284503 490.109169 157.441774 495.723757 169.093101"></polygon>
                <path d="M209.957833,509.667283 L215.18232,489.471902 C116.68465,463.694709 47.894986,374.10401 47.894986,271.593413 C47.894986,261.977394 48.5035299,252.302252 49.7033295,242.832298 L29.1234813,240.19963 C27.8130373,250.535547 27.1491713,261.100997 27.1491713,271.593413 C27.1491713,383.598308 102.321631,481.497388 209.957833,509.667283" id="Fill-77" fill="#D1BC70"></path>
                <path d="M272.602634,46.1081649 C353.137244,46.1081649 427.859079,89.9292214 467.607387,160.469501 L485.668508,150.180565 C442.242237,73.1092288 360.600432,25.2310536 272.602634,25.2310536 C260.776405,25.2310536 248.901737,26.0870152 237.303867,27.7745817 L240.279454,48.4359628 C250.894688,46.8945361 261.769421,46.1081649 272.602634,46.1081649" id="Fill-79" fill="#D1BC70"></path>
                <path d="M489.690608,271.376638 C489.690608,218.702594 470.747664,167.847054 436.353453,128.173752 L420.698013,141.880339 C451.7978,177.749733 468.927425,223.74086 468.927425,271.376638 C468.927425,380.135727 380.863848,468.620055 272.618457,468.620055 C242.972093,468.620055 214.485007,462.145762 187.94966,449.381459 L178.983425,468.19933 C208.339105,482.319688 239.843774,489.48244 272.618457,489.48244 C392.311282,489.48244 489.690608,391.641332 489.690608,271.376638" id="Fill-81" fill="#D1BC70"></path>
                <path d="M272.089062,440.375023 C227.330668,440.375023 185.172132,422.962936 153.378406,391.349452 L138.762431,406.155459 C174.468059,441.667638 221.819386,461.22366 272.089062,461.22366 C376.5507,461.22366 461.535912,375.921461 461.535912,271.073664 C461.535912,210.793304 433.986426,155.395 385.956575,119.090573 L373.459259,135.745159 C416.234006,168.077921 440.764749,217.402322 440.764749,271.073664 C440.764749,364.430387 365.095404,440.375023 272.089062,440.375023" id="Fill-83" fill="#D1BC70"></path>
                <path d="M272.129446,433.974122 C300.130757,433.974122 327.723188,426.654216 351.933702,412.803668 L341.670135,394.580734 C320.585124,406.643213 296.537469,413.020192 272.129446,413.020192 C222.495642,413.020192 175.935363,386.244562 150.619489,343.142329 L132.729282,353.818356 C161.770116,403.259153 215.184323,433.974122 272.129446,433.974122" id="Fill-85" fill="#D1BC70"></path>
                <path d="M422.331386,333.049908 C430.329985,313.509104 434.38674,292.81311 434.38674,271.529082 C434.38674,241.094002 425.918045,211.41397 409.889508,185.700555 L392.154696,196.73749 C406.11481,219.138433 413.493579,244.997987 413.493579,271.529082 C413.493579,290.085191 409.962634,308.126336 402.991283,325.147991 L422.331386,333.049908 Z" id="Fill-87" fill="#D1BC70"></path>
                <g id="Group-91">
                    <mask id="mask-2" fill="white">
                        <use xlink:href="#path-1"></use>
                    </mask>
                    <g id="Clip-90"></g>
                    <path d="M303.907268,0.171450955 L301.532295,20.9020624 C428.506818,35.5675529 524.253557,143.592088 524.253557,272.183782 C524.253557,411.660699 411.293454,525.134801 272.444064,525.134801 C206.61645,525.134801 144.351296,499.782317 97.1184075,453.74791 C49.9859188,407.817833 22.8676006,346.279808 20.7626679,280.471158 L0.000692412057,281.142355 C2.28219014,352.386661 31.6335372,419.005617 82.6539196,468.726394 C133.785088,518.558457 201.18794,546.001043 272.444064,546.001043 C422.74595,546.001043 545.025919,423.164954 545.025919,272.183782 C545.025919,132.985082 441.368372,16.0471834 303.907268,0.171450955" id="Fill-89" fill="#D1BC70" mask="url(#mask-2)"></path>
                </g>
                <path d="M136.733161,185.700555 L153.390939,248.639837 C154.598024,253.378509 155.201567,257.756139 155.201567,257.756139 L155.442984,257.756139 C155.442984,257.756139 155.805109,253.257004 157.012195,248.639837 L172.704304,185.700555 L185.016575,185.700555 L162.685496,271.486137 L148.804014,271.486137 L134.077573,215.833647 C132.629071,210.365949 131.542694,203.683207 131.542694,203.683207 L131.301277,203.683207 C131.301277,203.683207 130.2149,210.365949 128.766398,215.833647 L114.039957,271.486137 L100.158475,271.486137 L78.4309392,185.700555 L90.7432097,185.700555 L105.831776,248.639837 C106.918153,253.257004 107.400987,257.756139 107.400987,257.756139 L107.642404,257.756139 C107.642404,257.756139 108.245947,253.378509 109.453032,248.639837 L126.11081,185.700555 L136.733161,185.700555 Z" id="Fill-92" fill="#58585B"></path>
                <polygon id="Fill-94" fill="#58585B" points="201.104972 185.700555 250.345077 185.700555 250.345077 196.149933 212.994656 196.149933 212.994656 223.002407 243.379404 223.002407 243.379404 233.451786 212.994656 233.451786 212.994656 261.033286 252.38674 261.033286 252.38674 271.486137 201.104972 271.486137"></polygon>
                <polygon id="Fill-96" fill="#58585B" points="270.486188 185.700555 282.479798 185.700555 282.479798 261.033286 320.762431 261.033286 320.762431 271.486137 270.486188 271.486137"></polygon>
                <polygon id="Fill-98" fill="#58585B" points="334.839779 185.700555 346.833389 185.700555 346.833389 261.033286 385.116022 261.033286 385.116022 271.486137 334.839779 271.486137"></polygon>
                <path d="M141.926886,292.680222 C147.658856,292.680222 150.645791,295.498785 150.645791,295.498785 L148.948987,297.953883 C148.948987,297.953883 146.270562,295.663372 142.196832,295.663372 C136.56653,295.663372 133.169418,299.682053 133.169418,304.691689 C133.169418,310.133367 136.973202,313.881165 141.993496,313.881165 C146.130331,313.881165 148.780709,310.963163 148.780709,310.963163 L148.780709,307.57883 L144.878763,307.57883 L144.878763,304.722549 L151.834254,304.722549 L151.834254,316.50428 L148.878872,316.50428 L148.878872,315.043565 C148.878872,314.546373 148.913929,314.049181 148.913929,314.049181 L148.847319,314.049181 C148.847319,314.049181 146.235504,316.902033 141.485156,316.902033 C135.038005,316.902033 129.712707,311.926687 129.712707,304.756838 C129.712707,297.988173 134.936337,292.680222 141.926886,292.680222" id="Fill-100" fill="#58585B"></path>
                <path d="M170.956425,313.884166 C175.751299,313.884166 179.610589,309.90264 179.610589,304.624802 C179.610589,299.515005 175.751299,295.663795 170.956425,295.663795 C166.16499,295.663795 162.267864,299.515005 162.267864,304.624802 C162.267864,309.90264 166.16499,313.884166 170.956425,313.884166 M170.956425,292.680222 C177.746297,292.680222 183.005525,297.889472 183.005525,304.624802 C183.005525,311.528173 177.746297,316.902033 170.956425,316.902033 C164.166552,316.902033 158.872928,311.528173 158.872928,304.624802 C158.872928,297.889472 164.166552,292.680222 170.956425,292.680222" id="Fill-102" fill="#58585B"></path>
                <polygon id="Fill-104" fill="#58585B" points="191.049724 292.680222 194.40698 292.680222 194.40698 313.952304 205.127072 313.952304 205.127072 316.902033 191.049724 316.902033"></polygon>
                <path d="M219.877871,313.949191 C225.276709,313.949191 228.811579,310.723398 228.811579,304.757452 C228.811579,298.823409 225.245116,295.633064 219.877871,295.633064 L215.528611,295.633064 L215.528611,313.949191 L219.877871,313.949191 Z M212.165746,292.680222 L220.116571,292.680222 C227.453094,292.680222 232.276243,297.104167 232.276243,304.757452 C232.276243,312.442639 227.453094,316.902033 220.116571,316.902033 L212.165746,316.902033 L212.165746,292.680222 Z" id="Fill-106" fill="#58585B"></path>
                <polygon id="Fill-108" fill="#59595B" points="503.054772 51.7978689 497.734807 51.7978689 497.734807 50.4621072 509.801105 50.4621072 509.801105 51.7978689 504.502167 51.7978689 504.502167 65.6007394 503.054772 65.6007394"></polygon>
                <path d="M512.948625,50.4621072 L514.409801,50.4621072 L518.140535,59.3564127 C518.465241,60.1320162 518.830535,61.2092434 518.830535,61.2092434 L518.871123,61.2092434 C518.871123,61.2092434 519.256711,60.1320162 519.581417,59.3564127 L523.312151,50.4621072 L524.753033,50.4621072 L525.889503,65.6007394 L524.489209,65.6007394 L523.701121,55.0080058 C523.636856,54.1893131 523.657151,52.8966406 523.657151,52.8966406 L523.616562,52.8966406 C523.616562,52.8966406 523.190386,54.2324022 522.869063,55.0080058 L519.520534,62.7784042 L518.2048,62.7784042 L514.852889,55.0080058 C514.531566,54.2539468 514.085095,52.8535515 514.085095,52.8535515 L514.044507,52.8535515 C514.044507,52.8535515 514.064801,54.1893131 514.003919,55.0080058 L513.212448,65.6007394 L511.812155,65.6007394 L512.948625,50.4621072 Z" id="Fill-110" fill="#59595B"></path>
            </g>
        </g>
    </g>
</svg>