<?xml version="1.0" encoding="utf-8"?>
<!-- Generator: Adobe Illustrator 18.1.1, SVG Export Plug-In . SVG Version: 6.00 Build 0)  -->
<!DOCTYPE svg PUBLIC "-//W3C//DTD SVG 1.1//EN" "http://www.w3.org/Graphics/SVG/1.1/DTD/svg11.dtd">
<svg version="1.1" xmlns="http://www.w3.org/2000/svg" xmlns:xlink="http://www.w3.org/1999/xlink" x="0px" y="0px"
	 viewBox="0 0 36 36" enable-background="new 0 0 36 36" xml:space="preserve">
<g id="Guide">
</g>
<g id="Layer_1">
	<polygon points="22,34 14,34 12,25 24,25 	"/>
	<path d="M19,19v-2h3c1.7,0,3-1.3,3-3v-3h-3c-1.7,0-3,1.3-3,3V3c0-0.6-0.4-1-1-1s-1,0.4-1,1v4c0-1.7-1.3-3-3-3h-3v3c0,1.7,1.3,3,3,3
		h3v9h-7v4h16v-4H19z"/>
</g>
</svg>
