<?xml version="1.0" encoding="utf-8"?>
<!-- Generator: Adobe Illustrator 18.1.1, SVG Export Plug-In . SVG Version: 6.00 Build 0)  -->
<!DOCTYPE svg PUBLIC "-//W3C//DTD SVG 1.1//EN" "http://www.w3.org/Graphics/SVG/1.1/DTD/svg11.dtd">
<svg version="1.1" xmlns="http://www.w3.org/2000/svg" xmlns:xlink="http://www.w3.org/1999/xlink" x="0px" y="0px"
	 viewBox="0 0 36 36" enable-background="new 0 0 36 36" xml:space="preserve">
<g id="Guide">
</g>
<g id="Layer_1">
	<path d="M18,6c6.6,0,12,5.4,12,12s-5.4,12-12,12S6,24.6,6,18S11.4,6,18,6 M18,2C9.2,2,2,9.2,2,18s7.2,16,16,16s16-7.2,16-16
		S26.8,2,18,2L18,2z"/>
	<path d="M18,14c2.2,0,4,1.8,4,4s-1.8,4-4,4s-4-1.8-4-4S15.8,14,18,14 M18,10c-4.4,0-8,3.6-8,8s3.6,8,8,8s8-3.6,8-8S22.4,10,18,10
		L18,10z"/>
</g>
</svg>
