<?xml version="1.0" encoding="utf-8"?><svg width="14" height="11" viewBox="0 0 14 11" xmlns="http://www.w3.org/2000/svg"><path d="M2.12 5.41l-1.5-.57-.02.13-.21-.89-.01-.06-.38.06L.45 6l.01.06L.84 6l-.12-.53 1.31.52.09-.58zm3.77-.97l-1.62-.3.31-1.66 1.61.31-.3 1.65zm2.43.46L6.7 4.6 7 2.94l1.63.31-.31 1.65zM6.36 7.88a3.84 3.84 0 0 1-.67-.06 4 4 0 0 1-1.61-.72A3.61 3.61 0 0 1 3 5.93l-.19-.49A3.4 3.4 0 0 1 2.68 4v-.13l.79.13v.1c-.05.434.03.872.23 1.26.21.399.511.741.88 1a3.29 3.29 0 0 0 2.66.51 2.78 2.78 0 0 0 1.16-.63c.332-.29.57-.673.68-1.1v-.11l.81.14v.13A3.17 3.17 0 0 1 9 6.88a3.56 3.56 0 0 1-1.54.85 3.9 3.9 0 0 1-1.1.15zm6.53-4.72L0 .58.11 0 13 2.58l-.11.58zM8.62 10l-.36-.13.13-.17-5.9-1.16.08-.45h.07l6 1.18.39-.53.4.14v.07L8.62 10z"/></svg>