 
 <?xml-stylesheet type="text/css" href="css/style3.css" ?>
<svg width="100px" height="100px" viewBox="0 0 100 100" version="1.1" xmlns="http://www.w3.org/2000/svg" xmlns:xlink="http://www.w3.org/1999/xlink">
   
    <g id="Comfort" stroke="none" stroke-width="0" fill="none" fill-rule="evenodd">
        <g id="Comfort">            
        <path  d="M99.150262,49.6869347 C99.150262,77.1281407 77.0035398,99.3738693 49.684463,99.3738693 C22.3653863,99.3738693 0.218664,77.1281407 0.218664,49.6869347 C0.218664,22.2457286 22.3653863,0 49.684463,0 C77.0035398,0 99.150262,22.2457286 99.150262,49.6869347" id="Fill-1" fill="#A8D6AD"></path>
            
          
            <path class="star" d="M53.5142766,38.2336181 C53.5142766,40.0486935 52.0494682,41.5195477 50.2429712,41.5195477 C48.435974,41.5195477 46.9716659,40.0486935 46.9716659,38.2336181 C46.9716659,36.4185427 48.435974,34.9476884 50.2429712,34.9476884 C52.0494682,34.9476884 53.5142766,36.4185427 53.5142766,38.2336181 Z" id="Stroke-5" stroke="#FFFFFF" stroke-width="2"></path>
          
            <path class="star" d="M46.113042,48.6592462 L47.6148708,65.2964322 C47.6148708,65.2964322 47.4337709,68.4150251 49.6710056,68.4150251" id="Stroke-9" stroke="#FFFFFF" stroke-width="2" stroke-linecap="round" stroke-linejoin="round"></path>
          
            <path class="star" d="M50.8039308,68.4152261 C53.0411655,68.4152261 52.821044,65.3001508 52.821044,65.3001508 L54.3238734,48.6594472" id="Stroke-11" stroke="#FFFFFF" stroke-width="2" stroke-linecap="round" stroke-linejoin="round"></path>
          
            <path class="star" d="M54.3391318,48.6823116 L60.5610655,45.3843216 C60.5610655,45.3843216 63.231039,44.0742714 62.2474962,42.1727638 C61.2159269,40.1782915 58.6580153,41.7677387 58.6580153,41.7677387 L52.4385829,45.0627136 L47.9951307,45.0627136 L41.7756983,41.7677387 C41.7756983,41.7677387 39.2177867,40.1782915 38.1862174,42.1727638 C37.2021743,44.0742714 39.8726481,45.3843216 39.8726481,45.3843216 L46.0945818,48.6823116" id="Stroke-13" stroke="#FFFFFF" stroke-width="2" stroke-linecap="round" stroke-linejoin="round"></path>
          
            <polyline class="star3" stroke="#FFFFFF" stroke-width="2" stroke-linecap="round" stroke-linejoin="round" points="47.3177569 21.368191 51.9708248 25.2279899 47.3177569 29.0877889"></polyline>
          
            <path class="star" d="M67.1269391,32.4217085 C71.6824532,36.941809 74.5055112,43.2196985 74.5055112,50.1598995 C74.5055112,63.9292462 63.3928784,75.0915578 49.6848132,75.0915578 C35.976748,75.0915578 24.8641152,63.9292462 24.8641152,50.1598995 C24.8641152,36.3905528 35.976748,25.2282412 49.6848132,25.2282412" id="Stroke-7" stroke="#FFFFFF" stroke-width="2" stroke-linecap="round" stroke-linejoin="round"></path>
          
    
      </g>
    </g>
</svg>