<?xml version="1.0" encoding="UTF-8" standalone="no"?>
<?xml-stylesheet type="text/css" href="css/style3.css" ?>
<svg width="100px" height="100px" viewBox="0 0 185 185" version="1.1" xmlns="http://www.w3.org/2000/svg" xmlns:xlink="http://www.w3.org/1999/xlink">
        
    <defs>
        <rect id="path-1" x="0" y="0" width="200" height="200"></rect>
        <rect id="path-3" x="0" y="0" width="200" height="200"></rect>
    </defs>
    <g id="Page-1" stroke="none" stroke-width="1" fill="none" fill-rule="evenodd">
        <g id="community" transform="translate(-7.000000, -8.000000)">
            <g id="Clipped">
                <mask id="mask-2" fill="white">
                    <use xlink:href="#path-1"></use>
                </mask>
                <g id="SVGID_1_"></g>
                <path d="M7.639,100.806 C7.639,49.921 48.89,8.67 99.775,8.67 C150.66,8.67 191.91,49.921 191.91,100.806 C191.91,151.691 150.66,192.942 99.775,192.942 C48.89,192.942 7.639,151.69 7.639,100.806" id="Shape" fill="#23483E" fill-rule="nonzero" mask="url(#mask-2)"></path>
            </g>
            <g id="Clipped">
                <mask id="mask-4" fill="white">
                    <use xlink:href="#path-3"></use>
                </mask>
                <g id="SVGID_1_"></g>
                <path class="star" d="M157.643,93.921 C156.102,84.935 150.709,77.084 142.849,72.381 C134.975,67.669 125.484,66.629 116.808,69.526 C114.247,70.382 111.692,71.251 109.135,72.12 C105.98,73.192 102.718,74.301 99.502,75.365 C99.059,75.511 98.414,75.476 97.969,75.282 C95.89,74.373 93.787,73.421 91.752,72.5 C89.623,71.535 87.419,70.538 85.239,69.587 C75.089,65.164 65.174,65.759 55.771,71.356 C44.769,77.903 39.044,90.733 41.526,103.279 C42.931,110.383 46.708,116.45 52.752,121.309 C53.012,121.518 53.254,121.946 53.241,122.173 C53.092,124.727 54.121,127.063 56.061,128.583 C57.978,130.084 60.456,130.52 62.859,129.775 C63.425,129.6 63.992,129.404 64.54,129.213 C65.038,129.04 65.536,128.868 66.038,128.709 C66.495,128.564 66.609,128.614 66.609,128.614 C66.616,128.619 66.682,128.711 66.626,129.148 C66.266,131.964 67.19,134.511 69.163,136.135 C71.14,137.764 73.827,138.183 76.534,137.285 C77.234,137.053 77.932,136.813 78.631,136.575 C79.535,136.266 80.438,135.958 81.345,135.663 C81.802,135.515 82.325,135.592 82.781,135.874 C83.232,136.154 83.53,136.582 83.598,137.046 C84.184,141.03 87.121,143.34 91.08,142.932 C92.12,142.826 93.13,142.561 94.003,142.167 C95.028,141.705 95.904,141.755 97.027,142.339 C98.5,143.105 100.12,143.839 101.983,144.584 C102.985,144.985 103.993,145.186 104.966,145.186 C106.089,145.186 107.166,144.919 108.134,144.389 C109.865,143.441 111.041,141.749 111.445,139.627 C111.549,139.072 111.524,138.514 111.497,137.923 C111.493,137.838 111.489,137.752 111.485,137.663 C111.681,137.744 111.857,137.816 112.031,137.894 C112.767,138.224 113.503,138.559 114.237,138.895 C115.773,139.595 117.362,140.321 118.95,140.983 C121.005,141.84 123.287,141.745 125.215,140.724 C127.123,139.711 128.47,137.898 128.907,135.745 C129.061,134.99 129.023,134.228 128.983,133.422 C128.974,133.257 128.966,133.089 128.96,132.921 C129.261,133.057 129.558,133.192 129.852,133.327 C130.886,133.8 131.862,134.246 132.87,134.659 C134.949,135.511 137.26,135.402 139.207,134.359 C141.076,133.358 142.389,131.593 142.807,129.516 C143.011,128.503 142.929,127.449 142.841,126.331 C142.806,125.869 142.769,125.393 142.75,124.901 C142.873,124.825 143.041,124.72 143.211,124.618 C154.041,118.005 159.707,105.953 157.643,93.921 M107.572,140.672 C106.747,141.78 105.568,142.223 104.342,141.886 C103.154,141.561 101.976,141.065 100.837,140.585 C100.53,140.456 100.224,140.326 99.917,140.2 L108.138,137.407 C108.567,138.534 108.385,139.58 107.572,140.672 M134.452,131.808 C133.313,131.377 132.193,130.869 131.008,130.33 C130.737,130.206 130.462,130.081 130.181,129.955 L139.548,126.664 C140.079,127.909 139.84,129.357 138.89,130.515 C137.776,131.872 135.993,132.393 134.452,131.808 M129.189,126.845 C128.402,127.112 127.616,127.377 126.834,127.648 C116.533,131.202 106.035,134.741 95.882,138.164 L92.551,139.287 C91.657,139.588 90.81,139.749 90.034,139.765 C88.63,139.785 87.493,138.947 86.988,137.5 C86.51,136.129 86.869,134.712 87.9,133.89 C88.502,133.411 89.245,133.01 90.046,132.734 C95.115,130.985 100.276,129.233 105.268,127.538 L110.3,125.828 C110.367,125.806 110.446,125.787 110.524,125.768 C110.807,125.701 111.127,125.623 111.29,125.348 L111.313,125.308 C111.629,124.772 112.023,124.105 111.823,123.569 C111.606,122.99 110.731,122.639 110.18,122.576 C110.13,122.57 110.081,122.567 110.033,122.567 C109.668,122.567 109.322,122.717 108.986,122.863 C108.851,122.921 108.717,122.98 108.584,123.025 L100.351,125.814 C92.212,128.57 83.796,131.42 75.525,134.243 C73.638,134.886 72.109,134.569 70.849,133.273 C69.861,132.257 69.479,130.895 69.803,129.538 C70.143,128.114 71.212,126.966 72.666,126.466 C76.822,125.037 81.055,123.605 85.15,122.219 L89.242,120.833 C92.57,119.704 95.898,118.578 99.226,117.452 L103.471,116.015 L103.575,115.979 C104.564,115.638 105.649,115.077 105.258,113.748 C105.135,113.327 104.903,113.026 104.569,112.852 C104.1,112.608 103.454,112.629 102.59,112.919 C100.745,113.538 98.902,114.163 97.06,114.788 L87.109,118.165 C78.794,120.988 70.477,123.811 62.156,126.619 C60.608,127.141 59.005,126.882 57.871,125.926 C56.79,125.015 56.304,123.638 56.537,122.151 C56.802,120.457 57.85,119.323 59.74,118.685 C66.545,116.387 73.348,114.081 80.151,111.775 L102.839,104.093 C102.905,104.071 102.979,104.053 103.053,104.034 C103.328,103.965 103.64,103.886 103.817,103.624 L103.862,103.558 C104.205,103.05 104.631,102.419 104.459,101.888 C104.264,101.284 103.38,100.935 102.887,100.823 C102.501,100.735 102.112,100.899 101.768,101.044 C101.661,101.09 101.554,101.134 101.452,101.169 L89.728,105.14 C82.171,107.701 74.615,110.262 67.055,112.816 C64.819,113.571 62.682,112.76 61.737,110.799 C61.213,109.711 61.17,108.529 61.613,107.471 C62.091,106.328 63.072,105.453 64.373,105.009 C68.451,103.615 72.534,102.234 76.616,100.852 L83.041,98.675 C87.689,97.099 92.496,95.469 97.234,93.901 C97.632,93.769 98.196,93.794 98.575,93.96 C100.488,94.799 102.424,95.676 104.296,96.525 C106.459,97.505 108.694,98.518 110.91,99.48 C113.636,100.663 116.687,100.366 119.078,98.686 C121.458,97.013 122.767,94.256 122.579,91.31 C122.371,88.047 120.64,85.583 117.572,84.184 C114.443,82.757 111.306,81.345 108.171,79.933 C106.641,79.243 105.11,78.554 103.581,77.863 C103.329,77.75 103.081,77.629 102.832,77.508 C104.7,76.915 106.581,76.278 108.404,75.66 C112.758,74.185 117.261,72.66 121.791,71.664 C128.634,70.16 136.101,71.659 142.275,75.78 C148.654,80.036 153.055,86.619 154.351,93.841 C156.494,105.786 150.73,117.365 140.008,122.654 C136.559,124.352 132.812,125.619 129.189,126.845 M118.948,93.937 C118.376,95.219 117.42,96.145 116.184,96.615 C114.842,97.126 113.28,97.036 111.783,96.362 L109.971,95.547 C103.522,92.644 96.853,89.642 90.309,86.657 C89.176,86.14 88.356,86.249 87.384,87.046 C85.245,88.798 82.523,89.358 79.063,88.757 C77.402,88.468 75.742,87.912 74.137,87.373 C73.694,87.225 73.25,87.076 72.807,86.933 C72.03,86.681 70.963,86.336 70.306,87.569 C70.104,87.95 70.063,88.34 70.189,88.698 C70.357,89.176 70.806,89.574 71.522,89.881 C74.981,91.362 79.578,92.918 84.477,91.786 C85.511,91.547 86.49,91.087 87.436,90.641 C87.884,90.43 88.348,90.212 88.805,90.024 C88.855,90.004 88.908,89.98 88.961,89.956 C89.082,89.903 89.304,89.805 89.358,89.804 C90.603,90.328 91.848,90.892 93.165,91.49 L93.601,91.687 L91.017,92.567 C88.414,93.455 85.89,94.315 83.366,95.172 C81.577,95.779 79.789,96.389 78,97 C73.323,98.596 68.486,100.247 63.713,101.824 C60.578,102.86 58.736,104.852 58.24,107.745 C57.754,110.578 58.724,113.031 61.047,114.864 C60.696,114.989 60.338,115.108 59.989,115.224 C57.96,115.897 55.867,116.591 54.532,118.654 C47.523,112.706 44.132,105.679 44.167,97.185 C44.222,84.087 54.108,72.553 67.164,70.357 C68.837,70.075 70.498,69.934 72.14,69.934 C76.205,69.934 80.161,70.796 83.952,72.511 C89.274,74.92 94.599,77.324 99.923,79.729 C105.305,82.16 110.687,84.591 116.067,87.025 C118.944,88.329 120.156,91.234 118.948,93.937 M120.562,138.15 C118.931,137.506 117.327,136.778 115.628,136.007 C115.154,135.792 114.673,135.573 114.182,135.353 L115.584,134.877 C118.752,133.801 121.745,132.785 124.745,131.808 C124.86,131.806 125.191,131.977 125.296,132.135 C126.195,133.501 126.092,135.396 125.045,136.743 C123.934,138.175 122.09,138.755 120.562,138.15" id="Shape" stroke="#FFFFFF" stroke-width="2" stroke-linecap="round" stroke-linejoin="round"></path>
            </g>
        </g>
    </g>
</svg>