<?xml version="1.0" encoding="UTF-8" standalone="no"?>
<?xml-stylesheet type="text/css" href="css/style3.css" ?>
<svg width="100px" height="100px" viewBox="0 0 100 100" version="1.1" xmlns="http://www.w3.org/2000/svg" xmlns:xlink="http://www.w3.org/1999/xlink">
   
    <g id="Fitness" stroke="none" stroke-width="1" fill="none" fill-rule="evenodd">
        <g id="Fitness">
            <path d="M99.150262,49.6869347 C99.150262,77.1281407 77.0035398,99.3738693 49.684463,99.3738693 C22.3653863,99.3738693 0.218664,77.1281407 0.218664,49.6869347 C0.218664,22.2457286 22.3653863,0 49.684463,0 C77.0035398,0 99.150262,22.2457286 99.150262,49.6869347" id="Fill-1" fill="#92CCD4" fill-rule="nonzero"></path>
          
            <path class="star" d="M73.2084954,45.4845729 C73.2084954,37.7659799 66.9790575,31.508191 59.2943165,31.508191 C55.5657588,31.508191 52.1823916,34.9961307 49.684513,37.3946231 C47.1861342,34.9961307 43.802767,31.508191 40.0742093,31.508191 C32.3899686,31.508191 26.1605307,37.7659799 26.1605307,45.4845729 C26.1605307,49.6403518 27.9680282,53.37 30.8341099,55.9303015 L49.7150299,72.8840704 L67.790005,56.549397 L69.6505318,54.8162312 C71.8617521,52.3418593 73.2084954,49.0715075 73.2084954,45.4845729 Z" id="Stroke-3" stroke="#FFFFFF" stroke-width="2"></path>
            <polyline class="star2" stroke="#FFFFFF" stroke-width="2" stroke-linecap="round" stroke-linejoin="round" points="28.6310441 52.6886432 42.280577 52.6886432 45.1626675 46.4615075 49.8277421 60.1745729 55.1917023 43.1489447 57.3794097 52.2484422 70.5606841 52.2484422"></polyline>
        </g>
    </g>
</svg>
