<?xml version="1.0" encoding="UTF-8" standalone="no"?>
<?xml-stylesheet type="text/css" href="css/style3.css" ?>
<svg width="100px" height="100px" viewBox="0 0 185 185" version="1.1" xmlns="http://www.w3.org/2000/svg" xmlns:xlink="http://www.w3.org/1999/xlink">
   
    <defs>
        <rect id="path-1" x="0" y="0" width="200" height="200"></rect>
        <rect id="path-3" x="0" y="0" width="200" height="200"></rect>
        <rect id="path-5" x="0" y="0" width="200" height="200"></rect>
        <rect id="path-7" x="0" y="0" width="200" height="200"></rect>
        <rect id="path-9" x="0" y="0" width="200" height="200"></rect>
        <rect id="path-11" x="0" y="0" width="200" height="200"></rect>
    </defs>
    <g id="Page-1" stroke="none" stroke-width="1" fill="none" fill-rule="evenodd">
        <g id="sound" transform="translate(-7.000000, -8.000000)">
            <g id="Clipped">
                <mask id="mask-2" fill="white">
                    <use xlink:href="#path-1"></use>
                </mask>
                <g id="SVGID_1_"></g>
                <path d="M7.639,100.806 C7.639,49.921 48.89,8.67 99.775,8.67 C150.66,8.67 191.91,49.921 191.91,100.806 C191.91,151.691 150.66,192.942 99.775,192.942 C48.89,192.942 7.639,151.69 7.639,100.806" id="Shape" fill="#63AA85" fill-rule="nonzero" mask="url(#mask-2)"></path>
            </g>
            <g id="Clipped">
                <mask id="mask-4" fill="white">
                    <use xlink:href="#path-3"></use>
                </mask>
                <g id="SVGID_1_"></g>
                <path class="star" d="M103.94,112.635 L103.941,95.784 C103.941,82.482 103.941,69.18 103.936,55.878 C103.935,55.476 103.923,55.059 103.835,54.735 C103.66,54.086 103.157,53.567 102.491,53.347 C101.679,53.078 100.783,53.284 99.966,53.928 C90.285,61.553 80.612,69.029 71.259,76.259 C70.481,76.861 69.396,77.239 68.428,77.245 C62.85,77.28 57.181,77.278 51.699,77.275 C50.019,77.274 48.337,77.274 46.657,77.274 C44.775,77.275 44.009,78.032 44.008,79.889 C44.007,95.167 44.007,110.446 44.008,125.723 C44.008,127.605 44.766,128.373 46.621,128.373 C48.276,128.373 49.932,128.375 51.588,128.376 C57.503,128.38 63.62,128.385 69.634,128.349 L69.676,128.349 C71.029,128.349 72.138,128.743 73.263,129.619 C78.215,133.474 83.26,137.385 88.14,141.166 C92.091,144.228 96.043,147.292 99.991,150.36 C101.268,151.353 102.052,151.189 102.709,150.864 C103.46,150.494 103.959,149.93 103.956,148.39 C103.938,136.471 103.939,124.354 103.94,112.635 Z M67.911,123.917 L48.473,123.917 L48.473,81.767 L67.911,81.767 L67.911,123.917 Z M99.503,144.222 L96.99,142.373 C96.858,142.275 96.738,142.188 96.625,142.106 C96.384,141.93 96.177,141.78 95.974,141.622 L90.899,137.676 C85.279,133.303 79.468,128.782 73.738,124.356 C72.812,123.639 72.38,122.743 72.382,121.531 C72.399,108.724 72.399,95.712 72.382,82.853 C72.38,81.64 72.811,80.742 73.737,80.027 C79.445,75.616 85.236,71.112 90.836,66.755 L95.973,62.76 C96.173,62.604 96.372,62.462 96.603,62.296 C96.72,62.212 96.85,62.119 96.997,62.012 L99.503,60.186 L99.503,144.222 Z" id="Shape" stroke="#FFFFFF" stroke-width="2" stroke-linecap="round" stroke-linejoin="round"></path>
            </g>
            <g id="Clipped">
                <mask id="mask-6" fill="white">
                    <use xlink:href="#path-5"></use>
                </mask>
                <g id="SVGID_1_"></g>
                <path class="star" d="M119.187,71.892 C118.759,71.682 118.331,71.58 117.928,71.58 C117.104,71.58 116.386,72.003 115.997,72.787 C115.407,73.976 115.885,75.194 117.212,75.89 C117.302,75.937 117.392,75.982 117.482,76.027 C117.578,76.075 117.674,76.123 117.769,76.172 C128.758,81.866 135.156,94.189 133.326,106.14 C131.782,116.216 126.398,123.719 117.323,128.441 C116.555,128.84 116.025,129.405 115.828,130.031 C115.665,130.55 115.729,131.093 116.018,131.647 C116.3,132.186 116.727,132.556 117.253,132.719 C117.867,132.909 118.597,132.806 119.308,132.429 C130.957,126.232 137.447,116.314 138.075,103.746 C137.968,94.098 135.346,86.59 129.829,80.121 C126.915,76.706 123.335,73.937 119.187,71.892" id="Shape" stroke="#FFFFFF" stroke-width="2" stroke-linecap="round" stroke-linejoin="round"></path>
            </g>
            <g id="Clipped">
                <mask id="mask-8" fill="white">
                    <use xlink:href="#path-7"></use>
                </mask>
                <g id="SVGID_1_"></g>
                <path class="star" d="M115.999,110.516 C115.333,111.623 115.112,113.111 116.49,113.966 C117.879,114.827 119.109,113.969 119.799,112.879 C121.874,109.598 122.921,106.007 122.909,102.208 L122.909,102.195 C122.93,98.362 121.875,94.741 119.772,91.434 C119.31,90.707 118.701,90.23 118.057,90.091 C117.921,90.061 117.785,90.046 117.649,90.046 C117.252,90.046 116.856,90.172 116.469,90.424 C115.117,91.302 115.325,92.753 115.971,93.818 C119.324,99.354 119.334,104.973 115.999,110.516" id="Shape" stroke="#FFFFFF" stroke-width="2" stroke-linecap="round" stroke-linejoin="round"></path>
            </g>
            <g id="Clipped">
                <mask id="mask-10" fill="white">
                    <use xlink:href="#path-9"></use>
                </mask>
                <g id="SVGID_1_"></g>
                <path class="star" d="M118.63,147.322 C117.675,147.322 116.829,146.635 116.661,145.662 C116.473,144.574 117.203,143.539 118.292,143.351 C119.6,143.122 150.382,137.315 150.382,102.345 C150.382,67.26 118.823,60.907 118.505,60.847 C117.419,60.643 116.705,59.597 116.909,58.512 C117.114,57.426 118.164,56.713 119.245,56.917 C119.597,56.983 154.382,63.981 154.382,102.344 C154.382,140.734 119.326,147.231 118.973,147.291 C118.857,147.312 118.743,147.322 118.63,147.322" id="Shape" stroke="#FFFFFF" stroke-width="2" stroke-linecap="round" stroke-linejoin="round"></path>
            </g>
            <g id="Clipped">
                <mask id="mask-12" fill="white">
                    <use xlink:href="#path-11"></use>
                </mask>
                <g id="SVGID_1_"></g>
                <rect id="Rectangle-path" fill="#FFFFFF" fill-rule="nonzero" mask="url(#mask-12)" x="56.902" y="81.707" width="4" height="43.75"></rect>
            </g>
        </g>
    </g>
</svg>