<?xml version="1.0" encoding="UTF-8" standalone="no"?>
<?xml-stylesheet type="text/css" href="css/style3.css" ?>
<svg width="100px" height="100px" viewBox="0 0 100 100" version="1.1" xmlns="http://www.w3.org/2000/svg" xmlns:xlink="http://www.w3.org/1999/xlink">
    
    <g id="Water" stroke="none" stroke-width="1" fill="none" fill-rule="evenodd">
        <g id="Water">
            <path d="M49.581999,99.4974874 C22.2289381,99.4974874 0.054666,77.2240858 0.054666,49.7487437 C0.054666,22.2734017 22.2289381,0 49.581999,0 C76.9350598,0 99.1093319,22.2734017 99.1093319,49.7487437 C99.1093319,77.2240858 76.9350598,99.4974874 49.581999,99.4974874 Z" id="Fill-1" fill="currentColor" fill-rule="nonzero"></path>
            <path class="star" d="M66.09111,56.6732573 C66.09111,65.8925051 58.6997605,73.3668342 49.5817494,73.3668342 C40.4642375,73.3668342 33.072888,65.8925051 33.072888,56.6732573 C33.072888,47.4540095 49.5817494,25.6281407 49.5817494,25.6281407 C49.5817494,25.6281407 66.09111,47.4540095 66.09111,56.6732573 Z" id="Stroke-3" stroke="#FFFFFF" stroke-width="2" stroke-linecap="round" stroke-linejoin="round"></path>
                    
              <path class="star3" d="M59.5875208,55.7788945 C59.5875208,61.6070829 54.8839725,66.3316583 49.0817229,66.3316583" id="Stroke-5" stroke="#FFFFFF" stroke-width="2" stroke-linecap="round" stroke-linejoin="round"></path>
        </g>
    </g>
</svg>