<?xml version="1.0" encoding="UTF-8"?>
<svg width="555px" height="555px" viewBox="0 0 555 555" version="1.1" xmlns="http://www.w3.org/2000/svg" xmlns:xlink="http://www.w3.org/1999/xlink">
    <!-- Generator: Sketch 48.2 (47327) - http://www.bohemiancoding.com/sketch -->
    <title>2017 WELL / Silver</title>
    <desc>Created with Sketch.</desc>
    <defs>
        <polygon id="path-1" points="0.207341772 0.203886076 543.992241 0.203886076 543.992241 542.336962 0.207341772 542.336962"></polygon>
    </defs>
    <g id="Symbols" stroke="none" stroke-width="1" fill="none" fill-rule="evenodd">
        <g id="2017-WELL-/-Silver">
            <g id="2017-WELL-silver-solid" transform="translate(6.000000, 9.000000)">
                <polyline id="Fill-1" fill="#4D4E4C" points="1.94901266 214.412127 2.41553165 212.331797 23.5989494 217.062646 23.1358861 219.142975 1.94901266 214.412127"></polyline>
                <path d="M5.42198734,199.055013 L6.01291139,197.071443 L24.1449494,190.896114 C25.389,190.491797 27.4658734,190.014911 27.4658734,190.014911 L27.4831519,189.956165 C27.4831519,189.956165 25.7138354,189.620962 24.6183797,189.296127 L9.64139241,184.848646 L10.2495949,182.806329 L31.0563418,188.98857 L30.4654177,190.972139 L12.3333797,197.147468 C11.0858734,197.548329 9.0124557,198.028671 9.0124557,198.028671 L8.99517722,198.087418 C8.99517722,198.087418 10.7644937,198.419165 11.8599494,198.744 L26.8369367,203.194937 L26.2287342,205.237253 L5.42198734,199.055013" id="Fill-2" fill="#4D4E4C"></path>
                <polyline id="Fill-3" fill="#4D4E4C" points="18.7644304 165.690266 15.7717975 172.905759 14.002481 172.169696 20.7963797 155.803519 22.5656962 156.539582 19.5834304 163.723975 37.8571519 171.312684 37.0416076 173.278975 18.7644304 165.690266"></polyline>
                <polyline id="Fill-4" fill="#4D4E4C" points="25.662 145.833835 31.3915443 135.034785 33.0848354 135.933266 28.3505316 144.852418 35.3344937 148.553468 39.197962 141.272316 40.8877975 142.170797 37.0243291 149.451949 44.1430633 153.229025 49.1330886 143.819165 50.8229241 144.717646 44.8342025 156.007405 25.662 145.833835"></polyline>
                <path d="M51.0337215,123.496215 C52.4816582,121.308759 51.984038,118.983076 49.720557,117.483304 C48.2276962,116.494975 46.7279241,116.353291 45.4631392,117.034063 C44.8203797,117.386544 44.2398228,117.929089 43.3206076,119.318278 L40.9016203,122.974405 L48.1862278,127.798557 L51.0337215,123.496215 Z M38.1301519,123.69319 L41.6722405,118.340316 C42.8990127,116.484608 43.6247089,115.783101 44.4126076,115.264747 C46.2821392,114.058709 48.6907595,114.172747 50.8782152,115.620684 C53.3248481,117.237949 54.2820759,119.87119 53.5045443,122.283266 L53.5563797,122.314367 C53.5563797,122.314367 53.9054051,122.290177 54.5827215,122.32819 L64.4763797,123.212848 L63.1321139,125.244797 L52.7995823,124.297937 L49.7827595,128.852544 L57.4060253,133.897861 L56.2276329,135.674089 L38.1301519,123.69319 Z" id="Fill-5" fill="#4D4E4C"></path>
                <path d="M53.7602658,101.272633 L55.0803418,99.6830127 L74.1834304,101.117127 C75.4862278,101.238076 77.5838354,101.611291 77.5838354,101.611291 L77.6218481,101.562911 C77.6218481,101.562911 76.1255316,100.564215 75.2477848,99.8350633 L63.2185063,89.8653797 L64.5765949,88.2239241 L81.2883418,102.074354 L79.9682658,103.66743 L60.8686329,102.233316 C59.5623797,102.112367 57.4682278,101.739152 57.4682278,101.739152 L57.4267595,101.787532 C57.4267595,101.787532 58.9230759,102.786228 59.8042785,103.51538 L71.833557,113.485063 L70.4720127,115.126519 L53.7602658,101.272633" id="Fill-6" fill="#4D4E4C"></path>
                <path d="M80.4140506,75.0508101 C80.4140506,75.0508101 81.3332658,76.6577089 81.7790506,77.646038 L85.1932785,85.3073165 L90.5426962,80.0961266 L83.0161899,76.4365443 C82.0416835,75.9665696 80.4589747,75.0093418 80.4589747,75.0093418 L80.4140506,75.0508101 Z M92.3016456,80.9704177 L86.0433797,87.0662658 L89.0982152,93.7426709 L87.4844051,95.3150127 L78.0468987,74.2110759 L79.681443,72.618 L100.533114,82.604962 L98.9193038,84.1773038 L92.3016456,80.9704177 Z" id="Fill-7" fill="#4D4E4C"></path>
                <polyline id="Fill-8" fill="#4D4E4C" points="97.8273038 59.0440253 91.762557 63.9649367 90.556519 62.4789873 104.317101 51.3136329 105.523139 52.7995823 99.4825823 57.6997595 111.950734 73.0672405 110.295456 74.4115063 97.8273038 59.0440253"></polyline>
                <polyline id="Fill-9" fill="#4D4E4C" points="113.118759 45.0726456 114.867342 43.8596962 127.235278 61.6945443 125.483241 62.9074937 113.118759 45.0726456"></polyline>
                <path d="M144.724557,48.8531772 C148.964696,46.4411013 150.388443,40.9465443 147.762114,36.3297342 C145.197987,31.8165949 139.82438,30.3617468 135.584241,32.7703671 C131.316456,35.1997215 129.844329,40.5456835 132.405,45.0553671 C135.031329,49.6721772 140.453316,51.2790759 144.724557,48.8531772 Z M134.606278,31.0528861 C139.948785,28.0187848 146.611367,29.8053797 149.693848,35.2308228 C152.838532,40.7599367 151.04157,47.5331013 145.699063,50.5706582 C140.356557,53.6082152 133.617949,51.6833924 130.473266,46.1542785 C127.390785,40.7322911 129.263772,34.090443 134.606278,31.0528861 Z" id="Fill-10" fill="#4D4E4C"></path>
                <path d="M156.08343,20.3298608 L157.990975,19.5281392 L174.270759,29.6222278 C175.373127,30.3306456 177.059506,31.6299873 177.059506,31.6299873 L177.114797,31.6057975 C177.114797,31.6057975 176.250873,30.03 175.808544,28.9760127 L169.743797,14.5761266 L171.706633,13.7502152 L180.13162,33.7552405 L178.224076,34.556962 L161.944291,24.4628734 C160.841924,23.7544557 159.155544,22.4516582 159.155544,22.4516582 L159.100253,22.4758481 C159.100253,22.4758481 159.964177,24.0551013 160.406506,25.1090886 L166.471253,39.505519 L164.508418,40.3348861 L156.08343,20.3298608" id="Fill-11" fill="#4D4E4C"></path>
                <path d="M191.839519,9.37875949 C191.839519,9.37875949 191.912089,11.227557 191.849886,12.3091899 L191.338443,20.6823418 L198.49519,18.529443 L193.50862,11.8115696 C192.858949,10.9407342 191.898266,9.36148101 191.898266,9.36148101 L191.839519,9.37875949 Z M199.649392,20.1190633 L191.283152,22.6348101 L190.909937,29.9677975 L188.750127,30.6174684 L190.125494,7.54032911 L192.312949,6.88029114 L206.194481,25.3717215 L204.034671,26.0213924 L199.649392,20.1190633 Z" id="Fill-12" fill="#4D4E4C"></path>
                <polyline id="Fill-13" fill="#4D4E4C" points="210.918418 2.03540506 213.005658 1.61381013 216.927873 21.0106329 226.793886 19.0166962 227.170557 20.8931392 215.217304 23.3086709 210.918418 2.03540506"></polyline>
                <path d="M235.737228,492.657873 C235.737228,492.657873 235.118658,494.434101 234.538101,495.750722 L228.113962,510.223177 L225.580937,509.832684 L223.348557,487.522709 L225.542924,487.861367 L227.115266,505.164038 C227.222392,506.304418 227.250038,507.527734 227.250038,507.527734 L227.312241,507.538101 C227.339886,507.541557 227.678544,506.373532 228.151975,505.323 L235.246519,489.361139 L237.26119,489.675608 L239.199835,507.03357 C239.334608,508.177405 239.303506,509.39381 239.331152,509.397266 L239.393354,509.404177 C239.393354,509.404177 239.790759,508.249975 240.236544,507.192532 L247.116835,491.19957 L249.314658,491.538228 L240.28838,512.106532 L237.755354,511.716038 L236.003316,495.978797 C235.851266,494.548139 235.79943,492.664785 235.79943,492.664785 L235.737228,492.657873" id="Fill-14" fill="#4D4E4C"></path>
                <polyline id="Fill-15" fill="#4D4E4C" points="258.738342 491.914899 270.961139 492.239734 270.912759 494.15419 260.818671 493.888101 260.611329 501.787823 268.849709 502.005532 268.801329 503.916532 260.559494 503.702278 260.348696 511.757506 270.995696 512.037418 270.943861 513.951873 258.168152 513.613215 258.738342 491.914899"></polyline>
                <polyline id="Fill-16" fill="#4D4E4C" points="281.68762 491.894165 283.812873 491.735203 285.271177 511.474139 295.309975 510.73462 295.448203 512.642165 283.287608 513.540646 281.68762 491.894165"></polyline>
                <polyline id="Fill-17" fill="#4D4E4C" points="302.929785 489.762 305.030848 489.399152 308.379418 508.903101 318.300722 507.199443 318.622101 509.086253 306.60319 511.152759 302.929785 489.762"></polyline>
                <path d="M351.026165,498.007291 C353.503899,497.143367 354.509506,495.056127 353.655949,492.609494 C352.802392,490.162861 350.58038,489.136519 348.192494,489.972797 L342.974392,491.793949 L345.780418,499.83881 L351.026165,498.007291 Z M347.349304,488.303696 C349.419266,487.581456 350.30738,485.635899 349.564405,483.510646 C348.835253,481.409582 347.034835,480.469633 344.84738,481.233342 L339.891911,482.96119 L342.362734,490.045367 L347.349304,488.303696 Z M337.251759,481.855367 L344.246089,479.415646 C347.48062,478.285633 350.466342,479.43638 351.582532,482.63981 C352.325506,484.768519 351.845165,486.669152 350.545823,488.006506 L350.566557,488.065253 C352.868051,487.916658 354.910367,489.457899 355.774291,491.935633 C357.045987,495.577937 355.069329,498.622405 351.630911,499.824987 L344.401595,502.34419 L337.251759,481.855367 Z" id="Fill-18" fill="#4D4E4C"></path>
                <path d="M359.952228,473.347443 L361.894329,472.404038 L368.059291,485.09681 C369.69038,488.459203 372.841975,489.433709 376.200911,487.80262 C379.563304,486.171532 380.772797,483.078684 379.114063,479.661 L372.976747,467.023519 L374.894658,466.093937 L381.069987,478.814354 C383.174506,483.147797 381.508861,487.422494 377.092481,489.565025 C372.648456,491.724835 368.232076,490.401304 366.127557,486.067861 L359.952228,473.347443" id="Fill-19" fill="#4D4E4C"></path>
                <polyline id="Fill-20" fill="#4D4E4C" points="384.767582 460.343658 386.588734 459.241291 397.830114 477.808747 396.008962 478.911114 384.767582 460.343658"></polyline>
                <polyline id="Fill-21" fill="#4D4E4C" points="396.523861 452.85862 398.251709 451.61457 409.807557 467.676646 417.976823 461.801962 419.096468 463.35357 409.195899 470.475759 396.523861 452.85862"></polyline>
                <path d="M431.803063,450.239203 C435.770203,446.659101 436.295468,441.942076 432.40781,437.632823 C428.540886,433.344304 423.772025,433.406506 419.829076,436.962418 L416.366468,440.082911 L428.340456,453.359696 L431.803063,450.239203 Z M413.501696,440.089823 L418.70943,435.396987 C423.547405,431.032443 429.470468,431.053177 434.059633,436.143418 C438.690266,441.282038 438.082063,447.14981 433.244089,451.514354 L428.03981,456.20719 L413.501696,440.089823 Z" id="Fill-22" fill="#4D4E4C"></path>
                <polyline id="Fill-23" fill="#4D4E4C" points="433.84538 420.544405 435.286405 418.972063 451.275911 433.648405 449.834886 435.217291 433.84538 420.544405"></polyline>
                <path d="M443.020253,410.236063 L444.267759,408.587696 L463.415772,409.150975 C464.722025,409.213177 466.833456,409.489633 466.833456,409.489633 L466.871468,409.441253 C466.871468,409.441253 465.330228,408.508215 464.42138,407.820532 L451.949772,398.407215 L453.231835,396.707013 L470.558696,409.786823 L469.31119,411.43519 L450.163177,410.871911 C448.853468,410.809709 446.742038,410.533253 446.742038,410.533253 L446.707481,410.581633 C446.707481,410.581633 448.245266,411.514671 449.15757,412.202354 L461.629177,421.615671 L460.343658,423.315873 L443.020253,410.236063" id="Fill-24" fill="#4D4E4C"></path>
                <path d="M463.882291,378.768494 C466.373848,374.397038 469.90557,373.318861 469.90557,373.318861 L470.734937,375.105456 C470.734937,375.105456 467.60062,376.235468 465.644696,379.666975 C463.046013,384.228494 464.801506,389.315278 469.280089,391.869038 C473.921089,394.516101 479.173747,393.282418 481.62038,388.990443 C483.714532,385.317038 482.235494,381.488127 482.235494,381.488127 L479.045886,379.666975 L477.210911,382.884228 L475.548722,381.937367 L478.392759,376.947342 L487.405215,382.085962 L486.423797,383.803443 L485.003506,382.99481 C484.602646,382.763278 484.215608,382.507557 484.215608,382.507557 L484.184506,382.562848 C484.184506,382.562848 485.494215,386.187873 483.230734,390.155013 C480.293392,395.307456 473.810506,397.01457 468.205367,393.818051 C462.75919,390.71138 460.792899,384.187025 463.882291,378.768494" id="Fill-25" fill="#4D4E4C"></path>
                <polyline id="Fill-26" fill="#4D4E4C" points="478.327101 348.887089 479.076987 346.893152 499.393025 354.537152 498.639684 356.531089 478.327101 348.887089"></polyline>
                <path d="M483.002658,335.890215 L483.548658,333.892823 L501.539013,327.316633 C502.779608,326.888127 504.842658,326.362861 504.842658,326.362861 L504.856481,326.304114 C504.856481,326.304114 503.080253,326.01038 501.981342,325.709734 L486.907595,321.594 L487.470873,319.537861 L508.408937,325.257038 L507.862937,327.250975 L489.872582,333.83062 C488.631987,334.259127 486.568937,334.784392 486.568937,334.784392 L486.551658,334.843139 C486.551658,334.843139 488.331342,335.136873 489.430253,335.437519 L504.504,339.553253 L503.940722,341.609392 L483.002658,335.890215" id="Fill-27" fill="#4D4E4C"></path>
                <path d="M507.099228,311.282203 C507.099228,311.282203 509.794671,309.423038 510.319937,306.036456 C510.686241,303.686582 509.583873,301.547506 507.265101,301.184658 C501.867304,300.344924 501.570114,311.264924 494.921354,310.228215 C491.838873,309.747873 489.578848,306.617013 490.197418,302.653329 C490.774519,298.931544 493.162405,297.238253 493.162405,297.238253 L494.772759,298.551418 C494.772759,298.551418 492.647506,300.158316 492.208633,302.964342 C491.783582,305.708165 493.307544,307.760848 495.19781,308.054582 C500.291506,308.845937 500.495392,297.912114 507.541557,299.011025 C510.744987,299.508646 512.949722,302.383785 512.324241,306.409671 C511.640013,310.801861 508.519519,312.78543 508.519519,312.78543 L507.099228,311.282203" id="Fill-28" fill="#4D4E4C"></path>
                <polyline id="Fill-29" fill="#4D4E4C" points="494.689823 281.704899 494.282051 289.507861 492.371051 289.407646 493.297177 271.70757 495.208177 271.807785 494.800405 279.579646 514.566987 280.609443 514.456405 282.738152 494.689823 281.704899"></polyline>
                <polyline id="Fill-30" fill="#4D4E4C" points="493.051823 262.888633 492.982709 260.759924 514.67757 260.048051 514.746684 262.180215 493.051823 262.888633"></polyline>
                <polyline id="Fill-31" fill="#4D4E4C" points="493.642747 243.951418 494.555051 251.709456 492.654418 251.93062 490.581 234.334215 492.481633 234.109595 493.390481 241.836532 513.043025 239.521215 513.291835 241.636101 493.642747 243.951418"></polyline>
                <path d="M489.101962,226.154582 L488.604342,224.050063 L502.333823,220.805165 C505.969215,219.948152 507.607215,217.08338 506.750203,213.447987 C505.889734,209.812595 503.135544,207.960342 499.441405,208.831177 L485.770671,212.062253 L485.279962,209.988835 L499.040544,206.737025 C503.729924,205.631203 507.538101,208.188418 508.664658,212.96419 C509.801582,217.771063 507.548468,221.793494 502.862544,222.902772 L489.101962,226.154582" id="Fill-32" fill="#4D4E4C"></path>
                <polyline id="Fill-33" fill="#4D4E4C" points="482.09381 194.016608 484.744329 201.366873 482.940456 202.016544 476.931 185.346266 478.731418 184.696595 481.37157 192.015759 499.987405 185.301342 500.709646 187.305646 482.09381 194.016608"></polyline>
                <polyline id="Fill-34" fill="#4D4E4C" points="473.413101 177.405076 468.101696 166.395228 469.826089 165.562405 474.211367 174.654342 481.330101 171.222835 477.75 163.796544 479.474392 162.963722 483.054494 170.390013 490.314911 166.889392 485.684278 157.292924 487.408671 156.460101 492.96543 167.974481 473.413101 177.405076"></polyline>
                <path d="M134.955304,184.02619 L151.649772,246.684873 C152.859266,251.401899 153.464013,255.756076 153.464013,255.756076 L153.705911,255.756076 C153.705911,255.756076 154.068759,251.280949 155.278253,246.684873 L171.001671,184.02619 L183.341962,184.02619 L160.962873,269.42681 L147.053696,269.42681 L132.294418,214.025089 C130.843025,208.582367 129.754481,201.930152 129.754481,201.930152 L129.512582,201.930152 C129.512582,201.930152 128.424038,208.582367 126.972646,214.025089 L112.213367,269.42681 L98.3041899,269.42681 L76.5298481,184.02619 L88.8701392,184.02619 L103.98881,246.684873 C105.077354,251.280949 105.561152,255.756076 105.561152,255.756076 L105.803051,255.756076 C105.803051,255.756076 106.407797,251.401899 107.617291,246.684873 L124.311759,184.02619 L134.955304,184.02619" id="Fill-35" fill="#4D4E4C"></path>
                <polyline id="Fill-36" fill="#4D4E4C" points="198.823481 184.02619 248.419633 184.02619 248.419633 194.427835 210.797468 194.427835 210.797468 221.161101 241.401114 221.161101 241.401114 231.566203 210.797468 231.566203 210.797468 259.021709 250.475772 259.021709 250.475772 269.42681 198.823481 269.42681 198.823481 184.02619"></polyline>
                <polyline id="Fill-37" fill="#4D4E4C" points="268.13438 184.02619 280.111823 184.02619 280.111823 259.021709 318.335278 259.021709 318.335278 269.42681 268.13438 269.42681 268.13438 184.02619"></polyline>
                <polyline id="Fill-38" fill="#4D4E4C" points="332.123506 184.02619 344.100949 184.02619 344.100949 259.021709 382.324405 259.021709 382.324405 269.42681 332.123506 269.42681 332.123506 184.02619"></polyline>
                <path d="M210.171987,505.862089 L215.390089,485.794861 C116.958038,460.184696 48.206962,371.165962 48.206962,269.312772 C48.206962,259.757772 48.8151646,250.144025 50.0142911,240.73762 L29.4459873,238.118203 C28.1397342,248.388532 27.4762405,258.886937 27.4762405,269.312772 C27.4762405,380.600013 102.603076,477.874405 210.171987,505.862089" id="Fill-39" fill="#ACBFC0"></path>
                <path d="M210.171987,505.862089 L215.390089,485.794861 C116.958038,460.184696 48.206962,371.165962 48.206962,269.312772 C48.206962,259.757772 48.8151646,250.144025 50.0142911,240.73762 L29.4459873,238.118203 C28.1397342,248.388532 27.4762405,258.886937 27.4762405,269.312772 C27.4762405,380.600013 102.603076,477.874405 210.171987,505.862089" id="Fill-40" fill="#ACBFC0"></path>
                <path d="M271.88381,45.6324684 C352.315139,45.6324684 426.940899,89.1500506 466.636481,159.203924 L484.675215,148.988886 C441.302772,72.4452152 359.769076,24.8982911 271.88381,24.8982911 C260.075696,24.8982911 248.215747,25.7518481 236.632253,27.4278608 L239.604152,47.9443291 C250.202772,46.4134557 261.064025,45.6324684 271.88381,45.6324684" id="Fill-41" fill="#ACBFC0"></path>
                <path d="M271.88381,45.6324684 C352.315139,45.6324684 426.940899,89.1500506 466.636481,159.203924 L484.675215,148.988886 C441.302772,72.4452152 359.769076,24.8982911 271.88381,24.8982911 C260.075696,24.8982911 248.215747,25.7518481 236.632253,27.4278608 L239.604152,47.9443291 C250.202772,46.4134557 261.064025,45.6324684 271.88381,45.6324684" id="Fill-42" fill="#ACBFC0"></path>
                <path d="M488.638899,269.312772 C488.638899,216.96243 469.725873,166.422873 435.383165,127.000291 L419.746139,140.61919 C450.802481,176.268152 467.908177,221.969734 467.908177,269.312772 C467.908177,377.396582 379.971076,465.330228 271.88381,465.330228 C242.278861,465.330228 213.835025,458.899177 187.340203,446.213316 L178.386494,464.915544 C207.697709,478.945671 239.154911,486.064405 271.88381,486.064405 C391.402519,486.064405 488.638899,388.831481 488.638899,269.312772" id="Fill-43" fill="#ACBFC0"></path>
                <path d="M488.638899,269.312772 C488.638899,216.96243 469.725873,166.422873 435.383165,127.000291 L419.746139,140.61919 C450.802481,176.268152 467.908177,221.969734 467.908177,269.312772 C467.908177,377.396582 379.971076,465.330228 271.88381,465.330228 C242.278861,465.330228 213.835025,458.899177 187.340203,446.213316 L178.386494,464.915544 C207.697709,478.945671 239.154911,486.064405 271.88381,486.064405 C391.402519,486.064405 488.638899,388.831481 488.638899,269.312772" id="Fill-44" fill="#ACBFC0"></path>
                <path d="M271.88381,437.670835 C227.212025,437.670835 185.128557,420.357797 153.394899,388.917873 L138.804949,403.642595 C174.443544,438.95981 221.707101,458.405013 271.88381,458.405013 C376.152532,458.405013 460.982962,373.578038 460.982962,269.312772 C460.982962,209.363354 433.485987,154.276101 385.541658,118.170987 L373.070051,134.734139 C415.765177,166.885937 440.248785,215.936089 440.248785,269.312772 C440.248785,362.146595 364.721089,437.670835 271.88381,437.670835" id="Fill-45" fill="#ACBFC0"></path>
                <path d="M271.88381,437.670835 C227.212025,437.670835 185.128557,420.357797 153.394899,388.917873 L138.804949,403.642595 C174.443544,438.95981 221.707101,458.405013 271.88381,458.405013 C376.152532,458.405013 460.982962,373.578038 460.982962,269.312772 C460.982962,209.363354 433.485987,154.276101 385.541658,118.170987 L373.070051,134.734139 C415.765177,166.885937 440.248785,215.936089 440.248785,269.312772 C440.248785,362.146595 364.721089,437.670835 271.88381,437.670835" id="Fill-46" fill="#ACBFC0"></path>
                <path d="M271.88381,430.749076 C299.805835,430.749076 327.327,423.505937 351.468494,409.804101 L341.232722,391.768823 C320.20481,403.704797 296.225734,410.014899 271.88381,410.014899 C222.387873,410.014899 175.957139,383.523532 150.713278,340.876785 L132.871519,351.437392 C161.830253,400.356228 215.096354,430.749076 271.88381,430.749076" id="Fill-47" fill="#ACBFC0"></path>
                <path d="M271.88381,430.749076 C299.805835,430.749076 327.327,423.505937 351.468494,409.804101 L341.232722,391.768823 C320.20481,403.704797 296.225734,410.014899 271.88381,410.014899 C222.387873,410.014899 175.957139,383.523532 150.713278,340.876785 L132.871519,351.437392 C161.830253,400.356228 215.096354,430.749076 271.88381,430.749076" id="Fill-48" fill="#ACBFC0"></path>
                <path d="M421.359949,330.406025 C429.297684,310.998835 433.32357,290.44781 433.32357,269.312772 C433.32357,239.085797 424.919316,209.608709 409.012747,184.07457 L391.416342,195.036038 C405.270228,217.280354 412.592848,242.963089 412.592848,269.312772 C412.592848,287.738544 409.085316,305.656329 402.170468,322.558139 L421.359949,330.406025" id="Fill-49" fill="#ACBFC0"></path>
                <g id="Group-54">
                    <mask id="mask-2" fill="white">
                        <use xlink:href="#path-1"></use>
                    </mask>
                    <g id="Clip-51"></g>
                    <path d="M421.359949,330.406025 C429.297684,310.998835 433.32357,290.44781 433.32357,269.312772 C433.32357,239.085797 424.919316,209.608709 409.012747,184.07457 L391.416342,195.036038 C405.270228,217.280354 412.592848,242.963089 412.592848,269.312772 C412.592848,287.738544 409.085316,305.656329 402.170468,322.558139 L421.359949,330.406025" id="Fill-50" fill="#ACBFC0" mask="url(#mask-2)"></path>
                    <path d="M303.330646,0.203886076 L300.960038,20.8032911 C427.694241,35.3725063 523.261519,142.709886 523.261519,270.477342 C523.261519,409.064582 410.512519,521.813582 271.925278,521.813582 C206.225582,521.813582 144.078342,496.625013 96.9322785,450.885418 C49.8933418,405.246038 22.8248734,344.100949 20.7238101,278.712266 L0,279.379215 C2.2773038,350.169152 31.5746962,416.363013 82.4978354,465.765646 C133.531557,515.278861 200.803595,542.544304 271.925278,542.544304 C421.943962,542.544304 543.992241,420.496025 543.992241,270.477342 C543.992241,132.170013 440.532152,15.9791392 303.330646,0.203886076" id="Fill-52" fill="#ACBFC0" mask="url(#mask-2)"></path>
                    <path d="M303.330646,0.203886076 L300.960038,20.8032911 C427.694241,35.3725063 523.261519,142.709886 523.261519,270.477342 C523.261519,409.064582 410.512519,521.813582 271.925278,521.813582 C206.225582,521.813582 144.078342,496.625013 96.9322785,450.885418 C49.8933418,405.246038 22.8248734,344.100949 20.7238101,278.712266 L0,279.379215 C2.2773038,350.169152 31.5746962,416.363013 82.4978354,465.765646 C133.531557,515.278861 200.803595,542.544304 271.925278,542.544304 C421.943962,542.544304 543.992241,420.496025 543.992241,270.477342 C543.992241,132.170013 440.532152,15.9791392 303.330646,0.203886076" id="Fill-53" fill="#ACBFC0" mask="url(#mask-2)"></path>
                </g>
                <path d="M120.990835,309.685671 C120.990835,309.685671 123.579152,312.308544 127.207633,312.308544 C129.484937,312.308544 131.420127,311.033392 131.420127,308.718076 C131.420127,303.434316 119.608557,304.574696 119.608557,297.079291 C119.608557,293.281481 122.891468,290.275025 127.484089,290.275025 C132.007595,290.275025 134.392025,292.725114 134.392025,292.725114 L132.836962,295.562241 C132.836962,295.562241 130.590759,293.45081 127.484089,293.45081 C124.892316,293.45081 123.060797,295.074987 123.060797,297.010177 C123.060797,302.055494 134.875823,300.704316 134.875823,308.614405 C134.875823,312.381114 131.973038,315.487785 127.138519,315.487785 C121.95843,315.487785 119.055646,312.277443 119.055646,312.277443 L120.990835,309.685671" id="Fill-55" fill="#4D4E4C"></path>
                <polygon id="Fill-56" fill="#4D4E4C" points="142.381595 315.076557 145.799278 315.076557 145.799278 290.693165 142.381595 290.693165"></polygon>
                <polyline id="Fill-57" fill="#4D4E4C" points="155.029443 290.693165 158.447127 290.693165 158.447127 312.104658 169.360215 312.104658 169.360215 315.073101 155.029443 315.073101 155.029443 290.693165"></polyline>
                <path d="M170.994759,290.693165 L174.688899,290.693165 L180.732911,307.923266 C181.182152,309.23643 181.665949,311.275291 181.665949,311.275291 L181.735063,311.275291 C181.735063,311.275291 182.218861,309.23643 182.668101,307.923266 L188.781228,290.693165 L192.406253,290.693165 L183.428354,315.073101 L180.007215,315.073101 L170.994759,290.693165" id="Fill-58" fill="#4D4E4C"></path>
                <polyline id="Fill-59" fill="#4D4E4C" points="198.533203 290.693165 212.694646 290.693165 212.694646 293.661608 201.954342 293.661608 201.954342 301.291785 210.690342 301.291785 210.690342 304.263684 201.954342 304.263684 201.954342 312.104658 213.282114 312.104658 213.282114 315.073101 198.533203 315.073101 198.533203 290.693165"></polyline>
                <path d="M229.250886,302.397608 C231.911772,302.397608 233.570506,300.704316 233.570506,297.977772 C233.570506,296.18081 232.875911,294.902203 231.635316,294.211063 C230.978734,293.868949 230.183924,293.661608 228.283291,293.661608 L224.347253,293.661608 L224.347253,302.397608 L229.250886,302.397608 Z M220.926114,290.693165 L228.386962,290.693165 C230.944177,290.693165 232.011987,290.897051 232.945025,291.24262 C235.433127,292.175658 237.057304,294.625747 237.057304,297.839544 C237.057304,300.946215 235.329456,303.572544 232.66857,304.436468 L232.66857,304.505582 C232.66857,304.505582 232.945025,304.816595 233.394266,305.611405 L238.57781,315.073101 L234.70743,315.073101 L229.561899,305.369506 L224.347253,305.369506 L224.347253,315.073101 L220.926114,315.073101 L220.926114,290.693165 Z" id="Fill-60" fill="#4D4E4C"></path>
                <path d="M255.724975,313.207025 C255.724975,304.505582 267.674772,303.261532 267.674772,297.528532 C267.674772,295.113 265.846709,293.488823 263.289494,293.488823 C260.075696,293.488823 258.351304,296.598949 258.351304,296.598949 L255.828646,294.902203 C255.828646,294.902203 258.040291,290.275025 263.531392,290.275025 C268.020342,290.275025 271.234139,293.074139 271.234139,297.286633 C271.234139,305.300392 259.591899,306.544443 259.526241,312.104658 L271.614266,312.104658 L271.614266,315.073101 L255.897759,315.073101 C255.794089,314.419975 255.724975,313.794494 255.724975,313.207025" id="Fill-61" fill="#4D4E4C"></path>
                <path d="M292.11,302.846848 C292.11,297.563089 290.966165,293.419709 286.961013,293.419709 C282.990418,293.419709 281.850038,297.563089 281.850038,302.846848 C281.850038,308.165165 282.990418,312.343101 286.961013,312.343101 C290.966165,312.343101 292.11,308.165165 292.11,302.846848 Z M278.363241,302.846848 C278.363241,295.835241 280.467759,290.275025 286.961013,290.275025 C293.488823,290.275025 295.596797,295.835241 295.596797,302.846848 C295.596797,309.893013 293.488823,315.487785 286.961013,315.487785 C280.467759,315.487785 278.363241,309.893013 278.363241,302.846848 Z" id="Fill-62" fill="#4D4E4C"></path>
                <path d="M302.311215,312.104658 L307.698646,312.104658 L307.698646,296.353595 C307.698646,295.596797 307.733203,294.836544 307.733203,294.836544 L307.664089,294.836544 C307.664089,294.836544 307.387633,295.386 306.489152,296.249924 L304.208392,298.496127 L302.13843,296.353595 L307.975101,290.693165 L311.012658,290.693165 L311.012658,312.104658 L316.330975,312.104658 L316.330975,315.073101 L302.311215,315.073101 L302.311215,312.104658" id="Fill-63" fill="#4D4E4C"></path>
                <path d="M332.334304,295.873253 C333.021987,294.487519 333.747684,293.623595 333.747684,293.623595 L333.747684,293.557937 C333.747684,293.557937 333.194772,293.661608 331.954177,293.661608 L321.07219,293.661608 L321.07219,290.693165 L337.376165,290.693165 L337.376165,293.036127 L326.359405,315.073101 L322.834595,315.073101 L332.334304,295.873253" id="Fill-64" fill="#4D4E4C"></path>
                <polyline id="Fill-65" fill="#525351" points="500.191291 50.1663418 494.949 50.1663418 494.949 48.8808228 506.843506 48.8808228 506.843506 50.1663418 501.618494 50.1663418 501.618494 63.450038 500.191291 63.450038 500.191291 50.1663418"></polyline>
                <path d="M509.815405,48.8808228 L511.30481,48.8808228 L515.119899,57.4405823 C515.44819,58.1870127 515.824861,59.2237215 515.824861,59.2237215 L515.862873,59.2237215 C515.862873,59.2237215 516.260278,58.1870127 516.58857,57.4405823 L520.403658,48.8808228 L521.875785,48.8808228 L523.036899,63.450038 L521.606241,63.450038 L520.797608,53.2557342 C520.735405,52.4678354 520.756139,51.2237848 520.756139,51.2237848 L520.714671,51.2237848 C520.714671,51.2237848 520.279253,52.5093038 519.947506,53.2557342 L516.529823,60.7338608 L515.182101,60.7338608 L511.760962,53.2557342 C511.429215,52.530038 510.973063,51.1823165 510.973063,51.1823165 L510.935051,51.1823165 C510.935051,51.1823165 510.955785,52.4678354 510.890127,53.2557342 L510.084949,63.450038 L508.654291,63.450038 L509.815405,48.8808228" id="Fill-66" fill="#525351"></path>
            </g>
        </g>
    </g>
</svg>