<?xml version="1.0" encoding="UTF-8"?>
<svg width="" height="" viewBox="0 0 555 555" version="1.1" xmlns="http://www.w3.org/2000/svg" xmlns:xlink="http://www.w3.org/1999/xlink">
    <!-- Generator: Sketch 48.2 (47327) - http://www.bohemiancoding.com/sketch -->
    <title>2018 WELL / Silver</title>
    <desc>Created with Sketch.</desc>
    <defs>
        <polygon id="path-1" points="0 544.996324 546 544.996324 546 0 0 0"></polygon>
    </defs>
    <g id="Symbols" stroke="none" stroke-width="1" fill="none" fill-rule="evenodd">
        <g id="2018-WELL-/-Silver">
            <g id="Page-1" transform="translate(5.000000, 5.000000)">
                <path d="M121.521162,308.688617 C121.521162,308.688617 124.31394,311.612462 128.229208,311.612462 C130.685912,311.612462 132.772934,310.188737 132.772934,307.612142 C132.772934,301.71931 120.032352,302.990245 120.032352,294.63541 C120.032352,290.402433 123.574577,287.051471 128.528314,287.051471 C133.408115,287.051471 135.979085,289.7878 135.979085,289.7878 L134.302073,292.94083 C134.302073,292.94083 131.878976,290.596893 128.528314,290.596893 C125.735535,290.596893 123.759417,292.402593 123.759417,294.559015 C123.759417,300.17752 136.5,298.6774 136.5,307.494077 C136.5,311.688857 133.371147,315.154412 128.155271,315.154412 C122.566353,315.154412 119.4375,311.574264 119.4375,311.574264 L121.521162,308.688617 Z" id="Fill-1" fill="#58585B"></path>
                <mask id="mask-2" fill="white">
                    <use xlink:href="#path-1"></use>
                </mask>
                <g id="Clip-4"></g>
                <polygon id="Fill-3" fill="#58585B" mask="url(#mask-2)" points="143.525735 315.154412 147.540441 315.154412 147.540441 287.051471 143.525735 287.051471"></polygon>
                <polygon id="Fill-5" fill="#58585B" mask="url(#mask-2)" points="154.566176 287.051471 158.158994 287.051471 158.158994 311.732216 169.621324 311.732216 169.621324 315.154412 154.566176 315.154412"></polygon>
                <path d="M168.617647,287.051471 L172.601102,287.051471 L179.11704,306.913133 C179.600698,308.424932 180.12466,310.773427 180.12466,310.773427 L180.195193,310.773427 C180.195193,310.773427 180.719155,308.424932 181.199454,306.913133 L187.796002,287.051471 L191.702206,287.051471 L182.025702,315.154412 L178.334456,315.154412 L168.617647,287.051471 Z" id="Fill-6" fill="#58585B" mask="url(#mask-2)"></path>
                <polygon id="Fill-7" fill="#58585B" mask="url(#mask-2)" points="196.720588 287.051471 213.101886 287.051471 213.101886 290.473666 200.67805 290.473666 200.67805 299.271546 210.784356 299.271546 210.784356 302.693741 200.67805 302.693741 200.67805 311.732216 213.783088 311.732216 213.783088 315.154412 196.720588 315.154412"></polygon>
                <path d="M227.792746,300.54275 C230.667531,300.54275 232.45838,298.592852 232.45838,295.447161 C232.45838,293.375171 231.711071,291.902873 230.367934,291.109268 C229.66102,290.71067 228.799258,290.473666 226.749206,290.473666 L222.497622,290.473666 L222.497622,300.54275 L227.792746,300.54275 Z M218.801471,287.051471 L226.863659,287.051471 C229.620625,287.051471 230.778617,287.288475 231.785129,287.687073 C234.474769,288.760773 236.22859,291.586867 236.22859,295.285568 C236.22859,298.869357 234.360316,301.900137 231.488898,302.891245 L231.488898,302.973837 C231.488898,302.973837 231.785129,303.329343 232.273236,304.248632 L237.871324,315.154412 L233.690431,315.154412 L228.129372,303.964945 L222.497622,303.964945 L222.497622,315.154412 L218.801471,315.154412 L218.801471,287.051471 Z" id="Fill-8" fill="#58585B" mask="url(#mask-2)"></path>
                <polygon id="Fill-9" fill="#58585B" mask="url(#mask-2)" points="1.00367647 215.622398 1.47595711 213.783088 23.0845588 217.965837 22.6122782 219.805147"></polygon>
                <path d="M5.01838235,198.6667 L5.61642091,196.713784 L24.074705,190.633886 C25.3446575,190.235818 27.4588997,189.766301 27.4588997,189.766301 L27.476489,189.70506 C27.476489,189.70506 25.6753376,189.37844 24.5601716,189.058624 L9.31370633,184.679873 L9.93285212,182.669118 L31.1139706,188.752418 L30.5124142,190.705334 L12.0541301,196.788634 C10.7841776,197.1833 8.67345329,197.656219 8.67345329,197.656219 L8.65586392,197.714058 C8.65586392,197.714058 10.4570153,198.040678 11.5721813,198.360494 L26.8186466,202.739245 L26.1995008,204.75 L5.01838235,198.6667 Z" id="Fill-10" fill="#58585B" mask="url(#mask-2)"></path>
                <polygon id="Fill-11" fill="#58585B" mask="url(#mask-2)" points="18.6596876 165.22297 15.7603232 172.264583 14.0514706 171.549287 20.6260386 155.569853 22.3382353 156.288523 19.4489033 163.303143 37.1360294 170.712526 36.3468137 172.632353"></polygon>
                <polygon id="Fill-12" fill="#58585B" mask="url(#mask-2)" points="26.0955882 145.347339 31.5808642 134.492647 33.1986567 135.392284 28.6694994 144.357391 35.3524049 148.080984 39.0511616 140.762317 40.6722624 141.661954 36.9735058 148.980621 43.7887461 152.777158 48.566031 143.322287 50.1838235 144.221924 44.4504199 155.569853"></polygon>
                <path d="M50.92052,123.985029 C52.354682,121.917308 51.8652186,119.715659 49.6198479,118.29798 C48.1411892,117.363749 46.6556848,117.22982 45.4029323,117.876596 C44.7697104,118.209783 44.1946764,118.719364 43.2807832,120.03578 L40.8848084,123.491781 L48.1035382,128.048608 L50.92052,123.985029 Z M38.1397059,124.171222 L41.6480975,119.108082 C42.863199,117.357215 43.5854143,116.690841 44.3623947,116.204126 C46.2175637,115.064103 48.5998472,115.168632 50.766493,116.537313 C53.1898504,118.069322 54.1413946,120.558427 53.3678371,122.835207 L53.4191794,122.867872 C53.4191794,122.867872 53.7648843,122.84174 54.4357572,122.880938 L64.2352941,123.713906 L62.9038167,125.6379 L52.6695815,124.739601 L49.6848815,129.04817 L57.2322021,133.814054 L56.0684429,135.496324 L38.1397059,124.171222 Z" id="Fill-13" fill="#58585B" mask="url(#mask-2)"></path>
                <path d="M54.1985294,101.9562 L55.5461723,100.29183 L75.0481883,101.793734 C76.3781919,101.916486 78.5196035,102.306403 78.5196035,102.306403 L78.55841,102.259469 C78.55841,102.259469 77.0308462,101.212468 76.1312416,100.450685 L63.8542851,90.0348339 L65.2407345,88.3235294 L82.3014706,102.7938 L80.9538277,104.45817 L61.4518117,102.956266 C60.1218081,102.833514 57.9803965,102.439986 57.9803965,102.439986 L57.94159,102.490531 C57.94159,102.490531 59.4691538,103.537532 60.3687584,104.299315 L72.6457149,114.715166 L71.2592655,116.426471 L54.1985294,101.9562 Z" id="Fill-14" fill="#58585B" mask="url(#mask-2)"></path>
                <path d="M80.611604,75.6351517 C80.611604,75.6351517 81.5143883,77.1984298 81.9522048,78.1599298 L85.3054036,85.6132362 L90.559201,80.5435086 L83.1672302,76.9866308 C82.2067492,76.5260521 80.655725,75.5948091 80.655725,75.5948091 L80.611604,75.6351517 Z M92.2833154,81.3940664 L86.1403094,87.3244373 L89.14054,93.8196055 L87.5555765,95.3492647 L78.2867647,74.8182129 L79.8920917,73.2683824 L100.367647,82.9842395 L98.7826836,84.5138987 L92.2833154,81.3940664 Z" id="Fill-15" fill="#58585B" mask="url(#mask-2)"></path>
                <polygon id="Fill-16" fill="#58585B" mask="url(#mask-2)" points="97.1528345 58.9134363 91.4624704 63.831511 90.3308824 62.3464182 103.24201 51.1875 104.373599 52.6725928 98.705931 57.5733991 110.404412 72.9320216 108.851315 74.2720588"></polygon>
                <polygon id="Fill-17" fill="#58585B" mask="url(#mask-2)" points="113.415441 44.3724421 115.159406 43.1580882 127.466912 61.0135873 125.726387 62.2279412"></polygon>
                <path d="M145.086041,49.0860102 C149.292913,46.7109754 150.705489,41.3007958 148.103194,36.754884 C145.559185,32.3144536 140.227738,30.8785443 136.017437,33.2535791 C131.783136,35.6422244 130.32256,40.9060909 132.866569,45.3465213 C135.468864,49.8924332 140.85174,51.4746555 145.086041,49.0860102 M135.047148,31.55907 C140.347738,28.571562 146.961476,30.330721 150.019772,35.672848 C153.136355,41.1170539 151.35692,47.7862061 146.052901,50.7771167 C140.75574,53.7680272 134.066573,51.8727631 130.946562,46.4285572 C127.891694,41.0898329 129.749986,34.5499806 135.047148,31.55907" id="Fill-18" fill="#58585B" mask="url(#mask-2)"></path>
                <path d="M157.577206,19.5063928 L159.408313,18.7194207 L175.035754,28.6278067 C176.093948,29.3231915 177.712753,30.5986291 177.712753,30.5986291 L177.765829,30.5748843 C177.765829,30.5748843 176.936523,29.028077 176.508601,27.99348 L170.690191,13.8585111 L172.574374,13.0477941 L180.661765,32.6847836 L178.830657,33.4717557 L163.203217,23.5633698 C162.145023,22.8679849 160.526218,21.5891552 160.526218,21.5891552 L160.473142,21.6129001 C160.473142,21.6129001 161.302448,23.1630995 161.727053,24.1976964 L167.54878,38.3292733 L165.664597,39.1433824 L157.577206,19.5063928 Z" id="Fill-19" fill="#58585B" mask="url(#mask-2)"></path>
                <path d="M192.717218,8.44882811 C192.717218,8.44882811 192.788213,10.2470574 192.72736,11.2991056 L192.227013,19.446597 L199.225106,17.3525841 L194.346725,10.8150962 C193.71453,9.9680798 192.77469,8.43202223 192.77469,8.43202223 L192.717218,8.44882811 Z M200.357648,18.895364 L192.169541,21.3423004 L191.804423,28.4780777 L189.694853,29.1066176 L191.04038,6.66068232 L193.180377,6.02205882 L206.757353,24.004352 L204.647783,24.6362532 L200.357648,18.895364 Z" id="Fill-20" fill="#58585B" mask="url(#mask-2)"></path>
                <polygon id="Fill-21" fill="#58585B" mask="url(#mask-2)" points="211.775735 1.43277294 213.708837 1.00367647 217.341403 20.7456313 226.478827 18.7126989 226.830882 20.6225299 215.760356 23.0845588"></polygon>
                <path d="M236.270303,494.825762 C236.270303,494.825762 235.648649,496.569569 235.06867,497.859647 L228.609022,512.036965 L226.063365,511.654344 L223.819853,489.794118 L226.025163,490.125949 L227.605346,507.079814 C227.713006,508.197204 227.74079,509.39586 227.74079,509.39586 L227.803302,509.406018 C227.834559,509.409404 228.171433,508.268311 228.650697,507.235571 L235.777147,491.598873 L237.801865,491.903616 L239.750178,508.911657 C239.885622,510.03582 239.854366,511.224317 239.885622,511.227703 L239.944662,511.237862 C239.944662,511.237862 240.344049,510.103541 240.792057,509.070801 L247.706658,493.396856 L249.915441,493.732073 L240.844151,513.882353 L238.298494,513.499731 L236.537719,498.079739 C236.38491,496.677922 236.332816,494.83592 236.332816,494.83592 L236.270303,494.825762 Z" id="Fill-22" fill="#58585B" mask="url(#mask-2)"></path>
                <polygon id="Fill-23" fill="#58585B" mask="url(#mask-2)" points="260.535701 493.808824 272.968365 494.130894 272.915639 496.049465 262.651749 495.782805 262.437333 503.699507 270.820681 503.917684 270.767955 505.836255 262.388122 505.618078 262.17019 513.690622 273 513.971135 272.95079 515.889706 259.952206 515.553783"></polygon>
                <polygon id="Fill-24" fill="#58585B" mask="url(#mask-2)" points="283.036765 493.969794 285.206399 493.808824 286.695157 513.797096 296.943593 513.048236 297.088235 514.979876 284.670164 515.889706"></polygon>
                <polygon id="Fill-25" fill="#58585B" mask="url(#mask-2)" points="304.113971 491.162651 306.129722 490.797794 309.342327 510.59481 318.857472 508.865246 319.169118 510.780747 307.638221 512.878676"></polygon>
                <path d="M353.134325,499.555563 C355.632528,498.701657 356.646443,496.642035 355.785834,494.220357 C354.925226,491.802095 352.684858,490.79107 350.273762,491.614235 L345.012554,493.41427 L347.845244,501.365845 L353.134325,499.555563 Z M349.423606,489.964489 C351.510668,489.250623 352.409603,487.327626 351.66049,485.227017 C350.921831,483.150317 349.10654,482.221267 346.904498,482.97612 L341.908093,484.683932 L344.399327,491.685964 L349.423606,489.964489 Z M339.242647,483.590933 L346.29824,481.179501 C349.559492,480.062592 352.566394,481.199995 353.695288,484.369695 C354.444401,486.470304 353.960091,488.348898 352.650015,489.670745 L352.670921,489.72881 C354.991427,489.581939 357.050615,491.105307 357.921676,493.55431 C359.203877,497.157795 357.207406,500.16696 353.740584,501.352182 L346.451547,503.845588 L339.242647,483.590933 Z" id="Fill-26" fill="#58585B" mask="url(#mask-2)"></path>
                <path d="M361.323529,474.847735 L363.274258,473.919808 L369.452142,486.404334 C371.087567,489.708161 374.247539,490.670078 377.615404,489.06575 C380.986734,487.458023 382.199443,484.419318 380.536299,481.057707 L374.386134,468.627566 L376.305679,467.713235 L382.497423,480.224953 C384.607536,484.487298 382.937463,488.69186 378.509344,490.79924 C374.053505,492.923615 369.625386,491.621798 367.515273,487.359452 L361.323529,474.847735 Z" id="Fill-27" fill="#58585B" mask="url(#mask-2)"></path>
                <polygon id="Fill-28" fill="#58585B" mask="url(#mask-2)" points="386.415441 461.756243 388.234538 460.6875 399.463235 478.68861 397.644138 479.757353"></polygon>
                <polygon id="Fill-29" fill="#58585B" mask="url(#mask-2)" points="397.455882 453.849701 399.146091 452.658088 410.450204 468.046446 418.44151 462.416074 419.536765 463.905591 409.851871 470.724265"></polygon>
                <path d="M433.330655,450.926455 C437.191706,447.484637 437.702926,442.945428 433.922593,438.79862 C430.159077,434.671764 425.517743,434.728296 421.680234,438.150161 L418.310222,441.156348 L429.960643,453.932642 L433.330655,450.926455 Z M415.522059,441.159673 L420.587167,436.643742 C425.295766,432.447053 431.060437,432.467005 435.52688,437.36536 C440.037046,442.306946 439.441744,447.956848 434.733145,452.153538 L429.668037,456.672794 L415.522059,441.159673 Z" id="Fill-30" fill="#58585B" mask="url(#mask-2)"></path>
                <polygon id="Fill-31" fill="#58585B" mask="url(#mask-2)" points="435.595588 421.994395 437.006187 420.540441 452.658088 434.138432 451.250872 435.595588"></polygon>
                <path d="M444.628676,411.729364 L445.901755,410.109193 L465.442274,410.665068 C466.775303,410.722689 468.930015,410.997237 468.930015,410.997237 L468.968807,410.949784 C468.968807,410.949784 467.395973,410.034625 466.464969,409.360119 L453.741238,400.127182 L455.049581,398.459559 L472.731618,411.285342 L471.458539,412.905512 L451.91802,412.349638 C450.581464,412.292017 448.426752,412.017469 448.426752,412.017469 L448.391487,412.068311 C448.391487,412.068311 449.960794,412.980081 450.891799,413.654587 L463.619056,422.887524 L462.307186,424.555147 L444.628676,411.729364 Z" id="Fill-32" fill="#58585B" mask="url(#mask-2)"></path>
                <path d="M467.117576,379.815587 C469.519484,375.451206 472.92413,374.371324 472.92413,374.371324 L473.723655,376.158477 C473.723655,376.158477 470.702115,377.283211 468.816568,380.712614 C466.311388,385.26675 468.003717,390.345303 472.321155,392.894929 C476.795166,395.537708 481.858827,394.302571 484.217427,390.020993 C486.236229,386.350083 484.810409,382.527368 484.810409,382.527368 L481.735567,380.712614 L479.966617,383.92466 L478.364235,382.979332 L481.105941,377.997382 L489.794118,383.127686 L488.848012,384.842388 L487.478825,384.031613 C487.092388,383.803906 486.719276,383.548599 486.719276,383.548599 L486.689294,383.60035 C486.689294,383.60035 487.951878,387.219509 485.769839,391.183678 C482.938187,396.324332 476.688562,398.028683 471.285103,394.837337 C466.034885,391.739144 464.139344,385.225349 467.117576,379.815587" id="Fill-33" fill="#58585B" mask="url(#mask-2)"></path>
                <polygon id="Fill-34" fill="#58585B" mask="url(#mask-2)" points="480.761029 350.143869 481.475706 348.275735 500.834559 355.44069 500.119882 357.308824"></polygon>
                <path d="M485.779412,337.535753 L486.297086,335.540971 L503.354125,328.958538 C504.53036,328.52985 506.486382,328.004362 506.486382,328.004362 L506.502764,327.94559 C506.502764,327.94559 504.815408,327.651732 503.773507,327.350959 L489.481766,323.233481 L490.015822,321.176471 L509.867647,326.898071 L509.349973,328.892852 L492.292933,335.475285 C491.116699,335.903973 489.160677,336.429461 489.160677,336.429461 L489.144294,336.488233 C489.144294,336.488233 490.83165,336.782092 491.873552,337.082865 L506.165293,341.200343 L505.634513,343.257353 L485.779412,337.535753 Z" id="Fill-35" fill="#58585B" mask="url(#mask-2)"></path>
                <path d="M508.6111,311.691404 C508.6111,311.691404 511.275717,309.887732 511.798392,306.611673 C512.160507,304.336167 511.06733,302.264788 508.775077,301.913423 C503.439011,301.100264 503.14522,311.674673 496.572498,310.670773 C493.528686,310.205633 491.291091,307.173856 491.902586,303.332267 C492.476504,299.728268 494.837081,298.091912 494.837081,298.091912 L496.425603,299.363518 C496.425603,299.363518 494.324655,300.919562 493.894217,303.636784 C493.470611,306.293771 494.977144,308.278146 496.845792,308.565931 C501.881235,309.33224 502.082789,298.744446 509.048371,299.80858 C512.215165,300.290452 514.398101,303.0746 513.776358,306.973077 C513.103371,311.226264 510.018565,313.147059 510.018565,313.147059 L508.6111,311.691404 Z" id="Fill-36" fill="#58585B" mask="url(#mask-2)"></path>
                <polygon id="Fill-37" fill="#58585B" mask="url(#mask-2)" points="497.119253 283.146661 496.713594 291.066176 494.8125 290.964464 495.730388 273 497.631482 273.101712 497.229262 280.986155 516.893382 282.034842 516.783373 284.195348"></polygon>
                <polygon id="Fill-38" fill="#58585B" mask="url(#mask-2)" points="494.88262 263.966912 494.8125 261.707723 516.823262 260.955882 516.893382 263.215071"></polygon>
                <polygon id="Fill-39" fill="#58585B" mask="url(#mask-2)" points="494.777838 243.833827 495.668061 251.698587 493.817069 251.922794 491.801471 234.084328 493.649103 233.856618 494.535966 241.689848 513.640481 239.342682 513.882353 241.486661"></polygon>
                <path d="M490.506889,225.827206 L490.021616,223.787006 L503.410449,220.641278 C506.955642,219.810458 508.556371,217.03659 507.717252,213.512303 C506.878133,209.988016 504.195648,208.189022 500.589796,209.036593 L487.258252,212.16892 L486.783088,210.158871 L500.202251,207.006443 C504.771911,205.931067 508.485602,208.410128 509.584207,213.043292 C510.692923,217.703256 508.495712,221.602752 503.926052,222.674778 L490.506889,225.827206 Z" id="Fill-40" fill="#58585B" mask="url(#mask-2)"></path>
                <polygon id="Fill-41" fill="#58585B" mask="url(#mask-2)" points="484.769463 193.861352 487.342615 201.098957 485.59475 201.738971 479.757353 185.316485 481.505217 184.676471 484.068305 191.886841 502.140753 185.275633 502.841912 187.246739"></polygon>
                <polygon id="Fill-42" fill="#58585B" mask="url(#mask-2)" points="475.870007 177.650735 470.724265 167.095656 472.394873 166.297484 476.643375 175.014449 483.540076 171.722404 480.071638 164.605094 481.742247 163.810234 485.210685 170.924232 492.244651 167.56926 487.761795 158.375378 489.432404 157.577206 494.8125 168.612514"></polygon>
                <path d="M136.026494,184.676471 L152.808338,247.2705 C154.024414,251.982658 154.635926,256.332342 154.635926,256.332342 L154.879141,256.332342 C154.879141,256.332342 155.243964,251.861834 156.46004,247.2705 L172.269024,184.676471 L184.676471,184.676471 L162.175596,269.988971 L148.187251,269.988971 L133.351127,214.644415 C131.891836,209.20731 130.797368,202.561958 130.797368,202.561958 L130.554153,202.561958 C130.554153,202.561958 129.459685,209.20731 128.000394,214.644415 L113.160796,269.988971 L99.1759253,269.988971 L77.2830882,184.676471 L89.6870604,184.676471 L104.891481,247.2705 C105.985949,251.861834 106.47238,256.332342 106.47238,256.332342 L106.715595,256.332342 C106.715595,256.332342 107.323633,251.982658 108.539708,247.2705 L125.325027,184.676471 L136.026494,184.676471 Z" id="Fill-43" fill="#58585B" mask="url(#mask-2)"></path>
                <polygon id="Fill-44" fill="#58585B" mask="url(#mask-2)" points="200.735294 184.676471 250.84888 184.676471 250.84888 195.067383 212.834205 195.067383 212.834205 221.773064 243.757137 221.773064 243.757137 232.167429 212.834205 232.167429 212.834205 259.594606 252.926471 259.594606 252.926471 269.988971 200.735294 269.988971"></polygon>
                <polygon id="Fill-45" fill="#58585B" mask="url(#mask-2)" points="269.988971 184.676471 282.198283 184.676471 282.198283 259.594606 321.176471 259.594606 321.176471 269.988971 269.988971 269.988971"></polygon>
                <polygon id="Fill-46" fill="#58585B" mask="url(#mask-2)" points="334.224265 184.676471 346.433578 184.676471 346.433578 259.594606 385.411765 259.594606 385.411765 269.988971 334.224265 269.988971"></polygon>
                <path d="M210.57527,506.856618 L215.790441,486.699819 C117.475311,460.96744 48.8117626,371.535966 48.8117626,269.210528 C48.8117626,259.614698 49.4192214,249.952905 50.6168815,240.502886 L30.0737307,237.871324 C28.7656235,248.192743 28.1029412,258.739825 28.1029412,269.210528 C28.1029412,381.013758 103.137904,478.739168 210.57527,506.856618" id="Fill-47" fill="#AFC4CB" mask="url(#mask-2)"></path>
                <path d="M210.57527,506.856618 L215.790441,486.699819 C117.475311,460.96744 48.8117626,371.535966 48.8117626,269.210528 C48.8117626,259.614698 49.4192214,249.952905 50.6168815,240.502886 L30.0737307,237.871324 C28.7656235,248.192743 28.1029412,258.739825 28.1029412,269.210528 C28.1029412,381.013758 103.137904,478.739168 210.57527,506.856618" id="Fill-48" fill="#AFC4CB" mask="url(#mask-2)"></path>
                <path d="M273.246846,44.8512839 C353.961021,44.8512839 428.845743,88.4294623 468.684387,158.580882 L486.783088,148.34816 C443.261589,71.7013662 361.441171,24.0882353 273.246846,24.0882353 C261.39374,24.0882353 249.492084,24.9395203 237.871324,26.6213272 L240.850205,47.1663638 C251.489565,45.6333587 262.389013,44.8512839 273.246846,44.8512839" id="Fill-49" fill="#AFC4CB" mask="url(#mask-2)"></path>
                <path d="M273.246846,44.8512839 C353.961021,44.8512839 428.845743,88.4294623 468.684387,158.580882 L486.783088,148.34816 C443.261589,71.7013662 361.441171,24.0882353 273.246846,24.0882353 C261.39374,24.0882353 249.492084,24.9395203 237.871324,26.6213272 L240.850205,47.1663638 C251.489565,45.6333587 262.389013,44.8512839 273.246846,44.8512839" id="Fill-50" fill="#AFC4CB" mask="url(#mask-2)"></path>
                <path d="M490.797794,269.273419 C490.797794,216.743463 471.769495,166.023688 437.213991,126.463235 L421.485136,140.129763 C452.730765,175.903398 469.937243,221.768279 469.937243,269.273419 C469.937243,377.735226 381.467645,465.976398 272.721591,465.976398 C242.936201,465.976398 214.315524,459.522857 187.659216,446.79263 L178.654412,465.560265 C208.144278,479.639458 239.793211,486.783088 272.721591,486.783088 C392.968762,486.783088 490.797794,389.210116 490.797794,269.273419" id="Fill-51" fill="#AFC4CB" mask="url(#mask-2)"></path>
                <path d="M490.797794,269.273419 C490.797794,216.743463 471.769495,166.023688 437.213991,126.463235 L421.485136,140.129763 C452.730765,175.903398 469.937243,221.768279 469.937243,269.273419 C469.937243,377.735226 381.467645,465.976398 272.721591,465.976398 C242.936201,465.976398 214.315524,459.522857 187.659216,446.79263 L178.654412,465.560265 C208.144278,479.639458 239.793211,486.783088 272.721591,486.783088 C392.968762,486.783088 490.797794,389.210116 490.797794,269.273419" id="Fill-52" fill="#AFC4CB" mask="url(#mask-2)"></path>
                <path d="M274.012493,437.884055 C229.197781,437.884055 186.986398,420.519319 155.15367,388.982046 L140.514706,403.754203 C176.268028,439.173413 223.679137,458.680147 274.012493,458.680147 C378.606733,458.680147 463.698529,373.596404 463.698529,269.019791 C463.698529,208.894824 436.115712,153.639609 388.025171,117.430147 L375.511162,134.039292 C418.339579,166.287098 442.903088,215.487185 442.903088,269.019791 C442.903088,362.134292 367.139602,437.884055 274.012493,437.884055" id="Fill-53" fill="#AFC4CB" mask="url(#mask-2)"></path>
                <path d="M274.012493,437.884055 C229.197781,437.884055 186.986398,420.519319 155.15367,388.982046 L140.514706,403.754203 C176.268028,439.173413 223.679137,458.680147 274.012493,458.680147 C378.606733,458.680147 463.698529,373.596404 463.698529,269.019791 C463.698529,208.894824 436.115712,153.639609 388.025171,117.430147 L375.511162,134.039292 C418.339579,166.287098 442.903088,215.487185 442.903088,269.019791 C442.903088,362.134292 367.139602,437.884055 274.012493,437.884055" id="Fill-54" fill="#AFC4CB" mask="url(#mask-2)"></path>
                <path d="M273.273049,431.580882 C301.349398,431.580882 329.019195,424.300784 353.294118,410.529032 L343.005248,392.401725 C321.861116,404.398605 297.74951,410.740905 273.273049,410.740905 C223.503551,410.740905 176.816197,384.11436 151.42934,341.25 L133.488971,351.864495 C162.611233,401.036422 216.171733,431.580882 273.273049,431.580882" id="Fill-55" fill="#AFC4CB" mask="url(#mask-2)"></path>
                <path d="M273.273049,431.580882 C301.349398,431.580882 329.019195,424.300784 353.294118,410.529032 L343.005248,392.401725 C321.861116,404.398605 297.74951,410.740905 273.273049,410.740905 C223.503551,410.740905 176.816197,384.11436 151.42934,341.25 L133.488971,351.864495 C162.611233,401.036422 216.171733,431.580882 273.273049,431.580882" id="Fill-56" fill="#AFC4CB" mask="url(#mask-2)"></path>
                <path d="M422.558718,332.216912 C430.542613,312.64938 434.591912,291.925079 434.591912,270.615424 C434.591912,240.142199 426.138784,210.421572 410.139711,184.676471 L392.4375,195.728502 C406.375428,218.1566 413.740632,244.051525 413.740632,270.615424 C413.740632,289.196913 410.212703,307.25925 403.257642,324.304187 L422.558718,332.216912 Z" id="Fill-57" fill="#AFC4CB" mask="url(#mask-2)"></path>
                <path d="M422.558718,332.216912 C430.542613,312.64938 434.591912,291.925079 434.591912,270.615424 C434.591912,240.142199 426.138784,210.421572 410.139711,184.676471 L392.4375,195.728502 C406.375428,218.1566 413.740632,244.051525 413.740632,270.615424 C413.740632,289.196913 410.212703,307.25925 403.257642,324.304187 L422.558718,332.216912 Z" id="Fill-58" fill="#AFC4CB" mask="url(#mask-2)"></path>
                <path d="M304.450174,0 L302.074286,20.7002828 C429.272769,35.3408452 525.192766,143.203869 525.192766,271.597017 C525.192766,410.862936 412.027633,524.164081 272.928897,524.164081 C206.986717,524.164081 144.610104,498.85216 97.2900349,452.888573 C50.0774875,407.025692 22.9091152,345.581168 20.8002973,279.872269 L0,280.542484 C2.28570884,351.679088 31.6912317,418.197108 82.8023174,467.841671 C134.024393,517.597358 201.544718,544.996324 272.928897,544.996324 C423.501267,544.996324 546,422.35036 546,271.597017 C546,132.61238 442.158062,15.8525065 304.450174,0" id="Fill-59" fill="#AFC4CB" mask="url(#mask-2)"></path>
                <path d="M304.450174,0 L302.074286,20.7002828 C429.272769,35.3408452 525.192766,143.203869 525.192766,271.597017 C525.192766,410.862936 412.027633,524.164081 272.928897,524.164081 C206.986717,524.164081 144.610104,498.85216 97.2900349,452.888573 C50.0774875,407.025692 22.9091152,345.581168 20.8002973,279.872269 L0,280.542484 C2.28570884,351.679088 31.6912317,418.197108 82.8023174,467.841671 C134.024393,517.597358 201.544718,544.996324 272.928897,544.996324 C423.501267,544.996324 546,422.35036 546,271.597017 C546,132.61238 442.158062,15.8525065 304.450174,0" id="Fill-60" fill="#AFC4CB" mask="url(#mask-2)"></path>
                <polygon id="Fill-61" fill="#59595B" mask="url(#mask-2)" points="503.133715 49.4163062 497.823529 49.4163062 497.823529 48.1764706 509.867647 48.1764706 509.867647 49.4163062 504.57845 49.4163062 504.57845 62.2279412 503.133715 62.2279412"></polygon>
                <path d="M511.002028,48.1764706 L512.460518,48.1764706 L516.184394,56.4320428 C516.508503,57.1519474 516.873126,58.1518149 516.873126,58.1518149 L516.913639,58.1518149 C516.913639,58.1518149 517.298518,57.1519474 517.622627,56.4320428 L521.346503,48.1764706 L522.784737,48.1764706 L523.919118,62.2279412 L522.521398,62.2279412 L521.734759,52.3959112 C521.670612,51.636012 521.690869,50.436171 521.690869,50.436171 L521.650355,50.436171 C521.650355,50.436171 521.224963,51.6760067 520.90423,52.3959112 L517.561857,59.6082885 L516.248541,59.6082885 L512.902792,52.3959112 C512.582059,51.696004 512.136409,50.3961763 512.136409,50.3961763 L512.095896,50.3961763 C512.095896,50.3961763 512.116152,51.636012 512.055382,52.3959112 L511.265367,62.2279412 L509.867647,62.2279412 L511.002028,48.1764706 Z" id="Fill-62" fill="#59595B" mask="url(#mask-2)"></path>
                <path d="M262.963235,311.185903 C262.963235,302.028187 275.794734,300.718488 275.794734,294.685728 C275.794734,292.140976 273.831577,290.434295 271.085927,290.434295 C267.637419,290.434295 265.781595,293.70515 265.781595,293.70515 L263.074031,291.92043 C263.074031,291.92043 265.449208,287.051471 271.345604,287.051471 C276.165206,287.051471 279.617177,289.996597 279.617177,294.431253 C279.617177,302.862866 267.118065,304.172565 267.045355,310.022103 L280.025735,310.022103 L280.025735,313.147059 L263.150203,313.147059 C263.035945,312.458279 262.963235,311.80343 262.963235,311.185903" id="Fill-63" fill="#58585B" mask="url(#mask-2)"></path>
                <path d="M300.460175,301.06341 C300.460175,295.173292 299.26365,290.555354 295.062292,290.555354 C290.901495,290.555354 289.70497,295.173292 289.70497,301.06341 C289.70497,306.989465 290.901495,311.646935 295.062292,311.646935 C299.26365,311.646935 300.460175,306.989465 300.460175,301.06341 M286.047794,301.06341 C286.047794,293.247055 288.258323,287.051471 295.062292,287.051471 C301.906821,287.051471 304.113971,293.247055 304.113971,301.06341 C304.113971,308.919296 301.906821,315.154412 295.062292,315.154412 C288.258323,315.154412 286.047794,308.919296 286.047794,301.06341" id="Fill-64" fill="#58585B" mask="url(#mask-2)"></path>
                <path d="M312.327982,310.972891 L318.040323,310.972891 L318.040323,294.117549 C318.040323,293.306699 318.077927,292.492398 318.077927,292.492398 L318.00272,292.492398 C318.00272,292.492398 317.712146,293.082421 316.75838,294.007136 L314.344907,296.408634 L312.143382,294.117549 L318.334316,288.055147 L321.554559,288.055147 L321.554559,310.972891 L327.198529,310.972891 L327.198529,314.150735 L312.327982,314.150735 L312.327982,310.972891 Z" id="Fill-65" fill="#58585B" mask="url(#mask-2)"></path>
                <path d="M342.948648,299.909824 C343.356415,299.485764 345.243204,297.40859 345.243204,294.558765 C345.243204,292.053938 343.318403,290.479886 340.578067,290.479886 C337.692593,290.479886 336.10299,292.172531 336.10299,294.253298 C336.10299,297.25406 339.579382,298.407646 342.948648,299.909824 M338.10036,301.21794 C337.250269,301.832468 334.955712,303.683237 334.955712,306.60853 C334.955712,309.724291 337.547455,311.725997 340.322348,311.725997 C343.059229,311.725997 345.502378,309.878821 345.502378,307.068527 C345.502378,304.146828 341.614764,302.989648 338.10036,301.21794 M335.398036,299.600764 C333.694397,298.332178 332.47455,296.679064 332.47455,294.174236 C332.47455,290.555354 335.10085,287.051471 340.616079,287.051471 C345.467822,287.051471 348.833632,289.861765 348.833632,294.328767 C348.833632,297.947649 346.058739,301.027473 345.726996,301.412002 C347.724366,302.680587 349.279412,304.373232 349.279412,307.183526 C349.279412,311.42053 345.761553,315.154412 340.322348,315.154412 C335.10085,315.154412 331.213235,311.765528 331.213235,306.838529 C331.213235,302.680587 334.693082,300.103885 335.398036,299.600764" id="Fill-66" fill="#58585B" mask="url(#mask-2)"></path>
            </g>
        </g>
    </g>
</svg>